<?xml version="1.0" encoding="UTF-8" standalone="no"?>
<svg
   xmlns:dc="http://purl.org/dc/elements/1.1/"
   xmlns:cc="http://creativecommons.org/ns#"
   xmlns:rdf="http://www.w3.org/1999/02/22-rdf-syntax-ns#"
   xmlns:svg="http://www.w3.org/2000/svg"
   xmlns="http://www.w3.org/2000/svg"
   xmlns:sodipodi="http://sodipodi.sourceforge.net/DTD/sodipodi-0.dtd"
   xmlns:inkscape="http://www.inkscape.org/namespaces/inkscape"
   version="1.0"
   width="48"
   height="48"
   viewBox="0 0 36 36"
   preserveAspectRatio="xMidYMid meet"
   id="svg8"
   sodipodi:docname="location.svg"
   inkscape:version="0.92.2 5c3e80d, 2017-08-06">
  <defs
     id="defs12" />
  <sodipodi:namedview
     pagecolor="#ffffff"
     bordercolor="#666666"
     borderopacity="1"
     objecttolerance="10"
     gridtolerance="10"
     guidetolerance="10"
     inkscape:pageopacity="0"
     inkscape:pageshadow="2"
     inkscape:window-width="2560"
     inkscape:window-height="1319"
     id="namedview10"
     showgrid="false"
     units="px"
     inkscape:zoom="11.0625"
     inkscape:cx="6.4180791"
     inkscape:cy="10.666667"
     inkscape:window-x="0"
     inkscape:window-y="0"
     inkscape:window-maximized="1"
     inkscape:current-layer="svg8" />
  <metadata
     id="metadata2">
Created by potrace 1.10, written by Peter Selinger 2001-2011
<rdf:RDF>
  <cc:Work
     rdf:about="">
    <dc:format>image/svg+xml</dc:format>
    <dc:type
       rdf:resource="http://purl.org/dc/dcmitype/StillImage" />
    <dc:title></dc:title>
  </cc:Work>
</rdf:RDF>
</metadata>
  <g
     transform="matrix(0.24330697,0,0,-0.2400087,-2.6127122,38.285858)"
     id="g6"
     style="fill:#000000;stroke:none">
    <path
       d="M 45,140 C 28,121 28,119 56,66 l 28,-55 28,51 c 33,61 33,60 10,81 -25,23 -55,21 -77,-3 z m 77,-10 c 7,-10 3,-28 -14,-57 L 84,31 61,76 c -20,36 -22,46 -11,59 16,19 59,16 72,-5 z"
       id="path4"
       inkscape:connector-curvature="0" />
  </g>
  <path
     style="fill:#ffcc66;stroke-width:0.09039548"
     d="M 20.181175,34.105558 C 18.220031,30.317445 16.05608,26.194805 15.372396,24.944136 12.634395,19.935491 11.369331,17.098565 10.863959,14.833898 10.609006,13.691402 10.583628,12.205632 10.804516,11.353672 11.27595,9.5353584 12.904677,7.3839976 14.726563,6.1730997 18.567615,3.620183 24.739185,3.1215682 29.910058,4.9463914 c 3.303835,1.1659373 6.061279,3.5708535 6.876004,5.9969346 0.226499,0.674468 0.244227,0.837244 0.246508,2.263454 0.0027,1.661654 -0.08259,2.233646 -0.59952,4.022599 -0.580881,2.010274 -2.145565,5.542005 -3.604359,8.135593 -0.852602,1.515838 -8.957069,15.500506 -9.020567,15.565444 -0.03368,0.03444 -1.665804,-3.036745 -3.626949,-6.824858 z"
     id="path14"
     inkscape:connector-curvature="0"
     transform="scale(0.75)" />
</svg>
