<?xml version="1.0" encoding="UTF-8" standalone="no"?>
<svg
   xmlns:dc="http://purl.org/dc/elements/1.1/"
   xmlns:cc="http://creativecommons.org/ns#"
   xmlns:rdf="http://www.w3.org/1999/02/22-rdf-syntax-ns#"
   xmlns:svg="http://www.w3.org/2000/svg"
   xmlns="http://www.w3.org/2000/svg"
   xmlns:sodipodi="http://sodipodi.sourceforge.net/DTD/sodipodi-0.dtd"
   xmlns:inkscape="http://www.inkscape.org/namespaces/inkscape"
   version="1.0"
   width="48"
   height="48"
   viewBox="0 0 36 36"
   preserveAspectRatio="xMidYMid meet"
   id="svg8"
   sodipodi:docname="representation.svg"
   inkscape:version="0.92.2 5c3e80d, 2017-08-06">
  <defs
     id="defs12" />
  <sodipodi:namedview
     pagecolor="#ffffff"
     bordercolor="#666666"
     borderopacity="1"
     objecttolerance="10"
     gridtolerance="10"
     guidetolerance="10"
     inkscape:pageopacity="0"
     inkscape:pageshadow="2"
     inkscape:window-width="2560"
     inkscape:window-height="1319"
     id="namedview10"
     showgrid="false"
     units="px"
     inkscape:zoom="11.0625"
     inkscape:cx="6.4180791"
     inkscape:cy="10.666667"
     inkscape:window-x="0"
     inkscape:window-y="0"
     inkscape:window-maximized="1"
     inkscape:current-layer="svg8" />
  <metadata
     id="metadata2">
Created by potrace 1.10, written by Peter Selinger 2001-2011
<rdf:RDF>
  <cc:Work
     rdf:about="">
    <dc:format>image/svg+xml</dc:format>
    <dc:type
       rdf:resource="http://purl.org/dc/dcmitype/StillImage" />
    <dc:title></dc:title>
  </cc:Work>
</rdf:RDF>
</metadata>
  <g
     transform="matrix(0.25469086,0,0,-0.23057954,-2.205777,37.391414)"
     id="g6"
     style="fill:#000000;stroke:none">
    <path
       d="m 12,83 c 3,-51 6,-58 25,-61 12,-2 41,3 65,11 42,14 43,16 46,61 l 3,46 H 80 9 Z m 128,37 c 0,-6 -27,-10 -60,-10 -33,0 -60,4 -60,10 0,6 27,10 60,10 33,0 60,-4 60,-10 z m 0,-43 C 140,60 131,52 100,42 33,21 20,25 20,65 v 35 h 60 c 56,0 60,-2 60,-23 z"
       id="path4"
       inkscape:connector-curvature="0" />
  </g>
  <path
     style="fill:#ffff99;stroke-width:0.09039548"
     d="M 17.961582,15.867217 C 9.3167098,15.441048 3.9050847,14.314475 3.9050847,12.940984 c 0,-0.681593 1.6600562,-1.398875 4.4154011,-1.907818 7.3092812,-1.3501058 21.8450822,-1.4747387 30.2512652,-0.25938 3.28575,0.47505 5.403275,1.156913 5.887413,1.8958 0.152487,0.232726 0.15181,0.25573 -0.0168,0.570639 -0.615477,1.149493 -5.082075,2.066337 -12.424283,2.550291 -1.92076,0.126605 -11.935658,0.181253 -14.056497,0.0767 z"
     id="path14"
     inkscape:connector-curvature="0"
     transform="scale(0.75)" />
  <path
     style="fill:#ffff99;stroke-width:0.09039548"
     d="M 10.413559,40.673642 C 8.4412209,40.377417 7.3426834,39.939037 6.3610309,39.056447 5.1902116,38.00378 4.5214546,36.477416 4.1137889,33.927365 3.9891079,33.147454 3.960385,31.921653 3.9295713,26.065537 l -0.036506,-6.937853 11.7348237,0.0028 c 15.727565,0.0038 20.126271,0.107046 23.177405,0.544143 2.296542,0.328996 3.56606,0.785613 4.42938,1.593148 0.970065,0.907382 1.280022,2.001891 1.288292,4.549157 0.0059,1.806506 -0.09252,2.48348 -0.511811,3.521527 -0.370919,0.918304 -0.793314,1.546399 -1.552398,2.308397 -2.09127,2.099296 -6.010343,3.770118 -13.920904,5.934908 -6.562282,1.795823 -11.015761,2.743115 -14.372881,3.057233 -0.936763,0.08765 -3.255844,0.109057 -3.751413,0.03463 z"
     id="path16"
     inkscape:connector-curvature="0"
     transform="scale(0.75)" />
</svg>
