<?xml version="1.0" encoding="utf-8"?>
<!-- Generator: Adobe Illustrator 21.1.0, SVG Export Plug-In . SVG Version: 6.00 Build 0)  -->
<svg version="1.1" id="Calque_1" xmlns="http://www.w3.org/2000/svg" xmlns:xlink="http://www.w3.org/1999/xlink" x="0px" y="0px"
	 viewBox="0 0 432 432" style="enable-background:new 0 0 432 432;" xml:space="preserve">
<style type="text/css">
	.st0{fill:#CDCCCC;}
	.st1{fill:#F2F2F2;}
	.st2{fill:#020203;}
	.st3{fill:#B88E5C;}
	.st4{fill:#EA9FA1;}
	.st5{fill:#28285B;}
	.st6{fill:#9E1460;}
	.st7{fill:#82171C;}
</style>
<g>
	<g>
		<path class="st2" d="M149.3,188.1C134.5,282,133.2,293,127.9,322c3.7,0.8,7.3,1.5,9.4,2c2.7-8.8,28.6-97.3,36.6-129.6
			C167.8,189.2,158.9,187.2,149.3,188.1z"/>
		<path class="st3" d="M137.3,324c-2.1-0.5-5.7-1.3-9.4-2c-0.5-0.1-1.1-0.2-1.6-0.3c-0.2,1.5-2.2,11.3-8.1,40.7
			c1,2.4,8.2,3.3,11,2.8c0.7-2.9,4.1-14.7,9.8-40.6C138.6,324.4,138,324.2,137.3,324z"/>
	</g>
	<g>
		<path class="st3" d="M101.3,182.8c0.2-0.7,0.4-1.3,0.6-1.9c1-3.1,2.5-6,4.4-8.6c1.8-2.5,4.1-4.4,7.1-5.3c3.1-0.9,6.3,0.3,7.9,3.1
			c1.1,1.9,1.3,3.9,1.3,6.1c-0.1,2.6-0.8,5-2.1,7.2c-1.9,3.3-4.8,5.4-8.5,6.2c-0.7,0.1-1.4,0.3-2,0.4c-2.1,0.5-4.2,0.3-6.2-0.2
			c-0.2-0.1-0.4-0.1-0.6-0.1c-0.1,0-0.1,0-0.3,0c-0.1,1.3-0.2,2.5-0.2,3.8c-0.1,3,0.2,6,0.7,8.9c0.3,1.9,0.9,3.9,1.5,5.7
			c0.7,2.1,2.1,3.8,3.6,5.4c0.7,0.7,1.4,1.3,2.2,2c0.2-0.5,0.4-0.8,0.5-1.2c1-2.4,2.5-4.5,4.4-6.3c1.5-1.3,3.1-2.3,5.1-2.5
			c0.7-0.1,1.4,0,2.1,0.1c2.1,0.5,3.3,2.1,3.2,4.3c-0.1,4.3-3.1,8.4-7.2,9.6c-1,0.3-2.2,0.3-3.3,0.4c-0.4,0-0.8,0-1.3,0
			c-0.1,0.6-0.2,1.1-0.3,1.6c-0.7,3.8-0.5,7.5,0.5,11.2c0.5,1.7,1,3.5,2.2,5c0.5,0.7,0.4,1.3-0.2,1.8c-0.3,0.3-0.7,0.6-1.1,0.8
			c-1.1,0.7-2,0.5-2.7-0.5c-0.8-1.1-1.4-2.4-1.8-3.7c-1-3.4-1.8-6.8-1.8-10.3c0-2.2,0.4-4.3,0.6-6.5c0-0.3,0.1-0.6,0.1-0.8
			c-0.9-0.7-1.8-1.4-2.6-2.1c-2.4-2-4-4.7-5.1-7.6c-1.3-3.4-1.7-7-2.1-10.5c-0.3-3-0.2-6,0.2-9c0.1-0.4,0.1-0.8-0.4-1.1
			c-3.5-2-5.8-5-7.7-8.6c-1.1-2.1-1.8-4.2-2.3-6.5c-0.6-2.7-1.1-5.5-1.3-8.2c-0.4-5.9,0.1-11.7,2.6-17.1c0.8-1.7,1.7-3.4,2.5-5.1
			c0.3-0.6,0.7-1.2,1.1-1.7c0.7-0.9,1.3-1.2,1.9-0.9c0.6,0.3,0.6,1,0.2,2.1c-0.2,0.4-0.3,0.7-0.5,1.1c-0.8,2.1-1.7,4.2-2.4,6.3
			c-1.5,4.3-1.7,8.7-1.4,13.1c0.3,4.1,1.2,8,2.6,11.9c1,2.8,2.6,5.2,4.7,7.2C100.3,182,100.8,182.4,101.3,182.8z M103.8,184.2
			c1.1,0.6,3.4,1.1,4.5,0.9c0.1,0,0.3,0,0.4-0.1c0.6-0.1,1.2-0.3,1.8-0.4c2.8-0.6,4.7-2.1,5.8-4.8c0.7-1.7,1.1-3.5,1.2-5.3
			c0-0.9-0.1-1.7-0.3-2.6c-0.4-1.4-1.8-2.1-3.3-1.6c-1.1,0.4-2.2,1-3.1,1.8c-3.5,3.1-5.8,7-7.2,11.5
			C103.8,183.9,103.8,184.1,103.8,184.2z M115.2,217.1c1.4,0.1,2.7-0.1,3.8-0.8c2.3-1.4,3.8-3.5,3.9-6.2c0.1-1.5-0.9-2.1-2.2-1.6
			c-0.3,0.1-0.6,0.2-0.8,0.4c-0.5,0.5-1.1,0.9-1.5,1.5C116.8,212.3,116.1,214.7,115.2,217.1z"/>
		<path class="st3" d="M219.5,308.2c2.1-2.1,3.7-4.5,4.7-7.2c1.4-3.8,2.3-7.8,2.6-11.9c0.3-4.4,0.1-8.9-1.4-13.1
			c-0.7-2.1-1.6-4.2-2.4-6.3c-0.1-0.4-0.3-0.7-0.5-1.1c-0.5-1.1-0.4-1.8,0.2-2.1c0.6-0.3,1.2-0.1,1.9,0.9c0.4,0.6,0.8,1.1,1.1,1.7
			c0.9,1.7,1.7,3.3,2.5,5.1c2.5,5.4,3.1,11.2,2.6,17.1c-0.2,2.8-0.7,5.5-1.3,8.2c-0.5,2.3-1.2,4.4-2.3,6.5c-1.8,3.5-4.2,6.6-7.7,8.6
			c-0.5,0.3-0.5,0.6-0.4,1.1c0.4,3,0.5,6,0.2,9c-0.4,3.6-0.8,7.1-2.1,10.5c-1.1,2.9-2.6,5.6-5.1,7.6c-0.8,0.7-1.7,1.4-2.6,2.1
			c0,0.2,0.1,0.5,0.1,0.8c0.2,2.2,0.6,4.3,0.6,6.5c0,3.5-0.8,6.9-1.8,10.3c-0.4,1.3-1,2.5-1.8,3.7c-0.7,1.1-1.6,1.2-2.7,0.5
			c-0.4-0.2-0.7-0.5-1.1-0.8c-0.6-0.6-0.8-1.2-0.2-1.8c1.2-1.5,1.7-3.2,2.2-5c1-3.7,1.3-7.4,0.5-11.2c-0.1-0.5-0.2-1-0.3-1.6
			c-0.5,0-0.9,0.1-1.3,0c-1.1-0.1-2.2-0.1-3.3-0.4c-4.1-1.2-7.1-5.4-7.2-9.6c0-2.2,1.1-3.8,3.2-4.3c0.7-0.2,1.4-0.2,2.1-0.1
			c2,0.2,3.7,1.2,5.1,2.5c1.9,1.8,3.4,3.8,4.4,6.3c0.1,0.4,0.3,0.7,0.5,1.2c0.8-0.7,1.5-1.3,2.2-2c1.5-1.6,2.9-3.3,3.6-5.4
			c0.6-1.9,1.2-3.8,1.5-5.7c0.5-2.9,0.7-5.9,0.7-8.9c0-1.3-0.1-2.6-0.2-3.8c-0.2,0-0.2,0-0.3,0c-0.2,0-0.4,0.1-0.6,0.1
			c-2.1,0.5-4.1,0.7-6.2,0.2c-0.7-0.2-1.3-0.3-2-0.4c-3.7-0.8-6.6-2.9-8.5-6.2c-1.3-2.2-2-4.6-2.1-7.2c-0.1-2.1,0.2-4.2,1.3-6.1
			c1.6-2.8,4.8-4,7.9-3.1c3,0.9,5.3,2.8,7.1,5.3c1.9,2.6,3.4,5.5,4.4,8.6c0.2,0.6,0.4,1.2,0.6,1.9
			C218.7,309,219.1,308.6,219.5,308.2z M215.6,310.3c-1.4-4.5-3.7-8.3-7.2-11.5c-0.9-0.8-1.9-1.4-3.1-1.8c-1.4-0.5-2.9,0.2-3.3,1.6
			c-0.2,0.8-0.3,1.7-0.3,2.6c0.1,1.8,0.5,3.6,1.2,5.3c1.1,2.6,3.1,4.2,5.8,4.8c0.6,0.1,1.2,0.3,1.8,0.4c0.1,0,0.3,0.1,0.4,0.1
			c1.1,0.1,3.4-0.3,4.5-0.9C215.7,310.7,215.6,310.5,215.6,310.3z M201,337c-0.5-0.5-1-1-1.5-1.5c-0.2-0.2-0.5-0.3-0.8-0.4
			c-1.4-0.6-2.3,0.1-2.2,1.6c0.2,2.8,1.6,4.8,3.9,6.2c1.1,0.7,2.4,0.9,3.8,0.8C203.4,341.3,202.7,338.9,201,337z"/>
		<path d="M284.7,300.2c-0.1,1.4-0.2,3-0.1,4.5c0.2,3.5,1.6,6.6,3.4,9.6c0.9,1.6,1.9,3.1,2.8,4.7c2.1,3.6,3.8,7.3,4.7,11.4
			c0.3,1.5,0.7,3.1,1,4.6c0.1,0.6,0,1.1-0.5,1.4c-1.8,1.1-3.7,1.8-5.8,2.1c-0.4,0.1-0.9-0.1-1-0.6c-0.2-0.6-0.2-1.2-0.3-1.8
			c0-0.3,0.1-0.5,0.1-0.8c0.5-4.2-0.5-8.1-2.5-11.8c-0.9-1.6-1.9-3.1-2.9-4.6c-2.4-3.6-4.5-7.4-5.5-11.7c-0.8-3.7-0.5-7.2,0.8-10.7
			c0.1-0.3,0.3-0.6,0.2-1c-1.1-3.1-0.9-6.2-0.1-9.3c1.3-5.7,4-10.7,8.1-15c0.3-0.3,0.7-0.7,1-1c0.8-0.7,1.2-0.7,2.1-0.2
			c0.6,0.3,1.1,0.7,1.7,1c0.6,0.5,1.2,1,1.8,1.5c0.7,0.6,0.7,1.4,0,2c-0.2,0.2-0.5,0.3-0.7,0.5c-1.6,1.2-3.1,2.4-4.7,3.7
			c-0.5,0.4-0.9,0.8-1.3,1.2c-2.2,2.2-3.5,4.9-3.9,8c-0.1,0.9-0.2,1.8-0.4,2.8c0.3-0.2,0.5-0.3,0.7-0.5c1.5-1.3,3.1-2.3,5-3
			c1.3-0.5,2.7-0.7,4.1-0.5c2,0.3,3.4,1.9,3.5,3.9c0.2,4.7-3.7,9.1-8.4,9.5C286.7,300.3,285.8,300.2,284.7,300.2z M285.4,296.7
			c1.9,0.3,3.4,0.2,4.7-0.9c1.4-1.2,2.2-2.7,2.4-4.5c0.2-1.2-0.2-1.6-1.4-1.5c-0.4,0-0.7,0.3-1,0.5c-1.4,1.2-2.5,2.6-3.6,4.1
			C286.2,295.1,285.9,295.8,285.4,296.7z"/>
		<path d="M293.1,104.9c-0.4,0.2-0.7,0.4-1,0.5c-2.7,1.5-5.5,1.3-8.3,0.4c-1.7-0.6-2.5-2-2.6-3.8c-0.1-2.9,1.2-5,3.6-6.4
			c2.3-1.3,4.8-1.8,7.4-1.1c1.3,0.3,2.4,0.9,3.3,1.8c0.2,0.2,0.4,0.5,0.6,0.8c0.3-0.5,0.5-0.8,0.7-1.2c1.1-2,1.7-4.2,2-6.5
			c0.2-1.2,0.3-2.3,0.3-3.5c0.1-2.7-0.6-5.3-1.9-7.7c-0.6-1-1.2-1.9-1.8-2.9c-0.2-0.3-0.4-0.6-0.5-0.9c-0.2-0.7,0.4-1.2,1-1
			c0.3,0.1,0.5,0.3,0.8,0.5c1.4,1.1,2.4,2.5,3.2,4.1c1.7,3.3,2.3,6.8,1.8,10.4c-0.2,1.4-0.4,2.8-0.7,4.3c-0.5,2.3-1.5,4.5-2.8,6.5
			c-0.2,0.3-0.4,0.6-0.2,1.1c1,2.9,0.9,5.8-0.1,8.6c-1,2.8-2.4,5.4-4,7.8c-1.1,1.5-2.2,3-3.2,4.5c-2.1,2.9-4,6-5.2,9.4
			c-0.9,2.5-1.4,5.1-1.4,7.8c0,1.8,0.3,3.6,1,5.2c0.8,1.9,1.6,3.7,2.8,5.4c0.5,0.7,0.4,1.6-0.3,2c-1,0.6-2.1,1.2-3.2,1.6
			c-1.2,0.4-2.1-0.1-2.7-1.3c-1-2-1.8-4.2-2.3-6.4c-1-4.5-1-9,0.1-13.5c0.5-2.3,1.6-4.4,2.8-6.4c1.5-2.5,3.1-4.9,4.5-7.3
			c1.6-2.7,3.4-5.3,4.6-8.2c0.5-1.3,0.9-2.6,1.4-4C293,105.5,293,105.2,293.1,104.9z M284.7,102.9c2.8,1.3,5.8,0.6,8.3-2
			c-0.3-0.3-0.6-0.7-1-0.9c-0.7-0.4-1.4-0.7-2.2-0.8c-1.2-0.3-2.4-0.3-3.4,0.6C285.5,100.5,284.9,101.6,284.7,102.9z"/>
		<path d="M331.9,235.9c-0.1,1.9-0.7,3.7-1.6,5.5c-1.3,2.5-3.2,4.5-5.8,5.7c-0.7,0.3-1.4,0.6-2.1,0.8c-0.5,0.1-1.1,0-1.6-0.1
			c-0.8-0.3-1.1-1.1-0.6-1.9c0.3-0.4,0.6-0.9,1-1.3c1.4-1.7,1.6-3.5,0.7-5.4c-0.6-1.3-1.3-2.5-2.3-3.6c-0.7-0.8-0.6-1.6,0.3-2.1
			c1.6-1,3.2-2,4.8-2.9c1-0.6,2.1-1.1,3.2-1.6c0.2-0.1,0.5-0.2,0.8-0.2c0.9-0.2,1.4,0.1,1.9,0.9c0.1,0.2,0.2,0.4,0.3,0.6
			C331.3,232,331.8,233.9,331.9,235.9z"/>
		<path class="st3" d="M107.7,316.7c-0.1,1.9-0.7,3.7-1.6,5.5c-1.3,2.5-3.2,4.5-5.8,5.7c-0.7,0.3-1.4,0.6-2.1,0.8
			c-0.5,0.1-1.1,0-1.6-0.1c-0.8-0.3-1.1-1.1-0.6-1.9c0.3-0.4,0.6-0.9,1-1.3c1.4-1.7,1.6-3.5,0.7-5.4c-0.6-1.3-1.3-2.5-2.3-3.6
			c-0.7-0.8-0.6-1.6,0.3-2.1c1.6-1,3.2-2,4.8-2.9c1-0.6,2.1-1.1,3.2-1.6c0.2-0.1,0.5-0.2,0.8-0.2c0.9-0.2,1.4,0.1,1.9,0.9
			c0.1,0.2,0.2,0.4,0.3,0.6C107.2,312.8,107.7,314.7,107.7,316.7z"/>
		<path d="M103.8,111c1.3,1.4,2.3,3,3,4.8c1,2.6,1.3,5.1,0.7,7.6c-0.2,0.6-0.4,1.3-0.7,1.9c-0.2,0.4-0.6,0.7-1,0.9
			c-0.7,0.3-1.5-0.1-1.7-0.9c-0.1-0.5-0.2-1-0.3-1.5c-0.4-2-1.6-3.4-3.6-4.1c-1.3-0.5-2.6-0.9-4-1c-1-0.1-1.5-0.7-1.3-1.7
			c0.3-1.7,0.5-3.4,0.8-5.1c0.2-1.1,0.5-2.1,0.7-3.1c0.1-0.2,0.2-0.5,0.3-0.7c0.4-0.7,0.9-0.8,1.8-0.6c0.2,0.1,0.4,0.1,0.6,0.2
			C100.6,108.6,102.3,109.6,103.8,111z"/>
		<path d="M182.3,347.1c-0.2,1.8-0.5,3.8-1.3,5.8c-1,2.3-2.6,4.1-5,5c-1.5,0.6-3,1.1-4.4,1.7c-0.3,0.1-0.6,0.1-0.9,0.1
			c-0.8-0.1-1.3-0.9-1-1.7c0.1-0.2,0.2-0.4,0.3-0.5c2.3-2.9,3.1-6.3,3.6-9.8c0.1-0.8,0.2-1.5,0.7-2.2c0.4-0.5,0.8-0.9,1.5-0.9
			c1.6,0,3.2,0,4.8,0C181.7,344.6,182.3,345.4,182.3,347.1z"/>
		<path d="M253.4,275.9c-0.2,1.8-0.5,3.8-1.3,5.8c-1,2.3-2.6,4.1-5,5c-1.5,0.6-3,1.1-4.4,1.7c-0.3,0.1-0.6,0.1-0.9,0.1
			c-0.8-0.1-1.3-0.9-1-1.7c0.1-0.2,0.2-0.4,0.3-0.5c2.3-2.9,3.1-6.3,3.6-9.8c0.1-0.8,0.2-1.5,0.7-2.2c0.4-0.5,0.8-0.9,1.5-0.9
			c1.6,0,3.2,0,4.8,0C252.9,273.3,253.5,274.2,253.4,275.9z"/>
		<path class="st3" d="M328.8,297.5c-0.5,5.2-2.8,9.2-7.8,11.4c-0.6,0.3-1.3,0.4-2,0.4c-1.1-0.1-1.7-1.1-1.1-2
			c1.4-2.2,1.7-4.7,2.1-7.3c0.2-1.1,0.2-2.1,0.3-3.2c0-0.3,0.1-0.6,0.2-0.9c0.2-0.7,0.7-1,1.5-1c1.2,0,2.3,0,3.5,0.1
			c0.8,0.1,1.6,0.2,2.5,0.4c0.5,0.1,0.7,0.4,0.8,0.8C328.8,296.6,328.8,297,328.8,297.5z"/>
		<path d="M118.1,270.9c-0.5,5.2-2.8,9.2-7.8,11.4c-0.6,0.3-1.3,0.4-2,0.4c-1.1-0.1-1.7-1.1-1.1-2c1.4-2.2,1.7-4.7,2.1-7.3
			c0.2-1.1,0.2-2.1,0.3-3.2c0-0.3,0.1-0.6,0.2-0.9c0.2-0.7,0.7-1,1.5-1c1.2,0,2.3,0,3.5,0.1c0.8,0.1,1.6,0.2,2.5,0.4
			c0.5,0.1,0.7,0.4,0.8,0.8C118.1,270,118.1,270.4,118.1,270.9z"/>
		<path class="st3" d="M159.1,312.8c0.1-1.2,0.2-2.3,0.5-3.5c0.2-1.2,0.8-1.6,2-1.8c1.3-0.2,2.5-0.2,3.8,0c0.3,0,0.5,0.1,0.8,0.2
			c1.3,0.5,1.7,1.5,1.1,2.8c-1.3,2.7-2,5.6-2,8.6c0,1,0.2,2,0.4,3c0.2,1.1-0.5,1.9-1.5,1.6c-0.2-0.1-0.5-0.2-0.7-0.4
			c-2.4-2.4-3.8-5.2-4.2-8.5c0-0.1,0-0.3,0-0.4C159.2,313.8,159.2,313.3,159.1,312.8C159.2,312.8,159.2,312.8,159.1,312.8z"/>
		<path d="M144,86c0-1,0-2,0-3c0-1.1,0.5-1.7,1.5-2c0.6-0.2,1.2-0.3,1.8-0.3c0.9-0.1,1.7-0.2,2.6-0.4c0.6-0.1,1.1,0,1.5,0.5
			c0.4,0.5,0.4,1,0.1,1.6c-0.5,1.1-1,2.3-1.5,3.4c-0.8,2-1.1,4.1-1.3,6.3c0,0.8,0,1.6-0.1,2.4c0,0.6-0.4,1-1,1.3
			c-0.5,0.3-1,0.1-1.4-0.3c-0.6-0.5-1-1.2-1.3-1.9c-0.8-2.2-1.2-4.4-1-6.8C143.9,86.5,143.9,86.2,144,86C143.9,86,144,86,144,86z"/>
		<path d="M313.3,152.8c-1.1,0-1.9-0.4-2.7-0.8c-2.3-1.3-3.7-3.3-4.8-5.6c-0.4-1-0.8-2-1.2-3c-0.3-0.8-0.2-1.4,0.4-2
			c0.6-0.6,1.2-1.1,1.8-1.7c0.5-0.5,1-0.9,1.6-1.3c0.9-0.7,1.9-0.4,2.2,0.7c0.2,0.9,0.2,1.8,0.3,2.7c0.1,1.7,0.3,3.3,0.9,4.8
			c0.6,1.5,1.4,2.7,2.7,3.6c0.1,0.1,0.3,0.2,0.4,0.3c0.8,0.7,0.6,1.8-0.4,2.1C314,152.7,313.5,152.7,313.3,152.8z"/>
		<path d="M177.3,270.1c-1.1,0-1.9-0.4-2.7-0.8c-2.3-1.3-3.7-3.3-4.8-5.6c-0.4-1-0.8-2-1.2-3c-0.3-0.8-0.2-1.4,0.4-2
			c0.6-0.6,1.2-1.1,1.8-1.7c0.5-0.5,1-0.9,1.6-1.3c0.9-0.7,1.9-0.4,2.2,0.7c0.2,0.9,0.2,1.8,0.3,2.7c0.1,1.7,0.3,3.3,0.9,4.8
			c0.6,1.5,1.4,2.7,2.7,3.6c0.1,0.1,0.3,0.2,0.4,0.3c0.8,0.7,0.6,1.8-0.4,2.1C178,270.1,177.5,270.1,177.3,270.1z"/>
		<path class="st3" d="M326.9,110.1c0,2.1-0.4,4.1-1.1,6.1c-0.7,1.9-2,3.3-3.3,4.7c-0.3,0.4-0.8,0.5-1.3,0.4
			c-0.9-0.2-1.1-0.6-0.9-1.4c0.2-0.7,0.4-1.4,0.6-2.1c0.7-2.5,0.4-5-0.9-7.3c-0.1-0.2-0.2-0.3-0.3-0.5c-0.6-1.1-0.4-1.7,0.6-2.3
			c1.3-0.8,2.8-1.3,4.2-1.7c0.8-0.2,1.6,0.2,1.9,1c0.2,0.5,0.3,1,0.3,1.6C326.9,109,326.9,109.5,326.9,110.1z"/>
		<path class="st3" d="M92.1,244.5c0,2.1-0.4,4.1-1.1,6.1c-0.7,1.9-2,3.3-3.3,4.7c-0.3,0.4-0.8,0.5-1.3,0.4
			c-0.9-0.2-1.1-0.6-0.9-1.4c0.2-0.7,0.4-1.4,0.6-2.1c0.7-2.5,0.4-5-0.9-7.3c-0.1-0.2-0.2-0.3-0.3-0.5c-0.6-1.1-0.4-1.7,0.6-2.3
			c1.3-0.8,2.8-1.3,4.2-1.7c0.8-0.2,1.6,0.2,1.9,1c0.2,0.5,0.3,1,0.3,1.6C92.1,243.4,92.1,244,92.1,244.5z"/>
		<path class="st3" d="M132.2,100.1c0,2.1-0.4,4.1-1.1,6.1c-0.7,1.9-2,3.3-3.3,4.7c-0.3,0.4-0.8,0.5-1.3,0.4
			c-0.9-0.2-1.1-0.6-0.9-1.4c0.2-0.7,0.4-1.4,0.6-2.1c0.7-2.5,0.4-5-0.9-7.3c-0.1-0.2-0.2-0.3-0.3-0.5c-0.6-1.1-0.4-1.7,0.6-2.3
			c1.3-0.8,2.8-1.3,4.2-1.7c0.8-0.2,1.6,0.2,1.9,1c0.2,0.5,0.3,1,0.3,1.6C132.2,99,132.2,99.5,132.2,100.1z"/>
		<path class="st3" d="M335.8,169.1c-0.4,0-1-0.2-1.4-0.6c-0.5-0.6-1-1.1-1.4-1.7c-1.2-2-2-4.1-2.4-6.3c-0.1-0.8,0.1-1.4,0.9-1.6
			c1.6-0.4,3.1-1.1,4.6-1.7c0.6-0.3,1.3-0.4,1.8,0.2c0.6,0.5,0.5,1.2,0.3,1.8c-0.4,1.4-0.8,2.8-1.1,4.1c-0.2,0.6-0.2,1.2-0.2,1.9
			c-0.1,0.7,0,1.3,0.3,2C337.8,168.1,337.2,169,335.8,169.1z"/>
		<path class="st3" d="M308.6,350.6c0.4,0,1-0.2,1.4-0.6c0.5-0.6,1-1.1,1.4-1.7c1.2-2,2-4.1,2.4-6.3c0.1-0.8-0.1-1.4-0.9-1.6
			c-1.6-0.4-3.1-1.1-4.6-1.7c-0.6-0.3-1.3-0.4-1.8,0.2c-0.6,0.5-0.5,1.2-0.3,1.8c0.4,1.4,0.8,2.8,1.1,4.1c0.2,0.6,0.2,1.2,0.2,1.9
			c0.1,0.7,0,1.3-0.3,2C306.6,349.7,307.2,350.6,308.6,350.6z"/>
		<path class="st3" d="M254.7,334.8c-0.4,0-1-0.2-1.4-0.6c-0.5-0.6-1-1.1-1.4-1.7c-1.2-2-2-4.1-2.4-6.3c-0.1-0.8,0.1-1.4,0.9-1.6
			c1.6-0.4,3.1-1.1,4.6-1.7c0.6-0.3,1.3-0.4,1.8,0.2c0.6,0.5,0.5,1.2,0.3,1.8c-0.4,1.4-0.8,2.8-1.1,4.1c-0.2,0.6-0.2,1.2-0.2,1.9
			c-0.1,0.7,0,1.3,0.3,2C256.7,333.9,256.1,334.8,254.7,334.8z"/>
	</g>
	<g>
		<g>
			<path class="st3" d="M254.2,92.2c21.9,3.1,5.6,38.1-12.8,34.5c-4.6-0.9-8.7-4-11.1-8c-0.7-1.2-2.2-4.7,0.8-3.7
				c2.6,0.9,5.1,9.6,15.9,6.9c7.3-1.8,13.7-11.1,11.4-19.2c-1.7-6.2-5.8-7.7-12.2-7.6c-2.3,0-1.6-2.1-0.8-2.6c1-0.7,6.4-1.6,9.4-8.7
				c9.2-21.4-18-18.6-13.7-2.9c3.1,11.1-8.2-4.9,2.8-13.3C256.7,57.6,269.9,77.8,254.2,92.2z"/>
			<path class="st3" d="M198.3,128.5c1.2-0.3,2.3-0.5,3.4-0.7c3.2-0.6,6.4-1,9.7-0.8c1.4,0.1,2.7,0.2,4.1,0.4
				c1.4,0.2,2.6,0.7,3.9,1.3c0.2,0.1,0.4,0.3,0.6,0.4c0.3,0.3,0.4,0.7,0.3,1.2c-0.2,0.4-0.5,0.7-1,0.7c-0.4,0-0.7,0-1-0.2
				c-3.5-1.5-7.2-1.6-10.8-1.4c-2.9,0.2-5.9,0.7-8.8,1.1c-0.8,0.1-1.6,0.3-2.4,0.3c-1.5,0.2-2.8-0.8-2.8-2.3
				c-0.1-1.1,0.1-2.2,0.3-3.2c0.6-2.7,1.8-5,3.2-7.4c1.9-3.2,4.3-6.1,6.6-9.1c3.5-4.3,7.3-8.2,11.1-12.2c3.3-3.4,6.7-6.8,9.5-10.6
				c1-1.3,1.9-2.7,2.4-4.3c0.6-1.7,0.5-3.5,0-5.2c-0.4-1.3-1.3-2.1-2.5-2.6c-2.1-0.9-4.1-0.7-6.2-0.1c-2.7,0.8-5,2.2-6.7,4.4
				c-0.8,1-1.6,2.1-2.4,3.2c-1.3,1.9-1.8,4.1-1.7,6.5c0,0.2,0,0.4,0,0.6c0,0.4-0.2,0.6-0.6,0.7c-0.4,0.1-0.7-0.2-0.8-0.5
				c-0.1-0.4-0.2-0.8-0.2-1.1c-0.1-2.2,0.2-4.2,1.3-6.2c1.3-2.5,3-4.7,5.1-6.5c2.5-2.2,5.6-3.4,8.8-3.8c2.5-0.4,4.8,0,6.8,1.5
				c0.8,0.5,1.4,1.2,1.9,2c1.9,3.4,2.1,6.9,0.7,10.5c-0.9,2.2-2.1,4.1-3.5,5.9c-2.3,3-4.8,5.8-7.4,8.5c-3.3,3.5-6.7,7-9.9,10.6
				c-2.6,2.9-5.1,5.9-7.3,9.2c-1.3,2.1-2.5,4.3-3.3,6.7C198.5,126.8,198.3,127.6,198.3,128.5z"/>
			<path class="st3" d="M179.1,86.8c-1.1,2-2,4.2-6,10.6c-1,1.5-2.1,3-3.5,4.1c-0.8,0.6-1.6,1.2-2.6,1.4c-0.6,0.1-1.2,0.1-1.8-0.2
				c-0.4-0.3-0.7-0.6-0.7-1.2c0-0.4,0.1-0.7,0.5-0.9c0.4-0.1,0.7,0,0.9,0.4c0.1,0.1,0.1,0.2,0.2,0.3c5.2-0.2,16.2-25.3,18.1-30
				c0.6-1.3,1.1-2.9,2.5-2.5c1.4,0.4,1,1.9,0.3,5.3c-0.7,3.3-1.6,6.6-2.2,9.9c-6.9,36.4-2.4,39-6.8,38.9c-5.7-0.1,1.2-34.4,1.4-36
				C179.2,86.9,179.1,86.8,179.1,86.8z"/>
		</g>
		<g>
			<g>
				<path d="M224.7,148.7c0.3-0.3,0.7-0.6,1-0.9c0.9-0.8,2-1.5,3.1-1.9c2.2-0.8,4.5,0,5.8,1.9c1.3,1.9,1.5,4,1.1,6.2
					c-0.7,3.6-2.2,6.8-4.1,9.9c-0.8,1.2-1.6,2.4-2.5,3.6c-0.3,0.4-0.5,0.9-0.8,1.3c0.6,0.4,1.2,0.3,1.8,0.2c0.6-0.2,1.3-0.4,1.8-0.7
					c1.6-1,3.2-2,4.8-3c0.4-0.2,0.4-0.6,0.4-0.9c0.2-3.1,0.9-6.1,1.9-9c0.6-1.8,1.3-3.7,1.9-5.5c0.3-0.8,0.5-1.5,0.7-2.3
					c0.2-0.9,0.8-1.3,1.6-1.5c0.6-0.1,1.1-0.2,1.7-0.3c0.9-0.1,1.5,0.4,1.6,1.3c0,0.6-0.1,1.1-0.2,1.7c-0.6,2.3-1.2,4.5-1.8,6.8
					c-0.7,2.6-1.4,5.2-1.9,7.8c-0.2,1.1-0.1,2.2-0.1,3.3c0,0.3,0.1,0.5,0.2,0.8c0.2,0.4,0.6,0.4,1,0.2c0.9-0.5,1.8-0.9,2.7-1.4
					c1.8-1.2,1.8-1.2,2.2-3.3c0.8-4.3,1.5-8.6,2.8-12.8c0.2-0.8,0.4-1.6,0.6-2.3c0.4-1.1,0.8-1.4,2-1.4c0.4,0,0.8,0,1.2,0
					c0.9,0,1.5,0.5,1.5,1.4c0,0.9-0.1,1.8-0.2,2.7c-0.3,1.5-0.7,3-1,4.6c-0.3,1.8-0.6,3.6-0.9,5.5c-0.5,3-0.9,6-1.4,9
					c-0.1,0.4-0.1,0.7-0.2,1.3c1-0.6,1.8-1.1,2.6-1.7c2-1.3,3.9-2.8,5.6-4.5c2.6-2.5,4.5-5.5,5.9-8.8c0.6-1.3,0.9-2.8,1-4.3
					c0.1-0.8,0-1.5-0.6-2c-0.4-0.4-0.3-1,0.2-1.3c0.5-0.3,1.1-0.2,1.5,0.2c0.8,0.7,1.4,1.5,1.4,2.6c0,1.6-0.3,3.2-0.8,4.7
					c-1.7,4.5-4.3,8.3-8,11.4c-2.8,2.4-5.6,4.6-8.8,6.3c-0.6,0.3-0.8,0.8-0.9,1.3c-0.4,2.5-0.8,5-1.3,7.5c-0.3,1.8-0.9,3.5-1.6,5.2
					c-0.6,1.3-1.3,2.5-2.4,3.6c-2.4,2.4-7.3,2.6-9.6-1.5c-1-1.8-1.2-3.8-0.7-5.8c0.7-2.4,1.9-4.4,4-5.8c1.6-1.1,3.3-2.1,5.1-3.1
					c0.5-0.3,0.8-0.6,0.9-1.3c0.1-1.1,0.4-2.1,0.6-3.2c0.1-0.3,0.1-0.5,0.2-1c-0.4,0.3-0.6,0.5-0.8,0.7c-1.4,1.2-3,1.8-4.9,1.4
					c-1.9-0.4-3.3-1.4-4-3.2c-0.1-0.1-0.1-0.3-0.2-0.5c-0.1,0.1-0.3,0.1-0.4,0.2c-1.7,1.1-3.4,2.2-5.1,3.2c-1.6,0.9-3.4,1.2-5.2,1.3
					c-1.9,0-3.5-1.3-3.9-3.2c-0.3-1.4,0-2.7,0.6-4c0.4-0.7,0.8-1.4,1.3-2c2-2.6,3.8-5.3,5.5-8.2c0.6-1,1.1-2.1,1.6-3.2
					c0.4-0.9,0.3-1.7-0.2-2.6c-0.5-0.8-1.3-1.2-2.2-0.9c-0.7,0.2-1.4,0.5-2,0.9c-1.3,1-2.5,2.1-3.8,3.1c-0.4,0.4-0.6,0.8-0.8,1.4
					c-1.8,5.1-3.1,10.2-4.5,15.4c-1.2,4.4-2.2,8.8-2.7,13.3c-0.2,1.5-0.2,3-0.2,4.6c0,0.6,0.2,1.2,0.5,1.8c0.3,0.6,0.7,0.8,1.3,0.4
					c0.7-0.4,1.4-0.9,2-1.5c0.8-0.7,1.4-1.5,2.2-2.3c0.3-0.4,0.7-0.8,1.1-1.1c0.5-0.3,1-0.3,1.4,0c0.4,0.3,0.5,0.7,0.3,1.3
					c-0.7,2.1-1.9,4.1-3.4,5.8c-1.8,2.1-4.2,2.3-6.7,1.6c-2.3-0.7-3.5-2.5-4-4.8c-0.3-1.6-0.3-3.2-0.1-4.8
					c0.5-5.6,1.6-11.1,3.1-16.5c0.1-0.2,0.1-0.4,0.2-0.8c-0.3,0.2-0.4,0.4-0.6,0.5c-1.1,1-2.1,1.9-3.2,2.8c-2.4,1.9-5,1.9-7.6,0.7
					c-1.4-0.6-2.1-1.8-2.2-3.2c-0.1-1.1,0.1-2.1,0.5-3.1c0.6-1.7,1.5-3.2,2.6-4.6c1.1-1.6,2.4-3.1,3.5-4.6c0.9-1.2,1.7-2.4,2.5-3.6
					c0.3-0.5,0.5-1,0.7-1.5c0.5-1.5-0.1-2.7-1.6-3.2c-1.1-0.4-2.2-0.3-3.3,0.1c-3,1.1-5.4,3.1-7.4,5.5c-0.2,0.2-0.3,0.5-0.3,0.7
					c-1.2,4.8-2.4,9.7-3.5,14.5c-1.3,5.5-2.3,11.1-2.7,16.7c-0.1,1.1-0.1,2.2-0.1,3.3c0,0.8,0.1,1.7,0.6,2.4
					c0.7,0.9,1.4,1.1,2.3,0.3c0.6-0.5,1.1-1,1.7-1.6c0.2-0.2,0.4-0.4,0.6-0.5c0.4-0.3,0.9-0.2,1.3,0.1c0.4,0.3,0.5,0.7,0.3,1.1
					c-0.2,0.6-0.5,1.1-0.8,1.6c-0.5,0.7-1,1.4-1.5,2c-1.4,1.7-4.3,2.1-6.3,0.9c-1.8-1-2.8-2.6-3-4.5c-0.2-1.5-0.2-3.1-0.1-4.6
					c0.2-5.6,1.3-11.1,2.5-16.6c0.1-0.3,0.1-0.7,0.2-1.2c-0.6,0.4-1,0.7-1.4,1c-0.6,0.4-1.3,0.7-2.1,0.8c-1.6,0.1-2.8-0.6-3.5-2
					c-0.1-0.2-0.2-0.4-0.3-0.6c-0.6,0.5-1.1,1-1.7,1.4c-1.1,0.9-2.5,1.3-3.9,1.4c-1.9,0.1-3.1-0.8-4-2.3c-0.7-1.3-0.9-2.7-0.9-4.2
					c0-4.5,1.2-8.8,3.1-12.9c0.8-1.7,1.9-3.3,3.1-4.8c0.7-0.8,1.6-1.5,2.6-2.1c1.5-0.8,2.9-0.7,4.3,0.2c0.9,0.6,1.7,1.3,2.2,2.3
					c0.1,0.2,0.2,0.4,0.4,0.7c0.2-0.4,0.3-0.7,0.4-1c0.5-1,0.9-2,1.4-2.9c0.6-1.1,2.5-1.2,3.3-0.3c0.3,0.3,0.4,0.7,0.2,1.2
					c-1.4,3.3-2.2,6.8-3.4,10.2c-1.2,3.3-2.1,6.6-2.5,10.1c-0.1,0.5-0.1,1.1-0.1,1.6c0,0.1,0,0.2,0.1,0.4c0.6-0.1,1.2-0.4,1.6-0.8
					c0.8-0.8,1.6-1.5,2.3-2.3c0.2-0.2,0.3-0.5,0.3-0.7c1.2-4.6,2.3-9.2,3.4-13.7c0.4-1.6,0.7-3.3,1-4.9c0.3-1.4,0.8-1.9,2.3-1.9
					c0.4,0,0.8,0,1.3,0c0.8,0.1,1.4,0.5,1.3,1.4c0,0.7-0.1,1.5-0.3,2.2c-0.3,1.3-0.6,2.6-0.9,3.8c0,0,0,0.1,0.1,0.1
					c0.2-0.2,0.4-0.3,0.5-0.4c1-0.7,1.9-1.5,2.9-2.2c1.3-0.9,2.9-1.5,4.5-1.7c1.6-0.2,3.2,0,4.6,0.9c2.1,1.3,3.5,3.7,2.9,6.7
					c-0.2,1.1-0.6,2.3-1.1,3.3c-0.8,1.6-1.6,3.2-2.5,4.7c-0.6,1.1-1.4,2-2,3.1c-0.7,1.2-1.3,2.4-1.8,3.6c-0.2,0.4-0.3,0.8-0.4,1.2
					c0.6,0.4,1.2,0.2,1.7,0c1.2-0.5,2.2-1.2,3.1-2.1c1.4-1.4,2.7-2.8,4-4.2c0.3-0.3,0.5-0.7,0.6-1.2c1.3-4.3,2.5-8.5,3.8-12.8
					c0.2-0.6,0.4-1.2,0.6-1.8c0.2-0.4,0.5-0.8,0.9-0.9c1.1-0.3,2.1-0.6,3.2-0.8c0.9-0.2,1.5,0.4,1.4,1.3c-0.1,1-0.3,2-0.4,3
					c0,0.2-0.1,0.4-0.1,0.6C224.6,148.7,224.7,148.7,224.7,148.7z M176.6,165.1c0.8,0.1,1,0.1,1.5-0.2c0.8-0.6,1.6-1.2,2.5-1.8
					c0.4-0.3,0.5-0.7,0.6-1.2c0.1-1,0.3-2.1,0.4-3.1c0.6-3,1.5-5.9,2.8-8.7c0.3-0.7,0.4-1.4,0.2-2.2c-0.3-1.1-0.8-2.1-1.9-2.7
					c-0.7-0.4-1.1-0.4-1.6,0.2c-0.6,0.6-1.1,1.3-1.5,2.1c-1.5,2.6-2.3,5.4-2.9,8.4c-0.4,2.1-0.8,4.3-0.7,6.5
					C176,163.3,176.2,164.2,176.6,165.1z M246,177.8c-0.1,0-0.1-0.1-0.2-0.1c-1.4,0.8-2.7,1.7-3.8,2.7c-1.5,1.4-1.9,3.1-1.7,5
					c0.1,0.8,0.3,1.5,0.9,2.1c0.6,0.7,1.3,0.7,1.9,0c0.4-0.5,0.7-1,0.9-1.5c0.5-1.7,1-3.5,1.5-5.2
					C245.7,179.9,245.8,178.8,246,177.8z"/>
				<path d="M146.6,152.3c2-0.2,3.9-0.5,5.8-0.7c1.6-0.2,3.3-0.5,4.9-0.7c1.1-0.1,1.1-0.1,1.4-1.1c1-3.9,1.9-7.8,2.9-11.8
					c0.8-3.3,1.7-6.6,2.6-9.9c0-0.2,0.1-0.3,0.2-0.5c0.6-1.9,1.1-2.3,3.1-2.1c0.4,0,0.7,0.1,1.1,0.1c0.7,0.2,1.1,0.8,1,1.5
					c-0.7,3-1.4,6-2.3,8.9c-1.2,4-1.9,8.1-2.9,12.1c0,0.2-0.1,0.3-0.1,0.7c0.5-0.3,0.9-0.5,1.3-0.7c0.6-0.4,1.1-0.8,1.6-1.1
					c0.3-0.2,0.6-0.4,0.9-0.5c0.5-0.2,0.9,0,1.2,0.3c0.3,0.4,0.4,0.9,0.1,1.2c-0.3,0.5-0.8,1-1.2,1.4c-1.2,1.1-2.7,1.9-4.2,2.5
					c-0.4,0.2-0.6,0.3-0.7,0.7c-1.3,5.4-3,10.8-4.1,16.3c-0.2,0.9-0.2,1.8-0.2,2.8c0,1.3,0.5,2.3,1.4,3.2c0.5,0.5,1.1,0.7,1.8,0.3
					c0.3-0.2,0.6-0.3,1-0.5c0.5-0.2,0.9-0.2,1.1,0.1c0.3,0.3,0.3,0.8,0.1,1.1c-0.6,1-1.4,1.8-2.6,2c-2.5,0.5-5.1-0.5-6.5-2.6
					c-0.8-1.3-1.3-2.6-1.3-4.1c0-1.7,0.1-3.3,0.5-4.9c1-3.8,2-7.7,3-11.5c0.1-0.3,0.2-0.7,0.3-1.2c-4,0.4-7.8,0.8-11.7,1.2
					c-0.1,0.3-0.2,0.6-0.3,0.9c-1.6,4.9-3.1,9.7-4.7,14.6c-0.4,1.2-0.9,2.4-1.5,3.6c-0.5,0.9-1,1.8-1.7,2.5c-1.3,1.6-3.1,2.1-5.2,2
					c-1.5-0.1-2.7-0.9-3.6-2.1c-1.4-1.7-2-3.7-2.2-6c-0.4-3.6,0.7-6.7,2.5-9.7c1.7-2.8,4-4.7,7-5.7c1.1-0.4,2.3-0.7,3.4-1.1
					c0.5-0.1,0.7-0.4,0.9-0.9c0.8-2.9,1.4-5.9,1.9-8.9c0.4-2.4,0.9-4.8,1.2-7.2c0.3-2.3,0.1-4.5-0.6-6.7c-0.8-2.5-3.6-4.6-6.5-4.5
					c-1.2,0-2.4,0.4-3.4,1.1c-2.6,1.8-4.2,4.2-4.7,7.3c-0.3,2,0,4,1.1,5.8c0.7,1.1,1.8,1.8,3.2,1.7c0.6,0,1.3-0.1,1.9-0.2
					c1-0.1,1.9-0.6,2.5-1.4c0.9-1.1,1.5-2.4,1.5-3.9c0-0.7,0.1-1.4,0.1-2.1c0-0.4,0.2-0.8,0.7-0.8c0.4-0.1,0.7,0.2,0.8,0.8
					c0.6,2.8,0.1,5.3-2,7.4c-0.9,0.9-2,1.6-3.4,1.7c-0.8,0.1-1.6,0.3-2.4,0.3c-2.1,0.1-3.8-0.9-4.9-2.7c-1.5-2.4-1.9-5.1-1.4-7.9
					c0.5-3,1.9-5.4,4.1-7.5c3.2-3,6.9-3.8,11-2.5c3.2,1,5.5,3.2,6.6,6.5c0.9,2.6,1.1,5.3,1,8c-0.3,4.8-1,9.6-2.1,14.3
					C146.7,151.7,146.7,151.9,146.6,152.3z M139.6,156.4c-1.2,0.4-2.2,0.7-3.1,1.1c-1.1,0.4-2.1,1-3,1.9c-1.3,1.2-2.2,2.6-3,4.1
					c-1,1.8-1.3,3.8-1.1,5.8c0.2,1.8,0.8,3.4,2.1,4.7c0.7,0.6,1.2,0.7,1.9,0c0.4-0.4,0.8-0.9,1-1.5c0.6-1.4,1.3-2.9,1.8-4.4
					c1.1-3.4,2.1-6.8,3.1-10.2C139.3,157.5,139.4,157.1,139.6,156.4z"/>
			</g>
			<g>
				<path d="M269.3,185c-0.1,0.2-0.1,0.4-0.2,0.6c-1.2,6.5-2.8,12.9-4.9,19.2c-0.8,2.5-1.5,5-2.4,7.4c-1,2.7-2.3,5.2-4.2,7.4
					c-1.5,1.7-3.2,3.2-5.3,4.2c-1.3,0.6-2.7,1-4.2,1.1c-0.4,0-0.9,0.1-1.3,0.2c-5.3,0.6-8.7-2.3-10.5-5.7c-1.7-3.3-1.9-6.7-1.2-10.2
					c0.4-2,1-3.9,1.7-5.7c1.1-2.7,2.8-4.8,5.4-6.3c2.9-1.7,8.3-1.2,10,3.6c1.7,4.6,0.7,8.9-2.7,12.4c-1.4,1.4-3.1,2.1-5.1,1.5
					c-1.7-0.5-2.6-2-2.3-3.7c0-0.3,0.2-0.6,0.3-0.8c0.2-0.3,0.5-0.4,0.9-0.3c0.4,0.1,0.5,0.4,0.5,0.7c0,0.3,0,0.6,0,0.9
					c0,0.9,0.4,1.3,1.2,1.5c1.2,0.4,2.3-0.1,3.1-0.9c1.5-1.4,2.5-3,2.9-5.1c0.3-1.8,0.4-3.6-0.5-5.3c-0.7-1.3-1.6-2.5-3.2-2.8
					c-1.7-0.4-3.3-0.1-4.7,1.1c-2.5,2.3-4,5.3-4.7,8.6c-0.4,1.9-0.7,3.9-0.4,5.9c0.3,2,1.1,3.8,2.4,5.3c2.1,2.5,5.5,3.2,8.5,1.9
					c1.5-0.7,2.8-1.5,4.1-2.5c0.5-0.4,1-0.9,1.4-1.5c0.7-1.3,1.5-2.5,2-3.9c1.2-3,2.2-6.2,3-9.4c1.6-5.6,3.2-11.3,4.7-16.9
					c1-3.7,1.9-7.5,3-11.3c0.4-1.5,0.9-2.9,1.4-4.4c0.2-0.6,0.5-0.9,1-1c0.4-0.1,0.9-0.2,1.3-0.2c0.7,0,0.9,0.1,0.9,0.9
					c0.2,1.8,0.4,3.6,0.5,5.4c0.3,3.9,0.9,7.7,1.5,11.5c0.7,4.3,1.8,8.6,3,12.8c0.9,2.8,2,5.6,3.3,8.2c0.1,0.1,0.2,0.3,0.4,0.4
					c0-0.3,0-0.7,0-1c0-4,0.3-8,0.8-12c0.7-5.3,2.2-10.5,4.1-15.5c0.9-2.5,1.9-5,3.3-7.3c1.3-2.1,2.9-3.9,4.8-5.4
					c1.5-1.2,3.2-1.9,5.2-1.7c3.1,0.3,5.6,2.2,6.1,5.2c0.1,0.7,0,1.4-0.1,2.1c-0.3,1.9-0.9,3.6-2.1,5.1c-1,1.3-2.2,2.2-3.9,2.6
					c-0.4,0.1-0.8,0.1-1.2,0c-0.4-0.1-0.7-0.4-0.7-0.8c0-0.4,0.3-0.6,0.7-0.7c1.4-0.3,2.3-1.3,3.1-2.4c1-1.3,1.4-2.8,1.5-4.5
					c0.1-1.2-0.5-2-1.5-2.5c-1-0.5-2.1-0.5-3,0.3c-1.3,1.2-2.4,2.7-3.2,4.3c-1,1.8-1.6,3.9-2.3,5.8c-1.7,5.4-3.2,10.8-4.1,16.3
					c-0.4,2.3-0.6,4.6-0.8,6.9c-0.3,3.1-0.5,6.2-0.7,9.3c0,0.5-0.1,0.9-0.3,1.4c-0.3,0.8-1,1.4-1.8,1.6c-0.8,0.1-1.5,0.1-2.3,0.1
					c-0.3,0-0.6-0.2-0.9-0.4c-0.5-0.4-0.9-0.9-1.3-1.4c-2.6-4-4.8-8.1-6.4-12.6c-1.3-3.8-2.2-7.7-2.8-11.7c-0.3-1.8-0.5-3.7-0.7-5.5
					c0-0.1,0-0.3-0.1-0.4C269.4,185.1,269.3,185.1,269.3,185z"/>
				<path d="M296.7,205.9c-0.1,0.7-0.2,1.3-0.2,2c0,1.8,0,3.5,0.1,5.3c0,1,0.5,1.9,1.1,2.7c0.7,0.9,1.6,1.2,2.7,0.9
					c1-0.3,1.9-0.9,2.7-1.6c1-1,1.9-2.1,2.8-3.2c0.2-0.3,0.4-0.7,0.4-1.1c0.2-5.4,1.5-10.5,3.3-15.5c0.3-0.8,0.4-0.9,1.3-0.9
					c0.8,0,1.6,0.1,2.3,0.2c0.7,0.1,0.8,0.3,0.7,1c-0.3,1.3-0.7,2.6-0.9,3.9c-0.4,2.2-0.7,4.4-0.9,6.6c-0.2,1.7-0.4,3.4-0.4,5.1
					c0,1.2,0.1,2.4,0.2,3.6c0,0.5,0.3,1,0.4,1.5c0.3-0.2,0.5-0.2,0.7-0.4c0.7-0.7,1.6-1.3,2.2-2.1c1.2-1.6,2.2-3.2,3.3-4.8
					c0.2-0.3,0.3-0.8,0.4-1.2c0.3-2.8,0.8-5.6,1.5-8.4c0.3-1.1,0.5-2.2,0.7-3.3c0.2-0.8,0.7-1.2,1.4-1.2c0.6-0.1,1.2-0.2,1.9-0.2
					c0.6,0,0.8,0.1,0.8,0.8c0,0.8-0.1,1.6-0.2,2.4c-0.5,4.9-1,9.9-0.9,14.9c0,1.3,0.3,2.7,0.7,4c0.4,1.1,1.8,1.6,2.8,0.9
					c0.7-0.5,1.3-1.1,1.8-1.7c0.5-0.5,1-1.2,1.3-1.8c1.3-2.2,2.6-4.5,3.8-6.8c0.4-0.7,0.6-1.4,0.9-2.1c-0.6-0.4-1.2-0.8-1.7-1.2
					c-1.4-1.1-2.4-2.5-2.9-4.2c-0.3-1.2-0.3-2.3,0.1-3.4c0.7-2.2,3-3.3,5-2.5c0.7,0.3,1.2,0.7,1.6,1.4c0.8,1.2,1.2,2.5,1.2,4
					c0,1.1-0.1,2.2-0.2,3.3c0,0.1,0,0.2,0,0.4c0.8,0.1,1.6-0.1,2.3-0.4c1.8-0.8,3.5-1.8,4.9-3.3c0.4-0.4,0.8-0.5,1.2-0.3
					c0.4,0.3,0.5,0.8,0.2,1.3c-0.1,0.2-0.3,0.4-0.5,0.6c-1.2,1.4-2.6,2.5-4.2,3.5c-1.2,0.7-2.4,1-3.8,1.1c-0.2,0-0.4,0-0.6,0
					c-0.5,1.3-1,2.7-1.5,3.9c-1.3,3-2.8,6-4.8,8.7c-1.4,1.9-3.1,3.4-5.5,3.7c-1,0.1-2,0.2-3,0c-1.7-0.3-2.9-1.4-3.6-3
					c-0.6-1.4-1-2.9-1.1-4.4c0-0.5-0.1-0.9-0.1-1.6c-0.3,0.4-0.4,0.5-0.5,0.7c-1.1,1.6-2.2,3.1-3.3,4.7c-0.6,0.8-1.3,1.4-2.3,1.6
					c-1.5,0.4-2.9,0.1-4.1-1c-0.8-0.7-1.2-1.6-1.5-2.6c-0.1-0.3-0.2-0.6-0.3-0.9c-0.2,0.3-0.4,0.5-0.6,0.7c-0.9,1.1-1.7,2.2-2.6,3.2
					c-1.2,1.2-2.5,2.1-4.3,2.3c-1.6,0.2-3-0.1-4.4-0.9c-2.2-1.3-3.5-3.2-4-5.7c-0.3-1.7-0.2-3.4-0.1-5.1c0.3-4.3,1.9-8.2,4.5-11.6
					c0.9-1.2,2-2.2,3.3-2.9c1.6-0.9,3.3-1.1,4.9-0.1c1.7,1,2.5,2.8,2.1,4.7c-0.5,2.5-1.9,4.4-4.1,5.7c-1.1,0.7-2.3,0.8-3.5,0.7
					C297.4,206,297.1,205.9,296.7,205.9z M297.1,203.9c3.3,0.9,6.3-3.3,5.9-5.5c-0.2-1.3-1.5-1.8-2.5-1.1c-0.1,0.1-0.3,0.2-0.4,0.4
					C298.6,199.5,297.5,201.5,297.1,203.9z M336.2,202.1c0.1-1.4,0.3-2.6,0.1-3.8c-0.1-0.7-0.3-1.3-0.6-1.9
					c-0.3-0.5-0.6-0.8-1.1-0.7c-0.6,0-0.9,0.4-1.1,0.9c-0.3,0.7-0.3,1.4-0.1,2.2C333.8,200.2,334.8,201.2,336.2,202.1z"/>
			</g>
			<g>
				<g>
					<path d="M275.6,229.1c1.1-0.4,2.2-0.8,3.3-1.2c0.4-0.2,0.8-0.3,1.3-0.4c1.7-0.4,3.1,0.4,3.5,2.1c0.2,0.9,0.3,1.8,0.3,2.7
						c-0.1,2.6-0.8,5.1-1.6,7.6c-0.8,2.6-1.8,5.1-2.7,7.7c-0.4,1.1-0.6,2.2-0.9,3.3c0,0.2,0,0.4-0.1,0.8c0.4-0.3,0.7-0.4,1-0.7
						c0.8-0.7,1.6-1.5,2.4-2.3c2.4-2.3,4.7-4.7,7.1-7c0.2-0.2,0.4-0.4,0.6-0.5c0.6-0.5,1.1-0.5,1.7,0c0.4,0.3,0.5,0.5,0.2,1
						c-0.3,0.6-0.7,1.1-1.1,1.7c-2.4,2.9-4.7,5.7-7.1,8.5c-1.1,1.3-2.3,2.6-3.8,3.6c-1.1,0.8-2.4,1.1-3.7,0.9
						c-2-0.2-3.5-1.8-3.6-4.1c-0.1-1.2,0-2.3,0.2-3.5c0.8-4.5,2.5-8.7,4.7-12.6c0.8-1.4,1.6-2.8,2.3-4.2c0.4-0.7,0.7-1.5,1.1-2.4
						c-0.5,0.1-0.7,0.1-0.9,0.2c-1.4,0.6-2.8,1.2-4.2,1.7c-0.4,0.2-0.4,0.5-0.5,0.8c-0.5,2-0.8,4-1.4,5.9c-1.8,5.2-4.3,9.9-8.3,13.8
						c-1.1,1-2.3,1.9-3.5,2.7c-1.5,1-3.3,1.4-5.1,1.2c-1.8-0.2-2.9-1.2-3.6-2.8c-0.1-0.2-0.1-0.3-0.2-0.5c0-0.1-0.1-0.3-0.2-0.5
						c-0.3,0.2-0.5,0.4-0.7,0.6c-1.2,0.8-2.4,1.7-3.7,2.4c-1.5,0.9-3.2,1-4.9,0.5c-1.7-0.5-2.8-1.7-3.3-3.4c0-0.1-0.1-0.3-0.1-0.4
						c0-0.1-0.1-0.2-0.1-0.4c-0.2,0.2-0.3,0.3-0.4,0.4c-0.8,1-1.6,2-2.4,3c-0.6,0.7-1.3,1.4-2.1,2c-3.8,2.8-8.5,1.6-11.3-1.2
						c-1.8-1.8-2.6-4.1-2.6-6.7c0-6.1,2.2-11.3,6.5-15.6c1-1,2.2-1.8,3.6-2.2c3.7-1.2,7.1,1.3,7.5,4.7c0.3,2.3-0.5,4.4-2.2,6
						c-2.1,2-4.6,3.1-7.6,2.5c-0.4-0.1-0.8-0.1-1.2-0.2c-0.3,1.3-0.2,2.5-0.2,3.8c0.1,0.8,0.1,1.6,0.4,2.3c0.7,2.3,2.7,3.2,4.8,2
						c1.3-0.7,2.5-1.7,3.7-2.7c1.2-1.1,2.3-2.3,3.5-3.4c0.4-0.4,0.6-0.8,0.8-1.4c0.9-3.4,2.1-6.6,3.9-9.6c0.7-1.2,1.5-2.3,2.5-3.3
						c1.3-1.3,2.8-2,4.7-2c1.7,0,3,0.6,4.2,1.8c0.2,0.2,0.4,0.4,0.6,0.7c0.5-0.7,0.9-1.4,1.4-2c0.3-0.4,0.6-0.7,1-0.8
						c0.8-0.1,1.5-0.1,2.3-0.1c0.4,0,0.6,0.3,0.5,0.8c-0.1,0.4-0.2,0.7-0.3,1c-0.1,0.4-0.3,0.8-0.4,1.2c-2.2,5.3-2.9,10.8-3,16.5
						c0,0.8,0.1,1.5,0.2,2.3c0,0.5,0.4,0.8,0.8,0.8c0.5,0,1-0.1,1.4-0.2c1.7-0.8,3.1-2,4.3-3.4c2.9-3.5,5.4-7.2,6.8-11.5
						c0.4-1.4,0.7-2.8,1.1-4.3c-0.4,0-0.7,0-0.9,0c-1.5,0.1-2.8-0.4-4-1.3c-1.4-1-2-2.5-1.7-4.2c0.1-0.6,0.2-1.2,0.4-1.8
						c1.1-3.9,5.5-3.7,7.4-1.8c0.8,0.8,1.3,1.8,1.6,3C275.3,227.5,275.5,228.3,275.6,229.1z M245.9,248.9c0,0.6,0,1.1,0.1,1.6
						c0.1,0.8,0.4,1.1,1.2,1c0.6,0,1.2-0.1,1.6-0.4c1.1-0.6,2.1-1.2,3.2-1.8c0.4-0.2,0.5-0.5,0.5-1c0-0.9,0-1.9,0.1-2.8
						c0.3-3.3,1.2-6.5,2.3-9.6c0.5-1.4,0.5-1.5-0.7-2.5c-0.1-0.1-0.2-0.1-0.3-0.2c-1.5-1-2.9-0.9-4.1,0.5c-0.5,0.6-0.9,1.4-1.3,2.2
						C247,240.2,246.3,244.6,245.9,248.9z M228,242.7c1.1,0.3,2.1,0.4,3.2,0.2c2.6-0.4,4.6-2.4,5.2-4.8c0.3-1.4-0.5-3.3-2.2-3.9
						c-0.5-0.2-1-0.2-1.6,0c-1,0.3-1.7,1-2.3,1.9c-1.1,1.6-1.7,3.3-2,5.2C228.1,241.6,228,242.1,228,242.7z M272.6,230.1
						c0.1-1.1,0-2.3-0.5-3.3c-0.2-0.6-0.7-1-1.2-1.3c-0.7-0.4-1.4-0.2-1.8,0.5c-0.4,0.7-0.6,1.4-0.6,2.2c0,0.9,0.5,1.5,1.2,1.8
						C270.7,230.5,271.6,230.5,272.6,230.1z"/>
					<path d="M210,243.8c-0.3,0.3-0.5,0.5-0.7,0.8c-1.8,2.1-3.7,4.3-5.5,6.4c-0.5,0.6-1.1,1-1.6,1.5c-2.2,2.1-6.2,1.8-8.3-0.9
						c-1.1-1.5-1.6-3.2-1.5-5c0.1-2.2,0.3-4.4,0.6-6.5c0.6-4.8,2.2-9.5,3.4-14.2c0.8-3,1.5-6,2.2-9.1c0.4-1.7,0.4-3.4,0.1-5.2
						c-0.2-1.6-1.1-2.7-2.6-3.4c-1.8-0.8-3.7-0.7-5.5-0.3c-3.2,0.8-5.7,2.5-7.4,5.4c-1,1.7-1.7,3.4-1.8,5.4
						c-0.1,2.3,0.6,4.4,2.1,6.1c0.8,0.9,1.8,1.6,3,2c0.4,0.1,1,0.2,1.4,0.1c2.1-0.4,3.5-1.6,4.2-3.6c0.1-0.2,0.1-0.4,0.2-0.6
						c0.2-0.5,0.5-0.7,1-0.6c0.4,0.1,0.7,0.4,0.7,0.9c0,0.4,0,0.8-0.1,1.2c-0.3,1.2-1,2.2-2,2.9c-1.1,0.9-2.4,1.4-3.7,1.6
						c-0.8,0.1-1.7,0-2.5-0.3c-3.5-1.3-5.4-4-6.2-7.5c-0.5-2.1-0.2-4.1,0.5-6.2c1.2-3.6,3.3-6.5,6.7-8.5c3.3-1.9,6.9-2.8,10.7-1.7
						c3.3,0.9,5.6,3,6.4,6.5c0.7,2.7,0.6,5.5,0.3,8.3c-0.6,4.5-1.9,8.9-3,13.4c-1,3.8-1.8,7.7-2.2,11.6c-0.1,0.9-0.1,1.7-0.1,2.6
						c0,0.4,0.1,0.8,0.3,1.2c0.4,0.8,1,1,1.8,0.5c0.8-0.5,1.5-1.1,2.2-1.7c2.1-1.9,4-4,5.8-6.1c0.9-1.1,1.8-2.2,2.8-3.3
						c0.4-0.4,0.6-0.9,0.7-1.4c0.9-3.9,2-7.8,3.3-11.7c0.5-1.6,1-3.3,1.5-5c0.1-0.2,0.2-0.4,0.2-0.6c0.3-1.1,0.9-1.8,2.1-1.9
						c0.6-0.1,1.1-0.4,1.7-0.5c0.9-0.2,1.3,0.3,1,1.1c-0.5,1.9-1,3.9-1.5,5.8c-0.8,3.6-1.5,7.3-2.3,10.9c-1.5,6.4-3,12.8-4.5,19.2
						c0,0.2-0.1,0.3-0.1,0.6c0.2,0,0.4,0.1,0.5,0.1c2,0.1,3.7,0.8,5.2,2.1c1.2,1,1.7,2.4,2,3.9c0.2,0.7-0.1,1.1-0.6,1.3
						c-0.5,0.1-0.9-0.1-1.2-0.7c-0.8-1.9-2.2-3-4.2-3.7c-0.9-0.3-1.7-0.3-2.6-0.1c-0.1,0.2-0.2,0.5-0.2,0.7
						c-1.2,4.1-2.9,8.1-4.9,11.9c-0.8,1.5-1.7,2.9-3,4c-1.5,1.4-3.3,2.2-5.4,2.2c-2.1,0-3.6-1.1-4.4-3c-0.7-1.8-0.7-3.6,0-5.4
						c0.5-1.3,1.2-2.5,2.1-3.6c2.7-3.2,5.9-5.8,9.6-7.8c0.5-0.3,0.8-0.5,0.9-1.1c0.9-3.6,1.8-7.3,2.7-10.9
						C210,244,210,244,210,243.8z M205.7,260.2c-0.2,0-0.3,0-0.3,0.1c-2.2,1.5-4.5,3-6,5.3c-0.5,0.8-1,1.6-1.3,2.5
						c-0.4,1-0.3,2,0.2,3c0.3,0.8,0.5,0.8,1.2,0.5c1.1-0.4,2-1.2,2.5-2.3c0.8-1.7,1.5-3.5,2.3-5.2
						C204.6,262.8,205.1,261.6,205.7,260.2z"/>
				</g>
				<g>
					<path d="M293.2,246.5c0.2-4.1,0.8-7.6,1.5-11.1c0.4-2,0.9-4,1.3-5.9c0.5-1.9,1.2-3.6,2.2-5.3c0.4-0.7,1-1.2,1.8-1.2
						c0.8,0,1.6-0.1,2.3-0.1c0.8,0,1.1,0.4,0.9,1.2c-0.4,1.6-0.9,3.1-1.4,4.6c-1.3,3.9-2,7.9-2.4,11.9c-0.2,2-0.4,3.9-0.5,5.9
						c0,0.7,0,1.4,0.1,2.1c0.1,0.9,0.3,0.9,1.1,1c0.3,0,0.7,0.1,0.9,0.2c0.9,0.4,1.1,1.5,0.5,2.3c-0.8,1.1-1.8,1.7-3.2,1.8
						c-2.3,0.1-4.1-1.2-4.8-3.4C293.2,249,293.1,247.5,293.2,246.5z"/>
					<path d="M296.4,262.8c-2.4,0-3.6-1.6-3.1-3.6c0.2-0.8,0.4-1.5,1-2.2c1.2-1.3,3-1.4,4.3-0.3c1.4,1.2,1.7,3.2,0.6,4.6
						C298.3,262.3,297.2,262.7,296.4,262.8z"/>
				</g>
			</g>
		</g>
	</g>
</g>
</svg>
