<?xml version="1.0" encoding="UTF-8" standalone="no"?>
<!-- Generator: Adobe Illustrator 21.1.0, SVG Export Plug-In . SVG Version: 6.00 Build 0)  -->

<svg
   xmlns:dc="http://purl.org/dc/elements/1.1/"
   xmlns:cc="http://creativecommons.org/ns#"
   xmlns:rdf="http://www.w3.org/1999/02/22-rdf-syntax-ns#"
   xmlns:svg="http://www.w3.org/2000/svg"
   xmlns="http://www.w3.org/2000/svg"
   xmlns:sodipodi="http://sodipodi.sourceforge.net/DTD/sodipodi-0.dtd"
   xmlns:inkscape="http://www.inkscape.org/namespaces/inkscape"
   version="1.1"
   id="Calque_1"
   x="0px"
   y="0px"
   viewBox="0 0 1685.8831 421.61981"
   xml:space="preserve"
   inkscape:version="0.91 r13725"
   sodipodi:docname="Christmas_train_4546.svg"
   width="1685.8831"
   height="421.61981"><metadata
     id="metadata355"><rdf:RDF><cc:Work
         rdf:about=""><dc:format>image/svg+xml</dc:format><dc:type
           rdf:resource="http://purl.org/dc/dcmitype/StillImage" /><dc:title></dc:title></cc:Work></rdf:RDF></metadata><defs
     id="defs353" /><sodipodi:namedview
     pagecolor="#ffffff"
     bordercolor="#666666"
     borderopacity="1"
     objecttolerance="10"
     gridtolerance="10"
     guidetolerance="10"
     inkscape:pageopacity="0"
     inkscape:pageshadow="2"
     inkscape:window-width="1440"
     inkscape:window-height="817"
     id="namedview351"
     showgrid="false"
     fit-margin-top="0"
     fit-margin-left="0"
     fit-margin-right="0"
     fit-margin-bottom="0"
     inkscape:zoom="0.5462963"
     inkscape:cx="944.09479"
     inkscape:cy="48.881142"
     inkscape:window-x="0"
     inkscape:window-y="1"
     inkscape:window-maximized="1"
     inkscape:current-layer="Calque_1" /><style
     type="text/css"
     id="style3">
	.st0{fill:#F39323;}
	.st1{fill:#DC7B18;}
	.st2{fill:#A3282E;}
	.st3{fill:#77151F;}
	.st4{fill:#014837;}
	.st5{fill:#48AE4D;}
	.st6{fill:#E52521;}
	.st7{fill:#E52629;}
	.st8{fill:#CDCCCC;}
	.st9{fill:#E7E6E6;}
	.st10{fill:#921D25;}
	.st11{fill:#C1292E;}
	.st12{fill:#066938;}
	.st13{fill:#DB4D58;}
	.st14{fill:#009245;}
	.st15{fill:#FFFFFF;}
	.st16{fill:#178D4D;}
	.st17{fill:#CE7278;}
	.st18{fill:#D85A62;}
	.st19{fill:#D48B4F;}
	.st20{fill:#EAA35C;}
	.st21{fill:#412413;}
	.st22{fill:#754D24;}
	.st23{fill:#020203;}
	.st24{fill:#D9646D;}
	.st25{fill:#F9B03D;}
	.st26{fill:#F4DBC6;}
	.st27{fill:#F2F2F2;}
	.st28{fill:#343434;}
	.st29{fill:#82171C;}
	.st30{fill:#28285B;}
	.st31{fill:#808181;}
</style><g
     id="g5"
     transform="matrix(5.2035869,0,0,4.3189982,-280.99369,-722.40134)"><path
       class="st11"
       d="m 220.5,234.8 c -0.3,1.7 -0.6,3.2 -0.9,4.5 -6.2,-1.4 -11.5,-2.6 -15.2,-3.4 0.2,-1.4 0.5,-2.8 0.7,-4.2 4.3,0.7 9.5,1.8 15.4,3.1 z"
       id="path7"
       inkscape:connector-curvature="0"
       style="fill:#c1292e" /><path
       class="st11"
       d="m 313.6,249.7 c 0,1.7 0,3.1 0,4.1 -5.5,-0.3 -12.9,-1 -20.4,-1.7 0.2,-1.5 0.4,-3 0.6,-4.4 7.8,1 14.6,1.7 19.8,2 z"
       id="path9"
       inkscape:connector-curvature="0"
       style="fill:#c1292e" /><g
       id="g11"><path
         class="st12"
         d="m 295.5,189.3 c -0.8,-1 -1.8,-1.8 -2.9,-2.3 -0.7,-0.4 -1.5,-0.5 -2.3,-0.6 -1.6,-0.2 -3.1,0.1 -4.5,0.9 -1.5,0.9 -3,1.9 -4.4,2.9 -2,1.5 -3.7,3.2 -5.5,4.9 -0.7,0.7 -1.4,1.3 -2.1,2 -1.1,1.1 -2.2,2.3 -3.3,3.4 -0.3,0.3 -0.7,0.7 -1,1 -0.9,0.9 -1.7,1.8 -2.6,2.7 -0.2,0.2 -0.4,0.4 -0.6,0.6 -0.9,0.9 -1.8,1.9 -2.6,2.8 -0.2,-0.9 -0.5,-1.8 -0.8,-2.7 -0.1,-0.5 -0.3,-1 -0.4,-1.5 -0.4,-1.2 -0.7,-2.5 -1.1,-3.7 -0.2,-0.5 -0.3,-1.1 -0.5,-1.6 -0.5,-1.8 -1,-3.5 -1.6,-5.3 -0.3,-1.1 -0.7,-2.1 -1,-3.2 -0.9,-2.7 -1.8,-5.4 -3,-8 -0.9,-1.9 -1.8,-3.7 -3,-5.4 -1,-1.6 -2.4,-2.7 -4.2,-3.4 -0.9,-0.3 -1.8,-0.6 -2.7,-0.6 -1.5,0 -2.9,0.2 -4.3,0.8 -1.7,0.8 -3,2.1 -3.9,3.7 -1.1,2 -1.5,4.2 -1.3,6.5 0.2,2.4 0.8,4.7 1.7,6.9 0.3,0.7 0.7,1.4 1.2,2 0.5,0.6 1.1,1.1 1.8,1.6 1.1,0.8 2.3,1 3.6,0.3 1,-0.5 2.1,-1.8 1.6,-3.5 -0.2,-0.9 -0.5,-1.7 -0.8,-2.6 -0.3,-0.8 -0.6,-1.6 -0.8,-2.4 -0.2,-0.6 -0.3,-1.2 -0.4,-1.8 0,-0.2 0,-0.5 0.2,-0.6 0.2,-0.1 0.4,0.1 0.5,0.2 0.3,0.3 0.6,0.7 0.8,1.1 0.6,1 1.1,2 1.4,3.1 1,2.8 1.9,5.7 2.8,8.5 0,0 0,0 0,0 0.3,1 0.7,2 1,3 0.2,0.7 0.5,1.5 0.7,2.2 0.2,0.7 0.5,1.3 0.7,1.9 0.4,1.1 0.8,2.2 1.1,3.3 0.2,0.5 0.3,1.1 0.5,1.6 0,0.1 0,0.1 0.1,0.2 0.5,1.4 1,2.9 1.5,4.3 0.1,0.2 0.1,0.3 0.2,0.5 0.6,1.6 1.1,3.3 2,4.8 0.5,1 1.3,1.6 2.2,1.9 0.3,0.1 0.7,0.2 1.1,0.3 0.2,0 0.4,0 0.5,0 0.6,-0.1 1.2,-0.2 1.7,-0.4 0.1,0 0.2,-0.1 0.3,-0.1 0.1,0 0.3,-0.1 0.4,-0.2 0.7,-0.4 1.4,-1 1.6,-1.9 0,-0.1 0.1,-0.2 0.1,-0.3 0.1,0 0.2,-0.1 0.2,-0.1 1.1,-0.8 2.1,-1.7 3.1,-2.6 0.1,-0.1 0.2,-0.2 0.3,-0.3 1.1,-1 2.2,-2.1 3.3,-3.1 0,0 0.1,-0.1 0.1,-0.1 0.3,-0.3 0.6,-0.6 0.9,-0.9 0.7,-0.7 1.4,-1.4 2.2,-2 0.8,-0.7 1.6,-1.5 2.4,-2.3 0.1,-0.1 0.2,-0.2 0.3,-0.3 0.6,-0.6 1.3,-1.3 1.9,-1.9 0,0 0,0 0,0 1.8,-1.8 3.7,-3.6 5.5,-5.3 0.7,-0.7 1.5,-1.3 2.3,-1.8 0.3,-0.2 0.7,-0.3 1.1,-0.5 0.1,-0.1 0.4,-0.1 0.5,0 0.1,0.1 0,0.3 -0.1,0.5 -0.3,0.4 -0.7,0.8 -1,1.2 -0.5,0.5 -1.1,1 -1.6,1.5 -0.6,0.5 -1.1,1.1 -1.6,1.7 -1,1.1 -0.7,2.5 -0.1,3.3 0.7,1 1.7,1.4 2.8,1.2 0.7,-0.1 1.4,-0.2 2,-0.5 0.6,-0.3 1.2,-0.6 1.7,-1.1 1.6,-1.3 3,-2.8 4.1,-4.6 1.1,-1.7 1.6,-3.5 1.6,-5.5 -0.1,-1.5 -0.6,-3 -1.6,-4.3 z m -58.6,-8 0,0 c 0,0 0,0 0,0 0.1,-0.4 0.1,-0.9 0.2,-1.4 l 0,0 c 0,0 0,0 0,0 1.8,1.2 3.6,2.3 5.3,3.4 0,0.2 0,0.3 0,0.5 0,0.3 0,0.5 -0.1,0.8 0,0 0,0 0,0 0,0 0,0 0,0 -0.9,-0.5 -1.8,-1 -2.7,-1.6 -0.4,-0.2 -0.7,-0.4 -1.1,-0.7 -0.5,-0.3 -1,-0.7 -1.6,-1 z m 7,8.2 c 0,0.1 0,0.1 0.1,0.2 0,0 0,0 0,0 0,0 0,0 0,0 -0.1,0 -0.1,0 -0.2,0 -0.1,0 -0.1,0 -0.2,0 -1.7,-0.4 -3.4,-0.9 -5.1,-1.4 0,0 0,0 0,0 -0.1,0 -0.3,-0.1 -0.3,-0.2 -0.1,-0.4 -0.3,-0.8 -0.5,-1.3 0,0 0,0 0,0 0,0 0,0 0,0 0.1,0 0.2,0 0.3,0 1.7,0.4 3.3,0.9 5,1.3 0.2,0.1 0.3,0.1 0.4,0.3 0,0.1 0.1,0.1 0.1,0.2 0.1,0.3 0.3,0.6 0.4,0.9 z m -0.6,-7.4 c -1.1,-2.1 -2.3,-4.3 -3.5,-6.5 0.1,-0.1 0.3,-0.2 0.4,-0.4 0.1,-0.1 0.3,-0.2 0.4,-0.3 0.2,-0.1 0.4,-0.2 0.6,-0.3 0,0 0,0 0,0 0,0 0,0 0,0 0.1,0.1 0.2,0.3 0.2,0.4 0.7,1.7 1.4,3.3 2.1,5 0.2,0.5 0.4,1 0.7,1.4 0,0.1 0.1,0.2 0.1,0.2 0,0.1 0,0.1 0.1,0.2 0,0.1 0,0.1 0.1,0.2 l 0,0 c 0,0 0,0 0,0 -0.4,0 -0.8,0 -1.2,0.1 z m 3.5,2.1 c 0,0 0,0 0,0 0,0 0,0 0,0 -0.1,-0.2 -0.3,-0.4 -0.4,-0.5 -0.1,-0.1 -0.1,-0.1 -0.2,-0.2 -0.1,-0.2 -0.3,-0.3 -0.4,-0.5 0,-0.1 0,-0.2 0,-0.2 0,-0.1 0,-0.1 0,-0.1 0.1,-0.9 0.3,-1.8 0.4,-2.7 0.1,-0.8 0.3,-1.7 0.5,-2.5 0.1,-0.8 0.3,-1.6 0.4,-2.5 0,-0.1 0,-0.2 0.1,-0.3 0,0 0,0 0,0 0,0 0,0 0,0 0.5,0.3 0.9,0.6 1.4,1 0,0 0,0 0,0 0,0 0,0 0,0 -0.2,0.8 -0.3,1.6 -0.5,2.4 -0.4,1.9 -0.8,3.9 -1.3,6.1 z m 2.2,3.9 c -0.1,0.1 -0.2,0.3 -0.3,0.4 0,0 0,0 0,0 -0.1,-0.1 -0.1,-0.2 -0.1,-0.3 0,-0.1 0,-0.1 -0.1,-0.2 -0.1,-0.2 -0.1,-0.4 -0.2,-0.5 0,-0.1 0,-0.2 0,-0.3 0,-0.1 0,-0.2 0.1,-0.2 1.3,-2.1 2.6,-4.1 4,-6.2 0,0 0.1,-0.1 0.1,-0.1 0,0 0,0 0.1,-0.1 0,0 0,0 0,0 0,0 0,0 0,0 0.1,0.1 0.1,0.3 0.2,0.4 0,0.1 0.1,0.2 0.1,0.3 0.1,0.1 0.1,0.3 0.2,0.4 0,0 0,0 0,0 0,0 0,0.1 0,0.2 0,0 0,0 0,0 0,0.1 -0.1,0.1 -0.1,0.2 -0.5,0.8 -1.1,1.7 -1.6,2.5 -1,1.2 -1.7,2.3 -2.4,3.5 z m 1.7,6.2 c -0.1,0 -0.1,0 0,0 -0.1,0.1 -0.1,0.1 0,0 l 0,0 c -0.1,0.1 -0.1,0.1 0,0 -0.3,-0.5 -0.5,-1 -0.6,-1.5 0,0 0,0 0,0 0,0 0,0 0,-0.1 0,0 0,0 0,0 0,0 0,0 0,0 0,-0.1 0.1,-0.1 0.1,-0.2 0,0 0,-0.1 0.1,-0.1 1,-1.3 2.1,-2.7 3.1,-4 0.2,-0.3 0.5,-0.6 0.7,-0.9 0.2,-0.2 0.3,-0.4 0.5,-0.7 0.1,-0.1 0.2,-0.2 0.3,-0.3 0,0 0,0 0,0 0,0 0,0 0,0 0,0 0,0.1 0,0.1 0,0 0,0.1 0.1,0.1 0,0 0,0.1 0,0.1 0.1,0.3 0.2,0.6 0.3,0.9 0,0.1 0,0.2 0.1,0.2 0,0.1 0,0.2 0,0.2 0,0 0,0.1 -0.1,0.1 -0.9,1.2 -1.8,2.4 -2.8,3.6 -0.6,0.9 -1.2,1.7 -1.8,2.5 z m 2.2,6.1 c 0,0 -0.1,0.1 0,0 -0.1,0.1 -0.2,0.2 -0.3,0.3 -0.1,-0.2 -0.1,-0.4 -0.2,-0.5 0,-0.2 -0.1,-0.3 -0.1,-0.5 -0.1,-0.2 -0.1,-0.4 -0.2,-0.6 0,-0.1 0,-0.2 0.1,-0.2 0.1,-0.1 0.1,-0.2 0.2,-0.2 1.5,-1.6 3,-3.3 4.4,-4.9 0.1,-0.1 0.2,-0.2 0.3,-0.3 0,0 0,0 0.1,-0.1 l 0,0 c 0,0 0,0 0,0 0.2,0.5 0.4,0.9 0.5,1.4 0,0 0,0.1 0,0.2 0,0 0,0.1 0,0.1 0,0 -0.1,0.1 -0.1,0.1 0,0 0,0 0,0 -0.4,0.4 -0.7,0.8 -1.1,1.3 -1.3,1.3 -2.4,2.6 -3.6,3.9 z m 2.2,5.7 c 0,0 0,0.1 0,0 -0.1,0.1 -0.2,0.2 -0.2,0.2 0,0.1 -0.1,0.1 -0.2,0.2 0,0 0,0 0,0 l 0,0 c 0,-0.1 -0.1,-0.2 -0.1,-0.2 -0.1,-0.3 -0.3,-0.6 -0.4,-0.9 0.9,-0.9 1.7,-1.8 2.6,-2.7 0.7,-0.8 1.5,-1.6 2.2,-2.4 0.1,-0.1 0.2,-0.2 0.2,-0.2 l 0,0 c 0,0 0,0 0,0 0.1,0.4 0.2,0.8 0.3,1.2 0,0.1 0,0.1 0,0.2 0,0 0,0 0,0 0,0 0,0.1 0,0.2 0,0 0,0 0,0 0,0.1 -0.1,0.1 -0.1,0.1 0,0 0,0 0,0 -0.4,0.4 -0.8,0.8 -1.2,1.2 -0.8,0.9 -1.6,1.7 -2.5,2.6 -0.1,0.1 -0.3,0.3 -0.6,0.5 z m 2.5,5.8 c -0.1,0 -0.1,0.1 0,0 -0.1,0.1 -0.2,0.2 -0.2,0.2 0,0 0,0 0,0 0,0 0,0 0,0 -0.3,-0.6 -0.5,-1.1 -0.8,-1.7 l 0,0 0,0 c 0,0 0.1,-0.1 0.1,-0.1 0.6,-0.6 1.2,-1.2 1.8,-1.9 0.7,-0.7 1.4,-1.4 2.1,-2.2 0.1,-0.1 0.2,-0.3 0.4,-0.4 l 0,0 c 0,0 0,0 0,0 0.1,0.2 0.1,0.4 0.2,0.6 0.1,0.2 0.2,0.4 0.2,0.7 0,0.1 0,0.3 0,0.4 0,0.1 -0.1,0.2 -0.2,0.3 0,0.1 -0.1,0.1 -0.1,0.2 -0.1,0.1 -0.3,0.3 -0.4,0.4 -1.1,1.2 -2.1,2.4 -3.1,3.5 z m 3.1,5.1 c -0.2,0.2 -0.3,0.3 -0.5,0.5 0,0 0,0 0,0 0,0 0,0 0,0 0,0 -0.1,0 -0.1,0 -0.1,-0.1 -0.2,-0.2 -0.3,-0.3 -0.1,-0.1 -0.1,-0.2 -0.2,-0.3 0,-0.1 -0.1,-0.1 -0.1,-0.1 -0.1,-0.1 -0.2,-0.2 -0.2,-0.3 0,0 0,0 0,0 0,0 0,0 0,0 0.1,-0.1 0.3,-0.3 0.6,-0.7 0,0 0.1,-0.1 0.1,-0.1 0,0 0.1,-0.1 0.1,-0.1 0.1,-0.1 0.3,-0.3 0.4,-0.4 0.8,-0.8 1.7,-1.6 2.2,-2 0,0 0,0 0,0 l 0,0 c 0.1,-0.1 0.1,-0.1 0.2,-0.1 0,0 0,0 0,0 0,0 0,0 0,0 0.1,0.3 0.1,0.5 0.1,0.8 0,0 0,0 0,0 0,0.1 0,0.2 0,0.3 0,0.1 0,0.2 0,0.3 0,0 0,0 0,0 l 0,0 c 0,0 0,0 0,0 0,0 0,0 0,0.1 0,0 0,0 0,0 0,0 0,0 -0.1,0.1 0,0 0,0 0,0 -0.5,0.5 -1,1 -1.6,1.6 -0.1,0.1 -0.3,0.3 -0.4,0.4 0,0 0,0 0,0 0,0.1 -0.1,0.2 -0.2,0.3 z m 7.8,-5.1 c -0.2,0.2 -0.5,0.4 -0.7,0.6 -0.1,0 -0.1,0.1 -0.2,0.1 0,-0.1 -0.1,-0.2 -0.1,-0.3 -0.4,-1.4 -0.7,-2.9 -1.1,-4.3 0,-0.1 -0.1,-0.3 0,-0.5 0,0 0,-0.1 0,-0.1 0,0 0,-0.1 0,-0.1 0,0 0,-0.1 0.1,-0.1 0,0 0.1,-0.1 0.1,-0.1 0.1,-0.1 0.3,-0.3 0.4,-0.4 0.1,-0.1 0.2,-0.1 0.2,-0.2 0,0 0,0 0,0 l 0,0 c 0,0 0,0 0,0 0.4,1.3 0.7,2.5 1.1,3.7 0,0.1 0.1,0.3 0.1,0.4 0.1,0.3 0.2,0.7 0.3,1 0,0 0,0 0,0 0,0 0,0 0,0 0.1,0 -0.1,0.1 -0.2,0.3 z m 3.3,-2.7 c 0,0 0,0 0,0 0,0 0,0 0,0 0,0 0,0 0,0 -0.1,-0.2 -0.1,-0.3 -0.1,-0.4 -0.4,-1.2 -0.7,-2.5 -1.1,-3.7 0,-0.1 -0.1,-0.2 -0.1,-0.3 -0.1,-0.4 -0.2,-0.8 -0.4,-1.1 0,0 0,-0.1 0,-0.1 0,0 0,-0.1 0,-0.1 0,0 0,-0.1 0,-0.1 0.2,-0.3 0.5,-0.6 0.8,-0.9 0,0 0,0 0,0 l 0,0 c 0.1,0.5 0.3,1 0.4,1.5 0.1,0.3 0.2,0.7 0.3,1 0.3,1.2 0.7,2.4 1,3.6 -0.2,0.2 -0.5,0.4 -0.8,0.6 z m 5,-4.5 c 0,0 0,0 0,0 -0.1,0.2 -0.2,0.3 -0.3,0.4 -0.2,0.2 -0.5,0.5 -0.7,0.7 0,0 0,0 0,0 0,0 0,0 0,0 0,-0.1 0,-0.2 -0.1,-0.2 0,-0.1 0,-0.1 0,-0.2 -0.5,-1.9 -1,-3.9 -1.5,-5.8 0,0 0,-0.1 0,-0.1 0,0 0,0 0,0 0,0 0,0 0,0 0,0 0,0 0,0 0,-0.1 0,-0.2 0.1,-0.2 0.3,-0.3 0.6,-0.5 0.9,-0.8 0,0 0,0 0,0 0,0 0,0 0,0 0,0.2 0.1,0.3 0.1,0.4 0.2,0.7 0.4,1.4 0.5,2.1 0.3,1.1 0.6,2.3 0.9,3.4 0,0 0,0.1 0,0.1 0,0.1 0,0.1 0,0.2 0.1,-0.1 0.1,-0.1 0.1,0 z m 4.1,-4 c -0.1,0.1 -0.1,0.1 -0.2,0.2 -0.3,0.3 -0.6,0.5 -0.9,0.8 0,0 0,0 0,-0.1 0,0 0,0 0,0 -0.4,-2.1 -0.8,-4.2 -1.1,-6.3 0,-0.1 0,-0.2 0.1,-0.3 0.2,-0.2 0.5,-0.5 0.7,-0.7 0,0 0.1,0 0.1,-0.1 0,0 0.1,-0.1 0.1,-0.1 0,0 0,0 0,0 l 0,0 c 0,0 0,0 0,0 0,0.1 0,0.2 0.1,0.2 0,0.1 0,0.1 0,0.2 0.1,0.5 0.2,0.9 0.3,1.4 0,0.1 0,0.2 0.1,0.4 0.3,1.4 0.5,2.8 0.8,4.2 0,0.1 0,0.1 0,0.2 -0.1,-0.1 -0.1,0 -0.1,0 z m 3.4,-3.3 c -0.2,0.1 -0.3,0.3 -0.5,0.5 0,0 0,0 0,0 0,0 -0.1,0.1 -0.2,0.1 0,0 0,0 0,0 0,0 0,0 0,0 0,0 0,-0.1 0,-0.1 0,-0.1 0,-0.2 0,-0.3 -0.1,-0.8 -0.1,-1.7 -0.2,-2.5 0,-0.3 -0.1,-0.7 -0.1,-1 0,-0.2 0,-0.4 -0.1,-0.6 -0.1,-0.6 -0.1,-1.3 -0.2,-1.9 0,-0.1 0,-0.3 0,-0.3 0.2,-0.2 0.5,-0.4 0.8,-0.7 0,0 0,0 0,0 0,0 0,0 0,0 0,0.1 0,0.2 0,0.2 0,0 0,0 0,0 0,0.3 0.1,0.6 0.1,1 0.2,1.8 0.3,3.5 0.5,5.3 0.1,0.1 0,0.2 -0.1,0.3 z m 10.1,-6.8 c 0.1,-0.1 0.2,-0.1 0.3,-0.2 0.1,0.2 0.3,0.4 0.4,0.6 0,0.1 0.1,0.2 0.1,0.2 0.1,0.2 0.2,0.3 0.2,0.5 -0.8,0.5 -1.5,1 -2.3,1.5 -1,0.7 -2,1.4 -3,2 0,0 -0.1,-0.1 -0.1,-0.1 -0.3,-0.2 -0.5,-0.3 -0.8,-0.5 0.1,-0.1 0.1,-0.1 0.2,-0.2 0.4,-0.3 0.8,-0.6 1.3,-1 1.3,-0.9 2.5,-1.9 3.7,-2.8 z m -5.5,1.7 c -0.1,0.2 -0.2,0.5 -0.2,0.7 -0.2,0.5 -0.3,1 -0.5,1.5 0,0.1 -0.1,0.1 -0.1,0.2 0,0 0,0.1 -0.1,0.1 -0.1,0.1 -0.3,0.1 -0.4,0.2 -0.3,0.1 -0.5,0.3 -0.8,0.4 0,0 0,0 0,0 0.3,-1.1 0.6,-2.1 0.9,-3.2 0.1,-0.2 0.1,-0.5 0.2,-0.7 0.3,-1.2 0.7,-2.3 1,-3.5 0.5,-0.1 0.9,-0.1 1.4,-0.2 0,0 0,0 0,0 0,0 0,0 0,0 0,0.1 0,0.2 -0.1,0.2 0,0 0,0 0,0.1 -0.4,1.4 -0.9,2.8 -1.3,4.2 z m 3.6,8.8 c -0.3,0.2 -0.5,0.5 -0.7,0.7 0,0 0,0 0,0 -0.1,0.1 -0.2,0.1 -0.4,0 0,0 0,0 0,0 -0.4,-0.1 -0.8,-0.2 -1.2,-0.3 -1,-0.2 -2.1,-0.5 -3.1,-0.7 -0.1,0 -0.1,0 -0.3,-0.1 0,0 0,0 0,0 0,0 0,0 0,0 0.3,-0.3 0.5,-0.5 0.8,-0.7 0,0 0.1,-0.1 0.1,-0.1 0.1,-0.1 0.2,-0.1 0.3,-0.1 0,0 0.1,0 0.1,0 1.4,0.3 2.9,0.7 4.3,1 0,0 0.1,0 0.2,0.1 0,0 0,0 0.1,0 -0.1,0.1 -0.2,0.2 -0.2,0.2 z m 2.9,-3.9 0,0 c -0.3,0 -0.6,0 -1,0.1 -0.9,0.1 -1.9,0.1 -2.8,0.2 -0.5,0 -1.1,0.1 -1.6,0.1 0,0 0,0 0,0 0,0 0,0 0,0 0.1,-0.2 0.1,-0.3 0.2,-0.5 0.1,-0.2 0.1,-0.3 0.2,-0.5 l 0,0 c 0,0 0,0 0,0 1,-0.1 2,-0.2 2.9,-0.2 0.8,-0.1 1.6,-0.1 2.5,-0.2 0,0 0,0 0,0 0,0 0,0 0,0 -0.1,0.3 -0.3,0.6 -0.4,1 0,0 0,0 0,0 z"
         id="path13"
         inkscape:connector-curvature="0"
         style="fill:#066938" /><path
         class="st13"
         d="m 272.2,211 c -1.2,-0.2 -2.4,-0.3 -3.6,-0.5 -0.5,-0.1 -1,-0.1 -1.6,-0.2 -1,-0.1 -1.9,-0.3 -2.9,-0.4 -0.7,-0.1 -1.4,-0.2 -2.2,-0.3 -0.7,-0.1 -1.4,-0.2 -2.1,-0.3 l 0,0 c -0.7,-0.1 -1.3,-0.2 -2,-0.3 -1.4,-0.2 -2.9,-0.4 -4.3,-0.6 -14.7,-1.9 -27,-3.1 -27.4,-1.3 -0.3,1.4 -0.9,4.3 -1.7,8 -0.1,0.4 -0.1,0.7 -0.2,1.1 0,0.2 -0.1,0.3 -0.1,0.5 -0.1,0.6 -0.2,1.2 -0.4,1.8 -1.1,5.3 -2.3,11.5 -3.3,16.2 -0.3,1.7 -0.6,3.2 -0.9,4.5 -0.4,2 -0.7,3.3 -0.7,3.6 3.8,1.1 7.6,2.1 11.4,3.1 1.9,0.5 3.8,1 5.7,1.5 l 0,0 c 0.5,0.1 1,0.2 1.5,0.4 0.2,0.1 0.4,0.1 0.7,0.2 0.4,0.1 0.8,0.2 1.2,0.3 l 0,0 c 2.2,0.6 4.5,1.1 6.7,1.6 7.8,1.9 15.7,3.5 23.5,4.7 2.1,0.3 4.2,0.6 6.2,0.9 0.5,0.1 1,0.1 1.5,0.2 l 0,0 c 0.1,0 0.1,0 0.2,0 0.3,0 0.6,0.1 0.8,0.1 2.5,0.3 5,0.5 7.5,0.7 2.2,0.2 4.4,0.3 6.6,0.4 0.2,-1.6 0.5,-3.2 0.7,-4.8 l 0,0 c 0.2,-1.5 0.4,-3 0.6,-4.4 1.1,-7.7 2,-14.5 2.8,-19.9 0.1,-0.5 0.1,-1 0.2,-1.4 0,-0.2 0,-0.3 0.1,-0.5 0,-0.4 0.1,-0.7 0.1,-1 0.5,-3.6 0.8,-6.4 1,-8.3 0.1,-1.2 0.2,-2 0.2,-2.4 -5.7,-0.5 -15.4,-1.7 -25.8,-3.2 z"
         id="path15"
         inkscape:connector-curvature="0"
         style="fill:#db4d58" /><path
         class="st11"
         d="m 301.2,206.9 c -5.8,0.6 -14.2,0 -23.6,-1.1 -0.5,-0.1 -1.1,-0.1 -1.6,-0.2 -0.1,0 -0.2,0 -0.3,0 -1.3,-0.2 -2.7,-0.4 -4,-0.6 -0.4,-0.1 -0.8,-0.1 -1.2,-0.2 -1.2,-0.2 -2.4,-0.4 -3.6,-0.6 -1.5,-0.2 -2.9,-0.5 -4.4,-0.7 -1.4,-0.2 -2.8,-0.5 -4.2,-0.7 -0.5,-0.1 -1,-0.2 -1.5,-0.3 -1.9,-0.3 -3.8,-0.7 -5.6,-1 -9.4,-1.8 -18.4,-3.6 -25.7,-5.2 -2.7,-0.6 -4.3,9.8 -2.4,10.1 1,0.2 2,0.5 3,0.8 3.3,0.8 7.1,1.7 11.2,2.5 0.2,0 0.4,0.1 0.6,0.1 5.2,1 10.9,2.1 17,3 1.5,0.2 3,0.5 4.6,0.7 0.8,0.1 1.6,0.2 2.5,0.3 0.3,0 0.5,0.1 0.8,0.1 0,0 0.1,0 0.1,0 0.4,0.1 0.8,0.1 1.2,0.1 0.3,0 0.7,0.1 1,0.1 1.1,0.1 2.2,0.3 3.3,0.4 4.8,0.6 9.8,1 14.8,1.4 0.1,0 0.3,0 0.4,0 2.7,0.2 5.3,0.3 8,0.4 0.6,0 1.2,0 1.8,0.1 1.5,0.1 3,0.1 4.6,0.1 1.1,0 2.1,0 3.2,0 3.1,0.1 2.7,-10 0,-9.6 z"
         id="path17"
         inkscape:connector-curvature="0"
         style="fill:#c1292e" /><g
         id="g19"><path
           class="st14"
           d="m 286,222.2 c -0.1,-0.1 -0.3,0 -0.4,0.1 -0.1,0.1 -0.3,0.2 -0.4,0.3 -0.3,0.2 -0.5,0.3 -0.8,0.5 -1.1,0.8 -2.2,1.4 -3.4,1.8 -1.8,0.7 -3.6,1 -5.5,0.8 -0.9,-0.1 -1.7,-0.2 -2.5,-0.5 -1.4,-0.4 -2.7,-0.9 -3.9,-1.7 -0.6,-0.4 -1.3,-0.8 -1.8,-1.3 -0.2,-0.2 -0.4,-0.5 -0.6,-0.7 -0.1,-0.1 -0.1,-0.2 -0.2,-0.3 -0.1,-0.1 -0.3,-0.2 -0.4,-0.1 -0.1,0.1 -0.1,0.2 -0.1,0.4 0,0 0,0 0,0.1 0.1,0.4 0.3,0.9 0.4,1.3 0.3,0.7 0.7,1.4 1.1,2 0.2,0.3 0.4,0.6 0.7,0.8 0.7,0.7 1.6,1.4 2.5,1.9 0.6,0.3 1.3,0.6 2,0.9 0.8,0.3 1.6,0.5 2.7,0.6 0.3,0 0.8,0 1.3,0 1.7,-0.1 3.3,-0.6 4.8,-1.6 0.9,-0.6 1.8,-1.4 2.7,-2.1 0.8,-0.7 1.5,-1.4 2,-2.3 0.1,-0.1 0.1,-0.3 0.2,-0.4 -0.2,-0.3 -0.3,-0.4 -0.4,-0.5 z m -5.4,4.3 c -0.3,0.1 -0.5,0.1 -0.8,0.2 -1.2,0.3 -2.4,0.5 -3.7,0.5 -0.4,0 -0.8,0 -1.1,0 -1.7,-0.2 -3.3,-0.6 -4.8,-1.5 -0.3,-0.2 -0.5,-0.3 -0.8,-0.5 -0.1,0 -0.1,-0.1 -0.2,-0.2 -0.1,-0.1 0,-0.2 0,-0.3 0.1,-0.1 0.2,-0.1 0.3,0 0.1,0 0.1,0.1 0.2,0.2 0.8,0.6 1.7,1 2.7,1.3 0.9,0.3 1.8,0.5 2.7,0.6 1.6,0.1 3.2,-0.1 4.7,-0.5 0.2,0 0.3,-0.1 0.5,-0.1 0,0 0.1,0 0.1,0 0.1,0 0.2,0.1 0.3,0.2 0.2,0 0.1,0.1 -0.1,0.1 z"
           id="path21"
           inkscape:connector-curvature="0"
           style="fill:#009245" /><path
           class="st14"
           d="m 267.7,228.9 c 0,0.3 -0.3,0.5 -0.6,0.4 -0.5,-0.2 -0.9,-0.5 -1.3,-0.8 -0.2,-0.2 -0.5,-0.4 -0.7,-0.6 -0.1,0.1 -0.2,0.2 -0.2,0.3 -0.1,0.2 -0.2,0.3 -0.3,0.5 -0.1,0.1 -0.1,0.2 -0.2,0.2 -0.2,0.2 -0.5,0.1 -0.6,-0.2 0,-0.1 0,-0.3 0,-0.4 0.1,-1.1 0.2,-2.1 0.3,-3.2 0.1,-0.7 0.2,-1.4 0.3,-2.1 0.1,-0.6 0.2,-1.2 0.3,-1.7 0,-0.3 0.1,-0.3 0.3,-0.4 0.2,0 0.4,0.1 0.4,0.3 0.1,0.5 0.2,0.9 0.4,1.4 0.2,1 0.5,2 0.9,2.9 0.4,0.8 0.7,1.6 0.9,2.4 0.1,0.2 0.1,0.5 0.2,0.7 -0.1,0.1 -0.1,0.2 -0.1,0.3 z"
           id="path23"
           inkscape:connector-curvature="0"
           style="fill:#009245" /><path
           class="st14"
           d="m 263.5,217.8 c 0,-0.1 0,-0.2 -0.1,-0.3 -0.3,-0.8 -0.7,-1.4 -1.2,-2 0,0 0,0 0,0 -0.2,-0.2 -0.4,-0.4 -0.7,-0.6 -0.1,-0.1 -0.3,-0.1 -0.4,-0.2 -0.3,0 -0.6,0.1 -0.8,0.4 -0.1,0.2 -0.2,0.3 -0.3,0.5 0,0.1 -0.1,0.2 -0.1,0.3 0,0 0,0 0,0 -0.1,0.4 -0.2,0.7 -0.3,1.1 -0.1,0.4 -0.1,0.9 -0.2,1.4 0,0.3 -0.1,0.5 -0.1,0.8 0,0.3 0,0.6 0,0.8 0,0 0,0 0,0.1 0,0.4 0.3,0.6 0.6,0.8 0.3,0.1 0.5,0.2 0.8,0.1 0.3,0 0.7,-0.1 1,-0.2 0.4,-0.1 0.7,-0.3 0.9,-0.7 0,0 0.1,-0.1 0.1,-0.1 0,-0.1 0.1,-0.2 0.2,-0.3 0,-0.1 0.1,-0.1 0.1,-0.2 0.1,-0.4 0.2,-0.8 0.4,-1.2 0.1,-0.2 0.1,-0.3 0.1,-0.5 z m -2.3,-1.9 c 0,0 0.1,0 0.2,0.1 0.1,0 0.2,0.1 0.3,0.2 0,0 0,0 0.1,0 0.1,0 0.1,0.1 0.2,0.2 0,0 0.1,0.1 0.1,0.1 0.1,0.1 0.1,0.1 0.2,0.2 0,0 0,0 0,0 0.1,0.1 0.2,0.2 0.2,0.2 0,0 0.1,0.1 0.1,0.1 0.1,0.1 0.2,0.2 0.2,0.4 0.1,0.1 0.1,0.2 0.2,0.4 0,0 0,0 0,0 0.1,0.2 0,0.4 -0.2,0.4 -0.2,0.1 -0.4,0 -0.5,-0.2 0,-0.1 -0.1,-0.2 -0.1,-0.3 0,-0.1 -0.1,-0.2 -0.2,-0.3 -0.1,-0.2 -0.3,-0.3 -0.4,-0.5 -0.1,-0.1 -0.1,-0.1 -0.2,-0.2 -0.1,-0.1 -0.2,-0.1 -0.3,-0.2 0,0 0,0 -0.1,0 0,0 -0.1,-0.1 -0.1,-0.1 -0.1,-0.1 -0.1,-0.3 -0.1,-0.4 0,0 0.2,-0.1 0.4,-0.1 z"
           id="path25"
           inkscape:connector-curvature="0"
           style="fill:#009245" /><path
           class="st14"
           d="m 270.6,216.5 c 0,-0.1 0,-0.2 -0.1,-0.4 -0.1,-0.3 -0.3,-0.4 -0.5,-0.4 -0.2,0 -0.5,0 -0.7,0.2 -0.9,0.6 -1.7,1.3 -2.5,2 -0.2,0.2 -0.3,0.4 -0.2,0.7 0.1,0.4 0.1,0.7 0,1.1 0,0.1 0,0.3 0,0.4 0,0.3 0.1,0.5 0.4,0.6 0.1,0 0.2,0.1 0.3,0.2 0.3,0.2 0.6,0.4 1,0.6 0.3,0.2 0.6,0.2 1,0.2 0.3,0 0.7,-0.2 0.8,-0.6 0.1,-0.3 0.2,-0.7 0.3,-1 0,0 0,-0.1 0,-0.1 0,-0.4 0.1,-0.8 0.1,-1 0,-0.5 0.1,-0.9 0.1,-1.4 0,-0.3 0,-0.7 0,-1.1 z m -0.8,4.4 c 0,0.2 -0.2,0.3 -0.3,0.3 -0.7,-0.1 -1.4,-0.3 -2,-0.7 -0.1,-0.1 -0.3,-0.2 -0.4,-0.3 -0.1,-0.1 -0.1,-0.4 0,-0.5 0.1,-0.1 0.3,-0.1 0.5,0 0.4,0.4 0.9,0.5 1.4,0.6 0.2,0 0.3,0.1 0.5,0.1 0.2,0.1 0.3,0.3 0.3,0.5 z"
           id="path27"
           inkscape:connector-curvature="0"
           style="fill:#009245" /><path
           class="st14"
           d="m 264.1,221 c 0,0.2 0,0.5 -0.1,0.7 -0.2,0.8 -0.4,1.5 -0.6,2.3 -0.3,1.2 -0.6,2.3 -0.9,3.5 0,0.2 -0.1,0.3 -0.1,0.5 0,0.1 0,0.1 -0.1,0.2 -0.1,0.1 -0.2,0.2 -0.3,0.2 -0.2,0 -0.3,-0.1 -0.3,-0.2 -0.1,-0.3 -0.2,-0.5 -0.3,-0.8 -0.1,-0.2 -0.2,-0.4 -0.3,-0.6 -0.2,0.1 -0.4,0.2 -0.6,0.3 -0.1,0.1 -0.3,0.1 -0.4,0.2 -0.1,0 -0.2,0 -0.4,0 -0.2,0 -0.3,-0.2 -0.3,-0.4 0,-0.1 0,-0.1 0.1,-0.2 0,-0.1 0.1,-0.1 0.1,-0.2 0.9,-1.2 1.6,-2.4 2.4,-3.7 0.3,-0.4 0.5,-0.9 0.8,-1.3 0.1,-0.2 0.3,-0.5 0.4,-0.7 0.1,-0.2 0.3,-0.2 0.4,-0.2 0.3,0 0.5,0.1 0.5,0.4 z"
           id="path29"
           inkscape:connector-curvature="0"
           style="fill:#009245" /><path
           class="st14"
           d="m 266.3,219.9 c -0.1,0.2 -0.2,0.4 -0.5,0.5 -0.5,0.2 -0.9,0.2 -1.4,0.1 -0.2,0 -0.5,-0.1 -0.7,-0.2 -0.2,-0.1 -0.3,-0.3 -0.3,-0.5 0,-0.1 0,-0.1 0,-0.2 0,-0.1 0,-0.2 0,-0.3 0,-0.2 0.1,-0.4 0.1,-0.6 0.1,-0.3 0.2,-0.6 0.5,-0.8 0,0 0.1,-0.1 0.2,-0.1 0,0 0,0 0,0 0.1,-0.1 0.2,-0.1 0.3,-0.1 l 0.1,0 c 0.2,0 0.3,0 0.5,0 0.2,0 0.5,0.1 0.7,0.2 0.3,0.1 0.5,0.3 0.6,0.6 0.1,0.4 0.1,0.9 -0.1,1.4 z"
           id="path31"
           inkscape:connector-curvature="0"
           style="fill:#009245" /><path
           class="st5"
           d="m 275,227.3 c -1.7,-0.2 -3.3,-0.6 -4.8,-1.5 -0.3,-0.2 -0.5,-0.4 -0.8,-0.5 -0.1,0 -0.1,-0.1 -0.2,-0.2 -0.1,-0.1 0,-0.2 0.1,-0.3 0.1,-0.1 0.2,-0.1 0.3,0 0.1,0 0.1,0.1 0.2,0.2 0.8,0.6 1.7,1 2.7,1.3 0.9,0.3 1.8,0.5 2.7,0.6 1.6,0.1 3.2,-0.1 4.7,-0.5 0.2,-0.1 0.3,-0.1 0.5,-0.1 0,0 0.1,0 0.1,0 0.1,0 0.2,0.1 0.3,0.2 0,0.1 0,0.2 -0.2,0.3 -0.3,0.1 -0.5,0.1 -0.8,0.2 -1.2,0.3 -2.4,0.5 -3.7,0.5 -0.3,-0.2 -0.7,-0.2 -1.1,-0.2 z"
           id="path33"
           inkscape:connector-curvature="0"
           style="fill:#48ae4d" /><path
           class="st14"
           d="m 295.1,225.1 c 0.1,0 0.1,0.1 0.2,0.1 0.1,0.1 0.2,0.1 0.3,0.2 0.1,0 0.2,0.1 0.3,0.1 0.1,0.1 0.2,0.1 0.4,0.1 0.1,0 0.2,0.1 0.3,0.1 0.1,0 0.1,0 0.2,0.1 0,-0.4 0.1,-0.7 0.1,-1 -0.9,-0.2 -1.8,-0.5 -2.6,-0.9 -0.7,-0.3 -1.3,-0.6 -1.9,-1.1 -0.2,-0.2 -0.5,-0.4 -0.7,-0.6 -0.1,-0.1 -0.1,-0.2 -0.2,-0.3 -0.1,-0.1 -0.3,-0.1 -0.4,0 -0.1,0.1 -0.1,0.2 -0.1,0.4 0,0 0,0 0,0.1 0.2,0.4 0.4,0.8 0.6,1.3 0.4,0.7 0.8,1.3 1.4,1.8 0.2,0.3 0.5,0.5 0.8,0.7 0.8,0.7 1.7,1.2 2.7,1.6 0,0 0.1,0 0.1,0 0.1,-0.5 0.1,-1 0.2,-1.4 -0.3,-0.1 -0.6,-0.2 -0.9,-0.3 -0.3,-0.1 -0.6,-0.3 -0.9,-0.4 -0.1,0 -0.1,-0.1 -0.2,-0.1 -0.1,-0.1 -0.1,-0.2 0,-0.3 0.1,-0.2 0.2,-0.2 0.3,-0.2 z"
           id="path35"
           inkscape:connector-curvature="0"
           style="fill:#009245" /><path
           class="st5"
           d="m 296.6,225.8 c 0.1,0 0.1,0 0.2,0.1 0,0.1 0,0.3 -0.1,0.5 -0.3,-0.1 -0.6,-0.2 -0.9,-0.3 -0.3,-0.1 -0.6,-0.3 -0.9,-0.4 -0.1,0 -0.1,-0.1 -0.2,-0.1 -0.1,-0.1 -0.1,-0.2 0,-0.3 0.1,-0.1 0.2,-0.1 0.3,-0.1 0.1,0 0.1,0.1 0.2,0.1 0.1,0.1 0.2,0.1 0.3,0.2 0.1,0.1 0.2,0.1 0.3,0.1 0.1,0.1 0.2,0.1 0.4,0.2 0.2,-0.1 0.3,0 0.4,0 z"
           id="path37"
           inkscape:connector-curvature="0"
           style="fill:#48ae4d" /><path
           class="st5"
           d="m 261.2,215.9 c 0,0 0.1,0 0.2,0.1 0.6,0.3 1.1,0.8 1.4,1.4 0.1,0.1 0.1,0.3 0.2,0.4 0.1,0.2 0,0.4 -0.2,0.4 -0.2,0.1 -0.4,0 -0.5,-0.2 -0.3,-0.6 -0.7,-1.1 -1.3,-1.4 -0.1,0 -0.1,-0.1 -0.2,-0.1 -0.1,-0.1 -0.1,-0.3 -0.1,-0.4 0.1,-0.1 0.3,-0.2 0.5,-0.2 z"
           id="path39"
           inkscape:connector-curvature="0"
           style="fill:#48ae4d" /><path
           class="st5"
           d="m 269.4,221.2 c -0.7,-0.1 -1.4,-0.3 -2,-0.7 -0.1,-0.1 -0.3,-0.2 -0.4,-0.3 -0.1,-0.1 -0.1,-0.4 0,-0.5 0.1,-0.1 0.3,-0.2 0.5,0 0.4,0.4 0.9,0.5 1.4,0.7 0.2,0 0.3,0.1 0.5,0.1 0.2,0.1 0.3,0.2 0.3,0.4 0,0.2 -0.2,0.3 -0.3,0.3 z"
           id="path41"
           inkscape:connector-curvature="0"
           style="fill:#48ae4d" /><path
           class="st14"
           d="m 293.3,228.7 c 0,0.3 -0.2,0.5 -0.5,0.4 -0.5,-0.1 -1,-0.3 -1.4,-0.6 -0.3,-0.1 -0.5,-0.3 -0.8,-0.5 -0.1,0.1 -0.1,0.3 -0.2,0.4 -0.1,0.2 -0.2,0.4 -0.2,0.6 0,0.1 -0.1,0.2 -0.2,0.3 -0.2,0.2 -0.5,0.2 -0.6,-0.1 0,-0.1 -0.1,-0.3 -0.1,-0.4 -0.1,-1.1 -0.2,-2.2 -0.2,-3.2 0,-0.7 0,-1.4 0,-2.1 0,-0.6 0,-1.2 0,-1.8 0,-0.3 0.1,-0.4 0.3,-0.4 0.2,0 0.4,0 0.5,0.3 0.2,0.4 0.4,0.9 0.6,1.3 0.4,0.9 0.8,1.9 1.3,2.7 0.5,0.7 0.9,1.4 1.3,2.2 0.1,0.2 0.2,0.5 0.3,0.7 -0.1,0.1 -0.1,0.2 -0.1,0.2 z"
           id="path43"
           inkscape:connector-curvature="0"
           style="fill:#009245" /><path
           class="st14"
           d="m 286.3,218.1 c -0.4,-0.7 -1,-1.3 -1.7,-1.7 -0.2,-0.2 -0.5,-0.3 -0.8,-0.4 0,0 -0.1,0 -0.1,0 -0.2,0 -0.3,-0.1 -0.4,0 -0.3,0 -0.5,0.2 -0.6,0.5 -0.1,0.3 -0.2,0.6 -0.2,0.9 -0.1,0.9 0,1.7 0.1,2.6 0,0.3 0.1,0.5 0.1,0.8 0.1,0.3 0.1,0.6 0.3,0.9 0.1,0.4 0.4,0.6 0.8,0.6 0.3,0 0.5,0 0.8,-0.1 0.3,-0.1 0.6,-0.3 1,-0.4 0.3,-0.2 0.6,-0.5 0.7,-0.9 0,0 0,-0.1 0,-0.1 0,-0.2 0.1,-0.4 0.1,-0.6 0,-0.4 0,-0.9 0.1,-1.3 0,-0.3 -0.1,-0.6 -0.2,-0.8 z m -0.5,0.9 c -0.2,0.1 -0.4,0.1 -0.5,-0.1 -0.1,-0.1 -0.2,-0.2 -0.3,-0.4 0,-0.1 -0.1,-0.1 -0.2,-0.2 0,0 0,0 -0.1,0 -0.3,-0.2 -0.7,-0.4 -1,-0.5 -0.1,0 -0.1,0 -0.2,-0.1 -0.1,-0.1 -0.2,-0.2 -0.2,-0.4 0,-0.1 0.1,-0.2 0.2,-0.3 0,0 0,0 0,0 0,0 0.1,0 0.1,0 0,0 0.1,0 0.2,0 0.5,0.1 0.9,0.4 1.3,0.7 0,0 0.1,0 0.1,0.1 0,0 0.1,0.1 0.1,0.1 0.1,0 0.1,0.1 0.2,0.1 0.1,0.1 0.2,0.2 0.3,0.4 0,0 0,0 0,0 l 0,0 c 0,0 0,0 0,0.1 0,0 0,0 0,0.1 0.1,0.2 0.1,0.3 0,0.4 z"
           id="path45"
           inkscape:connector-curvature="0"
           style="fill:#009245" /><path
           class="st14"
           d="m 293.9,220.1 c 0,-0.4 0,-0.8 0,-1 -0.1,-0.5 -0.1,-0.9 -0.1,-1.3 -0.1,-0.4 -0.1,-0.8 -0.2,-1.2 0,0 0,0 0,-0.1 0,-0.1 -0.1,-0.2 -0.1,-0.3 -0.1,-0.3 -0.3,-0.3 -0.6,-0.3 -0.2,0 -0.4,0.1 -0.6,0.3 -0.1,0.1 -0.3,0.3 -0.4,0.4 -0.6,0.6 -1.2,1.3 -1.8,2 -0.2,0.2 -0.2,0.5 -0.1,0.8 0.1,0.3 0.2,0.7 0.2,1.1 0,0.1 0,0.3 0.1,0.4 0.1,0.3 0.2,0.5 0.5,0.6 0.1,0 0.2,0.1 0.4,0.1 0.3,0.1 0.7,0.3 1,0.4 0.3,0.1 0.7,0.1 1,0.1 0.3,0 0.7,-0.3 0.7,-0.7 0,-0.3 0.1,-0.7 0.1,-1 -0.1,-0.3 -0.1,-0.3 -0.1,-0.3 z m -0.9,1.1 c -0.8,0 -1.4,-0.1 -2,-0.4 -0.1,-0.1 -0.3,-0.1 -0.4,-0.3 -0.2,-0.1 -0.2,-0.3 0,-0.5 0.1,-0.1 0.3,-0.2 0.5,-0.1 0.5,0.3 1,0.4 1.5,0.4 0.2,0 0.3,0 0.5,0 0.2,0 0.3,0.2 0.3,0.4 -0.1,0.3 -0.3,0.5 -0.4,0.5 z"
           id="path47"
           inkscape:connector-curvature="0"
           style="fill:#009245" /><path
           class="st14"
           d="m 288.3,222.5 c -0.1,0.8 -0.1,1.6 -0.2,2.4 -0.1,1.2 -0.2,2.4 -0.3,3.6 0,0.2 0,0.3 -0.1,0.5 0,0.1 0,0.1 0,0.2 0,0.1 -0.1,0.2 -0.3,0.3 -0.2,0 -0.3,0 -0.4,-0.2 -0.1,-0.2 -0.3,-0.5 -0.4,-0.7 -0.1,-0.2 -0.2,-0.4 -0.4,-0.6 -0.2,0.1 -0.3,0.2 -0.5,0.3 -0.1,0.1 -0.3,0.2 -0.4,0.2 -0.1,0 -0.2,0.1 -0.4,0.1 -0.2,0 -0.3,-0.1 -0.3,-0.3 0,-0.1 0,-0.1 0,-0.2 0,-0.1 0,-0.1 0.1,-0.2 0.7,-1.3 1.2,-2.6 1.8,-4 0.2,-0.5 0.4,-1 0.6,-1.4 0.1,-0.2 0.2,-0.5 0.3,-0.7 0.1,-0.2 0.2,-0.3 0.4,-0.2 0.3,0 0.4,0.2 0.4,0.4 0.1,0 0.2,0.3 0.1,0.5 z"
           id="path49"
           inkscape:connector-curvature="0"
           style="fill:#009245" /><path
           class="st14"
           d="m 289.7,220.4 c 0,0.2 -0.2,0.4 -0.4,0.6 -0.4,0.3 -0.9,0.3 -1.4,0.3 -0.2,0 -0.5,-0.1 -0.7,-0.1 -0.2,0 -0.4,-0.2 -0.4,-0.4 0,-0.2 0,-0.4 0,-0.5 0,-0.2 0,-0.4 0,-0.7 0,-0.3 0.1,-0.6 0.4,-0.8 0.1,-0.2 0.3,-0.2 0.5,-0.3 0.4,0 0.8,0 1.2,0 0.3,0.1 0.5,0.3 0.7,0.5 0.1,0.4 0.2,0.9 0.1,1.4 z"
           id="path51"
           inkscape:connector-curvature="0"
           style="fill:#009245" /><path
           class="st5"
           d="m 283.7,217.1 c 0,0 0.1,0 0.2,0 0.7,0.2 1.2,0.6 1.7,1.1 0.1,0.1 0.2,0.2 0.3,0.4 0.1,0.2 0,0.4 -0.1,0.5 -0.2,0.1 -0.4,0.1 -0.5,-0.1 -0.4,-0.6 -0.9,-0.9 -1.6,-1.1 -0.1,0 -0.1,0 -0.2,-0.1 -0.1,-0.1 -0.2,-0.2 -0.1,-0.4 0,-0.2 0.1,-0.3 0.3,-0.3 z"
           id="path53"
           inkscape:connector-curvature="0"
           style="fill:#48ae4d" /><path
           class="st5"
           d="m 293,221.2 c -0.8,0 -1.4,-0.1 -2,-0.4 -0.1,-0.1 -0.3,-0.2 -0.4,-0.3 -0.2,-0.1 -0.2,-0.3 -0.1,-0.5 0.1,-0.2 0.3,-0.2 0.5,-0.1 0.5,0.3 1,0.4 1.5,0.4 0.2,0 0.3,0 0.5,0 0.2,0 0.3,0.2 0.3,0.4 -0.1,0.3 -0.2,0.5 -0.3,0.5 z"
           id="path55"
           inkscape:connector-curvature="0"
           style="fill:#48ae4d" /><path
           class="st14"
           d="m 261.7,221.3 c -0.1,-0.1 -0.3,-0.1 -0.4,0 -0.1,0.1 -0.2,0.2 -0.3,0.2 -0.2,0.2 -0.5,0.4 -0.7,0.5 -0.6,0.4 -1.3,0.7 -2,0.9 -1.3,0.5 -2.7,0.7 -4.2,0.8 -0.9,0.1 -1.7,0 -2.6,-0.1 -1.9,-0.2 -3.6,-0.9 -5.2,-2 -1.1,-0.7 -2.1,-1.5 -3,-2.5 -0.2,-0.2 -0.4,-0.4 -0.7,-0.7 -0.1,-0.1 -0.2,-0.3 -0.4,-0.4 -0.1,-0.1 -0.2,-0.2 -0.4,-0.1 -0.1,0 -0.2,0.2 -0.2,0.3 0,0.1 0,0.3 0.1,0.4 0.3,1 0.9,1.9 1.5,2.7 0.7,0.9 1.4,1.8 2.2,2.7 1.2,1.3 2.6,2.1 4.3,2.6 0.5,0.1 1,0.2 1.2,0.3 1,0.1 1.9,0.1 2.7,0 0.7,-0.1 1.4,-0.2 2.1,-0.4 1,-0.3 2,-0.7 2.9,-1.3 0.3,-0.2 0.6,-0.4 0.8,-0.6 0.6,-0.5 1.1,-1.1 1.5,-1.7 0.3,-0.4 0.5,-0.8 0.7,-1.2 0,0 0,0 0,-0.1 0.2,-0.1 0.2,-0.3 0.1,-0.3 z m -4.1,3.1 c 0,0 -0.1,0.1 -0.2,0.1 -0.3,0.1 -0.6,0.2 -0.9,0.3 -1.6,0.5 -3.3,0.6 -5,0.4 -0.3,-0.1 -0.7,-0.1 -1.1,-0.2 -1.2,-0.3 -2.4,-0.7 -3.5,-1.3 -0.2,-0.1 -0.5,-0.3 -0.7,-0.4 -0.1,-0.1 -0.2,-0.2 -0.1,-0.3 0,-0.1 0.2,-0.1 0.3,-0.1 0,0 0.1,0 0.1,0.1 0.2,0.1 0.3,0.2 0.5,0.3 1.4,0.8 2.9,1.3 4.5,1.5 0.9,0.1 1.9,0.1 2.8,0 1,-0.1 2,-0.3 2.9,-0.7 0.1,0 0.1,-0.1 0.2,-0.1 0.1,0 0.2,0 0.2,0.1 0.1,0.1 0.1,0.2 0,0.3 z"
           id="path57"
           inkscape:connector-curvature="0"
           style="fill:#009245" /><path
           class="st5"
           d="m 251.5,225.3 c 1.7,0.1 3.4,0.1 5,-0.4 0.3,-0.1 0.6,-0.2 0.9,-0.4 0.1,0 0.1,-0.1 0.2,-0.1 0.1,-0.1 0.1,-0.2 0,-0.3 -0.1,-0.1 -0.2,-0.1 -0.3,-0.1 -0.1,0 -0.2,0.1 -0.2,0.1 -0.9,0.4 -1.9,0.6 -2.9,0.7 -0.9,0.1 -1.9,0.1 -2.8,0 -1.6,-0.2 -3.1,-0.7 -4.5,-1.5 -0.2,-0.1 -0.3,-0.2 -0.5,-0.3 0,0 -0.1,0 -0.1,-0.1 -0.1,0 -0.2,0 -0.3,0.1 -0.1,0.1 0,0.2 0.1,0.3 0.2,0.1 0.5,0.3 0.7,0.4 1.1,0.6 2.3,1 3.5,1.3 0.5,0.2 0.9,0.2 1.2,0.3 z"
           id="path59"
           inkscape:connector-curvature="0"
           style="fill:#48ae4d" /><path
           class="st14"
           d="m 237.1,216.1 c -0.1,-0.1 -0.3,-0.2 -0.4,-0.1 -0.1,0 -0.2,0.1 -0.3,0.2 -0.3,0.1 -0.5,0.3 -0.8,0.4 -0.7,0.2 -1.4,0.3 -2.2,0.4 -1.4,0.2 -2.8,0.1 -4.3,-0.1 -0.9,-0.1 -1.7,-0.3 -2.5,-0.6 -0.8,-0.3 -1.5,-0.6 -2.1,-1.1 -0.1,0.4 -0.1,0.7 -0.2,1.1 0.7,0.4 1.4,0.8 2.1,1.1 0.9,0.3 1.8,0.5 2.7,0.7 1,0.1 2,0.2 3,0 0.1,0 0.2,0 0.2,-0.1 0.1,0 0.2,0 0.2,0.1 0,0.1 0,0.2 -0.1,0.3 -0.1,0 -0.1,0.1 -0.2,0.1 -0.3,0 -0.6,0.1 -1,0.1 -1.7,0.1 -3.3,-0.2 -5,-0.7 -0.3,-0.1 -0.7,-0.3 -1,-0.5 -0.4,-0.2 -0.7,-0.4 -1.1,-0.6 -0.1,0.6 -0.2,1.2 -0.4,1.8 0.1,0.1 0.3,0.2 0.4,0.3 0.4,0.2 0.9,0.4 1.1,0.5 1,0.4 1.8,0.5 2.7,0.6 0.7,0.1 1.4,0.1 2.1,0.1 1.1,0 2.1,-0.2 3.1,-0.6 0.3,-0.1 0.7,-0.3 1,-0.4 0.7,-0.4 1.3,-0.8 1.9,-1.3 0.3,-0.3 0.6,-0.7 1,-1 l 0,0 c 0.2,-0.4 0.2,-0.6 0.1,-0.7 z"
           id="path61"
           inkscape:connector-curvature="0"
           style="fill:#009245" /><path
           class="st5"
           d="m 232.5,218.3 c -0.1,0 -0.1,0.1 -0.2,0.1 -0.3,0.1 -0.6,0.1 -1,0.1 -1.7,0.1 -3.3,-0.2 -5,-0.7 -0.3,-0.1 -0.7,-0.3 -1,-0.5 -0.4,-0.2 -0.8,-0.4 -1.1,-0.6 0,-0.2 0.1,-0.3 0.1,-0.5 0.7,0.4 1.4,0.8 2.1,1.1 0.9,0.3 1.8,0.5 2.7,0.7 1,0.1 2,0.2 3,0 0.1,0 0.2,-0.1 0.3,-0.1 0.1,0 0.2,0 0.2,0.1 0,0.1 -0.1,0.2 -0.1,0.3 z"
           id="path63"
           inkscape:connector-curvature="0"
           style="fill:#48ae4d" /><path
           class="st14"
           d="m 239.5,216.6 c -0.2,0.6 -0.3,1.1 -0.5,1.7 -0.2,0.7 -0.4,1.3 -0.7,2 -0.4,1 -0.8,2 -1.2,3 -0.1,0.1 -0.1,0.2 -0.2,0.3 -0.2,0.2 -0.5,0.2 -0.6,-0.1 0,-0.1 -0.1,-0.2 -0.1,-0.3 0,-0.2 0,-0.4 -0.1,-0.6 0,-0.1 0,-0.3 0,-0.4 -0.3,0.1 -0.6,0.1 -0.9,0.2 -0.5,0.1 -1,0.1 -1.5,0.1 -0.3,0 -0.5,-0.3 -0.4,-0.6 0,-0.1 0.1,-0.1 0.1,-0.2 0.2,-0.2 0.3,-0.4 0.5,-0.6 0.6,-0.6 1.2,-1.2 1.9,-1.7 0.8,-0.6 1.5,-1.4 2.1,-2.1 0.3,-0.4 0.6,-0.7 0.9,-1.1 0.2,-0.2 0.3,-0.2 0.5,-0.1 0.2,0.2 0.2,0.3 0.2,0.5 z"
           id="path65"
           inkscape:connector-curvature="0"
           style="fill:#009245" /><path
           class="st14"
           d="m 247.2,213.7 c -0.1,-0.6 -0.4,-0.8 -0.9,-0.8 -0.3,0 -0.6,0 -0.9,0.1 -0.8,0.2 -1.5,0.6 -2.2,1.1 -0.2,0.2 -0.4,0.4 -0.4,0.6 -0.1,0.4 -0.2,0.8 -0.3,1.2 0,0.2 0,0.4 0,0.6 0,0 0,0.1 0,0.1 0,0.4 0.1,0.8 0.4,1.1 0.2,0.3 0.5,0.5 0.8,0.7 0.2,0.2 0.5,0.3 0.8,0.3 0.4,0.1 0.7,0 0.9,-0.3 0.2,-0.2 0.4,-0.5 0.5,-0.7 0.1,-0.2 0.2,-0.5 0.4,-0.7 0.4,-0.8 0.7,-1.5 0.9,-2.4 0,-0.3 0,-0.6 0,-0.9 z m -1.2,0.9 c 0,0 0,0 0,0 -0.1,0 -0.1,0 -0.2,0 l -0.2,0 c -0.6,0 -1.2,0.1 -1.7,0.5 -0.2,0.1 -0.4,0.1 -0.5,-0.1 -0.1,-0.1 -0.1,-0.4 0,-0.5 0.1,-0.1 0.2,-0.2 0.4,-0.3 0.6,-0.3 1.3,-0.4 2,-0.4 0.1,0 0.1,0 0.2,0 0.2,0.1 0.3,0.2 0.2,0.4 0,0.2 -0.1,0.3 -0.2,0.4 l 0,0 z"
           id="path67"
           inkscape:connector-curvature="0"
           style="fill:#009245" /><path
           class="st14"
           d="m 239.6,213.1 c -0.4,-1 -0.8,-2 -1.3,-2.9 -0.1,-0.2 -0.2,-0.3 -0.3,-0.4 0,0 -0.1,-0.1 -0.2,-0.1 -0.2,-0.1 -0.3,-0.1 -0.4,0 -0.1,0 -0.2,0.1 -0.2,0.1 -0.1,0.1 -0.2,0.2 -0.2,0.3 -0.2,0.4 -0.4,0.8 -0.6,1.2 -0.2,0.4 -0.3,0.8 -0.6,1.2 -0.1,0.3 -0.2,0.6 -0.4,1 0,0 0,0.1 0,0.1 -0.1,0.3 -0.1,0.7 -0.2,1 -0.1,0.4 0.2,0.7 0.5,0.9 0.3,0.2 0.6,0.2 1,0.2 0.4,0 0.7,-0.1 1.1,-0.1 0.1,0 0.3,0 0.4,0 0.3,0 0.5,-0.1 0.7,-0.4 0.1,-0.1 0.1,-0.3 0.2,-0.4 0.1,-0.3 0.3,-0.7 0.5,-1 0.1,-0.1 0.1,-0.4 0,-0.7 z m -1.2,2 c -0.2,0.1 -0.3,0.1 -0.5,0.1 -0.7,0.1 -1.3,-0.1 -2.1,-0.3 -0.1,0 -0.2,-0.2 -0.2,-0.4 0,-0.2 0.2,-0.3 0.4,-0.3 0.2,0 0.3,0.1 0.5,0.1 0.5,0.1 1,0.2 1.6,0.1 0.2,-0.1 0.4,0.1 0.4,0.2 0.2,0.2 0.1,0.4 -0.1,0.5 z"
           id="path69"
           inkscape:connector-curvature="0"
           style="fill:#009245" /><path
           class="st14"
           d="m 241.6,223.9 c 0,0.1 0,0.1 0,0.2 -0.1,0.2 -0.2,0.3 -0.4,0.2 -0.1,0 -0.2,-0.1 -0.3,-0.2 -0.1,-0.1 -0.2,-0.2 -0.3,-0.4 -0.1,-0.1 -0.2,-0.3 -0.4,-0.5 -0.2,0.2 -0.4,0.3 -0.5,0.4 -0.2,0.2 -0.4,0.4 -0.6,0.6 -0.1,0.1 -0.3,0.1 -0.4,0 -0.1,-0.1 -0.2,-0.2 -0.2,-0.3 0,-0.1 0,-0.1 0,-0.2 0,-0.2 0.1,-0.3 0.1,-0.5 0.3,-1.2 0.5,-2.3 0.8,-3.5 0.2,-0.8 0.3,-1.5 0.5,-2.3 0.1,-0.2 0.1,-0.5 0.2,-0.7 0.1,-0.2 0.3,-0.3 0.5,-0.2 0.2,0 0.3,0.1 0.3,0.4 0,0.3 0,0.5 0.1,0.8 0,0.5 0,1 0.1,1.6 0.1,1.5 0.3,2.9 0.5,4.3 0,0.2 0,0.3 0,0.3 z"
           id="path71"
           inkscape:connector-curvature="0"
           style="fill:#009245" /><path
           class="st14"
           d="m 242.3,215.2 c 0,0.2 -0.1,0.4 -0.2,0.6 0,0.1 -0.1,0.3 -0.2,0.5 -0.1,0.2 -0.3,0.3 -0.5,0.3 -0.2,0 -0.5,-0.1 -0.7,-0.1 -0.5,-0.1 -0.9,-0.3 -1.2,-0.7 -0.1,-0.2 -0.2,-0.4 -0.2,-0.7 0.1,-0.5 0.3,-0.9 0.6,-1.3 0.2,-0.2 0.5,-0.3 0.8,-0.3 0.4,0.1 0.8,0.1 1.1,0.3 0.2,0.1 0.3,0.2 0.4,0.4 0.1,0.4 0.1,0.7 0.1,1 z"
           id="path73"
           inkscape:connector-curvature="0"
           style="fill:#009245" /><path
           class="st5"
           d="m 246.3,213.7 c 0,0 -0.1,0 -0.2,0 -0.8,0 -1.6,0.2 -2.4,0.6 -0.2,0.1 -0.3,0.2 -0.5,0.3 -0.2,0.2 -0.2,0.4 0,0.6 0.2,0.2 0.4,0.2 0.6,0.1 0.7,-0.5 1.4,-0.7 2.2,-0.7 0.1,0 0.2,0 0.2,0 0.2,-0.1 0.3,-0.2 0.3,-0.4 0.2,-0.2 0.1,-0.4 -0.2,-0.5 z"
           id="path75"
           inkscape:connector-curvature="0"
           style="fill:#48ae4d" /><path
           class="st5"
           d="m 235.9,214.9 c 0.7,0.2 1.4,0.4 2.1,0.3 0.2,0 0.3,-0.1 0.5,-0.1 0.2,-0.1 0.3,-0.3 0.2,-0.4 -0.1,-0.2 -0.2,-0.3 -0.4,-0.2 -0.5,0.2 -1.1,0.1 -1.6,-0.1 -0.2,0 -0.3,-0.1 -0.5,-0.1 -0.2,0 -0.4,0.1 -0.4,0.3 -0.1,0.1 0,0.2 0.1,0.3 z"
           id="path77"
           inkscape:connector-curvature="0"
           style="fill:#48ae4d" /></g><g
         id="g79"><g
           id="g81"><path
             class="st12"
             d="m 237.7,246.9 c -0.3,0.1 -0.5,0.2 -0.8,0.3 -0.2,0.1 -0.4,0.1 -0.6,0.2 -0.1,0 -0.2,0.1 -0.3,0.1 l 0,0 c 0,0 -0.1,0 -0.1,0.1 0,0 -0.1,0 -0.1,0 -0.2,0.1 -0.3,0.2 -0.5,0.2 0,0 0,0 0,0 -0.2,0.1 -0.5,0.3 -0.7,0.4 -0.3,0.2 -0.6,0.4 -0.9,0.6 -0.8,0.7 -1.6,1.4 -2.3,2.2 -0.7,-1.2 -1.1,-2.6 -1.1,-4.2 0,-0.3 0,-0.6 0.1,-0.9 0,-0.5 0.1,-0.9 0.3,-1.4 0.9,0.6 1.9,1.1 2.8,1.5 0.4,0.1 0.7,0.2 1,0.3 0.9,0.4 2,0.6 3.2,0.6 z"
             id="path83"
             inkscape:connector-curvature="0"
             style="fill:#066938" /><path
             class="st12"
             d="m 237.9,246.3 c -1.2,-0.5 -2.2,-1.2 -3.1,-2.2 -0.4,-0.5 -0.8,-1.1 -1.1,-1.7 -0.3,-0.5 -0.5,-1.1 -0.7,-1.7 1.3,-1.1 2.9,-1.8 4.6,-2 -0.2,1.1 -0.4,2.2 -0.4,3.2 0,0.4 0,0.7 0.1,1.1 0,0 0,0.1 0,0.1 l 0,0 0,0.3 c 0,0.1 0,0.2 0,0.3 0,0 0,0 0,0.1 0,0.1 0,0.2 0,0.3 0,0 0,0.1 0,0.1 0,0.1 0,0.3 0.1,0.4 0,0 0,0 0,0.1 0,0.2 0.1,0.5 0.2,0.7 0.2,0.3 0.3,0.6 0.3,0.9 z"
             id="path85"
             inkscape:connector-curvature="0"
             style="fill:#066938" /><path
             class="st12"
             d="m 240,255 c -0.5,0.1 -1.1,0.2 -1.6,0.2 -1.3,0 -2.5,-0.3 -3.6,-0.8 0.1,-1.4 0.3,-2.7 0.9,-4 0.5,-1.2 1.3,-2.2 2.4,-3 0,0 0,0 0.1,-0.1 -0.1,1.1 0,2.2 0.2,3.3 0.1,0.3 0.1,0.7 0.2,1.1 0.4,1.1 0.9,2.2 1.4,3.3 z"
             id="path87"
             inkscape:connector-curvature="0"
             style="fill:#066938" /><path
             class="st12"
             d="m 245.8,243.4 c -1.1,0.1 -2.1,0.3 -3.1,0.6 -0.2,0.1 -0.4,0.2 -0.6,0.2 -0.1,0 -0.3,0.1 -0.4,0.1 -1.1,0.4 -2.1,1 -3,1.7 0,-0.9 0.2,-1.7 0.5,-2.5 0.1,-0.3 0.3,-0.6 0.4,-0.9 0.7,-1.2 1.6,-2.2 2.7,-3.1 1.5,1 2.8,2.3 3.5,3.9 z"
             id="path89"
             inkscape:connector-curvature="0"
             style="fill:#066938" /><path
             class="st12"
             d="m 246.5,248.2 c -0.1,0.6 -0.3,1.2 -0.5,1.8 -0.4,1 -1,1.9 -1.7,2.7 -1.3,-0.6 -2.6,-1.3 -3.6,-2.4 -0.1,-0.1 -0.3,-0.3 -0.4,-0.4 -0.1,-0.1 -0.2,-0.3 -0.3,-0.4 0,0 0,0 -0.1,-0.1 -0.1,-0.1 -0.2,-0.3 -0.3,-0.5 -0.1,-0.2 -0.2,-0.3 -0.3,-0.5 l 0,0 0,0 c -0.1,-0.2 -0.2,-0.4 -0.3,-0.6 0,0 0,0 0,0 -0.1,-0.2 -0.2,-0.5 -0.2,-0.7 0,-0.1 0,-0.2 -0.1,-0.3 0,0 0.1,0 0.1,0 1.3,-0.4 2.5,-0.5 3.8,-0.2 1.5,0.2 2.8,0.8 3.9,1.6 z"
             id="path91"
             inkscape:connector-curvature="0"
             style="fill:#066938" /><path
             class="st15"
             d="m 238.9,246.7 c 0,0 -0.1,0 -0.1,0 0,0.1 0,0.2 0.1,0.3 0.1,0.2 0.1,0.5 0.2,0.7 0,0 0,0 0,0 0.1,0.2 0.2,0.4 0.3,0.6 l 0,0 0,0 c 0.1,0.2 0.2,0.3 0.3,0.5 0.1,0.2 0.2,0.3 0.3,0.5 0,0 0,0.1 0.1,0.1 0.1,0.1 0.2,0.3 0.3,0.4 0.1,0.2 0.3,0.3 0.4,0.4 1,1 2.3,1.8 3.6,2.4 -1.1,1.2 -2.6,2 -4.3,2.3 -0.6,-1.1 -1.1,-2.2 -1.4,-3.3 -0.1,-0.4 -0.1,-0.7 -0.2,-1.1 -0.1,-0.4 -0.1,-0.8 -0.2,-1.2 0,-0.1 0,-0.2 0,-0.3 0,-0.1 0,-0.2 0,-0.4 0,-0.1 0,-0.2 0,-0.4 0,-0.1 0,-0.2 0,-0.3 l 0,0.1 c 0,0 0,-0.1 0,-0.1 0,-0.2 0,-0.4 0,-0.6 0,0 0,0 -0.1,0 -0.2,0.2 -0.4,0.3 -0.6,0.5 -0.1,0.1 -0.2,0.2 -0.3,0.3 -0.1,0.1 -0.2,0.2 -0.3,0.3 -0.1,0.1 -0.3,0.3 -0.4,0.5 0,0.1 -0.1,0.1 -0.1,0.2 -0.1,0.1 -0.1,0.2 -0.2,0.3 0,0.1 -0.1,0.2 -0.1,0.2 0,0 0,0 0,0 0,0 0,0.1 -0.1,0.1 -0.1,0.2 -0.2,0.4 -0.3,0.6 -0.6,1.3 -0.9,2.6 -0.9,4 -1.4,-0.7 -2.7,-1.8 -3.5,-3.2 0.7,-0.8 1.5,-1.6 2.3,-2.2 0.3,-0.2 0.6,-0.4 0.9,-0.6 0.2,-0.1 0.5,-0.3 0.7,-0.4 0,0 0,0 0,0 0.1,-0.1 0.3,-0.2 0.5,-0.2 0,0 0.1,0 0.1,0 0,0 0.1,0 0.1,-0.1 l 0,0 c 0.1,0 0.2,-0.1 0.3,-0.1 0.2,-0.1 0.4,-0.2 0.6,-0.2 0.3,-0.1 0.5,-0.2 0.8,-0.3 -1.1,0 -2.2,-0.2 -3.3,-0.5 -0.3,-0.1 -0.6,-0.2 -1,-0.3 -0.9,-0.4 -1.9,-0.9 -2.8,-1.5 0.3,-0.9 0.7,-1.8 1.3,-2.6 0.3,-0.5 0.7,-0.9 1.2,-1.3 0.2,0.6 0.4,1.1 0.7,1.7 0.3,0.6 0.7,1.2 1.1,1.7 0.8,1 1.8,1.7 3.1,2.2 -0.1,-0.3 -0.2,-0.5 -0.3,-0.8 -0.1,-0.2 -0.1,-0.5 -0.2,-0.7 0,0 0,0 0,-0.1 0,-0.1 0,-0.3 -0.1,-0.4 0,0 0,-0.1 0,-0.1 0,-0.1 0,-0.2 0,-0.3 0,0 0,0 0,-0.1 0,-0.1 0,-0.2 0,-0.3 l 0,-0.3 0,0 c 0,0 0,-0.1 0,-0.1 0,-0.3 0,-0.7 -0.1,-1.1 0,-1.1 0.2,-2.1 0.4,-3.2 0.3,0 0.5,0 0.8,0 0.5,0 0.9,0 1.4,0.1 0,0 0,0 0,0 0.1,0 0.3,0 0.4,0.1 0.1,0 0.1,0 0.2,0 0.6,0.2 1.3,0.4 1.8,0.7 -1.1,0.9 -2,1.9 -2.7,3.1 -0.2,0.3 -0.3,0.6 -0.4,0.9 -0.3,0.8 -0.5,1.6 -0.5,2.5 0.9,-0.7 1.9,-1.3 3,-1.7 0.1,0 0.2,-0.1 0.4,-0.1 0.2,-0.1 0.4,-0.2 0.6,-0.2 1,-0.3 2.1,-0.5 3.1,-0.6 0.3,0.5 0.5,1.1 0.6,1.8 0.1,0.6 0.2,1.2 0.2,1.8 0,0.4 0,0.8 -0.1,1.3 -1.2,-0.8 -2.5,-1.4 -3.9,-1.7 -1.2,-0.7 -2.5,-0.7 -3.7,-0.2 z"
             id="path93"
             inkscape:connector-curvature="0"
             style="fill:#ffffff" /></g><g
           id="g95"><path
             class="st12"
             d="m 277,255.1 c -0.2,0.1 -0.4,0.1 -0.7,0.2 -0.2,0.1 -0.4,0.1 -0.5,0.2 -0.2,0.1 -0.3,0.1 -0.5,0.2 -0.3,0.1 -0.5,0.3 -0.8,0.4 -0.2,0.1 -0.4,0.2 -0.6,0.4 -0.3,0.2 -0.6,0.4 -0.9,0.6 -0.8,0.7 -1.6,1.4 -2.3,2.2 -0.7,-1.2 -1.1,-2.7 -1.1,-4.2 0,-0.2 0,-0.3 0,-0.5 0,-0.6 0.1,-1.3 0.3,-1.8 0.9,0.6 1.9,1.1 2.8,1.5 0.4,0.1 0.7,0.2 1,0.3 1.1,0.3 2.2,0.5 3.3,0.5 z"
             id="path97"
             inkscape:connector-curvature="0"
             style="fill:#066938" /><path
             class="st12"
             d="m 277.3,254.5 c -1.2,-0.5 -2.2,-1.2 -3.1,-2.2 -0.6,-0.7 -1,-1.4 -1.4,-2.2 -0.2,-0.4 -0.4,-0.8 -0.5,-1.2 1.3,-1.1 2.9,-1.8 4.6,-2 -0.2,1.1 -0.4,2.2 -0.4,3.2 0,0.2 0,0.3 0,0.5 0,0.2 0,0.4 0,0.6 0.2,1.2 0.4,2.2 0.8,3.3 z"
             id="path99"
             inkscape:connector-curvature="0"
             style="fill:#066938" /><path
             class="st12"
             d="m 279.4,263.2 c -0.5,0.1 -1.1,0.2 -1.6,0.2 -1.3,0 -2.5,-0.3 -3.6,-0.8 0.1,-1.4 0.3,-2.7 0.9,-4 0.5,-1.2 1.3,-2.2 2.4,-3 0,0 0,0 0.1,-0.1 -0.1,1.1 0,2.2 0.2,3.3 0.1,0.3 0.1,0.7 0.2,1.1 0.3,1.1 0.8,2.2 1.4,3.3 z"
             id="path101"
             inkscape:connector-curvature="0"
             style="fill:#066938" /><path
             class="st12"
             d="m 285.2,251.6 c -1.1,0.1 -2.1,0.3 -3.1,0.6 -0.4,0.1 -0.7,0.3 -1,0.4 -1.1,0.4 -2.1,1 -3,1.7 0,-1.2 0.4,-2.3 1,-3.4 0,0 0,-0.1 0.1,-0.1 0.7,-1.2 1.6,-2.1 2.6,-3 1.5,0.8 2.7,2 3.4,3.5 -0.1,0.1 -0.1,0.2 0,0.3 z"
             id="path103"
             inkscape:connector-curvature="0"
             style="fill:#066938" /><path
             class="st12"
             d="m 285.9,256.4 c 0,0 0,0.1 0,0.1 -0.3,1.7 -1.1,3.1 -2.2,4.3 -1.3,-0.5 -2.6,-1.3 -3.6,-2.4 -0.8,-0.8 -1.3,-1.7 -1.7,-2.7 -0.1,-0.2 -0.1,-0.4 -0.2,-0.6 0,-0.1 0,-0.2 -0.1,-0.2 0,0 0.1,0 0.1,0 1.3,-0.4 2.5,-0.5 3.8,-0.2 1.4,0.3 2.7,0.9 3.9,1.7 z"
             id="path105"
             inkscape:connector-curvature="0"
             style="fill:#066938" /><path
             class="st15"
             d="m 278.2,254.9 c 0,0 -0.1,0 -0.1,0 0,0.1 0,0.2 0.1,0.2 0.1,0.2 0.1,0.4 0.2,0.6 0.4,1 0.9,1.9 1.7,2.7 1,1 2.3,1.8 3.6,2.4 -1.1,1.2 -2.6,2 -4.3,2.4 -0.6,-1.1 -1.1,-2.2 -1.4,-3.3 -0.1,-0.4 -0.2,-0.7 -0.2,-1.1 -0.2,-0.8 -0.3,-1.6 -0.3,-2.4 l 0,0 c 0,-0.2 0,-0.4 0,-0.6 l 0,-0.1 c 0,-0.1 0,-0.1 0,-0.2 0,0 0,0 -0.1,0 -0.1,0 -0.1,0.1 -0.1,0.1 l 0,0 c -0.1,0.1 -0.2,0.1 -0.3,0.2 -0.1,0.1 -0.2,0.1 -0.3,0.2 -0.2,0.2 -0.4,0.3 -0.5,0.5 -0.2,0.2 -0.3,0.4 -0.5,0.6 0,0 0,0 0,0 -0.1,0.2 -0.2,0.3 -0.3,0.5 0,0 0,0.1 -0.1,0.1 -0.1,0.2 -0.2,0.4 -0.3,0.6 -0.6,1.3 -0.8,2.6 -0.9,4 -1.4,-0.7 -2.7,-1.8 -3.5,-3.2 0.7,-0.8 1.5,-1.6 2.3,-2.2 0.3,-0.2 0.6,-0.4 0.9,-0.6 0.2,-0.1 0.4,-0.3 0.6,-0.4 0.3,-0.1 0.5,-0.3 0.8,-0.4 0.2,-0.1 0.3,-0.1 0.5,-0.2 0.2,-0.1 0.4,-0.1 0.5,-0.2 0.2,-0.1 0.4,-0.1 0.7,-0.2 -1.1,0 -2.2,-0.2 -3.3,-0.5 -0.3,-0.1 -0.6,-0.2 -1,-0.3 -0.9,-0.4 -1.9,-0.9 -2.8,-1.5 0.3,-1.1 0.8,-2 1.5,-2.9 0.3,-0.4 0.6,-0.7 1,-1 0.1,0.4 0.3,0.8 0.5,1.2 0.4,0.8 0.8,1.5 1.4,2.2 0.8,1 1.8,1.7 3.1,2.2 -0.4,-1 -0.6,-2.1 -0.7,-3.2 0,-0.2 0,-0.4 0,-0.6 0,-0.1 0,-0.3 0,-0.5 0,-1.1 0.2,-2.1 0.4,-3.2 0.3,0 0.5,0 0.8,0 1.4,0 2.7,0.3 3.9,1 -1,0.8 -1.9,1.8 -2.6,3 0,0 0,0.1 -0.1,0.1 -0.6,1 -0.9,2.2 -1,3.4 0.9,-0.7 1.9,-1.3 3,-1.7 0.3,-0.1 0.6,-0.2 1,-0.4 1,-0.3 2.1,-0.5 3.1,-0.6 0.5,1.1 0.8,2.3 0.8,3.5 0,0.4 0,0.8 -0.1,1.3 -1.2,-0.8 -2.5,-1.4 -3.9,-1.7 -1.2,-0.3 -2.5,-0.2 -3.7,0.2 z"
             id="path107"
             inkscape:connector-curvature="0"
             style="fill:#ffffff" /></g></g></g><path
       class="st11"
       d="m 146.1,223.5 c 0,1.6 0.1,2.9 0.1,3.9 -3.8,-0.4 -6.9,-0.6 -9,-0.7 -0.2,-1.1 -0.6,-2.6 -0.9,-4.1 2,0.1 5.5,0.4 9.8,0.9 z"
       id="path109"
       inkscape:connector-curvature="0"
       style="fill:#c1292e" /><g
       id="g111"><path
         class="st16"
         d="m 208.5,204 c -0.3,-0.1 -0.6,-0.1 -0.9,-0.2 -2,-0.4 -3.8,-0.9 -5.7,-1.3 -0.3,-0.1 -0.6,-0.1 -0.9,-0.2 -0.4,-0.1 -0.9,-0.2 -1.3,-0.3 -0.3,-0.1 -0.7,-0.1 -1,-0.2 -2.4,-0.5 -4.8,-1 -7.1,-1.5 -0.5,-0.1 -1,-0.2 -1.5,-0.3 0,0 -0.1,0 -0.1,0 -0.3,0 -0.5,-0.1 -0.8,-0.1 -1.3,-0.2 -2.6,-0.5 -3.9,-0.7 -0.3,0 -0.5,-0.1 -0.8,-0.1 -0.7,-0.1 -1.4,-0.2 -2.1,-0.3 -0.1,0 -0.1,0 -0.2,0 0,0 -0.1,0 -0.1,0 -0.3,0 -0.6,-0.1 -0.9,-0.1 -0.3,0 -0.7,-0.1 -1.1,-0.1 -0.3,0 -0.6,-0.1 -0.9,-0.1 -0.3,0 -0.6,-0.1 -0.9,-0.1 -0.3,0 -0.6,-0.1 -0.8,-0.1 -0.4,0 -0.8,-0.1 -1.3,-0.1 -0.2,0 -0.3,0 -0.5,0 -0.1,0 -0.3,0 -0.5,0 -0.3,0 -0.7,-0.1 -1,-0.1 0,0 0,0 0,0 -1,-0.1 -2,-0.2 -3.1,-0.2 0,0 -0.1,0 -0.1,0 -0.2,0 -0.4,0 -0.6,0 -0.2,0 -0.5,0 -0.7,0 -0.1,0 -0.3,0 -0.4,0 -0.4,0 -0.8,0 -1.2,-0.1 -0.1,0 -0.2,0 -0.3,0 -0.4,0 -0.9,0 -1.3,0 0,0 -0.1,0 -0.1,0 -0.3,0 -0.7,0 -1.1,0 -0.1,0 -0.3,0 -0.4,0 -0.5,0 -0.9,0 -1.4,0 l -0.3,0 c -5.4,-0.1 -11.1,0.2 -17.4,0.8 -0.4,5.9 0,18.2 0.1,25.5 0,1.6 0.1,2.9 0.1,3.9 0,1.1 0,1.7 0,1.9 1.5,0.1 3.5,0.3 5.9,0.6 1.9,0.2 4,0.5 6.2,0.8 0.5,0.1 1,0.1 1.5,0.2 0.1,0 0.2,0 0.2,0 0.3,0 0.6,0.1 0.9,0.1 2.4,0.3 4.9,0.7 7.4,1 1.1,0.2 2.2,0.3 3.3,0.5 0,0 0.1,0 0.1,0 0.8,0.1 1.5,0.2 2.2,0.3 0,0 0,0 0,0 0.6,0.1 1.1,0.2 1.6,0.2 0,0 0,0 0,0 0.3,0 0.7,0.1 1,0.1 0.2,0 0.5,0.1 0.7,0.1 0.1,0 0.3,0 0.4,0.1 0.7,0.1 1.2,0.2 1.7,0.3 1.3,0.2 2.6,0.4 3.9,0.6 1.5,0.2 3,0.5 4.4,0.7 l 0,0 c 0.8,0.1 1.5,0.3 2.3,0.4 l 0,0 c 0.2,0 0.3,0 0.5,0.1 l 0,0 c 0.5,0.1 0.9,0.2 1.4,0.2 2.8,0.5 5.4,1 7.6,1.4 1.8,0.4 3.4,0.7 4.6,1.1 0.1,-0.8 0.3,-1.6 0.4,-2.4 0.2,-1.4 0.5,-2.8 0.7,-4.2 1.7,-10.4 3.6,-22.3 4.3,-27.4 -0.1,-0.6 -0.4,-0.7 -0.7,-0.7 z"
         id="path113"
         inkscape:connector-curvature="0"
         style="fill:#178d4d" /><path
         class="st17"
         d="m 182.2,198.7 c -0.3,0 -0.6,-0.1 -0.9,-0.1 -0.3,0 -0.7,-0.1 -1.1,-0.1 -0.3,0 -0.6,-0.1 -0.9,-0.1 -0.3,0 -0.6,-0.1 -0.9,-0.1 -0.3,0 -0.6,-0.1 -0.8,-0.1 -0.4,0 -0.8,-0.1 -1.3,-0.1 -0.2,0 -0.3,0 -0.5,0 -0.1,0 -0.3,0 -0.5,0 -0.3,0 -0.7,-0.1 -1,-0.1 -0.2,2.8 -0.5,5.8 -0.7,8.8 0,0 0,0 0,0 -0.6,7.3 -1.2,14.9 -1.6,20 -0.1,1.6 -0.3,2.9 -0.4,4 -0.1,0.8 -0.2,1.4 -0.2,1.9 0,0 0.1,0 0.1,0 0.8,0.1 1.5,0.2 2.2,0.3 0,0 0,0 0,0 0.6,0.1 1.1,0.2 1.6,0.2 0,0 0,0 0,0 0.3,0 0.7,0.1 1,0.1 0.2,0 0.5,0.1 0.7,0.1 0.1,0 0.3,0 0.4,0.1 0.7,0.1 1.2,0.2 1.7,0.3 0,-0.6 0.1,-1.3 0.1,-1.9 0.1,-1.3 0.2,-2.7 0.3,-4.1 0.4,-5.1 0.8,-10.2 1.3,-15.1 0.7,-5.1 1.2,-9.9 1.4,-14 0.1,0 0.1,0 0,0 z"
         id="path115"
         inkscape:connector-curvature="0"
         style="fill:#ce7278" /><g
         id="g117"><g
           id="g119"><path
             class="st11"
             d="m 159.4,230.3 c -0.2,0.1 -0.4,0.1 -0.7,0.2 -0.2,0.1 -0.4,0.1 -0.6,0.2 -0.2,0.1 -0.3,0.1 -0.5,0.2 -0.2,0.1 -0.5,0.2 -0.7,0.4 -0.2,0.1 -0.4,0.3 -0.7,0.4 -0.3,0.2 -0.6,0.4 -0.9,0.6 -0.8,0.7 -1.6,1.4 -2.3,2.2 -0.7,-1.2 -1.1,-2.7 -1.1,-4.2 0,-0.1 0,-0.3 0,-0.4 0,-0.6 0.1,-1.2 0.3,-1.8 0,0 0,-0.1 0,-0.2 0.1,0.1 0.2,0.1 0.3,0.2 0.3,0.2 0.7,0.4 1.1,0.6 0.2,0.1 0.5,0.2 0.7,0.4 0.2,0.1 0.5,0.2 0.7,0.3 0.4,0.1 0.7,0.2 1,0.3 1.2,0.4 2.3,0.6 3.4,0.6 z"
             id="path121"
             inkscape:connector-curvature="0"
             style="fill:#c1292e" /><path
             class="st11"
             d="m 159.7,229.7 c -0.6,-0.2 -1.1,-0.5 -1.6,-0.8 -0.5,-0.4 -1,-0.8 -1.5,-1.4 -0.8,-0.9 -1.3,-1.9 -1.7,-3 0,-0.1 -0.1,-0.3 -0.1,-0.4 1.3,-1.1 2.9,-1.8 4.6,-2 -0.2,1 -0.3,1.9 -0.4,2.9 0,0.1 0,0.2 0,0.3 0,0.4 0,0.7 0.1,1.1 0,0.9 0.2,1.7 0.4,2.6 0.1,0.2 0.1,0.5 0.2,0.7 z"
             id="path123"
             inkscape:connector-curvature="0"
             style="fill:#c1292e" /><path
             class="st11"
             d="m 161.8,238.4 c -0.5,0.1 -1.1,0.2 -1.6,0.2 -1.3,0 -2.5,-0.3 -3.6,-0.8 0.1,-1.4 0.3,-2.7 0.9,-4 0.5,-1.2 1.3,-2.2 2.4,-3 0,0 0,0 0.1,-0.1 -0.1,1.1 0,2.2 0.2,3.3 0.1,0.3 0.1,0.7 0.2,1.1 0.4,1.1 0.9,2.2 1.4,3.3 z"
             id="path125"
             inkscape:connector-curvature="0"
             style="fill:#c1292e" /><path
             class="st11"
             d="m 167.6,226.8 c -1.1,0.1 -2.1,0.3 -3.1,0.6 -0.4,0.1 -0.7,0.3 -1,0.4 -1,0.4 -1.8,0.8 -2.6,1.4 -0.1,0.1 -0.3,0.2 -0.4,0.3 0,-0.1 0,-0.2 0,-0.3 0.1,-1.1 0.4,-2.1 0.9,-3 0.1,-0.3 0.3,-0.5 0.5,-0.8 0.6,-0.9 1.3,-1.6 2.2,-2.3 1.3,0.7 2.4,1.7 3.2,3 0.1,0.2 0.2,0.4 0.3,0.7 z"
             id="path127"
             inkscape:connector-curvature="0"
             style="fill:#c1292e" /><path
             class="st11"
             d="m 168.3,231.6 c 0,0.2 -0.1,0.3 -0.1,0.5 -0.3,1.5 -1.1,2.9 -2.1,4 -1.3,-0.5 -2.6,-1.3 -3.6,-2.4 -0.8,-0.7 -1.3,-1.6 -1.7,-2.6 -0.1,-0.2 -0.2,-0.5 -0.2,-0.7 0,-0.1 0,-0.2 -0.1,-0.3 0,0 0.1,0 0.1,0 1.3,-0.4 2.5,-0.5 3.8,-0.2 1.5,0.3 2.7,0.9 3.9,1.7 z"
             id="path129"
             inkscape:connector-curvature="0"
             style="fill:#c1292e" /><path
             class="st15"
             d="m 168.4,230.2 0,0.1 c 0,0.4 0,0.8 -0.1,1.2 -1.2,-0.8 -2.5,-1.4 -3.9,-1.7 -1.3,-0.3 -2.6,-0.2 -3.8,0.2 0,0 -0.1,0 -0.1,0 0,0.1 0,0.2 0.1,0.3 0.1,0.2 0.1,0.5 0.2,0.7 0.4,1 0.9,1.9 1.7,2.6 1,1 2.3,1.8 3.6,2.4 -1.1,1.2 -2.6,2 -4.3,2.4 -0.6,-1.1 -1.1,-2.2 -1.4,-3.3 -0.1,-0.4 -0.2,-0.7 -0.2,-1.1 -0.1,-0.3 -0.1,-0.6 -0.2,-1 -0.1,-0.5 -0.1,-0.9 -0.1,-1.4 0,-0.2 0,-0.5 0,-0.7 0,-0.1 0,-0.1 0,-0.2 0,0 0,0 -0.1,0 -0.1,0 -0.1,0.1 -0.2,0.1 -0.1,0.1 -0.2,0.2 -0.4,0.3 -0.1,0.1 -0.2,0.2 -0.3,0.3 -0.2,0.2 -0.4,0.4 -0.5,0.6 -0.1,0.1 -0.2,0.2 -0.3,0.4 -0.3,0.4 -0.5,0.8 -0.7,1.3 -0.6,1.3 -0.8,2.6 -0.9,4 -1.4,-0.7 -2.7,-1.8 -3.5,-3.2 0.7,-0.8 1.5,-1.6 2.3,-2.2 0.3,-0.2 0.6,-0.4 0.9,-0.6 0.2,-0.1 0.4,-0.3 0.7,-0.4 0.2,-0.1 0.5,-0.3 0.7,-0.4 0.2,-0.1 0.3,-0.1 0.5,-0.2 0.2,-0.1 0.4,-0.1 0.6,-0.2 0.2,-0.1 0.4,-0.1 0.7,-0.2 -1.1,0 -2.2,-0.2 -3.3,-0.5 -0.3,-0.1 -0.6,-0.2 -1,-0.3 -0.2,-0.1 -0.5,-0.2 -0.7,-0.3 -0.2,-0.1 -0.5,-0.2 -0.7,-0.4 -0.4,-0.2 -0.7,-0.4 -1.1,-0.6 -0.1,-0.1 -0.2,-0.1 -0.3,-0.2 0.4,-1.3 1.1,-2.6 2.1,-3.5 0.1,-0.1 0.2,-0.2 0.4,-0.3 0,0.1 0.1,0.3 0.1,0.4 0.4,1.1 1,2.1 1.7,3 0.4,0.5 0.9,1 1.5,1.4 0.5,0.3 1,0.6 1.6,0.8 -0.1,-0.2 -0.1,-0.4 -0.2,-0.7 -0.2,-0.8 -0.4,-1.7 -0.4,-2.6 0,-0.3 0,-0.7 -0.1,-1.1 0,-0.1 0,-0.2 0,-0.3 0.1,-0.9 0.2,-1.9 0.4,-2.9 0.2,0 0.5,0 0.8,0 1.4,0 2.7,0.3 3.9,1 -0.8,0.7 -1.6,1.4 -2.2,2.3 -0.2,0.2 -0.3,0.5 -0.5,0.8 -0.5,0.9 -0.9,2 -0.9,3 0,0.1 0,0.2 0,0.3 0.1,-0.1 0.3,-0.2 0.4,-0.3 0.8,-0.6 1.7,-1.1 2.6,-1.4 0.3,-0.1 0.6,-0.2 1,-0.4 1,-0.3 2.1,-0.5 3.1,-0.6 0.5,0.9 0.8,2.1 0.8,3.3 z"
             id="path131"
             inkscape:connector-curvature="0"
             style="fill:#ffffff" /></g><g
           id="g133"><path
             class="st11"
             d="m 190.6,235.4 c -0.1,0 -0.1,0 -0.2,0.1 l 0,0 c -0.2,0.1 -0.5,0.1 -0.7,0.2 -0.1,0 -0.2,0.1 -0.2,0.1 -0.2,0.1 -0.3,0.1 -0.5,0.2 -0.5,0.2 -1,0.5 -1.4,0.8 -0.3,0.2 -0.6,0.4 -0.9,0.6 -0.8,0.7 -1.6,1.4 -2.3,2.2 -0.7,-1.2 -1.1,-2.7 -1.1,-4.2 0,-0.4 0,-0.8 0.1,-1.2 0,-0.4 0.1,-0.8 0.2,-1.2 0.9,0.6 1.9,1.1 2.8,1.5 0.4,0.1 0.7,0.2 1,0.3 0.1,0 0.2,0.1 0.3,0.1 l 0,0 c 0,0 0,0 0.1,0 0.2,0.1 0.3,0.1 0.5,0.1 0,0 0,0 0.1,0 0.2,0 0.4,0.1 0.6,0.1 0.2,0 0.4,0.1 0.6,0.1 0.1,0 0.3,0 0.4,0 l 0,0 c 0.2,0.2 0.4,0.2 0.6,0.2 z"
             id="path135"
             inkscape:connector-curvature="0"
             style="fill:#c1292e" /><path
             class="st11"
             d="m 190.9,234.8 c -1,-0.4 -1.9,-1 -2.7,-1.8 -0.1,-0.1 -0.3,-0.3 -0.4,-0.4 -0.8,-1 -1.5,-2.2 -1.9,-3.4 0.2,-0.2 0.5,-0.4 0.7,-0.6 1.1,-0.8 2.5,-1.3 3.9,-1.4 -0.1,0.6 -0.2,1.3 -0.3,1.9 -0.1,0.4 -0.1,0.9 -0.1,1.3 0,0.4 0,0.7 0.1,1.1 0,0.6 0.1,1.2 0.3,1.8 0.1,0.6 0.3,1.1 0.4,1.5 z"
             id="path137"
             inkscape:connector-curvature="0"
             style="fill:#c1292e" /><path
             class="st11"
             d="m 193,243.5 c -0.5,0.1 -1.1,0.2 -1.6,0.2 -1.3,0 -2.5,-0.3 -3.6,-0.8 0.1,-1.4 0.3,-2.7 0.9,-4 0.5,-1.2 1.3,-2.2 2.4,-3 0,0 0,0 0.1,-0.1 -0.1,1.1 0,2.2 0.2,3.3 0.1,0.3 0.1,0.7 0.2,1.1 0.4,1.1 0.8,2.2 1.4,3.3 z"
             id="path139"
             inkscape:connector-curvature="0"
             style="fill:#c1292e" /><path
             class="st11"
             d="m 198.8,232 c -1.1,0.1 -2.1,0.3 -3.1,0.6 -0.4,0.1 -0.7,0.3 -1,0.4 -0.6,0.2 -1.2,0.5 -1.8,0.9 -0.4,0.3 -0.8,0.5 -1.2,0.9 0,-0.4 0,-0.7 0.1,-1 0.1,-0.8 0.4,-1.6 0.9,-2.3 0.3,-0.6 0.7,-1.1 1.1,-1.6 0.5,-0.5 1,-1 1.6,-1.5 1,0.5 1.9,1.3 2.6,2.1 0.2,0.4 0.5,0.9 0.8,1.5 z"
             id="path141"
             inkscape:connector-curvature="0"
             style="fill:#c1292e" /><path
             class="st11"
             d="m 199.5,236.7 c 0,0.2 0,0.3 -0.1,0.5 -0.3,1.5 -1.1,2.9 -2.1,4 -1.3,-0.5 -2.6,-1.3 -3.6,-2.4 -0.9,-0.9 -1.5,-1.9 -1.9,-3.1 0,-0.1 0,-0.1 -0.1,-0.2 0,-0.1 0,-0.2 -0.1,-0.2 0,0 0,0 0,0 0,0 0.1,0 0.1,0 1.3,-0.4 2.5,-0.5 3.8,-0.2 1.6,0.2 2.8,0.8 4,1.6 z"
             id="path143"
             inkscape:connector-curvature="0"
             style="fill:#c1292e" /><path
             class="st15"
             d="m 191.7,235.3 c 0,0 0,0 0,0 0,0.1 0,0.2 0.1,0.3 0,0.1 0,0.1 0.1,0.2 0.4,1.2 1,2.2 1.9,3.1 1,1 2.3,1.8 3.6,2.4 -1.1,1.2 -2.6,2 -4.3,2.4 -0.6,-1.1 -1.1,-2.2 -1.4,-3.3 -0.1,-0.4 -0.2,-0.7 -0.2,-1.1 -0.2,-1.1 -0.3,-2.2 -0.2,-3.3 0,0 0,0 -0.1,0 -1.1,0.8 -1.9,1.8 -2.4,3 -0.6,1.3 -0.8,2.6 -0.9,4 -1.4,-0.7 -2.6,-1.8 -3.5,-3.2 0.7,-0.8 1.5,-1.6 2.3,-2.2 0.3,-0.2 0.6,-0.4 0.9,-0.6 0.5,-0.3 0.9,-0.6 1.4,-0.8 0.2,-0.1 0.3,-0.2 0.5,-0.2 0.1,0 0.2,-0.1 0.2,-0.1 0.2,-0.1 0.5,-0.2 0.7,-0.2 l 0,0 c 0.1,0 0.1,0 0.2,-0.1 -0.2,0 -0.4,0 -0.7,0 l 0,0 c -0.1,0 -0.3,0 -0.4,0 -0.2,0 -0.4,0 -0.6,-0.1 -0.2,0 -0.4,-0.1 -0.6,-0.1 0,0 -0.1,0 -0.1,0 -0.2,0 -0.3,-0.1 -0.5,-0.1 0,0 0,0 -0.1,0 l 0,0 c -0.1,0 -0.2,-0.1 -0.3,-0.1 -0.3,-0.1 -0.6,-0.2 -1,-0.3 -0.9,-0.4 -1.9,-0.9 -2.8,-1.5 0.1,-0.2 0.2,-0.5 0.3,-0.7 0.5,-1.2 1.2,-2.3 2.2,-3.1 0.4,1.2 1,2.4 1.9,3.4 0.1,0.1 0.3,0.3 0.4,0.4 0.8,0.8 1.6,1.4 2.7,1.8 -0.2,-0.5 -0.3,-0.9 -0.4,-1.4 -0.1,-0.6 -0.2,-1.2 -0.3,-1.8 0,-0.3 0,-0.7 -0.1,-1.1 0,-0.4 0.1,-0.9 0.1,-1.3 0.1,-0.6 0.2,-1.3 0.3,-1.9 0.2,0 0.5,0 0.8,0 1.4,0 2.7,0.3 3.9,1 -0.6,0.5 -1.1,1 -1.6,1.5 -0.4,0.5 -0.8,1 -1.1,1.6 -0.4,0.7 -0.7,1.5 -0.9,2.3 -0.1,0.3 -0.1,0.7 -0.1,1 0.4,-0.3 0.8,-0.6 1.2,-0.9 0.6,-0.3 1.2,-0.6 1.8,-0.9 0.3,-0.1 0.6,-0.2 1,-0.4 1,-0.3 2.1,-0.5 3.1,-0.6 0.4,0.9 0.7,1.9 0.8,2.9 0,0.2 0,0.4 0,0.6 0,0.4 0,0.8 -0.1,1.2 -1.2,-0.8 -2.5,-1.4 -3.9,-1.7 -1.3,-0.3 -2.6,-0.2 -3.8,0.2 0.1,-0.3 0,-0.2 0,-0.2 z"
             id="path145"
             inkscape:connector-curvature="0"
             style="fill:#ffffff" /></g></g><path
         class="st12"
         d="m 214.3,205.3 c -1.7,-0.4 -3.3,-0.8 -4.9,-1.1 -0.3,-0.1 -0.6,-0.1 -0.9,-0.2 -0.3,-0.1 -0.6,-0.1 -0.9,-0.2 -2,-0.4 -3.8,-0.9 -5.7,-1.3 -0.3,-0.1 -0.6,-0.1 -0.9,-0.2 -0.4,-0.1 -0.9,-0.2 -1.3,-0.3 -0.3,-0.1 -0.7,-0.1 -1,-0.2 -2.4,-0.5 -4.8,-1 -7.1,-1.5 -0.5,-0.1 -1,-0.2 -1.5,-0.3 0,0 -0.1,0 -0.1,0 -0.3,0 -0.5,-0.1 -0.8,-0.1 -1.3,-0.2 -2.6,-0.5 -3.9,-0.7 -0.3,0 -0.5,-0.1 -0.8,-0.1 -0.7,-0.1 -1.4,-0.2 -2.1,-0.3 -0.1,0 -0.1,0 -0.2,0 0,0 -0.1,0 -0.1,0 -0.3,0 -0.6,-0.1 -0.9,-0.1 -0.3,0 -0.7,-0.1 -1.1,-0.1 -0.3,0 -0.6,-0.1 -0.9,-0.1 -0.3,0 -0.6,-0.1 -0.9,-0.1 -0.3,0 -0.6,-0.1 -0.8,-0.1 -0.4,0 -0.8,-0.1 -1.3,-0.1 -0.2,0 -0.3,0 -0.5,0 -0.1,0 -0.3,0 -0.5,0 -0.3,0 -0.7,-0.1 -1,-0.1 0,0 0,0 0,0 -1,-0.1 -2,-0.2 -3.1,-0.2 0,0 -0.1,0 -0.1,0 -0.2,0 -0.4,0 -0.6,0 -0.2,0 -0.5,0 -0.7,0 -0.1,0 -0.3,0 -0.4,0 -0.4,0 -0.8,0 -1.2,-0.1 -0.1,0 -0.2,0 -0.3,0 -0.4,0 -0.9,0 -1.3,0 0,0 -0.1,0 -0.1,0 -0.3,0 -0.7,0 -1.1,0 -0.1,0 -0.3,0 -0.4,0 -0.5,0 -0.9,0 -1.4,0 l -0.3,0 c -5.4,-0.1 -11.1,0.2 -17.4,0.8 -1.5,0.1 -3,0.3 -4.5,0.5 -1.5,0.2 -1.7,-13.7 0.7,-13.8 8.1,-0.3 14.8,-0.5 21,-0.4 4.1,0.1 8,0.3 11.8,0.6 0.2,0 0.3,0 0.5,0 0,0 0.1,0 0.1,0 2.6,0.2 5.2,0.5 7.8,0.9 0.3,0 0.6,0.1 1,0.1 0.2,0 0.4,0.1 0.6,0.1 3.7,0.6 7.5,1.3 11.6,2.2 5.9,1.3 12.4,3 20.1,5.1 1.8,-0.1 0.1,11.9 -2.2,11.4 z"
         id="path147"
         inkscape:connector-curvature="0"
         style="fill:#066938" /><g
         id="g149"><path
           class="st11"
           d="m 188.1,215 c -0.1,1 -0.9,1.5 -1.8,1.1 -1.4,-0.7 -2.7,-1.4 -3.9,-2.3 -0.4,-0.3 -0.8,-0.7 -1.3,-1.1 -0.3,-0.2 -0.6,-0.4 -0.9,-0.7 -0.3,0.4 -0.5,0.7 -0.7,1 -0.3,0.5 -0.6,1 -1,1.5 -0.2,0.2 -0.4,0.5 -0.6,0.7 -0.7,0.6 -1.6,0.2 -1.8,-0.6 -0.1,-0.4 -0.1,-0.8 -0.1,-1.2 0.2,-3.2 0.5,-6.4 0.8,-9.6 0.2,-1.9 0.5,-3.8 0.8,-5.7 0,-0.2 0,-0.3 0.1,-0.5 0.3,-1.7 0.6,-3.5 0.9,-5.2 0.1,-0.8 0.4,-1 1,-1.1 0.7,0 1.1,0.3 1.3,1 0.4,1.4 0.7,2.8 1.1,4.2 0.2,0.7 0.4,1.5 0.6,2.2 0.6,2.2 1.2,4.3 2.2,6.3 1.1,2.3 2,4.6 2.8,7.1 0.2,0.7 0.4,1.5 0.5,2.2 0,0.2 0,0.5 0,0.7 z"
           id="path151"
           inkscape:connector-curvature="0"
           style="fill:#c1292e" /><path
           class="st11"
           d="m 163.2,183.6 c 0.2,-2.5 0.6,-5.1 1.4,-7.5 0.3,-0.9 0.7,-1.7 1.3,-2.4 1.1,-1.3 2.3,-1.5 3.7,-0.6 0.7,0.5 1.4,1.1 2,1.7 1.7,1.8 3,3.9 3.8,6.2 0.3,0.8 0.3,1.5 0.1,2.3 -0.4,1.2 -0.7,2.5 -1.1,3.7 -0.2,0.5 -0.5,1 -0.8,1.5 -0.1,0.1 -0.2,0.2 -0.2,0.3 -0.6,1.2 -1.6,1.7 -2.7,2 -1,0.3 -2.1,0.5 -3.1,0.6 -0.8,0.1 -1.6,-0.1 -2.4,-0.4 -1.1,-0.4 -1.8,-1.2 -1.9,-2.3 -0.1,-0.9 -0.1,-1.8 -0.1,-2.7 -0.2,-0.8 -0.1,-1.6 0,-2.4 z m 5.3,-7.4 c -0.6,-0.1 -1,0.2 -1.2,0.6 -0.2,0.4 -0.1,0.9 0.2,1.2 0.1,0.1 0.3,0.2 0.5,0.3 1.7,1 3.1,2.3 3.9,4.2 0.2,0.6 0.9,0.8 1.4,0.6 0.5,-0.2 0.8,-0.7 0.6,-1.3 -0.1,-0.4 -0.3,-0.9 -0.6,-1.3 -1,-1.8 -2.5,-3.1 -4.3,-4.2 -0.2,0 -0.4,-0.1 -0.5,-0.1 z"
           id="path153"
           inkscape:connector-curvature="0"
           style="fill:#c1292e" /><path
           class="st11"
           d="m 196.7,185.8 c -0.1,0.8 -0.2,2 -0.3,3.1 0,0.1 0,0.2 -0.1,0.3 -0.3,1 -0.5,2 -0.8,3 -0.3,1.1 -1.5,1.7 -2.5,1.7 -1,0 -2.1,-0.2 -3,-0.7 -1,-0.5 -1.9,-1.2 -2.9,-1.7 -0.3,-0.2 -0.7,-0.4 -1,-0.6 -0.8,-0.4 -1.2,-1 -1.3,-1.9 0,-0.4 0,-0.9 0,-1.3 0.1,-1.1 0.1,-2.3 -0.1,-3.4 -0.2,-0.9 0.1,-1.6 0.7,-2.2 2.3,-2.2 4.8,-4.2 7.4,-6 0.6,-0.4 1.3,-0.6 2,-0.6 0.8,0 1.4,0.4 1.6,1.2 0.1,0.4 0.2,0.7 0.2,1.1 0.1,1.3 0.2,2.6 0.2,3.9 0.1,1.3 0,2.6 -0.1,4.1 z m -3.5,6.1 c 0.4,0.1 0.9,-0.3 1,-0.9 0.1,-0.6 -0.2,-1.1 -0.8,-1.3 -0.5,-0.1 -1,-0.2 -1.4,-0.3 -1.6,-0.4 -3.1,-0.8 -4.3,-2 -0.4,-0.4 -1.1,-0.3 -1.5,0.1 -0.4,0.4 -0.5,1 -0.1,1.5 0.3,0.4 0.7,0.7 1.1,0.9 1.8,1.1 3.8,1.5 6,2 z"
           id="path155"
           inkscape:connector-curvature="0"
           style="fill:#c1292e" /><path
           class="st11"
           d="m 177.2,191.3 c 0,0.7 -0.1,1.5 -0.3,2.2 -0.3,1.5 -0.7,3 -1.1,4.4 -0.2,0.8 -0.4,1.7 -0.6,2.5 -0.5,2.1 -1,4.1 -1.6,6.2 0,0 0,0 0,0 -0.3,1.4 -0.7,2.8 -1,4.2 -0.1,0.5 -0.3,1 -0.4,1.5 0,0.1 -0.1,0.3 -0.2,0.4 -0.2,0.4 -0.5,0.6 -0.9,0.6 -0.5,0 -0.8,-0.2 -1,-0.6 -0.3,-0.8 -0.6,-1.6 -1,-2.4 -0.2,-0.6 -0.5,-1.2 -0.8,-1.9 -0.6,0.3 -1.1,0.5 -1.7,0.7 -0.4,0.2 -0.8,0.4 -1.3,0.5 -0.4,0.1 -0.7,0.2 -1.1,0.1 -0.6,0 -0.9,-0.5 -0.8,-1.1 0,-0.2 0.1,-0.4 0.2,-0.6 0.1,-0.2 0.2,-0.4 0.3,-0.5 2.4,-3.2 4.5,-6.7 6.7,-10.1 0.2,-0.3 0.4,-0.6 0.6,-0.9 0.8,-1.3 1.5,-2.7 2.3,-4 0.4,-0.7 0.8,-1.4 1.2,-2 0.4,-0.6 0.8,-0.7 1.3,-0.5 0.8,0.2 1.2,0.6 1.2,1.3 z"
           id="path157"
           inkscape:connector-curvature="0"
           style="fill:#c1292e" /><path
           class="st11"
           d="m 175.4,186.1 c 0.1,-0.7 0.2,-1.3 0.3,-1.9 0.2,-0.9 0.7,-1.7 1.4,-2.3 0.5,-0.4 1.1,-0.6 1.7,-0.6 1.2,0 2.4,0.3 3.5,0.7 0.9,0.3 1.4,1 1.7,1.9 0.4,1.4 0.4,2.8 -0.1,4.1 -0.3,0.7 -0.8,1.1 -1.4,1.5 -1.4,0.7 -2.8,0.5 -4.2,0.3 -0.7,-0.1 -1.4,-0.4 -2.1,-0.7 -0.7,-0.2 -1,-0.8 -0.9,-1.5 0,-0.6 0.1,-1.1 0.1,-1.5 z"
           id="path159"
           inkscape:connector-curvature="0"
           style="fill:#c1292e" /><path
           class="st18"
           d="m 168.5,176.2 c 0.1,0 0.3,0.1 0.5,0.2 1.8,1 3.3,2.4 4.3,4.2 0.2,0.4 0.4,0.8 0.6,1.3 0.2,0.6 -0.1,1.1 -0.6,1.3 -0.6,0.2 -1.2,0 -1.4,-0.6 -0.8,-1.9 -2.1,-3.2 -3.9,-4.2 -0.2,-0.1 -0.3,-0.2 -0.5,-0.3 -0.3,-0.3 -0.4,-0.8 -0.2,-1.2 0.2,-0.5 0.6,-0.8 1.2,-0.7 z"
           id="path161"
           inkscape:connector-curvature="0"
           style="fill:#d85a62" /><path
           class="st18"
           d="m 193.2,191.9 c -2.2,-0.4 -4.2,-0.8 -5.9,-2 -0.4,-0.3 -0.8,-0.6 -1.1,-0.9 -0.4,-0.4 -0.3,-1.1 0.1,-1.5 0.4,-0.4 1,-0.5 1.5,-0.1 1.2,1.1 2.7,1.6 4.3,2 0.5,0.1 1,0.2 1.4,0.3 0.6,0.2 0.9,0.7 0.8,1.3 -0.2,0.6 -0.7,0.9 -1.1,0.9 z"
           id="path163"
           inkscape:connector-curvature="0"
           style="fill:#d85a62" /></g></g><g
       id="g165"><g
         id="g167"><path
           class="st19"
           d="m 375.3,222.5 c -0.3,0 -1,0.1 -1.9,0.1 -1.2,0.1 -2.9,0.2 -5,0.4 -2.1,0.1 -4.5,0.3 -7.2,0.5 -1.7,0.1 -3.5,0.2 -5.4,0.4 -2.4,0.2 -5,0.3 -7.5,0.5 -1.8,0.1 -3.6,0.2 -5.4,0.4 -2.3,0.2 -4.6,0.3 -6.9,0.5 -1.8,0.1 -3.6,0.2 -5.4,0.4 -2.2,0.1 -4.3,0.3 -6.2,0.4 -1.9,0.1 -3.7,0.3 -5.4,0.4 -1.9,0.1 -3.6,0.2 -4.9,0.3 -1.3,0.1 -2.3,0.2 -3,0.2 -1.9,0 -4.7,-9.8 3.4,-9.9 9.5,-0.1 40.5,-2.2 58.2,-4.1 5.6,-0.2 7.2,9.1 2.6,9.5 z"
           id="path169"
           inkscape:connector-curvature="0"
           style="fill:#d48b4f" /><g
           id="g171"><path
             class="st20"
             d="m 374.6,252.6 c 0,0 0,0 0,0 -0.9,-8.6 -1,-23.4 -1.2,-30 -1.2,0.1 -2.9,0.2 -5,0.4 l 0,0 c 0,0 0,0 0,0 -2.1,0.1 -4.5,0.3 -7.2,0.5 -1.7,0.1 -3.5,0.2 -5.4,0.4 -2.4,0.2 -5,0.3 -7.5,0.5 0,0 0,0 0,0 l 0,0 c -1.8,0.1 -3.6,0.2 -5.3,0.4 l 0,0 c -2.3,0.2 -4.6,0.3 -6.9,0.5 -1.8,0.1 -3.6,0.2 -5.4,0.4 -2.2,0.1 -4.3,0.3 -6.2,0.4 -1.9,0.1 -3.7,0.3 -5.4,0.4 -1.9,0.1 -3.6,0.2 -4.9,0.3 -0.3,2.3 -0.6,15.3 -0.7,22.9 0,1.7 0,3.1 0,4.1 0,0.7 0,1.2 0,1.4 1.9,-0.1 3.8,-0.1 5.7,-0.2 0.7,0 4.6,0.1 5.4,0 0.1,-0.1 4.5,-0.4 4.9,-0.4 0.3,0 0.5,0 0.8,0 0.5,0 1.1,0 1.6,-0.1 1.8,-0.1 3.6,-0.1 5.4,-0.2 0.1,0 0.2,0 0.3,0 2.3,-0.1 4.5,-0.2 6.6,-0.3 1.6,-0.1 3.1,-0.1 4.6,-0.2 0.3,0 0.5,0 0.8,0 l 0,0 c 0,0 0,0 0,0 2.7,-0.1 5.2,-0.2 7.5,-0.3 1.9,-0.1 3.7,-0.2 5.4,-0.2 2.8,-0.1 5.2,-0.2 7.2,-0.3 l 0,0 c 1.7,-0.1 3,-0.2 4,-0.2 0.3,-0.1 0.7,-0.2 0.9,-0.2 0,0 0,0 0,0 z"
             id="path173"
             inkscape:connector-curvature="0"
             style="fill:#eaa35c" /><g
             id="g175"><path
               class="st12"
               d="m 337.2,253.3 -1,-28 c -1.8,0.1 -3.6,0.2 -5.4,0.4 l 0.8,22.6 0,0.3 0.2,4.7 0,1.2 c 1.8,-0.1 3.6,-0.1 5.4,-0.2 l 0,-1 0,0 z"
               id="path177"
               inkscape:connector-curvature="0"
               style="fill:#066938" /><path
               class="st12"
               d="m 361.3,223.5 c -1.7,0.1 -3.5,0.2 -5.3,0.4 l 1.1,29.6 c 1.9,-0.1 3.7,-0.2 5.4,-0.2 l -1.2,-29.8 z"
               id="path179"
               inkscape:connector-curvature="0"
               style="fill:#066938" /></g><g
             id="g181"><path
               class="st11"
               d="m 319.2,255 c 0.7,0 4.6,0.1 5.4,0 l 0,-29 c -1.9,0.1 -3.7,0.3 -5.4,0.4 l 0,28.6 z"
               id="path183"
               inkscape:connector-curvature="0"
               style="fill:#c1292e" /><path
               class="st11"
               d="m 343.1,224.8 1.1,29.2 c 1.8,-0.1 3.6,-0.1 5.4,-0.2 l -1.1,-29.4 c -1.9,0.1 -3.7,0.2 -5.4,0.4 z"
               id="path185"
               inkscape:connector-curvature="0"
               style="fill:#c1292e" /><path
               class="st11"
               d="m 373.5,222.7 c -1.2,0.1 -2.9,0.2 -5,0.4 l 1.1,29.9 c 2.5,-0.1 4.2,-0.2 5.1,-0.3 -0.9,-8.7 -1.1,-23.5 -1.2,-30 z"
               id="path187"
               inkscape:connector-curvature="0"
               style="fill:#c1292e" /></g></g></g><g
         id="g189"><g
           id="g191"><path
             class="st11"
             d="m 324.6,256.9 c 1.1,0.1 2.2,0.1 3.3,-0.1 -1,0.5 -1.9,1.2 -2.8,2 -0.2,0.2 -0.5,0.5 -0.8,0.8 -0.7,0.8 -1.3,1.7 -1.9,2.6 -0.9,-1.1 -1.6,-2.4 -1.9,-3.9 -0.2,-0.8 -0.2,-1.6 -0.1,-2.4 1,0.4 2,0.7 3,0.9 0.5,0 0.9,0.1 1.2,0.1 z"
             id="path193"
             inkscape:connector-curvature="0"
             style="fill:#c1292e" /><path
             class="st11"
             d="m 327.6,255.1 c -0.3,-0.6 -0.6,-1.3 -0.7,-2 -0.1,-0.3 -0.2,-0.7 -0.3,-1 -0.2,-1 -0.2,-2.1 -0.2,-3.2 -0.8,0.2 -1.5,0.6 -2.2,1 -0.1,0.1 -0.3,0.2 -0.4,0.3 -0.6,0.4 -1.1,1 -1.6,1.6 0.3,0.6 0.7,1.1 1.2,1.7 0.1,0.2 0.3,0.3 0.4,0.5 0.3,0.3 0.6,0.6 0.9,0.8 0.3,0.2 0.6,0.4 0.9,0.6 0.8,0.5 1.6,0.8 2.5,0.9 -0.2,-0.5 -0.4,-0.8 -0.5,-1.2 z"
             id="path195"
             inkscape:connector-curvature="0"
             style="fill:#c1292e" /><path
             class="st11"
             d="m 331.9,264.2 c -0.5,0.2 -1,0.4 -1.6,0.5 -1.3,0.3 -2.5,0.2 -3.7,-0.1 -0.2,-1.4 -0.2,-2.7 0.1,-4.1 0.3,-1.3 0.9,-2.4 1.8,-3.4 0,0 0,0 0.1,-0.1 0.1,1.1 0.4,2.2 0.9,3.2 0.1,0.3 0.3,0.6 0.4,1 0.5,1.1 1.2,2.1 2,3 z"
             id="path197"
             inkscape:connector-curvature="0"
             style="fill:#c1292e" /><path
             class="st11"
             d="m 335.3,251.7 c -1,0.3 -2,0.7 -3,1.2 -0.3,0.2 -0.6,0.4 -0.9,0.6 -1,0.6 -1.9,1.4 -2.6,2.3 -0.2,-1.2 -0.1,-2.3 0.3,-3.5 0.4,-1.3 1.1,-2.5 2,-3.5 1.6,0.5 3.1,1.5 4.2,2.9 z"
             id="path199"
             inkscape:connector-curvature="0"
             style="fill:#c1292e" /><path
             class="st11"
             d="m 336.9,256.3 c 0.1,1.7 -0.4,3.4 -1.3,4.8 -1.4,-0.3 -2.8,-0.8 -4,-1.6 -1.1,-0.7 -1.9,-1.7 -2.5,-2.9 0,-0.1 -0.1,-0.2 -0.1,-0.2 l 0,0 c 0,0 0.1,0 0.1,-0.1 1.2,-0.6 2.4,-1 3.7,-0.9 1.4,0 2.8,0.3 4.1,0.9 z"
             id="path201"
             inkscape:connector-curvature="0"
             style="fill:#c1292e" /><path
             class="st15"
             d="m 329.1,256.6 c 0,-0.1 -0.1,-0.2 -0.1,-0.2 0,0 0.1,0 0.1,-0.1 1.2,-0.6 2.4,-1 3.7,-0.9 1.4,0 2.8,0.3 4.1,0.9 0,-0.4 -0.1,-0.8 -0.2,-1.2 0,-0.1 0,-0.2 -0.1,-0.3 -0.1,-0.4 -0.2,-0.7 -0.3,-1 l 0,0 c -0.3,-0.7 -0.6,-1.4 -1.1,-2 -1,0.3 -2,0.7 -3,1.2 -0.3,0.2 -0.6,0.4 -0.9,0.6 -0.1,0.1 -0.3,0.2 -0.4,0.3 -0.1,0.1 -0.3,0.2 -0.4,0.3 0,0 -0.1,0 -0.1,0.1 -0.2,0.1 -0.4,0.3 -0.5,0.4 -0.2,0.1 -0.3,0.3 -0.5,0.5 0,0 0,0 0,0 -0.1,0.1 -0.1,0.1 -0.2,0.2 0,0 0,0 0,0 -0.2,0.2 -0.3,0.3 -0.5,0.5 0,-0.1 0,-0.3 -0.1,-0.4 l 0,0 c 0,-0.1 0,-0.1 0,-0.2 0,0 0,0 0,-0.1 0,-0.5 0,-1.1 0.1,-1.6 0.1,-0.4 0.2,-0.8 0.3,-1.2 0.1,-0.2 0.2,-0.5 0.3,-0.7 0.1,-0.2 0.2,-0.5 0.3,-0.7 0.1,-0.1 0.2,-0.3 0.2,-0.4 0,0 0,-0.1 0.1,-0.1 0.1,-0.2 0.2,-0.4 0.4,-0.6 0.1,-0.1 0.1,-0.2 0.2,-0.3 0.1,-0.1 0.2,-0.2 0.3,-0.4 0.1,-0.1 0.1,-0.2 0.2,-0.3 -0.1,0 -0.1,0 -0.2,-0.1 -1.2,-0.3 -2.5,-0.4 -3.8,-0.1 -0.3,0 -0.5,0.1 -0.7,0.2 0,1.1 0.1,2.2 0.2,3.2 0.1,0.4 0.2,0.7 0.3,1 0.2,0.7 0.4,1.4 0.7,2 0.2,0.3 0.3,0.7 0.5,1 -0.9,-0.2 -1.8,-0.5 -2.5,-0.9 -0.3,-0.2 -0.6,-0.4 -0.9,-0.6 -0.3,-0.3 -0.6,-0.5 -0.9,-0.8 -0.1,-0.1 -0.3,-0.3 -0.4,-0.5 -0.4,-0.5 -0.8,-1.1 -1.2,-1.7 -0.6,0.7 -1,1.6 -1.3,2.5 -0.1,0.4 -0.2,0.8 -0.3,1.2 0,0.2 0,0.3 -0.1,0.5 1,0.4 2,0.7 3,0.9 0.4,0 0.7,0.1 1.1,0.1 1.1,0.1 2.2,0.1 3.3,-0.1 -1,0.5 -1.9,1.2 -2.8,2 -0.2,0.2 -0.5,0.5 -0.8,0.8 -0.7,0.8 -1.3,1.7 -1.9,2.6 1.1,1.2 2.5,2.1 4,2.5 -0.2,-1.3 -0.2,-2.7 0.1,-4.1 0.3,-1.3 0.9,-2.4 1.8,-3.4 0,0 0,0 0.1,-0.1 0.1,1.1 0.4,2.2 0.9,3.2 0.1,0.3 0.3,0.6 0.4,1 0.6,1 1.3,2 2,3 1.6,-0.7 2.9,-1.8 3.7,-3.1 -1.4,-0.3 -2.8,-0.8 -4,-1.6 -0.8,-0.7 -1.6,-1.7 -2.2,-2.9 z"
             id="path203"
             inkscape:connector-curvature="0"
             style="fill:#ffffff" /></g><g
           id="g205"><path
             class="st11"
             d="m 356.2,255.9 c 1.1,0.1 2.2,0.1 3.3,-0.1 -1,0.5 -1.9,1.2 -2.8,2 -0.2,0.2 -0.5,0.5 -0.8,0.8 -0.7,0.8 -1.3,1.7 -1.9,2.6 -0.9,-1.1 -1.6,-2.4 -1.9,-3.9 -0.2,-0.8 -0.2,-1.6 -0.1,-2.4 1,0.4 2,0.7 3,0.9 0.5,0 0.9,0 1.2,0.1 z"
             id="path207"
             inkscape:connector-curvature="0"
             style="fill:#c1292e" /><path
             class="st11"
             d="m 356.3,253.5 c -1,-0.8 -1.8,-1.8 -2.5,-2.9 1,-1.3 2.5,-2.4 4.2,-2.9 0,1.1 0.1,2.2 0.2,3.2 0.1,0.4 0.2,0.7 0.3,1 0.3,1.1 0.7,2.1 1.3,3 -1.4,0 -2.5,-0.6 -3.5,-1.4 z"
             id="path209"
             inkscape:connector-curvature="0"
             style="fill:#c1292e" /><path
             class="st11"
             d="m 363.5,263.2 c -0.5,0.2 -1,0.4 -1.6,0.5 -1.3,0.3 -2.5,0.2 -3.7,-0.1 -0.2,-1.4 -0.2,-2.7 0.1,-4.1 0.3,-1.3 0.9,-2.4 1.8,-3.4 0,0 0,0 0.1,-0.1 0.1,1.1 0.4,2.2 0.9,3.2 0.1,0.3 0.3,0.6 0.4,1 0.5,1 1.2,2 2,3 z"
             id="path211"
             inkscape:connector-curvature="0"
             style="fill:#c1292e" /><path
             class="st11"
             d="m 366.9,250.7 c -1,0.3 -2,0.7 -3,1.2 -0.3,0.2 -0.6,0.4 -0.9,0.6 -1,0.6 -1.9,1.4 -2.6,2.3 -0.2,-1.2 -0.1,-2.3 0.3,-3.5 0.4,-1.3 1.1,-2.5 2,-3.5 1.6,0.4 3.1,1.5 4.2,2.9 z"
             id="path213"
             inkscape:connector-curvature="0"
             style="fill:#c1292e" /><path
             class="st11"
             d="m 368.5,255.2 c 0.1,1.7 -0.4,3.4 -1.3,4.8 -1.4,-0.3 -2.8,-0.8 -4,-1.6 -1.1,-0.7 -1.9,-1.7 -2.5,-2.9 0,-0.1 -0.1,-0.2 -0.1,-0.2 0,0 0,0 0,0 0,0 0.1,0 0.1,-0.1 1.2,-0.6 2.4,-1 3.7,-0.9 1.4,0.1 2.8,0.4 4.1,0.9 z"
             id="path215"
             inkscape:connector-curvature="0"
             style="fill:#c1292e" /><path
             class="st15"
             d="m 360.7,255.3 c 0,0 -0.1,0 -0.1,0.1 0,0 0,0 0,0 0,0.1 0.1,0.2 0.1,0.2 0.6,1.2 1.4,2.1 2.5,2.9 1.2,0.8 2.6,1.3 4,1.6 -0.9,1.4 -2.2,2.5 -3.7,3.1 -0.8,-1 -1.5,-2 -2,-3 -0.2,-0.4 -0.3,-0.7 -0.4,-1 -0.4,-1 -0.7,-2.1 -0.9,-3.2 0,0 0,0 -0.1,0.1 -0.9,1 -1.5,2.1 -1.8,3.4 -0.3,1.4 -0.3,2.7 -0.1,4.1 -1.6,-0.4 -3,-1.3 -4,-2.5 l 0,0 c 0.6,-0.9 1.2,-1.8 1.9,-2.6 0.3,-0.3 0.5,-0.5 0.8,-0.8 0.8,-0.8 1.7,-1.5 2.8,-2 -1.1,0.2 -2.2,0.3 -3.3,0.1 -0.3,0 -0.7,-0.1 -1.1,-0.1 -1,-0.2 -2,-0.5 -3,-0.9 0.1,-1.6 0.7,-3.1 1.7,-4.3 0.7,1.1 1.5,2.1 2.5,2.9 1,0.8 2.2,1.3 3.4,1.5 -0.6,-0.9 -1,-2 -1.3,-3 -0.1,-0.3 -0.2,-0.7 -0.3,-1 -0.2,-1 -0.2,-2.1 -0.2,-3.2 0.2,-0.1 0.5,-0.1 0.7,-0.2 1.4,-0.3 2.7,-0.2 4,0.2 -0.9,1 -1.6,2.2 -2,3.5 -0.4,1.1 -0.5,2.3 -0.3,3.5 0.8,-0.9 1.6,-1.7 2.6,-2.3 0.3,-0.2 0.6,-0.4 0.9,-0.6 0.9,-0.5 1.9,-0.9 3,-1.2 0.7,0.9 1.2,2.1 1.5,3.3 0.1,0.4 0.1,0.8 0.2,1.2 -1.3,-0.6 -2.7,-0.9 -4.1,-0.9 -1.5,0.1 -2.8,0.4 -3.9,1.1 z"
             id="path217"
             inkscape:connector-curvature="0"
             style="fill:#ffffff" /></g></g><g
         id="g219"><g
           id="g221"><path
             class="st21"
             d="m 340.6,191.9 c -0.2,0 -0.3,0 -0.5,0.1 -0.4,0.1 -0.9,0.2 -1.3,0.4 -0.1,-0.1 -0.1,-0.2 -0.2,-0.3 -0.5,-0.7 -1.2,-1.3 -1.9,-1.8 -0.1,-0.1 -0.2,-0.3 -0.3,-0.4 -0.5,-0.5 -1.1,-0.9 -1.7,-1.3 -0.9,-0.5 -1.7,-1 -2.6,-1.5 -0.3,-0.1 -0.5,-0.3 -0.8,-0.5 -0.3,-0.2 -0.5,-0.4 -0.8,-0.5 -0.4,-0.3 -0.8,-0.6 -0.9,-1.1 -0.1,-0.4 0,-0.6 0.3,-0.8 0.2,-0.1 0.4,-0.2 0.7,-0.2 0.3,0 0.6,0 0.8,-0.1 0,0 0,0 0,-0.1 -0.1,-0.1 -0.2,-0.2 -0.2,-0.3 -1,-0.9 -1.7,-2 -2.4,-3.1 -0.9,-1.5 -1.4,-3.1 -1.6,-4.9 0,-0.4 -0.1,-0.8 -0.1,-1.2 0,-0.1 0,-0.3 0,-0.4 0.1,-0.5 0.6,-0.8 1.1,-0.5 0.3,0.1 0.5,0.4 0.7,0.7 0.3,0.6 0.7,1.2 1,1.7 0.1,0.2 0.2,0.5 0.4,0.7 0.1,0.2 0.2,0.3 0.4,0.6 0.1,-0.1 0.2,-0.2 0.2,-0.3 0.1,-0.3 0.3,-0.5 0.4,-0.8 0.3,-0.4 0.5,-0.9 0.8,-1.3 0.1,-0.2 0.3,-0.3 0.4,-0.5 0.5,-0.5 1.1,-0.4 1.4,0.2 0.3,0.6 0.3,1.2 0.3,1.8 -0.1,0.8 -0.2,1.6 -0.5,2.4 -0.1,0.4 -0.2,0.7 -0.3,1.1 -0.1,0.3 0,0.6 0.1,0.8 0.1,0.3 0.3,0.6 0.5,0.9 0.6,0.8 1,1.7 1.5,2.6 0.1,0.3 0.3,0.5 0.4,0.8 0.1,0.1 0.2,0.3 0.3,0.4 0.2,-0.1 0.3,-0.3 0.3,-0.4 0.1,-0.4 0.3,-0.8 0.4,-1.3 0.1,-0.6 0.3,-1.3 0.6,-1.9 0.1,-0.2 0.2,-0.5 0.4,-0.7 0.5,-0.6 1.2,-0.5 1.6,0.1 0.2,0.4 0.3,0.8 0.4,1.2 0.1,0.6 0,1.2 -0.1,1.9 -0.2,0.7 -0.3,1.4 -0.6,2.1 -0.3,0.9 -0.3,1.8 0,2.7 0.3,0.8 0.6,1.5 1,2.2 0.1,0.2 0.3,0.5 0.4,0.8 z"
             id="path223"
             inkscape:connector-curvature="0"
             style="fill:#412413" /><path
             class="st21"
             d="m 355.8,174.3 c 0,0.4 -0.1,0.8 -0.1,1.2 -0.2,1.7 -0.7,3.4 -1.6,4.9 -0.7,1.1 -1.4,2.2 -2.4,3.1 -0.1,0.1 -0.2,0.2 -0.2,0.3 0,0 0,0 0,0 0.3,0 0.6,0 0.8,0.1 0.2,0 0.5,0.1 0.7,0.2 0.3,0.2 0.4,0.4 0.3,0.8 -0.1,0.5 -0.5,0.9 -0.9,1.2 -0.3,0.2 -0.5,0.4 -0.8,0.5 -0.3,0.2 -0.5,0.3 -0.8,0.5 -0.9,0.5 -1.7,1 -2.6,1.5 -0.6,0.4 -1.2,0.8 -1.7,1.3 -0.1,0.1 -0.2,0.2 -0.3,0.4 -0.7,0.5 -1.4,1.1 -1.9,1.8 -0.1,0.1 -0.2,0.3 -0.2,0.4 -0.5,-0.2 -1.1,-0.4 -1.7,-0.5 0.1,-0.3 0.3,-0.6 0.5,-1 0.4,-0.7 0.7,-1.5 1,-2.2 0.3,-0.9 0.3,-1.8 0,-2.7 -0.2,-0.7 -0.4,-1.4 -0.6,-2.1 -0.1,-0.6 -0.2,-1.2 -0.1,-1.8 0,-0.4 0.2,-0.8 0.4,-1.2 0.4,-0.6 1.1,-0.7 1.6,-0.1 0.2,0.2 0.3,0.5 0.4,0.7 0.3,0.6 0.4,1.2 0.6,1.9 0.1,0.4 0.2,0.8 0.4,1.3 0.1,0.2 0.1,0.3 0.3,0.4 0.1,-0.1 0.2,-0.3 0.3,-0.4 0.1,-0.2 0.3,-0.5 0.4,-0.8 0.4,-0.9 0.9,-1.8 1.5,-2.6 0.2,-0.3 0.3,-0.6 0.5,-0.9 0.1,-0.3 0.1,-0.5 0.1,-0.8 -0.1,-0.4 -0.2,-0.7 -0.3,-1.1 -0.2,-0.8 -0.4,-1.6 -0.5,-2.4 -0.1,-0.6 0,-1.2 0.3,-1.8 0.3,-0.6 0.9,-0.7 1.4,-0.2 0.1,0.2 0.3,0.3 0.4,0.5 0.3,0.4 0.5,0.9 0.8,1.3 0.1,0.3 0.3,0.5 0.4,0.8 0.1,0.1 0.1,0.2 0.2,0.3 0.1,-0.2 0.3,-0.4 0.4,-0.6 0.1,-0.2 0.2,-0.5 0.4,-0.7 0.3,-0.6 0.7,-1.2 1,-1.7 0.2,-0.3 0.4,-0.5 0.7,-0.7 0.5,-0.2 1,0 1.1,0.5 -0.2,0.1 -0.2,0.2 -0.2,0.4 z"
             id="path225"
             inkscape:connector-curvature="0"
             style="fill:#412413" /></g><path
           class="st22"
           d="m 353.9,224.2 c 0,0.1 -0.1,0.2 -0.1,0.4 0,0 -0.1,0 -0.1,-0.1 -1.3,-0.6 -4.3,-1.4 -5.7,-1.6 0.1,-0.4 0.2,-0.7 0.2,-1.1 0.1,-0.5 0.2,-1.1 0.2,-1.7 -0.1,-0.9 -0.5,-1.7 -1,-2.4 -0.3,-0.4 -0.6,-0.9 -0.9,-1.4 -0.3,0.1 -0.6,0.2 -1,0.3 -0.8,0.2 -1.5,0.4 -2.3,0.4 -0.7,0 -1.4,0 -2.2,0 -0.5,0 -1,-0.1 -1.5,-0.3 0,0 0,0 0,0 -0.3,0.6 -0.7,1.2 -1.1,1.7 -0.5,0.7 -0.9,1.5 -1,2.4 -0.1,0.6 0,1.1 0.2,1.7 0,0 0,0.1 0,0.1 -1.2,0.1 -4.5,1 -5.9,1.6 -0.4,-1.6 -0.4,-3.2 0.1,-4.7 0.4,-1.4 0.9,-2.7 1.6,-3.9 0.5,-0.8 1.1,-1.5 1.9,-1.9 0,0 0.1,0 0.1,0 -0.1,-0.1 -0.1,-0.1 -0.2,-0.2 -0.9,-1.2 -1.3,-2.6 -1.3,-4 0,-0.6 0.1,-1.1 0.2,-1.7 0.2,-1.2 0.5,-2.4 0.7,-3.6 0.2,-1.2 0.2,-2.4 0.1,-3.6 -0.1,-0.9 -0.3,-1.8 -0.1,-2.8 0.1,-0.8 0.4,-1.6 0.7,-2.3 -0.2,-0.1 -0.3,-0.2 -0.5,-0.3 -1.1,-0.8 -2,-1.7 -2.7,-2.9 -0.5,-1 -0.8,-2 -0.9,-3.1 0,-0.2 0,-0.4 0,-0.5 0,-0.5 0.4,-0.7 0.9,-0.5 0.4,0.2 0.8,0.3 1.2,0.5 0.7,0.3 1.4,0.6 2.1,0.9 0.4,0.2 0.7,0.4 1.1,0.6 0.7,0.5 1.4,1.1 1.9,1.8 0.1,0.1 0.1,0.2 0.2,0.3 0.4,-0.2 0.8,-0.3 1.3,-0.4 0.2,0 0.3,-0.1 0.5,-0.1 0.6,-0.1 1.2,-0.1 1.7,0 0.6,0.1 1.1,0.3 1.7,0.5 0.1,-0.1 0.2,-0.3 0.2,-0.4 0.5,-0.7 1.2,-1.4 1.9,-1.8 0.3,-0.2 0.7,-0.4 1.1,-0.6 0.7,-0.3 1.4,-0.6 2.1,-1 0.4,-0.2 0.8,-0.3 1.2,-0.5 0.5,-0.2 0.8,0 0.9,0.5 0,0.2 0,0.4 0,0.6 -0.1,1.1 -0.4,2.1 -0.9,3.1 -0.7,1.2 -1.6,2.1 -2.7,2.9 -0.1,0.1 -0.3,0.2 -0.4,0.2 0.1,0.2 0.2,0.4 0.3,0.6 0.3,0.5 0.4,1.1 0.4,1.7 0.1,0.7 0.2,2 0.2,2 0,0.3 0,0.5 0,0.8 0,1.2 0.2,2.4 0.6,3.6 0.2,0.8 0.5,1.6 0.8,2.3 0.2,0.6 0.5,1.1 0.7,1.6 0.3,0.7 0.5,1.4 0.5,2.2 0.1,0.9 -0.1,1.8 -0.5,2.6 0,0 0,0 0,0 0,0 0.1,0 0.1,0.1 0.8,0.5 1.4,1.1 1.9,1.9 0.7,1.2 1.2,2.6 1.6,3.9 0.5,2 0.4,3.8 -0.1,5.6 z"
           id="path227"
           inkscape:connector-curvature="0"
           style="fill:#754d24" /><g
           id="g229"><path
             class="st15"
             d="m 341.2,200.9 c 0,0.4 -0.1,0.8 -0.2,1.1 -0.2,0.8 -0.7,1.4 -1.3,1.4 0,0 -0.1,0 -0.1,0 0,0 -0.1,0 -0.1,0 -0.6,-0.1 -1.1,-0.6 -1.3,-1.4 -0.1,-0.3 -0.2,-0.7 -0.2,-1.1 0,-1.4 0.7,-2.5 1.6,-2.5 0.9,0 1.6,1.1 1.6,2.5 z"
             id="path231"
             inkscape:connector-curvature="0"
             style="fill:#ffffff" /><path
             class="st23"
             d="m 341.1,201.9 c 0,0 0,0.1 0,0 -0.2,0.9 -0.7,1.4 -1.3,1.5 0,0 -0.1,0 -0.1,0 0,0 -0.1,0 -0.1,0 -0.6,-0.1 -1.1,-0.6 -1.3,-1.4 0,0 0,0 0,0 0,-0.8 0.6,-1.5 1.4,-1.5 0.8,0 1.4,0.6 1.4,1.4 z"
             id="path233"
             inkscape:connector-curvature="0"
             style="fill:#020203" /><circle
             class="st15"
             cx="339"
             cy="201.39999"
             r="0.2"
             id="circle235"
             style="fill:#ffffff" /><path
             class="st15"
             d="m 345.9,201 c 0,0.4 -0.1,0.8 -0.2,1.1 -0.2,0.8 -0.7,1.4 -1.3,1.4 0,0 -0.1,0 -0.1,0 0,0 -0.1,0 -0.1,0 -0.6,-0.1 -1.1,-0.6 -1.3,-1.4 -0.1,-0.3 -0.2,-0.7 -0.2,-1.1 0,-1.4 0.7,-2.5 1.6,-2.5 0.9,0 1.6,1.1 1.6,2.5 z"
             id="path237"
             inkscape:connector-curvature="0"
             style="fill:#ffffff" /><path
             class="st23"
             d="m 345.7,202.1 c 0,0 0,0 0,0 -0.2,0.9 -0.7,1.4 -1.3,1.5 0,0 -0.1,0 -0.1,0 0,0 -0.1,0 -0.1,0 -0.6,-0.1 -1.1,-0.6 -1.3,-1.4 0,0 0,0 0,0 0,-0.8 0.6,-1.5 1.4,-1.5 0.8,-0.1 1.4,0.5 1.4,1.4 z"
             id="path239"
             inkscape:connector-curvature="0"
             style="fill:#020203" /><circle
             class="st15"
             cx="343.70001"
             cy="201.60001"
             r="0.2"
             id="circle241"
             style="fill:#ffffff" /></g><path
           class="st23"
           d="m 347,208.8 c -2.2,5.1 -8.2,3.5 -9.4,-0.2 1.5,1.9 3.4,2.8 4.5,2.9 0,-0.3 0,-1.8 0,-2.8 0.1,0 0.1,0 0.2,0 0,0.8 0,2.1 0,2.8 1.4,0 2,-0.1 4.7,-2.7 z"
           id="path243"
           inkscape:connector-curvature="0"
           style="fill:#020203" /><path
           class="st11"
           d="m 344.9,206.4 c 0,1.2 -1.2,2.1 -2.6,2.2 -0.1,0 -0.1,0 -0.2,0 l 0,0 c -1.6,0 -2.9,-1 -2.9,-2.2 0,-1.2 1.3,-2.2 2.9,-2.2 1.5,0 2.8,1 2.8,2.2 z"
           id="path245"
           inkscape:connector-curvature="0"
           style="fill:#c1292e" /><path
           class="st24"
           d="m 339.9,206 c 0.1,-0.6 0.7,-1 1.4,-1 -0.4,0.2 -0.7,0.4 -1.4,1 z"
           id="path247"
           inkscape:connector-curvature="0"
           style="fill:#d9646d" /><path
           class="st21"
           d="m 339.5,227.2 c -0.2,0.2 -0.5,0.2 -0.8,0.1 -0.1,0 -0.2,-0.1 -0.2,-0.1 -0.9,-0.5 -1.9,-1 -2.8,-1.5 -0.1,-0.1 -0.2,-0.1 -0.4,-0.2 -0.1,0.1 -0.1,0.2 -0.2,0.4 -0.2,0.5 -0.4,1 -0.6,1.6 -0.1,0.2 -0.2,0.4 -0.3,0.5 -0.3,0.4 -0.8,0.4 -1.2,0 -0.1,-0.1 -0.2,-0.2 -0.2,-0.3 -0.1,-0.3 -0.3,-0.6 -0.4,-0.9 -0.3,-0.7 -0.6,-1.4 -0.9,-2.2 0.1,-0.1 0.2,-0.1 0.4,-0.2 1.3,-0.6 4.6,-1.5 5.9,-1.6 0.1,0 0.2,0 0.2,0 0.1,0.2 0.2,0.5 0.3,0.7 0.3,0.7 0.7,1.4 1.1,2 0.2,0.3 0.3,0.6 0.4,0.9 0,0.3 -0.1,0.5 -0.3,0.8 z"
           id="path249"
           inkscape:connector-curvature="0"
           style="fill:#412413" /><path
           class="st21"
           d="m 354.1,224.7 c -0.3,0.7 -0.6,1.4 -0.9,2.2 -0.1,0.3 -0.3,0.6 -0.4,0.9 -0.1,0.1 -0.1,0.2 -0.2,0.3 -0.3,0.4 -0.9,0.4 -1.2,0 -0.1,-0.1 -0.2,-0.3 -0.3,-0.5 -0.2,-0.5 -0.4,-1 -0.6,-1.6 0,-0.1 -0.1,-0.2 -0.2,-0.4 -0.1,0.1 -0.3,0.1 -0.4,0.2 -1,0.5 -1.9,1 -2.8,1.5 -0.1,0 -0.2,0.1 -0.2,0.1 -0.3,0.1 -0.6,0.1 -0.8,-0.1 -0.2,-0.2 -0.3,-0.5 -0.2,-0.8 0.1,-0.3 0.3,-0.6 0.4,-0.9 0.3,-0.7 0.7,-1.4 1.1,-2 0.1,-0.2 0.2,-0.5 0.3,-0.7 0.1,0 0.1,0 0.2,0 0.1,0 0.1,0 0.2,0 1.4,0.1 4.4,1 5.7,1.6 0,0 0.1,0 0.1,0.1 0,0 0.1,0.1 0.2,0.1 z"
           id="path251"
           inkscape:connector-curvature="0"
           style="fill:#412413" /></g></g><g
       id="g253"><g
         id="g255"><path
           class="st25"
           d="m 137.2,226.7 c -0.2,-1.1 -0.6,-2.6 -0.9,-4.1 -0.3,-1.7 -0.7,-3.4 -0.9,-5 -1.1,0.2 -2.2,0.3 -3.3,0.4 0.1,0.5 0.6,2.8 0.9,4.4 -0.4,0.1 -2.1,0.4 -3.8,0.8 -0.3,-0.8 -4.1,-13.9 -7.8,-27.3 0,-0.2 -0.1,-0.4 -0.2,-0.6 -1.3,-4.6 -2.5,-9.2 -3.6,-13.3 -0.2,0 -0.3,0 -0.5,0.1 -1.1,0.1 -2.2,0.3 -3.4,0.4 -0.2,0 -0.3,0 -0.5,0.1 -2.1,0.3 -4.4,0.7 -6.7,1.1 -0.4,0.1 -0.8,0.1 -1.2,0.2 -1.5,0.3 -3,0.6 -4.6,0.9 -1.5,0.3 -3,0.6 -4.5,1 -1.1,0.2 -2.2,0.5 -3.3,0.8 -3.3,0.8 -6.5,1.7 -9.6,2.6 -4.4,1.3 -8.6,2.7 -12.1,4.1 0.4,1.5 2.4,9.2 6.4,19.3 -2,0.5 -6.5,2.2 -10.8,4.1 -0.1,0 -0.2,0.1 -0.3,0.1 -1.2,0.5 -3,1.4 -4.1,1.9 -0.2,0.1 -0.4,0.2 -0.5,0.2 -1.8,0.9 -3.4,1.8 -4.5,2.6 0.4,1 0.9,2.2 1.6,3.7 l 9.7,18.3 c 0.5,0.9 0.9,1.7 1.4,2.5 1.6,-0.8 3.4,-1.7 5.3,-2.6 0,-0.3 0,-0.5 0,-0.8 0,-0.8 0.1,-1.6 0.3,-2.3 0.4,-1.5 1.3,-2.8 2.5,-3.9 1.3,-1.1 2.9,-1.8 4.6,-2 0.3,0 0.5,0 0.8,0 1.4,0 2.7,0.3 3.9,1 0.9,0.5 1.7,1.2 2.4,1.9 2.6,-0.9 5.3,-1.8 8.3,-2.7 3.8,-1.1 7.6,-1.9 11.4,-2.6 0,-0.6 0.1,-1.3 0.3,-1.8 0.4,-1.5 1.3,-2.8 2.5,-3.9 1.3,-1.1 2.9,-1.8 4.6,-2 0.3,0 0.5,0 0.8,0 1.4,0 2.7,0.3 3.9,1 1.6,0.8 2.8,2.1 3.6,3.7 0.1,0.3 0.3,0.6 0.4,0.9 4,-0.4 8,-0.9 12.1,-1.5 -0.3,-0.1 -0.4,-0.7 -0.6,-1.7 z M 75,220.2 c 1,0 1.8,0.8 1.8,1.8 0,1 -0.8,1.8 -1.8,1.8 -1,0 -1.8,-0.8 -1.8,-1.8 0,-1 0.8,-1.8 1.8,-1.8 z m -5.3,3.6 c 0,-0.8 0.6,-1.4 1.4,-1.4 0.8,0 1.4,0.6 1.4,1.4 0,0.8 -0.6,1.4 -1.4,1.4 -0.7,0 -1.4,-0.6 -1.4,-1.4 z m 7.9,8.9 c -1.4,0.3 -2.3,1.8 -3.4,4.8 -0.1,-1.5 -0.7,-3.6 -2.2,-4.4 3,-1.8 1,-4.4 -0.6,-4.9 1.6,-0.8 1.9,-1.4 2.5,-3 0.8,1.5 1.3,2 3.8,2.7 -2.7,1.2 -1.7,3.3 -0.1,4.8 z m 6.3,-6.8 c -1.3,-1 -3.6,-1.5 -4.4,-0.3 -0.3,-1.5 -0.6,-1.9 -1.5,-3 0.9,-0.4 1.4,-0.9 1.7,-1.5 0.3,1.8 3.2,3.8 4.7,1.4 0.8,1.8 1.8,2.4 2.4,2.6 -1.7,-0.1 -2.4,0.1 -2.9,0.8 z"
           id="path257"
           inkscape:connector-curvature="0"
           style="fill:#f9b03d" /><path
           class="st14"
           d="m 66.7,216.8 c -0.1,0 -0.2,0.1 -0.3,0.1 -1.2,0.5 -3,1.4 -4.1,1.9 -0.2,0.1 -0.4,0.2 -0.5,0.2 -1.4,-2.6 -2.6,-8.6 -7.8,-8.4 4.2,-2 7.9,-3.5 10.1,-4.7 -2,4.2 1.5,9.1 2.6,10.9 z"
           id="path259"
           inkscape:connector-curvature="0"
           style="fill:#009245" /><path
           class="st14"
           d="m 68.6,243.7 -3.1,1.7 -10.3,-17.7 c 0,0 2.4,-1.5 3.8,-2.2 l 9.6,18.2 z"
           id="path261"
           inkscape:connector-curvature="0"
           style="fill:#009245" /><path
           class="st23"
           d="m 119.8,212.3 c -1.3,0.3 -2.7,0.7 -4.2,1 -7.2,1.8 -16.3,3.9 -22.2,5.3 -2.7,0.6 -4.8,1.1 -5.7,1.4 -0.5,-1.7 -1.1,-3.8 -1.8,-6 -2.3,-7.2 -5.4,-15.6 -6.2,-17.7 1.8,-0.6 4,-1.2 6.4,-1.8 l 0,0 c 3.2,-0.8 6.8,-1.7 10.3,-2.6 0.1,0 0.3,-0.1 0.4,-0.1 1,-0.2 2,-0.5 3,-0.7 0.1,0 0.1,0 0.2,0 0,0 0,0 0,0 0.1,0 0.1,0 0.2,0 2.3,-0.5 4.4,-1 6.3,-1.5 0.2,0 0.4,-0.1 0.6,-0.1 l 0,0 c 2.9,-0.7 5,-1.1 5.8,-1.3 0.4,1.7 1,3.7 1.7,6 l 0,0 c 0.1,0.5 0.3,0.9 0.4,1.4 0.3,1 0.5,1.9 0.8,2.9 0.9,3.1 1.8,6.2 2.5,8.8 0.7,2.3 1.3,4.2 1.5,5 z"
           id="path263"
           inkscape:connector-curvature="0"
           style="fill:#020203" /><g
           id="g265"><circle
             class="st11"
             cx="75"
             cy="222"
             r="1.8"
             id="circle267"
             style="fill:#c1292e" /><path
             class="st11"
             d="m 72.5,223.8 c 0,0.8 -0.6,1.4 -1.4,1.4 -0.8,0 -1.4,-0.6 -1.4,-1.4 0,-0.8 0.6,-1.4 1.4,-1.4 0.8,0 1.4,0.6 1.4,1.4 z"
             id="path269"
             inkscape:connector-curvature="0"
             style="fill:#c1292e" /><path
             class="st14"
             d="m 77.6,232.7 c -1.4,0.3 -2.3,1.8 -3.4,4.8 -0.1,-1.5 -0.7,-3.6 -2.2,-4.4 3,-1.8 1,-4.4 -0.6,-4.9 1.6,-0.8 1.9,-1.4 2.5,-3 0.8,1.5 1.3,2 3.8,2.7 -2.7,1.2 -1.7,3.3 -0.1,4.8 z"
             id="path271"
             inkscape:connector-curvature="0"
             style="fill:#009245" /><path
             class="st14"
             d="m 86.9,225.1 c -1.8,-0.1 -2.5,0.1 -2.9,0.8 -1.3,-1 -3.6,-1.5 -4.4,-0.3 -0.3,-1.5 -0.6,-1.9 -1.5,-3 0.9,-0.4 1.4,-0.9 1.7,-1.5 0.3,1.8 3.2,3.8 4.7,1.4 0.7,1.8 1.7,2.4 2.4,2.6 z"
             id="path273"
             inkscape:connector-curvature="0"
             style="fill:#009245" /></g><g
           id="g275"><g
             id="g277"><path
               class="st14"
               d="m 82.7,242.7 c -1.1,0.3 -2.1,0.8 -3.1,1.4 -0.3,0.2 -0.6,0.4 -0.9,0.6 -0.8,0.7 -1.6,1.4 -2.3,2.2 -0.6,-1 -1,-2.1 -1.1,-3.3 0,-0.3 0,-0.5 0,-0.8 0,-0.8 0.1,-1.6 0.3,-2.3 0.9,0.6 1.9,1.1 2.8,1.5 0.1,0 0.2,0.1 0.3,0.1 0.3,0.1 0.5,0.2 0.7,0.2 1.1,0.2 2.2,0.4 3.3,0.4 z"
               id="path279"
               inkscape:connector-curvature="0"
               style="fill:#009245" /><path
               class="st14"
               d="m 83,242.1 c -0.7,-0.3 -1.4,-0.7 -2,-1.2 -0.4,-0.3 -0.7,-0.6 -1,-1 -0.8,-1 -1.5,-2.2 -1.9,-3.4 1.3,-1.1 2.9,-1.8 4.6,-2 -0.2,1.1 -0.4,2.2 -0.4,3.2 0,0.4 0,0.7 0.1,1.1 0,0.5 0.1,0.9 0.2,1.4 0,0.7 0.2,1.3 0.4,1.9 z"
               id="path281"
               inkscape:connector-curvature="0"
               style="fill:#009245" /><path
               class="st14"
               d="m 85.1,250.8 c -0.5,0.1 -1.1,0.2 -1.6,0.2 -1.3,0 -2.5,-0.3 -3.6,-0.8 0.1,-1.4 0.3,-2.7 0.9,-4 0.5,-1.2 1.3,-2.2 2.4,-3 0,0 0,0 0.1,-0.1 -0.1,1.1 0,2.2 0.2,3.3 0.1,0.3 0.1,0.7 0.2,1.1 0.3,1.1 0.8,2.2 1.4,3.3 z"
               id="path283"
               inkscape:connector-curvature="0"
               style="fill:#009245" /><path
               class="st14"
               d="m 90.9,239.2 c -1.1,0.1 -2.1,0.3 -3.1,0.6 -0.4,0.1 -0.7,0.3 -1,0.4 -1.1,0.4 -2.1,1 -3,1.7 0,-0.8 0.2,-1.6 0.5,-2.4 0.1,-0.3 0.3,-0.7 0.5,-1 0.7,-1.2 1.6,-2.2 2.7,-3.1 0.9,0.5 1.7,1.2 2.4,1.9 0.3,0.7 0.7,1.3 1,1.9 z"
               id="path285"
               inkscape:connector-curvature="0"
               style="fill:#009245" /><path
               class="st14"
               d="m 91.6,244 c -0.3,1.7 -1.1,3.3 -2.2,4.5 -1.3,-0.6 -2.6,-1.3 -3.6,-2.4 -0.9,-0.9 -1.6,-2 -1.9,-3.3 0,-0.1 0,-0.2 -0.1,-0.3 0,0 0,0 0,0 0,0 0.1,0 0.1,0 1.3,-0.4 2.5,-0.5 3.8,-0.2 1.4,0.3 2.7,0.9 3.9,1.7 z"
               id="path287"
               inkscape:connector-curvature="0"
               style="fill:#009245" /><path
               class="st15"
               d="m 83.9,242.5 c 0,0 -0.1,0 -0.1,0 0,0.1 0,0.2 0.1,0.3 0.3,1.3 1,2.4 1.9,3.3 1,1 2.3,1.8 3.6,2.4 -1.1,1.2 -2.6,2 -4.3,2.4 -0.6,-1.1 -1.1,-2.2 -1.4,-3.3 -0.1,-0.4 -0.2,-0.7 -0.2,-1.1 -0.2,-1.1 -0.3,-2.2 -0.2,-3.3 0,0 0,0 -0.1,0.1 -1.1,0.8 -1.9,1.8 -2.4,3 -0.6,1.3 -0.8,2.6 -0.9,4 -1.4,-0.7 -2.7,-1.8 -3.5,-3.2 0.7,-0.8 1.5,-1.6 2.3,-2.2 0.3,-0.2 0.6,-0.4 0.9,-0.6 1,-0.6 2,-1.1 3.1,-1.4 -1.1,0 -2.2,-0.2 -3.3,-0.5 -0.2,-0.1 -0.5,-0.2 -0.7,-0.2 -0.1,0 -0.2,0 -0.3,-0.1 -0.9,-0.4 -1.9,-0.9 -2.8,-1.5 0.4,-1.5 1.3,-2.8 2.5,-3.9 0.4,1.2 1,2.4 1.9,3.4 0.3,0.4 0.7,0.7 1,1 0.6,0.5 1.3,0.9 2,1.2 -0.2,-0.6 -0.4,-1.2 -0.5,-1.8 -0.1,-0.5 -0.1,-0.9 -0.2,-1.4 0,-0.3 0,-0.7 -0.1,-1.1 0,-1.1 0.2,-2.1 0.4,-3.2 0.3,0 0.5,0 0.8,0 1.4,0 2.7,0.3 3.9,1 -1.1,0.9 -2,1.9 -2.7,3.1 -0.2,0.3 -0.3,0.7 -0.5,1 -0.3,0.7 -0.5,1.5 -0.5,2.4 0.9,-0.7 1.9,-1.3 3,-1.7 0.3,-0.1 0.6,-0.2 1,-0.4 1,-0.3 2.1,-0.5 3.1,-0.6 0.5,1.1 0.8,2.3 0.8,3.5 0,0.4 0,0.8 -0.1,1.2 -1.2,-0.8 -2.5,-1.4 -3.9,-1.7 -1.1,-0.6 -2.3,-0.5 -3.6,-0.1 z"
               id="path289"
               inkscape:connector-curvature="0"
               style="fill:#ffffff" /></g><g
             id="g291"><path
               class="st14"
               d="m 117,232.6 c -1.1,0.3 -2.1,0.8 -3.1,1.4 -0.3,0.2 -0.6,0.4 -0.9,0.6 -0.8,0.7 -1.6,1.4 -2.3,2.2 -0.7,-1.2 -1.1,-2.7 -1.1,-4.2 0,-0.2 0,-0.3 0,-0.5 0,-0.6 0.1,-1.3 0.3,-1.8 0.8,0.5 1.7,1 2.6,1.4 0.1,0 0.1,0.1 0.2,0.1 0.4,0.1 0.7,0.2 1,0.3 1,0.3 2.1,0.5 3.3,0.5 z"
               id="path293"
               inkscape:connector-curvature="0"
               style="fill:#009245" /><path
               class="st14"
               d="m 117.2,232 c -0.5,-0.2 -1.1,-0.5 -1.5,-0.8 -0.6,-0.4 -1.1,-0.8 -1.5,-1.4 -0.8,-1 -1.5,-2.2 -1.9,-3.4 1.3,-1.1 2.9,-1.8 4.6,-2 -0.2,1.1 -0.4,2.2 -0.4,3.2 0,0.4 0,0.7 0.1,1.1 0,0.8 0.2,1.5 0.4,2.3 0,0.4 0.1,0.7 0.2,1 z"
               id="path295"
               inkscape:connector-curvature="0"
               style="fill:#009245" /><path
               class="st14"
               d="m 119.3,240.7 c -0.5,0.1 -1.1,0.2 -1.6,0.2 -1.3,0 -2.5,-0.3 -3.6,-0.8 0.1,-1.4 0.3,-2.7 0.9,-4 0.5,-1.2 1.3,-2.2 2.4,-3 0,0 0,0 0.1,-0.1 -0.1,1.1 0,2.2 0.2,3.3 0.1,0.3 0.1,0.7 0.2,1.1 0.4,1.1 0.9,2.2 1.4,3.3 z"
               id="path297"
               inkscape:connector-curvature="0"
               style="fill:#009245" /><path
               class="st14"
               d="m 125.1,229.1 c -1.1,0.1 -2.1,0.3 -3.1,0.6 -0.4,0.1 -0.7,0.3 -1,0.4 -0.5,0.2 -1,0.4 -1.4,0.6 -0.6,0.3 -1.1,0.7 -1.6,1.1 0,-0.3 0,-0.6 0.1,-0.9 0.1,-0.9 0.4,-1.7 0.9,-2.5 0.7,-1.2 1.6,-2.2 2.7,-3.1 1.4,0.9 2.7,2.2 3.4,3.8 z"
               id="path299"
               inkscape:connector-curvature="0"
               style="fill:#009245" /><path
               class="st14"
               d="m 125.8,233.9 c -0.3,1.7 -1.1,3.3 -2.2,4.5 -1.3,-0.6 -2.6,-1.3 -3.6,-2.4 -0.9,-0.9 -1.6,-2 -1.9,-3.3 0,-0.1 0,-0.2 -0.1,-0.3 0,0 0,0 0,0 0,0 0.1,0 0.1,0 1.3,-0.4 2.5,-0.5 3.8,-0.2 1.5,0.3 2.8,0.9 3.9,1.7 z"
               id="path301"
               inkscape:connector-curvature="0"
               style="fill:#009245" /><path
               class="st15"
               d="m 118.1,232.4 c 0,0 -0.1,0 -0.1,0 0,0.1 0,0.2 0.1,0.2 0.3,1.3 1,2.4 1.9,3.3 1.1,1 2.3,1.8 3.6,2.4 -1.1,1.2 -2.6,2 -4.3,2.4 -0.6,-1.1 -1.1,-2.2 -1.4,-3.3 -0.1,-0.4 -0.1,-0.7 -0.2,-1.1 -0.2,-1.1 -0.3,-2.2 -0.2,-3.3 0,0 0,0 -0.1,0 -1.1,0.8 -1.9,1.8 -2.4,3 -0.6,1.3 -0.8,2.6 -0.9,4 -1.4,-0.7 -2.6,-1.8 -3.5,-3.2 0.7,-0.8 1.5,-1.6 2.3,-2.2 0.3,-0.2 0.6,-0.4 0.9,-0.6 1,-0.6 2,-1.1 3.1,-1.4 -1.1,0 -2.2,-0.2 -3.3,-0.5 -0.3,-0.1 -0.6,-0.2 -1,-0.3 -0.1,0 -0.1,-0.1 -0.2,-0.1 -0.9,-0.4 -1.8,-0.9 -2.6,-1.4 0.4,-1.5 1.3,-2.8 2.5,-3.9 0.4,1.2 1,2.4 1.9,3.4 0.5,0.5 1,1 1.5,1.4 0.5,0.3 1,0.6 1.5,0.8 -0.1,-0.3 -0.2,-0.6 -0.3,-1 -0.2,-0.7 -0.3,-1.5 -0.4,-2.3 0,-0.3 0,-0.7 -0.1,-1.1 0.1,-1.1 0.2,-2.1 0.4,-3.2 0.3,0 0.5,0 0.8,0 1.4,0 2.7,0.3 3.9,1 -1.1,0.9 -2,1.9 -2.7,3.1 -0.4,0.8 -0.7,1.6 -0.9,2.5 -0.1,0.3 -0.1,0.6 -0.1,0.9 0.5,-0.4 1.1,-0.8 1.6,-1.1 0.4,-0.2 0.9,-0.5 1.4,-0.6 0.3,-0.1 0.6,-0.2 1,-0.4 1,-0.3 2.1,-0.5 3.1,-0.6 0.1,0.3 0.3,0.6 0.4,0.9 0.3,0.8 0.4,1.7 0.4,2.6 0,0.4 0,0.8 -0.1,1.3 -1.2,-0.8 -2.5,-1.4 -3.9,-1.7 -1,-0.4 -2.3,-0.3 -3.6,0.1 z"
               id="path303"
               inkscape:connector-curvature="0"
               style="fill:#ffffff" /></g></g></g><g
         id="g305"><path
           class="st26"
           d="m 115,194.4 c -1.8,-1.1 -3.2,-2.6 -4.4,-3.3 0.6,-0.4 0.9,-1.1 1.1,-1.8 0.1,-0.4 -0.5,-0.5 -0.6,-0.2 -0.2,0.6 -0.4,1.1 -0.9,1.4 -0.5,0.3 -1.2,0.3 -1.7,0.2 -0.2,-0.1 -0.4,-0.1 -0.6,-0.3 -0.1,-0.1 -0.2,-0.2 -0.3,-0.3 -0.4,-0.4 -0.6,-1 -0.5,-1.6 0,-0.1 0,-0.3 0.1,-0.4 0,-0.1 0,-0.1 0.1,-0.2 0.1,-0.4 -0.4,-0.5 -0.6,-0.2 -0.1,0.3 -0.2,0.6 -0.2,0.9 -0.9,-0.3 -3.4,1.3 -6.4,1.2 -0.5,-4.3 2.7,-13.7 10.9,-11.8 8.9,2.2 8.3,10.8 4,16.4 z"
           id="path307"
           inkscape:connector-curvature="0"
           style="fill:#f4dbc6" /><path
           class="st27"
           d="m 112.6,182.4 c 2.4,0.3 5.7,1.8 4.4,3.9 -1.3,2.1 -1,-2.2 -4.4,-3.9 z"
           id="path309"
           inkscape:connector-curvature="0"
           style="fill:#f2f2f2" /><path
           class="st27"
           d="m 109.8,181.6 c -1.8,-1.5 -5.2,-2.9 -5.8,-0.6 -0.7,2.3 2.3,-0.7 5.8,0.6 z"
           id="path311"
           inkscape:connector-curvature="0"
           style="fill:#f2f2f2" /><g
           id="g313"><path
             class="st23"
             d="m 105,185.2 c 0.2,-1.3 2.7,-0.9 3.2,0 0.2,0.3 0.7,0 0.5,-0.3 -0.7,-1.4 -4,-1.8 -4.3,0.1 0,0.5 0.5,0.6 0.6,0.2 l 0,0 z"
             id="path315"
             inkscape:connector-curvature="0"
             style="fill:#020203" /></g><g
           id="g317"><path
             class="st23"
             d="m 111.5,186.3 c 0.8,-0.3 1.6,-0.5 2.4,-0.1 0.8,0.4 1.3,1.2 1.2,2.1 0,0.4 0.6,0.4 0.6,0 0.1,-1 -0.4,-1.9 -1.2,-2.4 -1,-0.6 -2.1,-0.5 -3.1,-0.1 -0.4,0.1 -0.2,0.7 0.1,0.5 l 0,0 z"
             id="path319"
             inkscape:connector-curvature="0"
             style="fill:#020203" /></g><path
           class="st11"
           d="m 131.6,182.9 c -0.7,0.2 -1.2,0.8 -1.3,1.6 -1,-0.1 -2.3,-0.7 -3.6,0.2 -2,1.4 -3.3,7.7 -4.5,8.8 0,0 0,0 0,0 -0.1,-0.4 -0.2,-0.8 -0.4,-1.3 0.7,-0.4 1.9,-2.1 0,-4.8 1.6,-1.2 1.7,-4.2 -1.1,-6.4 0.1,-2.3 -2.9,-4 -5.3,-4.7 -0.3,-1.5 -3.2,-1.8 -6.2,-1.5 -0.9,-0.9 -3.2,-0.6 -5.4,1.1 -1,-0.4 -2.9,0.3 -4.3,2.4 -0.5,0 -0.9,0 -1.2,0.2 0.6,-4.4 9.4,-12.7 20.3,-8.5 10.3,4 12.2,8.1 13,12.9 z"
           id="path321"
           inkscape:connector-curvature="0"
           style="fill:#c1292e" /><path
           class="st9"
           d="m 135.5,189.3 c -2.4,1.9 -3.8,2.4 -5.2,1.1 -1.4,-1.4 -0.3,-2.5 0.2,-3.2 -1.2,-0.7 -1.5,-1.3 -0.2,-1.7 -0.1,-0.3 -0.1,-0.7 0,-1.1 0.1,-0.7 0.6,-1.4 1.3,-1.6 0.5,-0.1 1.1,-0.1 1.9,0.4 3.4,0.2 2.5,1.9 2.2,2.4 0.9,0.7 2.1,3.3 -0.2,3.7 z"
           id="path323"
           inkscape:connector-curvature="0"
           style="fill:#e7e6e6" /><path
           class="st11"
           d="m 97.4,192.7 c 0,0 -0.1,0 -0.1,0.1 -0.7,0.4 -1.4,0.8 -2,1.4 -0.1,0.1 -0.2,0.2 -0.4,0.3 0,0 -0.1,0.1 -0.1,0.1 -0.1,0.1 -0.2,0.2 -0.4,0.4 0,0 0,0 0,0 -0.1,0.1 -0.3,0.3 -0.4,0.4 -0.1,0.2 -0.3,0.3 -0.4,0.5 -0.1,0.2 -0.3,0.3 -0.4,0.5 -0.7,1 -1.3,2.2 -1.7,3.4 -0.1,0.3 -0.2,0.6 -0.3,0.9 0,0.1 -0.1,0.2 -0.1,0.3 -1.5,-1.1 -3.3,-3.7 -5,-6.5 l 0,0 c -1,-1.7 -2.1,-3.6 -2.9,-5.2 -0.9,-1.8 -1.7,-3.4 -2.1,-4.4 1,-0.1 2.4,-0.9 3.2,-2.1 1.1,0.2 2.4,-1 4.2,-2.2 0.5,0 0.9,-0.1 1.2,-0.2 0.9,2.4 2,4.5 3.2,6.3 1.3,1.9 2.6,3.4 3.7,4.6 0.1,0.2 0.2,0.4 0.3,0.6 0.1,0.3 0.3,0.5 0.5,0.8 z"
           id="path325"
           inkscape:connector-curvature="0"
           style="fill:#c1292e" /><path
           class="st23"
           d="m 86.3,174 c -0.4,0.9 -0.5,2.1 -0.3,3 -0.2,0.1 -0.4,0.2 -0.6,0.3 -2.2,-0.8 -2.8,0.2 -3.4,1.8 -1.9,-2 -8.1,-5.6 -7.9,-8.5 0.2,-3 3.4,-3.5 5,-3.3 1.6,0.2 1.4,1.9 2.1,2.4 0.6,0.4 1.3,-2.8 3.5,-2.4 2.1,0.2 2.4,5.2 1.6,6.7 z"
           id="path327"
           inkscape:connector-curvature="0"
           style="fill:#020203" /><path
           class="st27"
           d="m 121.7,192.1 c 0.2,0.5 0.4,0.9 0.4,1.3 0.2,0.9 -0.1,1.6 -1,2 -0.3,0.1 -0.8,0.2 -1.3,0.3 0,0 0,0 0,0 -0.3,0 -0.6,0 -0.9,0 -0.2,0 -0.4,0 -0.6,0 -1,-0.1 -2,-0.5 -2.8,-0.9 -0.2,-0.1 -0.4,-0.2 -0.6,-0.4 4.4,-5.6 4.9,-14.2 -4.1,-16.2 -8.2,-1.9 -11.5,7.5 -10.9,11.8 -0.2,0 -0.5,0 -0.7,0 -0.6,-0.1 -1.2,-0.2 -1.8,-0.4 -1.6,-1.9 -2.2,-4.9 0.5,-7.4 -0.5,-2.1 -0.4,-3.2 0.3,-3.6 0.3,-0.2 0.7,-0.2 1.2,-0.2 1.3,-2.1 3.3,-2.8 4.3,-2.4 2.1,-1.7 4.4,-2.1 5.4,-1.1 2.9,-0.3 5.8,0 6.2,1.5 2.4,0.7 5.4,2.4 5.3,4.7 2.9,2.3 2.7,5.2 1.1,6.4 1.9,2.4 0.7,4.2 0,4.6 z"
           id="path329"
           inkscape:connector-curvature="0"
           style="fill:#f2f2f2" /><path
           class="st27"
           d="m 89.6,180.4 c -0.3,0.2 -0.7,0.2 -1.2,0.2 -1.8,1.2 -3.1,2.4 -4.2,2.2 -0.8,1.1 -2.1,2 -3.2,2.1 -0.6,0 -1.1,-0.2 -1.3,-0.8 -1.9,-0.5 -2.2,-2.8 0,-3.4 0,-1.3 1.5,-1.7 2.2,-1.6 0,0 0,0 0,0 0.7,-1.6 1.3,-2.6 3.4,-1.8 0.2,-0.1 0.4,-0.2 0.6,-0.3 2,-0.7 3.7,0.2 3.8,1.3 1,0.8 0.7,1.7 -0.1,2.1 z"
           id="path331"
           inkscape:connector-curvature="0"
           style="fill:#f2f2f2" /><path
           class="st11"
           d="m 94.2,215 c -0.5,1.4 -0.8,2.6 -0.8,3.7 -2.7,0.6 -4.8,1.1 -5.7,1.4 -0.5,-1.7 -1.1,-3.8 -1.8,-6 1.5,-2.5 3.7,-6.2 5.1,-9.2 0.3,1.1 0.9,2 1.8,2.7 -1.4,3.8 -0.9,7.1 1.4,7.4 z"
           id="path333"
           inkscape:connector-curvature="0"
           style="fill:#c1292e" /><path
           class="st27"
           d="m 118.3,207.2 c -0.6,1.6 -1.4,3 -2.7,3.6 0.4,0.8 0.4,1.7 0,2.5 -0.6,1.4 -2.1,2.6 -4.5,3.3 0.3,1.3 -1.1,3.9 -7,3.7 1.3,1.7 -0.8,5.5 -3.6,5 0,1.6 -1.5,3.1 -3.6,2.9 -2.1,-0.2 -2.7,-3.9 -1.7,-6.4 -0.4,-0.3 -0.7,-0.6 -1,-1 -0.5,-0.6 -0.7,-1.4 -0.7,-2.3 0,-1.1 0.2,-2.3 0.8,-3.7 -2.4,-0.3 -2.8,-3.6 -1.4,-7.4 -0.9,-0.7 -1.5,-1.7 -1.8,-2.7 -0.3,-1.2 -0.3,-2.5 0,-3.9 0,-0.1 0.1,-0.2 0.1,-0.3 0,-0.1 0.1,-0.2 0.1,-0.3 0,-0.2 0.1,-0.3 0.2,-0.5 0.4,-1.2 1,-2.3 1.7,-3.4 0.1,-0.2 0.2,-0.3 0.4,-0.5 0.1,-0.2 0.3,-0.3 0.4,-0.5 0.1,-0.2 0.3,-0.3 0.4,-0.4 0,0 0,0 0,0 0.1,-0.1 0.2,-0.2 0.4,-0.4 0,0 0.1,-0.1 0.1,-0.1 0.1,-0.1 0.2,-0.2 0.4,-0.3 0.6,-0.5 1.3,-1 2,-1.4 0,0 0.1,0 0.1,-0.1 0.1,0.2 0.3,0.3 0.4,0.5 1.3,1.3 2.6,1.5 3.4,1.3 1.4,-0.3 5.3,-1.7 6.4,-2.8 -0.5,2 -0.1,5.2 2.5,6.1 0.5,0.2 1,0.3 1.5,0.4 0.1,0 0.1,0 0.2,0 0.1,0 0.2,0 0.3,0 0.2,0 0.4,0.1 0.6,0.1 0,0 0,0 0,0 0.7,0.1 1.4,0.1 2.1,0.1 l 0,0 c 0.1,0 0.2,0 0.3,0 l 0,0 c 0.1,0 0.2,0 0.4,0 0.1,0 0.2,0 0.3,0 0,0 0.1,0 0.1,0 0.2,0 0.3,0 0.5,-0.1 0.4,-0.1 0.9,-0.2 1.3,-0.3 0.1,0 0.2,-0.1 0.3,-0.1 0.1,0 0.2,-0.1 0.3,-0.1 0.9,1.7 1.1,6.1 0,9.5 z"
           id="path335"
           inkscape:connector-curvature="0"
           style="fill:#f2f2f2" /><path
           class="st27"
           d="m 115.8,198.4 c -0.1,0 -0.2,0 -0.3,0 -0.1,0 -0.2,0 -0.4,0 0.3,0 0.5,0 0.7,0 z"
           id="path337"
           inkscape:connector-curvature="0"
           style="fill:#f2f2f2" /><path
           class="st27"
           d="m 116.4,198.3 c -0.2,0 -0.3,0 -0.5,0.1 0,0 -0.1,0 -0.1,0 0.2,0 0.4,-0.1 0.6,-0.1 z"
           id="path339"
           inkscape:connector-curvature="0"
           style="fill:#f2f2f2" /><path
           class="st9"
           d="m 122.3,194.9 c -0.3,0.4 -0.7,0.8 -1,1.1 -1,0.9 -2,1.5 -3,1.9 -0.1,0 -0.2,0.1 -0.3,0.1 -0.1,0 -0.2,0.1 -0.3,0.1 -0.4,0.1 -0.9,0.2 -1.3,0.3 -0.2,0 -0.4,0 -0.6,0.1 -0.2,0 -0.4,0 -0.6,0.1 l 0,0 c -0.1,0 -0.2,0 -0.3,0 l 0,0 c -0.7,0 -1.4,0 -2.1,-0.1 0,0 0,0 0,0 -0.2,0 -0.4,-0.1 -0.6,-0.1 -0.1,0 -0.2,0 -0.3,0 -0.1,0 -0.1,0 -0.2,0 -0.5,-0.1 -1.1,-0.3 -1.5,-0.4 -2.7,-0.9 -3,-4.1 -2.5,-6.1 -1.1,1.1 -5,2.5 -6.4,2.8 -0.9,0.2 -2.2,0 -3.4,-1.3 -0.1,-0.1 -0.3,-0.3 -0.4,-0.5 -0.2,-0.2 -0.4,-0.5 -0.6,-0.8 -0.1,-0.2 -0.2,-0.4 -0.3,-0.6 -0.4,-0.8 -0.8,-1.8 -1.2,-3.1 0.7,0.6 1.5,1 2.2,1.3 0.6,0.2 1.2,0.4 1.8,0.4 0.2,0 0.5,0 0.7,0 3,0.1 5.5,-1.5 6.4,-1.2 0,0.1 0,0.3 0,0.5 0,0 0,0.1 0,0.1 0,0.1 0,0.1 0,0.2 0,0 0,0.1 0,0.1 0,0 0,0.1 0,0.1 0,0.1 0,0.1 0.1,0.2 0,0 0,0.1 0.1,0.2 0,0 0,0.1 0.1,0.1 0,0.1 0.1,0.1 0.1,0.2 0,0.1 0.1,0.1 0.1,0.2 0,0.1 0.1,0.1 0.2,0.2 0.1,0.1 0.1,0.1 0.2,0.2 0,0 0.1,0.1 0.2,0.1 0.1,0.1 0.2,0.1 0.3,0.2 0.1,0 0.1,0 0.2,0.1 0,0 0,0 0.1,0 0.1,0 0.1,0 0.2,0.1 0.1,0 0.1,0 0.2,0 0,0 0.1,0 0.1,0 0,0 0,0 0.1,0 0.6,0.1 1.2,0 1.7,-0.2 0.1,0 0.1,-0.1 0.2,-0.1 1.1,0.6 2.4,1.9 4,3 l 0,0 c 0.1,0.1 0.3,0.2 0.4,0.3 0.2,0.1 0.4,0.3 0.6,0.4 0.8,0.5 1.8,0.8 2.8,0.9 0.2,0 0.4,0 0.7,0 0.3,0 0.5,0 0.8,0 0,0 0,0 0,0 0.5,0 0.9,-0.1 1.2,-0.3 0,0 0,0 0.1,0 0.2,-0.5 0.6,-0.6 1,-0.8 z"
           id="path341"
           inkscape:connector-curvature="0"
           style="fill:#e7e6e6" /><path
           class="st9"
           d="m 115.1,198.4 c 0.2,0 0.4,0 0.6,-0.1 -0.1,0 -0.2,0 -0.3,0 0,0.1 -0.1,0.1 -0.3,0.1 z"
           id="path343"
           inkscape:connector-curvature="0"
           style="fill:#e7e6e6" /><path
           class="st9"
           d="m 116.4,198.3 c -0.2,0 -0.3,0 -0.5,0.1 0,0 -0.1,0 -0.1,0 0.2,0 0.4,-0.1 0.6,-0.1 z"
           id="path345"
           inkscape:connector-curvature="0"
           style="fill:#e7e6e6" /><g
           id="g347"><path
             class="st23"
             d="m 111.6,189.3 c -0.2,0.7 -0.5,1.4 -1.1,1.8 -0.1,0 -0.1,0.1 -0.2,0.1 -0.5,0.2 -1.1,0.3 -1.7,0.2 l 0,0 c 0,0 0,0 -0.1,0 0,0 -0.1,0 -0.1,0 -0.1,0 -0.1,0 -0.2,0 -0.1,0 -0.1,0 -0.2,-0.1 0,0 0,0 -0.1,0 -0.1,0 -0.1,0 -0.2,-0.1 -0.1,-0.1 -0.2,-0.1 -0.3,-0.2 0,0 -0.1,-0.1 -0.2,-0.1 -0.1,0 -0.1,-0.1 -0.2,-0.2 -0.1,-0.1 -0.1,-0.1 -0.2,-0.2 -0.1,-0.1 -0.1,-0.1 -0.1,-0.2 0,-0.1 -0.1,-0.1 -0.1,-0.2 0,0 0,-0.1 -0.1,-0.1 0,0 0,-0.1 -0.1,-0.2 0,-0.1 0,-0.1 -0.1,-0.2 0,-0.1 0,-0.1 0,-0.2 0,0 0,-0.1 0,-0.2 0,0 0,-0.1 0,-0.1 0,-0.1 0,-0.3 0,-0.5 0,-0.3 0.1,-0.6 0.2,-0.9 0.1,-0.4 0.7,-0.2 0.6,0.2 0,0.1 -0.1,0.1 -0.1,0.2 0,0.1 -0.1,0.3 -0.1,0.4 0,0.6 0.1,1.2 0.5,1.6 0.1,0.1 0.2,0.2 0.3,0.3 0.2,0.1 0.4,0.2 0.6,0.3 0.5,0.1 1.2,0.1 1.7,-0.2 0.5,-0.3 0.7,-0.8 0.9,-1.4 0.3,-0.3 0.9,-0.1 0.7,0.2 z"
             id="path349"
             inkscape:connector-curvature="0"
             style="fill:#020203" /></g></g></g></g></svg>