<?xml version="1.0" encoding="utf-8"?>
<!-- Generator: Adobe Illustrator 22.0.0, SVG Export Plug-In . SVG Version: 6.00 Build 0)  -->
<svg version="1.1" id="Calque_1" xmlns="http://www.w3.org/2000/svg" xmlns:xlink="http://www.w3.org/1999/xlink" x="0px" y="0px"
	 viewBox="0 0 432 432" style="enable-background:new 0 0 432 432;" xml:space="preserve">
<style type="text/css">
	.st0{fill:#C51618;}
	.st1{fill:#BE1622;}
	.st2{fill:#97191D;}
	.st3{fill:#BA1818;}
	.st4{fill:#DADADA;}
	.st5{fill:#F39200;}
	.st6{fill:#EDEDED;}
	.st7{fill:#C6C6C6;}
	.st8{fill:#B51922;}
	.st9{fill:#FFFFFF;}
	.st10{fill:#95C11F;}
	.st11{fill:#FBF18E;}
	.st12{fill:#A3195B;}
	.st13{fill:#CE9445;}
	.st14{fill:#C07912;}
	.st15{fill:#006633;}
	.st16{fill:#A91917;}
	.st17{fill:#A31A17;}
	.st18{fill:#CCCCCC;}
	.st19{fill:#AB1918;}
	.st20{fill:#BA7321;}
	.st21{fill:#4D3134;}
	.st22{fill:#BD1824;}
	.st23{fill:#71484C;}
	.st24{fill:#020203;}
	.st25{fill:#008D36;}
	.st26{fill:#027835;}
	.st27{fill:#005229;}
	.st28{fill:#A91921;}
	.st29{fill:#9E1920;}
	.st30{fill:#DB9646;}
	.st31{fill:#F8EAD9;}
	.st32{fill:#FFF1E0;}
	.st33{fill:#DED2C2;}
	.st34{fill:#3C3C3B;}
	.st35{fill:#A61E19;}
	.st36{fill:#3AAA35;}
	.st37{fill:#1A1A1A;}
	.st38{fill:#B01E19;}
	.st39{fill:#F9C733;}
	.st40{fill:#E0BC97;}
	.st41{fill:#CC9F71;}
	.st42{fill:#1D71B8;}
	.st43{fill:#DA907B;}
	.st44{fill:#BA874D;}
	.st45{fill:#A01E2A;}
	.st46{fill:#F2F2F2;}
	.st47{fill:#F4D5AB;}
	.st48{fill:#87181A;}
	.st49{fill:#FAB62E;}
	.st50{fill:#F7A509;}
	.st51{fill:#E94E1B;}
	.st52{fill:#634E42;}
	.st53{fill:#1C1D3B;}
	.st54{fill:#936037;}
	.st55{fill:#7D4E24;}
	.st56{fill:#EDF6F7;}
	.st57{fill:#432918;}
	.st58{fill:#683C11;}
	.st59{fill:#FDD110;}
	.st60{fill:#E30613;}
	.st61{fill:#2D2E83;}
	.st62{fill:#F8AC14;}
	.st63{fill:#C5E5EE;}
	.st64{fill:#EE7476;}
	.st65{fill:#706F6F;}
</style>
<g>
	<g>
		<path class="st17" d="M128.8,198.9c0,0,5-11.2,12-10.2c24.6,3.4,19.5-12.5,47.5-10c20.5,1.8,27.3-4.4,43.1-4
			c15.8,0.5,20.8,3.1,31.6,6.1c10.8,3,9.1,8.7,19.9,8.6s18.1,13.1,18.1,13.1l-20.9,23.4l-138.7,0.8L128.8,198.9z"/>
		<path class="st18" d="M301.9,196.4C301.9,196.4,301.9,196.4,301.9,196.4c0,0,0-0.1,0-0.1c0,0,0,0,0,0c0-3.4-2.8-6.2-6.2-6.2
			c-0.1,0-0.2,0-0.3,0c-0.1,0-0.2,0-0.2,0c0,0,0,0,0,0c-0.7-2.6-3.1-4.6-6-4.6c-0.5,0-1,0.1-1.5,0.2c-0.3,0.1-0.6,0.2-0.9,0.3
			c-0.1-0.2-0.2-0.3-0.3-0.5c-1.1-1.5-3-2.5-5-2.5c-0.5,0-1,0.1-1.4,0.2c-0.4,0.1-0.7,0.2-1,0.3c-0.1-0.2-0.2-0.3-0.4-0.5
			c-1.1-1.4-2.9-2.3-4.9-2.3c-0.2,0-0.5,0-0.7,0c-0.1,0-0.2,0-0.3,0.1c0,0,0-0.1,0-0.1c-0.9-2.4-3.2-4.2-5.9-4.2
			c-0.5,0-0.9,0.1-1.3,0.1c-0.3,0.1-0.5,0.1-0.7,0.2c-0.1-0.1-0.1-0.2-0.2-0.4c-1.1-1.8-3.1-3-5.3-3c-0.6,0-1.1,0.1-1.6,0.2
			c-0.4,0.1-0.7,0.2-1,0.4c-0.1-0.2-0.3-0.4-0.4-0.6c-1.1-1.3-2.8-2.2-4.8-2.2c-0.6,0-1.2,0.1-1.7,0.2c-0.4,0.1-0.9,0.3-1.3,0.5
			c-0.2-0.3-0.4-0.5-0.7-0.8c-1.1-1.1-2.6-1.7-4.3-1.7c-0.7,0-1.3,0.1-1.9,0.3c-0.6,0.2-1.2,0.5-1.8,0.9c-0.5-0.5-1-0.9-1.6-1.2
			c-0.9-0.5-1.8-0.7-2.9-0.7c-0.7,0-1.3,0.1-1.9,0.3c-0.8,0.3-1.6,0.7-2.2,1.2c-0.6-0.5-1.4-1-2.2-1.2c-0.6-0.2-1.2-0.3-1.9-0.3
			c-1.1,0-2,0.3-2.9,0.7c-0.6,0.3-1.1,0.7-1.6,1.2c-0.5-0.4-1.1-0.7-1.8-0.9c-0.6-0.2-1.2-0.3-1.9-0.3c-1.5,0-2.9,0.5-3.9,1.4
			c-0.3,0.3-0.6,0.6-0.9,0.9c-0.4-0.3-0.9-0.5-1.4-0.6c-0.6-0.2-1.2-0.3-1.8-0.3c-1.4,0-2.6,0.4-3.7,1.2c-0.4,0.3-0.7,0.6-1.1,1
			c-0.5-0.3-1-0.5-1.5-0.7c-0.6-0.2-1.2-0.3-1.8-0.3c-0.7,0-1.3,0.1-1.9,0.3c-0.8,0.3-1.6,0.7-2.3,1.3c-0.6-0.5-1.3-0.9-2.1-1.1
			c-0.6-0.2-1.2-0.3-1.9-0.3c-0.7,0-1.3,0.1-1.9,0.3c-0.9,0.3-1.6,0.7-2.3,1.3c-0.6-0.5-1.3-0.9-2.1-1.1c-0.6-0.2-1.2-0.3-1.9-0.3
			c-0.7,0-1.3,0.1-1.9,0.3c-0.9,0.3-1.7,0.7-2.3,1.4c-0.6-0.5-1.3-0.9-2-1.1c-0.6-0.2-1.2-0.3-1.9-0.3c-1.6,0-3.1,0.6-4.2,1.7
			c-0.3,0.2-0.5,0.5-0.7,0.7c-0.4-0.2-0.9-0.4-1.3-0.5c-0.5-0.1-1.1-0.2-1.6-0.2c-2.4,0-4.5,1.4-5.6,3.4c0,0.1-0.1,0.2-0.1,0.2
			c-0.2-0.1-0.4-0.1-0.6-0.1c-0.4-0.1-0.7-0.1-1.1-0.1c-2.4,0-4.5,1.4-5.6,3.4c0,0.1-0.1,0.2-0.1,0.2c-0.2-0.1-0.4-0.1-0.6-0.1
			c-0.4-0.1-0.7-0.1-1.1-0.1c-1.4,0-2.7,0.5-3.8,1.3c-0.3,0.3-0.7,0.6-1,0.9c-0.5-0.3-1-0.5-1.5-0.7c-0.5-0.1-1.1-0.2-1.7-0.2
			c-0.7,0-1.3,0.1-1.9,0.3c-0.9,0.3-1.7,0.7-2.3,1.4c-0.6-0.5-1.3-0.8-2-1.1c-0.6-0.2-1.2-0.3-1.9-0.3c-2.6,0-4.8,1.6-5.8,3.8
			c0,0,0,0.1,0,0.1c-0.1,0-0.3-0.1-0.5-0.1c-0.2,0-0.4,0-0.7,0c-2.6,0-4.9,1.7-5.8,4c-2.1,0.7-3.7,2.7-3.7,5c0,2.9,2.4,5.3,5.3,5.3
			c1.6,0,3-0.7,4-1.8c0.1,0,0.1,0,0.2,0c2.6,0,4.8-1.6,5.8-3.8c0,0,0-0.1,0-0.1c0.1,0,0.3,0.1,0.5,0.1c0.2,0,0.4,0,0.7,0
			c0.7,0,1.3-0.1,1.9-0.3c0.9-0.3,1.7-0.7,2.3-1.4c0.6,0.5,1.3,0.8,2,1.1c0.6,0.2,1.2,0.3,1.9,0.3c1.4,0,2.7-0.5,3.8-1.3
			c0.3-0.3,0.7-0.6,1-0.9c0.5,0.3,1,0.5,1.5,0.7c0.5,0.1,1.1,0.2,1.7,0.2c2.4,0,4.5-1.4,5.6-3.4c0-0.1,0.1-0.2,0.1-0.2
			c0.2,0.1,0.4,0.1,0.6,0.1c0.4,0.1,0.7,0.1,1.1,0.1c2.4,0,4.5-1.4,5.6-3.4c0-0.1,0.1-0.2,0.1-0.2c0.2,0.1,0.4,0.1,0.6,0.1
			c0.4,0.1,0.7,0.1,1.1,0.1c1.6,0,3.1-0.6,4.2-1.7c0.3-0.2,0.5-0.5,0.7-0.7c0.4,0.2,0.9,0.4,1.3,0.5c0.5,0.1,1.1,0.2,1.6,0.2
			c0.7,0,1.3-0.1,1.9-0.3c0.9-0.3,1.7-0.7,2.3-1.4c0.6,0.5,1.3,0.9,2,1.1c0.6,0.2,1.2,0.3,1.9,0.3c0.7,0,1.3-0.1,1.9-0.3
			c0.9-0.3,1.6-0.7,2.3-1.3c0.6,0.5,1.3,0.9,2.1,1.1c0.6,0.2,1.2,0.3,1.9,0.3c0.7,0,1.3-0.1,1.9-0.3c0.8-0.3,1.6-0.7,2.3-1.3
			c0.6,0.5,1.3,0.9,2.1,1.1c0.6,0.2,1.2,0.3,1.9,0.3c1.4,0,2.6-0.4,3.7-1.2c0.4-0.3,0.7-0.6,1.1-1c0.5,0.3,1,0.5,1.5,0.7
			c0.6,0.2,1.2,0.3,1.8,0.3c1.5,0,2.9-0.5,3.9-1.4c0.3-0.3,0.6-0.6,0.9-0.9c0.4,0.3,0.9,0.5,1.4,0.6c0.6,0.2,1.2,0.3,1.8,0.3
			c1.1,0,2-0.3,2.9-0.7c0.6-0.3,1.1-0.7,1.6-1.2c0.5,0.4,1.1,0.7,1.8,0.9c0.6,0.2,1.2,0.3,1.9,0.3s1.3-0.1,1.9-0.3
			c0.8-0.3,1.6-0.7,2.2-1.2c0.6,0.5,1.4,1,2.2,1.2c0.6,0.2,1.2,0.3,1.9,0.3c0.7,0,1.3-0.1,1.9-0.3c0.6-0.2,1.2-0.5,1.8-0.9
			c0.5,0.5,1,0.9,1.6,1.2c0.9,0.5,1.8,0.7,2.9,0.7c0.6,0,1.2-0.1,1.7-0.2c0.4-0.1,0.9-0.3,1.3-0.5c0.2,0.3,0.4,0.5,0.7,0.8
			c1.1,1.1,2.6,1.7,4.3,1.7c0.6,0,1.1-0.1,1.6-0.2c0.4-0.1,0.7-0.2,1-0.4c0.1,0.2,0.3,0.4,0.4,0.6c1.1,1.3,2.9,2.2,4.8,2.2
			c0.5,0,0.9-0.1,1.3-0.1c0.3-0.1,0.5-0.1,0.7-0.2c0.1,0.1,0.1,0.2,0.2,0.4c1.1,1.8,3.1,3,5.3,3c0.2,0,0.5,0,0.7,0
			c0.1,0,0.2,0,0.3-0.1c0,0,0,0.1,0,0.1c0.9,2.4,3.2,4.2,5.9,4.2c0.5,0,1-0.1,1.4-0.2c0.4-0.1,0.7-0.2,1-0.3
			c0.1,0.2,0.2,0.3,0.4,0.5c1.1,1.4,2.9,2.3,4.9,2.3c0.5,0,1-0.1,1.5-0.2c0.3-0.1,0.6-0.2,0.9-0.3c0.1,0.2,0.2,0.3,0.3,0.5
			c1.1,1.5,3,2.5,5,2.5c0.1,0,0.2,0,0.3,0c0.1,0,0.2,0,0.2,0c0,0,0,0,0,0c0.6,2.3,2.5,4,4.9,4.4c0,0,0,0,0,0c0,0,0,0.1,0,0.1
			c0,0,0,0,0,0c0,3.4,2.8,6.2,6.2,6.2s6.2-2.8,6.2-6.2C307,199.4,304.8,196.9,301.9,196.4z"/>
	</g>
	<g>
		<g>
			<g>
				<polygon class="st19" points="265.1,117.2 253.1,88.5 216,88.5 178.9,88.5 166.9,117.2 167.7,225.9 265.1,225.9 265.1,117.2 
									"/>
				<polygon class="st3" points="265.1,225.9 265.1,117.2 166.9,117.2 167.7,225.9 				"/>
				<polygon points="222.1,167.4 222.1,117.2 222.1,117.2 219.7,88.5 212.3,88.5 209.9,117.2 209.9,117.2 209.9,167.4 167.3,167.4 
					167.4,179.5 209.9,179.5 209.9,225.9 222.1,225.9 222.1,179.5 265.1,179.5 265.1,167.4 				"/>
			</g>
			<path class="st20" d="M246.9,89.5c-2.9,1.3-6.1,2.7-9.4,3.9c-3.3,1.2-6.7,2.2-9.7,2.9c-2.6,0.6-4.9,1-6.8,1.2
				c0.4-0.7,0.8-1.4,1.1-2c1.9-3.2,9.1-20.1,10.4-23.9l-10.3-3.1c-0.5,2.1-5.9,17.2-6.2,19.7c-0.7-3.7-7.2-19.9-8.4-23.3l-10,4.1
				c1.9,4.1,10,21,12.2,24.9c0.6,1.1,1.2,2.4,1.8,3.7c-1.8-0.3-4-0.6-6.4-1.2c-3.1-0.7-6.4-1.7-9.7-2.9c-3.3-1.2-6.5-2.6-9.4-3.9
				l-5.3,12.9c3.6,1.4,7.8,2.4,12,2.9c4.2,0.5,8.3,0.5,11.9,0.2c3.6-0.3,6.6-0.9,8.8-1.4c1.5-0.4,2.6-0.7,3.1-0.8
				c0.5,0.1,1.5,0.4,3.1,0.8c2.1,0.5,5.2,1.1,8.8,1.4c3.6,0.3,7.7,0.3,11.9-0.2c4.2-0.5,8.3-1.5,12-2.9L246.9,89.5z"/>
		</g>
		<g>
			<polygon class="st20" points="190.3,202.6 179.5,128.7 115.9,148.7 149.4,215.4 			"/>
			<path d="M152.1,138.8c1.5-0.2,3.4-0.4,5.4-0.9c2.8-0.6,6-1.6,9.1-3c3.1-1.4,6-3.2,8.5-5.1l-7.2-8.6c-1.9,1.7-4,3.5-6.3,5.2
				c-2.2,1.7-4.6,3.3-6.8,4.6c-1.8,1.1-3.6,1.9-4.9,2.6c0.1-0.7,0.2-1.3,0.4-1.8c0.7-3,2.1-17.6,2.2-20.9l-8.7,0.1
				c0.1,1.7-0.3,14.7,0,16.6c-1.4-2.7-10.3-13.5-12.1-15.9l-6.7,5.5c2.5,2.7,12.8,13.7,15.4,16.1c0.7,0.7,1.5,1.6,2.3,2.4
				c-1.4,0.2-3.2,0.5-5.2,0.6c-2.5,0.2-5.4,0.3-8.2,0.1c-2.8-0.1-5.6-0.4-8.1-0.7l-0.9,11.1c3.1,0.2,6.6-0.1,9.9-0.7
				c3.3-0.6,6.5-1.6,9.2-2.7c1.9-0.8,3.6-1.6,4.9-2.4l9.4,29.9l-22.8,7.2l3.7,7.4l21.6-6.8l9.8,31.2l7.8-2.5l-9.8-31.2l21.6-6.8
				l-1.2-8.2l-22.8,7.2L152.1,138.8z"/>
		</g>
		<g>
			<polygon points="242.4,200.3 253.2,126.5 316.8,146.5 283.3,213.2 			"/>
			<path class="st20" d="M280.7,136.6c-1.5-0.2-3.4-0.4-5.4-0.9c-2.8-0.6-6-1.6-9.1-3c-3.1-1.4-6-3.2-8.5-5.1l7.2-8.6
				c1.9,1.7,4,3.5,6.3,5.2c2.2,1.7,4.6,3.3,6.8,4.6c1.8,1.1,3.6,1.9,4.9,2.6c-0.1-0.7-0.2-1.3-0.4-1.8c-0.7-3-2.1-17.6-2.2-20.9
				l8.7,0.1c-0.1,1.7,0.3,14.7,0,16.6c1.4-2.7,10.3-13.5,12.1-15.9l6.7,5.5c-2.5,2.7-12.8,13.7-15.4,16.1c-0.7,0.7-1.5,1.6-2.3,2.4
				c1.4,0.2,3.2,0.5,5.2,0.6c2.5,0.2,5.4,0.3,8.2,0.1c2.8-0.1,5.6-0.4,8.1-0.7l0.9,11.1c-3.1,0.2-6.6-0.1-9.9-0.7
				c-3.3-0.6-6.5-1.6-9.2-2.7c-1.9-0.8-3.6-1.6-4.9-2.4l-9.4,29.9l22.8,7.2l-3.7,7.4l-21.6-6.8l-9.8,31.2l-7.8-2.5l9.8-31.2
				l-21.6-6.8l1.2-8.2l22.8,7.2L280.7,136.6z"/>
		</g>
	</g>
	<g>
		<path class="st3" d="M300.8,202.5c-9.3,4-48.3-1.6-55.6-3.3c-5.8-1.3-11.6,2.2-17.3,3.2c-14.3,2.4-16.7-8.7-35.8-2.9
			c-26.8,8.1-43.5-0.7-63.3-0.6c-4.7,7.6-2.3,18.8-6.3,28c-23.2,54-34.1,125.6,43.1,136.1c183.8,25,175.3-66.9,142.5-133.2
			C304.1,221.8,305.3,209.4,300.8,202.5z"/>
		<g>
			<path d="M317.5,221.2c-2.2-4.4-8.5-5-12.8-5.3c0.4,2.5,0.7,5,1.3,7.4c1.4,0.3,2.7,0.7,4.1,0.9c-0.5,0.4-1.1,0.8-1,0.8
				c-0.7,0.5-1.5,1-2.3,1.4c-1.9,1.1-4,2.1-6,3c-6,2.8-12.4,4.8-18.8,6.5c-15,3.9-30.6,5.5-46.1,6.1c-32,1.3-64.6-1.5-95.8-8.7
				c-5.9-1.4-12.5-2.6-18.2-4.8c-0.7-0.3-1.3-0.5-2-0.8c-0.8-0.4-1.7-0.9-2.2-1.6c-0.3-0.4-0.2-0.8-0.3-0.8c1-1.7,3.9-2.2,6.4-2.3
				c0.6-2.3,0.9-4.8,1.2-7.2c-6.3,0.3-15.3,2.3-14.8,10.1c0.3,5.1,4.6,7.5,9,9.1c1.6,0.6,3.3,1.1,4.8,1.5c16.5,4.9,33.6,7.9,50.6,10
				c19.7,2.4,39.5,3.4,59.3,2.8c18.1-0.6,36.6-2.5,54.1-7.6c7.4-2.2,14.9-4.9,21.6-8.8c0.7-0.4,1.4-0.8,2.2-1.3
				C315.3,229.5,319.8,225.8,317.5,221.2z"/>
			<path class="st5" d="M208.6,237.2v17.4h14.7v-17.4H208.6z M212.4,250.9V241h7.1v9.9H212.4z"/>
		</g>
		<g>
			<circle cx="216" cy="284.3" r="5.1"/>
			<circle cx="216" cy="308.3" r="5.1"/>
			<circle cx="216" cy="332.3" r="5.1"/>
		</g>
		<path class="st18" d="M300.8,196.3c-1.4,0-2.7,0.5-3.7,1.3c-0.4,0.3-0.7,0.6-1,1c-0.5-0.3-1-0.5-1.5-0.7c-0.6-0.2-1.2-0.3-1.8-0.3
			c-0.7,0-1.3,0.1-1.9,0.3c-0.8,0.3-1.5,0.7-2.1,1.2c-0.6-0.6-1.4-1-2.2-1.3c-0.6-0.2-1.2-0.3-1.9-0.3c-0.7,0-1.3,0.1-1.9,0.3
			c-0.7,0.2-1.4,0.6-2,1c-0.6-0.6-1.3-1-2.1-1.3c-0.7-0.2-1.4-0.4-2.1-0.4c-0.7,0-1.3,0.1-1.9,0.3c-0.6,0.2-1.2,0.5-1.8,0.9
			c-0.4-0.5-1-0.9-1.5-1.2c-0.9-0.5-1.9-0.7-3-0.7c-0.6,0-1.3,0.1-1.8,0.3c-0.6,0.2-1.1,0.5-1.7,0.8c-0.4-0.4-0.8-0.8-1.3-1.1
			c-1-0.6-2.1-1-3.3-1c-0.6,0-1.3,0.1-1.8,0.3c-0.6,0.2-1.1,0.4-1.6,0.7c-0.3-0.4-0.7-0.7-1.1-1c-1-0.7-2.2-1.1-3.5-1.1
			c-0.6,0-1.2,0.1-1.8,0.3c-0.6,0.2-1.1,0.4-1.5,0.7c-0.3-0.4-0.7-0.7-1.1-1c-1-0.7-2.3-1.2-3.6-1.2c-1.1,0-2.1,0.3-3,0.8
			c-0.6,0.3-1.1,0.7-1.5,1.2c-0.5-0.4-1.1-0.7-1.7-0.9c-0.6-0.2-1.2-0.3-1.9-0.3c-1.9,0-3.6,0.9-4.8,2.2c-0.2,0.2-0.3,0.4-0.4,0.6
			c-0.3-0.2-0.7-0.3-1-0.4c-0.5-0.1-1-0.2-1.6-0.2c-0.7,0-1.3,0.1-1.9,0.3c-0.8,0.2-1.5,0.6-2.1,1.2c-0.6-0.6-1.4-1-2.2-1.3
			c-0.6-0.2-1.2-0.3-1.9-0.3c-0.5,0-1,0.1-1.5,0.2c-0.3,0.1-0.7,0.2-1,0.3c-0.1-0.2-0.3-0.4-0.4-0.5c-1.1-1.4-2.9-2.3-4.8-2.3
			c-0.6,0-1.2,0.1-1.7,0.2c-0.4,0.1-0.8,0.3-1.2,0.5c-0.2-0.3-0.4-0.5-0.6-0.7c-1.1-1.1-2.7-1.9-4.4-1.9c-1.2,0-2.3,0.3-3.2,0.9
			c-0.5,0.3-0.9,0.7-1.3,1.1c-0.5-0.3-1.1-0.6-1.7-0.8c-0.6-0.2-1.2-0.3-1.8-0.3c-1.4,0-2.7,0.5-3.8,1.3c-0.4,0.3-0.7,0.6-1,0.9
			c-0.5-0.3-0.9-0.5-1.5-0.7c-0.6-0.2-1.2-0.3-1.8-0.3c-1.5,0-2.9,0.5-4,1.4c-0.3,0.3-0.6,0.6-0.9,0.9c-0.4-0.3-0.9-0.5-1.4-0.6
			c-0.6-0.2-1.2-0.3-1.8-0.3c-1.3,0-2.5,0.4-3.6,1.1c-0.4,0.3-0.8,0.6-1.1,1c-0.5-0.3-1-0.6-1.6-0.7c-0.6-0.2-1.2-0.3-1.8-0.3
			c-0.7,0-1.3,0.1-1.9,0.3c-0.7,0.2-1.4,0.6-2,1.1c-0.7-0.6-1.4-1.1-2.3-1.4c-0.6-0.2-1.3-0.3-2-0.3c-0.7,0-1.3,0.1-1.9,0.3
			c-0.7,0.2-1.3,0.6-1.9,1c-0.5-0.5-1.2-1-1.9-1.3c-0.8-0.3-1.6-0.5-2.5-0.5c-0.6,0-1.2,0.1-1.8,0.3c-0.5,0.2-1.1,0.4-1.5,0.7
			c-0.3-0.4-0.7-0.7-1.1-1c-1-0.7-2.3-1.2-3.6-1.2c-0.6,0-1.3,0.1-1.8,0.3c-0.6,0.2-1.1,0.5-1.6,0.8c-0.4-0.4-0.8-0.8-1.3-1.1
			c-1-0.6-2.1-1-3.3-1c-0.7,0-1.3,0.1-1.9,0.3c-0.7,0.2-1.3,0.5-1.8,0.9c-0.5-0.5-1-0.9-1.6-1.2c-0.8-0.4-1.8-0.7-2.8-0.7
			c-3.4,0-6.2,2.8-6.2,6.2s2.8,6.2,6.2,6.2c0.7,0,1.3-0.1,1.9-0.3c0.7-0.2,1.3-0.5,1.8-0.9c0.5,0.5,1,0.9,1.6,1.2
			c0.8,0.4,1.8,0.7,2.8,0.7c0.6,0,1.3-0.1,1.8-0.3c0.6-0.2,1.1-0.5,1.6-0.8c0.4,0.4,0.8,0.8,1.3,1.1c1,0.6,2.1,1,3.3,1
			c0.6,0,1.2-0.1,1.8-0.3c0.5-0.2,1.1-0.4,1.5-0.7c0.3,0.4,0.7,0.7,1.1,1c1,0.7,2.3,1.2,3.6,1.2c0.7,0,1.3-0.1,1.9-0.3
			c0.7-0.2,1.3-0.6,1.9-1c0.5,0.5,1.2,1,1.9,1.3c0.8,0.3,1.6,0.5,2.5,0.5c0.7,0,1.3-0.1,1.9-0.3c0.7-0.2,1.4-0.6,2-1.1
			c0.7,0.6,1.4,1.1,2.3,1.4c0.6,0.2,1.3,0.3,2,0.3c1.3,0,2.5-0.4,3.6-1.1c0.4-0.3,0.8-0.6,1.1-1c0.5,0.3,1,0.6,1.6,0.7
			c0.6,0.2,1.2,0.3,1.8,0.3c1.5,0,2.9-0.5,4-1.4c0.3-0.3,0.6-0.6,0.9-0.9c0.4,0.3,0.9,0.5,1.4,0.6c0.6,0.2,1.2,0.3,1.8,0.3
			c1.4,0,2.7-0.5,3.8-1.3c0.4-0.3,0.7-0.6,1-0.9c0.5,0.3,0.9,0.5,1.5,0.7c0.6,0.2,1.2,0.3,1.8,0.3c1.2,0,2.3-0.3,3.2-0.9
			c0.5-0.3,0.9-0.7,1.3-1.1c0.5,0.3,1.1,0.6,1.7,0.8c0.6,0.2,1.2,0.3,1.8,0.3c0.6,0,1.2-0.1,1.7-0.2c0.4-0.1,0.8-0.3,1.2-0.5
			c0.2,0.3,0.4,0.5,0.6,0.7c1.1,1.1,2.7,1.9,4.4,1.9c0.5,0,1-0.1,1.5-0.2c0.3-0.1,0.7-0.2,1-0.3c0.1,0.2,0.3,0.4,0.4,0.5
			c1.1,1.4,2.9,2.3,4.8,2.3c0.7,0,1.3-0.1,1.9-0.3c0.8-0.2,1.5-0.6,2.1-1.2c0.6,0.6,1.4,1,2.2,1.3c0.6,0.2,1.2,0.3,1.9,0.3
			c1.9,0,3.6-0.9,4.8-2.2c0.2-0.2,0.3-0.4,0.4-0.6c0.3,0.2,0.7,0.3,1,0.4c0.5,0.1,1,0.2,1.6,0.2c1.1,0,2.1-0.3,3-0.8
			c0.6-0.3,1.1-0.7,1.5-1.2c0.5,0.4,1.1,0.7,1.7,0.9c0.6,0.2,1.2,0.3,1.9,0.3c0.6,0,1.2-0.1,1.8-0.3c0.6-0.2,1.1-0.4,1.5-0.7
			c0.3,0.4,0.7,0.7,1.1,1c1,0.7,2.3,1.2,3.6,1.2c0.6,0,1.3-0.1,1.8-0.3c0.6-0.2,1.1-0.4,1.6-0.7c0.3,0.4,0.7,0.7,1.1,1
			c1,0.7,2.2,1.1,3.5,1.1c0.6,0,1.3-0.1,1.8-0.3c0.6-0.2,1.1-0.5,1.7-0.8c0.4,0.4,0.8,0.8,1.3,1.1c1,0.6,2.1,1,3.3,1
			c0.7,0,1.3-0.1,1.9-0.3c0.6-0.2,1.2-0.5,1.8-0.9c0.4,0.5,1,0.9,1.5,1.2c0.9,0.5,1.9,0.7,3,0.7c0.7,0,1.3-0.1,1.9-0.3
			c0.7-0.2,1.4-0.6,2-1c0.6,0.6,1.3,1,2.1,1.3c0.7,0.2,1.4,0.4,2.1,0.4c0.7,0,1.3-0.1,1.9-0.3c0.8-0.3,1.5-0.7,2.1-1.2
			c0.6,0.6,1.4,1,2.2,1.3c0.6,0.2,1.2,0.3,1.9,0.3c1.4,0,2.7-0.5,3.7-1.3c0.4-0.3,0.7-0.6,1-1c0.5,0.3,1,0.5,1.5,0.7
			c0.6,0.2,1.2,0.3,1.8,0.3c3.4,0,6.2-2.8,6.2-6.2S304.2,196.3,300.8,196.3z"/>
	</g>
</g>
</svg>
