<?xml version="1.0" encoding="UTF-8" standalone="no"?>
<!-- Generator: Adobe Illustrator 22.0.0, SVG Export Plug-In . SVG Version: 6.00 Build 0)  -->

<svg
   xmlns:dc="http://purl.org/dc/elements/1.1/"
   xmlns:cc="http://creativecommons.org/ns#"
   xmlns:rdf="http://www.w3.org/1999/02/22-rdf-syntax-ns#"
   xmlns:svg="http://www.w3.org/2000/svg"
   xmlns="http://www.w3.org/2000/svg"
   xmlns:sodipodi="http://sodipodi.sourceforge.net/DTD/sodipodi-0.dtd"
   xmlns:inkscape="http://www.inkscape.org/namespaces/inkscape"
   version="1.1"
   id="Calque_1"
   x="0px"
   y="0px"
   viewBox="0 0 373.43475 472.60587"
   xml:space="preserve"
   inkscape:version="0.91 r13725"
   sodipodi:docname="gifts-4701.svg"
   width="373.43475"
   height="472.60587"><metadata
     id="metadata81"><rdf:RDF><cc:Work
         rdf:about=""><dc:format>image/svg+xml</dc:format><dc:type
           rdf:resource="http://purl.org/dc/dcmitype/StillImage" /><dc:title></dc:title></cc:Work></rdf:RDF></metadata><defs
     id="defs79" /><sodipodi:namedview
     pagecolor="#ffffff"
     bordercolor="#666666"
     borderopacity="1"
     objecttolerance="10"
     gridtolerance="10"
     guidetolerance="10"
     inkscape:pageopacity="0"
     inkscape:pageshadow="2"
     inkscape:window-width="1440"
     inkscape:window-height="817"
     id="namedview77"
     showgrid="false"
     fit-margin-top="0"
     fit-margin-left="0"
     fit-margin-right="0"
     fit-margin-bottom="0"
     inkscape:zoom="0.5462963"
     inkscape:cx="93.400003"
     inkscape:cy="151.20167"
     inkscape:window-x="0"
     inkscape:window-y="1"
     inkscape:window-maximized="1"
     inkscape:current-layer="Calque_1" /><style
     type="text/css"
     id="style3">
	.st0{fill:#020203;}
	.st1{fill:#F3D4AA;}
	.st2{fill:#C1292E;}
	.st3{fill:#E7E6E6;}
	.st4{fill:#A81922;}
	.st5{fill:#D6A14D;}
	.st6{fill:#E580A9;}
	.st7{fill:#FFF0BA;}
	.st8{fill:#972021;}
	.st9{fill:#D06C5D;}
	.st10{fill:#36502D;}
	.st11{fill:#79986F;}
	.st12{fill:#EB5B28;}
	.st13{fill:#A67D52;}
	.st14{fill:#F2F2F2;}
	.st15{fill:#066938;}
	.st16{fill:#009245;}
	.st17{fill:#CDCCCC;}
	.st18{fill:#AE8864;}
	.st19{fill:#412413;}
	.st20{fill:#8C633A;}
	.st21{fill:#F39323;}
	.st22{fill:#F9B03D;}
	.st23{fill:#C69C6C;}
	.st24{fill:#2FBAD7;}
	.st25{fill:#DAA405;}
	.st26{fill:#808181;}
	.st27{fill:#8E3089;}
	.st28{fill:#1861A9;}
	.st29{fill:#D4175B;}
	.st30{fill:#E3D65E;}
	.st31{fill:#C7B29A;}
	.st32{fill:#603914;}
	.st33{fill:#998675;}
	.st34{fill:#746458;}
	.st35{fill:#EAA35C;}
	.st36{fill:#A3282E;}
	.st37{fill:#DC7B18;}
	.st38{fill:#B88E5C;}
	.st39{fill:#C67B3E;}
	.st40{fill:#C74A54;}
	.st41{fill:#48AE4D;}
	.st42{fill:#9A9999;}
	.st43{fill:#6F1131;}
	.st44{fill:#EFAE5D;}
	.st45{fill:#BB7E28;}
	.st46{fill:#C8904C;}
	.st47{fill:#BB7926;}
	.st48{fill:#C68448;}
	.st49{fill:#D79A5D;}
	.st50{fill:#82171C;}
	.st51{fill:#754D24;}
	.st52{fill:#EAD797;}
	.st53{fill:#B4B4B4;}
	.st54{fill:#4E4D4D;}
	.st55{fill:#014837;}
	.st56{fill:#28285B;}
	.st57{fill:#8EC045;}
	.st58{fill:#6BC4CD;}
	.st59{fill:#699CBB;}
	.st60{fill:#6D8E5F;}
</style><g
     id="g5"
     transform="matrix(1.999941,0,0,1.5630125,-245.19277,-101.33493)"><g
       id="g7"><polygon
         class="st7"
         points="256.4,89.1 257.2,93.8 253,91.6 248.7,93.9 249.5,89.1 246,85.8 250.8,85.1 252.9,80.8 255,85.1 259.8,85.7 "
         id="polygon9"
         style="fill:#fff0ba" /><polygon
         class="st7"
         points="138.5,181.2 139.8,188.5 133.2,185.1 126.7,188.6 127.9,181.3 122.6,176.2 129.9,175.1 133.1,168.5 136.4,175.1 143.7,176.1 "
         id="polygon11"
         style="fill:#fff0ba" /><polygon
         class="st7"
         points="293,248.4 294.3,255.6 287.7,252.2 281.2,255.7 282.4,248.4 277.1,243.3 284.4,242.2 287.6,235.6 290.9,242.2 298.2,243.2 "
         id="polygon13"
         style="fill:#fff0ba" /><polygon
         class="st7"
         points="174.3,337.9 180.8,347.3 169.4,346.8 162.4,356 159.4,344.9 148.5,341.1 158.1,334.8 158.4,323.3 167.3,330.5 178.3,327.2 "
         id="polygon15"
         style="fill:#fff0ba" /></g><g
       id="g17"><path
         class="st8"
         d="M 230.9,215.9 186.2,230 c 1.2,-4.4 2.5,-9.2 3.3,-14 0.4,-1.9 0.6,-3.7 0.9,-5.5 1.2,-10.2 0,-18.5 -7.5,-17.6 -11.3,1.4 -5.2,23.4 0.4,35.4 0.1,0.1 0.1,0.3 0.2,0.4 -0.1,0 -0.1,0.1 -0.2,0.1 l -0.7,0.5 c 0,0 0,0 -0.1,0.1 0,0 -0.1,-0.1 -0.1,-0.1 -8.4,-8.5 -19.8,-17.7 -23.2,-10 -3.1,7.1 10.5,11.3 20.3,12.6 l -43,13.6 18.5,54.9 93.1,-32 -17.2,-52.5 z m -47.3,-13 c 4.1,-0.5 5.1,3.5 4.7,8.7 l 0,0 c -0.1,0.9 -0.2,1.7 -0.3,2.6 -0.6,4.2 -1.8,8.8 -2.9,12.6 -3.5,-6 -9.3,-23 -1.5,-23.9 z m -17.7,19.8 c 2.3,-5.2 10.6,2.3 15.7,7.7 0.1,0.1 0.1,0.1 0.2,0.2 -0.1,0 -0.2,0 -0.4,0 -5.4,-0.1 -17.7,-2.7 -15.5,-7.9 z"
         id="path19"
         inkscape:connector-curvature="0"
         style="fill:#972021" /><g
         id="g21"><circle
           transform="matrix(0.9732,-0.2298,0.2298,0.9732,-55.4002,44.3428)"
           class="st7"
           cx="162.7"
           cy="260.10001"
           id="ellipse23"
           r="5.1999998"
           style="fill:#fff0ba" /><circle
           transform="matrix(0.7071,-0.7071,0.7071,0.7071,-140.6188,208.5383)"
           class="st7"
           cx="181.39999"
           cy="274"
           id="ellipse25"
           r="5.1999998"
           style="fill:#fff0ba" /><circle
           transform="matrix(0.9732,-0.2298,0.2298,0.9732,-54.4451,48.7303)"
           class="st7"
           cx="182"
           cy="258.20001"
           id="ellipse27"
           r="5.1999998"
           style="fill:#fff0ba" /><circle
           class="st7"
           cx="197.60001"
           cy="237.5"
           r="5.1999998"
           id="circle29"
           style="fill:#fff0ba" /><circle
           class="st7"
           cx="209.2"
           cy="262.39999"
           r="5.1999998"
           id="circle31"
           style="fill:#fff0ba" /><circle
           transform="matrix(0.3827,-0.9239,0.9239,0.3827,-87.0222,350.7278)"
           class="st7"
           cx="218.89999"
           cy="240.5"
           id="ellipse33"
           r="5.1999998"
           style="fill:#fff0ba" /><circle
           transform="matrix(0.3827,-0.9239,0.9239,0.3827,-99.1118,376.4796)"
           class="st7"
           cx="232.2"
           cy="262.39999"
           id="ellipse35"
           r="5.1999998"
           style="fill:#fff0ba" /><circle
           transform="matrix(0.9732,-0.2298,0.2298,0.9732,-61.9534,44.3619)"
           class="st7"
           cx="159.5"
           cy="288.20001"
           id="ellipse37"
           r="5.1999998"
           style="fill:#fff0ba" /><circle
           transform="matrix(0.3827,-0.9239,0.9239,0.3827,-140.5829,289.1219)"
           class="st7"
           cx="146.10001"
           cy="249.8"
           id="ellipse39"
           r="5.1999998"
           style="fill:#fff0ba" /><circle
           transform="matrix(0.9871,-0.1602,0.1602,0.9871,-36.4177,31.1262)"
           class="st7"
           cx="174.89999"
           cy="241.39999"
           id="ellipse41"
           r="5.1999998"
           style="fill:#fff0ba" /><circle
           transform="matrix(0.9732,-0.2298,0.2298,0.9732,-58.5308,53.1184)"
           class="st7"
           cx="198.8"
           cy="277.89999"
           id="ellipse43"
           r="3.5999999"
           style="fill:#fff0ba" /><circle
           transform="matrix(0.7071,-0.7071,0.7071,0.7071,-145.2034,197.9698)"
           class="st7"
           cx="166.39999"
           cy="274.29999"
           id="ellipse45"
           r="3.5999999"
           style="fill:#fff0ba" /><circle
           transform="matrix(0.7071,-0.7071,0.7071,0.7071,-93.4563,226.064)"
           class="st7"
           cx="226.2"
           cy="225.8"
           id="ellipse47"
           r="3.5999999"
           style="fill:#fff0ba" /><circle
           transform="matrix(0.7071,-0.7071,0.7071,0.7071,-118.2735,214.9678)"
           class="st7"
           cx="200.39999"
           cy="250.3"
           id="ellipse49"
           r="3.5999999"
           style="fill:#fff0ba" /><circle
           transform="matrix(0.7071,-0.7071,0.7071,0.7071,-106.4705,239.4548)"
           class="st7"
           cx="235.8"
           cy="248.2"
           id="ellipse51"
           r="3.5999999"
           style="fill:#fff0ba" /></g></g><g
       id="g53"><polygon
         class="st9"
         points="200.5,150.1 194.7,151.7 169.2,158.4 168.4,137.8 168.2,132.6 167.4,111.1 192,104.1 198.6,102.2 229.5,93.3 229,117.1 228.9,123.4 228.5,142.7 "
         id="polygon55"
         style="fill:#d06c5d" /><path
         class="st8"
         d="m 228.9,123.4 0.1,-6.4 -29.6,7.6 -0.9,-22.4 -0.7,0.2 -0.1,-0.1 c 0,0 0,0 0,0 1.3,-4.5 2.5,-9.4 3.4,-14.3 0.4,-1.9 0.6,-3.7 0.9,-5.5 1.2,-10.2 0,-18.5 -7.5,-17.6 -11.3,1.4 -5.2,23.4 0.4,35.4 0.1,0.1 0.1,0.3 0.2,0.4 -0.1,0 -0.1,0.1 -0.2,0.1 l -0.7,0.5 c 0,0 0,0 -0.1,0.1 0,0 -0.1,-0.1 -0.1,-0.1 -8.4,-8.5 -19.8,-17.7 -23.2,-10 -3.1,7.3 11.1,11.5 20.9,12.7 l 0,0 1.3,22.1 -25,6.4 0.2,5.2 25.1,-6 1.1,19.8 5.8,-1.5 -0.8,-19.7 0,0 29.5,-6.9 z M 195.3,74.8 c 4.1,-0.5 5.1,3.5 4.7,8.7 l 0,0 c -0.1,0.9 -0.2,1.7 -0.3,2.6 -0.6,4.2 -1.8,8.8 -2.9,12.6 -3.5,-6 -9.3,-22.9 -1.5,-23.9 z m -17.7,19.8 c 2.3,-5.2 10.6,2.3 15.7,7.7 0.1,0.1 0.1,0.1 0.2,0.2 -0.1,0 -0.2,0 -0.4,0 -5.4,0 -17.7,-2.7 -15.5,-7.9 z"
         id="path57"
         inkscape:connector-curvature="0"
         style="fill:#972021" /></g><g
       id="g59"><path
         class="st10"
         d="m 306.5,321.6 c 0,0 -3.6,5.2 -8.4,12 -0.6,0.9 -1.2,1.7 -1.9,2.6 -9.5,13.4 -22.2,31.2 -23.1,31 -0.4,-0.1 -4.9,-2.2 -11.4,-5.2 -1,-0.5 -2.1,-1 -3.2,-1.5 -4,-1.9 -8.6,-4 -13.2,-6.2 -1.1,-0.5 -2.2,-1 -3.2,-1.5 -15.3,-7.2 -30.4,-14.3 -30.4,-14.3 l 4.9,-42.6 0.4,-3.5 1.5,-13.2 47.3,22.8 0.8,0.4 3.2,1.5 0,0 15.7,7.5 0.8,0.4 2.5,1.2 0.6,0.3 17.1,8.3 z"
         id="path61"
         inkscape:connector-curvature="0"
         style="fill:#36502d" /><path
         class="st11"
         d="m 289.6,312.9 c 8.8,-1.8 19.8,-5.2 16.2,-10.5 -3.2,-4.9 -11.5,2 -16.3,7.7 -0.4,0.5 -0.9,1 -1.2,1.5 0,0 -0.1,0 -0.1,-0.1 l -0.4,-0.2 c 0,0 0,0 0,0 0.2,-0.5 0.4,-1.1 0.5,-1.6 1.3,-4.2 2.3,-8.8 1.2,-11 0,-0.1 -0.1,-0.1 -0.1,-0.2 9.6,-3.5 16.4,-8.3 12.3,-14.5 -6.3,-9.5 -23.3,5.8 -31.5,16.2 -0.1,0.1 -0.2,0.2 -0.3,0.4 -0.1,0 -0.1,-0.1 -0.2,-0.1 l -0.8,-0.4 c 0,0 0,0 -0.1,0 0,0 0,-0.1 0,-0.2 3.8,-11.3 7,-25.7 -1.4,-25.2 -8.4,0.5 -5,17.1 -1.4,26.2 0.2,0.4 0.3,0.7 0.5,1.1 l -0.2,0.3 0,0 -0.5,-0.2 -5.7,12.3 -43,-21.9 -0.4,3.5 42.1,21.3 -16.8,35.5 c 1.1,0.5 2.2,1 3.2,1.5 l 17.1,-35.2 14.7,7.5 -18.6,33.9 c 1.1,0.5 2.2,1 3.2,1.5 l 19.1,-33.5 15.4,7.8 c 0.6,-0.9 1.3,-1.8 1.9,-2.6 l -15.7,-8 7,-12.3 -0.6,-0.3 c 0.3,-0.1 0.6,-0.2 0.9,-0.2 l 0,0 z m -2.1,-3.5 c -0.2,0.6 -0.4,1.2 -0.6,1.7 -0.2,-0.4 -0.4,-0.9 -0.6,-1.4 0,0 0,0 0,0 -1.1,-3.1 -2.1,-8.2 0.6,-8.4 2.8,-0.2 1.8,4.3 0.6,8.1 z m 5.4,-20.5 c 2.3,3.4 -0.8,6.1 -5.7,8.2 l 0,0 c -0.2,0.1 -0.3,0.1 -0.5,0.2 -0.5,0.1 -0.9,0.2 -1.2,0.5 -0.2,0.1 -0.5,0.2 -0.7,0.3 -4,1.4 -8.7,2.4 -12.6,3 3.8,-6 16.4,-18.7 20.7,-12.2 z m -25.6,-7 c 5.7,-0.3 2.7,10.5 0.1,17.5 0,0.1 -0.1,0.2 -0.1,0.3 0,-0.1 -0.1,-0.2 -0.2,-0.3 -2.3,-5 -5.4,-17.2 0.2,-17.5 z m 18.1,29.5 -6.8,12.3 -14.9,-7.6 6,-12.3 0,0 -0.3,-0.1 0,0 0.1,-0.2 c 0,0 0,0 0,0 4.6,-0.9 9.6,-1.9 14.3,-3.3 0.1,0 0.2,-0.1 0.3,-0.1 0,0.1 0,0.2 -0.1,0.3 -0.5,2.9 0.5,7.2 1.6,10.4 l 0,0 c 0.1,0.4 0.3,0.8 0.4,1.1 l -0.6,-0.5 z m 5.3,-1 c 2.8,-3.5 8.3,-8.4 10.4,-5.2 2.3,3.5 -5.3,5.6 -10.8,6.6 -0.2,0 -0.5,0.1 -0.7,0.1 0.3,-0.5 0.6,-1 1.1,-1.5 z"
         id="path63"
         inkscape:connector-curvature="0"
         style="fill:#79986f" /></g><g
       id="g65"><polygon
         class="st9"
         points="236.7,215.8 223.5,215.3 210.9,214.8 197.6,214.3 202,149.5 215.4,150.5 228.7,151.6 242.8,152.6 257.9,153.8 271.6,154.8 284.4,155.8 277.1,217.5 264.7,217 250.6,216.4 "
         id="polygon67"
         style="fill:#d06c5d" /><g
         id="g69"><polygon
           class="st11"
           points="210.9,214.8 223.5,215.3 228.7,151.6 215.4,150.5 "
           id="polygon71"
           style="fill:#79986f" /><polygon
           class="st11"
           points="264.7,217 277.1,217.5 284.4,155.8 271.6,154.8 "
           id="polygon73"
           style="fill:#79986f" /><path
           class="st11"
           d="m 306.5,115.5 c -11.7,-15 -36.8,9.6 -50.9,29.1 -1.3,1.8 -2.5,3.5 -3.6,5.2 -0.1,-0.1 -0.2,-0.1 -0.4,-0.2 l -1.4,-0.5 c -0.1,0 -0.1,0 -0.1,0 0.4,-1.8 0.9,-3.6 1.3,-5.4 3.1,-13.9 5,-29 1,-35.9 -1.4,-2.4 -3.5,-3.9 -6.6,-4 l 0,0 c -0.6,0 -1.2,0 -1.9,0.1 -2.7,0.4 -4.7,1.6 -6,3.6 -1.3,1.8 -2,4.3 -2.2,7.1 -0.8,9.4 3.5,23.2 8,33.2 l 0,0 c 0.6,1.3 1.1,2.5 1.7,3.6 0.3,0.5 0.5,1 0.7,1.5 l 0,0.1 -3.4,-0.3 c -1,10.1 -5.2,51.7 -6.1,63.2 l 13.9,0.6 7.2,-62.6 -0.5,0 c 28.3,-8.3 62.2,-22 49.3,-38.4 z m -61.2,28.9 c 0,0 0,0 0,0 -4.5,-9.8 -9,-26.1 -0.3,-27.4 8.8,-1.2 7,13.7 4.1,26 -0.5,2 -1,3.9 -1.5,5.7 -0.7,-1.1 -1.5,-2.6 -2.3,-4.3 z m 13.4,5.5 c -0.7,0.2 -1.4,0.4 -2.2,0.6 0.8,-1.5 1.8,-3.2 3.1,-5 8.2,-12 24.7,-29.3 32.3,-19.7 8.3,10.6 -15.7,19.4 -33.2,24.1 z"
           id="path75"
           inkscape:connector-curvature="0"
           style="fill:#79986f" /></g></g></g></svg>