<?xml version="1.0" encoding="utf-8"?>
<!-- Generator: Adobe Illustrator 22.0.0, SVG Export Plug-In . SVG Version: 6.00 Build 0)  -->
<svg version="1.1" id="Calque_1" xmlns="http://www.w3.org/2000/svg" xmlns:xlink="http://www.w3.org/1999/xlink" x="0px" y="0px"
	 viewBox="0 0 432 432" style="enable-background:new 0 0 432 432;" xml:space="preserve">
<style type="text/css">
	.st0{fill:#E0EDF3;}
	.st1{fill:#A5C0DF;}
	.st2{fill:#3F668A;}
	.st3{fill:#162740;}
	.st4{fill:#7B9EC7;}
	.st5{fill:#571419;}
	.st6{fill:#020203;}
	.st7{fill:#F39323;}
	.st8{fill:#8C633A;}
	.st9{fill:#6189B1;}
	.st10{fill:#A8C4D3;}
	.st11{fill:#989389;}
	.st12{fill:#DED3C6;}
	.st13{fill:#36502D;}
	.st14{fill:#DAA405;}
	.st15{fill:#DFE6ED;}
	.st16{fill:#D06C5D;}
	.st17{fill:#972021;}
	.st18{fill:#79986F;}
	.st19{fill:#FFF0BA;}
	.st20{fill:#C9D0D6;}
	.st21{fill:#E7E6E6;}
	.st22{fill:#CDCCCC;}
	.st23{fill:#B4B4B4;}
	.st24{fill:#FFFFFF;}
	.st25{fill:#9F1E29;}
	.st26{fill:#754D24;}
	.st27{fill:#A67D52;}
	.st28{fill:#CDE3EA;}
	.st29{fill:#F2F2F2;}
	.st30{fill:#C7B29A;}
	.st31{fill:#BCA48A;}
	.st32{fill:#D79A5D;}
	.st33{fill:#90443F;}
	.st34{fill:#D6A14D;}
	.st35{fill:#365461;}
	.st36{fill:#4C672C;}
	.st37{fill:#7D915E;}
	.st38{fill:#67302B;}
	.st39{fill:#96B8AA;}
	.st40{fill:#C5463F;}
	.st41{fill:#AFA453;}
	.st42{fill:#F1969D;}
	.st43{fill:#603914;}
	.st44{fill:#82171C;}
	.st45{fill:#066938;}
	.st46{fill:#9A9999;}
	.st47{fill:#C9913E;}
	.st48{fill:#E2A1BC;}
	.st49{fill:#808181;}
	.st50{fill:#C1292E;}
	.st51{fill:#EDCBA9;}
	.st52{fill:#699CBB;}
	.st53{fill:#4E4D4D;}
	.st54{fill:#C29245;}
	.st55{fill:#BB7E28;}
	.st56{fill:#C8904C;}
	.st57{fill:#BB7926;}
	.st58{fill:#A3282E;}
</style>
<g>
	<path d="M377.9,259.5c-0.1-0.7-0.3-1.4-0.6-2c-0.7-1.8-1.4-3.6-2.1-5.3c-0.7-1.9-2-2.5-4-1.9c-0.5,0.1-0.9,0.3-1.3,0.6
		c-0.9,0.5-1.9,1.1-2.8,1.7c-2.6,1.7-5.2,3.5-8,5c-1.4,0.8-2.9,1.6-4.3,2.4c-4.8,2.8-9.9,5.3-15,7.7c-0.2,0.1-0.5,0.2-0.8,0.3
		c0-0.8,0.1-1.4,0.1-2.1c0.1-4.4,0.3-8.8,0.3-13.2c0-4.5,0.1-9-1.1-13.4c0.4-0.2,0.9-0.4,1.3-0.6c5.5-2.5,10.9-4.9,16.4-7.4
		c2.8-1.3,5.6-2.6,8.5-3.9c0.9-0.4,1.8-0.9,2.4-1.7c1.4-1.8,1.6-2.8,0.1-4.5c-0.7-0.8-1.5-1.6-2.3-2.3c-2.8-2.4-5.7-4.8-8.5-7.3
		c-4.5-3.9-9-7.8-13.4-11.8c-3.5-3.1-6.9-6.3-10-9.8c-2-2.3-4.1-4.6-6.1-6.9c-0.1-0.2-0.3-0.3-0.4-0.5c0.7-0.4,1.3-0.5,2-0.4
		c2,0.1,4,0.2,5.9,0.2c0.2,0,0.3,0,0.5-0.1c0.7-0.2,1.2-0.7,1.1-1.2c0-0.5-0.5-0.8-1.3-0.9c-0.1,0-0.1,0-0.2,0
		c-0.9,0-1.9-0.1-2.8-0.1c-0.6,0-1.2,0-1.9,0c0.2-0.9,0.4-1.7,0.6-2.5c0.5-0.1,1.1-0.2,1.6-0.3c0.8-0.1,1.4-0.4,1.8-1.1
		c0.3-0.6,0-1.1-0.7-1.2c-0.3,0-0.7,0.1-1,0.1c-0.5,0.1-1.1,0.2-1.7,0.3c-0.1-1.1-0.1-2.2-0.2-3.3c1.1-0.3,2.1-0.6,3.1-0.9
		c0.4-0.1,0.9-0.2,1.3-0.4c0.4-0.2,0.7-0.5,0.6-1c-0.1-0.5-0.6-0.6-1-0.6c-0.6,0-1.2,0.1-1.9,0.2c-0.8,0.1-1.5,0.3-2.3,0.5
		c-0.3-1.3-0.5-2.5-0.8-3.9c1.1-0.2,2.1-0.3,3.2-0.5c0.4-0.1,0.9-0.1,1-0.6c0.1-0.4-0.2-1-0.7-1.1c-0.5-0.1-1.1-0.2-1.6-0.1
		c-0.8,0.1-1.5,0.4-2.2,0.6c-0.3,0.1-0.6,0.2-1-0.1c-0.9-0.8-2.1-1.1-3.3-1.1c-1.7,0-3.3,0.1-5,0.3c-2.2,0.3-4.5,0.7-6.6,1
		c-1.4-1.6-2.7-3.1-4.1-4.7c0.4-0.2,0.7-0.4,1.1-0.7c1.1-0.8,2.3-1.5,3.3-2.3c1-0.8,1.7-1.7,2.1-2.9c0.1-0.4,0.4-0.6,0.7-0.7
		c0.8-0.2,1.7-0.5,2.5-0.8c0.9-0.3,1.6-0.8,2.2-1.6c0.2-0.3,0.4-0.7,0.2-1c-0.3-0.4-0.7-0.3-1-0.1c-1,0.4-2.1,0.9-3.1,1.3
		c-0.3,0.1-0.7,0.2-1.1,0.4c-0.2-0.9-0.4-1.7-0.7-2.4c-0.1-0.4-0.1-0.8,0.3-1c1-0.6,1.9-1.3,2.9-1.9c0.3-0.2,0.6-0.3,0.8-0.4
		c0.3-0.2,0.7-0.4,0.5-0.8c-0.2-0.4-0.6-0.3-0.9-0.2c-0.8,0.3-1.6,0.6-2.3,1c-0.7,0.3-1.3,0.8-2,1.2c-0.7-1.5-1.3-3-2-4.6
		c1-0.8,1.9-1.5,2.8-2.2c0.5-0.4,1-0.7,1.4-1.1c0.2-0.2,0.3-0.5,0.2-0.7c-0.2-0.4-0.5-0.2-0.8-0.1c-1.1,0.7-2.3,1.5-3.4,2.2
		c-0.2,0.2-0.5,0.3-0.8,0.5c-0.7-1.4-1.4-2.8-2.2-4.2c0.8-0.8,1.7-1.5,2.5-2.3c0.4-0.4,0.7-0.8,0.9-1.2c0.2-0.5-0.2-0.8-0.7-0.7
		c-0.4,0.1-0.8,0.3-1.1,0.6c-1,0.8-1.9,1.6-2.9,2.4c-0.3,0.2-0.6,0.4-0.9,0.4c-1.2,0-2.3,0.5-3.2,1.2c-1.2,0.9-2.3,1.8-3.3,2.9
		c-2.7,3-5.2,6.1-7.8,9.1c-2.9,3.5-6.1,6.6-9.6,9.4c-4.6,3.6-9.6,6.8-14.7,9.8c-0.1,0-0.2,0-0.3,0c-0.1-0.3-0.1-0.6-0.1-0.8
		c-0.3-1.6-0.5-3.2-0.8-4.8c-0.6-3.1-1.3-6.2-1.5-9.4c-0.3-3.7-0.8-7.4-1.9-11c-0.4-1.3-0.7-2.6-1.1-3.9c1.6-1,2.7-2.4,3.4-4.1
		c0.9-2,1.2-4.1,0.9-6.3c-0.4-2.6-1.4-4.8-4-5.9c0.1-0.8,0.1-1.7,0.2-2.5c0.3-2.6,0.6-5.3,1.1-7.9c0.7-3.8,2.5-7.1,5.5-9.6
		c2-1.6,4.3-2.8,6.8-3.8c0.2,0.4,0.4,0.8,0.6,1.1c0.9,1.7,2.3,2.9,4.3,3.2c1,0.1,2,0.1,3,0c1.2-0.1,2.2-0.7,3.1-1.6
		c0.4-0.5,0.8-1,1.2-1.6c0.8-1.1,1.4-2.3,2.2-3.4c1.7-2.4,2-4.8,0.4-7.4c-0.6-1-1.3-2.1-1.8-3.2c-1-2.1-2.7-3-5-2.9
		c-1.2,0-2.4,0-3.5,0c-0.9,0-1.7,0.2-2.4,0.7c-0.8,0.6-1.5,1.3-2.3,2c-0.5-0.1-1.1-0.2-1.7-0.2c-1.4,0-2.8,0-4.2,0
		c-3.7,0.2-7.4,0.8-11.1,1.5c-8.2,1.5-16,4.2-23.4,8.1c-6.7,3.6-12.6,8.1-17.3,14.1c-2.9,3.6-5.2,7.4-5.9,12.1
		c-0.1,0.4-0.4,0.5-0.7,0.7c-0.8,0.4-1.7,0.8-2.5,1.3c-1.9,1.2-3.2,2.8-3.7,5c-0.6,2.6-0.9,5.1,0.7,7.4c-0.2,0.2-0.3,0.4-0.4,0.6
		c-1.4,2.1-2.9,4.2-4.3,6.4c-2.2,3.4-3.8,7.1-4.4,11.2c-0.4,2.3-0.7,4.7-1.2,7c-0.4,2.1-1,4.3-1.5,6.4c-0.4,1.8-0.6,3.7-0.2,5.6
		c1.1,5,2.9,9.7,6,13.9c0.7,1,1.5,1.9,2.2,3c0.7,1.1,1.3,2.3,2,3.4c-1,0.9-2,1.5-3.4,1.4c-0.4,0-0.9,0-1.4,0.1
		c-2.6,0.2-5.2,0.4-7.7,1.2c-4.7,1.3-8.8,3.7-13,6.2c-0.4,0.2-0.8,0.3-1.3,0.2c-2-0.4-4.1-0.6-6.1-0.3c-2.4,0.4-4.8,0.7-7,1.5
		c-0.8,0.3-1.5,0.6-2,1.2c-1,1.3-2.1,2.5-3,3.9c-1,1.5-1.5,3.2-1.4,5c0,0.4,0,0.8,0,1.3c-0.4,0.1-0.8,0.2-1.1,0.3
		c-2.6,0.6-5,1.6-7.3,2.9c-2.9,1.7-5.7,3.6-8.4,5.7c-3.4,2.7-6.8,5.4-10.3,8c-3.5,2.7-7.6,4.4-11.8,5.6c-0.7,0.2-1.3,0.2-2-0.2
		c-3.5-1.7-7.1-3.4-10.7-5c-3.6-1.6-7.3-3.2-10.9-4.8c-0.4-0.2-0.8-0.3-1.2-0.2c-5,0.7-9.5,2.4-13.4,5.6c-5.4,4.4-9.5,9.8-12,16.3
		c-1.8,4.6-2.7,9.3-2.3,14.3c0.4,4.5,2.2,8,5.6,10.9c4.5,3.7,9.3,6.8,14.3,9.7c8.1,4.8,16.6,8.8,25,13.1c0.3,0.2,0.6,0.3,1.1,0.6
		c-0.7,0.3-1.2,0.5-1.7,0.7c-7.1,3-14.5,4-22.1,3.7c-3.2-0.1-6.3-0.8-9.3-2.1c-5.1-2.2-9.7-5.1-13.4-9.2c-0.8-0.9-1.5-1.9-2.3-2.9
		c-0.8-1-1.8-1.4-3-1c-1.9,0.7-3.8,1.3-5.7,2.1c-1.4,0.6-2.1,1.9-1.8,3.4c0.2,1.2,0.5,2.3,1,3.4c0.7,1.4,1.5,2.7,2.5,4
		c2.4,3.1,5.2,5.8,8.4,8.1c7.8,5.5,16.5,8.1,26,8.4c4.4,0.2,8.8-0.4,13.1-1.3c5.9-1.2,11.6-3.1,17.3-5.2c3.3-1.2,6.7-2.4,9.6-4.5
		c0.2-0.1,0.6-0.1,0.9-0.1c2.4,0.5,4.7,1.1,7.1,1.6c6.1,1.4,12.2,2,18.5,1.9c3.9,0,7.9-0.2,11.8-0.5c3.1-0.2,6.2-0.6,9.3-1
		c1.8-0.2,3.6-0.6,5.5-1c0.1,0.7,0.1,1.5,0.2,2.2c0.5,5.2,1.1,10.3,1.6,15.5c0.3,2.6,0.4,5.2,1.6,7.5c0,0.1,0,0.1,0,0.3
		c-0.2,0.1-0.5,0.2-0.7,0.3c-3.9,1.1-7.8,2.2-11.8,3.1c-5.6,1.3-11.3,2.2-17.2,1.8c-3.3-0.2-6.6-0.4-9.8-1.3
		c-4.3-1.1-7.2-3.7-8.9-7.7c-0.3-0.6-0.5-1.3-0.9-1.9c-0.5-0.9-1.3-1.4-2.3-1.3c-0.4,0-0.9,0.1-1.3,0.2c-2.3,0.6-4.6,1.2-6.9,1.8
		c-2.3,0.6-3.1,1.7-3,4c0.1,2,0.7,3.9,1.3,5.8c1.5,4.1,4,7.2,7.9,9.3c1.6,0.9,3.3,1.6,5.1,2.1c3.3,1,6.7,1.8,10.2,2.3
		c2.5,0.3,5,0.7,7.5,0.8c2.9,0.1,5.9,0,8.8-0.2c5.4-0.4,10.8-1.4,16.1-2.4c8.1-1.5,15.9-3.9,23.6-6.7c9.9-3.5,19.6-7.5,29.1-11.9
		c10.7-4.8,21.4-9.6,32-14.6c9-4.2,17.9-8.5,27.1-12.2c14.8-6,29.2-12.6,43.7-19.2c8.6-3.9,17-8.1,25.6-12.1
		c3.7-1.7,7.3-3.5,10.7-5.7c0.8-0.5,1.5-1,2.2-1.5C377.7,262.4,378.2,261,377.9,259.5z M162.5,227c-4.8,1.9-9.5,4-14.3,5.8
		c-4.4,1.6-9,3-13.5,4.5c-1.9,0.6-3.9,1.1-5.8,1.6c-0.9,0.2-1.9,0.2-2.8,0c-0.8-0.2-1.6-0.1-2.4-0.2c-0.5-0.1-1-0.3-1.5-0.5
		c0-0.1,0-0.1,0-0.2c0.4-0.1,0.7-0.3,1.1-0.4c4-1.1,7.6-2.9,10.9-5.3c3.7-2.7,7.4-5.5,11-8.2c3.2-2.4,6.4-4.6,10-6.2
		c1.3-0.6,2.6-1.1,4-1.3c0.8,1,1.6,1.9,2.4,2.9c-0.6,2.5-0.1,5,1.3,7.3C162.8,226.8,162.7,226.9,162.5,227z M328.1,272.5
		c-12.9,5.6-25.7,11.2-38.6,16.9c-7.9,3.5-15.7,7.4-23.6,10.9c-13.7,6.1-27.3,12.2-41.3,17.7c-7.6,3-15.3,5.8-23.1,8.4
		c-0.3,0.1-0.7,0.2-1.1,0.3c-1.3-8.3-2.3-16.7-3.9-25.1c1.8-0.6,3.6-1.3,5.4-1.9c7.4-2.7,14.6-6,21.8-9.2
		c8.1-3.7,16.3-7.5,24.4-11.1c11.3-5,22.8-9.8,34.1-14.7c15.1-6.5,30.2-13.1,45-20.3c0.3-0.1,0.6-0.3,1-0.4c0,0.2,0.1,0.4,0.1,0.5
		c0,3.3,0,6.6,0.1,9.9c0,3.6,0,7.1,0,10.7c0,2.4-0.1,4.8,0.4,7.2C328.6,272.3,328.4,272.4,328.1,272.5z"/>
	<g>
		<path d="M113.6,132.8c-1.1-1.6-2.1-3-3.2-4.4c-0.2-0.3-0.4-0.6-0.6-0.9c-0.3-0.5-0.3-1,0.1-1.5c0.4-0.4,0.9-0.6,1.4-0.5
			c0.4,0.1,0.9,0.3,1.2,0.6c0.6,0.5,1.1,1,1.7,1.6c2.3,2.4,4.1,5.1,6.1,7.7c0.6,0.7,1.2,1.5,1.8,2.2c0.5,0.6,0.6,1.2,0.2,1.8
			c-0.4,0.5-1.1,0.8-1.8,0.5c-0.5-0.2-0.9-0.5-1.3-0.9c-1.1-1.2-2.3-2.4-3.4-3.6c-0.3-0.3-0.5-0.7-0.8-1c-2,2-3.9,3.8-5.8,5.6
			c0.7,1,1.4,1.9,2.2,2.8c0.3,0.4,0.5,0.7,0.7,1.1c0.3,0.6,0.3,1.2-0.1,1.6c-0.4,0.4-1.1,0.5-1.6,0.3c-0.3-0.1-0.6-0.4-0.8-0.6
			c-2.1-2-4.3-4-6.1-6.3c-0.6-0.8-1.3-1.5-2-2.3c-0.8-0.9-0.9-1.7-0.3-2.3c0.6-0.7,1.7-0.8,2.6-0.2c1.1,0.9,2.1,1.9,3.2,2.8
			c0.2,0.2,0.3,0.4,0.5,0.7C109.6,136,111.6,134.4,113.6,132.8z"/>
		<path d="M129.9,133.1c-4,0.1-7.3-2.9-7.4-6.9c0-0.9-0.1-1.9,0-2.8c0.5-3.3,2.8-5.4,6.3-5.6c2.1-0.1,3.9,0.4,5.7,1.4
			c2.6,1.5,3.7,4,3.2,7C137.1,130.3,133.9,133,129.9,133.1z M129.8,121.1c-2.3,0-3.6,0.9-4.1,3c-0.2,1-0.3,2-0.3,3
			c0,0.3,0.1,0.7,0.3,1c0.8,1.4,2.9,2.3,4.5,2.1c3-0.4,4.2-2.8,4.3-4.9c0.1-1.2-0.3-2.3-1.4-3C132.1,121.6,130.9,121.3,129.8,121.1z
			"/>
		<path d="M138.2,151.7c0.4,0.9,0.8,1.6,1.2,2.3c0.2,0.3,0.3,0.7,0.4,1.1c0.1,0.5-0.1,0.9-0.6,1.1c-0.4,0.2-0.9,0.2-1.3-0.2
			c-0.1-0.1-0.3-0.3-0.4-0.5c-1.5-2.4-2.9-4.8-4.4-7.2c-0.2-0.4-0.4-0.9-0.6-1.3c-0.2-0.5-0.1-1,0.3-1.3c0.4-0.3,1-0.4,1.5,0
			c0.3,0.2,0.6,0.6,0.9,0.9c0.7,0.9,1.3,1.9,2,2.9c1.3-0.4,2.6-0.8,4-1.3c-0.3-0.8-0.6-1.5-0.8-2.3c-0.2-0.5-0.3-0.9-0.4-1.4
			c-0.1-0.6,0.1-1,0.6-1.3c0.5-0.3,1.1-0.2,1.5,0.2c0.4,0.4,0.7,0.8,0.9,1.3c0.9,1.9,1.7,3.7,2.6,5.6c0.4,0.8,0.8,1.6,1.2,2.4
			c0.3,0.7,0.3,1.3-0.2,1.7c-0.5,0.4-1.2,0.4-1.7,0c-0.4-0.3-0.7-0.8-1-1.2c-0.6-1-1.1-2-1.7-3.1
			C140.8,150.6,139.6,151.1,138.2,151.7z"/>
		<path d="M151.7,150.2c-0.4,0-0.8-0.1-1.2-0.1c-1.7-0.3-2.9-1.5-3.1-3.2c-0.2-1.5,0-2.9,0.5-4.3c1.3-3.3,5.9-5.1,9.2-1.4
			c0.2,0.3,0.4,0.5,0.6,0.8c1.6,2.5,1.2,5-1.2,6.8C155.1,149.8,153.5,150.2,151.7,150.2z M149.7,144.5c0.1,0.7,0.2,1.4,0.4,2
			c0.1,0.4,0.4,0.8,0.8,0.8c1.4,0.2,2.8,0,3.9-0.9c1.2-1,1.3-2,0.4-3.3c-0.2-0.3-0.4-0.5-0.6-0.7c-0.9-1-2-1.2-3.1-0.7
			C150.1,142.3,149.8,142.9,149.7,144.5z"/>
		<path d="M145.3,178.8c-0.9,0.5-1.6,1-2.4,1.4c-0.1,0.1-0.2,0.1-0.3,0.2c0.4,0.7,0.8,1.3,1.1,1.9c0.2,0.3,0.4,0.7,0.5,1
			c0.1,0.4,0,0.8-0.4,1c-0.3,0.2-0.7,0.3-1.1,0.1c-0.3-0.2-0.6-0.5-0.8-0.8c-1.5-2.2-3-4.5-4.5-6.8c-0.5-0.8-0.4-1.3,0-1.7
			c0.5-0.3,1.1-0.2,1.7,0.4c0.6,0.6,1.1,1.3,1.6,1.9c0.2,0.3,0.5,0.6,0.7,1c1-0.5,1.8-0.9,2.8-1.4c-0.3-0.5-0.5-1-0.7-1.4
			c-0.2-0.3-0.3-0.6-0.4-1c-0.2-0.5,0-1,0.4-1.3c0.4-0.3,0.9-0.2,1.3,0.1c0.2,0.1,0.4,0.3,0.5,0.5c1,1.8,2,3.5,3,5.3
			c0.2,0.4,0.2,0.9-0.2,1.2c-0.4,0.3-0.9,0.3-1.3,0c-0.2-0.2-0.4-0.4-0.6-0.7C145.9,179.6,145.7,179.2,145.3,178.8z"/>
		<path d="M148.1,172.5c0-1.6,0.7-2.9,1.7-4c0.6-0.7,1.6-0.9,2.5-0.9c1,0,1.9,0.3,2.8,0.8c1.5,1,2,2.4,1.7,4.2
			c-0.4,2.5-2.2,4.2-4.5,4.2C149.8,176.7,148.1,174.9,148.1,172.5z M154.2,171.9c0-1.4-1.4-2.4-2.6-1.9c-0.2,0.1-0.4,0.2-0.6,0.4
			c-0.5,0.8-0.6,1.8-0.3,2.7c0.4,1.2,1.8,1.5,2.7,0.6C154,173.2,154.2,172.5,154.2,171.9z"/>
		<path d="M142.8,117.6c0,0.9-0.4,1.3-1.1,1c-0.5-0.2-0.9-0.6-1.3-1c-1.5-1.9-2.9-4-4-6.2c-0.4-0.7-0.8-1.5-1.2-2.2
			c-0.4-0.8-0.3-1.4,0.3-1.8c0.6-0.4,1.3-0.4,1.9,0.2c0.4,0.4,0.8,0.9,1.1,1.4c1.7,2.5,2.9,5.2,4.1,8
			C142.7,117.2,142.7,117.5,142.8,117.6z"/>
		<path d="M162.7,136.2c0,0.9-0.8,1.4-1.5,1c-0.2-0.1-0.5-0.3-0.6-0.6c-0.9-1.7-2-3.3-2.3-5.2c-0.1-0.4-0.1-0.8-0.1-1.2
			c0-0.5,0.3-0.8,0.8-1c0.5-0.2,0.9,0,1.2,0.3c0.2,0.2,0.4,0.4,0.5,0.7c0.4,1,0.8,1.9,1.1,2.9c0.3,0.8,0.5,1.6,0.7,2.4
			C162.5,135.8,162.6,136.1,162.7,136.2z"/>
		<path d="M156.4,161.6c0-0.6,0.2-1,0.7-1.2c0.5-0.2,1-0.1,1.3,0.3c0.3,0.3,0.5,0.6,0.6,1c0.7,1.4,1.4,2.9,2,4.3
			c0.3,0.7,0.2,1.2-0.2,1.5c-0.4,0.3-1.1,0.2-1.6-0.3c-0.1-0.1-0.2-0.2-0.3-0.3c-1-1.4-1.8-2.8-2.4-4.4
			C156.5,162.2,156.4,161.8,156.4,161.6z"/>
		<path d="M145,126c-0.8,0-1.5-0.6-1.5-1.4c0-0.8,0.7-1.5,1.7-1.4c0.8,0,1.5,0.6,1.5,1.3C146.7,125.3,145.9,126,145,126z"/>
		<path d="M162.8,172.2c-0.8,0-1.5-0.5-1.6-1.2c0-0.6,0.5-1.1,1.2-1.1c0.9,0,1.6,0.5,1.6,1.3C164.1,171.7,163.6,172.1,162.8,172.2z"
			/>
		<path d="M164.1,140.9c0,0.8-0.5,1.3-1.3,1.3c-0.7,0-1.2-0.5-1.3-1.1c0-0.7,0.6-1.4,1.2-1.4C163.5,139.7,164.1,140.2,164.1,140.9z"
			/>
	</g>
	<path class="st24" d="M208.9,136.4c0.6,0.2,1.2,0.4,1.8,0.7c0,0.1,0,0.2,0,0.2c-1.3,2.1-1.6,4.4-1.4,6.8c0.1,0.8,0.1,1.7,0.1,2.5
		c0.1,1.7,0.9,2.9,2.3,3.6c2.4,1.3,4.9,2.4,7.4,3.6c1.2,0.6,2.4,1.1,3.6,1.6c0.2,0.1,0.3,0.2,0.5,0.4c2.8,2.5,6.1,2.9,9.6,1.9
		c1.5-0.4,2.9-1.1,4.1-2c2.1-1.4,4.3-2.4,6.7-3.1c4.8-1.3,9.3-3.4,13.4-6.2c1.2-0.8,2.2-1.9,2.6-3.3c0.4-1.3,0.9-2.5,0.6-3.9
		c-0.1-0.3,0.1-0.5,0.5-0.4c0.1,0.5,0.1,1,0.2,1.6c0.3,1.8,0.6,3.5,0.8,5.3c0.2,1.9,0.4,3.7,0.4,5.6c0,3.9,0.5,7.6,1.3,11.4
		c0.3,1.5,0.4,2.9,0.2,4.4c-0.7,4.8-2.2,9.3-4.4,13.5c-1,1.9-1.3,4-1.7,6c-0.3,1.5-0.7,2.9-1.2,4.3c-0.4,1.1-1.1,2-2.1,2.7
		c-0.5,0.3-0.9,0.7-1.4,1c-2.8,1.5-5.1,3.6-7.3,5.9c-2.4,2.6-5.3,4.4-8.4,5.9c-0.8,0.4-1.7,0.8-2.6,1.1c-1.9,0.7-3.6,0.3-5.2-0.9
		c-0.7-0.5-1.3-1-1.9-1.6c-2.2-1.9-4.7-3.1-7.6-3.8c-1.5-0.3-2.9-0.8-4.4-1.4c-1.7-0.6-3-1.7-3.9-3.3c-0.9-1.7-1.9-3.4-2.7-5.2
		c-1.2-2.6-2.6-5.1-4.4-7.4c-2.8-3.5-4.6-7.5-5.8-11.8c-0.7-2.4-0.4-4.7,0.1-7c0.6-2.9,1.3-5.8,1.9-8.7c0.3-1.4,0.5-2.8,0.7-4.2
		c0.5-2.5,1.4-5,2.6-7.3c1.6-2.9,3.2-5.8,4.9-8.6C208.8,136.5,208.9,136.5,208.9,136.4z M229.2,170.5c3.6,0.1,8.2-3.2,8.8-8
		c0.2-1.6-1.1-2.7-2.7-2.1c-1.1,0.4-2.2,0.7-3.3,0.8c-2.8,0.3-5.6,0.2-8.2-1.3c-0.4-0.2-0.7-0.4-1.1-0.5c-1.1-0.3-2.2,0.1-2.5,1.1
		c-0.1,0.5-0.1,1.1,0.1,1.6c0.6,2.1,1.8,4,3.3,5.7C225,169.5,226.9,170.5,229.2,170.5z"/>
	<path class="st26" d="M171.2,297.4c4.4,0,8.6-0.9,12.7-2.3c4-1.4,7.9-2.9,11.8-4.4c8.9-3.5,17.5-7.9,26.2-11.9
		c6.4-2.9,12.8-5.8,19.2-8.7c6.8-3.1,13.5-6.4,20.2-9.8c7.7-3.9,15.5-7.7,23.2-11.6c11.1-5.6,22.2-11,33-17.2
		c6.7-3.9,13.4-7.9,20.1-11.8c3.3-2,6.5-4,9.8-6c0.2-0.1,0.4-0.2,0.7-0.4c3.2,3.9,7.6,6.3,11.5,9.5c-0.2,0.1-0.2,0.1-0.3,0.2
		c-3.6,2.2-7.1,4.4-10.7,6.6c-4,2.6-8.4,4.3-12.7,6.2c-9,3.9-17.8,7.9-26.8,11.8c-11.7,5.1-23.5,10.2-35.3,15.3
		c-11.1,4.8-22.3,9.6-33.3,14.5c-8.8,3.9-17.5,8-26.2,11.9c-8.7,3.9-17.6,7.3-26.7,9.8c-2.9,0.8-5.9,1.3-8.9,1.9
		c-0.3,0.1-0.7,0.1-1-0.1c-1.8-0.9-3.5-1.8-5.3-2.7c-0.4-0.2-0.8-0.5-1.2-0.8C171.2,297.5,171.2,297.4,171.2,297.4z"/>
	<path class="st13" d="M205.9,194.5c0.7,1.3,1.3,2.5,1.9,3.7c1.4,2.8,3.5,4.7,6.5,5.8c1.5,0.6,3.1,1.1,4.7,1.5
		c2.1,0.5,4,1.4,5.6,2.8c0.7,0.6,1.3,1.2,2,1.7c2.7,2.2,5.8,2.7,9.2,1.7c1.4-0.4,2.7-0.9,4-1.6c3.2-1.7,6.4-3.5,8.8-6.2
		c1.9-2.1,4.2-3.5,6.6-4.9c1-0.5,2-1,3.2-1.2c1.2-0.2,2.4-0.8,3.6-1.4c7.1-3.1,13.4-7.5,19.3-12.3c1.7-1.4,3.4-2.8,5.1-4.2
		c4-3.3,8.6-5.6,13.3-7.5c4.8-2,9.8-3.4,14.9-4.4c2.7-0.5,5.4-0.9,8.1-1.4c0.5-0.1,1-0.1,1.6-0.1c1.1,0,1.3,0.1,1.6,1.2
		c0.3,1.1,0.5,2.2,0.6,3.4c0.2,1.8,0.2,3.5,0.2,5.3c0,2.1-0.3,2.5-2.4,2.9c-2.4,0.5-4.7,0.8-7.1,1.2c-5.6,0.9-11.1,2.2-16.4,4.3
		c-3.6,1.5-7,3.4-10.2,5.6c-4.4,3-8.9,6-13.3,9c-3.8,2.5-6.9,5.8-9.3,9.7c-0.7,1.2-1.4,2.3-2.2,3.5c-0.6,0.9-1.3,1.7-2.2,2.2
		c-3.4,2.2-7,4-11.1,4.4c-2.2,0.2-4.4,0.1-6.7,0.1c-2.8,0-5.5-0.1-8.3-0.1c-2.3,0-4.6,0.1-6.9,0.1c-6.8,0-13.2-1.2-19.3-4.3
		c-1.6-0.8-3.1-1.8-4.5-2.8c-0.9-0.7-1.8-1.5-2.5-2.3c-2.5-2.6-3.1-5.9-2.5-9.3C202.4,198.1,203.9,196.2,205.9,194.5z"/>
	<path class="st46" d="M129.7,329.2c2.2-0.6,4.1-1.1,6.2-1.6c0.1,0.2,0.3,0.4,0.3,0.6c2.4,5.9,6.8,9.3,13,10.7
		c3.3,0.7,6.6,0.9,10,1.1c5.9,0.3,11.6-0.6,17.3-1.8c6.3-1.3,12.4-3.3,18.6-5.2c14.9-4.6,29.5-10.1,43.9-16.2
		c13.9-5.9,27.7-12.1,41.4-18.5c11.7-5.5,23.5-10.6,35.2-15.9c7.6-3.4,15.3-6.6,23-10c6.8-3,13.3-6.5,19.5-10.4
		c4.2-2.6,8.4-5.3,12.7-7.9c0.2-0.1,0.4-0.2,0.6-0.3c0.1,0.3,0.2,0.5,0.3,0.7c0.5,1.3,1,2.7,1.5,4c0.1,0.2,0.2,0.4,0.3,0.7
		c0.4,1.1,0.4,1.2-0.6,1.8c-2.8,1.6-5.5,3.2-8.3,4.6c-8.4,4.1-16.9,8.3-25.4,12.2c-15.1,6.8-30.2,13.7-45.6,19.9
		c-8.8,3.5-17.4,7.5-25.9,11.6c-9.8,4.7-19.6,9.1-29.5,13.6c-8,3.6-16,7.2-24.2,10.4c-7.5,2.9-15,5.6-22.7,7.7
		c-5.9,1.6-11.9,2.8-17.9,3.7c-5.1,0.8-10.2,1.3-15.4,1.2c-5.7-0.1-11.3-1-16.7-2.7c-2.3-0.7-4.4-1.8-6.2-3.3c-2.5-2.1-3.8-5-4.6-8
		C130,330.8,129.9,330.1,129.7,329.2z"/>
	<path class="st27" d="M166.9,285.1c1.3,0.2,2.6,0.4,3.9,0.5c4.1,0.5,8.1,0.8,12.2,0.5c4.5-0.3,8.8-1.5,13-3
		c5.5-2,10.7-4.7,15.7-7.8c2.8-1.8,5.6-3.6,8.4-5.4c0.2-0.1,0.6-0.2,0.9-0.2c4.6,0.8,8.9-0.1,13-2.3c3-1.6,6.1-3.2,8.8-5.4
		c1-0.9,2.1-1.8,3-2.8c1.5-1.7,2.5-3.6,2.6-5.9c0-0.3,0.2-0.6,0.3-0.9c0.7-1.4,1.8-2.4,3.5-2.9c6.5-1.9,12.2-5.4,18-8.7
		c15.6-8.6,31.2-17.3,46.7-26.1c5-2.8,9.8-6,14.7-9c2-1.3,4-2.6,6.1-3.9c0.2-0.1,0.4-0.2,0.6-0.3c2.6,2.4,5.1,4.8,7.7,7.3
		c-1.8,1.1-3.6,2.2-5.3,3.3c-9,5.3-18,10.7-27.1,16c-8.2,4.7-16.6,8.9-25.1,13.2c-8.2,4.1-16.4,8.2-24.6,12.3
		c-6.8,3.4-13.4,6.9-20.2,10.2c-4.4,2.1-8.9,3.9-13.3,5.9c-7.6,3.5-15.1,7.1-22.7,10.7c-6.7,3.2-13.5,6.1-20.4,8.8
		c-3.8,1.4-7.6,2.6-11.6,3.4c-1.8,0.3-3.5,0.5-5.3,0.3c-0.5,0-1-0.1-1.4-0.3c-1.5-0.4-2.3-1.5-2.4-3
		C166.3,288,166.4,286.6,166.9,285.1z"/>
	<path class="st26" d="M326.6,188.6c2.9,3.7,5.9,7.4,9.3,10.6c-0.1,0.1-0.1,0.2-0.2,0.2c-3.6,2-7.2,4-10.7,6.1
		c-9.5,5.7-19.3,10.9-29,16.1c-10,5.4-19.9,11.1-29.8,16.7c-3.6,2.1-7.3,4.1-10.9,6.1c-0.8,0.5-1.6,1-2.5,1.5
		c0.1-0.3,0.1-0.5,0.2-0.6c2.6-4.8,3.7-10.1,4.6-15.4c0.1-0.6,0.2-1.2,0.3-1.9c0-0.3,0.2-0.5,0.5-0.7c1.6-0.7,3.2-1.4,4.7-2.2
		c7.2-3.8,14.5-7.6,21.6-11.6c11.7-6.5,23.2-13.3,34.5-20.5c2.2-1.4,4.5-2.7,6.7-4.1C326,188.9,326.3,188.8,326.6,188.6z"/>
	<path class="st17" d="M202.4,247.2c0.4-2.1,0.8-4.1,1.1-6.1c0.4-2.6,0.6-5.3,0.4-7.9c-0.1-1.4-0.5-2.8-1.3-4
		c-0.1-0.1-0.1-0.2-0.2-0.4c1.1-0.1,2.1-0.1,3.2-0.2c3.9-0.4,7.2-2,10.1-4.6c0.5-0.5,1-1.1,1.4-1.6c0.3-0.5,0.7-0.6,1.3-0.4
		c4.3,1.2,8.8,1.6,13.2,1.6c2.5,0,5-0.2,7.5-0.2c2.3,0,4.5,0.1,6.8,0.2c2.8,0.2,5.5,0.2,8.2-0.3c0.2,0,0.4,0,0.6-0.1
		c0.1,0,0.1,0,0.3,0.1c-1.3,9-3.9,17.5-9.1,25.1c-0.1,0-0.2,0-0.3,0c-1.9-1.2-4-1.2-6.1-0.6c-2,0.6-4,1.3-6,1.7
		c-2,0.4-4.1,0.7-6.2,0.9c-3.3,0.4-6.7,0.1-10-0.4c-1.6-0.2-3-0.7-4.6-1.7c0.5-0.2,0.8-0.3,1.2-0.4c3.4-1.1,6.8-2.4,9.9-4.2
		c2.1-1.2,4-2.6,5.7-4.4c1.5-1.7,3-3.4,4.5-5.1c0.4-0.5,0.8-1.1,1.1-1.7c0.4-0.7,0.2-1.4-0.3-1.9c-0.6-0.5-1.4-0.6-2-0.1
		c-0.6,0.4-1.1,0.9-1.5,1.5c-1.4,1.8-3,3.4-4.6,5c-2.6,2.5-5.8,4.4-9.1,5.9c-4.7,2.1-9.6,3.4-14.5,4.5
		C202.9,247.1,202.7,247.1,202.4,247.2z"/>
	<path class="st17" d="M274.7,88.2c0.1,2.2,0.2,4.3,0.3,6.4c-0.5,0.2-0.8,0.4-1.2,0.5c-2.3,0.9-4.6,2.1-6.6,3.6
		c-3.8,3-5.9,6.9-6.8,11.6c-0.6,2.9-0.7,5.9-0.8,8.8c0,0.5-0.1,1-0.1,1.6c-14.7-1.6-29.2-1.3-44.1-0.4c0.2-0.6,0.3-1,0.5-1.4
		c1.5-3.5,3.7-6.7,6.3-9.5c5.4-5.8,11.8-10.1,18.9-13.4c7.2-3.3,14.7-5.4,22.4-6.7c3.3-0.6,6.5-1,9.9-1
		C273.9,88.2,274.2,88.2,274.7,88.2z"/>
	<path class="st27" d="M138,249.9c6.5,2.7,12.8,5.4,19.3,8.2c-0.3,0.2-0.5,0.4-0.7,0.6c-3.3,2.6-6.3,5.4-8.9,8.6
		c-4.2,5.2-6.7,11.1-7.6,17.7c-0.7,5.1,0.1,9.9,2.1,14.6c0.2,0.4,0.3,0.7,0.5,1.2c-0.4,0-0.7,0-1-0.1c-5.6-1-11-2.7-16.3-4.6
		c-0.5-0.2-0.8-0.3-1-0.9c-0.7-3.6-1.3-7.1-1.4-10.8c-0.1-8.3,1.8-15.9,6.3-22.9c2.4-3.8,5.1-7.4,8-10.9
		C137.5,250.4,137.8,250.1,138,249.9z"/>
	<path class="st26" d="M120.5,241.8c4.7,2.1,9.5,4.3,14.3,6.4c-0.2,0.2-0.3,0.3-0.3,0.4c-3.5,3.4-6.5,7.3-9.2,11.3
		c-4.2,6.3-6.5,13.2-7,20.8c-0.3,4.1,0.1,8.1,0.9,12.1c0,0.2,0.1,0.4,0.1,0.7c-0.4-0.2-0.7-0.3-0.9-0.4c-4.7-2.3-9.3-4.7-14-7
		c-0.4-0.2-0.7-0.5-0.7-1c0-3.2-0.3-6.5,0-9.7c0.5-7,2-13.8,5.3-20.1c2.8-5.3,6.5-9.9,11.4-13.4
		C120.3,241.8,120.4,241.8,120.5,241.8z"/>
	<path class="st26" d="M161.1,259.6c5.7,2.3,11.3,4.5,16.9,6.7c0,0.1,0,0.1,0,0.2c-0.3,0.1-0.7,0.3-1,0.4
		c-7.1,2.9-11.8,8.1-14.1,15.4c-0.8,2.4-1.2,4.9-1,7.5c0,0.5,0.1,1,0.3,1.5c1.4,4.3,3.7,7.9,7.8,10.1c0.2,0.1,0.3,0.2,0.6,0.4
		c-0.9,0.1-1.6,0.2-2.2,0.2c-4.8,0.2-9.6,0.4-14.4,0.2c-1.6-0.1-3.3-0.3-4.9-0.4c-0.4,0-0.7-0.3-0.9-0.6c-3.4-6.1-4.7-12.4-2.9-19.3
		c1.4-5.4,3.9-10.2,7.5-14.4c2.3-2.6,4.7-5,7.3-7.3C160.4,260.1,160.8,259.8,161.1,259.6z"/>
	<path class="st17" d="M216.6,268.7c-1.5,0.8-2.8,1.6-4.2,2.3c-3.4,1.8-6.8,3.8-10.3,5.4c-4.9,2.3-10,4-15.3,5
		c-3,0.6-6.1,0.7-9.2,0.4c-3.1-0.3-6.2-0.5-9.4-0.7c0.1-0.3,0.2-0.5,0.3-0.8c2.2-4.3,5.4-7.4,9.8-9.2c1.5-0.6,3.1-1.1,4.6-1.6
		c0.7-0.2,1.5-0.4,2.2-0.8c1.8-0.9,1.9-3,0.2-4.1c-0.3-0.2-0.7-0.4-1.1-0.6c0.2-0.1,0.3-0.2,0.4-0.3c2-1.1,4-2.1,6-3.2
		c0.6-0.3,1.2-0.6,1.8-0.9c0.6-0.3,0.9-0.7,0.7-1.2c-0.1-0.5-0.6-0.9-1.2-0.9c-0.5,0-1.1,0.2-1.6,0.4c-2.2,1-4.3,2.1-6.5,3.2
		c-0.8,0.4-1.6,0.9-2.5,1.3c-0.2,0.1-0.6,0.2-0.9,0.1c-2.3-0.9-4.6-1.9-7-2.9c-0.1,0-0.2-0.1-0.3-0.2c0.1-0.2,0.2-0.4,0.3-0.6
		c2.5-3.5,5.1-7,7.7-10.6c1,0.6,1.9,1.2,2.8,1.8c0.2,0.1,0.3,0.4,0.4,0.6c0.9,1.9,2.5,2.8,4.5,3c1.1,0.1,2.3,0.1,3.4,0
		c0.8-0.1,1.4,0,2,0.4c1.3,1,2.7,1.8,3.9,3c1.2,1.2,2.6,2.2,3.9,3.1c3.7,2.7,7.7,5.2,11.8,7.3C214.9,268,215.7,268.3,216.6,268.7z"
		/>
	<path class="st27" d="M116.9,240.2c-0.2,0.1-0.2,0.2-0.3,0.2c-6.8,4.7-11.3,11.2-14.2,18.8c-2.7,6.9-3.7,14.2-3.5,21.6
		c0,0.8,0.1,1.5,0.2,2.4c-0.4-0.1-0.6-0.2-0.8-0.3c-3.9-2.2-7.8-4.4-11.7-6.6c-1.1-0.6-1.5-1.4-1.7-2.6c-1.6-8.8,2.2-21.3,8-28.4
		c2.3-2.9,4.8-5.7,7.9-7.8c1.4-1,3-1.7,4.4-2.5c0.4-0.2,0.7-0.2,1.2,0c3.4,1.7,6.8,3.4,10.2,5.1C116.6,240,116.7,240.1,116.9,240.2z
		"/>
	<path class="st13" d="M260.6,193.2c-0.1-0.1-0.1-0.2-0.1-0.2c1-2.3,1.4-4.8,1.7-7.3c0.2-2,1-3.7,2.1-5.4c0.7-1.1,1.4-2.2,2.1-3.4
		c0.8-1.4,1.4-2.9,1.7-4.5c0.1-0.6,0.4-0.9,0.9-1.2c5.7-2.9,11-6.5,16.2-10.2c4.3-3,8.1-6.6,11.4-10.7c2.4-3,5-5.9,7.5-8.8
		c0.7-0.8,1.5-1.5,2.3-2.2c0.2-0.2,0.5-0.3,0.8-0.5c0.2,0.3,0.4,0.6,0.5,0.9c1.6,3.2,2.9,6.6,4,10c0.2,0.7,0.4,1.3,0.5,2
		c0.1,0.7,0,1.3-0.6,1.7c-0.7,0.6-1.5,1.3-2.3,1.8c-1.7,1-3.4,2-5.1,2.9c-6.8,3.7-13,8.2-18.7,13.4c-4.3,4-8.5,8-12.8,12
		c-2.9,2.7-5.8,5.4-8.9,7.7c-0.7,0.5-1.4,1-2.1,1.4C261.3,192.9,261,193,260.6,193.2z"/>
	<path class="st27" d="M322.5,183.3c0.9,1.2,1.7,2.4,2.6,3.6c-7.3,4.3-14.6,8.6-22,12.7c-7.4,4.2-14.8,8.2-22.3,12.2
		c-7.5,4-14.9,8-22.5,12c0-0.7,0-1.2,0-1.9c0.5-0.2,1.1-0.4,1.6-0.6c1.8-0.7,3.6-1.6,5.2-2.6c1.8-1.1,3.2-2.6,4.3-4.3
		c0.9-1.5,1.9-3,2.8-4.5c1.6-2.6,3.6-4.7,6.1-6.5c0.6-0.5,1.3-1,1.9-1.4c4.1-2.8,8.3-5.7,12.4-8.5c6-4.1,12.7-6.7,19.7-8.2
		c3.1-0.7,6.3-1.2,9.4-1.9C322.1,183.3,322.3,183.3,322.5,183.3z"/>
	<path class="st24" d="M263.5,128.6c0,1.8-0.5,3.4-1.4,4.9c-0.8,1.3-2,2-3.5,1.9c-2.7-0.1-5.4-0.3-8.1-0.5c-1.7-0.1-3.4-0.4-5.2-0.7
		c-2.4-0.4-4.9-0.7-7.4-0.4c-3.2,0.3-6.5,0-9.7-0.6c-2.6-0.5-5.2-0.4-7.8-0.1c-2,0.2-4,0.5-6,0.6c-1,0.1-2-0.1-2.9-0.3
		c-1.4-0.4-1.9-1.1-1.9-2.5c0-0.8,0.1-1.7,0.3-2.5c0.2-1.3,1-2.2,2.1-2.9c1.6-1,3.4-1.4,5.4-1.5c2.8-0.1,5.6-0.2,8.5-0.3
		c3.9-0.1,7.9-0.3,11.8-0.3c5.5,0.1,11,0.3,16.5,0.6c1.5,0.1,3,0.3,4.5,0.3c0.7,0,1.5-0.1,2.2-0.1c0.3,0,0.6,0,0.9,0.2
		c1,0.6,1.6,1.5,1.7,2.6C263.5,127.5,263.5,128,263.5,128.6z"/>
	<path class="st17" d="M188.8,211.7c2-0.9,4.1-1.3,6.2-1.7c0.7-0.1,1.4-0.2,2-0.4c0.7-0.2,1.1-0.8,1-1.4c-0.1-0.6-0.6-1-1.4-1
		c-0.3,0-0.7,0-1,0.1c-2.3,0.4-4.6,1-6.9,2c-0.4-1.5-0.9-3-2.1-4c-1.1-1-2.4-1.9-3.6-2.9c5.3-3.3,11-5.9,17.6-6.4
		c-0.2,0.3-0.2,0.6-0.4,0.8c-2.5,3.7-2.4,10.3,0.5,14.2c1.3,1.8,2.8,3.4,4.6,4.7c2.6,1.9,5.5,3.4,8.5,4.6c0.4,0.2,0.8,0.3,1.2,0.5
		c-0.1,0.1-0.1,0.3-0.2,0.4c-1.1,0.8-2.2,1.6-3.3,2.4c-2.7,1.8-5.7,2.5-8.9,2.6c-0.7,0-1.4,0-2.1,0c-0.7-0.1-1.4-0.2-2.1-0.3
		c-2.8-0.8-5.5-0.7-8.2,0.1c-0.6,0.2-1.2,0.6-1.8,0.9c-0.9,0.5-1.6,0.1-1.5-0.9c0.2-2.4-0.7-4.4-1.7-6.4c-0.1-0.2-0.1-0.3-0.2-0.5
		c0.1-0.1,0.2-0.2,0.4-0.2c1.9-0.7,2.8-2.1,3.1-4C188.5,213.7,188.6,212.8,188.8,211.7z"/>
	<path class="st51" d="M258,139.1c-0.3,1.1-0.6,1.9-0.9,2.8c-0.3,0.9-0.9,1.5-1.7,2.1c-3.9,2.6-8,4.7-12.5,6.1
		c-1.7,0.6-3.3,1.4-5.1,2.1c0-0.1-0.1-0.3-0.1-0.4c0.1-3.7-3.1-6.2-6.7-5.3c-2.4,0.6-4.2,2.1-5.3,4.4c-0.4,0.9-0.5,1.9-0.7,2.9
		c-0.4,0.1-0.8-0.1-1.1-0.4c-1.1-0.9-2.4-1.5-3.7-2c-0.9-0.3-1.7-0.8-2.6-1.2c-1.3-0.7-2.7-1.4-4-2c-1-0.5-1.5-1.1-1.5-2.2
		c0-1.3-0.2-2.5-0.2-3.8c0-1.6,0.5-3,1.4-4.3c0.1-0.2,0.5-0.4,0.7-0.5c3.3-0.4,6.6-0.8,10-1.1c1.4-0.1,2.9,0.1,4.4,0.4
		c2.8,0.5,5.7,0.8,8.5,0.6c3.3-0.2,6.5,0.2,9.6,0.8c1.4,0.3,2.8,0.3,4.2,0.4C253.2,138.8,255.5,138.9,258,139.1z M221.4,141
		c-1.6,0-2.9,0.4-4,1.3c-0.3,0.3-0.6,0.7-0.9,1c-0.2,0.3-0.3,0.8,0.1,1c0.3,0.2,0.7,0.3,1,0.3c0.4,0,0.9-0.3,1.3-0.4
		c1.4-0.5,2.8-0.6,4.1,0.1c0.3,0.2,0.6,0.3,1,0.4c0.8,0.3,1.5,0.6,2.3,0.8c0.7,0.2,1.3-0.2,1.5-0.7c0.2-0.6,0-1.1-0.6-1.5
		c-0.9-0.6-1.8-1.1-2.7-1.6C223.5,141.3,222.4,140.9,221.4,141z M248.8,144.2c0.3-0.2,0.7-0.4,0.9-0.7c0.3-0.4,0.1-0.9-0.2-1.2
		c-0.5-0.4-1-0.8-1.5-1.1c-2.7-1.8-6.7-1.5-8.9,0.4c-0.5,0.4-0.9,1-1.3,1.5c-0.2,0.3-0.1,0.7,0.2,1.1c0.3,0.3,0.7,0.4,1.1,0.2
		c0.3-0.1,0.7-0.4,1-0.6c1.5-1,3.2-1.5,5.1-1c0.8,0.2,1.6,0.7,2.4,1C247.9,143.9,248.3,144,248.8,144.2z"/>
	<path class="st46" d="M127.7,302.7c-0.6,0.3-1.2,0.6-1.8,0.8c-7.7,2.8-15.5,5.5-23.6,6.9c-10.5,1.8-20.5,0.3-30-4.5
		c-4.9-2.4-8.8-6-12.2-10.3c-1-1.2-1.8-2.6-2.2-4.1c-0.1-0.2-0.1-0.4-0.2-0.7c1.4-0.5,2.7-1,4.1-1.5c0.2,0.3,0.4,0.4,0.5,0.6
		c2.1,3.3,4.9,6,8.1,8.2c3.9,2.7,8.1,4.8,12.7,6c3.1,0.8,6.2,1,9.3,0.9c4.6-0.1,9.2-0.8,13.7-2c3.6-1,7.1-2.5,10.1-4.7
		C120,299.6,123.8,301.1,127.7,302.7z"/>
	<path class="st24" d="M198.2,252.1c1.3-0.9,2.5-1.6,4.1-1.8c2.3-0.3,4.5-0.9,6.8-1.3c0.4-0.1,0.8-0.2,1.2,0.2c1.9,2,4.4,3,7.1,3.5
		c6.8,1.2,13.6,1,20.3-0.9c1.1-0.3,2.2-0.6,3.3-0.8c0.5-0.1,1-0.1,1.4,0c1.5,0.3,1.8,1.4,1.5,2.8c-0.5,2.3-2.1,3.7-3.7,5
		c-3.3,2.6-6.9,4.5-10.7,6c-4.1,1.7-8.2,1.1-12.2-0.8c-2.1-1-4.2-2.2-6.2-3.5c-3.3-2.1-6.5-4.3-9.8-6.4c-0.8-0.5-1.7-1-2.5-1.5
		C198.6,252.4,198.4,252.3,198.2,252.1z"/>
	<path class="st26" d="M102.3,232.8c-10.1,5.5-16.6,13.7-20.1,24.3c-1.2,3.6-1.8,7.3-2,11.1c-0.1,1.2,0,2.4,0,3.6
		c-0.1,0-0.2,0-0.3-0.1c-1.7-1.4-3.4-2.7-4.9-4.2c-1.6-1.5-2.1-3.5-2.4-5.6c-0.6-4.3,0.2-8.3,1.6-12.3c2.4-6.6,6.5-11.9,12.1-16
		c2.9-2.1,6.3-3.3,9.8-3.9c0.2,0,0.5-0.1,0.7,0C98.6,230.8,100.4,231.8,102.3,232.8z"/>
	<path class="st27" d="M130.8,241.7c4.3-1.2,8.5-2.4,12.6-3.6c3.7-1.1,7.3-2.4,10.9-4c3.4-1.5,6.9-3.1,10.3-4.6
		c0.6-0.3,1.1-0.2,1.7,0c1,0.4,1.9,0.7,3,1.1c-0.1,0.2-0.3,0.4-0.5,0.7c-1.2,1.5-1.7,3.2-1.3,5.1c0.2,0.8,0.6,1.5,1,2.3
		c0.1,0.3,0.4,0.5,0.6,0.8c-0.3,0.2-0.6,0.3-0.9,0.4c-5.6,2.5-10.8,5.6-15.8,9.1c-0.4,0.3-0.7,0.5-1,0.9c-0.5,0.5-1,0.6-1.7,0.3
		c-4.1-1.8-8.2-3.6-12.3-5.4c-1.8-0.8-3.6-1.6-5.4-2.4C131.5,242,131.2,241.8,130.8,241.7z"/>
	<path class="st24" d="M173.3,203.7c2.2-0.1,4.4,0.4,6.5,1.1c1.2,0.4,2.3,1.1,3.3,1.9c1.2,1,1.9,2.3,1.8,3.8
		c-0.1,1.3-0.3,2.6-0.4,3.8c-0.1,0.7-0.5,1.1-1.3,1.1c-0.4,0-0.8,0.1-1.2,0.1c-5,0-9.9,0.6-14.9,1.2c-2.6,0.3-4.2-0.9-4.6-3.5
		c-0.4-2.5,0-5,0.9-7.4c0.2-0.5,0.5-0.8,1.1-1C167.4,204.2,170.3,203.9,173.3,203.7z"/>
	<path class="st24" d="M189.4,228.4c2.5-0.5,4.9-0.6,7.3,0.1c2.1,0.7,3.2,2.3,3.4,4.4c0.1,1.9,0.1,3.8-0.1,5.6
		c-0.3,2.5-0.8,5-1.2,7.5c-0.2,1.4-0.9,2.3-2.3,2.9c-1.9,0.8-3.7,1.5-5.8,1.4c-0.2,0-0.4,0-0.6,0c-1.6-0.2-2.2-0.8-2.1-2.4
		c0.1-1.9,0.3-3.8,0.7-5.7c0.9-4.4,1.2-8.9,0.7-13.4C189.4,228.8,189.4,228.7,189.4,228.4z"/>
	<path class="st17" d="M170.2,258.3c-5.2-2.1-10.5-4.3-15.8-6.5c0.3-0.2,0.5-0.4,0.7-0.5c5.1-3.7,10.5-7,16.3-9.5
		c0.6-0.3,1.1-0.3,1.8-0.1c1.4,0.5,2.8,0.9,4.2,1.4c0.3,0.1,0.6,0.3,0.7,0.5c0.5,0.9,0.9,1.8,1.4,2.7
		C176.4,250.3,173.3,254.3,170.2,258.3z"/>
	<path class="st46" d="M188.9,304c1.5-0.5,2.9-0.9,4.6-1.4c0.9,8.5,2.1,16.8,3.6,25.2c-1.6,0.5-3.3,1-4.9,1.5
		c-0.1-0.2-0.1-0.3-0.1-0.4c0.3-2.5-0.4-5-0.7-7.5c-0.4-3.6-0.9-7.1-1.4-10.7c-0.3-2-0.7-4.1-1-6.1C189,304.5,189,304.3,188.9,304z"
		/>
	<path class="st24" d="M283.1,98.8c-1.2,0-2-0.4-2.4-1.4c-0.7-1.5-1.4-3-1.7-4.7c0-0.3-0.1-0.6,0-0.8c0.1-0.7,0.1-1.3-0.2-2
		c-0.3-0.8-0.3-1.8-0.1-2.7c0.2-0.7,0.8-1.3,1.4-1.8c0.2-0.2,0.7-0.4,1-0.4c1.3,0.1,2.6,0.2,4,0.3c0.6,0,1,0.3,1.3,0.9
		c0.7,1.3,1.4,2.5,2.1,3.7c0.7,1.1,0.6,2.2-0.1,3.3c-1,1.4-1.9,2.8-2.9,4.2C284.8,98.3,284,98.8,283.1,98.8z"/>
	<path class="st46" d="M335.6,240.4c0,0.6,0.1,0.9,0.1,1.2c0,5.2-0.1,10.5-0.2,15.7c0,2.9-0.1,5.8-0.1,8.7c0,1.1,0.1,2.2,0.2,3.4
		c-1.1,0.5-2.2,0.9-3.4,1.4c0.4-4.8,0.2-9.5,0.1-14.3c-0.2-4.7-0.4-9.4-1-14.1C332.6,241.8,334,241.2,335.6,240.4z"/>
	<path class="st53" d="M164.2,220.4c2.5,0.4,5,0.1,7.5-0.2c2.9-0.3,5.7-0.7,8.7-0.7c-0.1,0.3-0.1,0.5-0.2,0.7
		c-0.6,1.5-1.4,2.9-2.4,4.1c-2,2.2-4.4,3.3-7.3,3.1C166.8,227.3,164.1,224.6,164.2,220.4z"/>
	<path class="st24" d="M180.6,231.2c-2.6,3.8-3.2,4.6-3.6,9c-1.9-0.8-3.8-1.5-5.3-2.9c-1.4-1.2-1.5-3.3-0.3-4.7
		c1.2-1.4,2.8-2.3,4.6-2.7c0.5-0.1,1,0,1.4,0.1C178.6,230.4,179.5,230.8,180.6,231.2z"/>
	<path class="st53" d="M185.9,230.8c0,0.5,0,1,0,1.5c0,0.1,0,0.2,0,0.3c0.1,3.3-0.6,6.5-1.2,9.7c-0.2,1.1-0.4,2.3-0.6,3.5
		c-2.9-2-4.4-6.2-3-9.5c0.8-1.9,1.9-3.5,3.3-4.9c0.3-0.3,0.8-0.5,1.2-0.8C185.7,230.7,185.8,230.7,185.9,230.8z"/>
	<path class="st26" d="M305.7,161.6c0.9,1.2,1.9,2.5,2.8,3.7c-3,1-6,1.9-8.9,3c-2.9,1.1-5.7,2.5-8.5,3.7
		C292.3,170.3,302.8,162.7,305.7,161.6z"/>
	<path class="st51" d="M234.9,151.6c0,0.1-0.1,0.3-0.1,0.4c-0.4,1.5-2.4,3.3-4,3.4c-0.9,0.1-1.6-0.3-2.1-1.1
		c-0.2-0.4-0.4-0.8-0.5-1.2c-0.3-0.9-0.1-1.7,0.6-2.4c0.8-0.8,1.8-1.4,2.9-1.6C233.3,148.7,234.9,150,234.9,151.6z"/>
	<path class="st17" d="M183,229.1c-0.6-0.3-1.2-0.6-1.8-0.9c-0.6-0.3-1.1-0.5-1.9-0.8c1.8-1.7,3-3.6,3.9-5.8
		c0.8,2.1,0.9,4.4,1.5,6.5C184.2,228.5,183.7,228.8,183,229.1z"/>
	<path d="M229.2,170.5c-2.3-0.1-4.2-1-5.7-2.7c-1.5-1.7-2.6-3.5-3.3-5.7c-0.2-0.5-0.2-1.1-0.1-1.6c0.3-1,1.4-1.4,2.5-1.1
		c0.4,0.1,0.8,0.3,1.1,0.5c2.6,1.5,5.4,1.6,8.2,1.3c1.1-0.1,2.2-0.4,3.3-0.8c1.5-0.6,2.9,0.5,2.7,2.1
		C237.4,167.3,232.8,170.6,229.2,170.5z"/>
	<path d="M221.4,141c1,0,2.1,0.3,3.1,0.8c0.9,0.5,1.8,1,2.7,1.6c0.6,0.4,0.8,0.9,0.6,1.5c-0.2,0.6-0.8,0.9-1.5,0.7
		c-0.8-0.2-1.6-0.5-2.3-0.8c-0.3-0.1-0.6-0.3-1-0.4c-1.4-0.7-2.7-0.7-4.1-0.1c-0.4,0.2-0.8,0.4-1.3,0.4c-0.3,0-0.7-0.1-1-0.3
		c-0.3-0.3-0.3-0.7-0.1-1c0.2-0.4,0.5-0.8,0.9-1C218.5,141.4,219.8,141,221.4,141z"/>
	<path d="M248.8,144.2c-0.6-0.2-1-0.4-1.4-0.5c-0.8-0.3-1.6-0.8-2.4-1c-1.8-0.4-3.5,0-5.1,1c-0.3,0.2-0.6,0.4-1,0.6
		c-0.4,0.2-0.8,0.1-1.1-0.2c-0.3-0.3-0.4-0.7-0.2-1.1c0.4-0.5,0.8-1.1,1.3-1.5c2.3-1.8,6.2-2.1,8.9-0.4c0.5,0.3,1,0.7,1.5,1.1
		c0.4,0.3,0.5,0.8,0.2,1.2C249.5,143.9,249.1,144,248.8,144.2z"/>
</g>
</svg>
