<?xml version="1.0" encoding="utf-8"?>
<!-- Generator: Adobe Illustrator 22.0.0, SVG Export Plug-In . SVG Version: 6.00 Build 0)  -->
<svg version="1.1" id="Calque_1" xmlns="http://www.w3.org/2000/svg" xmlns:xlink="http://www.w3.org/1999/xlink" x="0px" y="0px"
	 viewBox="0 0 432 432" style="enable-background:new 0 0 432 432;" xml:space="preserve">
<style type="text/css">
	.st0{fill:#E0EDF3;}
	.st1{fill:#A5C0DF;}
	.st2{fill:#3F668A;}
	.st3{fill:#162740;}
	.st4{fill:#7B9EC7;}
	.st5{fill:#571419;}
	.st6{fill:#020203;}
	.st7{fill:#F39323;}
	.st8{fill:#8C633A;}
	.st9{fill:#6189B1;}
	.st10{fill:#A8C4D3;}
	.st11{fill:#989389;}
	.st12{fill:#DED3C6;}
	.st13{fill:#36502D;}
	.st14{fill:#DAA405;}
	.st15{fill:#DFE6ED;}
	.st16{fill:#D06C5D;}
	.st17{fill:#972021;}
	.st18{fill:#79986F;}
	.st19{fill:#FFF0BA;}
	.st20{fill:#C9D0D6;}
	.st21{fill:#E7E6E6;}
	.st22{fill:#CDCCCC;}
	.st23{fill:#B4B4B4;}
	.st24{fill:#FFFFFF;}
	.st25{fill:#9F1E29;}
	.st26{fill:#754D24;}
	.st27{fill:#A67D52;}
	.st28{fill:#CDE3EA;}
	.st29{fill:#F2F2F2;}
	.st30{fill:#C7B29A;}
	.st31{fill:#BCA48A;}
	.st32{fill:#D79A5D;}
	.st33{fill:#90443F;}
	.st34{fill:#D6A14D;}
	.st35{fill:#365461;}
	.st36{fill:#4C672C;}
	.st37{fill:#7D915E;}
	.st38{fill:#67302B;}
	.st39{fill:#96B8AA;}
	.st40{fill:#C5463F;}
	.st41{fill:#AFA453;}
	.st42{fill:#F1969D;}
	.st43{fill:#603914;}
	.st44{fill:#82171C;}
	.st45{fill:#066938;}
	.st46{fill:#9A9999;}
	.st47{fill:#C9913E;}
	.st48{fill:#E2A1BC;}
	.st49{fill:#808181;}
	.st50{fill:#C1292E;}
	.st51{fill:#EDCBA9;}
	.st52{fill:#699CBB;}
	.st53{fill:#4E4D4D;}
	.st54{fill:#C29245;}
	.st55{fill:#BB7E28;}
	.st56{fill:#C8904C;}
	.st57{fill:#BB7926;}
	.st58{fill:#A3282E;}
</style>
<path class="st0" d="M264.1,293c0.3-0.2,0.7-0.3,1-0.5c2.4-1.5,4.8-2.9,7.2-4.4c1.7-1.1,3.5-2.1,5.2-3.2c0.5-0.3,1-0.6,1.5-0.7
	c1-0.4,1.6,0,1.8,1c0.1,0.5,0.2,1.1,0.2,1.7c0.1,3.9,0.2,7.8,0.3,11.7c0,1.4,0.2,2.8,0.3,4.2c2.2,0.3,4.4,0.7,6.6,1
	c5.7,0.7,11.2,2.2,16.6,4.2c0.5,0.2,1,0.5,1.5,0.8c1.2,0.8,1.4,1.9,0.6,3.1c-0.4,0.6-0.9,1.3-1.5,1.8c-1.8,1.5-3.6,3-5.5,4.3
	c-5.1,3.5-10.2,6.8-15.3,10.2c-0.2,0.2-0.5,0.4-0.8,0.6c0.4,0.9,0.8,1.8,1.1,2.8c1,2.5,1.9,5,2.9,7.5c0.2,0.5,0.3,1,0.4,1.5
	c0.1,1.4-0.5,2.2-1.9,2.2c-1.4,0-2.9,0.1-4.3-0.1c-2.9-0.3-5.8-0.7-8.9-1c-0.1,0.1-0.2,0.4-0.4,0.6c-2.1,4.4-4.1,8.9-6.2,13.3
	c-0.3,0.7-0.7,1.3-1.1,1.9c-1.1,1.6-2.5,1.9-3.9,0.6c-1.8-1.6-3.5-3.3-5.1-5.2c-2.1-2.5-4.1-5.2-6.1-7.9c-0.3-0.4-0.6-0.8-1-1.3
	c-0.5,0.2-0.9,0.4-1.3,0.6c-2.8,1.5-5.7,2.9-8.6,4.3c-1,0.5-2.1,0.8-3.2,1.1c-1.4,0.4-2.2-0.3-2.1-1.8c0.1-4.9,0.3-9.9,0.5-14.9
	c-0.6-0.3-1.3-0.6-2.1-0.9c-4.2-1.7-8.5-3.3-12.7-4.9c-1-0.4-1.9-0.8-2.8-1.3c-0.5-0.3-0.9-0.6-1.3-1c-0.7-0.8-0.7-1.7-0.1-2.6
	c0.2-0.3,0.5-0.6,0.8-0.8c2.1-1.6,4.1-3.3,6.2-4.9c2.2-1.7,4.4-3.3,6.5-4.9c1.2-0.9,2.4-1.8,3.7-2.8c-0.2-0.4-0.3-0.9-0.5-1.4
	c-1.4-3.4-2.8-6.8-4.3-10.1c-0.8-1.7,0.3-2.6,1.7-2.5c0.6,0,1.1,0.2,1.6,0.3c3.6,1,7.2,2.1,10.9,3.1c0.2,0.1,0.5,0.1,0.8,0.2
	c0.3-1.6,0.6-3.1,1-4.6c1.1-5.1,2.2-10.2,3.4-15.3c0.1-0.6,0.2-1.3,0.4-1.9c0.4-1.4,1.5-2,2.8-1.4c0.8,0.4,1.7,0.9,2.3,1.6
	c1.6,1.9,3.1,3.9,4.4,5.9c2.2,3.3,4.3,6.7,6.5,10C263.8,292.7,263.9,292.8,264.1,293z M291.7,312.1c-4.7-0.9-9-1.7-13.4-2.5
	c-4.4-0.8-8.7-1.6-13.2-2.4c-1.9,2.9-3.9,5.9-6,8.9C261,316.4,290.1,312.8,291.7,312.1z M257.9,320.8c0.1,2.3,4.7,25.3,5.4,27
	c0.2-0.5,0.3-1,0.5-1.4c1.2-3.8,2.3-7.6,3.4-11.4c0.5-1.6,0.8-3.2,1.3-4.7c0.3-0.9,0-1.4-0.7-2c-1.8-1.3-3.6-2.7-5.4-4.1
	C261,323,259.6,322,257.9,320.8z M261.4,319.4c3.4,2.5,6.7,5,9.9,7.3c1.8-0.9,3.4-1.7,5-2.6c4.3-2.6,8.6-5.3,12.9-8
	c0.1-0.1,0.2-0.2,0.3-0.2c0,0,0-0.1,0-0.1c0,0,0,0,0,0C280.1,317,270.9,318.2,261.4,319.4z M252.4,320.3c0-0.1-0.1-0.2-0.1-0.3
	c-8.2,0.5-16.5,0.7-24.8,1.8c6.2,2.3,12.4,4.6,18.2,8C248,326.6,250.2,323.4,252.4,320.3z M277.9,288.4c-3.8,5.6-7.5,11-11.3,16.6
	c4.2,0.7,8.2,1.3,12.2,1.9C278.5,300.7,278.2,294.6,277.9,288.4z M249.6,277.1c-1.8,7.3-3.4,14.4-5,21.6c0.8,0.2,1.5,0.3,2.3,0.5
	c0.4-1.6,0.7-3,1-4.4c0.8-3.4,1.5-6.7,2.3-10.1c0.1-0.6,0.5-0.9,1.1-1c0.6-0.1,1,0.2,1.2,0.7c0.2,0.6,0.4,1.1,0.7,1.7
	c1.8,3,3.5,6.1,5.3,9.1c0.2,0.3,0.4,0.6,0.7,1c1-0.6,1.8-1.2,2.7-1.8c-0.8-1.3-1.6-2.4-2.3-3.5c-2.3-3.5-4.7-7.1-7-10.6
	C251.8,279.1,251,278,249.6,277.1z M304.7,310.4c-0.8-0.3-1.4-0.5-2-0.7c-5.3-1.7-10.7-3-16.2-3.9c-1.6-0.2-3.1-0.7-4.7-1
	c0,0.9,0,1.7,0,2.7c1.3,0.2,2.6,0.5,3.9,0.7c4.1,0.7,8.1,1.4,11.9,3c1.6,0.7,1.8,1.8,0.5,2.9c-0.7,0.7-1.6,1.2-2.4,1.8
	c-4.4,2.7-8.7,5.4-13.1,8.2c-0.3,0.2-0.5,0.4-0.8,0.6c0.3,0.6,0.5,1,0.8,1.6c0.3-0.2,0.4-0.2,0.6-0.3c4.8-3.2,9.6-6.5,14.4-9.8
	c2-1.4,3.9-2.8,5.8-4.3C303.8,311.4,304.1,311,304.7,310.4z M247.9,332.7c3.8,4,7,8.2,10.9,12c-1.4-7.3-2.8-14.4-4.3-21.8
	C252.3,326.3,250.1,329.5,247.9,332.7z M230.7,318.6c7.2-0.5,14.5-1.1,22-1.6c-2.9-2.2-5.6-4.2-8.3-6.2
	C239.6,313.1,235,315.6,230.7,318.6z M254,292.5c0.3,7.7,2,19.8,2.8,21.4c1.8-2.6,3.5-5.1,5.2-7.5
	C259.3,301.7,256.7,297.1,254,292.5z M233.6,310.8c-0.8,0.6-1.4,1.1-2,1.6c-2.9,2.5-6,4.8-9.3,6.9c-1.3,0.9-2.5,1.9-3.8,3
	c-0.3,0.2-0.5,0.5-0.9,1c5.8,2.3,11.5,4.6,17.2,6.8c0.1-0.7,0.3-1.5,0.4-2.2c-0.3-0.2-0.6-0.3-0.9-0.4c-3-1.1-6.1-2.3-9.1-3.4
	c-0.9-0.3-1.8-0.7-2.6-1.1c-0.6-0.3-1.1-0.8-1.1-1.5c0-0.8,0.6-1.1,1.2-1.4c1.1-0.5,2.1-1,3.1-1.5c2.7-1.5,5.4-3.1,8.1-4.7
	c0.3-0.2,0.5-0.4,0.8-0.5C234.4,312.4,234.1,311.7,233.6,310.8z M270.7,330.6c-0.8,2.7-1.5,5.2-2.2,7.8c5.1,0.5,9.9,1.5,14.9,1.4
	C279.2,336.8,275,333.7,270.7,330.6z M267.9,340.5c-0.2,0.5-0.3,0.9-0.4,1.3c-0.9,2.9-1.7,5.7-2.6,8.6c-0.2,0.6-0.4,1.1-0.7,1.7
	c-0.6,1.1-1.8,1.2-2.6,0.2c-0.3-0.3-0.4-0.7-0.6-1c-0.3-0.4-0.5-0.8-0.8-1.2c-2.3-2.5-4.6-5-6.9-7.6c-0.2-0.2-0.5-0.5-0.7-0.7
	c-0.5,0.3-1,0.5-1.5,0.7c1,1.3,1.9,2.5,2.9,3.6c2.5,3,5.1,6,7.7,9c0.4,0.4,0.9,0.8,1.4,1.3c2.5-5.3,5-10.3,7.5-15.5
	C269.5,340.7,268.7,340.6,267.9,340.5z M246.9,309.1c2,1.5,3.9,2.9,6,4.4c-0.8-7-1.5-13.7-2.3-20.4c-0.1,0-0.1,0-0.2,0
	C249.3,298.3,248.1,303.6,246.9,309.1z M237.6,328.7c-0.5,4.7-0.7,9.2-0.6,13.7c2.3-3.5,4.7-6.9,7.1-10.5
	C242,330.9,239.9,329.9,237.6,328.7z M263.6,304c2.5-3.1,8.5-11.8,8.6-12.6c-3.9,2.2-7.9,4.5-11.9,6.8
	C261.4,300.1,262.4,302,263.6,304z M231.5,300.3c0,0-0.1,0.1-0.1,0.1c1.7,4,3.4,8,5.2,12c2-1,3.9-2,5.9-3
	C238.8,306.3,235.2,303.3,231.5,300.3z M246.3,301.9c-4.2-1.1-8.3-2.2-12.5-3.3c0.9,1.1,10.1,8.4,11.4,9
	C245.5,305.6,245.9,303.7,246.3,301.9z M246.7,334.5c-2.4,3.5-4.6,6.8-6.6,10.3c3.5-1.7,7-3.4,10.6-5.2
	C249.4,337.9,248.1,336.3,246.7,334.5z M273.8,328.7c3.3,2.4,6.4,4.7,9.5,7c0.1-0.1,0.2-0.1,0.3-0.2c-1.3-3.2-2.7-6.4-4.1-9.7
	C277.6,326.8,275.8,327.7,273.8,328.7z"/>
<path class="st1" d="M240.7,158.6c-5.4-3-10.7-5.9-15.9-8.8c0,0-0.1,0.1-0.1,0.1c0.2,0.2,0.3,0.4,0.5,0.6c1.4,1.5,2.8,3,4.2,4.6
	c0.2,0.3,0.5,0.5,0.7,0.8c0.5,0.6,0.5,1.1,0.1,1.5c-0.4,0.4-0.9,0.4-1.5-0.1c-0.9-0.8-1.8-1.6-2.6-2.5c-1.5-1.5-3-3-4.4-4.5
	c-0.2-0.2-0.3-0.3-0.7-0.3c0.6,1.4,1.3,2.9,1.9,4.3c0.6,1.5,1.2,2.9,1.8,4.4c0.2,0.5,0.5,0.9,1,1.1c1.5,0.7,2,1.6,1.9,3
	c-0.1,1.3-1,2.4-2.3,2.9c-1.9,0.7-4.1-0.9-4-3c0.1-0.8,0.4-1.6,0.7-2.4c-1.8-4.1-3.7-8.3-5.5-12.5c-0.1,0-0.1,0-0.2,0
	c0,0.4,0,0.8,0,1.1c0.4,3.9,0.7,7.9,1.1,11.8c0,0.4,0.1,0.8,0.1,1.2c-0.1,0.6-0.5,1.1-1.1,1.1c-0.6,0.1-1-0.3-1.2-0.9
	c-0.1-0.3-0.1-0.7-0.2-1.1c-0.3-2.7-0.5-5.3-0.8-8c0-0.5-0.1-0.9-0.2-1.4c-0.1,0-0.2,0-0.2,0c-1.4,7.1-2.8,14.2-4.2,21.2
	c0.7,0.8,1.3,1.5,1.9,2.2c1.3,1.7,0.6,3.8-0.5,4.9c-2.1,2.3-6,2-7.8-0.5c-1.5-2.1-0.5-5.5,2.1-6.5c1.1-0.4,1.4-1.1,1.6-2.1
	c1.5-7.6,3.1-15.2,4.6-22.9c0-0.2,0.1-0.4-0.1-0.7c-2.3,3-4.6,6-7,9.1c0.1,0.2,0.2,0.5,0.4,0.7c1.1,1.7,0,3.8-1.7,4.6
	c-0.1,0-0.2,0-0.2,0.1c-1.6,0.6-2.8,0.3-3.6-0.6c-0.8-0.9-0.7-2.6,0.1-3.8c0.5-0.8,1.1-1.4,2.1-1.7c0.3-0.1,0.6-0.3,0.8-0.5
	c1.4-1.9,2.8-3.8,4.2-5.7c0.1-0.2,0.2-0.4,0.2-0.7c-0.3,0.1-0.5,0.3-0.8,0.4c-2.1,1.1-4.3,2.2-6.4,3.3c-0.4,0.2-0.9,0.4-1.4,0.4
	c-0.2,0-0.7-0.1-0.7-0.3c-0.1-0.2,0-0.7,0.1-0.8c0.4-0.4,0.8-0.8,1.3-1.1c2-1.2,4-2.4,6-3.7c1.2-0.8,2.4-1.6,3.6-2.5
	c-3.5,0.9-17.3,6.1-18.9,7.4c0,0.1,0,0.2,0,0.3c0.8,2.4-0.7,5.5-3.9,6.4c-2,0.6-3.7-0.3-5-1.8c-1.3-1.5-1.5-3.2-0.7-5
	c0.8-1.8,2.2-2.7,4.1-2.8c1.1-0.1,2.2,0.2,3.1,0.7c0.5,0.3,0.9,0.3,1.4,0c4.7-2.7,9.7-4.7,14.7-6.6c0.1-0.1,0.3-0.1,0.6-0.3
	c-0.5-0.1-0.8-0.2-1.1-0.2c-3.7-0.4-7.3-0.7-11-1.1c-0.6-0.1-0.9,0.1-1.4,0.5c-1.6,1.5-4,0.8-4.8-1.2c-0.6-1.8,0.6-3.5,2.5-3.5
	c1.1,0,2,0.6,2.8,1.3c0.3,0.3,0.6,0.4,1,0.5c3.4,0.2,6.8,0.4,10.3,0.6c0.2,0,0.3,0,0.5-0.1c-0.2-0.1-0.5-0.3-0.7-0.4
	c-2.1-0.8-4.2-1.5-6.3-2.3c-0.3-0.1-0.7-0.3-0.9-0.5c-0.2-0.2-0.3-0.5-0.3-0.7c0.1-0.2,0.4-0.4,0.6-0.5c0.4,0,0.8,0.1,1.2,0.2
	c1.5,0.4,3.1,0.9,4.6,1.4c0.4,0.1,0.8,0.2,1.3,0.2c-0.2-0.2-0.4-0.4-0.7-0.5c-2-1.1-3.9-2.3-5.9-3.4c-3.8-2-7.7-4-11.3-6.5
	c-0.5,0.2-1,0.3-1.5,0.4c-1.9,0.4-3.9-0.2-4.8-1.6c-1.1-1.7-1-3.7,0.3-5.3c1.2-1.5,3.2-2.1,5-1.4c1.5,0.5,2.6,1.5,3.1,2.9
	c0.2,0.5,0.1,1.2,0.1,1.9c0,0.3-0.2,0.7-0.4,1.1c6.3,3.8,13.1,6.6,19.6,10.1c-1.3-1.4-2.5-2.8-3.8-4.3c-0.6-0.6-1.1-1.3-1.6-1.9
	c-0.2-0.2-0.4-0.5-0.4-0.8c0-0.3,0.1-0.8,0.3-1c0.2-0.2,0.7-0.2,1-0.1c0.4,0.2,0.7,0.5,1,0.8c2.6,2.7,5.1,5.4,7.6,8.1
	c0.3,0.3,0.6,0.6,1.1,0.8c-0.5-1-0.9-2-1.4-2.9c-2-4.1-3.9-8.2-5.9-12.3c-0.3-0.6-0.5-1-1.1-1.3c-0.3-0.2-0.6-0.5-0.9-0.8
	c-0.9-0.8-1-1.9-0.6-3c0.4-1.1,1.3-1.8,2.4-1.9c1.2-0.1,2.1,0.3,2.7,1.3c0.8,1.3,0.7,2.4-0.3,4.2c1.8,3.4,3.6,6.9,5.4,10.4
	c0,0,0.1,0,0.1,0c0-0.3,0-0.6,0-0.8c-0.2-2.6-0.5-5.2-0.7-7.7c0-0.4-0.1-0.9,0-1.3c0.1-0.7,0.4-1.2,0.9-1.2c0.6,0,0.9,0.4,1,1
	c0.1,0.7,0.3,1.3,0.4,2c0.4,3.3,0.8,6.6,1.2,10c0.1,0.4,0.1,0.8,0.4,1.2c0.2-0.7,0.3-1.4,0.5-2.1c1.5-7.3,3-14.5,4.6-21.8
	c0.2-0.7,0.1-1.2-0.5-1.8c-1.2-1.2-1.6-2.8-1.2-4.5c0.1-0.5,0.3-1.1,0.5-1.6c0.4-1.2,1.2-1.9,2.4-2.2c1.6-0.3,3.3-0.2,4.7,0.7
	c2,1.2,2.5,3,1.8,5.2c-0.8,2.5-2.4,3.9-5,4c-1.6,8.2-3.1,16.4-4.7,24.7c0.2-0.2,0.4-0.4,0.6-0.6c2-2.8,4-5.6,6-8.4
	c0.2-0.3,0.2-0.6,0.3-1c0.1-0.6,0.1-1.2,0.3-1.7c0.5-1.1,1.2-1.9,2.5-2c1.2-0.1,2.1,0.6,2.8,1.5c0.3,0.3,0.4,0.9,0.4,1.3
	c0,1.9-2,3.6-3.9,3.3c-0.2,0-0.3-0.1-0.6-0.1c-2,3-4.1,6.1-6.1,9.2c0.1,0,0.1,0.1,0.2,0.1c1.2-0.9,2.4-1.9,3.5-2.8
	c1.7-1.3,3.4-2.7,5.1-4c0.3-0.2,0.7-0.5,1-0.6c0.3-0.1,0.9,0,1,0.3c0.2,0.2,0.2,0.7,0.1,1.1c-0.1,0.3-0.4,0.6-0.7,0.8
	c-0.8,0.8-1.7,1.6-2.5,2.4c4.9-1.9,9.6-4.3,14.4-6.6c0.1-0.4,0.1-0.9,0.2-1.3c0.6-2.4,2.7-3.7,5.1-2.9c2.2,0.7,3.6,2.5,3.5,4.6
	c0,2.1-1.5,4-3.6,4.6c-1.3,0.4-2.5,0-3.6-0.8c-0.3-0.2-0.6-0.6-0.9-0.8c-6.5,3-13.1,6-19.6,9.1c0,0,0,0.1,0,0.1
	c2.2-0.6,4.5-1.2,6.7-1.8c0.3-0.1,0.6-0.2,0.9-0.2c0.4-0.1,0.8,0,1,0.4c0.2,0.5-0.1,0.9-0.5,1c-1,0.4-1.9,0.7-2.9,1
	c-1.9,0.6-3.9,1.1-5.9,1.7c-0.1,0-0.3,0.1-0.4,0.3c5.1,0.3,10.2,0.6,15.2,1c0.2-0.2,0.3-0.3,0.4-0.4c0.8-1,1.7-1.3,3-1
	c1.2,0.3,1.9,1.2,2.1,2.3c0.2,1-0.1,1.9-0.9,2.5c-1,0.7-2,0.9-3,0.2c-0.9-0.7-1.8-0.7-2.8-0.7c-2.3,0-4.6-0.1-7.1-0.1
	c0.4,0.2,0.7,0.3,0.9,0.4c1.8,0.5,3.7,1,5.5,1.5c0.3,0.1,0.6,0.1,0.9,0.3c0.4,0.2,0.6,0.4,0.5,0.9c-0.1,0.4-0.4,0.7-0.9,0.7
	c-0.4,0-0.7-0.1-1.1-0.2c-3.1-0.8-6.2-1.6-9.3-2.4c-0.4-0.1-0.8-0.2-1.4-0.2c0.2,0.1,0.3,0.3,0.5,0.4c5.5,3,11.1,6,16.6,9.1
	c0.6,0.3,1.2,0.5,1.9,0.1c0.7-0.4,1.5-0.4,2.3-0.2c1.9,0.5,3.1,1.7,3.8,3.5c0.3,0.8,0.2,1.6-0.1,2.3c-0.6,1.6-1.8,2.5-3.5,2.7
	c-1.8,0.3-3.4,0-4.6-1.6C240.8,160.8,240.7,159.7,240.7,158.6z"/>
<path class="st2" d="M187.6,323.7c-2.5,1.5-4.9,2.9-7.3,4.4c-0.3,0.2-0.5,0.5-0.7,0.7c-0.6,0.9-1.5,1.6-2.7,1.6
	c-0.4,0-0.8,0.1-1.1,0.3c-2.3,1.3-4.6,2.6-6.9,3.9c-0.1,0.1-0.2,0.2-0.3,0.3c0.3,0.2,0.5,0.3,0.7,0.4c2.1,0.8,4.1,1.6,6.2,2.4
	c0.5,0.2,1,0.2,1.6,0c1.4-0.7,2.8-0.2,3.4,1.3c0.3,0.6,0.6,0.9,1.2,1c1.9,0.6,3.8,1.3,5.8,2c0.5,0.2,0.9,0.2,1.3-0.2
	c1.3-0.9,2.7-1,4-0.2c1.4,0.8,1.9,2.1,1.8,3.6c-0.1,1.6-1.1,2.7-2.6,2.9c-0.7,0.1-1.4,0.1-2.1,0.1c-1.6,0-2.3-0.7-2.4-2.4
	c0-0.1,0-0.3,0-0.5c-0.5-0.2-1.1-0.4-1.7-0.6c-1.4-0.5-2.9-0.9-4.3-1.4c-1-0.3-1.9-0.6-3-0.1c-0.7,0.3-1.8,0.1-2.7,0
	c-0.6-0.1-0.9-0.6-1.1-1.2c-0.1-0.3-0.1-0.7-0.2-1.1c-3-1.2-6-2.4-9.2-3.7c0.2,0.5,0.2,0.8,0.3,1.1c1.2,2.7,2.3,5.4,3.5,8.1
	c0.2,0.4,0.4,0.8,0.9,1c2.1,0.7,2.9,2.1,2.2,4.2c-0.3,0.8-0.2,1.4,0.2,2.1c0.8,1.8,1.6,3.5,2.4,5.3c0.3,0,0.5,0,0.7,0
	c1.4,0.1,2.4,0.8,2.9,2c0.3,0.6,0.5,1.2,0.5,1.9c0.3,2.2-1,3.9-3,4.1c-2.3,0.3-4.3-1.2-4.6-3.4c-0.1-1.2,0.2-2.2,0.8-3.2
	c-1-2.1-2-4.2-3.1-6.3c-0.2-0.3-0.6-0.6-1-0.7c-1.2-0.6-1.8-1.6-2.2-2.8c-0.2-0.5,0-1.1,0.3-1.6c0.2-0.4,0.3-0.8,0.1-1.2
	c-1.4-3.2-2.7-6.3-4.1-9.5c-0.8,0-1.2,0.4-1.5,1c-0.8,2.2-1.7,4.3-2.5,6.5c-0.1,0.4-0.1,0.9,0,1.2c0.4,1.1,0.3,2.1-0.2,3.2
	c-0.3,0.7-0.7,1.2-1.4,1.5c-0.5,0.2-0.7,0.5-0.9,1c-0.6,1.8-1.1,3.6-1.7,5.4c-0.2,0.6-0.2,1,0.3,1.4c0.1,0.1,0.2,0.2,0.2,0.3
	c1,1.6,0.8,3.9-0.6,4.8c-1.6,1.1-3.9,0.8-5.2-0.7c-0.9-1-1.3-2-0.9-3.3c0.3-1,0.9-1.8,1.9-2.2c0.7-0.2,0.9-0.6,1.1-1.3
	c0.5-2,1.1-4,1.7-6c0.2-0.5,0.2-0.9-0.1-1.5c-0.9-1.8-0.3-3.3,1.5-4.2c0.5-0.2,0.7-0.5,0.9-1c0.4-1,0.8-2.1,1.2-3.3
	c-0.5,0.2-0.7,0.3-1,0.4c-1,0.5-2.1,1.1-3.1,1.6c-0.6,0.3-0.9,0.7-1.2,1.3c-0.7,1.5-1.3,1.8-2.9,1.4c-0.5-0.1-0.9,0-1.3,0.2
	c-0.7,0.4-1.5,0.8-2.2,1.1c-1.1,0.4-2.1,1-2.9,2c-1.6,2.1-4,2.1-5.7,0c-0.1-0.1-0.2-0.3-0.3-0.4c-1.1-1.8-1-3.8,0.3-5
	c1.4-1.2,3.8-1,5.3,0.3c0.2,0.2,0.5,0.5,0.8,0.7c1.3-0.7,2.5-1.3,3.7-2c0.2-0.1,0.4-0.3,0.5-0.6c1-2.6,2.2-3.1,4.7-2.1
	c2.2-1.2,4.5-2.4,6.7-3.5c0.9-0.4,1-1.2,1.3-2.1c-0.5-0.2-1-0.5-1.5-0.7c-1.5-0.6-3.1-1.2-4.6-1.8c-0.6-0.3-1.2-0.3-1.8,0
	c-0.5,0.3-1.2,0.6-1.8,0.5c-1.3-0.1-2.2-0.5-2.5-2.4c-0.1-0.5-0.1-0.9-0.6-1.2c-2.1-1.1-4.2-2.2-6.4-3.3c-0.7,0.9-1.7,1.3-2.9,1.3
	c-1.6,0-2.8-0.7-3.7-2.1c-1-1.7-0.3-3.8,1.5-4.6c2.1-0.9,4.2-0.2,5.1,1.8c0.3,0.5,0.6,0.8,1.1,1c2.1,1,4.3,2,6.4,3.1
	c0.6,0.3,1.1,0.3,1.7,0.1c1.9-0.6,3.1,0,3.9,1.8c0.2,0.3,0.5,0.7,0.9,0.8c1.8,0.7,3.6,1.4,5.6,2.1c-0.1-0.4-0.1-0.7-0.2-0.9
	c-0.9-2.3-1.8-4.6-2.8-6.9c-0.2-0.4-0.5-0.9-0.9-1.2c-1-0.9-1.5-1.9-1.1-3.2c0.1-0.3,0.1-0.7,0-1c-0.6-1.7-1.3-3.3-1.9-5
	c-0.4,0-0.8-0.1-1.2-0.1c-2.1-0.3-3.6-2.3-3.3-4.4c0-0.4,0.1-0.8,0.2-1.1c0.3-1.6,1-2.8,2.9-3c1.7-0.2,3.1,0.4,4,1.8
	c1.1,1.6,1.1,3.4,0.1,5.1c-0.1,0.2-0.2,0.4-0.3,0.6c0.7,1.6,1.3,3.2,2.1,4.8c0.1,0.3,0.5,0.5,0.8,0.7c1.7,0.8,2.2,2.2,1.6,3.9
	c-0.1,0.3-0.2,0.8-0.1,1.1c0.7,1.7,1.4,3.4,2.1,5c0,0.1,0.2,0.2,0.3,0.3c0.1-0.1,0.2-0.2,0.3-0.3c0.9-2.2,1.8-4.5,2.7-6.8
	c0.1-0.3,0-0.7-0.1-1c-0.5-1.5-0.1-2.6,1.4-3.3c0.5-0.2,0.8-0.5,1-1c0.9-2,1.7-4,2.6-5.9c0.3-0.6,0.1-1-0.2-1.4
	c-0.7-1.6-0.3-3.2,1-4.2c1.6-1.1,3.5-1,4.8,0.2c1.1,1.1,1.2,2.4,0.8,3.9c-0.3,1.3-1.2,2.1-2.5,2.3c-0.9,0.1-1.2,0.5-1.5,1.3
	c-0.7,1.8-1.4,3.5-2.1,5.3c-0.1,0.4-0.2,0.9-0.1,1.2c0.5,1.3-0.1,2.4-1.2,3.4c-0.3,0.3-0.7,0.6-0.9,1c-1.3,3.3-2.5,6.5-3.7,9.8
	c0,0.1-0.1,0.2-0.1,0.4c0.5,0.4,1,0.5,1.5,0.1c3-1.6,5.9-3.2,8.9-4.8c0.4-0.2,0.5-0.5,0.6-0.9c0.3-1.8,1.5-2.5,3.2-2
	c0.7,0.2,1.2,0.1,1.8-0.3c1.9-1.1,3.7-2.2,5.6-3.2c0.9-0.5,1.6-1.1,1.9-2.1c0.2-0.8,0.7-1.4,1.3-1.9c1.4-1,3.1-0.8,4.2,0.4
	c1,1.1,1.2,3.2,0.6,4.5c-0.9,1.7-2.7,2.3-4.4,1.5C188.3,324.2,188,324,187.6,323.7z"/>
<path class="st1" d="M191.2,240.2c1.1,0.2,2.1,0.3,3,0.5c1,0.2,2,0.4,2.9,0.6c0.3,0.1,0.6,0.2,0.9,0.3c0.5,0.3,0.8,0.7,0.7,1.3
	c0,0.6-0.4,1-0.9,1.1c-0.6,0.1-1.2,0.1-1.8,0.1c-2-0.2-3.9-0.5-5.9-0.8c-0.2,0-0.4-0.1-0.7-0.1c-2.3,3.6-4.7,7.1-7.1,10.9
	c0.5-0.2,0.8-0.3,1.1-0.5c1.6-0.9,3.2-1.7,4.8-2.5c0.6-0.3,1.2-0.4,1.9-0.4c0.3,0,0.8,0.3,1,0.7c0.2,0.5-0.2,0.8-0.6,1
	c-1.8,1-3.7,2.1-5.5,3.1c-0.3,0.2-0.6,0.4-1,0.7c0.3,0.1,0.5,0.2,0.7,0.2c2.2,0,4.4,0.1,6.6,0.1c0.6,0,1-0.1,1.5-0.5
	c2-1.6,4-3.2,6.3-4.2c0.4-0.2,0.8-0.3,1.2-0.4c0.5-0.1,1,0.1,1.2,0.6c0.1,0.4,0.1,1-0.2,1.3c-0.3,0.5-0.9,0.8-1.4,1.1
	c-1.1,0.7-2.2,1.4-3.5,2.2c0.5,0.1,0.6,0.2,0.8,0.2c1.5,0,3.1,0,4.6,0.1c0.7,0,1.4,0.3,2,0.6c0.4,0.2,0.7,0.7,0.8,1.1
	c0.1,0.6-0.3,1-0.8,1.2c-0.6,0.2-1.3,0.3-1.9,0.3c-1.2,0-2.4-0.1-3.6-0.1c-0.3,0-0.6,0-1.1,0c0.5,0.5,0.8,0.9,1.1,1.2
	c1,1.2,2,2.3,2.9,3.5c0.2,0.2,0.3,0.5,0.5,0.8c0.3,0.6,0.3,1.1-0.2,1.5c-0.5,0.4-1,0.5-1.6,0.1c-0.4-0.2-0.7-0.5-1-0.8
	c-1.8-1.9-3.6-3.9-5.4-5.8c-0.3-0.3-0.7-0.6-1.1-0.6c-2.5-0.1-5-0.2-7.5-0.2c-0.1,0-0.2,0.1-0.5,0.2c0.4,0.2,0.6,0.4,0.9,0.6
	c1.7,0.9,3.5,1.9,5.3,2.8c0.3,0.1,0.5,0.3,0.8,0.4c0.5,0.3,0.7,0.8,0.5,1.3c-0.2,0.5-0.8,0.8-1.4,0.6c-0.4-0.1-0.8-0.3-1.2-0.5
	c-2-1-4.1-1.9-6.2-3c0.2,0.3,0.3,0.6,0.5,0.8c2,2.7,4,5.3,5.9,8c0.5,0.7,1,0.9,1.8,1c2.2,0.2,4.4,0.5,6.5,1.3
	c0.6,0.2,1.1,0.5,1.6,0.8c0.7,0.5,0.8,1.3,0.3,2c-0.4,0.6-0.9,0.6-1.8,0.4c-1.6-0.5-3.2-0.8-4.7-1.2c-0.1,0.1-0.1,0.2-0.2,0.2
	c0.3,0.5,0.7,0.9,1,1.4c0.5,0.7,1.1,1.5,1.5,2.3c0.5,0.9,0.4,1.6-0.2,2.1c-0.6,0.5-1.4,0.4-2.1-0.4c-0.8-0.9-1.6-1.8-2.4-2.8
	c-0.4-0.5-0.8-0.9-1.3-1.5c-0.2,0.9-0.4,1.6-0.6,2.3c-0.2,0.5-0.3,1-0.6,1.4c-0.3,0.5-0.7,0.8-1.3,0.6c-0.6-0.2-0.8-0.6-0.8-1.2
	c0-0.4,0.1-0.9,0.1-1.3c0.2-1.5,0.5-3,0.7-4.5c0-0.3,0-0.8-0.2-1.1c-2.6-3.6-5.2-7.1-8-10.9c-0.1,0.5-0.1,0.9-0.1,1.2
	c0.1,2.7,0.2,5.4,0.3,8.2c0,0.3,0,0.6,0,0.9c-0.1,0.7-0.4,1.1-1,1.2c-0.5,0.1-1.1-0.3-1.2-0.9c-0.2-1-0.3-2-0.4-3
	c-0.1-1.7-0.1-3.5-0.2-5.2c0-0.2,0-0.3-0.1-0.7c-2.3,3.4-4.5,6.5-6.7,9.7c1.5,2.3,2.3,4.9,3.1,7.5c0.3,0.9,0.1,1.5-0.6,1.9
	c-0.7,0.3-1.5,0.1-1.9-0.7c-0.7-1.3-1.3-2.6-1.9-4c-0.2-0.5-0.4-1.1-0.7-1.9c-0.6,0.8-0.9,1.4-1.4,2c-0.7,0.9-1.5,1.7-2.3,2.5
	c-0.2,0.2-0.5,0.4-0.7,0.5c-0.6,0.3-1.1,0.2-1.6-0.2c-0.5-0.5-0.5-1-0.2-1.5c0.5-0.8,1-1.6,1.5-2.4c0.2-0.3,0.4-0.6,0.7-1.1
	c-1.2,0-2.2,0-3.3,0c-0.5,0-1.1-0.1-1.5-0.3c-0.3-0.2-0.7-0.6-0.7-1c0-0.3,0.3-0.8,0.6-1c0.4-0.2,0.9-0.3,1.4-0.4
	c1.5-0.1,2.9-0.2,4.4-0.3c0.8,0,1.4-0.3,1.8-1c2.1-3.1,4.3-6.1,6.3-9.3c-0.2,0.1-0.4,0.1-0.6,0.2c-2.1,1.1-4.2,2.2-6.3,3.3
	c-0.2,0.1-0.5,0.2-0.7,0.3c-0.7,0.2-1.3-0.1-1.5-0.6c-0.3-0.6,0-1.1,0.5-1.5c0.4-0.3,0.9-0.6,1.3-0.8c2.4-1.2,4.8-2.4,7.2-3.6
	c0.4-0.2,0.8-0.4,1.2-0.6c0-0.1-0.1-0.2-0.1-0.3c-3.9-0.2-7.7-0.4-11.3-0.7c-1.6,2-3,3.8-4.4,5.6c-0.2,0.3-0.5,0.5-0.8,0.7
	c-0.6,0.5-1.3,0.5-1.8,0.1c-0.5-0.4-0.6-1-0.2-1.7c0.5-0.8,1-1.6,1.5-2.4c0.5-0.7,1-1.4,1.7-2.4c-1.1,0-1.9,0-2.7-0.1
	c-0.6,0-1.1-0.1-1.6-0.3c-0.3-0.1-0.6-0.5-0.7-0.8c-0.1-0.5,0.3-0.8,0.7-0.9c0.8-0.2,1.7-0.2,2.6-0.3c0.2,0,0.4,0,0.9-0.1
	c-0.4-0.6-0.7-1-1-1.5c-0.5-0.8-1.1-1.5-1.6-2.3c-0.3-0.5-0.3-1,0.1-1.4c0.4-0.4,0.9-0.5,1.4-0.2c0.5,0.3,1,0.6,1.3,1
	c1,1.1,1.9,2.2,2.8,3.4c0.5,0.7,1,1,1.9,1c2.3,0,4.7,0.1,7,0.2c0.4,0,0.8,0,1.2,0c0-0.1,0-0.2,0-0.3c-0.6-0.3-1.3-0.7-1.9-1
	c-1.2-0.7-2.3-1.5-3.5-2.2c-0.3-0.2-0.6-0.4-0.8-0.7c-0.1-0.2-0.3-0.6-0.2-0.8c0.1-0.2,0.5-0.5,0.7-0.4c0.5,0.1,1.1,0.2,1.6,0.5
	c1.7,0.8,3.4,1.7,5.1,2.6c0.3,0.2,0.7,0.3,1.3,0.6c-0.3-0.5-0.4-0.7-0.5-0.9c-1.4-2-2.9-3.9-4.3-5.9c-0.4-0.6-0.9-0.9-1.7-1
	c-2.3-0.2-4.7-0.4-7-0.6c-0.3,0-0.6-0.1-0.9-0.2c-0.6-0.2-1-0.5-1-1.2c0.1-0.6,0.5-0.9,1.1-1c0.5-0.1,1-0.1,1.5-0.1
	c1.3,0,2.6,0.1,3.9,0.2c0.3,0,0.6,0,1.1,0c-0.3-0.5-0.5-0.8-0.7-1.1c-0.9-1.3-1.8-2.6-2.6-3.9c-0.5-0.8-0.8-1.6-1.1-2.5
	c-0.2-0.5-0.1-1,0.4-1.3c0.5-0.4,1-0.2,1.4,0.2c0.4,0.4,0.7,0.8,1,1.2c1.2,1.6,2.4,3.2,3.6,4.8c0.2,0.3,0.4,0.5,0.8,1
	c0.1-0.7,0.2-1.2,0.2-1.7c0.2-2,0.4-4,0.6-6.1c0-0.3,0.1-0.5,0.2-0.8c0.2-0.6,0.7-0.9,1.3-0.9c0.6,0.1,1,0.5,1.1,1.1
	c0.1,0.5,0.1,1,0,1.5c-0.3,3.1-0.6,6.3-0.8,9.4c0,0.4,0,0.9,0.2,1.2c1.7,2.3,3.5,4.6,5.4,7.2c0.1-0.5,0.1-0.8,0.2-1.1
	c0.1-2.5,0.1-4.9,0.2-7.4c0-0.5,0.1-1,0.2-1.5c0.1-0.5,0.5-0.8,1-0.6c0.3,0.1,0.7,0.4,0.8,0.7c0.2,0.6,0.3,1.2,0.3,1.8
	c0,2.5,0,4.9,0.1,7.4c0,0.4,0,0.8,0,1.4c0.3-0.3,0.5-0.4,0.6-0.6c2.3-3.4,4.6-6.7,6.8-10.1c0.3-0.4,0.5-0.9,0.3-1.4
	c-0.1-0.6,0-1.2,0-1.8c-0.1-2.1-0.2-4.2-0.3-6.4c-0.1-1.2,0.2-1.7,1-1.8c0.8-0.2,1.5,0.4,1.7,1.5c0.2,1.1,0.3,2.2,0.4,3.3
	c0,0.5,0,0.9,0,1.7c0.4-0.5,0.6-0.7,0.8-0.9c0.7-1,1.4-2.1,2.2-3.1c0.2-0.3,0.4-0.6,0.7-0.9c0.5-0.5,1.1-0.7,1.6-0.4
	c0.5,0.3,0.7,0.9,0.4,1.6c-0.4,1-1,1.9-1.5,2.8C192.8,237.8,192,238.9,191.2,240.2z"/>
<path class="st0" d="M286.4,163.7c-0.6,1.4-1.3,2.7-1.9,4.1c-0.4,1-0.7,1.3-1.3,1.1c-0.7-0.2-0.9-0.8-0.6-1.9
	c0.7-2.2,1.5-4.3,2.3-6.5c0.1-0.4,0.3-0.7,0.5-1.3c-0.5,0.3-0.9,0.5-1.2,0.7c-1.8,1.2-3.7,2.4-5.5,3.6c-0.4,0.3-0.9,0.5-1.4,0.6
	c-0.3,0.1-0.8-0.1-1-0.3c-0.2-0.2-0.1-0.8,0-1.1c0.2-0.4,0.5-0.7,0.9-0.9c1.1-0.9,2.1-1.7,3.2-2.6c0.3-0.3,0.6-0.5,1.1-0.9
	c-1.7,0.1-3.3,0.2-4.8,0.3c-0.7,0-1.5,0-2.2,0c-0.5,0-0.9-0.3-1-0.8c-0.1-0.6,0.3-0.9,0.8-1c0.7-0.2,1.3-0.4,2-0.5
	c1.7-0.3,3.4-0.5,5.1-1c-0.4-0.2-0.8-0.4-1.3-0.6c-1.4-0.6-2.9-1.1-4.3-1.7c-0.5-0.2-1-0.5-0.9-1.1c0.1-0.6,0.6-0.9,1.1-0.9
	c0.7,0,1.4,0,2,0.2c1.3,0.4,2.6,0.9,3.9,1.3c0.4,0.1,0.7,0.2,1.3,0.4c-0.3-0.4-0.4-0.7-0.5-0.9c-0.7-0.8-1.4-1.5-2.1-2.3
	c-0.4-0.4-0.8-0.8-1.1-1.3c-0.6-0.7-0.7-1.3-0.3-1.7c0.4-0.5,1.2-0.6,2,0.1c1.3,1.1,2.4,2.3,3.6,3.5c0.4,0.4,0.7,0.7,1.2,1.3
	c0-0.6,0.1-0.9,0.1-1.2c0-1.8,0-3.5,0-5.3c0-0.4,0-0.9,0.1-1.3c0.1-0.5,0.5-0.9,1.1-0.9c0.6,0,1,0.2,1.2,0.8c0.2,0.5,0.3,1,0.3,1.5
	c0.1,1.6,0.2,3.2,0.2,4.8c0,0.4,0,0.8,0.2,1.3c0.2-0.3,0.3-0.6,0.4-0.8c0.7-1.7,1.5-3.4,2.2-5.1c0.2-0.5,0.4-1.1,0.8-1.5
	c0.2-0.3,0.7-0.5,1.1-0.5c0.5,0.1,0.8,0.5,0.7,1.1c0,0.4-0.1,0.8-0.2,1.1c-0.4,1.1-0.8,2.3-1.2,3.4c-0.2,0.5-0.4,1-0.7,1.8
	c0.4-0.2,0.7-0.3,0.9-0.4c0.9-0.5,1.7-1.1,2.7-1.6c0.4-0.2,0.9-0.4,1.3-0.4c0.9,0,1.3,1,0.8,1.7c-0.3,0.4-0.7,0.7-1,1
	c-1.2,0.9-2.4,1.7-3.7,2.7c1.8,0,3.4,0,5,0c0.3,0,0.7-0.1,1,0.1c0.3,0.1,0.7,0.5,0.8,0.7c0.1,0.3-0.2,0.8-0.4,1
	c-0.3,0.3-0.8,0.4-1.2,0.5c-1.4,0.3-2.8,0.5-4.2,0.8c-0.2,0-0.5,0.1-0.9,0.3c1.5,0.6,2.7,1.2,4,1.8c0.7,0.3,1.3,0.6,2,1
	c0.5,0.3,0.8,0.8,0.6,1.4c-0.2,0.6-0.8,0.8-1.4,0.7c-0.5-0.1-1.1-0.3-1.6-0.4c-1-0.3-1.9-0.7-3-0.8c0.8,0.9,1.6,1.8,2.3,2.7
	c0.2,0.3,0.5,0.5,0.6,0.8c0.4,0.6,0.3,1.1-0.1,1.5c-0.5,0.4-1,0.5-1.6,0.2c-0.3-0.2-0.6-0.5-0.9-0.8c-1.4-1.4-2.8-2.9-4.1-4.3
	c-0.3-0.3-0.6-0.7-1-1.2c-0.1,0.6-0.2,0.8-0.2,1.1c0.1,1.6,0.2,3.1,0.3,4.7c0.1,1-0.2,1.6-0.9,1.7c-0.8,0.2-1.4-0.2-1.7-1.2
	c-0.2-0.7-0.3-1.5-0.4-2.2C286.5,163.8,286.5,163.8,286.4,163.7z"/>
<path class="st3" d="M193.7,200.8c-1.2-1.3-2.2-2.4-3.1-3.5c-0.4-0.5-0.8-1-1.1-1.6c-0.1-0.3-0.1-0.8,0.1-1.1c0.3-0.4,0.8-0.3,1.2,0
	c0.4,0.3,0.8,0.5,1.1,0.9c1,0.9,1.9,1.8,2.8,2.7c0.2,0.2,0.5,0.5,1,0.9c-0.1-1.2-0.2-2.2-0.3-3.1c-0.2-2.2-0.5-4.5-0.7-6.7
	c0-0.3,0-0.6,0-0.9c0-0.6,0.3-1,0.8-1.2c0.6-0.2,1.1,0.1,1.3,0.6c0.3,0.6,0.6,1.3,0.7,1.9c0.3,1.9,0.6,3.8,0.8,5.6
	c0.1,1,0.3,2.1,0.4,3.3c0.3-0.3,0.5-0.4,0.6-0.6c1-1.4,1.9-2.9,2.9-4.3c0.3-0.4,0.7-0.8,1.1-1.1c0.5-0.3,1-0.3,1.4,0.1
	c0.5,0.4,0.6,0.9,0.4,1.4c-0.3,0.6-0.6,1.2-1,1.8c-0.8,1.3-1.6,2.6-2.6,4.2c1.1-0.1,1.9-0.2,2.7-0.3c2.1-0.2,4.1-0.5,6.2-0.8
	c0.9-0.1,1.4,0.1,1.6,0.7c0.2,0.6-0.1,1.3-0.9,1.6c-1.2,0.4-2.3,0.6-3.5,0.8c-2.5,0.4-5,0.8-7.7,1.3c0.3,0.3,0.6,0.6,0.8,0.9
	c2.1,2.2,4.3,4.4,6.4,6.6c0.3,0.3,0.6,0.6,0.8,1c0.1,0.4,0.1,0.9-0.1,1.2c-0.3,0.4-0.8,0.5-1.3,0.3c-0.4-0.2-0.8-0.5-1.1-0.8
	c-1.6-1.4-3.1-2.9-4.6-4.4c-0.3-0.3-0.6-0.5-1-0.9c0.1,1.3,0.2,2.3,0.4,3.3c0.2,1.3,0.4,2.6,0.6,4c0,0.2,0,0.4,0,0.6
	c0.2,1.9-0.4,2.2-1.2,2.4c-0.8,0.2-1.4-0.5-1.7-1.9c-0.4-2-0.7-4.1-1-6.1c-0.1-0.3-0.1-0.6-0.2-1.2c-0.3,0.5-0.5,0.7-0.7,1
	c-0.9,1.4-1.8,2.9-2.7,4.3c-0.2,0.3-0.4,0.6-0.7,0.9c-0.5,0.4-1,0.5-1.5,0.2c-0.5-0.3-0.7-0.9-0.4-1.5c0.6-1.3,1.3-2.6,2-3.9
	c0.8-1.5,1.7-2.9,2.6-4.3c0.2-0.4,0.4-0.7,0.7-1.2c-2.4,0.2-4.7,0.4-6.9,0.6c-0.9,0.1-1.8,0.2-2.7,0.2c-0.4,0-0.8-0.1-1.1-0.2
	c-0.6-0.3-0.7-1-0.2-1.5c0.4-0.3,0.9-0.5,1.4-0.6c2.1-0.4,4.2-0.7,6.3-1C192.8,200.9,193.1,200.9,193.7,200.8z"/>
<path class="st1" d="M81.1,328.6c-0.6-0.3-1.1-0.5-1.7-0.8c-1-0.4-2-0.7-2.9-1.1c-1.5-0.7-1.7-2.1-0.5-3.1c0.8-0.7,1.7-1.2,2.6-1.6
	c1.1-0.5,2.2-0.9,3.4-1.4c0-1,0-2,0-3c0-0.4,0-0.8,0-1.2c0-0.6,0.2-1.2,0.8-1.5c0.7-0.3,1.3-0.1,1.8,0.4c0.6,0.6,1.1,1.2,1.6,1.9
	c1.7,2.1,1.2,2.2,4.2,1.4c1-0.3,1.9-0.6,2.8-0.9c0.7-0.3,1.5-0.3,2.1,0.3c0.6,0.6,0.5,1.2,0.3,1.9c-0.3,0.8-0.6,1.7-1,2.5
	c-0.4,0.8-0.9,1.5-1.4,2.3c0.4,0.6,0.8,1.2,1.2,1.8c0.5,0.7,1.1,1.4,1.6,2.2c1,1.6,0.2,3-1.6,3c-1.4,0-2.9-0.1-4.2-0.4
	c-1.2-0.2-2.1-0.1-3.1,0.7c-0.9,0.8-2,1.5-3,2.2c-0.4,0.2-0.7,0.5-1.1,0.6c-1.4,0.5-2.6-0.4-2.4-1.9c0.1-1,0.3-2,0.5-3.1
	C81,329.6,81,329.2,81.1,328.6z"/>
<path class="st1" d="M67.5,205.2c-0.5,0.4-0.8,0.6-1.2,0.9c-1.1,0.9-2.2,1.7-3.3,2.6c-0.3,0.3-0.7,0.5-1.1,0.6c-0.5,0.1-1,0-1.3-0.4
	c-0.3-0.5-0.2-0.9,0.2-1.3c0.3-0.4,0.7-0.7,1-1c1.2-1.1,2.5-2.1,3.7-3.2c0.2-0.2,0.4-0.3,0.8-0.6c-1.3-0.3-2.3-0.5-3.3-0.7
	c-0.8-0.2-1.7-0.4-2.5-0.8c-0.8-0.3-1.1-0.8-0.9-1.4c0.1-0.5,0.7-0.8,1.5-0.7c1.8,0.3,3.6,0.6,5.4,0.9c0.2,0,0.4,0,0.7,0
	c-0.8-1.3-1.5-2.5-2.2-3.8c-0.4-0.6-0.7-1.3-1-2c-0.3-0.7-0.1-1.2,0.4-1.5c0.6-0.3,1,0,1.4,0.4c0.5,0.7,1,1.4,1.5,2.1
	c0.4,0.6,0.8,1.3,1.4,2.1c0.2-0.6,0.3-1,0.4-1.4c0.3-1.7,0.7-3.3,1-5c0.1-0.3,0.2-0.7,0.3-1c0.3-0.5,0.7-0.8,1.3-0.6
	c0.5,0.1,0.8,0.5,0.8,1c0,0.8,0,1.6-0.2,2.3c-0.3,1.6-0.6,3.2-0.9,4.9c0,0.3,0,0.6-0.1,1.1c0.8-0.5,1.4-1,2.1-1.4
	c1.1-0.7,2.2-1.5,3.3-2.2c0.3-0.2,0.5-0.4,0.8-0.4c0.3,0,0.8,0,0.9,0.2c0.2,0.2,0.4,0.8,0.2,1c-0.2,0.5-0.6,0.9-1.1,1.3
	c-1.5,1.2-3,2.3-4.5,3.5c-0.2,0.2-0.5,0.4-0.8,0.7c0.4,0.1,0.6,0.3,0.9,0.3c1.3,0.3,2.6,0.7,3.9,1c0.5,0.1,0.9,0.3,1.3,0.5
	c0.7,0.3,1,0.8,0.8,1.3c-0.2,0.6-0.8,0.8-1.4,0.8c-1-0.1-2-0.4-3.1-0.5c-0.5-0.1-0.9-0.1-1.7-0.3c0.4,0.6,0.6,1,0.8,1.3
	c0.7,1.2,1.4,2.3,2,3.5c0.3,0.5,0.3,1.1-0.2,1.5c-0.5,0.4-1.1,0.3-1.6-0.3c-0.7-0.8-1.3-1.6-1.9-2.5c-0.7-0.9-1.3-1.9-2.1-3
	c-0.2,0.5-0.3,0.9-0.4,1.2c-0.4,1.6-0.7,3.2-1,4.8c-0.1,0.3-0.1,0.6-0.2,0.9c-0.3,0.7-0.7,0.9-1.3,0.8c-0.6-0.1-0.9-0.6-0.8-1.2
	c0.1-1.2,0.2-2.4,0.4-3.6C67.2,207.1,67.4,206.3,67.5,205.2z"/>
<g>
	<path class="st3" d="M282.3,89.2c-0.1-2.2-0.1-4.2-0.2-6.1c0-0.3-0.3-0.6-0.5-0.8c-0.8-0.7-1.7-1.4-2.5-2.1
		c-0.3-0.2-0.5-0.5-0.8-0.7c-0.3-0.3-0.6-0.7-0.2-1c0.2-0.2,0.7-0.4,1-0.3c0.5,0.1,1,0.4,1.5,0.6c0.4,0.2,0.8,0.4,1.4,0.8
		c0-1,0-1.8,0-2.6c0-0.3,0-0.7,0-1c0.1-0.7,0.5-1.1,1-1.1c0.6,0,1.1,0.3,1.2,0.9c0.2,0.7,0.2,1.4,0.3,2c0,0.3,0.1,0.5,0.1,0.8
		c0.7,0,1-0.6,1.4-1c0.7-0.7,1.2-0.9,1.8-0.5c0.6,0.4,0.7,1.3,0.2,2c-0.6,0.8-1.3,1.5-2.1,2.1c-0.8,0.6-1.1,1.3-0.9,2.3
		c0.2,1.2,0.1,2.4,0.2,3.6c0,0.4,0.1,0.8,0.1,1.4c0.4-0.2,0.7-0.2,0.9-0.4c5-3.2,9.9-6.4,14.9-9.7c0.6-0.4,1.2-1,1.7-1.5
		c0.4-0.3,0.7-0.7,1.1-0.9c0.9-0.5,1.5-0.1,1.7,0.9c0.1,0.7,0.1,1.4-0.2,2c-2.4,5.1-4.7,10.1-7,15.2c-0.4,0.8-0.8,1.6-1.3,2.5
		c0.3,0,0.5,0.1,0.7,0.1c3.3-0.4,6.5-0.8,9.8-1.2c0.4-0.1,0.9-0.3,1.2-0.6c0.8-0.6,1.4-1.4,2.2-2.1c0.2-0.2,0.5-0.5,0.8-0.6
		c0.5-0.3,1-0.2,1.4,0.3c0.4,0.4,0.4,0.9,0.1,1.3c-0.2,0.3-0.4,0.6-0.7,1c0.4,0,0.7,0,1.1,0c0.9-0.1,1.9-0.1,2.8-0.2
		c0.2,0,0.4,0,0.6,0c0.8,0.1,1.3,0.5,1.4,1.2c0.1,0.7-0.3,1.2-1.2,1.4c-1.1,0.2-2.2,0.4-3.3,0.5c-0.8,0.1-1.6,0.2-2.5,0.3
		c0.3,0.6,0.6,1,0.9,1.5c0.6,1,1.2,1.9,1.7,2.9c0.2,0.4,0.4,0.9,0.4,1.3c0.1,0.8-0.5,1.2-1.3,0.8c-0.4-0.2-0.7-0.5-0.9-0.9
		c-1.4-1.7-2.8-3.4-4.2-5.1c-4.1,0.4-8.3,0.9-12.5,1.3c0.2,0.3,0.3,0.5,0.4,0.7c3.3,5.1,6.7,10.3,10,15.4c0.3,0.5,0.6,1.1,0.7,1.7
		c0.3,1.2-0.6,2.3-1.8,2.1c-0.4,0-0.8-0.2-1.2-0.4c-5.7-1.9-10.8-4.9-15.6-8.4c-0.5-0.4-1.1-0.7-1.9-1.2c0.2,2.1,0.3,3.9,0.5,5.7
		c0,0.3,0.3,0.7,0.6,0.9c1.2,1,2.4,1.9,3.7,2.8c0.6,0.4,0.6,1.1,0,1.5c-0.6,0.4-1.3,0.4-2,0.1c-0.6-0.3-1.3-0.7-2.1-1.2
		c0,0.8,0,1.5,0,2.1c0,0.4,0,0.8,0,1.2c-0.1,0.7-0.6,1.1-1.2,1.1c-0.6,0-1.1-0.3-1.3-0.9c-0.2-1-0.3-2-0.5-2.9
		c-0.1-0.4-0.1-0.8-0.2-1.5c-0.7,0.7-1.1,1.3-1.6,1.8c-0.4,0.4-0.7,0.8-1.1,1.1c-0.4,0.4-1,0.4-1.4,0.1c-0.5-0.4-0.4-0.9-0.1-1.4
		c0.8-1.1,1.4-2.2,2.3-3.1c1.4-1.2,1.8-2.6,1.5-4.3c-0.1-0.3,0-0.6-0.1-0.9c0-0.2-0.1-0.4-0.2-0.7c-0.3,0.2-0.6,0.3-0.9,0.5
		c-4.1,2.6-8.2,5.2-12.3,7.7c-1.4,0.8-2.8,1.4-4.3,2.2c-0.7,0.4-1.3,0.2-1.9-0.3c-0.6-0.5-1-1.1-0.7-1.9c0.4-0.9,0.8-1.8,1.2-2.7
		c2.3-4.5,4.5-8.9,6.8-13.4c0.3-0.6,0.6-1.3,1-2.2c-2.4,0.1-4.6,0.1-6.8,0.2c-0.6,1.2-1.1,2.4-1.6,3.6c-0.2,0.4-0.3,0.8-0.6,1.1
		c-0.3,0.2-0.8,0.4-1.1,0.4c-0.5-0.1-0.8-0.6-0.7-1.1c0.1-0.5,0.2-1,0.4-1.5c0.2-0.7,0.5-1.4,0.8-2.1c-0.9,0-1.6,0-2.4,0
		c-0.6,0-1.1-0.1-1.6-0.3c-0.2-0.1-0.5-0.5-0.5-0.8c0-0.2,0.3-0.6,0.5-0.6c0.7-0.3,1.5-0.5,2.2-0.6c0.8-0.2,1.7-0.4,2.8-0.6
		c-0.9-0.8-1.6-1.5-2.2-2.1c-0.7-0.7-0.9-1.1-0.5-1.5c0.4-0.5,0.9-0.5,1.7,0.1c1.4,0.9,2.7,1.8,3.7,3.4c0.3,0,0.7,0,1.1,0
		c1.9-0.1,3.9-0.2,5.8-0.3c0.9,0,1.1-0.4,0.7-1.2c-0.4-0.9-0.9-1.8-1.4-2.6c-1.6-3.1-3.1-6.3-4.8-9.4c-0.6-1.1-1.3-2.2-2-3.3
		c-0.3-0.5-0.5-0.9-0.2-1.4c0.3-0.5,0.8-0.7,1.3-0.7c0.5,0.1,0.9,0.2,1.3,0.4c1.6,0.9,3.2,1.8,4.7,2.8c2.9,1.9,5.7,3.8,8.5,5.7
		C281.3,88.6,281.7,88.8,282.3,89.2z M288.5,100c0.9,0,1.5,0,2.1,0c1.2,0,1.7-0.4,1.7-1.1c0-0.7-0.5-1-1.6-1.1c-0.4,0-0.9,0-1.3,0
		c-0.6,0-1.2,0-2,0c0.3-0.4,0.4-0.6,0.5-0.7c1-1.1,2-2.3,3-3.4c0.3-0.3,0.6-0.7,0.8-1c0.3-0.5,0.2-0.9-0.2-1.3
		c-0.4-0.4-0.9-0.4-1.4-0.1c-0.2,0.1-0.4,0.4-0.5,0.6c-1.1,1.3-2.2,2.5-3.3,3.8c-0.2,0.2-0.4,0.3-0.8,0.6c0-0.7-0.1-1.2-0.1-1.7
		c-0.1-0.6-0.1-1.2-0.2-1.8c-0.1-0.6-0.5-0.9-1.1-0.9c-0.6,0-1,0.4-1,1c0,0.6,0.1,1.3,0.1,1.9c0,0.3,0,0.6,0,1.1
		c-0.6-0.4-1-0.7-1.4-0.9c-1.1-0.7-2.2-1.3-3.4-1.9c-0.7-0.4-1.3-0.2-1.6,0.4c-0.3,0.6-0.1,1.2,0.6,1.6c0.4,0.3,0.9,0.5,1.4,0.7
		c1.2,0.6,2.2,1.4,3.2,2.3c-1.6,0.2-3.1,0.2-4.7,0.2c-0.3,0-0.7,0-1,0c-0.7,0.1-1.1,0.5-1,1.1c0,0.6,0.4,1,1.1,1.1
		c0.3,0,0.5,0,0.8,0c1.3,0,2.6,0,3.9,0c0.3,0,0.5,0.1,0.9,0.1c-1.3,1.6-2.6,3.1-3.8,4.7c-0.3,0.3-0.5,0.7-0.7,1.1
		c-0.2,0.5,0,0.9,0.4,1.3c0.4,0.3,0.9,0.3,1.3-0.1c0.2-0.2,0.3-0.4,0.5-0.6c1.1-1.4,2.2-2.8,3.4-4.1c0.2-0.2,0.4-0.3,0.7-0.6
		c0.1,0.4,0.1,0.7,0.1,0.9c0.1,1,0.3,2,0.5,2.9c0.1,0.7,0.7,1.1,1.3,1c0.6-0.1,0.9-0.6,0.9-1.4c0-0.5-0.1-1-0.2-1.5
		c-0.1-1-0.2-1.9-0.4-3.1c0.5,0.4,0.9,0.5,1.1,0.8c1.2,0.9,2.4,1.9,3.6,2.8c0.2,0.2,0.5,0.4,0.7,0.5c0.6,0.3,1.2,0.3,1.5-0.2
		c0.4-0.5,0.3-1-0.1-1.5c-0.2-0.2-0.4-0.3-0.6-0.5c-1-0.7-1.9-1.5-2.9-2.2C289,100.6,288.9,100.4,288.5,100z"/>
	<path class="st3" d="M325.3,97.7c-1.8-0.4-3.4-1-4.5-2.2c-0.7-0.8-0.7-1.2-0.1-2.1c0.4-0.5,0.7-1.1,1.1-1.6
		c0.7-0.9,1.4-1.1,2.4-0.7c1.1,0.5,2.2,1,3.2,1.7c0.7,0.4,0.9,1.1,0.6,1.8c-0.4,0.9-0.8,1.7-1.4,2.5
		C326.3,97.4,325.7,97.6,325.3,97.7z"/>
	<path class="st3" d="M285.6,68.6c-0.1,0.4-0.2,0.8-0.3,1.2c-0.5,1-1.1,2-1.7,2.9c-0.4,0.6-0.9,0.7-1.6,0.5
		c-0.2-0.1-0.5-0.2-0.7-0.3c-2.3-1-2.4-1.3-1.6-3.7c0.4-1,0.6-2.1,1-3.1c0.5-1.5,1.5-1.7,2.6-0.7c0.7,0.6,1.3,1.3,1.8,2
		C285.3,67.8,285.4,68.2,285.6,68.6z"/>
	<path class="st3" d="M286,125.6c1.2,0.2,2.4,0.8,3.4,1.7c0.5,0.5,0.6,1.2,0.3,1.8c-0.4,1-0.9,2.1-1.4,3c-0.5,0.9-1.4,1.2-2.3,0.6
		c-1.5-0.9-2.5-2.2-2.6-4C283.2,127.4,284.7,125.6,286,125.6z"/>
	<path class="st3" d="M252.2,98c1,0.6,2.1,1.1,3.2,1.8c0.2,0.1,0.3,0.7,0.2,1.1c-0.2,0.7-0.5,1.5-1.1,2c-0.5,0.4-1,1-1.5,1.4
		c-0.7,0.6-1.4,0.6-2.1,0.1c-0.7-0.5-1.4-1.1-2.1-1.7c-0.6-0.6-0.7-1.4-0.2-2c0.8-0.9,1.8-1.6,2.7-2.4
		C251.4,98.1,251.8,98.1,252.2,98z"/>
</g>
<g>
	<path class="st2" d="M250.4,250.3c-1.1,0-2.2,0-3.2,0c-0.5,0-1-0.1-1.5-0.3c-0.5-0.2-0.9-0.6-0.8-1.2c0.1-0.6,0.5-0.8,1-0.8
		c1.1-0.1,2.2-0.3,3.3-0.4c0.7,0,1.2-0.3,1.5-0.9c0.9-1.9,1.9-3.7,2.7-5.6c1.4-3.4,0.1-6.4-3.2-8c-1.1-0.5-2.4-0.9-3.6-1.1
		c-1.7-0.3-3.4-0.4-5.3-0.6c-0.3,0.9-0.6,1.9-1,2.9c-0.2,0.5-0.4,1-0.7,1.4c-0.3,0.4-0.8,0.6-1.4,0.4c-0.6-0.2-0.8-0.6-0.8-1.2
		c0.1-0.6,0.2-1.2,0.4-1.8c0.3-1,0.6-1.9,0.8-2.9c0.3-1,0.3-1.1-0.7-1.7c-0.3-0.2-0.7-0.4-1-0.6c-0.4-0.3-0.7-0.8-0.5-1.4
		c0.2-0.6,0.7-0.8,1.3-0.7c0.9,0.2,1.7,0.6,2.5,1c0.4,0.2,0.7,0.5,1.1,0.8c2.5-0.9,4.9-2,7.1-3.4c2-1.3,2.9-3.3,2.3-5.7
		c-0.1-0.6-0.3-1.2-0.4-1.8c-0.4-1.4-1.1-2.6-2.3-3.5c-1.4-1-2.7-2.1-4.2-3.3c-0.7,0.3-1.5,0.6-2.2,1c-1,0.4-1.8,0.3-2.1-0.2
		c-0.3-0.6-0.1-1.2,0.9-1.9c0.3-0.3,0.7-0.6,1.1-0.7c1.1-0.4,1.4-1.2,1.4-2.2c0-1.3,0.1-2.6,0.2-3.9c0-0.8,0.5-1.2,1.3-0.9
		c0.8,0.3,1.1,0.9,1.1,1.7c0.1,1.4,0.1,2.9,0.2,4.3c0,0.3,0.1,0.5,0.1,0.6c3.4,1.3,6.6,2.5,9.9,3.7c0.8,0.3,1.7,0.5,2.6,0.7
		c1.5,0.3,2.2,0,2.8-1.4c0.6-1.4,1.2-2.9,1.4-4.4c0.5-2.6,0.7-5.3,1-8c0-0.3,0-0.6,0-0.7c-1.2-0.9-2.3-1.7-3.3-2.5
		c-0.6-0.5-0.7-1-0.4-1.5c0.4-0.6,1-0.6,1.5-0.4c0.7,0.3,1.4,0.8,2.2,1.2c1-0.9,1.9-1.8,2.9-2.6c0.5-0.4,1-0.9,1.5-1.2
		c0.3-0.2,0.7-0.4,1.1-0.4c0.5-0.1,0.9,0.2,1.1,0.7c0.2,0.5,0,0.8-0.3,1.2c-0.9,0.9-1.8,1.8-2.6,2.7c-0.4,0.4-0.8,0.7-1.2,1
		c1.4,3.9,2.7,7.7,4.1,11.4c0.3,0.9,0.7,1.8,1.2,2.6c0.5,0.9,0.9,1,1.8,0.8c0.7-0.2,1.4-0.5,2-0.9c2.2-1.5,4.5-3.1,6.6-4.7
		c0.9-0.7,1.9-1.4,2.7-2.2c0.8-0.7,1.5-1.6,2.2-2.4c0.3-0.3,0.2-0.7,0.1-1.1c-0.3-1.3-0.6-2.5-0.9-3.8c-0.1-0.3-0.1-0.5-0.2-0.8
		c-0.1-0.6,0.2-1.1,0.8-1.4c0.6-0.3,1.1-0.1,1.4,0.3c0.3,0.4,0.6,0.9,0.7,1.3c0.4,1,0.6,2,0.9,3c1.4,0,2.6,0,3.9,0
		c0.6,0,1.1,0,1.7,0.2c0.6,0.1,1,0.5,1,1.2c0,0.7-0.4,1.1-1,1.2c-0.8,0.2-1.7,0.3-2.6,0.4c-0.6,0.1-1.2,0.1-1.9,0.2
		c-0.2,1.8-1.2,3.4-2,5c-0.9,1.8-2,3.5-2.8,5.2c-0.5,1-0.9,2.1-1.2,3.3c-0.3,1.4,0.1,2.1,1.5,2.5c1.1,0.3,2.2,0.5,3.3,0.7
		c2.9,0.5,5.8,0.9,8.7,1.3c0.5,0.1,0.9,0.1,1.4,0.1c0.4-1.8,1.7-3,2.7-4.3c0.5-0.6,1.2-0.7,1.7-0.4c0.6,0.3,0.8,0.9,0.4,1.7
		c-0.2,0.5-0.5,1-0.8,1.5c-0.2,0.4-0.5,0.8-0.8,1.2c0.9,1.1,1.7,2.1,2.5,3.2c0.3,0.3,0.5,0.7,0.8,1.1c0.4,0.7,0.3,1.3-0.2,1.8
		c-0.5,0.4-1.2,0.5-1.8,0c-0.4-0.3-0.8-0.8-1.2-1.2c-0.4-0.5-0.9-1-1.2-1.3c-2.6,0.6-5,1.1-7.4,1.8c-1.4,0.4-2.8,1-4.1,1.7
		c-0.7,0.4-1.3,1-1.8,1.7c-1,1.4-1.2,2.9-0.4,4.4c0.6,1,1.1,2.1,1.9,2.9c1.4,1.7,3,3.2,4.5,4.8c0.1,0.1,0.3,0.3,0.5,0.4
		c0.9-0.4,1.7-0.9,2.6-1.3c0.3-0.1,0.6-0.3,0.9-0.4c0.7-0.2,1.4,0,1.7,0.6c0.3,0.6,0.2,1.2-0.5,1.7c-0.8,0.6-1.6,1-2.5,1.6
		c0.1,0.7,0.1,1.5,0.2,2.3c0.1,1,0.1,2,0.2,3c0,0.9-0.4,1.4-1.1,1.5c-0.7,0.1-1.3-0.3-1.4-1.2c-0.2-1.1-0.4-2.1-0.5-3.2
		c-0.1-0.6-0.4-0.9-0.9-1.2c-3-1.8-6-3.5-8.9-5.3c-0.9-0.6-1.7-0.7-2.5-0.1c-0.7,0.4-1.3,0.9-1.8,1.4c-1.1,1.1-1.7,2.5-2.2,3.9
		c-1.1,3.2-1.9,6.5-2.5,9.8c-0.2,1.2-0.1,1.3,0.8,1.9c1.2,0.8,2.4,1.6,3.5,2.4c0.2,0.2,0.5,0.4,0.7,0.6c0.6,0.6,0.7,1.3,0.2,1.9
		c-0.4,0.6-1.1,0.7-1.9,0.3c-0.3-0.2-0.6-0.4-0.9-0.6c-1.3-0.8-2.5-1.6-3.9-2.5c-0.4,0.7-0.8,1.3-1.1,1.8c-0.3,0.5-0.6,1-0.9,1.4
		c-0.4,0.4-0.9,0.5-1.4,0.3c-0.5-0.2-0.7-0.7-0.5-1.2c0.2-0.6,0.3-1.3,0.7-1.8c0.9-1.3,0.8-2.5,0.2-3.9c-1-2.2-1.9-4.5-3-6.8
		c-0.4-0.9-1-1.6-1.9-2c-0.9-0.4-1.7-0.4-2.7-0.3c-3.6,0.7-6.7,2.2-9.7,4.2c-0.6,0.4-0.8,0.8-0.6,1.5c0.2,1,0.3,2.1,0.4,3.1
		c0.1,0.9-0.3,1.5-1,1.6c-0.6,0.1-1.3-0.2-1.5-1.1C251.1,252.8,250.7,251.6,250.4,250.3z M271.4,229.1c0,2.4,2.2,14.9,2.8,16.2
		c1.1-4,2.4-7.9,6.3-10.2C277.4,233.1,274.5,231.2,271.4,229.1z M257.6,237.9c2.7-3.5,5.4-6.8,8.1-10.3c-5.2,0.6-10.2,1.1-15.1,1.7
		c1.7,0.8,3.3,1.8,4.6,3.3C256.5,234.1,257.3,235.8,257.6,237.9z M267.6,231.9c-0.1,0-0.2-0.1-0.3-0.1c-2.7,3.4-5.3,6.8-7.8,10.4
		c3.2-0.8,6.4-1.7,9.7,0.3C268.6,238.7,268.1,235.3,267.6,231.9z M252.2,225.7c4-0.2,7.8-0.7,11.7-1.6c-3-2.1-6-4.2-9.3-6.3
		C255.1,221.1,254.2,223.5,252.2,225.7z M285.5,225c-2.5,0.1-10,1.2-11.2,1.7c3.4,2.2,6.7,4.3,10.1,6.5c-0.3-1.5-0.8-2.9-0.4-4.3
		C284.4,227.5,285,226.2,285.5,225z M255.9,214.4c0,0.1-0.1,0.2-0.1,0.3c3.5,2.2,6.8,4.5,10.5,6.8c-0.4-4-0.8-7.8-1.2-11.6
		c-0.6,0.9-1,1.8-1.4,2.6c-0.8,1.6-2.2,2.4-4,2.4c-0.7,0-1.5-0.1-2.2-0.2C257,214.6,256.5,214.5,255.9,214.4z M281,214.2
		c-2.2,2.4-6,7.6-6.4,8.5c3.6-0.6,7.2-1.1,10.8-1.7C282.4,219.8,280.5,217.9,281,214.2z M270.3,221.6c0.1,0,0.2,0,0.3,0.1
		c2.3-3,4.7-5.9,6.9-9c-0.8,0.2-1.6,0.6-2.3,0.8c-2,0.6-3.9,0.8-5.6-0.7c0,0-0.1,0-0.3,0.1C269.6,215.8,269.9,218.7,270.3,221.6z"/>
	<path class="st2" d="M304.9,245.4c0,1-1.4,2.4-2.4,2.5c-1.2,0.2-2.5-0.8-2.8-2.1c-0.2-1.1,0.4-2.1,1.6-2.6
		C303.2,242.6,304.9,243.6,304.9,245.4z"/>
	<path class="st2" d="M238.1,202.3c1.3,0,2.4,1.2,2.4,2.6c0,1.4-1.2,2.5-2.5,2.5c-1.3,0-2.5-1.2-2.5-2.5
		C235.5,203.5,236.7,202.3,238.1,202.3z"/>
	<path class="st2" d="M249.2,253.6c0,1.3-1.2,2.8-2.3,2.8c-1.1,0-2.4-1.3-2.4-2.5c0-1.2,1.2-2.4,2.5-2.4
		C248.2,251.5,249.1,252.4,249.2,253.6z"/>
	<path class="st2" d="M275.3,260.6c1.1,0,2.3,1.4,2.2,2.6c0,1.2-1.2,2.3-2.4,2.3c-1.2,0-2.4-1.4-2.3-2.7
		C272.9,261.8,274.2,260.6,275.3,260.6z"/>
	<path class="st2" d="M236.1,230.9c0,1.3-0.8,2.2-2,2.3c-1.3,0.1-2.7-1.3-2.7-2.5c0-1.1,1.1-2.1,2.2-2.1
		C234.9,228.5,236.1,229.7,236.1,230.9z"/>
	<path class="st2" d="M263.2,190.9c-1.3,0-2.5-1.2-2.5-2.5c0-1.1,1.1-2.1,2.3-2.1c1.3,0,2.3,0.9,2.3,2.3
		C265.5,189.8,264.5,190.8,263.2,190.9z"/>
	<path class="st2" d="M309,216.2c1.2,0,2.3,1.1,2.3,2.2c0,1.2-1.1,2.3-2.4,2.3c-1.2,0-2.2-1-2.2-2.2
		C306.6,217.1,307.6,216.2,309,216.2z"/>
	<path class="st2" d="M291.8,193.3c0-1.4,1-2.4,2.3-2.4c1.4,0,2.1,0.7,2.1,2.2c0,1.3-1,2.3-2.4,2.3
		C292.6,195.4,291.8,194.6,291.8,193.3z"/>
</g>
<g>
	<path class="st3" d="M143.2,87.5c0.8-0.1,1.6-0.2,2.4-0.4c1.1-0.3,2.1-0.7,3.2-1c0.9-0.3,1.5-0.9,1.9-1.7c1.1-2,1.7-4.2,2-6.4
		c0.3-1.7,0.3-3.5,0.5-5.3c0-0.3,0-0.5,0.1-0.8c0.2-0.5,0.6-0.9,1.1-0.7c0.4,0.1,0.8,0.4,0.9,0.7c0.2,0.5,0.2,1.1,0.2,1.7
		c0,2.3,0,4.7,0.1,7c0,0.8,0.1,1.5,0.2,2.3c0.2,1.5,1,2.6,2.4,3.1c1.2,0.5,2.5,0.8,3.7,1.1c0.6,0.2,1.2,0.3,1.7,0.6
		c0.6,0.2,0.9,0.7,0.9,1.3c0,0.6-0.4,1-0.9,1.1c-0.7,0.3-1.4,0.5-2.1,0.7c-3.3,1-5.3,3.2-6.1,6.5c-0.5,2.1-0.8,4.2-1.1,6.4
		c-0.1,0.7-0.1,1.5-0.3,2.2c-0.1,0.8-0.7,1.2-1.4,1.3c-0.6,0-1.3-0.4-1.5-1.1c-0.1-0.5-0.2-1.1-0.2-1.7c0-2.5-0.3-5-1.1-7.4
		c-0.4-1.2-1.1-2.4-1.7-3.4c-1.2-1.9-3.2-2.8-5.4-3.2c-0.3-0.1-0.7-0.1-1-0.3c-0.7-0.3-1-0.9-0.9-1.5c0.1-0.7,0.7-1.1,1.5-1.2
		C142.5,87.4,142.8,87.4,143.2,87.5C143.1,87.5,143.2,87.5,143.2,87.5z M153.9,85.4c-1.8,1.6-3.4,3.3-5.8,4c2.2,1.8,3.6,3.8,4.6,6.4
		c0.6-1.1,1-2,1.5-2.8c0.6-0.8,1.3-1.6,2.1-2.3c0.7-0.6,1.5-1.1,2.4-1.8C156.6,88.3,154.9,87.3,153.9,85.4z"/>
	<path class="st3" d="M161.6,82.7c-0.9,0-1.4-0.6-1.1-1.2c0.2-0.4,0.4-0.8,0.7-1.1c1-1.1,2-2.1,3-3.2c0.2-0.2,0.4-0.3,0.6-0.4
		c0.5-0.2,0.9,0,1.3,0.4c0.3,0.4,0.3,0.8,0,1.2c-0.1,0.1-0.2,0.3-0.3,0.4c-1,1.1-2,2.1-3.1,3.2C162.4,82.2,161.9,82.5,161.6,82.7z"
		/>
	<path class="st3" d="M147.3,81.9c0,0.6-0.4,1-0.9,0.9c-0.3,0-0.7-0.2-0.9-0.4c-1.1-1.1-2.1-2.1-3.2-3.2c-0.1-0.2-0.3-0.4-0.3-0.6
		c-0.2-0.5-0.2-0.9,0.2-1.3c0.4-0.4,0.9-0.3,1.3,0c1.3,1.3,2.5,2.6,3.7,4C147.2,81.5,147.2,81.8,147.3,81.9z"/>
	<path class="st3" d="M164.8,101.6c-0.4-0.2-0.7-0.2-0.9-0.4c-1.1-0.9-2.2-1.7-3.3-2.7c-0.4-0.4-0.8-0.9-0.4-1.5
		c0.3-0.5,1-0.6,1.7-0.2c0.4,0.2,0.8,0.5,1.2,0.8c0.8,0.6,1.6,1.3,2.4,2c0.4,0.3,0.6,0.8,0.3,1.3
		C165.5,101.2,165.1,101.4,164.8,101.6z"/>
	<path class="st3" d="M140.7,104c-0.8,0-1.3-0.5-1.1-1.1c0.1-0.2,0.2-0.5,0.4-0.7c0.9-1.2,1.7-2.4,2.6-3.5c0.2-0.2,0.3-0.4,0.5-0.5
		c0.4-0.3,0.9-0.5,1.4-0.1c0.5,0.4,0.4,0.9,0.2,1.4c-0.1,0.2-0.2,0.5-0.4,0.7c-0.9,1.1-1.9,2.3-2.8,3.3
		C141.3,103.7,140.9,103.9,140.7,104z"/>
</g>
<g>
	<path class="st1" d="M353.9,284.3c1.9-0.3,3.5-0.5,5.1-0.7c0.9-0.1,1.8-0.2,2.6-0.8c0.2-0.2,0.9-0.2,1,0c0.2,0.3,0.4,0.8,0.3,1.1
		c-0.1,0.8-0.8,1.1-1.5,1.3c-1.3,0.3-2.7,0.5-4.1,0.8c-0.4,0.1-0.8,0.1-1.5,0.3c0.8,0.9,1.5,1.7,2.2,2.4c0.2,0.2,0.6,0.2,0.9,0.2
		c1.8-0.2,3.5-0.5,5.3-0.7c0.5-0.1,1.1-0.2,1.3,0.4c0.2,0.5-0.1,1.1-0.8,1.3c-0.8,0.3-1.6,0.4-2.4,0.5c-0.7,0.1-1.4,0.2-2.4,0.4
		c0.4,0.5,0.7,0.8,1,1.2c0.6,0.7,1.3,1.4,1.9,2.1c0.5,0.6,0.5,1.1,0.1,1.5c-0.4,0.4-1,0.4-1.6,0c-0.4-0.3-0.7-0.7-1-1
		c-0.3-0.3-0.6-0.5-0.8-0.8c-0.1-0.1-0.2-0.1-0.3-0.1c0,0.3,0,0.6,0,0.8c0,0.4-0.1,0.8-0.6,0.9c-0.5,0.1-0.8-0.2-1-0.6
		c-0.1-0.4-0.3-0.8-0.3-1.1c0.2-2.5-1.5-3.8-3.1-5.4c-0.2,0.3-0.3,0.6-0.4,0.9c-0.1,0.4-0.2,0.8-0.3,1.1c-0.2,0.7-0.7,1-1.1,0.8
		c-0.6-0.2-0.7-0.6-0.6-1.2c0.1-0.9,0.2-1.7,0.4-2.6c0.2-0.7,0.1-1.2-0.5-1.7c-2.1-1.9-4.1-3.8-6.2-5.7c-0.3-0.3-0.6-0.5-1.1-0.8
		c0,0.5,0,0.8,0,1.1c0.3,3.4,0.6,6.8,0.8,10.2c0.2,4,0.2,8-0.5,11.9c-0.2,1-0.5,2-0.8,3c-0.1,0.4-0.3,0.8-0.6,1.2
		c-1,1.5-2.7,1.5-3.5-0.1c-0.6-1.3-1.1-2.7-1.3-4.2c-0.6-4-0.6-8-0.2-12c0.4-3.9,1.1-7.7,2.2-11.4c0.1-0.2,0.1-0.5,0.2-1
		c-0.4,0.2-0.7,0.3-0.9,0.4c-1.7,1.8-3.3,3.6-4.9,5.3c-0.4,0.4-0.4,0.8-0.2,1.3c0.4,1.1,0.8,2.3,1.2,3.4c0.4,1,0.3,1.5-0.2,1.7
		c-0.6,0.3-1.3-0.1-1.8-0.9c-0.4-0.7-0.6-1.5-0.9-2.3c-0.1-0.1-0.2-0.3-0.3-0.6c-0.7,0.8-1.4,1.5-2.1,2.2c-0.2,0.2-0.2,0.7-0.1,1.1
		c0.3,1.2,0.6,2.3,1,3.5c0.2,0.6,0.4,1.1-0.3,1.5c-0.5,0.3-1.2,0-1.6-0.7c-0.3-0.7-0.5-1.5-0.8-2.2c-0.1-0.2-0.1-0.3-0.2-0.6
		c-0.8,0.7-1.3,1.5-1.9,2.3c-0.1,0.2-0.2,0.5-0.4,0.7c-0.4,0.4-0.8,0.5-1.3,0.2c-0.5-0.2-0.7-0.7-0.6-1.2c0.1-0.4,0.4-0.9,0.6-1.3
		c0.8-1.1,1.6-2.2,2.4-3.2c-0.2-0.8-0.8-1-1.4-1.1c-0.6-0.1-1.2,0-1.8-0.1c-0.4,0-0.9-0.1-1.2-0.3c-0.4-0.2-0.6-0.6-0.4-1
		c0.1-0.2,0.5-0.4,0.8-0.5c0.5-0.1,1.1-0.1,1.7-0.2c1.5-0.1,2.9-0.1,4,1.1c0.9-1,1.8-2,2.9-3.2c-0.7-0.1-1.1-0.2-1.5-0.2
		c-0.6,0-1.1,0.1-1.7,0.1c-0.4,0-0.8-0.1-1.1-0.3c-0.2-0.2-0.5-0.6-0.5-0.8c0-0.3,0.4-0.6,0.7-0.6c0.8-0.2,1.6-0.2,2.4-0.4
		c1.1-0.2,2.1-0.1,3,0.5c0.9-1,1.8-1.9,2.9-3.1c-1,0.1-1.7,0.3-2.5,0.3c-3.1,0.3-6.1,0.7-9.2-0.1c-1-0.3-2.1-0.7-3-1.2
		c-2-1.3-2-3.3,0-4.7c0.8-0.5,1.7-0.9,2.6-1.1c4.1-0.9,8.2-0.5,12.3,0.7c0.7,0.2,1.4,0.4,2.2,0.4c-1.4-1.5-2.9-2.9-4.3-4.4
		c-1.6,1.5-3.5,0.9-5.3,0.9c-0.5,0-0.9-0.3-0.9-0.9c0-0.5,0.4-0.8,0.8-0.9c0.7-0.1,1.5-0.2,2.2-0.3c0.4-0.1,0.9-0.2,1.4-0.3
		c-0.6-1.1-1.4-1.6-2.2-2.3c-1.4,1.4-3,1.3-4.7,0.8c-0.3-0.1-0.6-0.2-0.8-0.4c-0.2-0.2-0.3-0.6-0.2-0.9c0-0.2,0.5-0.4,0.7-0.4
		c0.5,0,0.9,0.1,1.4,0.2c1,0.1,1.2,0,2-0.8c-0.5-0.5-1.1-1.1-1.6-1.6c-0.3-0.3-0.6-0.6-0.9-1c-0.3-0.4-0.4-0.8-0.1-1.2
		c0.4-0.4,0.9-0.4,1.3-0.1c0.3,0.2,0.6,0.5,0.9,0.7c0.4,0.4,0.8,0.7,1.3,1.2c0.5-1.1,0.9-2,1.3-2.9c0.1-0.2,0.2-0.5,0.3-0.7
		c0.2-0.5,0.6-0.8,1.1-0.6c0.5,0.2,0.7,0.6,0.5,1.2c-0.1,0.5-0.3,0.9-0.5,1.3c-0.4,1-0.8,2.1-1.3,3.2c0.7,0.6,1.3,1.2,2.1,1.9
		c0.4-1.2,0.7-2.3,1.1-3.3c0.2-0.6,0.5-1.1,0.9-1.6c0.3-0.4,0.8-0.6,1.3-0.4c0.6,0.3,0.4,0.8,0.3,1.3c-0.5,1.7-1,3.5-1.5,5.2
		c0,0.2-0.1,0.3-0.1,0.6c1.4,1.4,2.8,2.9,4.2,4.3c0.1,0,0.1-0.1,0.2-0.1c-0.2-1.5-0.4-2.9-0.6-4.4c-0.5-4.8-0.7-9.6,0.4-14.3
		c0.2-1,0.6-2.1,1.1-3c0.3-0.7,0.9-1.3,1.8-1.3c0.9,0.1,1.5,0.7,1.7,1.5c0.3,1.3,0.7,2.7,0.7,4.1c0,3.6-0.2,7.3-0.3,10.9
		c-0.1,2.2-0.3,4.4-0.4,6.6c0.1,0,0.2,0.1,0.3,0.1c1.2-1.7,2.4-3.4,3.7-5.1c-1.2-1.8-1-3.9-1.2-5.8c0-0.5,0.1-1,0.7-1.1
		c0.7-0.1,0.9,0.4,1,0.9c0.2,0.7,0.3,1.4,0.5,2.2c0.1,0.5,0.2,0.9,0.3,1.7c0.7-1,1.2-1.7,1.8-2.5c-1-1.3-0.9-2.9-0.9-4.4
		c0-0.3,0-0.6,0.1-0.9c0.1-0.5,0.3-0.8,0.8-0.8c0.5,0,0.8,0.3,0.9,0.7c0.1,0.6,0.2,1.2,0.3,1.8c0.1,0.4,0.1,0.8,0.2,1.3
		c0.3-0.3,0.5-0.4,0.7-0.7c0.6-0.8,1.1-1.5,1.7-2.3c0.6-0.7,1.1-0.9,1.5-0.5c0.5,0.3,0.5,0.9,0,1.6c-0.6,1-1.3,2-2.1,3.2
		c0.7,0.2,1.3,0.4,1.9,0.5c0.6,0.2,1.3,0.3,1.9,0.5c0.5,0.1,0.8,0.4,0.7,0.9c-0.1,0.5-0.5,0.7-0.9,0.7c-0.3,0-0.6,0-0.9,0
		c-1-0.1-2-0.3-2.9-0.4c-0.3,0-0.7-0.1-1.1-0.1c-0.6,0.9-1.2,1.8-1.9,2.8c1.4,0.5,2.5,1.4,4,1.3c0.4,0,0.9,0.1,0.9,0.6
		c0,0.4-0.1,0.9-0.3,1.2c-0.4,0.5-1.1,0.5-1.7,0.3c-0.9-0.3-1.8-0.6-2.7-0.9c-0.4-0.2-0.9-0.3-1.4-0.5c-1.5,2-3,4-4.7,6.2
		c1-0.3,1.7-0.5,2.4-0.7c2.8-0.9,5.6-1.6,8.5-1.4c2.3,0.1,4.6,0.6,6.6,1.8c0.8,0.5,1.6,1.2,2.2,1.9c0.8,1,0.6,2.1-0.4,2.9
		c-0.6,0.4-1.2,0.8-1.9,1c-3.7,1-7.4,1.4-11.2,0.9c-0.8-0.1-1.7-0.2-2.8-0.3C350.7,281.2,352.4,282.8,353.9,284.3z M346.9,276.2
		c5.2,1.2,10.3,1.4,15.7-0.2c-0.6-0.4-0.9-0.6-1.3-0.8c-1.4-0.7-2.9-1-4.5-1.1C353.3,273.8,350.1,275,346.9,276.2z M341.6,304
		c1.8-3.3,1.4-16.3,0.4-20.4C340.7,290.6,339.9,297.3,341.6,304z M337.6,275.8c-2.5-1.3-5.1-1.8-7.7-1.9c-1.7,0-3.4,0.1-5.2,0.2
		c-0.8,0.1-1.5,0.4-2,1.1c0.7,0.9,1.7,1,2.7,1.2c2.8,0.5,5.7,0.2,8.5-0.1C335.2,276.2,336.4,276,337.6,275.8z M341.7,270.7
		c0.1-0.8,0.2-1.5,0.2-2.3c0.2-2.6,0.4-5.2,0.5-7.8c0.1-2.8,0.1-5.6,0.1-8.4c0-0.5-0.1-1.1-0.2-1.6c-0.1,0-0.3,0-0.4,0
		C339.7,257.3,340.6,264,341.7,270.7z"/>
	<path class="st1" d="M369.8,279.1c-1.4,0-2.2-0.9-2.2-2.6c0-1.2,0.9-1.9,2.4-1.9c1.4,0,2.3,0.9,2.3,2.2
		C372.3,278.4,371.5,279.1,369.8,279.1z"/>
	<path class="st1" d="M341.4,314.4c-1.3,0-2.3-1-2.3-2.2c0-1.2,1.3-2.4,2.5-2.4c1.2,0.1,2.2,1.1,2.2,2.4
		C343.8,313.5,342.9,314.4,341.4,314.4z"/>
	<path class="st1" d="M342.9,242c1,0,2.1,1,2.2,2c0,0.9-0.9,2.1-1.7,2.1c-1.2,0.1-2.3-1-2.4-2.1C340.9,243,341.8,242,342.9,242z"/>
	<path class="st1" d="M315.9,272.7c1.2,0,2.2,1,2.2,2.1c0,1-1,1.9-2.1,1.9c-1-0.1-2.1-1.1-2-2.2
		C313.9,273.5,314.8,272.7,315.9,272.7z"/>
</g>
<g>
	<path class="st3" d="M87.8,260.4c-0.6,0-0.9-0.1-1.3-0.1c-1.6,0-3.1,0.1-4.7,0c-0.9,0-1.5,0.3-2,1.1c-0.4,0.7-1,1.4-1.4,2.2
		c-0.2,0.3-0.4,0.6-0.6,0.8c-0.4,0.4-0.9,0.4-1.3,0.1c-0.5-0.3-0.6-0.7-0.4-1.2c0.1-0.4,0.3-0.7,0.5-1c0.3-0.5,0.6-1,0.9-1.6
		c-1-0.3-10.3-0.3-12,0c0.5,0.8,1,1.6,1.5,2.4c0.2,0.4,0.5,0.7,0.6,1.1c0.2,0.5,0.1,0.9-0.3,1.3c-0.4,0.4-0.9,0.5-1.4,0.2
		c-0.2-0.1-0.4-0.2-0.5-0.4c-1.1-1.6-2.3-3.1-3.3-4.8c-0.7-1.1-0.6-2.3,0.2-3.4c1-1.3,2.1-2.5,3.1-3.8c0.1-0.2,0.3-0.3,0.5-0.4
		c0.5-0.3,1-0.4,1.6,0c0.5,0.3,0.6,0.9,0.2,1.5c-0.5,0.7-1,1.4-1.5,2.1c-0.3,0.4-0.6,0.8-1,1.3c4.5-0.2,8.9-0.4,13.4-0.5
		c-0.5-0.6-1-1.1-1.4-1.6c-0.9-1-1-1.6-0.6-2c0.5-0.5,1.1-0.3,2.1,0.6c1.1,0.9,2.1,1.9,3.3,3c1.3,0,2.9,0,4.8,0
		c-0.5-0.5-0.8-0.8-1.1-1.1c-1.6-1.6-3.1-3.2-4.6-4.9c-0.4-0.5-0.8-1-1.1-1.6c-0.2-0.4-0.3-0.9,0.1-1.2c0.3-0.2,0.8-0.2,1.1,0
		c0.6,0.3,1.2,0.8,1.7,1.2c2.2,2,4.4,4,6.6,6.1c0.3,0.3,0.6,0.5,1,0.8c0.1-0.3,0.1-0.6,0.1-0.8c0-2.6-0.1-5.2-0.1-7.8
		c0-0.6-0.2-1-0.6-1.3c-0.5-0.4-0.9-0.8-1.4-1.1c-0.5-0.4-0.8-0.8-0.5-1.5c0.3-0.6,0.9-0.5,1.5-0.4c0.2,0.1,0.5,0.2,0.8,0.3
		c0-2.7,0-5.3,0-8.2c-0.6,0.3-0.9,0.6-1.3,0.8c-0.9,0.5-1.7,1-2.6,1.4c-0.5,0.3-1,0.1-1.4-0.4c-0.3-0.5-0.1-0.9,0.3-1.3
		c0.3-0.3,0.6-0.5,0.9-0.8c1.5-1.1,3-2.2,4.5-3.3c1.3-1,2.3-1.1,3.5,0c1.7,1.5,3.3,3.2,4.8,4.9c0.6,0.7,0.5,1.3,0.1,1.7
		c-0.5,0.4-1.2,0.5-1.8,0c-0.7-0.6-1.4-1.2-2-1.8c-0.6-0.5-1.1-1.1-1.9-1.8c0.2,3.8,0.4,7.2,0.6,10.9c0.6-0.5,1.1-0.9,1.6-1.3
		c0.5-0.3,0.9-0.6,1.4-0.9c0.5-0.3,1-0.2,1.3,0.2c0.4,0.4,0.2,0.9-0.1,1.3c-0.3,0.3-0.5,0.6-0.8,0.8c-1.1,0.9-2.2,1.7-3.2,2.6
		c0,1.3,0,2.6,0,3.9c0.1,0.1,0.2,0.1,0.3,0.2c0.2-0.3,0.4-0.6,0.6-0.8c1.3-1.6,2.5-3.3,3.8-4.9c0.5-0.7,1.2-1.3,1.8-1.8
		c0.4-0.3,0.9-0.5,1.4-0.1c0.5,0.4,0.3,0.9,0.1,1.4c-0.3,0.5-0.6,1.1-0.9,1.6c-1.8,2.5-3.7,4.9-5.5,7.4c-0.3,0.3-0.5,0.7-0.9,1.1
		c0.3,0.1,0.5,0.2,0.7,0.2c2.2-0.1,4.4-0.1,6.6-0.3c0.3,0,0.7-0.3,0.9-0.5c0.5-0.6,1-1.2,1.5-1.8c0.2-0.3,0.4-0.5,0.7-0.8
		c0.6-0.5,1.1-0.5,1.5-0.1c0.4,0.5,0.3,0.9,0,1.4c-0.3,0.4-0.6,0.9-1.1,1.5c6.1-0.1,11.9-0.3,17.9-0.4c-0.2-0.4-0.4-0.6-0.6-0.9
		c-0.3-0.4-0.7-0.9-1-1.3c-0.6-0.8-0.6-1.4-0.1-1.8c0.5-0.4,1.1-0.3,1.8,0.5c1.2,1.4,2.4,2.8,3.6,4.2c0.8,0.9,1,2,0.4,3
		c-0.9,1.6-1.8,3.2-2.9,4.8c-0.5,0.8-1.3,0.9-1.9,0.4c-0.6-0.4-0.7-1-0.2-1.8c0.7-1.2,1.4-2.5,2.3-3.9c-3.1,0-6.1,0.2-9,0.3
		c-3,0.1-5.9,0.2-9.2,0.3c0.8,0.9,1.4,1.6,2,2.3c0.3,0.4,0.7,0.7,0.9,1.1c0.1,0.3,0.2,0.9,0,1.2c-0.2,0.5-0.8,0.5-1.3,0.3
		c-0.3-0.1-0.7-0.4-0.9-0.7c-1.1-1.1-2.3-2.3-3.4-3.4c-0.3-0.3-0.6-0.6-1.1-0.6c-2.6,0.1-5.2,0.2-7.9,0.3c0.4,0.4,0.7,0.7,1,1
		c2.3,1.9,4.6,3.9,6.8,5.8c0.4,0.3,0.7,0.6,1,1c0.4,0.4,0.5,1,0.1,1.4c-0.4,0.5-0.9,0.6-1.5,0.4c-0.4-0.2-0.8-0.5-1.2-0.7
		c-1.9-1.4-3.7-2.9-5.5-4.3c-0.3-0.3-0.7-0.5-1.1-0.9c-0.3,1.4,0,2.6,0.1,3.8c0,0.3,0.4,0.5,0.7,0.7c1.3,1.1,2.7,2.2,4,3.3
		c0.8,0.7,0.9,1.3,0.5,1.8c-0.4,0.5-1,0.5-1.9-0.1c-1-0.7-2-1.5-3.1-2.2c-0.2,1.1,0.5,11.7,1,13.7c1.4-0.8,2.7-1.5,4.1-2.3
		c0.2-0.1,0.3-0.3,0.5-0.4c0.7-0.5,1.2-0.5,1.6,0c0.4,0.4,0.5,1.2,0.1,1.8c-0.2,0.3-0.6,0.7-0.9,0.9c-1.9,1.2-3.9,2.3-5.8,3.4
		c-1.3,0.7-2.5,0.5-3.7-0.5c-1.4-1.2-2.8-2.4-4.3-3.6c-0.4-0.3-0.7-0.7-0.5-1.2c0.2-0.5,0.7-0.7,1.2-0.6c0.7,0.2,1.3,0.4,1.9,0.8
		c0.8,0.5,1.5,1,2.3,1.6c-0.4-4.5-0.9-8.8-1.3-13.3c-0.4,0.3-0.7,0.5-1,0.8c-0.2,0.2-0.5,0.4-0.7,0.5c-0.5,0.3-1,0.4-1.4,0
		c-0.5-0.5-0.2-1,0.2-1.4c0.8-0.9,1.6-1.7,2.4-2.6c0.4-0.4,0.6-0.7,0.5-1.3c-0.1-1.9-0.2-3.9-0.2-6.1c-0.5,0.4-0.7,0.7-1,0.9
		c-2.4,2.6-4.7,5.2-7.1,7.8c-0.3,0.3-0.6,0.7-0.9,0.9c-0.5,0.3-1,0.3-1.4-0.1c-0.5-0.4-0.4-0.9-0.2-1.4c0.2-0.3,0.4-0.6,0.6-0.8
		c2-2.4,4-4.7,5.9-7C87.2,261.2,87.4,260.8,87.8,260.4z"/>
	<path class="st3" d="M77.1,274.7c-1.1,0-2.4-1-2.4-1.9c0-0.9,1.1-1.9,2.1-1.9c1,0,2.1,1.1,2.1,2.1C78.9,273.9,78,274.7,77.1,274.7z
		"/>
	<path class="st3" d="M78.5,247.9c-1,0-2.1-1.1-2-2.1c0-0.8,0.7-1.5,1.6-1.5c1.1,0,2.1,1,2.1,2C80.2,247.1,79.4,247.9,78.5,247.9z"
		/>
	<path class="st3" d="M107.3,274.2c-0.9,0-1.9-1-1.9-2c0-0.9,0.7-1.5,1.6-1.5c1,0,1.8,1,1.8,2C108.8,273.6,108.2,274.2,107.3,274.2z
		"/>
	<path class="st3" d="M105.6,243.8c-0.9,0-2-1.2-1.9-2c0.1-0.7,0.8-1.3,1.5-1.3c1,0,2,1,2,1.9C107.2,243.2,106.4,243.8,105.6,243.8z
		"/>
</g>
<g>
	<path class="st3" d="M354,197.2c0.6,1.1,1,1.9,1.4,2.8c0.4,0.9,0,1.7-0.9,1.8c-0.6,0.1-1-0.1-1.3-0.6c-0.4-0.6-0.7-1.2-1.2-1.9
		c-0.2,0.6-0.3,1-0.4,1.4c-0.3,0.8-0.5,1.6-0.8,2.4c-0.1,0.4-0.4,0.6-0.8,0.5c-0.4-0.1-0.6-0.5-0.5-0.8c0-0.3,0.1-0.6,0.2-1
		c0.3-1.3,0.6-2.6,0.9-3.9c0.2-0.7,0.1-1.3-0.3-1.9c-1.2-2.3-2.4-4.6-3.6-6.9c-0.2-0.3-0.4-0.7-0.6-1.1c-0.6,0.6-1.2,1-1.7,1.6
		c-0.1,0.1-0.2,0.5-0.2,0.7c0,0.3,0.2,0.6,0.3,0.9c0.5,1.5,1.1,2.9,1.6,4.4c0.5,1.3,0.2,2.5-0.5,3.6c-1.3,1.9-2.5,3.8-3.7,5.7
		c-0.2,0.4-0.4,0.7-0.7,1.1c-0.5,0.9-1.4,1-2,0.1c-0.3-0.4-0.6-0.9-0.7-1.5c-0.5-2.9-1.1-5.9-1.5-8.9c-0.3-1.6,0.3-2.9,1.6-3.9
		c0.6-0.4,1.1-0.9,1.7-1.3c0.5-0.4,1-0.8,1.6-1.2c-0.2-0.7-0.3-1.3-0.6-2.1c-0.5,0.2-1,0.4-1.4,0.6c-1.6,0.7-3.2,1.5-4.8,2.2
		c-0.6,0.2-0.8,0.6-0.9,1.2c-0.3,1.5-0.6,3-0.9,4.5c-0.1,0.4-0.2,0.7-0.3,1c-0.2,0.4-0.5,0.6-1,0.5c-0.5-0.1-0.7-0.4-0.6-0.9
		c0-0.4,0.1-0.8,0.2-1.2c0.2-1.2,0.4-2.4,0.6-3.8c-0.8,0.3-1.4,0.5-2.1,0.7c-0.4,0.1-0.9,0.3-1.4,0.4c-0.4,0.1-0.9,0.1-1.2-0.3
		c-0.3-0.5,0.1-0.9,0.5-1.2c0.5-0.4,1.2-0.7,1.8-1.1c0.7-0.3,1.3-0.6,2-1c0-0.1,0-0.2,0-0.2c-1-0.3-2-0.6-3.1-1
		c-0.7-0.2-1.4-0.5-2.2-0.7c-0.3-0.1-0.7-0.3-0.6-0.8c0.1-0.5,0.5-0.6,0.9-0.6c0,0,0.1,0,0.1,0c2.5,0.4,5,1,7.6,2.1
		c1.9-0.9,3.9-1.9,6-2.9c-0.2-0.5-0.4-0.9-0.5-1.4c-1.8,0-3.5,0-5.3,0c-0.8,0-1.5-0.1-2.3-0.1c-1.9,0-3.2-0.9-4.2-2.4
		c-0.3-0.4-0.5-0.8-0.7-1.2c-0.5-1-0.9-2-1.3-3.1c-0.4-1,0.1-1.6,1.2-1.5c0.9,0.1,1.9,0.3,2.8,0.4c1.7,0.1,3.3,0.1,5,0.1
		c1.4,0,2.3,0.5,2.9,1.8c0.5,1.1,1.2,2.2,1.8,3.3c0.7-0.2,1.3-0.4,2-0.6c-0.1-0.3-0.2-0.6-0.4-0.9c-1-2.1-2.1-4.2-3.1-6.3
		c-0.2-0.5-0.6-0.8-1.1-0.9c-1-0.2-1.9-0.5-2.8-0.7c-0.8-0.2-1-0.5-0.9-1c0.1-0.4,0.5-0.6,1.3-0.5c0.7,0.1,1.4,0.2,2.3,0.3
		c-0.3-0.7-0.5-1.2-0.7-1.7c-0.2-0.4-0.3-0.8-0.4-1.2c-0.1-0.6,0.1-1.1,0.5-1.3c0.5-0.2,0.9,0,1.2,0.5c0.3,0.6,0.6,1.1,1,1.7
		c0.2,0.4,0.4,0.7,0.7,1.3c0.5-1,1-2,1.4-2.8c0.2-0.4,0.5-0.9,0.8-1.3c0.5-0.6,1.2-0.7,1.7-0.2c0.5,0.5,0.4,1.2-0.2,1.7
		c-0.2,0.2-0.4,0.5-0.6,0.9c-0.6,1.2-1.2,2.3-1.8,3.5c-0.2,0.3-0.2,0.6,0,0.9c1.2,2.3,2.3,4.6,3.6,7.1c0.6-0.4,1-0.7,1.5-1
		c-0.6-1.8-1.2-3.5-1.8-5.2c-0.5-1.2-0.5-2.4,0.2-3.5c1.7-3.1,3.7-6.1,6-8.8c0.9-1.1,2-0.9,2.7,0.3c0.3,0.5,0.4,1,0.6,1.5
		c0.4,1.7,0.8,3.5,1.2,5.2c0.3,1.2,0,2.2-0.8,3.1c-1.5,1.5-2.9,3.1-4.4,4.7c-0.2,0.2-0.5,0.5-0.6,0.8c-0.5,0.8-0.8,1.5-0.1,2.3
		c0.4,0.5,0.6,1.1,1,1.8c0.9-0.5,1.8-1,2.6-1.4c1.4-0.8,2.9-1.6,4.3-2.4c0.5-0.2,0.7-0.6,0.8-1.1c0.2-0.9,0.5-1.8,0.7-2.7
		c0.1-0.3,0.1-0.6,0.2-0.8c0.2-0.6,0.6-0.9,1.1-0.8c0.4,0.1,0.6,0.5,0.5,1.2c-0.1,0.8-0.3,1.7-0.5,2.6c1.1-0.4,2.1-0.8,3.1-1.2
		c0.3-0.1,0.7-0.3,1-0.4c0.5-0.1,1,0.1,1.3,0.6c0.3,0.5,0.2,1-0.2,1.4c-0.3,0.2-0.6,0.4-0.9,0.6c-0.8,0.4-1.6,0.9-2.6,1.4
		c0.4,0.2,0.6,0.3,0.8,0.3c1,0.3,2.1,0.5,3.2,0.8c0.4,0.1,0.8,0.3,1.2,0.5c0.4,0.3,0.5,1,0.3,1.4c-0.3,0.4-0.6,0.5-1.1,0.4
		c-1.5-0.4-2.9-0.8-4.4-1.2c-0.5-0.1-1-0.1-1.4-0.3c-1-0.4-1.9-0.2-2.8,0.4c-2,1.2-4.1,2.3-6.2,3.6c0.1,0.6,0.2,1.2,0.3,1.8
		c2.2,0,4.3-0.1,6.4-0.1c1,0,2.1,0.1,3.1,0.2c0.9,0.1,1.6,0.6,1.9,1.5c0.7,1.9,1.8,3.5,3.1,5c0.1,0.1,0.2,0.3,0.3,0.4
		c0.5,0.8,0.2,1.7-0.7,2c-0.2,0.1-0.5,0.1-0.7,0.1c-2.9,0-5.8,0.1-8.6-0.4c-0.7-0.1-1.3-0.3-2-0.5c-1.1-0.3-1.9-1-2.2-2.2
		c-0.3-0.9-0.6-1.8-0.9-2.7c-0.1-0.3-0.3-0.7-0.4-1.1c-0.5,0.1-0.9,0.2-1.5,0.3c0.4,0.8,0.7,1.4,1.1,2.1c0.9,1.8,1.9,3.5,2.8,5.3
		c0.2,0.4,0.5,0.5,0.9,0.6c1.7,0.5,3.3,1,5,1.5c0.2,0.1,0.4,0.2,0.6,0.3c0.4,0.3,0.6,0.8,0.4,1.2c-0.2,0.5-0.7,0.5-1.1,0.4
		c-1-0.3-2-0.5-2.9-0.8C355.1,197.5,354.7,197.4,354,197.2z M349.1,165.6c-0.2,0-0.3,0-0.3,0.1c-1,1.5-2,3.1-3,4.6
		c-0.2,0.4-0.3,1-0.2,1.4c0.1,0.9,0.4,1.7,0.7,2.6c0.1,0,0.1,0,0.2,0C347.4,171.4,348.2,168.5,349.1,165.6z M339.7,199.9
		c0,0,0.1,0,0.1,0c0.6-2.6,1.1-5.1,1.7-7.7c-0.7,0.3-1.2,0.7-1.7,1.1c-0.6,0.5-0.8,1.1-0.8,1.8C339.3,196.7,339.5,198.3,339.7,199.9
		z M356,186.5c1.4,1,4.7,2.5,5.5,2.6c-0.4-0.7-0.7-1.5-1.1-2.1c-0.1-0.2-0.4-0.4-0.6-0.4C358.6,186.3,357.4,186.3,356,186.5z
		 M334.8,181.6c0-0.1,0.1-0.2,0.1-0.3c-0.9-0.5-1.8-0.9-2.7-1.4c-0.9-0.4-1.7-1-2.6-1.3c0.2,0.7,0.5,1.3,0.8,1.9
		c0.2,0.3,0.6,0.6,0.9,0.7C332.5,181.5,333.6,181.5,334.8,181.6z M353,188.1c-0.1,0.1-0.1,0.1-0.2,0.2c0.1,0.3,0.2,0.5,0.3,0.8
		c0.3,0.9,0.9,1.4,1.8,1.6c0.9,0.1,1.8,0.3,2.7,0.4c0.3,0,0.6,0,1,0.1c0-0.1,0-0.1,0-0.2C356.7,190,354.9,189.1,353,188.1z
		 M347.1,179c-0.7,0.5-1.3,0.9-2,1.3c0.3,0.6,0.6,1.1,0.9,1.6c0.8-0.4,1.4-0.8,2.1-1.2C347.8,180.1,347.5,179.6,347.1,179z
		 M343.7,194.5c-0.6,1.5-1.2,4.5-1,5.3C344.7,197.3,344.7,197.1,343.7,194.5z M343.6,183.2c-0.4-0.7-0.6-1.2-0.9-1.8
		c-0.6,0.2-1.2,0.4-1.8,0.6c0.3,0.8,0.6,1.4,0.9,2.1C342.4,183.8,343,183.5,343.6,183.2z M337,179.6c0.1-0.1,0.1-0.1,0.2-0.2
		c-0.3-0.5-0.6-1.1-0.9-1.6c-0.1-0.2-0.4-0.4-0.6-0.4c-0.9-0.1-1.8-0.1-2.9,0.2C334.4,178.4,335.7,179,337,179.6z M350.5,170.1
		c0.1,0,0.1,0.1,0.2,0.1c0.5-0.5,1-0.9,1.4-1.4c0.2-0.2,0.3-0.5,0.3-0.7c-0.1-0.6-0.3-1.3-0.5-1.9c-0.1,0-0.1,0-0.2,0
		C351.3,167.5,350.9,168.8,350.5,170.1z M343.3,188.1c0.6-0.4,1-0.7,1.4-1.1c0.5-0.4,0.5-0.6,0-1.4c-0.6,0.3-1.3,0.6-2,0.9
		C343,187.1,343.1,187.5,343.3,188.1z M347.3,184.3c0.5,1.4,0.5,1.4,2,0.8c-0.1-0.5-0.2-1-0.2-1.7
		C348.4,183.7,347.9,184,347.3,184.3z"/>
	<path class="st3" d="M356.9,203.1c0.3,0,0.9-0.1,1.5,0c1.5,0.3,3,0.7,4.5,1.1c0.7,0.2,0.9,0.5,0.8,1c-0.1,0.5-0.5,0.7-1.2,0.6
		c-1.4-0.2-2.7-0.4-4.1-0.7c-1.2-0.2-1.3-0.2-1.6,0.9c-0.2,0.5-0.3,1.1-0.5,1.7c-0.1,0.2-0.1,0.5-0.2,0.7c-0.3,0.6-0.6,0.8-1.1,0.7
		c-0.5-0.2-0.6-0.6-0.5-1.1c0.2-1.1,0.5-2.3,0.8-3.4C355.5,204.1,356,203.5,356.9,203.1z"/>
	<path class="st3" d="M365.3,171.9c0-0.4,0-0.7,0-1c0.2-1,0.4-2.1,0.7-3.1c0-0.2,0.1-0.3,0.2-0.5c0.2-0.4,0.5-0.6,1-0.5
		c0.4,0.1,0.6,0.4,0.6,0.8c-0.1,0.8-0.2,1.5-0.3,2.3c-0.2,1.3-0.3,1.1,0.8,1.8c0.8,0.5,1.5,1,2.3,1.4c0.2,0.1,0.4,0.2,0.5,0.4
		c0.3,0.3,0.4,0.7,0.2,1.1c-0.2,0.4-0.6,0.5-1,0.4c-0.1,0-0.2-0.1-0.3-0.1c-1.2-0.7-2.5-1.3-3.7-2.1
		C365.9,172.6,365.6,172.2,365.3,171.9z"/>
	<path class="st3" d="M334.4,165.7c-0.2,0-0.3,0.1-0.4,0.1c-1.3-0.1-2.6-0.2-3.9-0.4c-0.4,0-0.7-0.3-0.6-0.8c0-0.5,0.3-0.8,0.7-0.8
		c0.6-0.1,1.3-0.1,1.9,0c1.6,0.1,1.6,0.1,2.3-1.4c0.3-0.6,0.5-1.1,0.8-1.7c0.1-0.3,0.3-0.6,0.6-0.8c0.2-0.1,0.7-0.2,0.9-0.1
		c0.2,0.1,0.5,0.5,0.5,0.7c-0.4,1.8-1,3.5-2.3,4.8C334.8,165.5,334.6,165.6,334.4,165.7z"/>
	<path class="st3" d="M326.6,191.7c0.1,0.4,0.2,0.8,0.2,1.2c0,1.1,0.1,2.2,0.1,3.2c0,0.6-0.3,1-0.8,1c-0.5,0.1-1-0.2-1.1-0.8
		c-0.1-0.9-0.2-1.8-0.2-2.7c0.1-1-0.3-1.7-1.3-2.1c-0.4-0.2-0.8-0.6-1.2-1c-0.2-0.2-0.2-0.6-0.1-0.9c0.1-0.4,0.5-0.4,0.8-0.3
		c1,0.5,2,1.1,2.9,1.6C326.2,191.1,326.4,191.4,326.6,191.7z"/>
	<path class="st3" d="M359.8,209.3c-0.6,0.3-1.3,0-1.6-0.5c-0.2-0.5,0.1-1.2,0.6-1.4c0.6-0.3,1.2,0.1,1.5,0.8
		C360.6,208.7,360.4,209.1,359.8,209.3z"/>
	<path class="st3" d="M370.5,170.3c-0.4,0.2-1-0.2-1.2-0.7c-0.2-0.6,0.1-1.2,0.7-1.4c0.5-0.2,1.1,0.1,1.3,0.6
		C371.5,169.2,371,170.1,370.5,170.3z"/>
	<path class="st3" d="M333,160c0.2,0.6,0.1,0.9-0.4,1.1c-0.6,0.2-1.3-0.1-1.6-0.7c-0.2-0.5,0.1-1,0.6-1.2
		C332.1,159,332.8,159.4,333,160z"/>
	<path class="st3" d="M322,193.1c0.4-0.2,1,0,1.1,0.4c0.2,0.4-0.2,1.2-0.7,1.3c-0.4,0.2-0.8-0.1-1-0.6
		C321.3,193.8,321.5,193.3,322,193.1z"/>
</g>
<g>
	<path class="st0" d="M95.8,88.4c0.4-1.5,0.8-2.9,1.1-4.3c0.1-0.3,0-0.5-0.2-0.8c-0.4-0.5-0.8-1.1-1.2-1.6c-0.1-0.2-0.2-0.3-0.3-0.5
		c-0.2-0.5,0-1,0.4-1.2c0.4-0.2,0.9-0.2,1.2,0.3c0.3,0.3,0.6,0.7,0.9,1.1c0.5,0.6,0.7,0.7,1.4,0.4c0.8-0.3,1.5-0.8,2.3-1.2
		c0.4-0.2,0.7-0.3,1.1,0.1c0.3,0.3,0.4,0.8,0.1,1.2c-0.2,0.2-0.4,0.5-0.6,0.6c-0.4,0.3-0.8,0.5-1.2,0.7c-0.6,0.3-1.4,0.5-1.8,1
		c-0.4,0.5-0.4,1.3-0.5,2c-0.2,1.1-0.5,2.2-0.8,3.4c1.4-0.3,2.6-0.4,3.8-0.7c0.4-0.1,0.8-0.1,1.1,0.2c0.3,0.3,0.3,0.9-0.1,1.3
		c-0.5,0.4-1,0.7-1.6,0.8c-1.1,0.3-2.1,0.4-3.2,0.6c-0.2,0-0.4,0.1-0.6,0.1c-0.3,1.1-0.6,2.2-0.9,3.3c-0.3,1-0.6,2.1-0.9,3.1
		c-0.1,0.4-0.4,0.9-0.6,1.2c-0.3,0.4-0.9,0.5-1.2,0.4c-0.4-0.2-0.5-0.6-0.4-1.2c0.6-2.3,1.2-4.5,1.8-6.8c0.2-0.6,0.2-1.1-0.3-1.6
		c-0.5-0.6-0.9-1.4-1.3-2.1c-0.3-0.6-0.3-1,0.1-1.3c0.3-0.3,0.8-0.2,1.3,0.2C95,87.4,95.4,87.9,95.8,88.4z"/>
	<path class="st0" d="M84.1,126c0.4-1.2,0.7-2.4,1-3.6c0.2-0.6,0.4-1.2,0.7-1.7c0.3-0.6,0.8-0.7,1.2-0.5c0.4,0.2,0.6,0.6,0.4,1.2
		c-0.4,1.6-0.8,3.1-1.2,4.7c-0.2,0.7-0.1,1.3,0.4,1.8c0.9,1,1.7,2.1,2.5,3.2c0.4,0.6,0.4,1.1-0.1,1.5c-0.5,0.4-1,0.3-1.5-0.2
		c-0.1-0.1-0.3-0.3-0.4-0.4c-0.5-0.6-0.9-1.1-1.4-1.7c-0.1-0.1-0.3-0.3-0.5-0.5c-0.2,0.5-0.3,0.9-0.4,1.4c-0.4,1.1-0.7,2.3-1.1,3.4
		c-0.4,1.3,0.2,2.3,0.9,3.2c0.2,0.3,0.4,0.7,0.5,1c0.1,0.5-0.2,1-0.6,1.1c-0.5,0.1-0.9,0-1.2-0.3c-0.2-0.3-0.5-0.6-0.7-1
		c-0.4-0.6-0.7-1.2-1.1-1.8c-0.6,0.2-1.2,0.5-1.9,0.7c-0.8,0.2-1.2,0.2-1.4-0.3c-0.2-0.4,0-0.8,0.7-1.3c0.7-0.4,1.4-0.8,2.2-1.2
		c0.2-0.1,0.5-0.4,0.6-0.6c0.6-1.9,1.1-3.8,1.6-5.9c-0.5,0.1-0.9,0.2-1.3,0.2c-0.5,0.1-1,0.1-1.6,0.1c-0.6,0-1-0.4-1-0.8
		c0-0.5,0.2-0.8,0.9-0.9C81.7,126.6,82.9,126.3,84.1,126z"/>
	<path class="st0" d="M74.2,106.2c-1.1,1-2.1,1.9-3.1,2.8c-0.3,0.3-0.8,0.4-1.2,0.1c-0.4-0.3-0.4-0.8-0.1-1.3c0.3-0.4,0.6-0.8,1-1.2
		c0.3-0.3,0.6-0.6,0.9-1c-1.4-0.4-2.6-0.7-3.9-1c-0.3,0.3-0.6,0.6-0.9,0.9c-0.2,0.2-0.5,0.4-0.8,0.6c-0.4,0.2-0.7,0.3-1.1,0
		c-0.4-0.3-0.3-0.7-0.1-1.1c0.4-0.6,0.8-1.1,1.3-1.6c0.4-0.4,0.5-0.9,0.3-1.4c-0.2-0.6-0.3-1.1-0.5-1.7c-0.1-0.3-0.2-0.6-0.1-0.8
		c0.1-0.3,0.4-0.6,0.6-0.7c0.2-0.1,0.6,0.2,0.9,0.3c0.1,0,0.1,0.2,0.2,0.3c0.4,1.1,0.8,2.3,1.3,3.6c0.7,0.1,1.5,0.3,2.5,0.4
		c-0.1-0.7-0.2-1.3-0.3-1.9c0-0.3-0.1-0.7-0.1-1c0-0.6,0.3-0.9,0.7-1c0.5-0.1,1,0.1,1.1,0.7c0.3,1,0.5,2,0.7,3
		c0.1,0.7,0.4,1,1.1,1.2c1.9,0.4,3.7,0.9,5.6,1.3c0.1,0,0.3,0,0.4,0.1c0.4,0.1,0.7,0.3,0.7,0.8c0,0.4-0.3,0.8-0.7,0.9
		c-0.4,0.1-0.9,0.1-1.3,0c-1.3-0.2-2.5-0.5-3.8-0.8C75.2,106.5,74.7,106.3,74.2,106.2z"/>
	<path class="st0" d="M107.9,114.8c0.3,1,0.6,1.7,0.8,2.4c0.1,0.2,0.2,0.4,0.2,0.7c0,0.4-0.1,0.7-0.5,0.9c-0.4,0.1-0.7,0-1-0.3
		c-0.2-0.2-0.3-0.5-0.4-0.8c-0.3-1-0.7-2-1-3.1c-1.4-0.3-2.8-0.7-4.2-1c-0.4-0.1-0.7-0.1-1-0.3c-0.2-0.2-0.5-0.5-0.5-0.7
		c-0.1-0.4,0.2-0.7,0.6-0.8c0.4-0.1,0.9-0.1,1.4,0c1.3,0.2,2.5,0.4,3.8,0.7c0.5,0.1,0.9,0.1,1.4-0.2c0.9-0.6,1.8-1.2,2.8-1.7
		c0.3-0.2,0.7-0.4,1-0.4c0.3,0,0.7,0.1,0.8,0.3c0.1,0.2,0,0.6-0.2,0.9c-0.2,0.3-0.5,0.5-0.8,0.7c-0.5,0.4-1,0.7-1.7,1.1
		c0.9,0.2,1.6,0.5,2.4,0.6c0.2,0,0.5-0.1,0.7-0.3c1.1-0.6,2.3-1.2,3.4-1.8c0.7-0.3,1.2-0.3,1.4,0.1c0.2,0.4,0,1-0.7,1.3
		c-1.1,0.5-2.2,1.2-3.2,1.7c-0.2,0.1-0.3,0.2-0.6,0.4c0.5,0.9,0.9,1.7,1.3,2.5c0.1,0.2,0.3,0.3,0.3,0.5c0,0.2,0,0.5-0.2,0.6
		c-0.1,0.1-0.4,0.1-0.6,0.1c-0.2,0-0.3-0.2-0.5-0.3c-0.7-0.9-1.6-1.6-2-2.7c-0.1-0.2-0.2-0.4-0.4-0.5
		C109.8,115.2,109,115,107.9,114.8z"/>
	<path class="st0" d="M113.3,96.7c1,0.7,1.9,1.3,2.8,2c0.3,0.2,0.5,0.4,0.8,0.6c0.3,0.3,0.4,0.7,0.2,1.1c-0.2,0.4-0.6,0.6-1.1,0.6
		c-0.3-0.1-0.6-0.2-0.9-0.4c-0.9-0.5-1.9-1.1-2.9-1.7c-0.2,0.1-0.4,0.2-0.6,0.4c-1.1,0.8-2.2,1.6-3.3,2.3c-0.9,0.6-1.4,0.6-1.8,0.1
		c-0.3-0.5-0.1-1.1,0.6-1.7c1.1-0.8,2.2-1.6,3.4-2.4c0.4-0.3,0.6-0.5,0.7-1c0.3-1,0.8-2,1.2-3c0.2-0.4,0.6-0.5,1-0.4
		c0.4,0.1,0.7,0.4,0.7,0.8c0,0.4-0.1,0.8-0.2,1.2C113.8,95.6,113.6,96.1,113.3,96.7z"/>
	<path class="st0" d="M64.8,118.2c0.2,0,0.6,0,0.9,0.2c0.8,0.3,1.5,0.7,2.2,1.1c0.4,0.2,0.8,0.2,1.2,0c1-0.5,2-1.1,3-1.6
		c0.3-0.2,0.7-0.3,1-0.3c0.3,0,0.7,0.2,0.8,0.5c0.1,0.2,0,0.7-0.2,0.9c-0.3,0.3-0.8,0.6-1.2,0.8c-1,0.6-2,1.1-2.9,1.7
		c-0.2,0.1-0.4,0.4-0.4,0.7c-0.2,0.8-0.2,1.6-0.4,2.5c0,0.3-0.1,0.6-0.2,0.9c-0.2,0.5-0.6,0.8-1,0.8c-0.4-0.1-0.7-0.4-0.7-0.9
		c0-0.4,0-0.9,0-1.3c0-0.6,0-1.3,0.1-1.9c0.1-0.6-0.2-1-0.7-1.3c-0.6-0.4-1.3-0.8-1.8-1.3C64,119.1,64.1,118.5,64.8,118.2z"/>
	<path class="st0" d="M76.2,87.5c0.6-0.9,1.1-1.7,1.6-2.5c0.2-0.2,0.3-0.5,0.5-0.7c0.4-0.5,1.1-0.7,1.6-0.3c0.5,0.3,0.6,0.9,0.2,1.5
		c-0.3,0.5-0.6,0.9-0.8,1.3c-0.3,0.4-0.5,0.8-0.8,1.3c1.2,1.3,1.9,2.7,2.6,4.2c0.4,0.8,0.3,1.4-0.2,1.7c-0.5,0.3-1,0.1-1.5-0.7
		c-0.5-0.9-1.1-1.8-1.6-2.8c-0.2-0.3-0.4-0.6-0.6-1c-1.2,0.3-2.1-0.1-3.1-0.6c-0.6-0.3-0.8-0.7-0.7-1.1c0.1-0.5,0.5-0.7,1.2-0.6
		C75.1,87.2,75.6,87.4,76.2,87.5z"/>
	<path class="st0" d="M99,130.3c-0.3-0.6-0.8-1.3-1.2-2c-0.3-0.5-0.5-1-0.7-1.5c-0.2-0.8-0.1-1.2,0.4-1.4c0.5-0.2,0.9,0,1.3,0.7
		c0.4,0.7,0.8,1.4,1,2.2c0.4,1.4,1.2,2,2.7,2c0.6,0,1.2,0.1,1.9,0.2c0.2,0,0.5,0.1,0.7,0.1c0.4,0.2,0.6,0.5,0.6,0.9
		c-0.1,0.4-0.3,0.7-0.7,0.7c-0.4,0-0.9,0.1-1.3,0c-1.1-0.1-2.1-0.2-3.2-0.3c-0.2,0.6-0.4,1.2-0.6,1.8c-0.2,0.5-0.4,0.9-0.6,1.3
		c-0.2,0.3-0.5,0.4-0.9,0.3c-0.3-0.2-0.3-0.5-0.3-0.8C98.3,133.2,98.6,131.8,99,130.3z"/>
	<path class="st0" d="M96.7,124c-0.5,0.1-0.9,0.2-1.3,0.2c-1.1,0-2.2-0.1-3.4-0.2c-0.1,0-0.3,0-0.4-0.1c-0.4-0.1-0.7-0.3-0.7-0.7
		c0-0.5,0.2-0.8,0.6-0.9c0.3-0.1,0.7-0.2,1.1-0.2c0.8,0,1.6,0,2.4,0c0.5,0,0.8-0.2,1.1-0.6c0.6-0.9,1.2-1.8,1.8-2.7
		c0.2-0.3,0.4-0.6,0.7-0.8c0.4-0.3,0.9-0.3,1.3-0.1c0.4,0.3,0.6,0.7,0.4,1.2c-0.1,0.3-0.2,0.5-0.4,0.8c-0.6,1-1.2,2-1.8,2.9
		C97.5,123.3,97,123.6,96.7,124z"/>
	<path class="st0" d="M83.3,97c-0.2,0.8-0.5,1.6-0.7,2.4c-0.1,0.4-0.3,0.8-0.5,1.2c-0.2,0.4-0.6,0.7-1.1,0.5
		c-0.5-0.1-0.6-0.5-0.6-0.9c0.1-1.5,0.4-2.9,1-4.3c0.3-0.7,1-1.1,1.7-1.1c1.7,0,3.4,0.3,5,0.9c0.2,0.1,0.3,0.1,0.4,0.2
		c0.5,0.4,0.6,0.9,0.4,1.3c-0.3,0.5-0.7,0.6-1.3,0.4c-0.2-0.1-0.4-0.2-0.7-0.2C85.8,97.3,84.6,97.2,83.3,97z"/>
	<path class="st0" d="M94.2,118.8c0.5-0.9,0.9-1.8,1.3-2.6c0.3-0.6,0.5-1.2,0.8-1.7c0.3-0.6,0.9-0.8,1.4-0.6
		c0.5,0.2,0.7,0.7,0.6,1.3c0,0.2-0.1,0.3-0.1,0.5c-0.4,1-0.9,2.1-1.3,3.1c-0.3,0.5-0.6,1-1,1.5c-0.5,0.5-1.1,0.8-1.8,0.6
		c-1-0.2-1.9-0.5-2.9-0.8c-0.4-0.1-0.7-0.4-0.6-0.9c0.1-0.5,0.4-0.7,0.9-0.7c0.4,0,0.7,0.1,1.1,0.1C93,118.6,93.5,118.7,94.2,118.8z
		"/>
	<path class="st0" d="M82.6,114.8c0.7,0.3,1.4,0.6,2,0.9c0.8,0.4,1,0.8,0.8,1.3c-0.2,0.5-0.7,0.6-1.5,0.3c-0.7-0.3-1.4-0.5-2.2-0.7
		c-1-0.3-1.4-0.9-1.3-1.8c0.1-1.8,0.8-3.4,1.5-5c0.2-0.5,0.8-0.7,1.2-0.5c0.4,0.2,0.6,0.5,0.5,1.1c-0.2,1.1-0.6,2.2-0.8,3.4
		C82.8,114,82.7,114.3,82.6,114.8z"/>
	<path class="st0" d="M78,115.6c1.2,0.9,2.2,1.7,3.2,2.4c0.3,0.2,0.6,0.5,0.8,0.7c0.3,0.3,0.3,0.7,0.1,1.1c-0.2,0.4-0.7,0.5-1.1,0.3
		c-0.1,0-0.2-0.1-0.3-0.1c-1.3-0.9-2.5-1.8-3.8-2.7c-1-0.8-1.2-1.5-0.6-2.7c0.3-0.6,0.7-1.3,1-1.9c0.1-0.2,0.2-0.5,0.4-0.5
		c0.3-0.1,0.6-0.2,0.9-0.2c0.4,0.1,0.5,0.4,0.4,0.8c-0.1,0.4-0.2,0.8-0.4,1.1C78.5,114.5,78.2,115,78,115.6z"/>
	<path class="st0" d="M105.4,102.5c0.1,1,0.3,2.1,0.4,3.2c0,0.6-0.3,0.9-0.8,1c-0.5,0.1-0.8-0.1-1.1-0.7c-0.2-0.6-0.4-1.3-0.6-1.9
		c-0.1-0.7-0.5-1.1-1.1-1.4c-0.6-0.2-1.2-0.5-1.8-0.8c-0.4-0.2-0.7-0.5-1-0.7c-0.3-0.3-0.4-0.6-0.2-1c0.2-0.4,0.6-0.6,0.9-0.4
		c1.6,0.6,3.1,1.3,4.6,2C105,101.9,105.1,102.2,105.4,102.5z"/>
	<path class="st0" d="M86.1,100.7c-0.6,0.7-0.7,1.5-0.9,2.3c-0.1,0.4-0.2,0.9-0.3,1.3c-0.1,0.4-0.5,0.7-0.9,0.6
		c-0.4-0.1-0.5-0.4-0.5-0.8c0-1.3,0.2-2.6,0.7-3.8c0.5-1.4,1.4-1.9,2.8-1.6c1,0.2,2,0.7,3,1.1c0.6,0.2,0.7,0.6,0.6,1
		c-0.2,0.5-0.6,0.6-1,0.5c-0.7-0.1-1.5-0.3-2.2-0.5C86.8,100.9,86.5,100.8,86.1,100.7z"/>
	<path class="st0" d="M99.2,104.7c-0.8-0.2-1.5-0.4-2.2-0.7c-0.7-0.2-0.9-0.5-0.9-1c0.1-0.5,0.6-0.9,1.2-0.8c1,0.1,1.9,0.3,2.9,0.6
		c0.8,0.2,1.2,0.9,1.1,1.7c-0.1,1.2-0.4,2.5-0.6,3.7c-0.1,0.5-0.4,0.7-1,0.7c-0.4-0.1-0.7-0.3-0.7-0.9c0-0.5,0-1.1,0.1-1.6
		C99.1,105.8,99.1,105.2,99.2,104.7z"/>
	<path class="st0" d="M92.7,113.2c-0.6,0.3-1.3,0.1-1.5-0.4c-0.2-0.4,0.1-1,0.5-1.2c0.5-0.2,1.3,0,1.5,0.6
		C93.4,112.5,93.2,113,92.7,113.2z"/>
	<path class="st0" d="M93.8,116.5c-0.5,0.2-1,0.1-1.2-0.4c-0.2-0.5,0.1-1.1,0.6-1.4c0.5-0.2,0.9-0.1,1.1,0.4
		C94.6,115.6,94.4,116.2,93.8,116.5z"/>
	<path class="st0" d="M87.2,103.6c0.4-0.2,1.1,0,1.3,0.4c0.2,0.4,0,0.9-0.4,1.2c-0.5,0.3-1.1,0.1-1.3-0.4
		C86.6,104.4,86.8,103.8,87.2,103.6z"/>
	<path class="st0" d="M89.6,108c-0.5,0.2-1,0-1.2-0.4c-0.2-0.5,0-1,0.5-1.2c0.5-0.2,1,0,1.2,0.5C90.2,107.3,90,107.8,89.6,108z"/>
	<path class="st0" d="M91.2,109.3c0.2,0.4-0.1,0.9-0.5,1.1c-0.4,0.2-0.9,0-1.1-0.4c-0.2-0.4,0.1-1,0.5-1.1
		C90.6,108.7,91,108.9,91.2,109.3z"/>
	<path class="st0" d="M96.4,108.1c-0.4,0.2-0.9,0.1-1.1-0.3c-0.2-0.4,0-0.9,0.4-1.1c0.4-0.2,0.9,0,1.1,0.4
		C97,107.4,96.8,107.9,96.4,108.1z"/>
	<path class="st0" d="M86.3,112.4c0.2,0.4-0.1,0.9-0.5,1.1c-0.4,0.2-0.9,0-1.1-0.4c-0.1-0.4,0-0.8,0.4-1
		C85.6,111.9,86.2,112,86.3,112.4z"/>
	<path class="st0" d="M89.1,110.8c0.2,0.4,0,0.9-0.4,1.1c-0.4,0.2-0.8,0.1-1-0.3c-0.2-0.4-0.1-0.9,0.3-1.1
		C88.4,110.2,88.9,110.4,89.1,110.8z"/>
	<path class="st0" d="M93.2,107.8c0.4-0.2,0.8,0,1,0.4c0.2,0.4,0,0.8-0.4,1c-0.4,0.2-0.9,0-1-0.4C92.6,108.4,92.8,107.9,93.2,107.8z
		"/>
</g>
<path class="st1" d="M133.4,177.6c0-1.2-1.2-2.4-2.5-2.4c-1.2,0-2.3,1.1-2.3,2.4c0,1.3,1.1,2.2,2.6,2.1
	C132.5,179.7,133.5,178.7,133.4,177.6z"/>
<g>
	<path class="st4" d="M132.9,198.8c-0.1,1.3-0.1,2.5-0.2,3.6c-0.1,0.6,0.2,0.9,0.6,1.3c2,1.9,3.9,3.8,5.8,5.8
		c0.3,0.3,0.5,0.6,0.7,0.9c0.4,0.6,0.4,1.1,0,1.7c-0.4,0.5-1.1,0.7-1.8,0.4c-0.4-0.2-0.8-0.5-1.2-0.8c-1.3-1.1-2.6-2.3-4-3.4
		c-0.3,0.4-0.1,0.9-0.1,1.3c-0.1,0.9-0.1,1.7-0.2,2.6c-0.3,1.2-1.2,1.8-2.3,1.7c-1.1-0.1-1.9-0.8-2.1-1.9c-0.2-0.9-0.2-1.8-0.4-2.9
		c-0.6,0.7-1,1.3-1.5,1.8c-0.5,0.6-1.1,1.2-1.7,1.6c-0.7,0.5-1.4,0.4-1.9-0.1c-0.5-0.5-0.5-1.1,0-1.9c1.7-2.3,3.3-4.6,5-6.9
		c0.1-0.2,0.3-0.4,0.3-0.7c0-2,0-3.9,0-6.1c-0.4,0.3-0.6,0.5-0.8,0.6c-1.6,1.5-3.1,3-4.7,4.5c-0.4,0.3-0.8,0.7-1.3,0.9
		c-0.5,0.2-1.1,0.2-1.5-0.3c-0.4-0.4-0.4-1-0.1-1.4c0.3-0.5,0.6-1,1-1.4c2.3-2.4,4.6-4.8,7-7.2c0.4-0.4,0.5-0.7,0.5-1.2
		c-0.1-1.5-0.1-3-0.2-4.4c-1.6-0.9-3.1-1.8-4.8-2.7c-0.1,0-0.4,0.2-0.6,0.4c-1.9,1.5-3.8,3.1-5.7,4.6c-0.5,0.4-0.6,0.8-0.5,1.5
		c0.4,2.3,0.8,4.6,1.1,6.9c0.1,0.3,0.1,0.7,0,1c-0.1,0.8-0.6,1.3-1.3,1.5c-0.7,0.1-1.5-0.2-1.8-1c-0.1-0.3-0.2-0.6-0.3-0.9
		c-0.3-1.6-0.7-3.1-1-4.7c-0.1-0.2-0.1-0.5-0.2-0.8c-0.3,0.2-0.5,0.2-0.6,0.4c-1,0.9-2,1.7-3.1,2.6c-0.5,0.4-0.6,0.7-0.5,1.3
		c0.3,2.3,0.6,4.5,0.9,6.8c0.1,1-0.2,1.6-1,1.9c-0.8,0.3-1.6-0.1-1.9-1.1c-0.4-1.1-0.6-2.3-0.9-3.4c-0.2-0.7-0.3-1.3-0.5-2.2
		c-0.9,0.7-1.6,1.2-2.3,1.8c-0.8,0.7-1.6,0.8-2.5,0.6c-1.3-0.4-1.8-1.5-1-2.6c0.3-0.5,0.8-0.9,1.2-1.4c0.4-0.5,0.9-0.9,1.4-1.4
		c0.4-0.4,0.9-0.8,1.5-1.4c-0.8,0-1.2,0-1.7-0.1c-1.1-0.1-2.3,0-3.4-0.2c-0.7-0.1-1.3-0.3-2-0.6c-0.5-0.2-0.8-0.7-0.7-1.3
		c0.1-0.6,0.5-0.9,1.1-1c0.2,0,0.4-0.1,0.6-0.1c1.9,0,3.7-0.1,5.6-0.1c1.2,0,2.4,0.1,3.5,0.9c1.2-0.9,2.3-1.8,3.4-2.7
		c0-0.1,0-0.2-0.1-0.3c-1.4-0.2-2.9-0.3-4.3-0.5c-0.7-0.1-1.5-0.2-2.1-0.5c-0.9-0.3-1.4-1-1.3-1.7c0.1-0.8,0.9-1.3,1.9-1.2
		c2.9,0.3,5.8,0.6,8.6,0.9c0.6,0.1,1-0.1,1.5-0.5c2-1.9,4.1-3.8,6.2-5.7c0.6-0.5,0.6-1.9,0-2.4c-0.1-0.1-0.2-0.2-0.3-0.2
		c-2.8-2.4-5.6-4.8-8.5-7.3c-0.1-0.1-0.3-0.2-0.3-0.2c-2.5,1-4.9,1.9-7.3,2.9c-0.4,0.2-0.9,0.3-1.4,0.4c-0.8,0.1-1.4-0.4-1.6-1
		c-0.1-0.6,0.2-1.2,0.9-1.6c1.7-0.9,3.5-1.8,5.2-2.6c0.4-0.2,0.8-0.4,1.3-0.7c-0.6-0.6-1.2-1.2-1.8-1.8c-0.4-0.4-0.9-0.8-1.3-1.3
		c-0.6-0.8-1.2-0.7-2.1-0.5c-1.5,0.4-3.1,0.7-4.7,0.9c-1.3,0.2-1.9-0.2-2.1-1c-0.1-0.8,0.3-1.3,1.4-1.7c1-0.4,2.1-0.8,3.2-1.2
		c-0.8-0.7-1.6-1.2-2.3-1.9c-0.5-0.5-1-1-1.3-1.6c-0.5-0.7-0.4-1.5,0.2-2c0.5-0.5,1.3-0.7,2-0.3c1,0.5,1.9,1.2,2.9,1.8
		c0.4,0.2,0.7,0.4,1.2,0.8c-0.1-1.4-0.2-2.5-0.2-3.7c0-0.6,0-1.2,0.1-1.8c0.2-0.9,0.8-1.4,1.6-1.4c0.8,0,1.3,0.4,1.4,1.4
		c0.2,1.1,0.3,2.3,0.5,3.5c0.2,1.6,0.3,3.3,0.5,4.9c0,0.2,0.2,0.5,0.3,0.6c0.8,0.7,1.6,1.3,2.6,2.1c0.1-0.6,0.2-1.1,0.2-1.5
		c0.1-1.4,0.2-2.8,0.3-4.1c0-0.5,0.2-0.9,0.4-1.4c0.3-0.6,1-0.9,1.6-0.8c0.7,0.1,1.1,0.5,1.3,1.2c0.1,0.5,0.1,1.1,0.1,1.7
		c-0.1,2.3-0.1,4.6-0.3,6.9c0,0.6,0.1,1.1,0.7,1.4c2.6,1.9,5.1,3.8,7.6,5.7c1.7-1.2,3.3-2.4,5-3.7c-0.1-2.5-0.2-5.2-0.2-7.9
		c0-0.6-0.3-0.8-0.7-1.1c-1.6-1.3-3.3-2.6-4.9-3.9c-0.5-0.4-1-0.9-1.5-1.5c-0.4-0.5-0.5-1-0.1-1.6c0.3-0.5,0.9-0.7,1.5-0.6
		c0.6,0.2,1.1,0.4,1.6,0.7c1.3,0.8,2.5,1.7,3.7,2.7c0.4-0.5,0.2-1,0.2-1.5c0-1,0.2-2.1-0.1-3c-0.3-0.8-1.2-1.4-1.8-2.1
		c-0.7-0.7-1.4-1.5-2-2.2c-0.3-0.4-0.6-0.7-0.9-1.1c-0.4-0.7-0.4-1.3,0-1.8c0.4-0.5,1.2-0.7,1.8-0.4c0.5,0.2,0.9,0.5,1.3,0.9
		c0.5,0.4,1,0.9,1.7,1.7c0-0.7,0-1.1,0-1.6c0-1.1,0.4-1.7,1.2-1.9c0.9-0.2,2,0.3,2.3,1.2c0.2,0.6,0.3,1.3,0.4,1.9
		c0,0.2,0.1,0.3,0.1,0.6c0.3-0.3,0.6-0.4,0.9-0.7c0.8-0.8,1.6-1.6,2.4-2.3c0.4-0.3,1-0.6,1.5-0.7c0.9-0.1,1.5,0.7,1.2,1.5
		c-0.2,0.4-0.4,0.9-0.7,1.2c-1.5,1.7-2.7,3.6-4.5,5c-0.2,0.2-0.4,0.5-0.4,0.7c0.1,1.5,0.2,2.9,0.3,4.6c0.4-0.3,0.7-0.6,1-0.8
		c1.2-1.1,2.4-2.1,3.6-3.2c0.4-0.4,0.9-0.6,1.5-0.8c0.6-0.2,1.1,0,1.5,0.4c0.3,0.5,0.3,1,0,1.5c-0.2,0.3-0.4,0.7-0.7,0.9
		c-1.9,1.9-3.8,3.9-5.8,5.7c-0.5,0.5-0.8,0.9-0.7,1.7c0.2,2.5,0.4,5,0.6,7.5c2.3,0.7,4.2,1.9,5.7,3.9c3-2.5,5.8-4.9,8.6-7.2
		c-0.1-2.6-0.2-5.2-0.2-7.8c0-0.7,0.1-1.4,0.2-2.1c0.1-0.6,0.6-1.1,1.3-1.1c0.7,0,1.2,0.4,1.4,1c0.2,0.6,0.3,1.3,0.4,2
		c0.2,1.7,0.2,3.3,0.4,5.3c0.6-0.5,1.1-0.8,1.6-1.2c0.5-0.4,1-0.7,1.3-1c-0.1-1.9-0.1-3.7-0.2-5.5c0-0.3,0-0.6,0-0.9
		c0.1-0.9,0.6-1.4,1.4-1.5c0.8-0.1,1.4,0.3,1.7,1.1c0.2,0.4,0.2,0.8,0.3,1.3c0.1,0.9,0.2,1.9,0.3,3c0.5-0.3,0.9-0.6,1.2-0.9
		c0.8-0.5,1.5-1.1,2.3-1.5c0.4-0.2,1-0.4,1.5-0.3c1.2,0.1,1.8,1.4,1,2.4c-0.5,0.6-1.2,1.2-1.8,1.7c-0.3,0.3-0.7,0.6-1.2,1.1
		c1.5,0.6,2.8,1.1,4.2,1.5c0.2,0.1,0.5,0.1,0.7,0.2c0.5,0.3,0.8,0.7,0.8,1.4c0,0.6-0.6,1.2-1.3,1.3c-0.5,0.1-1,0-1.5-0.1
		c-2-0.5-3.9-1-6-1.5c-1.2,1.2-2.6,2.4-4,3.7c0.5,0.2,0.8,0.4,1.1,0.6c2,0.9,4,1.9,6,2.8c0.3,0.1,0.6,0.3,0.8,0.4
		c0.7,0.5,0.9,1.2,0.6,1.8c-0.2,0.6-0.9,1.1-1.7,1c-0.5,0-0.9-0.2-1.4-0.4c-2.7-1.2-5.5-2.4-8.3-3.6c-3.1,2.6-6.2,5.2-9.5,8
		c0,0.6,0.2,1.5,0.1,2.3c0,0.8-0.3,1.5-0.4,2.4c0.5,0.4,1,0.8,1.6,1.3c2.1,1.6,4.1,3.1,6.2,4.8c0.6,0.5,1.1,0.5,1.8,0.3
		c3.2-1.1,6.5-1.8,9.9-2.2c0.6-0.1,1.2-0.1,1.8,0c0.6,0,1,0.4,1.1,0.9c0.2,0.6,0,1.2-0.6,1.5c-0.6,0.3-1.2,0.6-1.8,0.7
		c-2.3,0.6-4.5,1.1-6.8,1.6c-0.3,0.1-0.7,0.2-1.2,0.3c1.6,1.2,3,2.2,4.4,3.2c0.2,0.2,0.7,0.1,1,0.1c2.6-0.3,5.1-0.7,7.7-1
		c0.3,0,0.7-0.1,1,0c0.8,0.1,1.3,0.6,1.4,1.3c0.1,0.6-0.3,1.2-0.9,1.5c-0.3,0.1-0.7,0.2-1,0.3c-1.6,0.3-3.2,0.6-4.8,0.9
		c0.6,0.7,1.2,1.4,1.7,2.1c0.6,0.9,0.6,1.6-0.1,2.5c-0.5,0.7-1.4,1-2.3,0.7c-0.7-0.3-1.4-0.7-2.1-1c-0.6-0.4-1.2-0.8-1.9-1.1
		c0,0-0.1,0-0.2,0c-0.2,1.3-0.3,2.6-0.5,3.9c-0.1,0.5-0.2,1-0.3,1.5c-0.3,0.8-0.9,1.2-1.6,1.1c-0.7-0.1-1.2-0.7-1.1-1.5
		c0-1.3,0.1-2.7,0.2-4c0-0.9,0-1.8,0.1-2.7c0-0.6-0.1-1-0.6-1.3c-0.8-0.5-1.5-1-2.4-1.6c-0.2,1.4-0.3,2.6-0.4,3.8
		c0,0.4-0.1,0.8-0.2,1.1c-0.2,0.6-0.6,0.9-1.2,1c-0.6,0-1.2-0.3-1.4-1c-0.1-0.5-0.2-1.1-0.2-1.7c0-1.6,0.1-3.3,0.2-4.9
		c0-0.5,0-1-0.5-1.4c-3-2.4-5.9-4.8-8.8-7.2c-1.4,0.6-2.8,1.2-4.2,1.9c0,0.2-0.1,0.5-0.1,0.7c0,1.3,0.1,2.7,0,4
		c-0.2,1.6,0.3,2.7,1.5,3.7c1.7,1.5,3.2,3.1,4.7,4.6c0.5,0.5,1,1,1.4,1.6c0.5,0.6,0.4,1.3,0,1.8c-0.4,0.5-1.2,0.7-1.8,0.3
		c-0.6-0.3-1.1-0.7-1.6-1.1C135.9,201.4,134.5,200.2,132.9,198.8z M131.2,173.4c-2.8,0-4.8,1.9-5,4.6c-0.1,2.1,1.4,3.8,3.5,3.8
		c2,0,3.7-0.6,5.2-1.9c0.6-0.5,0.8-1.2,0.9-1.9C136,175.7,133.6,173.2,131.2,173.4z"/>
	<path class="st4" d="M112.7,180.4c-1.3,0-2.4-1.1-2.5-2.3c0-1.2,1.1-2.4,2.4-2.4c1.3,0,2.6,1.2,2.6,2.4
		C115.3,179.4,114.1,180.4,112.7,180.4z"/>
	<path class="st4" d="M146.8,180.7c-1.3,0-2.4-1.1-2.4-2.3c0-1.3,1-2.3,2.2-2.3c1.4,0,2.7,1.2,2.6,2.5
		C149.2,179.7,148.2,180.7,146.8,180.7z"/>
	<path class="st4" d="M122.1,188.3c0.7,0,1.4,0.6,1.5,1.3c0,0.7-0.7,1.4-1.4,1.4c-0.8,0-1.4-0.6-1.5-1.3
		C120.6,188.9,121.3,188.3,122.1,188.3z"/>
	<path class="st4" d="M137.4,191.8c-0.7,0-1.4-0.5-1.4-1.2c0-0.7,0.6-1.3,1.3-1.3c0.7,0,1.4,0.6,1.4,1.2
		C138.7,191.2,138.1,191.8,137.4,191.8z"/>
	<path class="st4" d="M122.1,166c-0.7,0-1.2-0.4-1.1-1.1c0-0.8,0.6-1.4,1.3-1.4c0.7,0,1.3,0.7,1.3,1.3
		C123.5,165.5,122.9,166,122.1,166z"/>
	<path class="st4" d="M137.9,164c0,0.6-0.6,1.2-1.2,1.2c-0.7,0-1.2-0.5-1.2-1.1c0-0.7,0.5-1.3,1.2-1.3
		C137.2,162.8,137.9,163.4,137.9,164z"/>
	<path class="st4" d="M133.4,177.6c0,1.1-0.9,2.1-2.1,2.1c-1.5,0.1-2.5-0.8-2.6-2.1c0-1.2,1-2.3,2.3-2.4
		C132.2,175.2,133.4,176.3,133.4,177.6z"/>
</g>
</svg>
