<?xml version="1.0" encoding="utf-8"?>
<!-- Generator: Adobe Illustrator 22.0.0, SVG Export Plug-In . SVG Version: 6.00 Build 0)  -->
<svg version="1.1" id="Calque_1" xmlns="http://www.w3.org/2000/svg" xmlns:xlink="http://www.w3.org/1999/xlink" x="0px" y="0px"
	 viewBox="0 0 432 432" style="enable-background:new 0 0 432 432;" xml:space="preserve">
<style type="text/css">
	.st0{fill:#EFCB92;}
	.st1{fill:#C6E5E5;}
	.st2{fill:#1D1D1C;}
	.st3{fill:#221C1E;}
	.st4{fill:#BE1622;}
	.st5{fill:#BA874D;}
	.st6{fill:#A01A18;}
	.st7{fill:#F3EEEC;}
	.st8{fill:#8F1915;}
	.st9{fill:#7A170F;}
	.st10{fill:#F4DF87;}
	.st11{fill:#456829;}
	.st12{fill:#38491D;}
	.st13{fill:#E1C85C;}
	.st14{fill:#AB3117;}
	.st15{fill:#77160F;}
	.st16{fill:#734525;}
	.st17{fill:#F7F4E6;}
	.st18{fill:#472713;}
	.st19{fill:#FFFFFF;}
	.st20{fill:#371F11;}
	.st21{fill:#B0AEAE;}
	.st22{fill:#B3B2B2;}
	.st23{fill:#DCD9D8;}
	.st24{fill:#946859;}
	.st25{fill:#801E1E;}
	.st26{fill:#603A13;}
	.st27{fill:#CD904F;}
	.st28{fill:#663D11;}
	.st29{fill:#3B211E;}
	.st30{fill:#86563E;}
	.st31{fill:#66413A;}
	.st32{fill:none;}
	.st33{fill:#D1AF97;}
	.st34{fill:#A91917;}
	.st35{fill:#362E2E;}
	.st36{fill:#614444;}
	.st37{fill:#FEF8F8;}
	.st38{fill:#9E9994;}
	.st39{fill:#807D7A;}
	.st40{fill:#C57917;}
	.st41{fill:#985119;}
	.st42{fill:#6E3E13;}
	.st43{fill:#EC670B;}
	.st44{fill:#FAB40E;}
	.st45{fill:#FFD802;}
	.st46{fill:#595959;}
	.st47{fill:#1D1F1F;}
	.st48{fill:#9FC1BD;}
	.st49{fill:#558E8B;}
	.st50{fill:#AA794B;}
	.st51{fill:#CCCECE;}
	.st52{fill:#70A09D;}
	.st53{fill:#DDC915;}
	.st54{fill:#FBEA2E;}
	.st55{fill:#020203;}
	.st56{fill:#1A1A19;}
	.st57{fill:#E2B774;}
	.st58{fill:#CE9E5F;}
	.st59{fill:#E3DBD0;}
	.st60{fill:#F7F2EB;}
	.st61{fill:#FFFFFE;}
	.st62{fill:#F3BED1;}
	.st63{fill:#E2C39D;}
	.st64{fill:#946342;}
	.st65{fill:#D11320;}
	.st66{fill:#EDBFC8;}
	.st67{fill:#DEA9B6;}
	.st68{fill:#E6D7CA;}
	.st69{fill:#67462F;}
	.st70{fill:#E2BDA4;}
	.st71{fill:#040506;}
	.st72{fill:#735C4E;}
	.st73{fill:#F0DFD0;}
	.st74{fill:#20391D;}
	.st75{fill:#1F1E1C;}
	.st76{fill:#F09FB5;}
	.st77{fill:#18642D;}
	.st78{fill:#172318;}
	.st79{fill:#C01818;}
	.st80{fill:#171414;}
	.st81{fill:#D36A1A;}
	.st82{fill:#DFE5E4;}
	.st83{fill:#C51618;}
	.st84{fill:#95C11F;}
	.st85{fill:#BA1818;}
	.st86{fill:#FBF18E;}
	.st87{fill:#951B81;}
	.st88{fill:#E71D73;}
	.st89{fill:#6C1F60;}
	.st90{fill:#008D36;}
	.st91{fill:#006633;}
	.st92{fill:#432918;}
	.st93{fill:#F2F2F2;}
	.st94{fill:#1F1717;}
	.st95{fill:#FAD2D3;}
	.st96{fill:#161313;}
	.st97{fill:#FEF6F3;}
	.st98{fill:#E94E1B;}
	.st99{fill:#292928;}
	.st100{fill:#B8C997;}
	.st101{fill:#2BAB92;}
	.st102{fill:#9EB26D;}
	.st103{fill:#13836E;}
	.st104{fill:#31672C;}
	.st105{fill:#407D31;}
	.st106{fill:#FEF1E5;}
	.st107{fill:#523115;}
	.st108{fill:#D1B294;}
	.st109{fill:#734620;}
	.st110{fill:#5B3719;}
	.st111{fill:#94BFDA;}
	.st112{fill:#A7BCD3;}
	.st113{fill:#DADADA;}
	.st114{fill:#8C633A;}
	.st115{fill:#D6A14D;}
	.st116{fill:#E6CEBB;}
	.st117{fill:#A3282E;}
	.st118{fill:#754D24;}
	.st119{fill:#E7E6E6;}
	.st120{fill:#F39323;}
	.st121{fill:#544842;}
	.st122{fill:#D4175B;}
	.st123{fill:#8E3089;}
	.st124{fill:#066938;}
	.st125{fill:#28285B;}
	.st126{fill:#EFDFE8;}
	.st127{fill:#841A25;}
	.st128{fill:#634E42;}
	.st129{fill:#E30613;}
	.st130{fill:#CE953E;}
</style>
<path class="st111" d="M247.5,159.1c-2.8,0-5.6,0-8.4,0c9.1-15.7,2-14.2-5.2,0c-2,0-3.9,0-5.9,0c-0.9-0.5-39.1-8.9-29.7-48.9
	c0.7-1.2,2.6-4.4,3.8-6.5c15.7,1,19.5-3.9,2.5-4.4c1.4-2.4,2.8-4.8,4.2-7.2c7.9,2.6,13.8-5.9,10.1-12.2c-6.1-10.6-21.8,0.6-13.7,9.8
	c-1.4,2.4-2.8,4.8-4.2,7.3c-8.9-15.4-11.5-9.4-2.6,4.5c-1,1.7-2,3.4-2.9,5c-0.9,0.5-27.3,29.4-57.4,1.1c-0.4-0.7-3.3-5.8-3.6-6.3
	c8.7-13.1,6.5-18.9-2.5-4.4c-1.4-2.4-2.7-4.8-4.1-7.2c6.2-5.6,1.8-14.8-5.5-14.8c-12.2,0-10.4,19.2,1.7,16.8
	c1.4,2.4,2.8,4.9,4.2,7.3c-18.2,0-13.2,5.4,2.6,4.5c1,1.7,2,3.4,2.9,5.1c0.1,1.4,11.3,38.6-27.9,50.2c-2.8,0-4.8,0-7.2,0
	c-7-14.1-13.1-15-5.1,0c-2.8,0-5.5,0-8.3,0c-1.7-8.1-11.9-9-15.6-2.7c-6.1,10.6,11.4,18.6,15.4,7c2.8,0,5.6,0,8.4,0
	c-8.9,15.4-2.2,14.7,5.2,0c2,0,4,0,6,0c1.3,0.6,17.5,4,25.9,18.3c5.6,9.4,6,20.4,3.5,30.8c-0.5,0.9-3.2,5.6-3.6,6.3
	c-15.7-1-19.5,3.9-2.5,4.4c-1.4,2.4-2.8,4.8-4.2,7.2c-7.9-2.6-13.8,5.9-10.1,12.2c6.1,10.5,21.8-0.6,13.7-9.8
	c1.4-2.4,2.8-4.8,4.2-7.3c8.9,15.4,11.5,9.4,2.6-4.5c1-1.8,2-3.5,3.1-5.3c19.8-14.6,36.5-20.4,57.2-1c2,3.5,1,1.7,3.7,6.4
	c-8.7,13.1-6.5,18.9,2.5,4.4c1.4,2.4,2.7,4.8,4.1,7.2c-6.2,5.6-1.7,14.8,5.5,14.8c12.1,0,10.6-19.2-1.7-16.8
	c-1.4-2.4-2.8-4.9-4.2-7.3c18.1,0,13.4-5.4-2.6-4.5c-1-1.7-2-3.4-3-5.2c0-1-5.5-17,2.9-31.8c5.3-9.4,14.5-15.3,24.6-18.3
	c1.8,0,5.8,0,7.6,0c7,14.1,13.1,15,5.1,0c2.8,0,5.5,0,8.3,0c1.7,8.1,11.9,9,15.6,2.7C269,155.5,251.4,147.5,247.5,159.1z
	 M209.5,80.5c4.7-2.7,8.7,4.3,4.2,7.2C208.9,90.2,204.8,83.2,209.5,80.5z M118.2,83.4c0-5.4,8.1-5.4,8.4,0
	C126.2,88.8,118.2,88.8,118.2,83.4z M75,163.9c-4.7-2.7-0.6-9.7,4.2-7.2C83.6,159.6,79.7,166.6,75,163.9z M123.1,241.6
	c-4.7,2.7-8.7-4.3-4.2-7.2C123.7,231.9,127.8,238.9,123.1,241.6z M214.4,238.8c0,5.4-8.1,5.4-8.4,0
	C206.4,233.4,214.4,233.4,214.4,238.8z M216.1,159.1c-7.6,0-15.3,0-22.9-0.1c-4.6,0-9.2,0-13.7,0c-0.3-1.5-0.8-3-1.6-4.4
	c-0.8-1.4-1.9-2.7-3.2-3.7c6-10.4,12-20.7,18.1-31.1C192.1,137.5,200.7,151.3,216.1,159.1z M170.8,169.1c-0.6,0.3-1.3,0.6-1.9,0.8
	c-1.8,0.5-3.6,0.4-5.2-0.1c-1.4-0.5-2.6-1.3-3.6-2.3c-1.2-1.2-2-2.7-2.5-4.3c-0.4-1.4-0.5-2.9-0.2-4.3c0.4-1.6,1.2-3.1,2.6-4.3
	c0.5-0.4,1-0.8,1.7-1.2c0.7-0.4,1.4-0.7,2.1-0.9c1.8-0.5,3.4-0.5,4.9,0c1.4,0.5,2.6,1.3,3.6,2.3c1.1,1.1,1.9,2.6,2.3,4.1
	c0.4,1.4,0.5,2.9,0.2,4.3c-0.3,1.6-1.1,3.1-2.4,4.5C172.1,168.2,171.5,168.7,170.8,169.1z M189.5,116.8c-3.9,6.6-7.7,13.3-11.6,19.9
	c-2.3,4-4.7,8.1-7,12.1c-2.9-1.1-6.2-1.2-9.2-0.1c-6-10.4-12-20.9-18-31.3C158.8,126.9,175.1,126.3,189.5,116.8z M139.6,118.9
	c3.8,6.6,7.6,13.2,11.4,19.8c2.3,4,4.6,8.1,7,12.1c-2.5,2-4.2,4.9-4.7,8c-12,0-24-0.1-36-0.1C132.8,150.6,140.6,136.3,139.6,118.9z
	 M116.6,163.1c7.6,0,28.5,0.1,36.5,0.1c0.2,1.7,0.7,3.3,1.6,4.8c0.8,1.4,1.9,2.6,3,3.6c-6,10.3-12,20.6-17.9,30.9
	C140.5,184.5,131.7,170.8,116.6,163.1z M143.2,205.1c3.8-6.5,7.6-13,11.4-19.6c2.3-3.9,4.6-7.9,6.9-11.8c3,1.1,6.4,1.1,9.6,0
	c5.9,10.3,11.8,20.6,17.8,30.9C173.7,195.1,157.5,195.8,143.2,205.1z M198,179.6c-4.1,7.3-5.6,15.4-5.1,23.6
	c-3.8-6.6-7.6-13.2-11.4-19.8c-2.3-3.9-4.5-7.9-6.8-11.8c2.5-2.2,4.2-5.1,4.7-8.3c11.9,0,23.8,0.1,35.7,0.1
	C208.1,167.1,202,172.4,198,179.6z M253.5,165.5c-4.5-2.9-0.5-9.9,4.2-7.2C262.3,160.9,258.2,167.9,253.5,165.5z"/>
<path class="st5" d="M356.3,96.7c-2.2-6.6-9.7-5.6-10,0.4c0,0.5-0.2,0.7-0.7,0.9c-1.7,0.5-3.3,1.2-4.9,1.7c-0.2,0.1-0.4,0.2-0.7,0.1
	c0.1-0.4,0.3-0.7,0.4-1c0.3-0.7,0.6-1.5,0.8-2.2c0.3-1,0.6-2,0.6-3c0-0.6-0.3-1-0.7-1.1c-0.4-0.1-0.8,0.1-1.1,0.7
	c-0.3,0.7-0.6,1.3-0.9,2c-0.6,1.7-1.3,3.4-1.9,5.2c-0.1,0.2-0.1,0.5-0.4,0.6c-1,0.4-2,0.8-3.1,1.1c0.2-0.6,0.4-1,0.5-1.4
	c0.6-1.8,1.1-3.7,1.3-5.6c0.1-0.5,0.1-1.1-0.1-1.6c-0.1-0.3-0.3-0.6-0.6-0.6c-0.4-0.1-0.6,0.2-0.7,0.4c-0.1,0.1-0.1,0.3-0.2,0.4
	c-0.3,0.9-0.7,1.8-1,2.7c-0.6,2.1-1.3,4.2-1.9,6.3c-0.1,0.3-0.2,0.5-0.4,0.6c-1.5,0.5-3.1,1.1-4.6,1.7c-0.1-0.3,0-0.5,0.1-0.7
	c0.5-1.2,1-2.5,1.5-3.7c0.7-1.8,1.2-3.7,1.6-5.6c0.1-0.3,0.1-0.7-0.3-0.9c-0.4-0.2-0.7,0-1,0.3c-0.2,0.2-0.4,0.4-0.5,0.7
	c-0.3,0.5-0.5,0.9-0.7,1.4c-1.1,2.7-2.3,5.4-3.1,8.2c-0.1,0.3-0.2,0.5-0.3,0.8c-0.1,0.2-0.1,0.4-0.3,0.4c-1,0.3-1.9,0.6-2.9,1
	c0-0.5,0.2-0.9,0.3-1.3c0.7-2,1.2-4,1.5-6c0.1-0.4,0.1-0.8,0.1-1.2c-0.1-0.4-0.2-0.7-0.6-0.8c-0.4-0.1-0.7,0.1-0.9,0.4
	c-0.2,0.2-0.3,0.5-0.4,0.7c-0.2,0.5-0.4,1.1-0.6,1.7c-0.7,2.3-1.6,4.6-2.1,7c-0.1,0.4-0.3,0.6-0.6,0.7c-1,0.3-2,0.7-3,1
	c-0.6,0.2-1.3,0.4-1.9,0.7c0-0.2,0-0.4,0-0.6c-0.1-0.9,0-1.8,0-2.7c0-0.5,0.1-0.8,0.5-1.2c2.2-2.2,4.4-4.3,6.8-6.3
	c0.6-0.5,1-1,1.5-1.6c0.2-0.3,0.3-0.6,0-0.9c-0.3-0.3-0.6-0.3-0.9-0.1c-0.1,0-0.2,0.1-0.2,0.1c-0.7,0.4-1.3,0.8-1.9,1.4
	c-1.7,1.6-3.4,3.1-5,4.7c-0.2,0.2-0.3,0.5-0.8,0.5c0-1,0-1.9,0-2.8c0-0.5,0.1-0.9,0.5-1.3c2.2-2.2,4.4-4.4,6.8-6.5
	c0.4-0.4,0.8-0.8,1.1-1.3c0.2-0.2,0.2-0.5,0-0.7c-0.2-0.2-0.4-0.3-0.7-0.2c-0.2,0-0.3,0.1-0.5,0.2c-0.9,0.4-1.6,1-2.3,1.7
	c-1.5,1.4-2.9,2.9-4.4,4.3c-0.1,0.1-0.2,0.4-0.6,0.3c-0.1-1.7-0.1-3.3-0.2-5c0-0.3,0-0.6,0.3-0.8c2.3-2.1,4.4-4.4,6.8-6.5
	c0.5-0.5,0.9-1,1.4-1.6c0.2-0.2,0.3-0.5,0.3-0.8c0-0.3-0.1-0.6-0.3-0.7c-0.2-0.1-0.5-0.1-0.7,0.1c-0.7,0.9-1.7,1.4-2.6,2.2
	c-1.5,1.4-3,2.8-4.5,4.3c-0.2,0.2-0.4,0.5-0.8,0.6c0-0.3-0.1-0.6-0.1-0.9c0-0.8,0-1.5-0.1-2.3c0-0.4,0.1-0.7,0.4-1.1
	c1.4-1.6,3-3,4.6-4.4c0.6-0.6,1.2-1.2,1.7-1.9c0.3-0.4,0.3-0.8,0.1-1.1c-0.3-0.3-0.7-0.2-1,0c-0.8,0.5-1.5,0.9-2.2,1.6
	c-1,1-2,1.9-3,2.8c-0.2,0.1-0.3,0.3-0.5,0.4c-0.2-0.2-0.1-0.4-0.1-0.5c-0.1-1.9-0.2-3.9-0.4-5.8c0-0.6-0.1-0.6,0.5-0.8
	c1.7-0.4,2.7-1.5,3.1-3.1c1-3.3-1.3-6.9-4.3-6.9c-7,0-8.3,7.5-2.7,9.6c0.5,0.2,0.6,0.4,0.6,0.9c0,1.7,0.1,3.5,0.1,5.2
	c0,0.2,0.1,0.4-0.1,0.7c-0.3-0.2-0.6-0.5-0.8-0.7c-0.6-0.5-1.2-1-1.9-1.5c-0.8-0.6-1.7-1.1-2.7-1.4c-0.5-0.2-1,0-1.2,0.3
	c-0.2,0.3-0.1,0.8,0.3,1.2c0.5,0.5,1.1,1,1.6,1.4c1.4,1.1,2.9,2.3,4.3,3.4c0.2,0.2,0.5,0.3,0.5,0.6c0,1.1,0.1,2.1,0.1,3.3
	c-0.5-0.4-0.8-0.7-1.2-0.9c-1.5-1.2-3.2-2.2-4.9-3c-0.5-0.2-1-0.4-1.5-0.4c-0.3,0-0.6,0.1-0.8,0.4c-0.2,0.3,0,0.6,0.2,0.8
	c0.1,0.1,0.2,0.2,0.3,0.3c0.8,0.6,1.5,1.2,2.3,1.8c1.8,1.3,3.6,2.5,5.4,3.7c0.2,0.2,0.4,0.3,0.4,0.6c0,1.6,0.1,3.3,0.1,4.9
	c-0.3,0-0.5-0.2-0.6-0.3c-1-0.8-2-1.7-3.1-2.5c-1.5-1.3-3.1-2.3-4.8-3.2c-0.3-0.2-0.6-0.3-0.9,0c-0.3,0.3-0.2,0.7,0,1
	c0.1,0.2,0.3,0.5,0.5,0.7c0.4,0.4,0.7,0.8,1.2,1.1c2.2,1.9,4.4,3.8,6.9,5.5c0.2,0.2,0.5,0.3,0.7,0.5c0.2,0.1,0.3,0.2,0.3,0.5
	c0,1,0,2,0,3.1c-0.5-0.2-0.8-0.5-1.1-0.7c-1.7-1.3-3.4-2.4-5.3-3.3c-0.3-0.2-0.7-0.4-1.1-0.4c-0.4-0.1-0.7,0-0.9,0.3
	c-0.2,0.3-0.2,0.7,0.1,0.9c0.2,0.2,0.4,0.4,0.6,0.6c0.5,0.4,0.9,0.8,1.4,1.1c2,1.4,3.9,2.9,6,4.2c0.3,0.2,0.5,0.4,0.4,0.8
	c0,1.1,0.1,2.1,0,3.2c0,0.4,0,0.7,0,1.1c-0.5-0.2-1-0.5-1.6-0.6c-0.9-0.2-1.7-0.6-2.6-0.8c-0.5-0.1-0.7-0.4-1-0.8
	c-1.4-2.8-2.8-5.5-3.9-8.4c-0.3-0.7-0.7-1.3-1.1-1.9c-0.2-0.3-0.5-0.5-0.9-0.3c-0.4,0.2-0.4,0.5-0.4,0.8c0,0.1,0,0.2,0,0.2
	c0.2,0.8,0.4,1.5,0.7,2.2c0.9,2.1,1.9,4.2,3,6.3c0.1,0.2,0.3,0.5,0.2,0.9c-0.9-0.3-1.8-0.6-2.7-0.9c-0.5-0.1-0.8-0.4-1-0.9
	c-1.4-2.8-2.9-5.6-4.1-8.4c-0.2-0.5-0.5-1-0.9-1.4c-0.2-0.2-0.4-0.3-0.7-0.2c-0.3,0.1-0.4,0.3-0.4,0.6c0,0.2,0,0.3,0,0.5
	c0.1,1,0.5,1.9,0.8,2.7c0.8,1.9,1.9,3.7,2.8,5.5c0.1,0.2,0.3,0.4,0.1,0.6c-1.6-0.5-3.2-0.9-4.8-1.4c-0.3-0.1-0.5-0.2-0.7-0.5
	c-1.3-2.8-2.9-5.6-4.1-8.5c-0.3-0.7-0.7-1.2-1.1-1.8c-0.2-0.2-0.4-0.4-0.6-0.6c-0.3-0.1-0.6-0.1-0.8,0.1c-0.2,0.2-0.3,0.4-0.1,0.7
	c0.6,1,0.8,2.1,1.3,3.1c0.9,1.9,1.8,3.7,2.7,5.6c0.1,0.3,0.3,0.5,0.3,0.9c-0.3-0.1-0.6-0.1-0.8-0.2c-0.7-0.2-1.5-0.5-2.2-0.6
	c-0.4-0.1-0.7-0.3-0.9-0.7c-1.1-1.8-1.9-3.8-2.8-5.7c-0.3-0.8-0.8-1.5-1.3-2.2c-0.3-0.4-0.7-0.6-1-0.4c-0.4,0.2-0.4,0.6-0.3,1
	c0.2,0.9,0.4,1.7,0.8,2.6c0.6,1.2,1.2,2.5,1.8,3.7c0.1,0.2,0.2,0.4,0.2,0.6c-0.2,0.1-0.4,0-0.5,0c-1.9-0.5-3.8-1-5.6-1.4
	c-0.6-0.1-0.6-0.1-0.6-0.7c0.1-1.7-0.6-3-2-3.9c-2.8-1.9-7-0.9-7.9,1.9c-2.2,6.6,4.5,10.2,8.3,5.5c0.3-0.4,0.6-0.5,1.1-0.3
	c1.7,0.5,3.3,1,5,1.5c0.2,0.1,0.4,0.1,0.6,0.3c-0.3,0.2-0.6,0.4-0.9,0.6c-0.7,0.4-1.3,0.8-2,1.3c-0.8,0.6-1.6,1.3-2.2,2.1
	c-0.3,0.5-0.4,0.9-0.1,1.3c0.3,0.3,0.7,0.4,1.2,0.1c0.6-0.3,1.3-0.7,1.9-1.1c1.5-1,3-2,4.6-3.1c0.2-0.1,0.4-0.4,0.7-0.3
	c1,0.3,2,0.5,3.2,1c-0.5,0.3-0.9,0.6-1.3,0.9c-1.6,1.1-3,2.3-4.3,3.7c-0.4,0.4-0.7,0.8-0.9,1.3c-0.1,0.3-0.1,0.6,0.1,0.9
	c0.3,0.3,0.6,0.2,0.9,0.1c0.1-0.1,0.3-0.1,0.4-0.2c0.8-0.5,1.6-1,2.4-1.6c1.8-1.3,3.5-2.7,5.2-4c0.2-0.2,0.4-0.3,0.7-0.2
	c1.6,0.5,3.1,0.9,4.7,1.4c-0.1,0.3-0.3,0.4-0.5,0.5c-1.1,0.7-2.2,1.4-3.4,2.1c-1.7,1-3.2,2.3-4.6,3.6c-0.2,0.2-0.5,0.5-0.3,0.9
	c0.2,0.4,0.6,0.4,1,0.3c0.3-0.1,0.5-0.1,0.8-0.3c0.5-0.2,1-0.5,1.4-0.8c2.5-1.6,5-3,7.3-4.8c0.2-0.2,0.5-0.3,0.7-0.5
	c0.2-0.1,0.3-0.2,0.5-0.2c1,0.3,1.9,0.6,2.9,1c-0.3,0.4-0.7,0.6-1,0.8c-1.7,1.2-3.3,2.5-4.8,4c-0.3,0.3-0.6,0.5-0.7,0.9
	c-0.2,0.3-0.2,0.7,0,1c0.2,0.3,0.6,0.4,0.9,0.2c0.3-0.1,0.5-0.2,0.8-0.3c0.5-0.3,1-0.6,1.5-1c2-1.5,4-2.8,5.9-4.4
	c0.3-0.3,0.6-0.3,0.9-0.2c1,0.3,2.1,0.6,3.1,1c0.6,0.2,1.3,0.4,1.9,0.5c-0.3,0.4-0.7,0.8-1,1.2c-0.5,0.8-1.1,1.5-1.6,2.2
	c-0.3,0.4-0.6,0.6-1.1,0.7c-3.1,0.5-6.1,0.9-9.2,1.1c-0.7,0-1.4,0.2-2.1,0.5c-0.3,0.1-0.6,0.3-0.6,0.7c0,0.4,0.3,0.6,0.7,0.6
	c0.1,0,0.2,0,0.3,0c0.8,0,1.6,0.1,2.4,0c2.3-0.3,4.6-0.5,6.9-0.9c0.3,0,0.5-0.2,0.9,0.1c-0.6,0.8-1.1,1.5-1.6,2.3
	c-0.3,0.4-0.6,0.6-1.1,0.7c-3.1,0.5-6.2,1-9.3,1.3c-0.6,0-1.1,0.2-1.6,0.4c-0.3,0.1-0.4,0.3-0.4,0.6c0,0.3,0.2,0.5,0.4,0.6
	c0.2,0.1,0.3,0.1,0.5,0.1c1,0.2,1.9,0.1,2.9,0c2-0.2,4.1-0.7,6.1-0.9c0.2,0,0.4-0.2,0.6,0.1c-0.9,1.4-1.9,2.8-2.8,4.1
	c-0.2,0.3-0.4,0.5-0.7,0.5c-3.1,0.4-6.2,1-9.3,1.3c-0.7,0.1-1.4,0.3-2,0.5c-0.3,0.1-0.5,0.2-0.7,0.4c-0.2,0.2-0.3,0.5-0.2,0.8
	c0.1,0.3,0.3,0.4,0.6,0.3c1.1-0.3,2.2-0.1,3.4-0.2c2-0.2,4.1-0.6,6.1-0.8c0.3,0,0.6-0.1,1,0c-0.2,0.3-0.3,0.5-0.4,0.7
	c-0.4,0.6-0.9,1.2-1.3,1.9c-0.2,0.4-0.5,0.5-0.9,0.6c-2.1,0.4-4.2,0.7-6.3,0.9c-0.8,0.1-1.7,0.3-2.5,0.6c-0.5,0.2-0.8,0.5-0.7,0.8
	c0.1,0.4,0.4,0.6,0.8,0.6c0.9,0.1,1.8,0.1,2.7,0c1.4-0.2,2.7-0.4,4.1-0.5c0.2,0,0.4-0.1,0.6,0c0,0.2-0.1,0.3-0.2,0.5
	c-1,1.6-2.1,3.3-3.1,4.9c-0.3,0.5-0.3,0.5-0.9,0.3c-1.6-0.6-3.1-0.3-4.4,0.7c-2.7,2.1-3,6.3-0.6,8.1c5.6,4.1,11.1-1.1,7.8-6.2
	c-0.3-0.4-0.3-0.7,0-1.1c1-1.4,2-2.9,3-4.3c0.1-0.2,0.2-0.4,0.5-0.5c0.1,0.4,0.2,0.7,0.3,1c0.2,0.8,0.4,1.5,0.6,2.3
	c0.3,1,0.7,1.9,1.3,2.7c0.3,0.5,0.8,0.6,1.2,0.5c0.4-0.1,0.6-0.5,0.5-1.1c-0.1-0.7-0.3-1.4-0.5-2.1c-0.5-1.8-1-3.5-1.5-5.3
	c-0.1-0.2-0.2-0.5-0.1-0.7c0.6-0.9,1.1-1.8,1.9-2.7c0.2,0.6,0.3,1,0.4,1.5c0.5,1.8,1.3,3.6,2.2,5.3c0.3,0.5,0.6,0.9,1,1.2
	c0.2,0.2,0.5,0.3,0.9,0.1c0.3-0.2,0.4-0.5,0.3-0.8c0-0.1,0-0.3-0.1-0.4c-0.3-0.9-0.5-1.9-0.8-2.8c-0.7-2.1-1.5-4.1-2.2-6.2
	c-0.1-0.3-0.1-0.5,0-0.7c0.9-1.3,1.8-2.7,2.8-4.1c0.3,0.2,0.3,0.4,0.3,0.6c0.3,1.3,0.7,2.6,1,3.8c0.5,1.9,1.2,3.7,2,5.5
	c0.1,0.3,0.3,0.6,0.7,0.6c0.4-0.1,0.6-0.4,0.6-0.8c0-0.3,0-0.6,0-0.8c-0.1-0.5-0.1-1.1-0.3-1.6c-0.7-2.8-1.3-5.7-2.3-8.5
	c-0.1-0.3-0.2-0.5-0.3-0.8c-0.1-0.2-0.1-0.4,0-0.6c0.6-0.8,1.2-1.6,1.8-2.5c0.3,0.4,0.4,0.8,0.5,1.2c0.6,2,1.4,3.9,2.3,5.8
	c0.2,0.3,0.3,0.7,0.6,1c0.3,0.3,0.6,0.4,0.9,0.3c0.4-0.1,0.5-0.4,0.5-0.8c0-0.3,0-0.6-0.1-0.8c-0.1-0.6-0.3-1.1-0.5-1.7
	c-0.8-2.3-1.5-4.7-2.4-6.9c-0.1-0.4-0.1-0.6,0.1-0.9c0.6-0.9,1.2-1.8,1.9-2.6c0.4-0.5,0.8-1.1,1.1-1.7c0,0,0,0,0.1,0
	c0.3,0.5,0.6,1,1,1.5c0.6,0.7,1,1.5,1.6,2.2c0.3,0.4,0.4,0.7,0.3,1.2c-0.5,3.1-1,6.1-1.8,9.1c-0.2,0.7-0.2,1.4-0.2,2.2
	c0,0.4,0.1,0.7,0.5,0.8c0.4,0.1,0.6-0.1,0.8-0.4c0-0.1,0.1-0.2,0.1-0.2c0.3-0.7,0.6-1.5,0.7-2.2c0.5-2.3,0.9-4.5,1.3-6.8
	c0-0.3,0-0.6,0.4-0.8c0.6,0.8,1.1,1.5,1.7,2.3c0.3,0.4,0.4,0.8,0.3,1.3c-0.5,3.1-0.9,6.2-1.7,9.2c-0.1,0.6-0.2,1.1-0.1,1.7
	c0,0.3,0.2,0.5,0.4,0.6c0.3,0.1,0.5,0,0.7-0.3c0.1-0.1,0.2-0.3,0.3-0.4c0.5-0.8,0.7-1.8,0.9-2.7c0.4-2,0.6-4.1,1-6.1
	c0-0.2,0-0.5,0.3-0.6c1,1.3,2,2.6,3.1,3.9c0.2,0.2,0.3,0.5,0.3,0.8c-0.6,3.1-1,6.2-1.7,9.2c-0.2,0.7-0.1,1.4-0.1,2.1
	c0,0.3,0,0.6,0.2,0.8c0.2,0.3,0.4,0.4,0.7,0.4c0.3,0,0.5-0.2,0.5-0.5c0.1-1.1,0.6-2.2,0.8-3.3c0.4-2,0.7-4,1.1-6.1
	c0.1-0.3,0-0.6,0.3-0.9c0.2,0.2,0.4,0.4,0.6,0.7c0.5,0.6,0.9,1.2,1.4,1.8c0.3,0.3,0.3,0.7,0.3,1.1c-0.2,2.1-0.7,4.2-1.1,6.2
	c-0.2,0.8-0.2,1.7-0.2,2.5c0,0.5,0.2,0.9,0.6,0.9c0.4,0.1,0.7-0.2,0.8-0.6c0.3-0.8,0.7-1.7,0.8-2.6c0.2-1.4,0.5-2.7,0.8-4.1
	c0-0.2,0-0.4,0.2-0.6c0.2,0,0.3,0.2,0.4,0.3c1.2,1.5,2.5,3,3.7,4.5c0.4,0.5,0.4,0.5,0,0.9c-1.1,1.3-1.2,2.8-0.7,4.4
	c1.2,3.2,5.1,4.8,7.5,3.1c5.6-4.1,2.3-10.9-3.5-9.4c-0.5,0.1-0.8,0.1-1.1-0.4c-1-1.4-2.1-2.8-3.2-4.2c-0.1-0.2-0.3-0.3-0.3-0.6
	c0.4,0,0.7,0,1,0.1c0.8,0,1.6,0.1,2.4,0.1c1,0,2-0.1,3-0.4c0.5-0.2,0.8-0.6,0.8-1c0-0.4-0.3-0.7-0.9-0.8c-0.7-0.1-1.5-0.2-2.2-0.2
	c-1.8-0.1-3.7-0.1-5.5-0.2c-0.2,0-0.5,0.1-0.7-0.2c-0.7-0.8-1.4-1.6-2-2.6c0.6,0,1.1,0,1.5,0c1.9,0.1,3.8-0.1,5.7-0.5
	c0.5-0.1,1-0.3,1.5-0.6c0.3-0.2,0.4-0.4,0.4-0.8c-0.1-0.4-0.3-0.5-0.7-0.6c-0.1,0-0.3,0-0.4,0c-1,0-1.9-0.1-2.9-0.1
	c-2.2,0-4.4,0.1-6.6,0.2c-0.3,0-0.5,0-0.7-0.2c-1-1.3-2-2.6-3-3.9c0.3-0.2,0.5-0.1,0.7-0.1c1.3,0.1,2.6,0.2,4,0.3
	c1.9,0.1,3.9,0,5.8-0.2c0.3,0,0.7-0.1,0.8-0.5c0.1-0.4-0.2-0.7-0.6-0.8c-0.3-0.1-0.5-0.2-0.8-0.3c-0.5-0.1-1.1-0.2-1.6-0.2
	c-2.9-0.2-5.8-0.5-8.8-0.4c-0.3,0-0.6,0-0.8,0c-0.2,0-0.4,0-0.5-0.2c-0.6-0.8-1.2-1.6-1.8-2.5c0.5-0.1,0.9-0.1,1.3-0.1
	c2.1,0.1,4.2-0.1,6.2-0.4c0.4-0.1,0.8-0.1,1.1-0.3c0.3-0.2,0.6-0.4,0.5-0.8c0-0.4-0.3-0.6-0.6-0.7c-0.3-0.1-0.5-0.2-0.8-0.2
	c-0.6,0-1.2-0.1-1.8-0.1c-2.4,0-4.9-0.1-7.3,0.1c-0.4,0-0.6-0.1-0.8-0.4c-0.6-0.9-1.3-1.7-1.9-2.6c-0.4-0.6-0.8-1.1-1.3-1.6
	c0.6-0.1,1.1-0.2,1.7-0.5c0.8-0.3,1.7-0.5,2.6-0.9c0.5-0.2,0.8-0.1,1.3,0.1c2.8,1.4,5.5,2.9,8.1,4.5c0.6,0.4,1.3,0.7,2,0.9
	c0.3,0.1,0.7,0.1,0.9-0.3c0.2-0.3,0.1-0.7-0.2-0.9c-0.1-0.1-0.1-0.1-0.2-0.2c-0.6-0.5-1.2-1-1.9-1.4c-2-1.1-4-2.3-6.1-3.3
	c-0.2-0.1-0.5-0.2-0.7-0.6c0.9-0.3,1.8-0.6,2.7-0.9c0.5-0.2,0.9-0.2,1.4,0.1c2.8,1.4,5.6,2.8,8.3,4.4c0.5,0.3,1,0.5,1.6,0.6
	c0.3,0.1,0.5,0,0.7-0.2c0.2-0.2,0.1-0.5,0-0.7c-0.1-0.1-0.2-0.3-0.3-0.4c-0.7-0.7-1.5-1.2-2.3-1.7c-1.8-1-3.7-1.8-5.5-2.8
	c-0.2-0.1-0.4-0.1-0.5-0.4c1.6-0.6,3.1-1.1,4.7-1.7c0.3-0.1,0.6-0.2,0.9,0c2.7,1.5,5.6,2.8,8.3,4.4c0.6,0.4,1.3,0.6,2,0.8
	c0.3,0.1,0.5,0.1,0.8,0.1c0.3-0.1,0.5-0.2,0.6-0.5c0.1-0.3,0-0.5-0.3-0.6c-1.1-0.4-1.9-1.2-2.9-1.8c-1.8-1-3.6-1.9-5.4-2.9
	c-0.3-0.1-0.6-0.2-0.8-0.6c0.3-0.1,0.5-0.2,0.8-0.3c0.7-0.3,1.4-0.5,2.1-0.8c0.4-0.2,0.7-0.1,1.1,0c1.9,0.9,3.8,1.9,5.6,3
	c0.7,0.4,1.5,0.7,2.3,1c0.5,0.2,0.9,0.1,1-0.3c0.2-0.4,0-0.7-0.3-1c-0.7-0.6-1.4-1.2-2.2-1.6c-1.2-0.6-2.4-1.3-3.6-2
	c-0.2-0.1-0.4-0.2-0.5-0.3c0.1-0.2,0.3-0.2,0.4-0.3c1.8-0.7,3.6-1.4,5.4-2.2c0.6-0.2,0.6-0.3,0.9,0.3c0.9,1.4,2.3,2,3.9,2
	C354.5,102.8,357.2,99.5,356.3,96.7z"/>
<path class="st112" d="M322.2,246.3c-0.8,1.2,0,2.3,0,3.3c0,0.9,0.1,1.9-1,2.2c-1.1,0.3-2-0.3-2.4-1.3c-0.3-0.8-0.5-1.7-0.7-2.6
	c-0.2-0.7,0-1.6-1.1-2c-0.8,1.3-1.6,2.7-2.3,4c-0.7,1.4-1.8,1.6-3.3,1.3c-1.6-0.3-2.1-1.4-2.2-2.7c-0.1-1,0.1-2,0.7-2.8
	c1.7-2.7,3.1-5.5,5.2-7.9c0.3-0.4,0.6-0.8,0.8-1.2c0.2-0.4,0.3-1-0.1-1.4c-0.4-0.5-0.9-0.2-1.3,0c-1.2,0.6-2,1.6-2.9,2.5
	c-3.8,3.8-7.3,4.5-12.3,2.4c-0.2-0.1-0.4,0-0.7,0c-0.7,1.4-1,2.9-1.3,4.4c-0.2,1.1-0.6,2.2-2,2.2c-1.3,0-2.2-0.7-2.7-1.9
	c-0.5-1.1-0.6-2.3-0.6-3.5c0-0.9,0.4-1.7,0-2.7c-1.2,0-1.5,1.1-2.1,1.8c-0.8,0.8-1.6,1.7-2.8,0.8c-1-0.8-0.9-1.8-0.4-2.9
	c0.6-1.2,1.9-2,2-3.8c-1.4,0.4-2.7,0.7-4,1c-2.3,0.5-3.7-0.2-4.3-2c-0.5-1.6,0.6-3.5,2.7-4c3.1-0.9,6.2-2.1,9.5-2.1
	c0.8,0,1.6-0.1,2.3-0.6c0.3-0.2,0.6-0.6,0.6-0.9c0.1-0.4-0.4-0.6-0.8-0.7c-1.8-0.5-3.7-0.5-5.6-0.5c-1.9,0-3.8-0.1-5.2-1.6
	c-0.8-0.8-1.8-1.5-1.2-2.8c0.5-1.1,1.6-1.1,2.6-1.1c3.4-0.1,6.7,0.6,10,0.8c0.9,0.1,1.8,0.2,2.6,0.3c1.5,0.1,2.6-0.3,3.6-1.6
	c2.3-3,4.6-5.9,6.9-8.9c0.3-0.4,0.6-0.9,0.3-1.3c-0.2-0.3-0.7-0.3-1.1-0.3c-2.8,0.1-5.3,0.7-6.6,3.5c-0.2,0.4-0.6,0.8-0.9,1.2
	c-2.2,2.8-4,2.8-6-0.2c-0.2-0.3-0.3-0.7-0.3-0.6c-1.4,1.1-2.8,2.2-4.3,3.4c-1.6,1.2-2.5,1.3-3.7,0.2c-1.4-1.3-1.5-2.1-0.3-3.6
	c0.9-1,1.9-2,3-3.2c-1.8-0.8-3-0.3-4.1,0.8c-2.3,2.2-4.1,4.8-6.2,7.2c-0.7,0.8-1.4,1.7-2.3,2.3c-1.6,1.2-3.1,0.5-3.4-1.5
	c-0.2-1.2,0.2-2.2,1-3c0.9-1,1.9-2,2.9-3c0.8-0.8,1.6-1.7,2.3-2.5c-0.5-1-1.3-0.7-2-0.7c-0.9-0.1-1.8-0.2-2.6-0.7
	c-1-0.6-1.9-1.3-1.6-2.6c0.3-1.3,1.3-1.6,2.5-1.7c1.2,0,2.4,0,3.5-0.1c1-0.1,1.1-0.8,0.5-1.5c-1.1-1.3-2.5-2.3-4-3
	c-1.2-0.6-2.2-1.4-3-2.4c-0.5-0.6-0.8-1.4-0.8-2.2c0-0.8,0.1-1.6,0.9-2.1c0.7-0.4,1.3-0.1,1.9,0.3c2,1.4,4,2.8,6,4.3
	c1.8,1.3,3.8,2.5,5.2,4.4c0.2,0.3,0.6,0.5,0.9,0.7c0.5,0.2,1,0.3,1.4-0.1c0.5-0.4,0.3-0.9,0-1.3c-0.4-0.6-0.9-1.1-1.3-1.6
	c-0.6-0.8-1.3-1.5-1.8-2.3c-0.8-1.4-0.4-3,0.8-3.7c1.3-0.8,2.2-0.2,3.1,0.8c1.9,1.9,3.7,3.8,5.6,5.7c0.4,0.4,0.7,1,1.4,1
	c0.1-0.9-0.6-1.4-0.7-2.2c-0.2-1.1-0.1-2,0.9-2.6c0.9-0.6,1.9-0.4,2.8,0.2c0.6,0.4,1,0.9,1.5,1.4c0.7,0.8,1.5,1.6,2.1,2.5
	c1.6,2.1,3.5,2.3,6,1.1c-1.1-1.9-2.3-3.7-3.7-5.3c-1-1.2-2.1-2.4-3-3.7c-0.9-1.3-1.9-1.8-3.5-1.6c-3.8,0.4-7.7,0.7-11.5,1
	c-0.9,0.1-1.8,0.1-2.7-0.1c-1.3-0.3-1.7-1.3-1-2.5c0.6-1.1,1.6-1.7,2.8-2.1c1.5-0.5,3.1-0.7,4.7-0.7c1.8,0,3.6,0.1,5.3-0.9
	c-0.4-1.4-1.4-1.9-2.7-1.8c-3.2,0.1-6.2-1.2-9.3-1.9c-1.1-0.3-2-0.8-2.7-1.7c-0.7-1.1-0.9-2.2-0.1-3.3c0.7-1.1,1.6-1.7,3-1.4
	c1.5,0.4,3,0.8,4.6,1.2c0.6-1-0.3-1.5-0.6-2.1c-0.4-0.8-0.9-1.5-1.3-2.3c-0.4-0.9,0-1.8,0.8-2.3c0.9-0.7,1.7-0.2,2.4,0.5
	c0.8,0.7,1,2,2.4,2.2c0.4-1.2-0.1-2.2,0-3.3c0.1-1.5,0.3-3,1.5-4.1c1.6-1.5,3.3-1,3.7,1.1c0.4,1.6,0.7,3.3,1.7,4.9
	c1.2-0.6,2.6-0.8,3.9-1c3.7-0.6,6.5,0.9,9,3.4c0.9,0.9,1.9,1.7,2.9,2.5c0.4,0.3,0.8,0.7,1.3,0.3c0.4-0.4,0.3-0.9,0.2-1.4
	c-0.2-0.7-0.6-1.2-1.1-1.7c-2.2-2.3-3.6-5.2-5.2-7.9c-0.6-1-0.7-2-0.6-3.1c0.2-1.2,0.8-2,2-2.3c1.3-0.3,2.3-0.2,3.1,1
	c1,1.4,1.8,2.8,2.4,4.2c1,0,1-0.7,1.2-1.3c0.2-0.8,0.3-1.6,0.5-2.3c0.3-1.3,1-2.3,2.5-2c1.5,0.3,1.3,1.5,1.2,2.6
	c-0.1,0.8-0.6,1.7,0.1,2.7c1.2-0.2,1.6-1.4,2.3-2.1c1.2-1.2,2.5-2.2,4.4-2.1c1.9,0.2,2.7,1.5,1.6,3.1c-0.9,1.4-1.5,3-2.4,4.6
	c0.8,0.9,2.3,1,3,2.2c0.3,0.6,1,0.7,1.6,0.4c1.5-0.9,2.8-0.3,4.4,0.7c0.5-1.9,0.9-3.6,1.4-5.3c0.7-2.2,2-2.5,3.7-1
	c1,0.9,1.2,2.2,1.3,3.5c0.1,1.1-0.3,2.3,0.3,3.4c1.3,0,1.4-1.1,2-1.7c0.8-0.7,1.6-1.3,2.6-0.6c0.9,0.7,1,1.7,0.5,2.7
	c-0.5,1-1.1,1.9-1.7,2.8c-0.2,0.3-0.5,0.7-0.2,1.3c1.3,0.1,2.5-0.8,3.9-1c2.3-0.4,4,0.4,4.5,2.2c0.4,1.4-0.9,3.5-2.9,3.9
	c-3.2,0.7-6.2,2.1-9.5,2c-1.2,0-2.3,0.3-3.1,1.8c1.4,0.9,2.9,1,4.5,1c1.8,0,3.5,0.1,5.3,0.5c1.2,0.3,2.1,1,2.9,1.9
	c1.2,1.5,0.8,2.7-1.1,2.9c-2.2,0.2-4.3,0.1-6.5-0.2c-2.5-0.3-4.9-0.4-7.4-0.7c-1.1-0.1-2,0-2.7,0.9c-2.9,3.6-5.8,7.1-8.8,11
	c1.6,0.4,2.1-0.4,2.6-1.2c1.8-3.1,5-4.7,7.5-7.1c0.6-0.5,1.5-0.9,2.2-0.2c0.9,0.9,1.2,2.1,0.6,3.3c-0.6,1-1.4,1.9-2.1,2.9
	c-0.3,0.5-1.1,1.2-0.3,1.8c0.7,0.5,1.5,0.2,2.1-0.5c0.3-0.4,0.5-0.8,0.8-1.2c1.7-2.4,4.1-3.9,6.4-5.6c1.1-0.8,2.3-0.5,3.2,0.4
	c0.9,0.9,0.8,1.9-0.1,2.9c-0.1,0.1-0.3,0.3-0.4,0.5c-0.4,0.7-1.5,1.5-0.8,2.3c0.8,0.8,2.1,0.6,3,0c1.1-0.7,1.9-1.7,2.7-2.7
	c1.8-2.1,3.7-4.1,6.2-5.4c1.1-0.6,2-0.8,3,0.1c0.9,0.8,0.5,1.8,0.3,2.8c-0.2,1-1,1.7-1.7,2.4c-0.8,0.8-1.5,1.5-2.2,2.4
	c-0.5,0.6-0.4,1.1,0.4,1.4c1.3,0.4,2.9,0.5,2.7,2.5c-0.3,2-1.9,2.4-3.5,2.6c-0.3,0-0.5,0.2-0.8,0.3c-0.4,1,0.4,1.5,0.9,2.1
	c0.9,1.1,1.8,2.1,2.2,3.5c0.3,0.9,0.3,1.8-0.5,2.4c-0.9,0.6-1.7,0.2-2.4-0.4c-1.1-1.1-2.2-2.3-3.2-3.5c-0.8-1-1.6-2-2.4-3
	c-0.4-0.5-0.7-0.9-1.3-1.1c-0.4-0.1-0.8-0.2-1.1,0.2c-0.3,0.4-0.2,0.7,0.1,1.1c1,1.2,1.9,2.5,3,3.7c0.7,0.8,1.3,1.5,1.5,2.5
	c0.4,1.6-0.5,2.5-2.1,2.2c-1.3-0.2-2.3-1-3.2-2c-1.2-1.4-2.4-2.9-3.5-4.4c-2.4-3.2-3.5-3.6-7.6-1.9c0.3,1.1,1.5,1.5,2,2.5
	c0.5,1.1,1,2.2,0.1,3.3c-0.9,1.1-2.2,1.4-3.5,1c-1.4-0.5-2.7-1.2-3.5-2.6c-0.3-0.5-0.5-1.1-0.8-1.6c-1.8-3.4-2.2-3.6-6.3-2.1
	c1.3,1.8,2.5,3.5,3.8,5.2c1.5,1.9,3.2,3.5,4.5,5.5c0.9,1.4,2.3,1.3,3.7,1.2c2.7-0.3,5.3-0.5,8-0.9c1.7-0.2,3.4-0.4,5-0.2
	c2,0.2,2.5,1.5,1.2,3.1c-1.4,1.8-3.4,2.3-5.5,2.3c-2.3,0-4.5,0-6.9,0.8c0.2,1.5,1.3,1.9,2.5,1.9c3.2,0,6.2,1.1,9.3,1.9
	c1.2,0.3,2.2,0.8,2.9,1.8c0.7,1.1,0.7,2.2,0,3.3c-0.6,1-1.5,1.6-2.7,1.3c-1.6-0.4-3.2-0.8-4.8-1.2c-0.7,0.8,0.1,1.3,0.4,1.9
	c0.5,0.9,1.1,1.7,1.5,2.6c0.4,0.9,0.3,1.8-0.6,2.4c-0.9,0.6-1.7,0.2-2.4-0.3c-0.8-0.6-0.9-1.8-2.2-2c-0.7,1.2-0.2,2.5-0.4,3.7
	c-0.2,1.5-0.4,3-1.9,3.8c-1.4,0.8-2.5,0.5-3-1.1c-0.5-1.7-1-3.4-1.5-5.3c-1.6,0.6-3.2,1.4-4.8,0.3c-0.4-0.3-1,0-1.3,0.4
	c-0.7,1.2-2.1,1.4-3.3,2.2c0.8,1.4,1.5,2.8,2.3,4.2c0.5,0.9,1.2,1.7,0.4,2.7c-0.8,1-1.9,1-3,0.8c-1.3-0.3-2.3-1.1-3.2-2
	C323.8,247.7,323.5,246.6,322.2,246.3z M329.9,235.2c0.7-1.3,0.5-2.1,0.4-2.8c-0.3-3.3-1.3-6.6-0.6-10c0.1-0.7-0.2-1.4-0.7-1.9
	c-3.1-3.9-6.2-7.8-9.9-11.5c-0.5,1.3,0.2,2.4,0,3.4c-0.7,3,0.9,4.7,3.2,6c0.9,0.5,1.9,1,2.9,1.5c1.1,0.5,2,1.2,2.8,2.2
	c0.4,0.6,0.6,1.2,0.3,1.9c-0.4,0.7-1,0.8-1.8,0.7c-0.6-0.1-1.2-0.2-1.7-0.4c-1-0.3-2.1-0.7-3.1-1.1c-0.5-0.2-1-0.4-1.3,0.1
	c-0.3,0.5-0.1,1,0.2,1.4c0.2,0.2,0.3,0.5,0.6,0.7c2.5,1.4,3.7,4.1,5.5,6.1C327.6,232.7,328.7,233.8,329.9,235.2z M320.3,186.6
	c1.8-0.3,2.7-1.6,3.9-2.1c1-0.5,2-0.4,2.8,0.3c0.8,0.8,0.3,1.6,0,2.5c-0.4,0.8-1,1.5-1.6,2.1c-1.2,1.1-2.3,2.4-3.7,3.4
	c-2.9,2.1-2.7,4.9-2.5,7.8c0.3,0,0.4,0.1,0.5,0.1c3.4-3.3,6.4-6.9,9.3-10.6c0.5-0.7,1-1.5,0.8-2.5c-0.6-3,0.3-5.9,0.5-8.8
	c0.1-1,0.5-2.1-0.5-3.2c-3.5,3-5.6,7.3-9.3,10C320.3,185.6,320.4,186,320.3,186.6z M313.9,187c1.4-2.8,1.5-3.9,0.3-5.3
	c-2.3-2.4-5.1-4.3-7.7-6.4c-0.6-0.5-1.2-0.1-1.2,0.6c-0.1,0.7,0,1.4,0.1,2.1c0.2,3.2,1.3,6.4,0.6,9.7c-0.2,0.8,0.2,1.6,0.7,2.2
	c1.8,2.2,3.6,4.4,5.4,6.7c0.3,0.3,0.6,0.6,1,0.4c0.6-0.2,0.6-0.7,0.6-1.2c0-1.5-0.7-2.6-1.8-3.5c-2.1-1.8-3.4-4.1-4.4-6.6
	c-0.2-0.6-0.4-1.2,0.2-1.6c0.4-0.3,0.9-0.3,1.4-0.1c0.7,0.3,1.4,0.7,2.1,1.1C312,185.6,312.9,186.3,313.9,187z M314.3,222.3
	c-1.3,0-1.7,0.9-2.3,1.5c-1.3,1.2-2.5,2.6-4.6,1.9c-0.9-0.3-1.2,0.5-1.3,1.2c-0.3,2.3-0.7,4.7-0.8,7c-0.1,1.3,0.6,1.6,1.6,0.8
	c2.4-1.9,4.7-3.9,7-5.8c0.8-0.7,1.2-1.6,1.1-2.6C314.8,224.9,314.5,223.6,314.3,222.3z M313.6,215.4c0-1,0.2-1.8-0.6-2.1
	c-0.8-0.3-1.1,0.6-1.5,1.1c-1.4,1.7-2.8,3.3-4.1,5c-0.6,0.7-1.1,1.4-1.4,2.2c-0.2,0.5-0.2,1,0.2,1.4c0.5,0.4,0.9,0.1,1.3-0.2
	c1.6-1.3,3.1-2.7,4.7-4C313.3,217.8,313.9,216.6,313.6,215.4z"/>
<path class="st113" d="M317,327.1l-7.2,1.6l-6.1-3.9l12.5-5.8l-2.3-5l-15.6,7.2L277,307.5c0.1-0.4,0.1-0.9,0.2-1.4l24.2,5.8l9.3-7.9
	l-9.1-7.7l-24.4,7.3c-0.1-0.4-0.1-0.7-0.2-1l21.3-13.7l15.6,7.2l2.3-5l-12.5-5.8l6.1-3.9l7.2,1.6l2.4-11l-11-2.4l-1.6,7.2l-6.2,4
	l-0.1-13.9l-5.5,0l0.1,17.4l-20.9,13.5c-0.4-0.4-0.8-0.7-1.2-1.1l17.4-17.8l-2-12l-11.3,3.9l-6.3,24.6c-0.5-0.2-1.1-0.4-1.7-0.6
	v-24.6l14.5-9.2l-2.9-4.6l-11.6,7.4v-7.3l5.2-5.2l-8-8l-8,8l5.2,5.2v7.3l-11.7-7.5l-2.9,4.6l14.7,9.3v24.5c-0.5,0.1-1,0.3-1.5,0.5
	l-6.3-24.5l-11.3-3.9l-2,12l17.3,17.7c-0.4,0.3-0.9,0.7-1.3,1.1l-20.8-13.4L238,267l-5.5,0l-0.1,13.9l-6.2-4l-1.6-7.2l-11,2.4
	l2.4,11l7.2-1.6l6.1,3.9l-12.5,5.8l2.3,5l15.6-7.2l21.1,13.6c-0.1,0.3-0.2,0.7-0.2,1l-24-7.2l-9.1,7.7l9.3,7.9l23.8-5.7
	c0,0.5,0.1,0.9,0.2,1.4l-21.1,13.6L219,314l-2.3,5l12.5,5.8l-6.1,3.9l-7.2-1.6l-2.4,11l11,2.4l1.6-7.2l6.2-4l0.1,13.9l5.5,0
	l-0.1-17.4l20.6-13.2c0.4,0.5,0.9,0.9,1.4,1.3l-17,17.4l2,12l11.3-3.9l6.1-24.1c0.5,0.2,1.1,0.4,1.7,0.6v24.3l-14.7,9.3l2.9,4.6
	l11.7-7.5v7.3l-5.2,5.2l8,8l8-8l-5.2-5.2v-7.3l11.6,7.4l2.9-4.6l-14.5-9.2v-24.5c0.6-0.2,1.3-0.4,1.9-0.7l6.1,23.9l11.3,3.9l2-12
	l-17-17.3c0.4-0.4,0.8-0.8,1.2-1.2l20.7,13.3l-0.1,17.4l5.5,0l0.1-13.9l6.2,4l1.6,7.2l11-2.4L317,327.1z"/>
<path class="st5" d="M195.3,293.1l-0.3-2.1l-6.3,1l4.3-6.6l-1.8-1.2l-5.4,8.2l-4.5,0.7l4.3-6.6l-1.8-1.2l-5.4,8.2l-12.3,1.9l3.2-5.1
	l-7.2-1.9l5.3-4.2l0,0.1l9.8,1.7l0.4-2.1l-7.9-1.4l5.1-4l-1.3-1.7l-5,3.9l0.5-7.8l-2.2-0.1l-0.6,9.7l-5.7,4.5l-0.1-7.6l-7.7,2.3
	l4.7-12.8l9.2-3.6l-0.8-2l-7.4,2.9l1.6-4.3l9.2-3.6l-0.8-2l-7.4,2.9l2.4-6.4l-2-0.8l-2.4,6.4l-3.7-7l-1.9,1l4.6,8.7l-1.6,4.3l-3.7-7
	l-1.9,1l4.6,8.7l-4.3,11.6l-3.5-6.2l-4.6,4.8l-0.7-4.8l6.4-7.5l-1.7-1.4l-5.1,6l-0.9-6.3l-2.2,0.3l0.9,6.3l-6.6-4.4l-1.2,1.8
	l8.2,5.5l0.7,5l-6.2-3.7l-2.1,8.1l-7.7-9.8l1.7-9.7l-2.1-0.4l-1.4,7.8l-2.8-3.6l1.7-9.7l-2.1-0.4l-1.4,7.8l-3.9-5l-1.7,1.3l3.9,5
	l-7.9-0.5l-0.1,2.2l9.9,0.6l2.8,3.6l-7.9-0.5l-0.1,2.2l9.9,0.6l7.7,9.9l-7.5-0.3l1.8,7.1l-4.3-1.5l-3.7-9.2l-2,0.8l3,7.4l-6-2.1
	l-0.7,2l6,2.1l-6.9,3.8l1,1.9l8.6-4.7l4.5,1.6l-5.6,3.5l5.4,4.7l-12.2,1.9l-7.6-6.3l-1.4,1.7l6.1,5l-4.5,0.7l-7.6-6.3l-1.4,1.7
	l6.1,5l-6.3,1l0.3,2.1l6.3-1l-4.3,6.7l1.8,1.2l5.4-8.3l4.5-0.7l-4.3,6.7l1.8,1.2l5.4-8.3l12.4-1.9l-3.9,6.4l6.4,1.7l-3.8,2.9
	l-9.6-1.9l-0.4,2.1l7.7,1.6l-5.1,3.8l1.3,1.7l5.1-3.8l-0.7,7.9l2.2,0.2l0.9-9.8l3.6-2.7l0.3,6.6l7-2.5l-4.5,11.7l-9.2,3.5l0.8,2
	l7.4-2.8l-1.6,4.2l-9.2,3.5l0.8,2l7.4-2.8l-2.3,6l2,0.8l2.3-5.9l3.6,7l1.9-1l-4.5-8.7l1.6-4.2l3.6,7l1.9-1l-4.5-8.7l4.4-11.7
	l4.4,7.1l4.8-5.4l0.8,5l-6.2,7.7l1.7,1.4l5-6.2l1,6.3l2.1-0.4l-1-6.3l6.7,4.2l1.2-1.8l-8.3-5.3l-0.8-4.7l5.8,3.2l1.5-7l7.5,9.8
	l-1.8,9.7l2.1,0.4l1.5-7.8l2.8,3.6l-1.8,9.7l2.1,0.4l1.5-7.8l4.2,5.4l1.7-1.3l-4.2-5.4l7.9,0.6l0.2-2.2l-9.9-0.7l-2.8-3.6l7.9,0.6
	l0.2-2.2L166,325l-7.9-10.3l8.1,0l-1.9-6.4l5.7,2.3l3.3,9.3l2-0.7l-2.7-7.5l5.9,2.4l0.8-2l-5.9-2.4l7.1-3.5l-1-2l-8.8,4.3l-5.5-2.3
	l6.1-3.9l-5.5-4.8l12.9-2l7.6,6.3l1.4-1.7l-6.1-5.1l4.5-0.7l7.6,6.3l1.4-1.7L189,294L195.3,293.1z M152,283.5l6.7-1.9l0,6.6
	l-8.1,6.1c-0.6-0.6-1.3-1.1-2-1.4L152,283.5z M147.3,276.3l3.1,5.3l-4,10.7c-0.5-0.1-0.9-0.1-1.4,0l-1.7-11.9L147.3,276.3z
	 M135.9,277.7l5.3,3.2l1.6,11.8c-0.6,0.3-1.2,0.6-1.8,1l-7.2-9.1L135.9,277.7z M132.4,286.2l7.2,9.2l0.1-0.1
	c-0.2,0.3-0.4,0.6-0.5,0.9l-11.7-4.2l-1.6-6L132.4,286.2z M122.2,297.1l4.8-3l11.5,4.1c-0.1,0.4-0.1,0.8-0.1,1.3l-11.6,1.8
	L122.2,297.1z M124,309l3.3-5.6l11.5-1.7c0.2,0.5,0.3,0.9,0.6,1.3l-9.9,7.5L124,309z M136.9,315.8l-6.2,2l-0.2-5.4l10.2-7.7
	c0.1,0.1,0.2,0.2,0.3,0.3L136.9,315.8z M142.8,322.8l-3.9-6.1l4.1-10.7c0.7,0.3,1.4,0.4,2.1,0.5l1.9,11.6L142.8,322.8z M154,320.8
	l-4.9-2.7l-1.9-11.7c0.5-0.1,1-0.3,1.4-0.5l6.8,8.9L154,320.8z M156.8,313l-6.4-8.3c0.5-0.5,0.9-1,1.3-1.6l10.4,4.2l1.7,5.5
	L156.8,313z M168.4,302.2l-5.2,3.3l-10.7-4.3c0.1-0.5,0.2-1,0.2-1.6l11-1.7L168.4,302.2z M164,295.6l-11.6,1.8
	c-0.1-0.5-0.3-0.9-0.6-1.4l8.6-6.4l6.2,1.6L164,295.6z"/>
</svg>
