<?xml version="1.0" encoding="utf-8"?>
<!-- Generator: Adobe Illustrator 21.1.0, SVG Export Plug-In . SVG Version: 6.00 Build 0)  -->
<svg version="1.1" id="Calque_1" xmlns="http://www.w3.org/2000/svg" xmlns:xlink="http://www.w3.org/1999/xlink" x="0px" y="0px"
	 viewBox="0 0 432 432" style="enable-background:new 0 0 432 432;" xml:space="preserve">
<style type="text/css">
	.st0{fill:#366D9E;}
	.st1{fill:#534741;}
	.st2{fill:#1B1464;}
	.st3{fill:#599DC2;}
	.st4{fill:#597C8F;}
	.st5{fill:#0071BC;}
	.st6{fill:#666666;}
	.st7{fill:#86B9D4;}
	.st8{fill:#006837;}
	.st9{fill:#C1272D;}
	.st10{fill:#C49153;}
	.st11{fill:#FCC921;}
	.st12{fill:#009245;}
	.st13{fill:#808080;}
	.st14{fill:#80D8D0;}
	.st15{fill:#00A99D;}
	.st16{fill:#333333;}
	.st17{fill:#1A1A1A;}
	.st18{fill:#999999;}
	.st19{fill:#E6E6E6;}
	.st20{fill:#009F3D;}
	.st21{fill:#1360A8;}
	.st22{fill:#4D4D4D;}
	.st23{fill:#DBB76F;}
	.st24{fill:#B59255;}
	.st25{fill:#AC1E2C;}
	.st26{fill:#461E05;}
	.st27{fill:#D8A749;}
	.st28{fill:#FFFFFF;}
	.st29{fill:#E6BE8B;}
	.st30{fill:#F2F2F2;}
	.st31{fill:#084C84;}
	.st32{fill:#ED1C24;}
	.st33{fill:#736357;}
	.st34{fill:#F7931E;}
	.st35{fill:#754C24;}
	.st36{fill:#AD8049;}
	.st37{fill:#D60008;}
	.st38{fill:#9E7543;}
	.st39{fill:#C4171E;}
	.st40{fill:#123021;}
	.st41{fill:#FBB03B;}
	.st42{fill:#E00024;}
	.st43{fill:#821119;}
</style>
<g>
	<path class="st0" d="M319.9,270c-10.4,7.2-18.7,11.6-14.1,12.8c18.6,4.9,18.7,4.5,18.8,6c1,12.1,0.7,21.8,4,18.2
		c12.8-13.9,12.3-14,13.7-13.4c10.4,4.8,20.4,10.8,18.8,5.9c-5.1-16.2-6.5-17.8-3.6-19.8l12.9-9c5.8-4-17.9-4.8-18.1-8.1
		c-1.1-13-0.8-22.8-4.1-19.2c-13.4,14.2-13.2,14.5-14.6,13.9l-16.4-8C310.7,246,322.7,268,319.9,270z"/>
	<path class="st0" d="M330.5,342.5l7.4,7c1.3,1.3-7,12.1-3.3,11.2c10.9-2.8,10.5-2.9,10.9-2.2c3.8,5.7,6.3,10.6,7,7.9
		c2.4-10.1,2.2-10.3,3.1-10.3c7.3-0.5,12.9-0.3,10.9-2.2c-6.6-6.3-8.1-7-7.2-8.8l3.9-8c1.5-3-10.3,1.3-10.2,1.3
		c-1.6,0.4-7.2-12.6-8.2-8.7c-2.7,10.6-2.5,10.8-3.4,10.8C334.4,340.9,328.5,340.6,330.5,342.5z"/>
	<g>
		<path class="st1" d="M238.6,208.3c2.2,2.4,3.7,4.6,1.2,6.6c3,5.1-1,8.5-5.5,5.9c0.9,5.7-1.5,7-5.5,4.6c-2,4-7.9,4.8-9.3,0.1
			c-6.1,3.5-7.8,0.1-5.7-5.1c-6.9-0.6-7.5-7.6-2-10.5c-3.4-5.8,0.3-8.9,5.1-6.4c1.4-5.7,4.3-5.8,7.4-3.1c1.4-5.9,4.3-6.8,6.2-2.3
			c6.7-2.5,8.7,2.3,6.5,6.9c6.3-0.6,13,0.4,18.7,3.3c50.9,26.3,16.2,100.8-14,102.8c-1.1,0.1-2.3-1.2-0.9-1.7
			C290.9,290.3,289.8,208.3,238.6,208.3z M210.7,216.4c0.3,1.2,0.8,1.6,2,1.5c3.6-0.1,6.3-1.4,4.3,1.8c-5.5,8.7,2.1,4.8,2.6,1.5
			c0.4-2,0.9-4,1.6-6C222.4,212.4,208.8,209.5,210.7,216.4z M225.9,214.6c-1.9,0.9-2.1-0.3-4,7.1c-1.8,7.2,5,5.3,5,1.9
			c0-0.8-0.3-2.3-0.2-3.1c0.1-1,1.4-1.4,2-0.4c0.3,0.4,0.9,2.2,1.3,3c1,1.8,2.6,1.7,2.4,0.3c-0.1-0.8-0.3-1.7-0.6-2.5
			C230.6,217.9,228.2,216.3,225.9,214.6z M238.9,212.8c-1.1-4.1-10-4.1-12-0.8c8.1,6.6,8.1,6.6,9.9,7.3c0.8,0.3,2.3-0.5,1.6-2.1
			c-0.5-1.3-1.9-1.4-2.4-1.6c-0.5-0.2-0.8-0.6-0.8-1.2c0.1-1.2,1.1-1,2.2-1.3C237.9,213.1,238.3,213,238.9,212.8z M223.8,208.8
			c0-8.9-5.1-10.2-4.6-3.6c0.3,4.7-7.2-3.1-6.3,1.4c0.6,3.1,4.7,3.6,7.8,4C221.4,209.3,222.4,208.8,223.8,208.8z M227.7,197.6
			c-1.9,2.8-1.5,10.5-1.3,10.8c5.4-3.9,6.8-3.4,8.6-5.4c0.9-1,0.4-3.4-1.7-3.1c-2.9,0.5-4.1,5.1-4.7,0
			C228.5,199.3,228.4,198.5,227.7,197.6z"/>
		<path class="st2" d="M164,207.9c-2.4-1-3.9-2.9-2.8-6.1c-4.9-4.4-5-9,3.1-9c-2.6-6.1-0.2-9,4.9-6.9c3.1-6.3,11.1-4.9,8.8,3.5
			c4.3-2,7.6-1.4,6.5,3.4c5.7,2,5.6,6.2-0.2,8c3.9,4.7,2.4,6.4-1.2,7.4c0.4,4.4-2.9,6.3-6.3,4.1c-1.7,2.4-3.7,2.7-6.4-0.1
			c-1.6,0.7-3.3,1.2-4.9-0.4c-6.1,6.9-16.4,7.3-24.6,4.8c-39-11.8-23.3-56.7-21.9-46.5c0.1,0.8-8.7,31.5,20.7,42.9
			C148.1,216.4,164.6,215.8,164,207.9z M171.5,188C171.5,188,171.5,188,171.5,188c0,6.1-6.5-4.7-5.8,1.1c0.5,4.1,3.3,4.9,5.6,5.8
			c1,0.4,1.2,0.1,3.6-4.9c3.5-7.1-2.4-5.9-3-3.7C171.6,186.9,171.5,187.5,171.5,188z M170.7,199.4c-2.1-3.9-10.2-4.8-10.2-2.6
			c0,1.7,1.1,2.7,3.6,2.4c2-0.3,2.9,1.2,0.8,2.5c-3.1,2.1-1.8,7.1,4.5-0.4C169.9,200.7,170.3,200,170.7,199.4z M175.5,195.8
			c3.5,6.5,17.8-0.8,5.9-0.3c-4.6,0.2,3.7-4.7,0.4-4.8C179,190.5,176.4,194.1,175.5,195.8z M174.6,200c0.8,2.8,2,5.1,2.3,8
			c0.3,2.1,3.5,3.6,3.4,1.3c-0.1-1.1-5.1-5.5,0.5-4.2C188.7,206.9,180.7,200.3,174.6,200z M172,202.4c-2.4,2.8-7,8.8-3.5,8
			c1.7-0.4,1.9-3.9,4.1,0.3c0.3,0.5,0.6,1,1.3,1C175.3,209.4,173,210.5,172,202.4z"/>
		<path class="st3" d="M254.8,251.5c-6.4,4.1-11.5,3.5-16.8-0.1c-10.6,7.5-19.3,3-21.9-1.6c-4.4-7.9-3.4-17.5-1.7-16.7
			c1.9,0.8-1.7,8,5,15.9c3.4,4.1,10.6,4.9,15.9,0.3c-7-7.8-3.4-13.8,1.1-11.6c7.2,3.6-0.2,11.9,9,12.4c3.4,0.2,4.4,0.6,7.1-1.1
			c-19.6-27.5,11.2-22.4,5.1-1.7c-0.5,1.6,4.8,5.6,9.7,7.2c4.2,1.4,13.2-20-17.4-36.2c-1.4-0.7-0.7-2.3,0.7-1.9
			c1.6,0.4,3.3,0.8,4.8,1.5C285.7,231.3,276,277.3,254.8,251.5z M250.7,233.5c0.8,3.7,2.1,7.1,4,10.3
			C255.3,242.1,253.7,234.7,250.7,233.5z M234.8,240.4c0.3,1.8,1.5,3.8,2.6,4.3C237.6,243,236.3,240.8,234.8,240.4z"/>
		<path class="st4" d="M175.6,128.9c4.4,6.4,3.4,4,4.4,5.3c2.9,3.8-5.7,5.4-3.9-0.1c-0.7-0.9-1.4-1.9-2.2-2.9
			c-2.8,1.6-2.5-0.5-2.2-0.8c1.6-1.9-1.7-3.6-3.9-7.3c-0.1,0-0.2,0.1-0.3,0.1c-1.3,3.7-1.3,7,1.8,8.4c0.8,0.4,0.9,3.3-3.4-0.1
			c-0.8,6.6-0.2,7.5-2.1,8c-2.2,0.5-4.5-2.5-0.9-4.4c0.2-1.3,0.4-2.7,0.6-4.1c-2.2,0.7-3.8,0.3-0.2-2.1c0.8-0.5,0.6-0.1,1.8-6.7
			c-1.4-1-7.5,3.5-7.6,4.5c-0.9,6.7-3.5,6.3-3,1.4c-4.2,2.2-3.7,6.1-6.8,4.6c-2.3-1.1-1.5-5.8,2.6-4.2c1-0.9,2-1.8,3.1-2.8
			c-0.4-0.6-1.8,0.1-2.3-1.1c-1.1-2.5,4-1.8,5.8-1.1c1.9-1,5.2-3.2,5.8-4c-12-2.9-5.3-1.3-10.7,0.6c-0.8,0.3-2-0.2,0.5-2.9
			c-3.3-0.7-2.7-0.7-3.4-0.1c-3.3,2.5-6.6-3.2-2-4.7c2.9-1,1.6,2,5.3,2.2c-0.2-0.8-0.6-2.1,0.4-2.6c2.9-1.3-1.3,4.1,10.4,4.9
			c-5.8-7.7-3.9-6.3-7.4-6.8c-0.9-0.1-1.8-1.4,1-2c-3.3-4-2.6-2.2-3.2-3.5c-0.8-1.7,1.3-3.8,2.9-3.3c1.8,0.6,2.2,2.2,1.8,2.9
			c-0.6,1,0.1,1.7,0.9,2.6c1.3-3.2,2.8-2.6,1.9,1.1c-0.4,1.8,5.1,8,5.2,8.1c2.9-9.3,1.5-8.4-1.8-10.8c-1.2-0.9-1.5-3.2,3.9,0.1
			c0.7-3.7-1.9-8.6,2.3-8.5c4.3,0.1,0.3,6.1,0.1,8.3c4.3-2.1,4.4,0,1,1.7c-1.9,0.9-1.6,1.6-2.8,8.8c10-3.9,6-8.8,8.3-8.3
			c1.2,0.3,1.1,1.7,1,3c3.3-1.7,2.8-1.4,3.2-2c1.8-2.9,5.8-1,4.7,1.9c-0.4,1.2-1.9,2.4-4.3,1c-0.5,0.3-1,0.6-1.7,1
			c0.4,0.2,1.4,0.7,1.8,1.2c0.7,0.7,0.1,1.7-0.8,1.4c-3.2-0.8-3.1-2.2-11,3.4c3,0.6,5.8,1.2,8.4,1.8c5.8-4.1,5.8-2.1,3,0.7
			c4.9,1.2,5.6,1.6,7,1c2.7-1.2,4.1,3.2,1.3,4.3c-2.8,1.1-0.4-1.2-7.4-2.7c0.4,3.6-1.3,3.2-1.8,2.3c-1.7-3.7,0.5-2.6-10.9-5.1
			c3.5,6.6,4.8,5.6,7.2,5.7c2.3,0.1,2,1.9,0.8,2.2C176.8,128.8,176.3,128.8,175.6,128.9z"/>
		<path class="st5" d="M248.5,172.4c7.9-4.3,5.7-6.6-1.3-10.6c-3.2,2.3-5-1.2-3.3-3.4c1.2-1.6,1.4-1.1,7.2,1.9
			c1.1,0.6,5.2-0.5,4.3-5.5c-4.1-1-1.5-4.7,0.5-4.2c2.5,0.6-0.1,7.7,7.8,4.2c0.5-0.2,0.7-1.1,1-2.3c0.4-1.3-0.7-3.3,1.5-4.4
			c1.1-0.5,2.7,0.3,3.2,2c0.7,2.5-5.5,5.3-2.5,8c2,1.7,5.3,2.6,8.4,1c0.8-0.4,1-2.6,3.2-2.1c2.6,0.6,1.6,4.3-0.5,4.5
			c-0.2,0-0.4,0-0.6-0.1c-2.6-2.1-8.3,6.3-2.1,9c5,2.2,4.9,2.2,5.7,2.1c2.8-0.4,3.4,3.5,1.3,4.4c-1,0.4-2.1-0.1-2.5-1.1
			c-0.1-0.4-0.2-0.7-0.3-1.2c-4.4-1.4-8-3.5-10.1,0.5c2.9,5.3,5.7,7.9,2.7,9.4c-1.3,0.6-2.9-0.3-2.8-1.8c0.1-1.4-0.5-2.3-1.1-3.3
			c-0.4-0.8-0.9-1.5-1.3-2.3c-0.3-0.6-0.8-0.9-1.4-0.8c-0.5,0-0.9,0.1-1.4,0.3c-0.3,0.1-0.6,0.3-1,0.4c-2.5,1.1-2.4,2.4-3.1,5
			c1.1,1.3,1.6,2.5,0.3,3.7c-0.8,0.7-2,0.8-2.8,0.1c-0.9-0.7-1.1-1.9-0.6-2.8c0.3-0.6,0.5-1.2,0.7-1.8c0.4-1.3,0.7-2.7,1.1-4.1
			c0.2-0.6,0.1-1.1-0.4-1.6c-8.6-7.6-8.6,3.3-12.4,0.9c-2.2-1.4-1.4-6,1.2-4.9C247.6,171.7,248.1,172.1,248.5,172.4z M264.6,164.6
			c1.9-1,3.5-1.9,5.1-2.8c-2.5-1.1-1.5-0.6-4-2C265.3,161.4,265,162.9,264.6,164.6z M259.6,164c-0.4-1.4-1.9-4.1-2.3-4.5
			c-0.9,0.8-1.7,1.5-2.7,2.3C256.2,162.5,257.8,163.2,259.6,164z M270.6,168.6c0-1.5,0-2.8,0-4.2c-1.4,0.8-2.9,1.5-4.5,2.4
			C267.7,167.4,269.1,168,270.6,168.6z M262.3,162.3c0.1,0,0.2-0.1,0.3-0.1c0.6-2.9,0.4-1.7,0.9-4.5c-1.2,0.2-2.3,0.3-3.5,0.5
			C260.8,159.5,261.5,160.9,262.3,162.3z M260.9,169.2c-1.6,0.8-3,1.4-4.3,2c1,0.8,2,1.5,3,2.3C260,172.2,260.4,170.8,260.9,169.2z
			 M259,167.2c-1.4-0.6-2.6-1.2-3.9-1.7c0.1,1.1,0.2,2.1,0.3,3.2C256.5,168.2,257.7,167.8,259,167.2z M263.2,170.6
			c-0.3,1.6-1,2.8-1,4.3c1-0.4,1.8-0.8,2.7-1.2C264.3,172.7,263.8,171.8,263.2,170.6z M270,171.5c-1.1-0.4-2.2-0.8-3.2-1.2
			c-0.1,0.1-0.1,0.1-0.2,0.2c0.5,0.9,0.9,1.7,1.4,2.6C268.7,172.6,269.3,172.1,270,171.5z"/>
		<path class="st4" d="M322.2,220.6c-11.4,12.6-12.9,7.2-18.9,7.7c-14.4,22.7-31-7.6-11.3-30.7c0.9-1,1.9-0.1,1.2,1
			c-14.8,25.7-1.1,42.4,7.8,28.1c0-0.1-9.3-11.7-0.1-20.8c3.3-3.2,8.8,1.1,6.8,9.6c-0.5,2.1-1,3.7-2.1,7.9c2.6,2.5,9.3,1.4,13.7-4.3
			c-5.4-14.6,7.6-15.2,4.3-1.9c2,1.3,7.6-1.4,10-4.3c4.9-5.9-0.5-15.4,2.7-12.5c6,5.5-2,23.6-13.8,20.2
			C322.3,220.6,322.2,220.6,322.2,220.6z M303.1,222.3c5.3-7.2,1.9-18-0.8-14.4C300.3,210.5,299.7,216.7,303.1,222.3z M321.1,216
			c2.7-5.6-0.2-5.9-1-4.8C319.3,212.5,319.7,214.9,321.1,216z"/>
		<path class="st6" d="M156.6,279c-6.2-2.4-5.9-5.9-2.7-7.9c-3.9-5.2-0.7-9.2,3.4-8.1c2.7-4.8,6.1-4,7.9-2.3
			c2.2-5.4,8.9-4.1,9.7,1.8c6-2.3,9.4,3.4,6.1,8c3.7,1.4,4.8,4.8,0.6,8.5c4.1,3.3,3.7,7.4-3.1,6.5c0.8,9.2-4.9,9.3-8.5,4.9
			c-2.3,3.5-8.6,3.6-9.3-1.7C155.4,290.1,149.5,288.1,156.6,279z M165.9,277.9c-5.6,3-12.9,4.8-9.6,8.4c0.7,0.8,1.6,0.7,2.5,0.3
			c6.8-3.3,1.9,3.3,5.7,4.2c5.9,1.3,4.7-6.3,2.1-11.8C166.4,278.6,166.2,278.3,165.9,277.9z M172.8,263.6c-0.2-3.4-4.4-6.5-5.2,0
			c-0.4,3.1-3.3-0.6-3.7-0.9c-1.5-1.4-4.3-1.1-4.2,0.4c0.1,2,6.9,10.6,7.3,10.6c1.2,0,0.7-2.9,5.2-8.5
			C172.5,264.7,172.6,264.1,172.8,263.6z M169.9,275.6c10,5.3,17.7-3,7.7-2.7c-1.9,0-2.1-1.5-0.7-2.3
			C183.4,266.6,178.4,256.7,169.9,275.6z M169.1,277.8c3.2,11.7,3.3,11.8,4.6,12.5c1.1,0.7,2.2,0.1,2.5-1.2c0.8-4-4.4-8.4,1.8-6.2
			c4.2,1.5,5.1-0.2,3.4-1.5C178.1,279,180.1,280.6,169.1,277.8z M164.7,275.1c0-0.2,0-0.3-0.1-0.3c-11.9-16.6-12-6.7-7.3-4.5
			c4.9,2.3-5,2.2-2.8,4.9C156.9,278,162.4,275.9,164.7,275.1z"/>
		<path class="st4" d="M247.2,275.1c10.4,1,4.5-0.2,9.1-2.3c1.2-0.6,2,0.7,1.2,1.6c-0.4,0.5-0.9,0.9-1.6,1.5c6.7,0.4,7,2.5,1.7,2.7
			c1.6,3.1-0.2,2.9-0.8,2.3c-1.4-1.3-1.5-2.3-3.1-2.5c-2.5-0.2-5-0.4-7.7-0.7c0.1,0.3,0.2,0.5,0.3,0.6c4.9,6.3,2.9,4.7,6.8,5.1
			c1.5,0.2,2.3,2-1.1,2.5c1.2,2.4,0.2,3.7-2.1,1.6c-1.3,2.4-2.8,2.3-2.2-2c0.1-0.8,0.2-0.5-4.3-6.1c-1.6,6-0.4,5.3,0.8,7
			c0.8,1.1,0.3,2.7-2.2,1.2c-1,3.8-2.5,3-2.5,0c-3.2-1.5,1.4-2.1,0.5-7.1c-3.5,3-3.3,2.7-3.4,3.5c-0.2,5.1-1.7,4-2.5,1.4
			c-2.4,1.8-4.5,1-1.4-2.8c-4.1-1.2-2-2.5-1.4-2.4c4.8,0.3,3.1,1,7.3-2.9c-5-0.5-4.3-0.3-5.2-0.4c-1.9-0.3-3.6,4.1-5,2.4
			c-0.6-0.7,0-1.3,0.9-2.6c-1.6-1-1.5-2.7,0.9-2.4c-2.2-4.2-1.2-5.4,2.9-0.2c1.9,0.1,3.9,0.3,6,0.4c-1.7-2.7-3.2-4.1-4.4-6.9
			c-0.2-0.5-0.5-0.7-1-0.5c-0.4,0.1-0.8,0.2-1.2,0.3c-0.4,0.2-0.8,0.2-1.1-0.1c-1.1-1.6,0.6-2.2,1.7-2.7c-0.2-2,0.6-3.3,2.5-0.6
			c0.2-0.3,0.3-0.6,0.4-0.8c0.2-0.4,0.3-0.9,0.4-1.3c0.3-0.8,0.6-1.1,1.1-1c0.4,0.1,0.8,0.6,0.8,1.3c0,1.3-0.3,2.5-0.9,3.7
			c-0.1,0.2-0.2,0.3-0.3,0.5c1.3,1.8,2.5,3.6,3.9,5.7c0.2-1.4,0.7-4.6,1.1-6.4c0.1-0.6,0-1.1-0.5-1.4c-0.5-0.4-0.9-0.8-1.3-1.1
			c-0.2-0.2-0.6-0.4-0.7-0.6c-0.1-0.3-0.2-0.8,0-1.1c0.2-0.4,0.6-0.5,1-0.3c0.7,0.4,1.4,0.8,2.2,1.2c1.7-1.9,2.1-0.5,2.4,0.8
			c0.5-0.3,0.9-0.6,1.4-0.8c1.6-1,2.4,0.7,1.2,1.7c-0.7,0.6-1.5,1-2.2,1.5c-0.5,0.3-0.9,0.7-1,1.4c-0.3,2-0.5,4-0.8,6
			c0.1,0,0.2,0.1,0.2,0.1c2-1.6,3.9-3.1,5.9-4.7c-1.2-4,0.4-4,1.9-1.5c2.5-1.1,3.8-0.3,1.7,2.6c0.4,0,0.7,0.1,1,0.1
			c1,0.1,1.9-0.1,2.1,1c0.1,0.6-0.3,1.2-1.8,1.3c-1.1,0-2.2,0-3.3,0c-0.8,0-0.2-0.4-4.8,3.3C247.2,275,247.2,275.1,247.2,275.1z"/>
		<path class="st0" d="M186.6,225.4c-2.6-3.3-2.6-3.4-2.8-3.7c-0.4-0.9,0.6-1.4,1.2-0.9c0.6,0.4,0.6,0.7,1.7,1.5
			c-1.3-4.2-1-3.4-1.5-4.1c-3.3-4.3,3.8-4.5,2.8-1.3c-0.3,1-0.1,1.2,2,6.4c0.6-0.5,0.2-1.3,0.8-4.9c0.3-1.8,1.9-1.7,1.8,0.2
			c-0.1,1.7-0.2,3.4-0.3,5.4c0.2-0.3,2.9-4.4,2.8-5.6c-0.2-2.5,3-3.2,3.9-1c1.2,2.9-1.9,1-3.8,7.2c3.9-2.5,3.6-0.5,2.8,0.2
			c-2.9,2.4-2.6,2.3-3,2.9c12.5-4.9,10.1-5.1,11.3-4.6c0.8,0.3,1.3,1.3,1.2,2.2c-0.1,1.5-1.3,2.3-2.7,1.8c-0.2-0.1-0.6-0.2-0.8-0.1
			c-1.7,0.8-3.3,1.6-5,2.4c0,0.1,0,0.2,0,0.3c0.8,0.1,1.6,0.2,2.5,0.3c0.3,0,0.7,0.1,1,0.1c0.4,0.1,0.7,0.5,0.6,0.9
			c-0.1,0.3-0.4,0.6-0.7,0.6c-0.7,0.1-0.9,0-3.6,0c6.5,4.1,7.6,2.6,8,4.6c0.2,0.9-0.3,1.9-1.2,2.5c-2.4,1.5-2.1-2.1-7.4-3.9
			c1.4,1.9,1.7,5.6-4.6-1.6c-0.2,0.3,1.5,7.7,2.7,8.9c1.4,1.4-0.9,4.2-2.7,2.3c-1.5-1.5,0.2,0.4-2-6.5c-1.9,4.5-2.9,2.5-2.3,1.6
			c0.6-1,1.5-4.3,1-5.4c-1.5,2.4-2.8,4.9-4.1,7.4c0.9,2.4-5.6,9.1,0.6-7.1c-1.4,0.3-5.4,1.5-5.8,2.9c-1.2,3.7-8.7-1,3.3-5.4
			c0.5-0.2,1-0.4,1.5-0.7c-1.1-0.2-2.1-0.4-3.1,0.1c-1.6,0.8-1.8-2.1,1.1-2.1c0.9,0,1.8,0,2.7,0c-0.6-0.6-5.7-2.8-8.2-3.6
			c-5,2.5-3.2-5.6-0.2-3.4c1.7,1.3,3.7,1.9,8.2,3.6C186.5,225.5,186.5,225.4,186.6,225.4z"/>
		<path class="st7" d="M146.4,322c3.2,0.1,6.9-2.5,7.5-5.4c-27-10.5-1.5-30,3.9-3.1c4.2,0.5,6.6-2.5,6.5-5.6
			c-0.5-11.1-16.6-19.8-20.3-14.5c-0.6,0.8-1.3,0.2-1.3-0.6c-0.3-7.5,23.7-1.3,24.7,15c0.3,4.7-2.5,8.9-9.8,9.5
			c-5.3,10.2-10.5,6.3-11.5,9.3c-3.3,10.6-22.7,6-10.9,4.7c3.4-0.4,8-2.5,8.8-6C126.6,319.5,142.1,309.1,146.4,322
			C146.3,322,146.4,322,146.4,322z M154.2,312.6c-1.8-8.9-12.6-12.7-7.7-5.6c1.8,2.7,4.3,4.4,7.3,5.5
			C153.9,312.6,154,312.6,154.2,312.6z M143.9,322.1c-0.2-6-8.5-4.7-5-1.8C140.3,321.5,141.9,322.2,143.9,322.1z"/>
		<path class="st2" d="M204,264c9.9-7.4,18.8-1.1,4.1,13.5c-18.4,18.4-17,19.5-16.3-6.9c0.1-5.4,0.5-9.9,2.9-14.8
			c3-6.2,10.2-5.8,9.4,7.4C204.1,263.5,204,263.6,204,264z M195.1,284.8c22.6-21.6,15.9-23.4,8.2-16.7c-4.4,3.8-2.2,0.6-1.5-3.4
			C205.4,244.7,193.8,262.9,195.1,284.8z"/>
		<path class="st7" d="M280.2,124.6c-18.6,1.4-9.8-17.3,1.2-4.3c5.3-3.7,3.6-9.5-0.6-13.9c-20.3,5.6-19.7-18.9,0.2-4.8
			c7-4.1,1.9-16.6-6.9-15.2c-1.6,0.2-1.5-2,1.5-2c8.1,0.1,16.1,8.9,8.2,19.9c5.7,7.3,6.7,13.9-0.9,19c0,18-15.6,18.2-8.7,14.1
			C279,134.6,281.1,128.2,280.2,124.6z M277.4,103.5c-7.9-6-11.7-1.5-5.8,0C273.4,104,275.3,104,277.4,103.5z M278.7,121.5
			c-6.1-7.3-11.7,0.6-1.3,0.3C277.8,121.8,278.1,121.6,278.7,121.5z"/>
		<path class="st0" d="M192,140.5c1.3-2.9,4.2-3.9,5.8-1.2c9-4,6.6,3.9,6.6,4c5.1,0.4,7.2,4.9,2.9,7.6c3.5,3.6,3.1,7.4-3.5,6.8
			c0.2,4.5-3.8,5.1-5.9,3.3c-5.1,4-6.3,0.4-7.6-2.5c-5,1.8-7.4-1.2-5.6-4.8c-1.9-2.3-1.8-3.6,0.8-5c-2.5-2.1-2.8-4.1,0.8-4.9
			C186.4,139.7,188.2,138.4,192,140.5z M206.9,154.8c-2.7-3.6-5.3-2.2-5.3-4.1c0-2.2,6.4-1.2,5-3.8c-1.5-2.6-9.9,1.1-6.9,4.2
			c0.7,0.8,2.3,3,5,3.8C205.4,155.1,206,155.3,206.9,154.8z M196.7,151.7c-2.2,1.3-5.4,7.7-2.5,8.1c3.1,0.4,0.8-5.6,5.2-0.8
			c0.7,0.7,2.9,0.4,0.1-3.7C198.7,154.1,197.7,153,196.7,151.7z M195.5,140.4c-1.8,1-0.3,5.6,0.3,7.5c11-7.4,3.9-9.3,2.5-5.3
			C197.9,144.1,196.3,144.3,195.5,140.4z M185.5,151.1c0,0.1,0,0.3,0,0.4c1.9,0.6,1.1,0.3,2.3,0.3c1.3,0.1,1.7,1.8,0.5,2.4
			c-0.6,0.3-1.4,0.5-1.7,1.2c1.9,2.4,5.7-2.4,7.4-4.9C190.9,150.6,188.1,150.4,185.5,151.1z M192.9,148.2c-0.2-0.8-3.4-8.6-4.4-5.7
			c-0.8,2.3,3.7,4-2.7,3.5c0,0.1,0,0.2,0,0.3C187.9,147.6,190.3,148.1,192.9,148.2z"/>
		<path class="st4" d="M89.8,189.2c0.6-2.7,1.7-1.9,2-0.6c2.5-1.9,3.3-0.5,2.5,0.4c-2.9,3.4-2.4,1.4-1.3,9.6
			c1.9-1.7-0.2,0.3,4.4-4.7c0.1-0.1,0.5-9.3,2.2-2.8c2-1,2.3-0.4,1.9,1.3c3.3,0.7,2.3,2.2,1.1,2.2c-3.4,0.1-1.5-1.3-6.7,4.6
			c7.2,0,7-1.3,7.9-2.3c0.8-0.8,2-0.5,1.5,1.4c0.9,0.9,1,1,0.3,2c2.6,3.5,2.5,4.6-2.6,0.9c-0.7-0.5-0.5-0.4-6.2,0.5
			c-0.1,0.1-0.1,0.2-0.2,0.3c3.8,2.3,4.7,3.8,6,3.5c5.4-1.5,5.7,0.2,1.7,1.6c2.5,2.4,1.7,2.9-1.5,2c-0.4,2.8-1.9,3.4-1.9-1.3
			c-2.4-1.5-4.8-3.1-7.4-4.7c-0.4,7.5,0.8,6.6,3.4,8.8c0.8,0.7,0.9,2.9-2.5,0.6c0,3.6-1.4,3.3-2.2,0.4c-2.1,1.9-2.7,0.4-2.2-0.3
			c2.2-3.1,2-0.7,0.9-7.9c-7.2,6.1-2.4,9.9-5,9.8c-0.9-0.1-0.8-1.4-0.9-3.8c-3.3,2.6-3.8,1.2-2-0.7c-2.7,0-2-1.3-1.4-1.5
			c3.8-1.4,2.5,0.6,7.3-5.5c-10.7,0-7.4,5.7-9.8,4.6c-0.9-0.4-0.4-1.1,0.1-3.2c-3.3,0-3-1.6-0.3-2.2c-2.3-2.7-0.5-3,0.4-2.4
			c3.3,2.4,1.6,2.1,9.9,0.5c-7.5-7.3-8.2-1-9.4-3.3c-0.4-0.8,0.4-1.3,1.1-1.9c-1.5-1.6-1.2-3,1.7-1.7c0.3-4.5,2.2-3.2,2.1,0.4
			c0,1,0.3,0.7,5.6,3.9c-0.4-5-0.2-2.3-0.6-5.8c-0.1-1.4-3.4-0.7-3-2.8c0.1-0.5,0.5-0.7,1-0.6C88.5,188.9,89.1,189.1,89.8,189.2z"/>
		<path class="st0" d="M252.7,187.9c4.6,0.6,8.1,2.8,10.8,6.4c13.9-7.8,22.5-1.7,18.1-0.9c-0.1,0-10.5-1.9-16.2,2.7
			c-0.1,0.1-0.3,0.3-0.4,0.4c4.3,16.6-13.6,12.4-3.6-0.3c-2-2.8-4.7-4.6-8.2-5.1c-2.2,18.4-20.3,7.6-4-2.4c-1.1-4.5-4.1-8.5-8.7-6.9
			c-4.9,1.7-5.7,5.8-6.3,6.6c-2.8,3.9-2.2-8.9,9.5-9.9c3.9-0.3,7.1,3.1,8.4,6.9C252.2,186.2,252.4,187.1,252.7,187.9z M262.4,198.7
			c-4.7,7,1.2,6.6,1,3.9C263.4,201.4,263.3,200.1,262.4,198.7z M245,196.7c2.4,0.4,3.2-1.6,3.8-4.4C247,193.3,245.6,194.7,245,196.7
			z"/>
		<path class="st3" d="M149.5,91.1c-0.8,11.3-8.4,8.9-11.1,1.8c-1-2.7-1.1-4.2-3.6-18c-3.5-19.4,1.1-6.4,11.8,0.3
			c19.3,12.2,13.3,21.4,4,16.4C150.3,91.5,149.9,91.3,149.5,91.1z M137.8,72c-0.1,0.1-0.1,0.1-0.2,0.2c4.6,29.9,9.4,22.5,7.8,15.4
			C143.1,78,150.8,91,156,90C154.4,86.2,137.9,72.1,137.8,72z"/>
		<path class="st5" d="M151.1,207.4c2,2.6,6,2.9,5.4,4.3c-0.9,2.4-5.1-3.1-10.7-2.2c-8.2,1.4-12.9-11.8-14.8-13.1
			c-10.7-7.2-7.7-23.8-4.1-21.1c1,0.8-4.1,10,3.9,17.5c2.6-20.8,17,2.6,4.7,4.8c0.3,2.1,7,10.4,11.6,8.4
			C135.3,186.1,159.8,188.3,151.1,207.4z M149.1,205.1c3.8-3.9-0.2-13.6-2.3-10.3C144.9,197.6,146.9,202.3,149.1,205.1z
			 M134.7,189.3c-1.6,3.1-0.6,7.1,1.9,4.6C138.6,191.8,137,184.7,134.7,189.3z"/>
		<path class="st0" d="M256.7,133.5c10.4-0.8,12,4.8,4.4,9.3c-5.7,3.3-11.1,4.3-17.2,8.1c-11.1,7-9.7,6.9-0.4-14.2
			c4.6-10.3,11.3-10.2,12.9-6.7C256.8,131.1,256.9,132.2,256.7,133.5z M241.7,148.3c0,0,0.1,0.1,0.1,0.1c8.6-5.5,15.1-6.8,19.3-10.5
			c2.2-1.9-3.8-3.5-7.6-0.1c-1.7,1.5-3.4,0.5-1.7-1.8c0.7-0.9,1.6-1.8,1.6-3.1C249.8,131.1,242.9,145.3,241.7,148.3z"/>
		<path class="st3" d="M147.8,166.9c-0.6-8,5.3-9.4,8-4.4c3.1,5.8,2.1,11.4,8.2,16.5c4.9,4.1-4.7,6.4-10.6,4.8
			C136,178.9,136,162.1,147.8,166.9z M160.8,179.9c-4.1-4.2-5.9-12.2-9.5-16.8c-0.7,3.1,4.7,14-0.9,9.7
			C139,164.1,141.3,181.1,160.8,179.9z"/>
		<path class="st3" d="M114.9,217.7c-8.5-15.1,1.4-24.4,14.6,9.1c1.9,4.8-0.2,4.3-7.9,3C102.4,226.4,103.9,215.4,114.9,217.7z
			 M116.1,210c-0.5,4.7,1.8,7.7,2.3,9.8c0.9,3.6-4.1,0.9-6.8,0.7c0,0.1-0.1,0.2-0.1,0.3c2.8,3.8,10.7,6.4,14.8,6.7
			c-0.2-1.3-3.4-9.3-3.9-10.5C121.3,214.5,118.1,210,116.1,210z"/>
		<path class="st6" d="M302.5,182.4c-6.2-15.1,14.8,1.3,29.4,9c5.2,2.7-12.2,2.9-15.4,3.4C299.5,197,293.5,182.4,302.5,182.4z
			 M307.8,185.9c-1.1,1.6-3.6-0.5-5.1,0c0.4,4.2,12.8,7.4,21.2,5.2c-11.5-7.7-15.4-10.6-18.9-10.9
			C304.9,184.6,307.5,184.1,307.8,185.9z"/>
		<path class="st6" d="M279,300.5c-6.8,7.8-9.5,1.1-7.6-3.6c0.6-1.4,8.7-18.9,10.2-18.8c2,0.1,5.9,19.2,6.2,21.1
			c1.5,10-6,10.1-7.9,4.5C279.6,302.7,279.4,301.7,279,300.5z M278.9,296.2c0.8-1.3,1.9-0.7,2.1,0.5c2.1,14.4,6.4-4.7,0.7-12.3
			c-3.1,3.3-5.4,9.7-6.3,12.4C275,297.7,275.3,301.7,278.9,296.2z"/>
		<path class="st5" d="M178.6,166.9c10.1,12.8,15.3-0.6,12.9,9.3c-1.1,4.6,7.3,3,6,6.8c-2,6,1.1,6.6,1.3,8.4
			c0.3,3.1-2.1-0.3-8.6-0.3c-2,0-1.5-1.4-2.4-4.2c-3.1-10.1-10.9-4.8-10.7-8.1c0.1-2.5,2-1.2-0.8-10
			C175.5,166.4,177.6,165.7,178.6,166.9z M180.5,172.8c-0.1,1.7-0.2,3.2-0.3,4.6c6.4,0.8,9.6,4.8,10.7,10.8c1.3,0.1,2.4,0.2,3.6,0.4
			c-0.2-3.4-0.3-2,0.3-5.4c-4.8-1.1-5.9-3.8-5.9-7.4C185.5,176.5,182.9,175.1,180.5,172.8z"/>
		<path class="st0" d="M218.7,188.8c-1.1,1.7-2,0.6-3.5-0.3c-4.3-2.7-8.5,3.3-6.2-2.3c2.4-5.7-3-9.8,0.9-9.4
			c11.6,1.1,8.3-8.2,12.2-7.1c9.2,2.6,12-2,13.3,0c1.8,2.6-6.4,3.6-5.2,12.3C230.5,183.6,223.7,181.2,218.7,188.8z M211.2,179.3
			c0.9,1.9,0.8,3.9,0.3,5.9c2-0.2,3.7,0.5,5.4,1.3c3.2-5.2,5.2-5.5,10.4-5.5c0-3,0.7-5.6,2.4-8c-2.7,0.5-5.3,0.2-7.9-0.5
			C219.9,177.3,216.3,179.3,211.2,179.3z"/>
		<path class="st3" d="M243.7,108c7.6,3.2,9.6,0.6,12.3-2.2c1.9-2,1,2,8.5,3.3c4.8,0.9,11.4-0.3,2.7,4.4c-4.3,2.3-2.3,8.7-5.4,7.3
			c-3.6-1.5-7.1-2.6-10.2,1c-2.7,3.2-1-3.8-8.6-4.3c-0.4,0-1.8,0.5-2.1,0.2c-0.4-0.5-0.2-1.6,0.4-2c2.1-1.2,1-6.4,1.1-7
			C242.4,108.3,242.9,108,243.7,108z M256.7,108.7c-3.4,4-6.8,3.5-11.8,2.4c-0.2,1.5-0.4,2.8-0.6,4.1c4,1.3,4.4,1,6.4,4
			c3.3-3.1,7-2.9,10.9-1.3c0.4-2.2,1.3-4.1,2.9-5.7C258.8,110.7,260.7,113,256.7,108.7z"/>
		<path class="st6" d="M143.2,239.6c-0.5,7.2-3.7-1-9.5,0.1c-2.9,0.5-3.6-0.8-2.9-1.9c0.4-0.7,1.4-1.3,2.5-2.3
			c5.7-5.1-0.2-9.9,4.4-9.2c3.8,0.6,5.3-1.4,6.2-4.7c0.9-3,1.7,1,8.7,0.4c3.8-0.3-1.9,1.4-0.3,11.7
			C152.7,237.2,143.7,232.7,143.2,239.6z M140.4,238.9c1.6-5.5,4-6.2,8.4-6.4c-0.7-2.6-0.2-5,0.7-7.2c-1.2-0.4-2.3-0.8-3.5-1.3
			c-1.2,3.3-3.4,5.4-7.2,5.4c0.3,3.1-0.8,5.6-2.8,7.8C137.5,237.7,138.9,238.3,140.4,238.9z"/>
		<path class="st6" d="M171.4,152.3c-4.4-0.2-7.3,9.2-8.2,3c-1.2-8.7-9.7,1.4-9.6-4.5c0.1-3.7-3.1-4-5.4-5.1c-2.3-1,1.2-1.2,3.9-6.4
			c2.2-4.1,1.9-0.2,6.1,2.2c4,2.2,5.7-1.9,6.9,0.6c1.4,2.9,3.8,4.6,6.7,5.9C178,150.9,176.9,152.6,171.4,152.3z M156,149.2
			c4-1.3,7-0.2,9.2,3.1c1.1-0.8,2.2-1.7,3.4-2.6c-2-1.1-3.6-2.1-5-4.3c-1.6-2.4-2.1,1.8-9.8-4.2c-0.7,1-1.5,2-2.3,3
			C154,145,155.3,146.8,156,149.2z"/>
		<path class="st2" d="M232,149.3c-8.6-2.6-12.7,5.4-14.6,3.3c-1.2-1.3,6.3-7,2.3-11.1c-3.4-3.6,5.8-1,3.5-8.1
			c-0.5-1.4,0.5-1.9,2-1.9c3.7,0,5.9-4.4,6.9-0.8c1.2,4.6,9.7,5.1,5.4,7.8c-5.3,3.2-4.9,4.2-4,9.2C233.6,148.6,233,149.3,232,149.3z
			 M230.2,146.2c-0.8-4.3,0.8-6.7,3.8-9.2c-1.8-1.2-3.2-2.6-4-4.4c-1.3,0.5-2.6,1-3.9,1.5c0.2,4.2,0.2,4.6-3.6,6.6
			c1,4.4,0.9,2.5,0.2,7.1C225,146.5,227.4,145.7,230.2,146.2z"/>
		<path class="st5" d="M172.2,251.2c-1.3-2.3-3-4.4-5.6-4.9c-4.5-0.9,2.1-5.4-3-9.4c-3.4-2.7,1.7-2.2,2.3-4.9c0.8-4.1-0.7-5.8,1-6.2
			c2-0.4,0.4,2.7,4.7,4.4c6.5,2.5-0.3,4.4,4.1,10.1c2.6,3.3-2.4,0.1-0.5,11.9C175.2,252.8,172.8,252.1,172.2,251.2z M168.9,231.7
			c-1.2,2.8-0.6,1.7-2.5,4.2c2,2.4,2.2,5.1,1.1,8c1.8,0.2,3.1,1.2,4.4,2.4c2.9-10.5-1-1.2-0.3-13.5
			C170.7,232.4,169.9,232.1,168.9,231.7z"/>
		<path class="st7" d="M279.5,315.4c0.8-6.7,2.7-7.1,2.7,0.6c7.2-4.1,7.1-1.4,2.8,2.1c5.9,0.5,6.9,2.8-1.6,2.5c6,8.2,3.1,7-1.8,1.9
			c-0.6,5.2-2,7.9-2.8,0.6c-6.3,3.8-7.1,1.8-1.4-3.4c-6.2-1.7-6.2-3-0.6-2.7c-0.7-1.1-1.1-1.6-2.3-3.2c-1.6-2.2-1.2-5,4.8,1.8
			C279.3,315.4,279.4,315.4,279.5,315.4z"/>
		<path class="st3" d="M250.7,310.7c2.9-0.3,3.9-4.9,6-3.1c5,4.2,9.5,1.1,9.5,3.8c0,0.9,0.5,1.5,1.1,2.1c3.4,3.2-0.9,1.4-3.1,5.5
			c-1.5,2.7-2.9-2.6-7.3-1.7c-2.8,0.6,0.3-2.2-6.2-4.6C250.2,312.5,249.6,310.8,250.7,310.7z M263.7,312.5c-3,0.2-5.8-0.7-8.2-2.6
			c-0.5,0.5-1,1-1.5,1.5c1.4,0.8,2.5,1.9,3.1,3.4c2.2-0.3,4,0.5,5.6,1.7c0.7-0.8,1.4-1.5,2-2.2C264.4,313.7,264.1,313.2,263.7,312.5
			z"/>
		<path class="st3" d="M288.7,182.3c2.6-5.7,3.8-4.7,3.5-1.1c2.8-1,4.2,0-0.1,2.7c4.1,1.2,3.9,3.3-0.6,2.7c1.7,3.6,0.5,4.2-1.8,2.1
			c-2,4.2-4.7,5.5-3.1-1.4c-0.9,0-2.4,1.8-3.1,0.6c-0.4-0.7,0.4-1.2,1.3-1.9c-2.5-1-2.5-2.3,1-3c-0.1-0.2-0.1-0.4-0.2-0.7
			c-1.3-3.2,0.2-4,2.2-1.1C288.2,181.6,288.4,181.9,288.7,182.3z"/>
		<path class="st0" d="M260,294.2c-1.2,1.7-2.5,0.9-4,6c-0.3,1-0.6,1.8-1.8,1.4c-5.6-2.1-3.9,3.1-6.6,1.8c-1.8-0.8-5.7,1.1-4.2-1.1
			c2.1-3.1-1.2-6.1,2.2-6.1c2.8,0,3.5-1.6,5.2-3.5c1.4-1.5-0.1,0.4,8.3,0.5C259.6,293.1,260,293.5,260,294.2z M245.9,300.8
			c0.8,0.1,1.5,0.1,2.2,0.2c1.4-2.8,3.6-3.1,6.1-1.8c0.6-1.3,1.1-2.5,1.7-3.7c-1.3-0.3-2.6-0.5-4-0.8c-2.2,2.1-2.9,3.4-5.9,3.4
			C245.9,299,245.9,299.8,245.9,300.8z"/>
		<path class="st0" d="M211.5,163.2c4.4-2,4.3-0.3,0.4,2.2c5.4,1.5,3.6,2.6,2.5,2.5c-3.5-0.2-2.1-0.3-3.6-0.1
			c3.1,5.1,1.2,5.1-1.5,1.8c-1.1,3.6-3.3,6.1-1.8-1.7c-5.4,3-8.2,3.1-2.2-1.1c-2.5-0.7-3.2-2,1-2c-0.9-2.7-0.3-4,2.2-0.8
			c1.5-4,0.9-2.5,1.1-3c0.5-1.2,2-1,2,1.1C211.7,162.4,211.6,162.7,211.5,163.2z"/>
		<path class="st1" d="M203.1,121.3c1.7,1.8,5.7,2.3,6.3,2.5c3.2,1-1.8,2.3-1.5,7.6c0.1,1.1-0.8,1.7-1.9,1.1
			c-4.4-2.7-4.3-1.9-8.2-1.8c-1.1,0-1.9-1.5-0.2-2.4C202.1,125.9,200,118.1,203.1,121.3z M206,129.6c-0.1-1.8,0.7-3,1.5-4.1
			c-1.5-0.5-3-1-4.6-1.5c0.1,1.6-0.8,2.9-1.6,4.2C202.4,128.4,205.4,129.3,206,129.6z"/>
		<path class="st1" d="M218.5,280.2c3.4,6.3,1.4,6.2-1,3.5c-0.8,2.4-1.9,3-1.9-2c-4.6,3.1-4.8,1.6-1.8-1.8c-2.7-0.5-3.2-1.8,0.5-1.8
			c-1.1-4.1,0.4-4.6,1.9-2.8c1.7-0.3,1.1-0.5,2.2,0.8c2.6-1.5,3.8-0.6,1,2.4C222.7,279.2,224.4,280.6,218.5,280.2z"/>
		<path class="st5" d="M266.8,273.5c-1.4-1.1-0.6-0.5-1.7-2c-2.2-3.1-7.5-2.2-4.5-5.1c1.4-1.3,1.5-2.8,1.6-3.4c1-3.3,2.6,0.3,6.6,1
			c5.1,0.8-0.4,2.6-0.5,7.9C268.3,272.9,267.8,273.5,266.8,273.5z M267.5,266c-1.1-0.5-2.1-1-3.1-1.4c-0.4,0.8-0.7,1.6-1.1,2.4
			c0.9,0.6,1.8,1.2,2.7,1.8C266.6,267.9,267,267,267.5,266z"/>
		<path class="st7" d="M208.3,191.1c6.5,1,4,9.9-1.2,8.5C203.9,198.7,202,190.1,208.3,191.1z"/>
		<path class="st1" d="M155.2,225.7c0.1-4.6,7.6-5.9,8.6,0.2C164.5,229.4,158.2,233.6,155.2,225.7z"/>
		<path class="st0" d="M198.1,203c-3.9,0.3-6-5.7-1-7.7C200.3,194,204.1,202.6,198.1,203z"/>
		<path class="st7" d="M146,154.9c-3.9,0-6.2-7.4,0.5-7.9C150.5,146.8,151.7,154.9,146,154.9z"/>
		<path class="st5" d="M229.1,127.4c-4.6-0.1-5.3-7.9,0.3-7.7C234.5,120,234.1,127.5,229.1,127.4z"/>
		<path class="st0" d="M230.8,115.7c0.9-6.9,11.5-2,6.3,2.6C235,120.2,231.5,120.1,230.8,115.7z"/>
		<path class="st0" d="M235.6,120.4c7.1-4.4,8.5,8.4,1.8,6.3C235.7,126.3,234.1,121.4,235.6,120.4z"/>
		<path class="st5" d="M355.6,205.9c-0.1,4.3-7.3,4.9-7.1-0.1C348.6,202.1,355.7,201.1,355.6,205.9z"/>
		<path class="st0" d="M203.2,184.7c5.8,0,1,10.1-2.6,6.1C198.3,188.3,200.3,184.7,203.2,184.7z"/>
		<path class="st5" d="M141.1,144.5c-2.3-2.9-0.1-6.7,2.9-5.6C149.8,141,144.4,148.6,141.1,144.5z"/>
		<path class="st7" d="M166,217.9c2.4-1,4.6,1.4,4.6,3.6C170.7,228.6,160,220.5,166,217.9z"/>
		<path class="st0" d="M187.4,257c-3.7,0.1-3.9-6.1,0.5-6.1C191.3,250.9,191.9,257,187.4,257z"/>
		<path class="st1" d="M151.6,253.9c2.3,0.8,2.9,5.1-1,5.8C145.7,260.4,146.7,252.2,151.6,253.9z"/>
		<path class="st1" d="M109.7,185.8c-3.7,4.4-8.1-4.7-1.9-5.3C110.1,180.3,111.3,183.9,109.7,185.8z"/>
		<path class="st2" d="M285.8,145.7c0.1,4.2-5.7,4.7-5.9-0.1C279.9,144.1,285.7,142,285.8,145.7z"/>
		<path class="st2" d="M143.8,104.2c0,4-5.7,4.3-5.8-0.3C137.9,101.3,143.8,99.8,143.8,104.2z"/>
		<path class="st0" d="M222.6,265.9c-3.7,0.1-3.8-5.5,0-5.6c1.6,0,2.7,1.3,2.7,3.2C225.3,264.9,224.3,265.9,222.6,265.9z"/>
		<path class="st2" d="M366.6,207.6c-3.5,5-8.1-3.7-3.1-3.7C363.8,203.9,367.4,206.4,366.6,207.6z M365.1,206.3
			c-0.6-0.2-1.2-0.3-1.8-0.4C363,207.1,364.3,207.4,365.1,206.3z"/>
		<path class="st3" d="M293.4,76.8c-0.1,3.5-5.2,3-5.2-0.2C288.2,73.1,293.4,73,293.4,76.8z"/>
		<path class="st2" d="M144.1,269.6c-0.1-5.9,8.2-1.8,4,1.9C146.7,272.6,145.1,272.4,144.1,269.6z"/>
		<path class="st0" d="M201.4,214.8c-4.5-0.2-2.2-6.9,0.9-5.2C203.3,210,205.2,213,201.4,214.8z"/>
		<path class="st0" d="M242.3,224.7c0-2.9,5.2-3.7,5.1,0.2C247.5,226.3,242.3,228.2,242.3,224.7z"/>
		<path class="st2" d="M255,101.2c-0.5-2.1,1.6-5,3.7-3.4C262.5,100.6,256,105.4,255,101.2z"/>
		<path class="st3" d="M60.6,201.4c0.3-4.8,7.4-2,3.9,1.9C63.4,204.6,61.4,204.8,60.6,201.4z"/>
		<path class="st0" d="M154.4,242.7c-3-0.1-3.7-5.2,0.5-5.3C156,237.4,158.1,242.9,154.4,242.7z M154.4,241c1.5-2.2-0.9-1.6-0.6-0.8
			C153.9,240.4,154.1,240.6,154.4,241z"/>
		<path class="st0" d="M133.6,176.7c-2.1-0.4-2.5-3.5-0.1-4.3C138,171,138.6,177.5,133.6,176.7z"/>
		<path class="st5" d="M241.9,302c1.3,4.7-6.6,3.2-4.9-0.4C237.4,300.6,241.3,300,241.9,302z"/>
		<path class="st3" d="M177.8,299.4c-0.1-2.7,5.2-3.4,5.3,0.2C183.2,301.1,178,304.2,177.8,299.4z M180,300.5
			c2.4,0.6,1.5-2.6,0.1-1.5C179.5,299.4,179.8,299.9,180,300.5z"/>
		<path class="st0" d="M234.9,163.3c-0.1,3.1-4.9,3.3-4.8-0.4C230.1,161.8,235,159.6,234.9,163.3z"/>
		<path class="st0" d="M309.9,202.6c-1.3-2.8,3.1-6.1,4.6-1.4C314.9,202.5,311.2,205.5,309.9,202.6z M311.3,201.1
			c-0.3,1.4,1.1,1.6,1.4,0.7C312.2,201.6,311.8,201.4,311.3,201.1z"/>
		<path class="st2" d="M283.5,273.2c-2.3,0.2-3.9-4.9,0.3-5C285.1,268.2,287,273,283.5,273.2z"/>
		<path class="st0" d="M217.4,125.2c3.3,0,3.3,5.5-0.2,5.4C216,130.5,214.8,125.1,217.4,125.2z M217.2,127.5
			c-0.6,1.5,0.7,1.4,0.9,0.8C218.2,127.7,217.8,127.6,217.2,127.5z"/>
		<path class="st7" d="M228.9,294.7c-3,0.1-3.1-4.9,0.4-5.1C230.4,289.6,232.9,294.6,228.9,294.7z M229.5,291.5
			c-1.6,0.5-0.9,1.7,0,1.2C230.1,292.3,229.8,291.9,229.5,291.5z"/>
		<path class="st0" d="M181.3,158.1c0.1,6.2-8-0.3-2.7-2.1C180.4,155.4,180.8,156.9,181.3,158.1z"/>
		<path class="st2" d="M164.3,88.6c0.6-0.6,1.8-0.7,2.9,0.8C169.2,92.3,159.4,93.8,164.3,88.6z"/>
		<path class="st7" d="M159.5,252.8c0.1,3-4.1,3.4-4.1,0.7C155.4,250.7,159.5,250.6,159.5,252.8z"/>
		<path class="st3" d="M290.2,336.6c-5.8-1.1,0.2-6.1,1.6-2.7C292.2,335,291.9,336,290.2,336.6z"/>
		<path class="st0" d="M209.3,248.9c0.1,2.5-3.7,3.1-3.9,0.4C205.3,246.6,209.2,246.5,209.3,248.9z"/>
	</g>
</g>
</svg>
