<?xml version="1.0" encoding="utf-8"?>
<!-- Generator: Adobe Illustrator 22.0.0, SVG Export Plug-In . SVG Version: 6.00 Build 0)  -->
<svg version="1.1" id="Calque_1" xmlns="http://www.w3.org/2000/svg" xmlns:xlink="http://www.w3.org/1999/xlink" x="0px" y="0px"
	 viewBox="0 0 432 432" style="enable-background:new 0 0 432 432;" xml:space="preserve">
<style type="text/css">
	.st0{fill:#E0EDF3;}
	.st1{fill:#A5C0DF;}
	.st2{fill:#3F668A;}
	.st3{fill:#162740;}
	.st4{fill:#7B9EC7;}
	.st5{fill:#571419;}
	.st6{fill:#020203;}
	.st7{fill:#F39323;}
	.st8{fill:#8C633A;}
	.st9{fill:#6189B1;}
	.st10{fill:#A8C4D3;}
	.st11{fill:#989389;}
	.st12{fill:#DED3C6;}
	.st13{fill:#36502D;}
	.st14{fill:#DAA405;}
	.st15{fill:#DFE6ED;}
	.st16{fill:#D06C5D;}
	.st17{fill:#972021;}
	.st18{fill:#79986F;}
	.st19{fill:#FFF0BA;}
	.st20{fill:#C9D0D6;}
	.st21{fill:#E7E6E6;}
	.st22{fill:#CDCCCC;}
	.st23{fill:#B4B4B4;}
	.st24{fill:#FFFFFF;}
	.st25{fill:#9F1E29;}
	.st26{fill:#754D24;}
	.st27{fill:#A67D52;}
	.st28{fill:#CDE3EA;}
	.st29{fill:#F2F2F2;}
	.st30{fill:#C7B29A;}
	.st31{fill:#BCA48A;}
	.st32{fill:#D79A5D;}
	.st33{fill:#90443F;}
	.st34{fill:#D6A14D;}
	.st35{fill:#365461;}
	.st36{fill:#4C672C;}
	.st37{fill:#7D915E;}
	.st38{fill:#67302B;}
	.st39{fill:#96B8AA;}
	.st40{fill:#C5463F;}
	.st41{fill:#AFA453;}
	.st42{fill:#F1969D;}
	.st43{fill:#603914;}
	.st44{fill:#82171C;}
	.st45{fill:#066938;}
	.st46{fill:#9A9999;}
	.st47{fill:#C9913E;}
	.st48{fill:#E2A1BC;}
	.st49{fill:#808181;}
	.st50{fill:#C1292E;}
	.st51{fill:#EDCBA9;}
	.st52{fill:#699CBB;}
	.st53{fill:#4E4D4D;}
	.st54{fill:#C29245;}
	.st55{fill:#BB7E28;}
	.st56{fill:#C8904C;}
	.st57{fill:#BB7926;}
	.st58{fill:#A3282E;}
</style>
<g>
	<g>
		<ellipse class="st0" cx="216" cy="340" rx="162" ry="24.2"/>
		<g>
			<g>
				<path class="st28" d="M122.1,333.8c2.1-1.1,2.1-3.7,0.5-5.4c-2.2-2.4-6.6-2.9-9.6-2.4c-4.1,0.6-15.5,7.4-11.6,12.8
					c2,2.9,8.6,2.7,11.8,3c5.9,0.5,11.7,0,17.6-0.5c10.7-0.8,26.9-3,34.7,6.3c1.1,1.4,3.1-0.6,2-2c-8.5-10.2-25.8-8-37.4-7.1
					c-7.8,0.6-15.8,1.2-23.5-0.6c-0.8-0.2-1.6-0.4-2.3-0.6c-0.1-1.8,0.5-3.3,1.8-4.5c1.2-1.4,2.7-2.4,4.3-3.2
					c1.6-0.7,3.2-1.1,4.9-1.1c0.4,0,7.1,1.9,5.5,2.8C119.1,332.3,120.5,334.7,122.1,333.8L122.1,333.8z"/>
			</g>
			<g>
				<path class="st28" d="M343.7,338.2c3-0.3,8.6,2.5,5.2,5.7c-1.2,1.2-3.4,1.6-5,2.1c-4.1,1.3-8.3,1.8-12.6,1.5
					c-11.5-0.9-21.7-7.1-32.4-10.8c-15.7-5.5-33.3-3.4-41,13.2c-0.8,1.6,1.7,3,2.4,1.4c5.5-11.8,17.4-16.6,29.9-14.1
					c13,2.6,24.2,10.5,37.3,12.7c7.2,1.2,17.8,0.7,23.8-4.3c5.8-4.8-2.4-10.7-7.6-10.2C342,335.6,342,338.4,343.7,338.2L343.7,338.2
					z"/>
			</g>
			<g>
				<path class="st28" d="M265.1,332.5c3.3-4.6-1.4-10.4-6.6-9.8c-9.5,1.2-10.1,14.2-15.3,20.1c-7.5,8.7-19.6,10.8-30.5,11.5
					c-11.4,0.7-25.9-0.9-30.3-13.4c-0.6-1.7-3.3-1-2.7,0.7c6,17.2,27.5,16.9,42.3,14.5c8.1-1.3,16.3-4.2,22.2-10.3
					c2.7-2.8,4.5-6.1,6-9.7c1.1-2.7,2-5.7,4-7.8c0.9-1,2.4-2.3,3.8-2.6c2.9-0.7,7.1,2.1,4.7,5.4C261.7,332.6,264.1,334,265.1,332.5
					L265.1,332.5z"/>
			</g>
		</g>
	</g>
	<g>
		<g>
			<g>
				<g>
					<path class="st6" d="M199.6,194.2c-1.9,7.4-26.8,29.4-58.1,41.1c-8.1,3,6.4,12.7,31.9,10.9c5.3-0.4,6.3,1.3,3.5,18.3
						c-2.8,17-4.9,57.3,24.2,59.9s91-14.7,105.4-21.9c14.4-7.2-11.3-3.3-19.1-23.1c-7.3-38.2-32-46.6-17.5-48.6
						c16.6-2.3,53.9-8.3,32.9-14.5c-21-6.2-46.5,4.2-50.6-24.9C238.3,193.4,199.6,194.2,199.6,194.2z"/>
					
						<ellipse transform="matrix(0.9903 -0.1387 0.1387 0.9903 -33.8563 34.1956)" class="st29" cx="228.4" cy="260" rx="36.4" ry="52.7"/>
					<path class="st29" d="M278.1,166.3c0.1,0.8,0.1,1.5,0.2,2.2c0.9,13.1-8.6,20.5-25.9,24.9c-10.8,2.7-24.6,4.3-40.8,5.5
						c-4.8,0.3-9.8,0.3-14.7-0.1c-23.7-2-46.3-12.5-45-27.8c0.1-0.7,0.1-1.4,0.2-2.2c2.2-20.8,13.9-78,61.8-76.9
						C262,93,275.9,143.7,278.1,166.3z"/>
					<path class="st6" d="M278.1,166.3c-3.6-0.5-8.2-0.4-13.2,0c0.6-4.4,3.3-39.4-16.9-38.2c-19.7,1.1-21.9,30.2-21.1,47.8
						c0,0.5,0.1,1.1,0.1,1.6c-2.4,0.3-7.3-0.2-10.8,0.3c0-0.2,0.1-0.4,0.1-0.7c0.7-8.3-4.5-46.7-20.2-47.9
						c-16.2-1.2-21.9,17.7-22.1,38.2c-3.4-1.4-14.6-2.7-21.9,1.3c2.2-20.8,13.9-78,61.8-76.9C262,93,275.9,143.7,278.1,166.3z"/>
				</g>
				<g>
					<path class="st7" d="M186.7,318.3c-3.9-0.1,5.4,25.5,8.3,25.4s4-5.1,6.3-5.3s5.3,5.2,8.5,4.1s0.1-7.6,2.2-9
						c2.1-1.4,12,3.8,14.5,0.1c2.5-3.7-14.2-5.8-19.7-13.1C204,317,186.7,318.3,186.7,318.3z"/>
					<path class="st7" d="M300.8,308.9c-5.3-9.1,12.9-24.5,14.8-33c1.9-8.5,5.5-9.1,6.6-8.6c3.4,1.3,0.2,9.1,2.5,9.9
						c2.2,0.8,8.9-4.3,11.2-1.7c2.1,2.3-4.5,7.8-3.3,10.4c1.3,2.6,9.6-0.3,10.8,2.8s-8,5.7-12.5,10.1S310.1,324.7,300.8,308.9z"/>
				</g>
			</g>
			<g>
				<path class="st7" d="M216.1,177.3c-7.7,4.6-10.5,4.3-13.7,6.8c-2.6,2.1,13.6,11.7,16.9,11.2c3.3-0.5,23.1-11.6,19-13.9
					c-4.1-2.3-9.2-4-12.9-6.1C222.1,173.4,216.1,177.3,216.1,177.3z"/>
				<g>
					<g>
						<circle class="st6" cx="201.6" cy="170.2" r="6.9"/>
						<circle class="st24" cx="199.2" cy="168.3" r="2.7"/>
					</g>
					<g>
						<circle class="st6" cx="241.9" cy="164.6" r="6.9"/>
						<circle class="st24" cx="239.5" cy="162.7" r="2.7"/>
					</g>
				</g>
			</g>
		</g>
		<g>
			<g>
				<path class="st25" d="M158.1,132.2c-11.8-7-43.4,3.6-48.6,9.9s-11.3-11.2,17.5-37.5s65.7-60.9,120.4-12.1
					C215.8,105.7,158.1,132.2,158.1,132.2z"/>
				<circle class="st22" cx="106.1" cy="145.5" r="12.9"/>
				<path class="st22" d="M143.8,166.1c-2.7-11-11.3-29.2,20.6-44.5s77.1-34.1,83.2-37.4c6.1-3.3,12.6,9.1,14.8,12.9
					c2.2,3.8,12.2,11.1-1,16.9c-13.2,5.8-40.2,15.5-55.5,25.3c-15.3,9.8-50.4,32.8-56.5,33.5C145.8,173.3,144.5,169,143.8,166.1z"/>
			</g>
			<path class="st25" d="M266.7,186.3c-5.4,3-23,10.1-46,11c-23,0.9-31.9-0.2-43.7-3c-3.7-0.9-4.8,4.2-5,9.3
				c-15.3,1.3-37.2-0.9-58-24.7c-5.3-5.4-8.8,15.9-10.2,17.9c-1.4,2,3.1,12.1,15.6,14.3c11.6,2,34.2,7.5,52.9,0.1c0,0.1,0,0.2,0,0.2
				c0.1,0.6,0.3,1.2,0.7,1.7c-6.8,2.4-19.7,6.6-33.4,6.6c-16,0.1-34.6-7.2-42.2-9.3c-7.6-2.1-17.5,10.1-20.5,14.5
				c-3,4.4-8.3,14.4,8.6,13.4c16.5-1,65.9-6.6,90.1-22.6c4.4,3.4,12.3,6.4,17.6,7.7c7.6,1.8,57,0.1,68.7-6.9
				c11.7-7,10.5-5.8,9.9-11.7C271.5,198.9,272,183.2,266.7,186.3z"/>
		</g>
	</g>
</g>
</svg>
