<?xml version="1.0" encoding="UTF-8" standalone="no"?>
<svg
   xmlns:dc="http://purl.org/dc/elements/1.1/"
   xmlns:cc="http://creativecommons.org/ns#"
   xmlns:rdf="http://www.w3.org/1999/02/22-rdf-syntax-ns#"
   xmlns:svg="http://www.w3.org/2000/svg"
   xmlns="http://www.w3.org/2000/svg"
   xmlns:sodipodi="http://sodipodi.sourceforge.net/DTD/sodipodi-0.dtd"
   xmlns:inkscape="http://www.inkscape.org/namespaces/inkscape"
   version="1.0"
   width="48"
   height="48"
   viewBox="0 0 36 36"
   preserveAspectRatio="xMidYMid meet"
   id="svg8"
   sodipodi:docname="application-interface.svg"
   inkscape:version="0.92.2 5c3e80d, 2017-08-06">
  <defs
     id="defs12" />
  <sodipodi:namedview
     pagecolor="#ffffff"
     bordercolor="#666666"
     borderopacity="1"
     objecttolerance="10"
     gridtolerance="10"
     guidetolerance="10"
     inkscape:pageopacity="0"
     inkscape:pageshadow="2"
     inkscape:window-width="1393"
     inkscape:window-height="915"
     id="namedview10"
     showgrid="false"
     units="px"
     inkscape:zoom="16.492323"
     inkscape:cx="8.0822332"
     inkscape:cy="21.70707"
     inkscape:window-x="0"
     inkscape:window-y="0"
     inkscape:window-maximized="0"
     inkscape:current-layer="svg8" />
  <metadata
     id="metadata2">
Created by potrace 1.12, written by Peter Selinger 2001-2015
<rdf:RDF>
  <cc:Work
     rdf:about="">
    <dc:format>image/svg+xml</dc:format>
    <dc:type
       rdf:resource="http://purl.org/dc/dcmitype/StillImage" />
    <dc:title />
  </cc:Work>
</rdf:RDF>
</metadata>
  <g
     transform="matrix(0.2191394,0,0,-0.2191394,1.1411727,37.424092)"
     id="g6"
     style="fill:#000000;stroke:none">
    <path
       d="M 77,116 C 64,103 41,90 25,87 L -5,83 24,81 c 16,0 39,-12 52,-26 28,-30 38,-31 64,-5 25,25 25,45 0,70 -26,26 -36,25 -63,-4 z m 57,-2 c 20,-20 20,-38 0,-58 -19,-20 -29,-20 -48,0 -20,20 -20,38 0,58 19,20 29,20 48,0 z"
       id="path4"
       inkscape:connector-curvature="0" />
  </g>
  <path
     style="fill:#00ffff;stroke-width:0.06063427"
     d="m 33.060337,37.84852 c -1.265527,-0.171963 -2.71624,-0.954663 -4.295754,-2.317679 -0.892142,-0.769861 -2.896542,-2.818839 -3.603664,-3.683812 -1.439574,-1.760931 -2.332205,-3.478798 -2.709561,-5.214547 -0.157813,-0.725906 -0.157945,-2.426009 -2.44e-4,-3.152982 0.544623,-2.510614 2.009127,-4.735439 5.10885,-7.761187 1.877323,-1.832521 3.174611,-2.746718 4.569822,-3.220349 0.742921,-0.252198 1.771845,-0.311612 2.526659,-0.145898 1.728131,0.379398 3.579865,1.713342 6.176241,4.449213 1.578677,1.663495 2.443295,2.822611 3.162446,4.239606 0.70525,1.389607 1.009535,2.599802 1.009535,4.015106 0,1.401716 -0.266403,2.486692 -0.960277,3.91091 -0.711047,1.459466 -1.560334,2.613466 -3.197814,4.345146 -2.919297,3.087237 -4.95897,4.434165 -6.897762,4.555038 -0.283466,0.01767 -0.68328,0.0093 -0.888477,-0.01857 z"
     id="path8"
     inkscape:connector-curvature="0"
     transform="scale(0.75)" />
  <path
     style="fill:#deffff;stroke-width:0.06063427"
     d="m 32.722117,37.766193 c -1.155974,-0.259365 -2.448184,-0.994508 -3.884772,-2.21006 -0.743901,-0.629442 -3.150678,-3.100339 -3.748693,-3.848563 -1.125746,-1.408509 -1.908416,-2.784827 -2.336655,-4.108987 -0.340982,-1.054351 -0.392229,-1.463517 -0.356029,-2.842571 0.03286,-1.251794 0.107026,-1.653157 0.496944,-2.689291 0.739315,-1.96459 2.594741,-4.410332 5.108495,-6.733797 1.391397,-1.28607 2.230806,-1.919403 3.170357,-2.392031 2.052031,-1.032245 3.808575,-0.85711 5.975338,0.595767 0.849967,0.569928 1.658035,1.272394 2.939072,2.554981 2.114354,2.116913 3.082766,3.362989 3.913241,5.035249 1.559912,3.141067 1.273324,6.168798 -0.889589,9.398312 -0.565,0.843619 -1.173397,1.582866 -2.259326,2.745251 -2.344665,2.509741 -4.353079,3.996745 -5.962839,4.41481 -0.640572,0.166361 -1.621414,0.203017 -2.165544,0.08093 z"
     id="path9"
     inkscape:connector-curvature="0"
     transform="scale(0.75)" />
</svg>
