<?xml version="1.0" encoding="UTF-8" standalone="no"?>
<svg
   xmlns:dc="http://purl.org/dc/elements/1.1/"
   xmlns:cc="http://creativecommons.org/ns#"
   xmlns:rdf="http://www.w3.org/1999/02/22-rdf-syntax-ns#"
   xmlns:svg="http://www.w3.org/2000/svg"
   xmlns="http://www.w3.org/2000/svg"
   xmlns:sodipodi="http://sodipodi.sourceforge.net/DTD/sodipodi-0.dtd"
   xmlns:inkscape="http://www.inkscape.org/namespaces/inkscape"
   version="1.0"
   width="48"
   height="48"
   viewBox="0 0 36 36"
   preserveAspectRatio="xMidYMid meet"
   id="svg8"
   sodipodi:docname="requirement.svg"
   inkscape:version="0.92.2 5c3e80d, 2017-08-06">
  <defs
     id="defs12" />
  <sodipodi:namedview
     pagecolor="#ffffff"
     bordercolor="#666666"
     borderopacity="1"
     objecttolerance="10"
     gridtolerance="10"
     guidetolerance="10"
     inkscape:pageopacity="0"
     inkscape:pageshadow="2"
     inkscape:window-width="2560"
     inkscape:window-height="1319"
     id="namedview10"
     showgrid="false"
     units="px"
     inkscape:zoom="11.0625"
     inkscape:cx="6.4180791"
     inkscape:cy="10.666667"
     inkscape:window-x="0"
     inkscape:window-y="0"
     inkscape:window-maximized="1"
     inkscape:current-layer="svg8" />
  <metadata
     id="metadata2">
Created by potrace 1.10, written by Peter Selinger 2001-2011
<rdf:RDF>
  <cc:Work
     rdf:about="">
    <dc:format>image/svg+xml</dc:format>
    <dc:type
       rdf:resource="http://purl.org/dc/dcmitype/StillImage" />
    <dc:title></dc:title>
  </cc:Work>
</rdf:RDF>
</metadata>
  <g
     transform="matrix(0.22372881,0,0,-0.22372881,0.33898305,37.830485)"
     id="g6"
     style="fill:#000000;stroke:none">
    <path
       d="M 20,90 C 9,69 0,48 0,45 c 0,-3 27,-5 60,-5 59,0 60,0 80,40 11,21 20,42 20,45 0,3 -27,5 -60,5 -59,0 -60,0 -80,-40 z M 133,85 C 117,52 114,50 63,50 H 10 l 17,35 c 16,33 19,35 70,35 h 53 z"
       id="path4"
       inkscape:connector-curvature="0" />
  </g>
  <path
     style="fill:#ccccff;stroke-width:0.09039548"
     d="m 3.5435028,35.450982 c 0,-0.02106 1.0816954,-2.267996 2.4037675,-4.993202 4.8757717,-10.050494 5.3650107,-10.936764 6.9460187,-12.5829 1.473917,-1.534634 3.08346,-2.291915 5.791457,-2.724848 2.262047,-0.361639 3.02642,-0.383433 14.898411,-0.424775 l 11.553778,-0.04023 -0.13109,0.255228 c -0.0721,0.140376 -1.116947,2.289128 -2.321885,4.775003 -2.764617,5.703612 -4.285164,8.74407 -4.886534,9.77103 -0.995842,1.700599 -1.85582,2.772077 -2.876357,3.583757 -1.951249,1.551921 -4.298658,2.121334 -9.592255,2.326804 -2.198793,0.08535 -21.7853112,0.134019 -21.7853112,0.05414 z"
     id="path14"
     inkscape:connector-curvature="0"
     transform="scale(0.75)" />
</svg>
