<?xml version="1.0" encoding="UTF-8" standalone="no"?>
<svg
   xmlns:dc="http://purl.org/dc/elements/1.1/"
   xmlns:cc="http://creativecommons.org/ns#"
   xmlns:rdf="http://www.w3.org/1999/02/22-rdf-syntax-ns#"
   xmlns:svg="http://www.w3.org/2000/svg"
   xmlns="http://www.w3.org/2000/svg"
   xmlns:sodipodi="http://sodipodi.sourceforge.net/DTD/sodipodi-0.dtd"
   xmlns:inkscape="http://www.inkscape.org/namespaces/inkscape"
   version="1.0"
   width="48"
   height="48"
   viewBox="0 0 36 36"
   preserveAspectRatio="xMidYMid meet"
   id="svg8"
   sodipodi:docname="application-function.svg"
   inkscape:version="0.92.2 5c3e80d, 2017-08-06">
  <defs
     id="defs12" />
  <sodipodi:namedview
     pagecolor="#ffffff"
     bordercolor="#666666"
     borderopacity="1"
     objecttolerance="10"
     gridtolerance="10"
     guidetolerance="10"
     inkscape:pageopacity="0"
     inkscape:pageshadow="2"
     inkscape:window-width="1226"
     inkscape:window-height="897"
     id="namedview10"
     showgrid="false"
     units="px"
     inkscape:zoom="11.443156"
     inkscape:cx="4.5594082"
     inkscape:cy="20.798458"
     inkscape:window-x="0"
     inkscape:window-y="0"
     inkscape:window-maximized="0"
     inkscape:current-layer="svg8" />
  <metadata
     id="metadata2">
Created by potrace 1.12, written by Peter Selinger 2001-2015
<rdf:RDF>
  <cc:Work
     rdf:about="">
    <dc:format>image/svg+xml</dc:format>
    <dc:type
       rdf:resource="http://purl.org/dc/dcmitype/StillImage" />
    <dc:title />
  </cc:Work>
</rdf:RDF>
</metadata>
  <g
     transform="matrix(0.22452858,0,0,-0.22452858,1.6216545,36.505629)"
     id="g6"
     style="fill:#000000;stroke:none">
    <path
       d="M 42,127 C 16,100 10,86 10,50 V 6 L 43,38 76,70 108,38 140,5 v 46 c 0,38 -5,50 -33,77 L 74,160 Z M 130,61 V 25 L 103,53 76,80 48,53 20,26 v 34 c 0,23 9,43 27,62 l 27,28 28,-27 c 20,-19 28,-36 28,-62 z"
       id="path4"
       inkscape:connector-curvature="0" />
  </g>
  <path
     style="fill:#00ffff;stroke-width:0.08738848"
     d="m 37.156593,37.061711 c -2.099676,-2.178796 -5.717559,-5.857112 -8.03974,-8.174036 l -4.222146,-4.212589 -8.345599,8.051762 -8.3456002,8.051762 -0.029048,-0.387328 c -0.015976,-0.213031 -0.011035,-2.943441 0.010982,-6.067579 0.041583,-5.900707 0.069589,-6.40429 0.4665624,-8.389294 0.83517,-4.176143 2.8296888,-8.134782 6.0276418,-11.963414 0.485802,-0.581608 2.531437,-2.768099 4.545857,-4.8588682 2.014419,-2.0907694 3.984174,-4.1356598 4.377233,-4.5442009 l 0.714652,-0.7428021 0.81299,0.7934286 c 0.447145,0.4363856 2.444971,2.3674581 4.439613,4.291272 5.457318,5.2635316 6.397943,6.2844046 7.916249,8.5915966 1.744979,2.651638 2.754196,5.324515 3.283094,8.695153 0.181441,1.15632 0.193798,1.56143 0.225245,7.384327 0.0183,3.388488 0.0212,6.449195 0.0064,6.801572 l -0.02683,0.640684 z"
     id="path8"
     inkscape:connector-curvature="0"
     transform="scale(0.75)" />
  <path
     style="fill:#deffff;stroke-width:0.08738848"
     d="m 40.772897,40.797404 c -0.502879,-0.709274 -15.75974,-16.1478 -15.90642,-16.095818 -0.04169,0.01477 -3.773394,3.595589 -8.292674,7.957367 -4.519279,4.361777 -8.2632208,7.930504 -8.3198696,7.930504 -0.1251058,0 -0.033173,-10.679522 0.1064462,-12.36547 0.3823959,-4.617561 2.4911614,-9.477861 5.9717264,-13.763685 0.819073,-1.008573 1.982304,-2.258644 5.814222,-6.2482765 1.615727,-1.6822283 3.213811,-3.3495769 3.551297,-3.7052193 l 0.613611,-0.6466226 4.232957,4.1072179 c 6.55055,6.3559695 7.292825,7.1487475 8.782174,9.3796895 1.681122,2.518204 2.636994,4.851975 3.230991,7.888502 0.344888,1.763069 0.39906,3.178406 0.371934,9.717307 -0.02238,5.394185 -0.03886,6.010272 -0.156395,5.844504 z"
     id="path9"
     inkscape:connector-curvature="0"
     transform="scale(0.75)" />
</svg>
