<?xml version="1.0" encoding="UTF-8" standalone="no"?>
<svg
   xmlns:dc="http://purl.org/dc/elements/1.1/"
   xmlns:cc="http://creativecommons.org/ns#"
   xmlns:rdf="http://www.w3.org/1999/02/22-rdf-syntax-ns#"
   xmlns:svg="http://www.w3.org/2000/svg"
   xmlns="http://www.w3.org/2000/svg"
   xmlns:sodipodi="http://sodipodi.sourceforge.net/DTD/sodipodi-0.dtd"
   xmlns:inkscape="http://www.inkscape.org/namespaces/inkscape"
   version="1.0"
   width="48"
   height="48"
   viewBox="0 0 36 36"
   preserveAspectRatio="xMidYMid meet"
   id="svg8"
   sodipodi:docname="communication-network.svg"
   inkscape:version="0.92.2 5c3e80d, 2017-08-06">
  <defs
     id="defs12" />
  <sodipodi:namedview
     pagecolor="#ffffff"
     bordercolor="#666666"
     borderopacity="1"
     objecttolerance="10"
     gridtolerance="10"
     guidetolerance="10"
     inkscape:pageopacity="0"
     inkscape:pageshadow="2"
     inkscape:window-width="2560"
     inkscape:window-height="1319"
     id="namedview10"
     showgrid="false"
     units="px"
     inkscape:zoom="18.198486"
     inkscape:cx="9.8955446"
     inkscape:cy="16.019204"
     inkscape:window-x="0"
     inkscape:window-y="0"
     inkscape:window-maximized="1"
     inkscape:current-layer="svg8" />
  <metadata
     id="metadata2">
Created by potrace 1.12, written by Peter Selinger 2001-2015
<rdf:RDF>
  <cc:Work
     rdf:about="">
    <dc:format>image/svg+xml</dc:format>
    <dc:type
       rdf:resource="http://purl.org/dc/dcmitype/StillImage" />
    <dc:title />
  </cc:Work>
</rdf:RDF>
</metadata>
  <g
     transform="matrix(0.23366206,0,0,-0.23366206,-0.74060435,36.25116)"
     id="g6"
     style="fill:#000000;stroke:none">
    <path
       d="M 25,140 C 22,134 22,121 25,110 29,99 24,78 14,60 -10,20 6,-1 45,20 c 20,11 29,11 49,1 31,-17 49,-6 42,26 -4,15 0,35 11,53 23,40 6,60 -32,40 -21,-11 -30,-12 -45,-2 -24,15 -37,15 -45,2 z m 35,-15 c 0,-8 -7,-15 -15,-15 -8,0 -15,7 -15,15 0,8 7,15 15,15 8,0 15,-7 15,-15 z m 90,0 c 0,-8 -7,-15 -15,-15 -8,0 -15,7 -15,15 0,8 7,15 15,15 8,0 15,-7 15,-15 z M 119,106 C 134,88 124,66 94,49 76,40 64,39 52,46 27,62 27,76 51,99 c 26,24 52,27 68,7 z M 40,35 c 0,-8 -7,-15 -15,-15 -8,0 -15,7 -15,15 0,8 7,15 15,15 8,0 15,-7 15,-15 z m 90,0 c 0,-8 -7,-15 -15,-15 -8,0 -15,7 -15,15 0,8 7,15 15,15 8,0 15,-7 15,-15 z"
       id="path4"
       inkscape:connector-curvature="0" />
  </g>
  <path
     style="fill:#ccf4cc;stroke-width:0.05494963"
     d="M 5.9501614,41.98978 C 4.2194973,41.619005 2.8069141,40.291096 2.3110308,38.568789 2.1496762,38.00837 2.137864,36.901895 2.2873951,36.354786 2.7354163,34.715555 4.084878,33.367089 5.7303629,32.91436 c 0.4960843,-0.136489 1.6469512,-0.136489 2.1430354,0 1.1220445,0.308713 2.1650957,1.068262 2.7976607,2.037254 1.111652,1.702881 1.010656,3.716097 -0.267088,5.324002 -0.5971349,0.751431 -1.6047715,1.419683 -2.5030978,1.660022 -0.4548254,0.121685 -1.5000329,0.150694 -1.9507118,0.05414 z"
     id="path14"
     inkscape:connector-curvature="0"
     transform="scale(0.75)" />
  <path
     style="fill:#ccf4cc;stroke-width:0.05494963"
     d="m 33.946996,41.981848 c -1.173707,-0.261671 -2.286138,-1.030753 -2.96248,-2.048116 -0.977766,-1.47077 -1.043268,-3.18988 -0.180332,-4.732888 0.319844,-0.57191 1.179585,-1.437118 1.766653,-1.777886 1.352314,-0.784962 2.881385,-0.839075 4.250849,-0.150435 1.625634,0.817455 2.648605,2.426714 2.647362,4.164628 -0.0014,1.960527 -1.343113,3.764048 -3.283211,4.41327 -0.46081,0.154203 -0.62727,0.181813 -1.194798,0.198173 -0.459016,0.01323 -0.776284,-0.0071 -1.044043,-0.06675 z"
     id="path16"
     inkscape:connector-curvature="0"
     transform="scale(0.75)" />
  <path
     style="fill:#ccf4cc;stroke-width:0.05494963"
     d="m 40.321153,13.966425 c -1.316167,-0.26167 -2.413418,-1.006365 -3.145281,-2.134676 -0.508321,-0.783677 -0.727663,-1.525227 -0.728283,-2.4621766 -8.27e-4,-1.2498189 0.497318,-2.3715893 1.46339,-3.2954012 0.668317,-0.6390811 1.330743,-1.0038061 2.201291,-1.2120082 0.633506,-0.1515105 1.601085,-0.1240988 2.187069,0.06196 1.597224,0.5071428 2.854523,1.804483 3.274593,3.3788789 0.155064,0.5811714 0.167059,1.537194 0.0262,2.0880861 -0.422773,1.653407 -1.759151,3.030083 -3.386153,3.488261 -0.530408,0.149367 -1.38237,0.188561 -1.892823,0.08708 z"
     id="path18"
     inkscape:connector-curvature="0"
     transform="scale(0.75)" />
  <path
     style="fill:#ccf4cc;stroke-width:0.05494963"
     d="M 12.369973,13.992788 C 10.800675,13.704897 9.4850043,12.6847 8.812444,11.234209 8.6955229,10.982048 8.5557918,10.602644 8.5019304,10.391088 8.3738855,9.8881549 8.3717456,8.9368084 8.4974961,8.4196973 8.8957331,6.7820676 10.16082,5.4440329 11.802297,4.9243336 12.336033,4.7553503 13.297713,4.7132339 13.878434,4.83341 c 2.13681,0.4421983 3.775998,2.4010342 3.775998,4.5123329 0,0.6792951 -0.06904,1.0780691 -0.282852,1.6337761 -0.535067,1.390657 -1.849031,2.558836 -3.288874,2.923974 -0.423137,0.107306 -1.350894,0.155675 -1.712733,0.08929 z"
     id="path20"
     inkscape:connector-curvature="0"
     transform="scale(0.75)" />
</svg>
