<?xml version="1.0" encoding="UTF-8" standalone="no"?>
<svg
   xmlns:dc="http://purl.org/dc/elements/1.1/"
   xmlns:cc="http://creativecommons.org/ns#"
   xmlns:rdf="http://www.w3.org/1999/02/22-rdf-syntax-ns#"
   xmlns:svg="http://www.w3.org/2000/svg"
   xmlns="http://www.w3.org/2000/svg"
   xmlns:sodipodi="http://sodipodi.sourceforge.net/DTD/sodipodi-0.dtd"
   xmlns:inkscape="http://www.inkscape.org/namespaces/inkscape"
   version="1.0"
   width="48"
   height="48"
   viewBox="0 0 36 36"
   preserveAspectRatio="xMidYMid meet"
   id="svg8"
   sodipodi:docname="gap.svg"
   inkscape:version="0.92.2 5c3e80d, 2017-08-06">
  <defs
     id="defs12" />
  <sodipodi:namedview
     pagecolor="#ffffff"
     bordercolor="#666666"
     borderopacity="1"
     objecttolerance="10"
     gridtolerance="10"
     guidetolerance="10"
     inkscape:pageopacity="0"
     inkscape:pageshadow="2"
     inkscape:window-width="1789"
     inkscape:window-height="1033"
     id="namedview10"
     showgrid="false"
     units="px"
     inkscape:zoom="12.642857"
     inkscape:cx="6.3100274"
     inkscape:cy="18.824859"
     inkscape:window-x="0"
     inkscape:window-y="0"
     inkscape:window-maximized="0"
     inkscape:current-layer="svg8" />
  <metadata
     id="metadata2">
Created by potrace 1.12, written by Peter Selinger 2001-2015
<rdf:RDF>
  <cc:Work
     rdf:about="">
    <dc:format>image/svg+xml</dc:format>
    <dc:type
       rdf:resource="http://purl.org/dc/dcmitype/StillImage" />
    <dc:title></dc:title>
  </cc:Work>
</rdf:RDF>
</metadata>
  <g
     transform="matrix(0.24110169,0,0,-0.24110169,-1.1848525,37.283918)"
     id="g6"
     style="fill:#000000;stroke:none">
    <path
       d="M 32,123 C 17,107 5,88 5,80 5,58 56,10 80,10 c 24,0 75,48 75,70 0,22 -51,70 -75,70 -11,0 -33,-12 -48,-27 z m 79,7 c 33,-18 21,-30 -31,-30 -51,0 -64,11 -32,29 22,13 39,13 63,1 z m 29,-50 c 0,-6 -27,-10 -60,-10 -33,0 -60,4 -60,10 0,6 27,10 60,10 33,0 60,-4 60,-10 z M 130,50 C 130,30 82,16 55,28 15,46 26,60 80,60 c 28,0 50,-5 50,-10 z"
       id="path4"
       inkscape:connector-curvature="0" />
  </g>
  <path
     style="fill:#ffccff;stroke-width:0.07909604"
     d="M 21.65466,42.018649 C 19.009674,41.770702 17.179297,41.230963 14.555233,39.925183 11.404231,38.357189 9.3292034,36.802826 8.6963769,35.536428 7.8686581,33.880016 9.039691,32.543953 12.088701,31.666035 c 1.630004,-0.469336 3.447377,-0.762313 6.274413,-1.011491 1.933486,-0.17042 8.657468,-0.196088 10.647478,-0.04065 5.662504,0.442305 9.74708,1.381674 10.86608,2.498976 l 0.30769,0.307224 -0.04323,0.571554 c -0.167396,2.213357 -2.457908,4.492092 -6.068397,6.037199 -2.136528,0.914325 -4.652699,1.571588 -7.19774,1.880163 -1.191437,0.144455 -4.179472,0.207209 -5.220339,0.109635 z"
     id="path14"
     inkscape:connector-curvature="0"
     transform="scale(0.75)" />
  <path
     style="fill:#ffccff;stroke-width:0.07909604"
     d="M 18.886299,27.069685 C 13.903597,26.82992 9.8149828,26.30883 7.3534314,25.599833 5.9811481,25.204577 4.8862985,24.520731 4.8862985,24.058857 c 0,-0.564428 0.7349928,-1.095304 2.1622564,-1.56177 6.3561231,-2.077344 24.9878681,-2.265879 32.9967711,-0.333894 5.51597,1.330616 4.039585,3.249291 -3.283321,4.266927 -1.466394,0.203779 -3.147391,0.370344 -5.338983,0.529023 -2.017783,0.146095 -10.283293,0.218976 -12.536723,0.110542 z"
     id="path16"
     inkscape:connector-curvature="0"
     transform="scale(0.75)" />
  <path
     style="fill:#ffccff;stroke-width:0.07909604"
     d="M 19.439971,17.416004 C 11.919626,17.016898 7.9880815,15.580366 8.3219984,13.353649 8.5096125,12.102548 10.170565,10.48642 13.025448,8.7771312 c 3.520996,-2.1081067 5.857827,-3.0534651 8.66876,-3.5069223 1.031083,-0.1663333 3.274417,-0.1860455 4.310735,-0.037878 4.360156,0.6233916 9.924643,3.2248592 12.622126,5.9010021 0.986767,0.978961 1.328439,1.588127 1.328439,2.368469 0,0.392637 -0.04336,0.567561 -0.212025,0.855367 -0.986729,1.683725 -4.739008,2.71233 -11.167919,3.061438 -1.690874,0.09182 -7.386974,0.0902 -9.135593,-0.0026 z"
     id="path18"
     inkscape:connector-curvature="0"
     transform="scale(0.75)" />
</svg>
