<?xml version="1.0" encoding="UTF-8" standalone="no"?>
<svg
   xmlns:dc="http://purl.org/dc/elements/1.1/"
   xmlns:cc="http://creativecommons.org/ns#"
   xmlns:rdf="http://www.w3.org/1999/02/22-rdf-syntax-ns#"
   xmlns:svg="http://www.w3.org/2000/svg"
   xmlns="http://www.w3.org/2000/svg"
   xmlns:sodipodi="http://sodipodi.sourceforge.net/DTD/sodipodi-0.dtd"
   xmlns:inkscape="http://www.inkscape.org/namespaces/inkscape"
   version="1.0"
   width="48"
   height="48"
   viewBox="0 0 36 36"
   preserveAspectRatio="xMidYMid meet"
   id="svg14"
   sodipodi:docname="resource.svg"
   inkscape:version="0.92.2 5c3e80d, 2017-08-06">
  <defs
     id="defs18" />
  <sodipodi:namedview
     pagecolor="#ffffff"
     bordercolor="#666666"
     borderopacity="1"
     objecttolerance="10"
     gridtolerance="10"
     guidetolerance="10"
     inkscape:pageopacity="0"
     inkscape:pageshadow="2"
     inkscape:window-width="2560"
     inkscape:window-height="1319"
     id="namedview16"
     showgrid="false"
     units="px"
     inkscape:zoom="11.0625"
     inkscape:cx="6.4180791"
     inkscape:cy="10.666667"
     inkscape:window-x="0"
     inkscape:window-y="0"
     inkscape:window-maximized="1"
     inkscape:current-layer="svg14" />
  <metadata
     id="metadata2">
Created by potrace 1.10, written by Peter Selinger 2001-2011
<rdf:RDF>
  <cc:Work
     rdf:about="">
    <dc:format>image/svg+xml</dc:format>
    <dc:type
       rdf:resource="http://purl.org/dc/dcmitype/StillImage" />
    <dc:title></dc:title>
  </cc:Work>
</rdf:RDF>
</metadata>
  <g
     transform="matrix(0.22653867,0,0,-0.22653867,0.1497749,35.841413)"
     id="g12"
     style="fill:#000000;stroke:none">
    <path
       d="M 4,127 C 1,119 0,93 2,69 L 5,25 h 63 c 58,0 65,2 80,28 16,25 16,29 0,55 -15,24 -23,27 -77,30 C 25,140 8,137 4,127 Z M 130,80 V 30 H 70 10 v 50 50 h 60 60 z m 17,-12 c -3,-7 -5,-2 -5,12 0,14 2,19 5,13 2,-7 2,-19 0,-25 z"
       id="path4"
       inkscape:connector-curvature="0" />
    <path
       d="m 32,80 c 0,-19 2,-27 5,-17 2,9 2,25 0,35 -3,9 -5,1 -5,-18 z"
       id="path6"
       inkscape:connector-curvature="0" />
    <path
       d="m 52,80 c 0,-19 2,-27 5,-17 2,9 2,25 0,35 -3,9 -5,1 -5,-18 z"
       id="path8"
       inkscape:connector-curvature="0" />
    <path
       d="m 72,80 c 0,-19 2,-27 5,-17 2,9 2,25 0,35 -3,9 -5,1 -5,-18 z"
       id="path10"
       inkscape:connector-curvature="0" />
  </g>
  <path
     style="fill:#ffdb9d;stroke-width:0.09039548"
     d="M 3.2723164,23.60226 V 8.5514124 H 20.771577 38.270838 l 0.580109,0.2887106 0.580109,0.2887106 -0.02287,14.5135494 -0.02287,14.513549 -0.497175,0.245686 -0.497176,0.245687 -17.559322,0.0029 -17.5593216,0.0029 z m 7.8645826,5.898305 c 0.765132,-1.650775 0.966041,-6.935687 0.401204,-10.553672 -0.158187,-1.013251 -0.519625,-1.837769 -0.824642,-1.881192 -0.576501,-0.08207 -0.8523104,2.033171 -0.8523104,6.536559 0,2.954438 0.098027,4.609909 0.3341704,5.643452 0.149183,0.652934 0.252034,0.819825 0.505243,0.819825 0.125823,0 0.247488,-0.157534 0.436335,-0.564972 z m 5.955784,0.223268 c 0.824835,-1.616809 1.073221,-7.001056 0.495276,-10.736076 -0.176095,-1.13803 -0.512915,-1.893972 -0.843886,-1.893972 -0.316128,0 -0.513611,0.586696 -0.695656,2.0667 -0.184767,1.50213 -0.210084,6.973383 -0.03972,8.583845 0.118242,1.117746 0.309312,2.002409 0.475816,2.203033 0.182779,0.220236 0.427704,0.130214 0.60817,-0.22353 z m 5.964401,0.146284 c 0.80456,-1.288306 1.136862,-6.11485 0.686994,-9.978287 -0.161489,-1.386852 -0.271502,-1.885412 -0.527662,-2.391265 -0.288976,-0.570655 -0.547015,-0.595445 -0.774134,-0.07437 -0.706146,1.620098 -0.729391,10.556736 -0.03199,12.299705 0.157782,0.394339 0.449913,0.459475 0.646795,0.144216 z"
     id="path24"
     inkscape:connector-curvature="0"
     transform="scale(0.75)" />
</svg>
