<?xml version="1.0" encoding="utf-8"?>
<!-- Generator: Adobe Illustrator 22.0.0, SVG Export Plug-In . SVG Version: 6.00 Build 0)  -->
<svg version="1.1" id="Calque_1" xmlns="http://www.w3.org/2000/svg" xmlns:xlink="http://www.w3.org/1999/xlink" x="0px" y="0px"
	 viewBox="0 0 432 432" style="enable-background:new 0 0 432 432;" xml:space="preserve">
<style type="text/css">
	.st0{fill:#C51618;}
	.st1{fill:#BE1622;}
	.st2{fill:#97191D;}
	.st3{fill:#BA1818;}
	.st4{fill:#DADADA;}
	.st5{fill:#F39200;}
	.st6{fill:#EDEDED;}
	.st7{fill:#C6C6C6;}
	.st8{fill:#B51922;}
	.st9{fill:#FFFFFF;}
	.st10{fill:#95C11F;}
	.st11{fill:#FBF18E;}
	.st12{fill:#A3195B;}
	.st13{fill:#CE9445;}
	.st14{fill:#C07912;}
	.st15{fill:#006633;}
	.st16{fill:#A91917;}
	.st17{fill:#A31A17;}
	.st18{fill:#CCCCCC;}
	.st19{fill:#AB1918;}
	.st20{fill:#BA7321;}
	.st21{fill:#4D3134;}
	.st22{fill:#BD1824;}
	.st23{fill:#71484C;}
	.st24{fill:#020203;}
	.st25{fill:#008D36;}
	.st26{fill:#027835;}
	.st27{fill:#005229;}
	.st28{fill:#A91921;}
	.st29{fill:#9E1920;}
	.st30{fill:#DB9646;}
	.st31{fill:#F8EAD9;}
	.st32{fill:#FFF1E0;}
	.st33{fill:#DED2C2;}
	.st34{fill:#3C3C3B;}
	.st35{fill:#A61E19;}
	.st36{fill:#3AAA35;}
	.st37{fill:#1A1A1A;}
	.st38{fill:#B01E19;}
	.st39{fill:#F9C733;}
	.st40{fill:#E0BC97;}
	.st41{fill:#CC9F71;}
	.st42{fill:#1D71B8;}
	.st43{fill:#DA907B;}
	.st44{fill:#BA874D;}
	.st45{fill:#A01E2A;}
	.st46{fill:#F2F2F2;}
	.st47{fill:#F4D5AB;}
	.st48{fill:#87181A;}
	.st49{fill:#FAB62E;}
	.st50{fill:#F7A509;}
	.st51{fill:#E94E1B;}
	.st52{fill:#634E42;}
	.st53{fill:#1C1D3B;}
	.st54{fill:#936037;}
	.st55{fill:#7D4E24;}
	.st56{fill:#EDF6F7;}
	.st57{fill:#432918;}
	.st58{fill:#683C11;}
	.st59{fill:#FDD110;}
	.st60{fill:#E30613;}
	.st61{fill:#2D2E83;}
	.st62{fill:#F8AC14;}
	.st63{fill:#C5E5EE;}
	.st64{fill:#EE7476;}
	.st65{fill:#706F6F;}
</style>
<g>
	<g>
		<g>
			<path class="st15" d="M248.1,64.8c9.4,35.8,23.7,33.8,23.7,33.8c-20.5,37,9.8,58.1,9.8,58.1c-35.8,7.7-45.3,50.5-45.3,50.5
				s-2.3-43.9-36.4-57.3c0,0,33.3-15.8,19.2-55.7C219.2,94.2,233,98.6,248.1,64.8z"/>
			<path class="st25" d="M246.6,102.9C246.5,102.9,246.5,102.9,246.6,102.9C246.5,102.9,246.5,102.9,246.6,102.9
				c-0.1,0.1-0.1,0.1-0.1,0.2c-1.2,7.3-2.3,14.6-3.5,22c-0.3-3.3-0.6-6.5-1.1-9.8c-0.2-1.1-0.3-6.4-1.8-6c-0.3,0.1-0.6,0.4-0.7,0.7
				c-0.3,0.6,0.2,1.4,0.3,2c0.2,1.1,0.4,2.1,0.6,3.2c0.6,3.8,0.9,7.6,1.3,11.5c0.2,2,0.6,4.1,0.3,6.1c-2.4,16.5-0.9,5.6-2,13.7
				c-2.1-5.8-3.5-11.7-4.3-17.8c-0.1-0.8-0.5-2.6-1.5-1.2c-0.4,0.5-0.2,1-0.1,1.6c0.2,1.7,0.5,3.4,0.8,5c3.1,17.6,5.7,10.3,3.4,25.3
				c-10.9-8.9-10.2-11.3-11.2-9.1c-0.5,1.1,1.3,2.7,1.9,3.4c1.7,1.8,3.7,3.4,5.6,5c0.8,0.7,2.2,1.4,2.8,2.3c0.4,0.5,0.2,0.3,0.3,1
				c0.3,2,0.5,19.1,3.2,18.7c1.8-0.3,0.1-2.1-0.7-7.6c-0.5-3.5-1.2-7.8-0.5-11.4c0.4-2,2.6-3.9,3.8-5.5c1.7-2.3,3.4-4.6,5.1-7
				c0.8-1.2,1.7-2.5,2.5-3.7c0.1-0.2,1.4-1.6,1.1-2.1c-0.4-0.7-0.9-0.3-1.4,0c-0.8,0.7-1.5,2.2-2.1,3.1c-0.9,1.4-1.8,2.7-2.8,4.1
				c-1.9,2.7-4,5.4-6.1,8.1c0.2-2.1,0.4-4.2,0.7-6.3c0.4-2.6,0.3-5.7,2.1-7.7c2.8-3.2,5.4-6.1,7.5-9.8c0.3-0.6,4-6.9,1.8-6.3
				c-0.6,0.2-0.9,1.1-1.1,1.5c-1,2.3-2.1,4.6-3.4,6.7c-0.4,0.6-4.8,6.7-5.2,6.4c-0.2-0.2,0.3-2.6,0.4-3.2c0.3-2.6,0.6-5.2,1-7.7
				c0.3-2.4,1-4.2,2.2-6.3c1.2-2,2.3-4,3.4-6c1-2,2-4.1,2.9-6.2c0.3-0.8,0.6-1.6,0.9-2.5c0.2-0.7,1.2-2.6,1-3.3
				c-0.3-1-0.7-0.8-1.1-0.2c0,0-0.1,0.1-0.1,0.1c-0.6,1-1.1,2.7-1.1,2.8c-1.7,5.2-4.2,9.9-7,14.6c0.9-5.6,1.8-11.2,2.7-16.9
				c0.2-1.5,0.5-3,0.7-4.5c0.1-0.4,0.3-1.2-0.1-1.5C247.3,101.9,246.8,102.4,246.6,102.9z"/>
		</g>
		<g>
			<path class="st15" d="M72.8,306.7c35.8-4.4,39.2,9.3,39.2,9.3c26.2-31.9,56.2-12.1,56.2-12.1c-6-35.2,29.5-59.3,29.5-59.3
				s-40.6,13.7-65.1-12.3c0,0-2.3,35.9-43.5,37.5C89.1,269.9,98,280.8,72.8,306.7z"/>
			<path class="st25" d="M106.8,291.5C106.8,291.5,106.8,291.5,106.8,291.5C106.8,291.5,106.8,291.5,106.8,291.5
				c0.1-0.1,0.1-0.1,0.1-0.1c6.2-3.7,12.4-7.4,18.7-11.1c-3.1,0.9-6.2,1.8-9.3,2.5c-1.1,0.3-5.9,2-6.1,0.5c0-0.3,0.2-0.7,0.3-0.9
				c0.4-0.5,1.4-0.4,1.9-0.5c1-0.2,2.1-0.4,3.1-0.7c3.7-0.8,7.3-1.9,10.9-3c1.9-0.6,3.9-0.9,5.6-1.9c14-8.2,4.8-2.9,11.7-6.7
				c-6,0.2-11.9,1-17.7,2.5c-0.8,0.2-2.6,0.5-1.7-0.9c0.3-0.5,0.8-0.5,1.4-0.7c1.6-0.4,3.2-0.8,4.9-1.1c17.1-3.5,11.4,1.5,24.2-6
				c-12-6.7-13.9-5.2-12.3-6.9c0.8-0.8,2.9,0.2,3.7,0.5c2.2,0.9,4.4,2.1,6.5,3.2c0.9,0.5,2.1,1.5,3.1,1.7c0.6,0.1,0.4,0.1,1-0.1
				c1.9-0.4,17.5-6.4,18.1-3.9c0.4,1.7-1.9,0.9-7.2,2.1c-3.4,0.8-7.5,1.7-10.5,3.7c-1.7,1.1-2.6,3.7-3.6,5.5
				c-1.4,2.4-2.9,4.8-4.5,7.1c-0.8,1.2-1.6,2.4-2.5,3.6c-0.2,0.2-0.9,1.8-1.5,1.8c-0.8-0.1-0.6-0.7-0.4-1.2c0.3-1,1.5-2.1,2.1-3
				c0.9-1.3,1.8-2.7,2.7-4c1.8-2.8,3.5-5.6,5.1-8.4c-1.8,0.9-3.7,1.9-5.4,2.9c-2.2,1.3-5.1,2.3-6.2,4.7c-1.9,3.6-3.5,7.1-6.1,10.3
				c-0.4,0.5-4.8,6.1-5.1,4c-0.1-0.6,0.7-1.2,1-1.5c1.8-1.7,3.4-3.5,4.8-5.5c0.4-0.6,4.3-6.8,3.9-7c-0.3-0.1-2.2,1.2-2.8,1.5
				c-2.2,1.2-4.5,2.4-6.7,3.7c-2,1.2-3.4,2.4-4.9,4.3c-1.4,1.8-2.8,3.5-4.2,5.2c-1.4,1.7-2.9,3.3-4.5,4.8c-0.6,0.6-1.3,1.2-1.9,1.7
				c-0.5,0.5-1.9,2-2.6,2.1c-1.1,0.1-1-0.3-0.6-0.9c0,0,0-0.1,0.1-0.1c0.7-0.9,2-1.9,2.1-2c4.1-3.4,7.5-7.4,10.7-11.6
				c-4.8,2.8-9.6,5.7-14.3,8.5c-1.3,0.8-2.5,1.5-3.8,2.3c-0.4,0.2-0.9,0.7-1.4,0.4C106.2,292.5,106.5,291.9,106.8,291.5z"/>
		</g>
		<g>
			<path class="st15" d="M355.2,352.8c-33.8-13-40.4-0.4-40.4-0.4c-17.8-37.4-51.7-25.3-51.7-25.3c14.3-32.8-14.4-64.8-14.4-64.8
				s36.2,23.2,66.3,3.7c0,0-6.5,35.5,33.3,47C348.3,313,337,321.5,355.2,352.8z"/>
			<path class="st25" d="M325.9,329.9C325.9,329.8,325.8,329.8,325.9,329.9C325.8,329.8,325.8,329.8,325.9,329.9
				c-0.1-0.1-0.1-0.1-0.1-0.2c-5.2-5.1-10.3-10.2-15.5-15.3c2.8,1.6,5.6,3.2,8.4,4.7c1,0.5,5.2,3.4,5.8,1.9c0.1-0.3,0-0.7-0.1-0.9
				c-0.3-0.5-1.2-0.7-1.8-0.9c-1-0.4-1.9-0.9-2.9-1.4c-3.4-1.7-6.6-3.6-9.8-5.5c-1.7-1-3.6-1.8-5-3.2c-11.7-11.3-4-3.9-9.7-9.4
				c5.8,1.6,11.3,3.9,16.6,6.7c0.7,0.4,2.4,1.1,1.9-0.5c-0.2-0.6-0.7-0.7-1.2-1c-1.5-0.8-3-1.5-4.5-2.2
				c-15.7-7.5-11.4-1.3-22.1-11.7c13.3-3.6,14.8-1.7,13.6-3.7c-0.6-1-2.9-0.5-3.8-0.4c-2.4,0.4-4.8,1-7.1,1.6
				c-1,0.3-2.4,0.9-3.5,0.9c-0.6,0-0.4,0-1-0.3c-1.7-0.9-15.5-10.5-16.7-8.1c-0.8,1.6,1.6,1.3,6.5,3.8c3.1,1.6,6.9,3.5,9.3,6.1
				c1.4,1.5,1.6,4.2,2.2,6.2c0.8,2.7,1.7,5.3,2.7,8c0.5,1.4,1,2.7,1.5,4.1c0.1,0.2,0.5,2,1,2.1c0.8,0.1,0.8-0.6,0.7-1.1
				c-0.1-1.1-0.9-2.4-1.3-3.4c-0.6-1.5-1.1-3-1.6-4.5c-1.1-3.1-2-6.3-2.9-9.4c1.6,1.3,3.1,2.7,4.6,4.1c1.9,1.8,4.4,3.5,5,6.1
				c0.9,4,1.7,7.8,3.5,11.5c0.3,0.6,3.2,7.1,4,5.1c0.2-0.6-0.4-1.3-0.6-1.7c-1.3-2.1-2.5-4.3-3.4-6.6c-0.3-0.6-2.5-7.6-2.1-7.7
				c0.3-0.1,1.9,1.7,2.3,2.1c1.9,1.7,3.8,3.4,5.6,5.2c1.7,1.6,2.8,3.2,3.7,5.3c0.9,2.1,1.8,4.1,2.8,6.1c1,2,2.1,3.9,3.3,5.8
				c0.5,0.7,0.9,1.4,1.4,2.1c0.4,0.6,1.4,2.4,2.1,2.7c1,0.4,1.1-0.1,0.8-0.8c0,0,0-0.1-0.1-0.1c-0.4-1-1.5-2.4-1.6-2.4
				c-3.2-4.3-5.5-9-7.6-13.9c4,3.9,7.9,7.8,11.9,11.7c1.1,1,2.1,2.1,3.2,3.1c0.3,0.3,0.7,0.9,1.2,0.8
				C326.2,331,326,330.3,325.9,329.9z"/>
		</g>
	</g>
	<g>
		<g>
			<g>
				<circle class="st1" cx="262.1" cy="230.3" r="27.1"/>
				<path class="st48" d="M291.7,219.5c1.3-0.8,2.5-2.6,1.8-4.2c-1.6-3.6-5.9-0.9-8.3,0.9c-0.5-0.8-1-1.5-1.5-2.2c2-1.6,4.2-3,6.9-3
					c2.3,0,4.7,1.2,5.5,3.4c0.8,2.2,0,4.8-1.7,6.4c-1.6,1.6-3.9,2.2-6.2,2.3c-0.2-0.9-0.5-1.8-0.9-2.6
					C288.9,220.5,290.4,220.3,291.7,219.5z"/>
				<path class="st49" d="M281.1,249.6c-2.8,2.8-6.2,4.9-9.9,6.2c-3.9-11.6-13.4-33-23.1-49.6c3.4-2,7.4-3.1,12-3.2
					C268.8,218.3,276.8,237.3,281.1,249.6z"/>
				<path class="st48" d="M239.9,232.2c0.5-1.7,3.1-1.1,2.6,0.5c-0.5,1.8-1,3.5-1.6,5.2c2,0.5,4.1,1.1,6.1,1.5
					c1.7,0.4,1.1,3-0.5,2.6c-2.2-0.5-4.3-1.1-6.5-1.6c-0.4,1.1-0.9,2.2-1.3,3.3c-0.6-1-1.1-2.1-1.6-3.2c0.1-0.3,0.2-0.5,0.3-0.8
					c-0.2-0.1-0.5-0.1-0.7-0.2c-0.4-1-0.7-2-0.9-3c0.8,0.2,1.7,0.5,2.5,0.7C238.9,235.6,239.4,233.9,239.9,232.2z"/>
				<path class="st50" d="M254.6,213c9.7,1.1,10,1.6,9.7,2.5c0,0.6-2.7,6.8-2.9,7.4c6.8,2.8,12.2-1,4.9,10.8c8,1.9,9.6,0.8,4.2,11.3
					c8.9,1.8,9.3,0.1,6.6,7.9c-0.7,0.5-1.5,0.9-2.2,1.3c0.7-2.1,1.3-4.2,2-6.2c-0.4-0.1-7.8-1.5-8-1.8c-1.2-0.8,0.9-1.6,3.2-9.3
					c-11.5-3.3-7.9,0-4.1-10.7c-11.3-1.6-8.5-2.2-5.4-10.2c-0.3-0.1-9.4-1.4-9.5-1.7c-0.9-0.8,3.7-9.1,4-9.7
					c-0.8-0.2-1.7-0.5-2.5-0.7c1.3-0.3,2.6-0.5,4-0.6C259.8,204,257.7,205.7,254.6,213z"/>
			</g>
			<path class="st51" d="M359.1,199.9c-0.9-9-7.5-16.7-16.7-18c0,0-0.1,0-0.1,0c-4.4-0.5-9,0.5-12.4,3.5c-3.7,3.4-5.3,9.1-3.5,13.9
				c0.3,0.8,0.7,2,1.5,2.3c0.5,0.2,1.2,0.1,1.5-0.3c0.5-0.6-0.1-1.3-0.4-1.8c-0.5-1.1-0.9-2.4-1-3.6c-0.3-4.5,2.2-9,6.2-11.1
				c5.1-2.6,11.5-1.2,15.8,2.3c3.6,2.9,5.9,7.3,6.5,11.8c1.2,9.1-4.1,17.9-12.9,20.7c-6.8,2.2-13.7,1-20-2.1c-2.5-1.2-5-2.5-7.7-3
				c-2.6-0.5-5.3-0.3-7.8,0.5c-2.9-1.8-6.2-2-9.6-1.7c-2,0.2-3.9,0.6-5.9,1c-0.9,0.2-1.8,0.4-2.7,0.6c-0.5,0.1-1.3,0.1-1.7,0.5
				c-0.7,0.8,0.5,1.4,1.2,1.4c1.5,0,3-0.5,4.4-0.8c3.8-0.8,8.3-1.7,12.1-0.2c-3.3,1.6-6.3,4.9-4.8,8.9c1.2,3.2,5.1,4.1,8,2.6
				c3.2-1.7,3.8-5.4,2.3-8.5c-0.2-0.4-0.4-0.7-0.6-1.1c-0.1-0.1-0.9-1-0.9-1.1c0.1-0.7,3.6-0.4,4.1-0.3c2.5,0.3,4.8,1.4,7,2.4
				c4.4,2.1,8.8,3.7,13.7,3.9c4.5,0.2,9.2-0.6,13.2-2.6C355.5,216.1,359.9,208.2,359.1,199.9z M309.8,220.8c0.3,1.6,0,3.2-1.2,4.3
				c-1.9,1.8-4.6,1.3-5.4-1.2c-1-3.2,2.1-5.5,4.7-6.7C308.9,218.1,309.5,219.3,309.8,220.8z"/>
		</g>
		<g>
			<g>
				<circle class="st1" cx="205.5" cy="210" r="27.1"/>
				<path class="st48" d="M184,187c-0.8-1.3-1-3.5,0.3-4.6c3-2.5,5.7,1.9,7,4.6c0.8-0.5,1.6-0.9,2.4-1.3c-1.1-2.3-2.4-4.6-4.8-5.8
					c-2.1-1-4.7-1-6.5,0.6c-1.7,1.6-2.1,4.3-1.4,6.5c0.7,2.2,2.5,3.7,4.4,4.9c0.6-0.7,1.3-1.3,2-2C186.1,189.1,184.8,188.3,184,187z
					"/>
				<path class="st49" d="M179.9,218.6c1.3,3.7,3.3,7.1,6.1,10c8.7-8.5,26.9-23.4,43-33.8c-2.2-3.3-5.2-6.1-9.3-8.3
					C205,196.3,189.3,209.6,179.9,218.6z"/>
				<path class="st48" d="M224.5,221.7c0.3-1.7-2.2-2.4-2.6-0.7c-0.4,1.8-0.7,3.6-0.9,5.4c-2.1-0.4-4.1-0.9-6.1-1.4
					c-1.7-0.4-2.4,2.2-0.7,2.6c2.2,0.5,4.3,1,6.5,1.5c-0.1,1.2-0.2,2.4-0.3,3.6c1-0.7,2-1.4,2.9-2.2c0-0.3,0.1-0.6,0.1-0.9
					c0.2,0,0.5,0.1,0.7,0.1c0.8-0.7,1.5-1.5,2.2-2.3c-0.9-0.2-1.7-0.3-2.6-0.5C223.9,225.1,224.2,223.4,224.5,221.7z"/>
				<path class="st50" d="M220.1,198c-9.1-3.4-9.6-3.1-9.8-2.2c-0.2,0.5-0.7,7.3-0.7,7.9c-7.3-0.6-10.4-6.5-9.2,7.4
					c-8-1.9-8.9-3.7-8.9,8.2c-8.8-2.4-8.3-4.2-9.4,4.1c0.4,0.7,0.9,1.5,1.4,2.2c0.3-2.2,0.7-4.3,1-6.5c0.4,0.1,7.6,2.2,8,2
					c1.4-0.2,0-1.9,1.4-9.7c11.7,2.3,7,3.6,8.5-7.7c10.8,3.7,8.6,1.9,9.5-6.7c0.3,0.1,9,3,9.3,2.8c1.1-0.3,0.8-9.8,0.8-10.5
					c0.8,0.2,1.7,0.4,2.5,0.5c-1-0.8-2.1-1.6-3.3-2.4C219.5,187.6,220.6,190,220.1,198z"/>
			</g>
			<path class="st51" d="M167.4,180.2c3.4-5.1,3.7-11.7,1.8-17.4c-0.2-0.4-0.3-0.9-0.5-1.3c7.9,3.7,12.7,12.4,15.9,20.1
				c0.4,1.1,0.7,2.9,2.1,3.1c2.1,0.2,0.5-2.5,0.1-3.3c-1.8-4.5-4.1-8.8-7.1-12.6c-3.2-4.1-7.1-7.6-12-9.5c-2.6-5.6-5.4-11-7.4-16.8
				c-1.8-5.3-3.3-10.9-4.1-16.5c-1.3-10,0.8-21.9,10.8-26.7c4.4-2.1,9.7-2.5,14.2-0.7c4.5,1.8,7.9,5.6,9.5,10.1
				c1.5,4.2,1.6,8.9,0,13c-1.9,4.7-6.3,6.7-11.2,5.8c-4.4-0.8-9.7-4.5-9.1-9.7c0.1-1.1,0.6-2.1,1.3-3c0.5-0.6,1.5-1.2,0.8-1.9
				c-1.1-1.3-2.4,0.1-3.1,1c-2.5,3.5-1.2,8.1,1.5,11c2.9,3.2,7.6,4.8,11.9,4.8c11,0,13.3-13.4,10.1-21.7
				c-3.5-8.9-12.9-13.8-22.2-12.2c-10,1.7-16,10.7-17.1,20.3c-0.6,5.7,0.3,11.5,1.6,17.1c1.5,6,3.4,11.9,5.9,17.6
				c1.2,2.6,2.6,5.2,3.8,7.8c-2.5-0.5-5.1-0.5-7.6,0.3c-2.7,0.9-4.9,2.8-6.7,5c-3.3,4.1-6,9.9-4.5,15.2c1.2,4.3,5.2,7,9.5,7.3
				C160.5,186.6,164.8,184.1,167.4,180.2z M151.8,183.4c-5.2-3.3-3.8-10.3-1.3-14.9c1.4-2.6,3.3-5,5.8-6.6c2.9-1.9,6.3-2.2,9.6-1.4
				c2.3,5.4,3.1,11.2,0.5,16.6C163.8,182.4,157.5,186.7,151.8,183.4z"/>
		</g>
		<g>
			<g>
				<circle class="st1" cx="216.8" cy="269.5" r="27.1"/>
				<path class="st48" d="M209.1,300c-0.7,1.4-2.4,2.8-4,2.2c-3.7-1.2-1.5-5.8,0-8.4c-0.8-0.4-1.6-0.8-2.4-1.3
					c-1.4,2.2-2.6,4.5-2.3,7.1c0.3,2.3,1.7,4.5,4,5.1c2.3,0.6,4.8-0.5,6.2-2.3c1.4-1.8,1.8-4.1,1.7-6.4c-0.9-0.2-1.8-0.4-2.7-0.6
					C209.8,297.1,209.8,298.7,209.1,300z"/>
				<path class="st49" d="M237.9,286.4c2.4-3.1,4.2-6.7,5.1-10.5c-11.9-2.7-34.2-9.9-51.7-17.9c-1.6,3.6-2.3,7.7-1.9,12.3
					C205.5,277.3,225.3,283.3,237.9,286.4z"/>
				<path class="st48" d="M216.3,247.2c-1.6,0.6-0.8,3.2,0.8,2.6c1.7-0.7,3.4-1.4,5-2.1c0.7,2,1.5,3.9,2.2,5.9
					c0.6,1.6,3.1,0.8,2.6-0.8c-0.7-2.1-1.5-4.2-2.3-6.3c1.1-0.5,2.1-1.1,3.2-1.7c-1.1-0.5-2.2-0.9-3.4-1.2c-0.3,0.1-0.5,0.3-0.8,0.4
					c-0.1-0.2-0.2-0.5-0.3-0.7c-1-0.3-2.1-0.5-3.1-0.6c0.3,0.8,0.7,1.6,1,2.4C219.6,245.9,218,246.5,216.3,247.2z"/>
				<path class="st50" d="M198.8,263.7c2.1,9.5,2.6,9.8,3.5,9.4c0.6-0.1,6.5-3.4,7-3.7c3.5,6.4,0.2,12.3,11.2,3.8
					c2.7,7.8,1.8,9.5,11.7,3c2.7,8.7,1,9.3,8.5,5.7c0.4-0.8,0.8-1.5,1.1-2.3c-2,0.9-4,1.7-6,2.6c-0.1-0.4-2.3-7.6-2.6-7.8
					c-0.9-1.1-1.5,1-8.9,4.1c-4.4-11.1-0.8-7.8-11.1-3c-2.7-11-3.1-8.2-10.7-4.3c-0.1-0.3-2.4-9.2-2.7-9.3c-0.9-0.8-8.7,4.6-9.3,5
					c-0.3-0.8-0.6-1.6-0.9-2.4c-0.2,1.3-0.2,2.6-0.2,4C190.4,269.8,191.8,267.6,198.8,263.7z"/>
			</g>
			<path class="st51" d="M229.5,342.6c0,0-0.1,0-0.1-0.1c-3.3-1.9-7.1-2.2-10.8-0.9c-4.1,1.5-7.3,4.5-10,7.9
				c-7.4-7-12.4-17.3-12.6-27.5c-0.1-4.9,1-9.8,3.5-14c1.4-2.4,3.3-4.6,5.4-6.4c0.5-0.4,1.7-1,1.3-1.8c-0.3-0.6-1.2-0.8-1.8-0.7
				c-1,0.3-2.2,1.7-2.9,2.4c-1,1-1.8,2-2.6,3.1c-1.6,2.1-2.8,4.5-3.7,7c-1.7,4.9-2,10.2-1.2,15.4c0.8,5.7,3,11,6.2,15.8
				c1.9,2.8,4,5.4,6.5,7.7c0.7,0.7,0.3,1-0.3,1.7c-0.5,0.6-1,1.3-1.4,1.9c-1,1.3-2,2.6-3.1,3.8c-4.6,5.1-10.8,7.9-17.7,7.5
				c-6.8-0.4-13-3.9-16.9-9.5c-3.3-4.8-4.7-10.7-4.3-16.5c0.2-2.6,0.6-5.4,1.8-7.8c1-2,3.5-4.5,6-3.7c2.1,0.6,3.3,3.1,4.1,4.9
				c0.4,1,0.8,1.9,1.1,3c0.2,0.8,0.3,2.2,0.7,2.9c0.3,0.4,0.8,0.6,1.3,0.6c0.9-0.1,1-0.7,0.8-1.5c-0.4-2.1-1.1-4.2-2-6.1
				c-1.7-3.5-4.8-6.2-8.9-5.4c-4.7,0.9-6.4,6.1-7.1,10.2c-1.6,10.1,2.2,20.7,10.8,26.6c9.7,6.6,23.2,5.6,31.4-3c2.2-2.3,4-4.9,6-7.4
				c5.1,4.1,12.4,8.1,19,5.3c3.1-1.3,5.7-4.2,5.8-7.7C234,346.9,232.1,344.2,229.5,342.6z M230.4,353.2c-1.9,2.6-4.6,4-7.8,3.8
				c-3.3-0.3-6.4-1.9-9.1-3.7c-0.6-0.4-1.1-0.8-1.7-1.2c-0.3-0.2-0.5-0.4-0.8-0.6c-0.5-0.4-0.6-0.4-0.2-0.9c1.1-1.6,2.7-3.1,4.2-4.3
				c3.3-2.8,7.9-4.8,12.2-2.9C231,345,232.8,349.5,230.4,353.2z"/>
		</g>
	</g>
</g>
</svg>
