<?xml version="1.0" encoding="utf-8"?>
<!-- Generator: Adobe Illustrator 22.0.0, SVG Export Plug-In . SVG Version: 6.00 Build 0)  -->
<svg version="1.1" id="Calque_1" xmlns="http://www.w3.org/2000/svg" xmlns:xlink="http://www.w3.org/1999/xlink" x="0px" y="0px"
	 viewBox="0 0 432 432" style="enable-background:new 0 0 432 432;" xml:space="preserve">
<style type="text/css">
	.st0{fill:#100A13;}
	.st1{fill:#BB8B6A;}
	.st2{fill:#DDBEC9;}
	.st3{fill:#DFA1B6;}
	.st4{fill:#F2EDED;}
	.st5{fill:#B73A30;}
	.st6{fill:#21381D;}
	.st7{fill:#355932;}
	.st8{fill:#CB9742;}
	.st9{fill:#912A27;}
	.st10{fill:#CF394B;}
	.st11{fill:#E6E6E4;}
	.st12{fill:#191B1F;}
	.st13{fill:#5C8D4B;}
	.st14{fill:#263B2A;}
	.st15{fill:#C13462;}
	.st16{fill:#E5D758;}
	.st17{fill:#4D9F54;}
	.st18{fill:#C43537;}
	.st19{fill:#ECEAE5;}
	.st20{fill:#E2C2A2;}
	.st21{fill:#A8302D;}
	.st22{fill:#F5F4F4;}
	.st23{fill:#D5B392;}
	.st24{fill:#221F20;}
	.st25{fill:#F2F1F0;}
	.st26{fill:#1B3B1F;}
	.st27{fill:#295A33;}
	.st28{fill:#DCBB9E;}
	.st29{fill:#EDB9C5;}
	.st30{fill:#8E2927;}
	.st31{fill:#2D6942;}
	.st32{fill:#8E2B34;}
	.st33{fill:#490C19;}
	.st34{fill:#BE3430;}
	.st35{fill:#202124;}
	.st36{fill:#BDDFE1;}
	.st37{fill:#E6E5E4;}
	.st38{fill:#040304;}
	.st39{fill:#E9963E;}
	.st40{fill:#A98C7C;}
	.st41{fill:#8A6C5D;}
	.st42{fill:#242122;}
	.st43{fill:#FFFFFF;}
	.st44{fill:#C9363B;}
	.st45{fill:#A52F39;}
	.st46{fill:#93766B;}
	.st47{fill:#9B7F71;}
	.st48{fill:#103B24;}
	.st49{fill:#345730;}
	.st50{fill:#BBA585;}
	.st51{fill:#AF3134;}
	.st52{fill:#F2EDE5;}
	.st53{fill:#98BC53;}
	.st54{fill:#D7AB46;}
	.st55{fill:#BAA485;}
	.st56{fill:#47291D;}
	.st57{fill:#B2322F;}
	.st58{fill:#953129;}
	.st59{fill:#20090C;}
	.st60{fill:#E0D2CE;}
	.st61{fill:#DAAE47;}
	.st62{fill:#5B4533;}
	.st63{fill:#428C4D;}
	.st64{fill:#C7393E;}
	.st65{fill:#3B4824;}
	.st66{fill:#46572E;}
	.st67{fill:#C83631;}
	.st68{fill:#8E2926;}
	.st69{fill:#D2BB9F;}
	.st70{fill:#E6D7C6;}
	.st71{fill:#BDA284;}
	.st72{fill:#832529;}
	.st73{fill:#9F2E2B;}
	.st74{fill:#459558;}
	.st75{fill:#DB453F;}
	.st76{fill:#D5D9B9;}
	.st77{fill:#E6E6D6;}
	.st78{fill:#E6EDC3;}
	.st79{fill:#AFD9DF;}
	.st80{fill:#5BAFB9;}
	.st81{fill:#7F7165;}
	.st82{fill:#50433C;}
	.st83{fill:#B2B7A0;}
	.st84{fill:#B1977E;}
	.st85{fill:#D6B88D;}
	.st86{fill:#A07965;}
	.st87{fill:#A7A5A0;}
	.st88{fill:#979984;}
	.st89{fill:#4F4F4B;}
	.st90{fill:#646D74;}
	.st91{fill:#545B52;}
	.st92{fill:#915452;}
	.st93{fill:#623D3E;}
	.st94{fill:#4E423E;}
	.st95{fill:#978F87;}
	.st96{fill:#732E24;}
	.st97{fill:#8F2A27;}
	.st98{fill:#AA8750;}
	.st99{fill:#677565;}
	.st100{fill:#4F3717;}
	.st101{fill:#799375;}
	.st102{fill:#D07783;}
	.st103{fill:#9A4655;}
	.st104{fill:#ECC4CB;}
	.st105{fill:#B7B86F;}
	.st106{fill:#5A5D34;}
	.st107{fill:#D1A697;}
	.st108{fill:#CBBDA4;}
	.st109{fill:#A16560;}
	.st110{fill:#330024;}
	.st111{fill:#3C4A43;}
	.st112{fill:#631735;}
	.st113{fill:#6A474C;}
	.st114{fill:#E5BC9F;}
	.st115{fill:#E8D3CC;}
	.st116{fill:#D16C64;}
	.st117{fill:#749098;}
	.st118{fill:#E69598;}
</style>
<g>
	<g>
		<path class="st79" d="M232.8,192.8c2.2,0,4.1-1.8,4.1-4.1s-1.8-4.1-4.1-4.1c-2.2,0-4.1,1.8-4.1,4.1S230.6,192.8,232.8,192.8z"/>
		<path class="st79" d="M196.9,193.4c2.1,0.7,4.4-0.5,5.1-2.6c0.7-2.1-0.5-4.4-2.6-5.1c-2.1-0.7-4.4,0.5-5.1,2.6
			C193.6,190.4,194.8,192.7,196.9,193.4z"/>
		<path class="st79" d="M185.8,226c1.8,1.3,4.3,0.9,5.7-0.9c1.3-1.8,0.9-4.3-0.9-5.7c-1.8-1.3-4.3-0.9-5.7,0.9
			C183.6,222.1,184,224.7,185.8,226z"/>
		<path class="st79" d="M214.3,239.2c-1.8,1.3-2.2,3.8-0.9,5.7c1.3,1.8,3.8,2.2,5.7,0.9c1.8-1.3,2.2-3.8,0.9-5.7
			C218.6,238.3,216.1,237.9,214.3,239.2z"/>
		<path class="st79" d="M243,217.6c-2.1,0.7-3.3,3-2.6,5.1s3,3.3,5.1,2.6c2.1-0.7,3.3-3,2.6-5.1C247.4,218.1,245.1,217,243,217.6z"
			/>
		<path class="st79" d="M269.8,195.5c-0.4-1.3-1.8-2-3.1-1.6l-9.7,3.2l2.6-3.9c0.4-0.6,0.2-1.4-0.4-1.8c-0.6-0.4-1.4-0.2-1.8,0.4
			l-4.4,6.6l-6.3,2.1l4.7-7c0.6-0.9,0.3-2-0.5-2.6c-0.9-0.6-2-0.3-2.6,0.5l-7.3,11l-5.4,1.8l4.7-7c0.6-0.9,0.3-2-0.5-2.6
			c-0.9-0.6-2-0.3-2.6,0.5l-7.3,11l-11,3.6v-11.5l8.2-10.4c0.6-0.8,0.5-2-0.3-2.7c-0.8-0.6-2-0.5-2.7,0.3l-5.3,6.7v-5.7l8.2-10.4
			c0.6-0.8,0.5-2-0.3-2.7c-0.8-0.6-2-0.5-2.7,0.3l-5.3,6.7v-6.7l5-6.3c0.4-0.6,0.4-1.4-0.2-1.9c-0.6-0.4-1.4-0.4-1.9,0.2l-2.9,3.7
			v-10.3c0-1.4-1.1-2.5-2.5-2.5c-1.4,0-2.5,1.1-2.5,2.5v10.2l-2.9-3.6c-0.4-0.6-1.3-0.7-1.9-0.2c-0.6,0.4-0.7,1.3-0.2,1.9l4.9,6.3
			v6.7l-5.2-6.6c-0.6-0.8-1.8-1-2.7-0.3c-0.8,0.6-1,1.8-0.3,2.7l8.2,10.4v5.7l-5.2-6.6c-0.6-0.8-1.8-1-2.7-0.3
			c-0.8,0.6-1,1.8-0.3,2.7l8.2,10.4v11.6l-11-3.6l-7.4-11.1c-0.6-0.9-1.8-1.1-2.6-0.5c-0.9,0.6-1.1,1.8-0.5,2.6l4.7,7.1l-5.4-1.8
			l-7.4-11.1c-0.6-0.9-1.8-1.1-2.6-0.5c-0.9,0.6-1.1,1.8-0.5,2.6l4.7,7.1l-6.3-2.1l-4.5-6.7c-0.4-0.6-1.2-0.8-1.8-0.4
			c-0.6,0.4-0.8,1.2-0.4,1.8l2.6,3.9l-9.8-3.2c-1.3-0.4-2.7,0.3-3.1,1.6c-0.4,1.3,0.3,2.7,1.6,3.1l9.7,3.2l-4.4,1.6
			c-0.7,0.3-1,1-0.8,1.7c0.3,0.7,1,1,1.7,0.8l7.5-2.8l6.3,2.1l-7.9,2.9c-1,0.4-1.5,1.5-1.1,2.4c0.4,1,1.5,1.5,2.4,1.1l12.4-4.6
			l5.4,1.8l-7.9,2.9c-1,0.4-1.5,1.5-1.1,2.4c0.4,1,1.5,1.5,2.4,1.1l12.4-4.6l11,3.6l-6.8,9.3l-12.8,3.6c-1,0.3-1.6,1.3-1.3,2.3
			c0.3,1,1.3,1.6,2.3,1.3l8.2-2.3l-3.4,4.6l-12.8,3.6c-1,0.3-1.6,1.3-1.3,2.3c0.3,1,1.3,1.6,2.3,1.3l8.2-2.3l-3.9,5.4l-7.8,2.2
			c-0.7,0.2-1.1,0.9-0.9,1.6c0.2,0.7,0.9,1.1,1.6,0.9l4.5-1.3l-6,8.3c-0.8,1.1-0.6,2.7,0.5,3.5c1.1,0.8,2.7,0.6,3.5-0.5l6-8.2
			l0.2,4.6c0,0.7,0.6,1.3,1.4,1.3c0.7,0,1.3-0.6,1.3-1.4l-0.3-8l3.9-5.4l0.3,8.4c0,1,0.9,1.9,2,1.8c1,0,1.9-0.9,1.8-2l-0.5-13.2
			l3.4-4.6l0.3,8.4c0,1,0.9,1.9,2,1.8c1,0,1.9-0.9,1.8-2l-0.5-13.2l6.8-9.4l6.8,9.3l-0.5,13.3c0,1,0.8,1.9,1.8,2c1,0,1.9-0.8,2-1.8
			l0.3-8.5l3.4,4.6l-0.5,13.3c0,1,0.8,1.9,1.8,2c1,0,1.9-0.8,2-1.8l0.3-8.5l3.9,5.4l-0.3,8c0,0.7,0.5,1.3,1.3,1.4s1.3-0.5,1.4-1.3
			l0.2-4.7l6,8.3c0.8,1.1,2.4,1.4,3.5,0.5c1.1-0.8,1.4-2.4,0.5-3.5l-6-8.2l4.5,1.3c0.7,0.2,1.4-0.2,1.6-0.9c0.2-0.7-0.2-1.4-0.9-1.6
			l-7.7-2.2l-3.9-5.4l8.1,2.3c1,0.3,2.1-0.3,2.3-1.3c0.3-1-0.3-2.1-1.3-2.3l-12.7-3.6l-3.4-4.6l8.1,2.3c1,0.3,2.1-0.3,2.3-1.3
			c0.3-1-0.3-2.1-1.3-2.3l-12.7-3.6l-6.8-9.4l11-3.6l12.5,4.6c1,0.4,2.1-0.1,2.4-1.1c0.4-1-0.1-2.1-1.1-2.4l-8-3l5.4-1.8l12.5,4.6
			c1,0.4,2.1-0.1,2.4-1.1s-0.1-2.1-1.1-2.4l-8-3l6.3-2.1l7.6,2.8c0.7,0.3,1.4-0.1,1.7-0.8c0.3-0.7-0.1-1.4-0.8-1.7l-4.4-1.6l9.8-3.2
			C269.5,198.2,270.2,196.8,269.8,195.5z"/>
	</g>
	<path class="st79" d="M148.7,289c0.8-0.5,1.3-1.3,1.4-2.2c1.3-0.6,2.6-1.1,3.8-1.6c1.3,1,3.2,1.1,4.7,0.3c1.1-0.6,1.9-1.7,2.2-2.8
		c2.2-0.8,4.2-1.5,6-2.1c1.9,1.3,4.4,1.5,6.5,0.3c1.7-1,2.8-2.6,3.1-4.5c16.6-8.3,15.2-15-3.3-6.5c-1.7-0.9-3.9-0.9-5.7,0.1
		c-1.7,0.9-2.8,2.6-3.1,4.4c-1.8,1-3.6,2.1-5.6,3.3c-1.3-0.7-2.9-0.8-4.3,0c-1.6,0.9-2.4,2.5-2.3,4.2c-1.1,0.7-2.3,1.5-3.4,2.3
		c-0.8-0.4-1.7-0.4-2.5,0c-1,0.5-1.5,1.6-1.4,2.7c-1.7,1.2-3.4,2.4-5.2,3.7c-1-1.4-2.9-1.9-4.4-1.1c-0.3,0.2-0.5,0.3-0.7,0.6
		c-0.4-0.5-0.9-1-1.4-1.4c0.3-0.3,0.5-0.6,0.6-0.9c0.7-1.4,0.2-3.1-1-4.1c1-2,2-3.9,3-5.6c1.1,0,2.1-0.5,2.6-1.5
		c0.4-0.9,0.3-1.8-0.2-2.6c0.7-1.2,1.5-2.4,2.2-3.5c1.6,0,3.2-0.9,4-2.5c0.6-1.2,0.5-2.5,0.1-3.6c1.3-1.9,2.5-3.7,3.6-5.3
		c2.3-0.1,4.4-1.3,5.4-3.5c0.9-1.8,0.7-3.8-0.1-5.5c8.5-16.5,3.5-21-6.5-3.3c-1.9,0.3-3.7,1.6-4.6,3.4c-0.8,1.8-0.8,3.8,0.1,5.4
		c-0.8,1.8-1.7,3.8-2.6,5.9c-1.5,0.2-2.8,1.1-3.5,2.5c-0.8,1.6-0.5,3.4,0.6,4.7c-0.5,1.2-1,2.5-1.4,3.9c-0.9,0.1-1.6,0.7-2,1.5
		c-0.5,1-0.3,2.2,0.4,3c-0.7,1.9-1.3,3.9-2,6c-1.6-0.6-3.4,0.1-4.2,1.7c-0.1,0.3-0.2,0.6-0.3,0.9c-0.6-0.2-1.3-0.3-2-0.3
		c0.1-0.4,0.1-0.7,0-1.1c-0.3-1.6-1.6-2.7-3.2-2.7c-0.3-2.2-0.6-4.3-0.9-6.3c0.9-0.6,1.4-1.7,1.2-2.7c-0.2-0.9-0.8-1.7-1.6-2
		c-0.1-1.4-0.2-2.8-0.3-4.1c1.3-1,2-2.7,1.7-4.4c-0.2-1.3-1-2.3-2-2.9c-0.1-2.3-0.1-4.5-0.2-6.4c1.8-1.4,2.8-3.7,2.3-6
		c-0.4-2-1.6-3.5-3.3-4.4c-2.8-18.4-9.6-19.1-7.2,1.2c-1.4,1.4-2,3.4-1.7,5.5c0.4,1.9,1.6,3.5,3.2,4.3c0.4,2,0.9,4.1,1.4,6.3
		c-1.1,1-1.6,2.5-1.3,4.1c0.3,1.7,1.6,3.1,3.3,3.5c0.3,1.3,0.7,2.6,1.1,4c-0.6,0.6-0.9,1.5-0.7,2.4c0.2,1.1,1.1,1.9,2.1,2.1
		c0.6,1.9,1.2,4,1.9,6c-1.7,0.5-2.7,2.1-2.4,3.8c0.1,0.3,0.2,0.6,0.3,0.9c-0.6,0.3-1.2,0.6-1.8,0.9c-0.2-0.3-0.4-0.6-0.7-0.9
		c-1.2-1.1-2.9-1.2-4.2-0.3c-1.6-1.6-3-3.1-4.4-4.6c0.4-1,0.1-2.1-0.7-2.9c-0.7-0.7-1.6-0.9-2.5-0.7c-0.9-1.1-1.8-2.1-2.7-3.1
		c0.5-1.6,0.1-3.4-1.2-4.6c-0.9-0.9-2.2-1.3-3.4-1.2c-1.4-1.9-2.7-3.6-3.9-5.1c0.6-2.2,0.1-4.6-1.7-6.3c-1.5-1.4-3.4-1.9-5.2-1.6
		c-13.1-13.2-18.9-9.8-5.1,5.2c-0.3,1.9,0.3,4,1.9,5.4c1.4,1.4,3.4,1.9,5.2,1.6c1.5,1.4,3.1,2.8,4.8,4.3c-0.3,1.4,0.2,3,1.3,4.1
		c1.3,1.2,3.1,1.5,4.7,0.9c1,0.8,2.1,1.7,3.2,2.6c-0.1,0.9,0.1,1.8,0.8,2.4c0.8,0.8,2,0.9,3,0.5c1.6,1.2,3.3,2.5,5.1,3.8
		c-1.1,1.3-0.9,3.3,0.3,4.5c0.2,0.2,0.5,0.4,0.8,0.5c-0.3,0.6-0.7,1.2-0.9,1.8c-0.3-0.2-0.7-0.3-1.1-0.3c-1.6-0.2-3.1,0.7-3.6,2.2
		c-2.2-0.4-4.3-0.7-6.3-1.1c-0.3-1-1.1-1.8-2.3-1.9c-0.9-0.1-1.8,0.3-2.4,0.9c-1.4-0.3-2.7-0.7-4-1c-0.5-1.6-1.9-2.8-3.6-3
		c-1.3-0.2-2.5,0.2-3.4,1c-2.3-0.7-4.3-1.3-6.1-1.8c-0.7-2.1-2.6-3.8-5-4.1c-2-0.3-3.9,0.5-5.2,1.8c-18.3-3-21.1,3.2-1.1,7.2
		c0.9,1.7,2.6,3,4.7,3.3c2,0.3,3.8-0.5,5.1-1.7c2,0.2,4.2,0.5,6.4,0.6c0.6,1.3,1.9,2.3,3.5,2.5c1.8,0.2,3.4-0.6,4.3-2
		c1.3,0.1,2.7,0.1,4.1,0.2c0.4,0.8,1.1,1.3,2.1,1.5c1.1,0.1,2.2-0.4,2.7-1.3c2,0,4.2,0.1,6.3,0.1c-0.1,1.7,1.2,3.2,2.9,3.5
		c0.3,0,0.6,0,0.9,0c0,0.5,0.1,0.9,0.2,1.4c0,0.2,0.1,0.4,0.1,0.6c-0.4,0.1-0.7,0.2-1.1,0.4c-1.4,0.8-2,2.4-1.6,3.9
		c-2,1-3.9,1.9-5.7,2.8c-0.8-0.7-2-0.8-3-0.2c-0.8,0.5-1.3,1.3-1.4,2.2c-1.3,0.6-2.6,1.1-3.8,1.6c-1.3-1-3.2-1.1-4.7-0.3
		c-1.1,0.6-1.9,1.7-2.2,2.8c-2.2,0.8-4.2,1.5-6,2.1c-1.9-1.3-4.4-1.5-6.5-0.3c-1.7,1-2.8,2.6-3.1,4.5c-16.6,8.3-15.2,15,3.3,6.5
		c1.7,0.9,3.9,0.9,5.7-0.1c1.7-0.9,2.8-2.6,3.1-4.4c1.8-1,3.6-2.1,5.6-3.3c1.3,0.7,2.9,0.8,4.3,0c1.6-0.9,2.4-2.5,2.3-4.2
		c1.1-0.7,2.3-1.5,3.4-2.3c0.8,0.4,1.7,0.4,2.5,0c1-0.5,1.5-1.6,1.4-2.7c1.7-1.2,3.4-2.4,5.2-3.7c1,1.4,2.9,1.9,4.4,1.1
		c0.3-0.2,0.5-0.3,0.7-0.6c0.4,0.5,0.9,1,1.4,1.4c-0.3,0.3-0.5,0.6-0.6,0.9c-0.7,1.4-0.2,3.1,1,4.1c-1,2-2,3.9-3,5.6
		c-1.1,0-2.1,0.5-2.6,1.5c-0.4,0.9-0.3,1.8,0.2,2.6c-0.7,1.2-1.5,2.4-2.2,3.5c-1.6,0-3.2,0.9-4,2.5c-0.6,1.2-0.5,2.5-0.1,3.6
		c-1.3,1.9-2.5,3.7-3.6,5.3c-2.3,0.1-4.4,1.3-5.4,3.5c-0.9,1.8-0.7,3.8,0.1,5.5c-8.5,16.5-3.5,21,6.5,3.3c1.9-0.3,3.7-1.6,4.6-3.4
		c0.8-1.8,0.8-3.8-0.1-5.4c0.8-1.8,1.7-3.8,2.6-5.9c1.5-0.2,2.8-1.1,3.5-2.5c0.8-1.6,0.5-3.4-0.6-4.7c0.5-1.2,1-2.5,1.4-3.9
		c0.9-0.1,1.6-0.7,2-1.5c0.5-1,0.3-2.2-0.4-3c0.7-1.9,1.3-3.9,2-6c1.6,0.6,3.4-0.1,4.2-1.7c0.1-0.3,0.2-0.6,0.3-0.9
		c0.6,0.2,1.3,0.3,2,0.3c-0.1,0.4-0.1,0.7,0,1.1c0.3,1.6,1.6,2.7,3.2,2.7c0.3,2.2,0.6,4.3,0.9,6.3c-0.9,0.6-1.4,1.7-1.2,2.7
		c0.2,0.9,0.8,1.7,1.6,2c0.1,1.4,0.2,2.8,0.3,4.1c-1.3,1-2,2.7-1.7,4.4c0.2,1.3,1,2.3,2,2.9c0.1,2.3,0.1,4.5,0.2,6.4
		c-1.8,1.4-2.8,3.7-2.3,6c0.4,2,1.6,3.5,3.3,4.4c2.8,18.4,9.6,19.1,7.2-1.2c1.4-1.4,2-3.4,1.7-5.5c-0.4-1.9-1.6-3.5-3.2-4.3
		c-0.4-2-0.9-4.1-1.4-6.3c1.1-1,1.6-2.5,1.3-4.1c-0.3-1.7-1.6-3.1-3.3-3.5c-0.3-1.3-0.7-2.6-1.1-4c0.6-0.6,0.9-1.5,0.7-2.4
		c-0.2-1.1-1.1-1.9-2.1-2.1c-0.6-1.9-1.2-4-1.9-6c1.7-0.5,2.7-2.1,2.4-3.8c-0.1-0.3-0.2-0.6-0.3-0.9c0.6-0.3,1.2-0.6,1.8-0.9
		c0.2,0.3,0.4,0.6,0.7,0.9c1.2,1.1,2.9,1.2,4.2,0.3c1.6,1.6,3,3.1,4.4,4.6c-0.4,1-0.1,2.1,0.7,2.9c0.7,0.7,1.6,0.9,2.5,0.7
		c0.9,1.1,1.8,2.1,2.7,3.1c-0.5,1.6-0.1,3.4,1.2,4.6c0.9,0.9,2.2,1.3,3.4,1.2c1.4,1.9,2.7,3.6,3.9,5.1c-0.6,2.2-0.1,4.6,1.7,6.3
		c1.5,1.4,3.4,1.9,5.2,1.6c13.1,13.2,18.9,9.8,5.1-5.2c0.3-1.9-0.3-4-1.9-5.4c-1.4-1.4-3.4-1.9-5.2-1.6c-1.5-1.4-3.1-2.8-4.8-4.3
		c0.3-1.4-0.2-3-1.3-4.1c-1.3-1.2-3.1-1.5-4.7-0.9c-1-0.8-2.1-1.7-3.2-2.6c0.1-0.9-0.1-1.8-0.8-2.4c-0.8-0.8-2-0.9-3-0.5
		c-1.6-1.2-3.3-2.5-5.1-3.8c1.1-1.3,0.9-3.3-0.3-4.5c-0.2-0.2-0.5-0.4-0.8-0.5c0.3-0.6,0.7-1.2,0.9-1.8c0.3,0.2,0.7,0.3,1.1,0.3
		c1.6,0.2,3.1-0.7,3.6-2.2c2.2,0.4,4.3,0.7,6.3,1.1c0.3,1,1.1,1.8,2.3,1.9c0.9,0.1,1.8-0.3,2.4-0.9c1.4,0.3,2.7,0.7,4,1
		c0.5,1.6,1.9,2.8,3.6,3c1.3,0.2,2.5-0.2,3.4-1c2.3,0.7,4.3,1.3,6.1,1.8c0.7,2.1,2.6,3.8,5,4.1c2,0.3,3.9-0.5,5.2-1.8
		c18.3,3,21.1-3.2,1.1-7.2c-0.9-1.7-2.6-3-4.7-3.3c-2-0.3-3.8,0.5-5.1,1.7c-2-0.2-4.2-0.5-6.4-0.6c-0.6-1.3-1.9-2.3-3.5-2.5
		c-1.8-0.2-3.4,0.6-4.3,2c-1.3-0.1-2.7-0.1-4.1-0.2c-0.4-0.8-1.1-1.3-2.1-1.5c-1.1-0.1-2.2,0.4-2.7,1.3c-2,0-4.2-0.1-6.3-0.1
		c0.1-1.7-1.2-3.2-2.9-3.5c-0.3,0-0.6,0-0.9,0c0-0.5-0.1-0.9-0.2-1.4c0-0.2-0.1-0.4-0.1-0.6c0.4-0.1,0.7-0.2,1.1-0.4
		c1.4-0.8,2-2.4,1.6-3.9c2-1,3.9-1.9,5.7-2.8C146.5,289.4,147.7,289.5,148.7,289z M126.2,309.3c-5.8,1.1-11.4-2.7-12.5-8.5
		c-1.1-5.8,2.7-11.4,8.5-12.5c5.8-1.1,11.4,2.7,12.5,8.5C135.8,302.6,132,308.2,126.2,309.3z"/>
	<path class="st80" d="M188.5,151.1l-7.7-2.5c-0.3-2-1.7-3.8-3.8-4.4c-2.1-0.7-4.2-0.1-5.7,1.4l-4.6-1.5l-6.3-9.5l-0.5,1.6l-1.7,5.1
		l-4-1.3l-4.6-6.9l4.8-7.3l4.2-1.4l2.2,6.7l6.2-9.4l4.8-1.6c1.4,1.4,3.6,2,5.7,1.4c2.1-0.7,3.5-2.4,3.8-4.4l7.7-2.5
		c1.3-0.4,2.1-1.9,1.6-3.2c-0.4-1.3-1.9-2.1-3.2-1.6l-7.7,2.5c-1.4-1.4-3.6-2-5.7-1.4c-2.1,0.7-3.5,2.4-3.8,4.4l-4.6,1.5l-10.7-3.9
		l0.5,1.6l1.7,5.1l-4,1.3l-7.8-2.8l-0.4-8.7l2.6-3.6l5.7,4.1l-0.5-11.2l3-4.1c2,0.3,4.1-0.5,5.4-2.2c1.3-1.8,1.4-4,0.5-5.8l4.8-6.6
		c0.8-1.1,0.6-2.7-0.6-3.5c-1.1-0.8-2.7-0.6-3.5,0.6l-4.8,6.6c-2-0.3-4.1,0.5-5.4,2.2c-1.3,1.8-1.4,4-0.5,5.8l-2.9,3.9l-10.9,3.1
		l1.3,1l4.3,3.2l-2.5,3.4l-8,2.3l-5.4-6.8v-4.4h7l-7-8.8v-5.1c1.8-0.9,3-2.8,3-5c0-2.2-1.2-4-3-5v-8.1c0-1.4-1.1-2.5-2.5-2.5
		c-1.4,0-2.5,1.1-2.5,2.5v8.1c-1.8,0.9-3,2.8-3,5c0,2.2,1.2,4,3,5v4.9l-7,9h1.7h5.4v4.3l-5.1,6.5l-8.4-2.3l-2.6-3.6l5.7-4.1l-10.8-3
		L98,91c0.9-1.8,0.8-4.1-0.5-5.8c-1.3-1.8-3.4-2.5-5.4-2.2l-4.8-6.6c-0.8-1.1-2.4-1.4-3.5-0.6c-1.1,0.8-1.4,2.4-0.6,3.5l4.8,6.6
		c-0.9,1.8-0.8,4.1,0.5,5.8c1.3,1.8,3.4,2.5,5.4,2.2l2.9,3.9l-0.4,11.4l1.3-1l4.3-3.2l2.5,3.4l-0.3,8.3l-8.1,3.1l-4.2-1.4l2.2-6.7
		l-10.5,4l-4.8-1.6c-0.3-2-1.7-3.8-3.8-4.4c-2.1-0.7-4.2-0.1-5.7,1.4l-7.7-2.5c-1.3-0.4-2.8,0.3-3.2,1.6c-0.4,1.3,0.3,2.8,1.6,3.2
		l7.7,2.5c0.3,2,1.7,3.8,3.8,4.4s4.2,0.1,5.7-1.4l4.6,1.5l6.3,9.5l0.5-1.6l1.7-5.1l4,1.3l4.6,6.9l-4.8,7.3l-4.2,1.4l-2.2-6.7
		l-6.2,9.4l-4.8,1.6c-1.4-1.4-3.6-2-5.7-1.4c-2.1,0.7-3.5,2.4-3.8,4.4l-7.7,2.5c-1.3,0.4-2.1,1.9-1.6,3.2c0.4,1.3,1.9,2.1,3.2,1.6
		l7.7-2.5c1.4,1.4,3.6,2,5.7,1.4c2.1-0.7,3.5-2.4,3.8-4.4l4.6-1.5l10.7,3.9l-0.5-1.6l-1.7-5.1l4-1.3l7.8,2.8l0.4,8.7l-2.6,3.6
		l-5.7-4.1l0.5,11.2l-3,4.1c-2-0.3-4.1,0.5-5.4,2.2c-1.3,1.8-1.4,4-0.5,5.8l-4.8,6.6c-0.8,1.1-0.6,2.7,0.6,3.5
		c1.1,0.8,2.7,0.6,3.5-0.6l4.8-6.6c2,0.3,4.1-0.5,5.4-2.2c1.3-1.8,1.4-4,0.5-5.8l2.9-3.9l10.9-3.1l-1.3-1l-4.3-3.2l2.5-3.4l8-2.3
		l5.4,6.8v4.4h-7l7,8.8v5.1c-1.8,0.9-3,2.8-3,5c0,2.2,1.2,4,3,5v8.1c0,1.4,1.1,2.5,2.5,2.5s2.5-1.1,2.5-2.5v-8.1c1.8-0.9,3-2.8,3-5
		c0-2.2-1.2-4-3-5v-4.9l7-9h-1.7h-5.4V163l5.1-6.5l8.4,2.3l2.6,3.6l-5.7,4.1l10.8,3l3,4.1c-0.9,1.8-0.8,4.1,0.5,5.8s3.4,2.5,5.4,2.2
		l4.8,6.6c0.8,1.1,2.4,1.4,3.5,0.6c1.1-0.8,1.4-2.4,0.6-3.5l-4.8-6.6c0.9-1.8,0.8-4.1-0.5-5.8c-1.3-1.8-3.4-2.5-5.4-2.2l-2.9-3.9
		l0.4-11.4l-1.3,1l-4.3,3.2l-2.5-3.4l0.3-8.3l8.1-3.1l4.2,1.4l-2.2,6.7l10.5-4l4.8,1.6c0.3,2,1.7,3.8,3.8,4.4s4.2,0.1,5.7-1.4
		l7.7,2.5c1.3,0.4,2.8-0.3,3.2-1.6C190.5,152.9,189.8,151.5,188.5,151.1z M138,113.9l-3.5,9.4c-1.3-1.4-2.8-2.6-4.6-3.4L138,113.9z
		 M124.5,109.3l2.7,9.7c-1-0.2-2-0.3-3-0.3c-0.9,0-1.8,0.1-2.7,0.3L124.5,109.3z M118.9,119.7c-1.8,0.8-3.3,1.9-4.6,3.3l-3.2-9.5
		L118.9,119.7z M112.5,125.3c-1,1.6-1.6,3.4-1.8,5.4l-8.2-5.8L112.5,125.3z M102.3,139.1l8.4-5.6c0.2,2,0.8,3.8,1.7,5.4L102.3,139.1
		z M110.5,150.7l3.5-9.4c1.3,1.4,2.8,2.6,4.6,3.4L110.5,150.7z M123.9,155.3l-2.7-9.7c1,0.2,2,0.3,3,0.3c0.9,0,1.8-0.1,2.7-0.3
		L123.9,155.3z M129.6,144.8c1.8-0.8,3.3-1.9,4.6-3.3l3.2,9.5L129.6,144.8z M136,139.3c1-1.6,1.6-3.4,1.8-5.4l8.2,5.8L136,139.3z
		 M137.8,131c-0.2-2-0.8-3.8-1.7-5.4l10.1-0.1L137.8,131z"/>
	<path class="st80" d="M375.1,130.5l-8.9,0.1l3.7-2.5c0.3-0.2,0.4-0.7,0.2-1c-0.2-0.3-0.7-0.4-1-0.2l-5.5,3.7l-7.6,0.1l10.9-7.3
		c0.5-0.4,0.7-1.1,0.3-1.6c-0.4-0.5-1.1-0.7-1.6-0.3l-14,9.4l-7,0.1l10.9-7.3c0.5-0.4,0.7-1.1,0.3-1.6c-0.4-0.5-1.1-0.7-1.6-0.3
		l-14,9.4l-6.1,0.1l10.9-7.3c0.5-0.4,0.7-1.1,0.3-1.6c-0.4-0.5-1.1-0.7-1.6-0.3l-14,9.4l-4.2,0.1l5.3-3.6c0.3-0.2,0.4-0.7,0.2-1
		c-0.2-0.3-0.7-0.4-1-0.2l-7.1,4.8l-3.3,0.1c-0.6-1.6-1.6-3-2.9-4.1l2.2-3.9l6.6-2.4c0.4-0.1,0.6-0.5,0.4-0.9
		c-0.1-0.4-0.5-0.6-0.9-0.4l-5.1,1.8l2.2-4l14.4-5.1c0.6-0.2,0.9-0.9,0.7-1.5c-0.2-0.6-0.9-0.9-1.5-0.7l-11.9,4.2l3.3-6l14.4-5.1
		c0.6-0.2,0.9-0.9,0.7-1.5c-0.2-0.6-0.9-0.9-1.5-0.7l-11.9,4.2l3.8-6.8l14.4-5.1c0.6-0.2,0.9-0.9,0.7-1.5c-0.2-0.6-0.9-0.9-1.5-0.7
		l-11.9,4.2l2.8-5l8.1-2.9c0.4-0.1,0.6-0.5,0.4-0.9c-0.1-0.4-0.5-0.6-0.9-0.4l-6.6,2.3l5.5-10c0.8-1.4,0.3-3.1-1.1-3.9
		c-1.4-0.8-3.1-0.3-3.9,1.1l-4.3,7.8l-0.3-4.5c0-0.4-0.4-0.7-0.8-0.7c-0.4,0-0.7,0.4-0.7,0.8l0.5,6.7l-3.7,6.7l-0.9-13.1
		c0-0.6-0.6-1.1-1.3-1.1c-0.6,0-1.1,0.6-1.1,1.3l1.1,16.8l-3.4,6.1l-0.9-13.1c0-0.6-0.6-1.1-1.3-1.1c-0.6,0-1.1,0.6-1.1,1.3
		l1.1,16.8l-3,5.4l-0.9-13.1c0-0.6-0.6-1.1-1.3-1.1c-0.6,0-1.1,0.6-1.1,1.3l1.1,16.8l-2.1,3.7l-0.4-6.4c0-0.4-0.4-0.7-0.8-0.7
		c-0.4,0-0.7,0.4-0.7,0.8l0.6,8.6l-1.9,3.4c-0.8-0.2-1.6-0.3-2.5-0.3c-0.8,0-1.5,0.1-2.2,0.2l-2.3-3.8l1.3-6.9
		c0.1-0.4-0.2-0.8-0.6-0.8c-0.4-0.1-0.8,0.2-0.8,0.6l-1,5.3l-2.4-3.9l2.7-15c0.1-0.6-0.3-1.3-1-1.4c-0.6-0.1-1.3,0.3-1.4,1
		l-2.3,12.4l-3.5-5.9l2.7-15c0.1-0.6-0.3-1.3-1-1.4c-0.6-0.1-1.3,0.3-1.4,1L294,103l-4-6.6l2.7-15c0.1-0.6-0.3-1.3-1-1.4
		c-0.6-0.1-1.3,0.3-1.4,1l-2.3,12.4l-2.9-4.9l1.5-8.5c0.1-0.4-0.2-0.8-0.6-0.8c-0.4-0.1-0.8,0.2-0.8,0.6l-1.2,6.9l-5.9-9.8
		c-0.8-1.4-2.6-1.8-3.9-1c-1.4,0.8-1.8,2.6-1,3.9l4.6,7.6l-4-2c-0.4-0.2-0.8,0-1,0.3c-0.2,0.4,0,0.8,0.3,1l6,2.9l3.9,6.5l-11.8-5.8
		c-0.6-0.3-1.3,0-1.6,0.5c-0.3,0.6,0,1.3,0.5,1.6l15.1,7.4l3.6,6l-11.8-5.8c-0.6-0.3-1.3,0-1.6,0.5c-0.3,0.6,0,1.3,0.5,1.6l15.1,7.4
		l3.2,5.3l-11.8-5.8c-0.6-0.3-1.3,0-1.6,0.5c-0.3,0.6,0,1.3,0.5,1.6l15.1,7.4l2.2,3.6l-5.8-2.8c-0.4-0.2-0.8,0-1,0.3
		c-0.2,0.4,0,0.8,0.3,1l7.7,3.8l1.7,2.8c-1.7,1.5-3,3.5-3.5,5.8l-3.7,0.1l-5.3-4.5c-0.3-0.3-0.8-0.2-1,0.1c-0.3,0.3-0.2,0.8,0.1,1
		l4.1,3.5l-4.6,0.1l-11.7-9.9c-0.5-0.4-1.2-0.4-1.7,0.1c-0.4,0.5-0.4,1.2,0.1,1.7l9.6,8.1l-6.9,0.1l-11.7-9.9
		c-0.5-0.4-1.2-0.4-1.7,0.1c-0.4,0.5-0.4,1.2,0.1,1.7l9.6,8.1l-7.7,0.1l-11.7-9.9c-0.5-0.4-1.2-0.4-1.7,0.1
		c-0.4,0.5-0.4,1.2,0.1,1.7l9.6,8.1l-5.7,0.1l-6.6-5.6c-0.3-0.3-0.8-0.2-1,0.1c-0.3,0.3-0.2,0.8,0.1,1l5.3,4.5l-11.4,0.2
		c-1.6,0-2.8,1.3-2.8,2.9c0,1.6,1.3,2.8,2.9,2.8l8.9-0.1l-3.7,2.5c-0.3,0.2-0.4,0.7-0.2,1c0.2,0.3,0.7,0.4,1,0.2l5.5-3.7l7.6-0.1
		l-10.9,7.3c-0.5,0.4-0.7,1.1-0.3,1.6c0.4,0.5,1.1,0.7,1.6,0.3l14-9.4l7-0.1l-10.9,7.3c-0.5,0.4-0.7,1.1-0.3,1.6
		c0.4,0.5,1.1,0.7,1.6,0.3l14-9.4l6.1-0.1l-10.9,7.3c-0.5,0.4-0.7,1.1-0.3,1.6c0.4,0.5,1.1,0.7,1.6,0.3l14-9.4l4.2-0.1l-5.3,3.6
		c-0.3,0.2-0.4,0.7-0.2,1c0.2,0.3,0.7,0.4,1,0.2l7.1-4.8l2.9,0c0.5,1.9,1.5,3.5,2.8,4.9l-2.4,4.3l-6.6,2.4c-0.4,0.1-0.6,0.5-0.4,0.9
		c0.1,0.4,0.5,0.6,0.9,0.4l5.1-1.8l-2.2,4l-14.4,5.1c-0.6,0.2-0.9,0.9-0.7,1.5c0.2,0.6,0.9,0.9,1.5,0.7l11.9-4.2l-3.3,6l-14.4,5.1
		c-0.6,0.2-0.9,0.9-0.7,1.5c0.2,0.6,0.9,0.9,1.5,0.7l11.9-4.2l-3.8,6.8l-14.4,5.1c-0.6,0.2-0.9,0.9-0.7,1.5c0.2,0.6,0.9,0.9,1.5,0.7
		l11.9-4.2l-2.8,5l-8.1,2.9c-0.4,0.1-0.6,0.5-0.4,0.9c0.1,0.4,0.5,0.6,0.9,0.4l6.6-2.3l-5.5,10c-0.8,1.4-0.3,3.1,1.1,3.9
		c1.4,0.8,3.1,0.3,3.9-1.1l4.3-7.8l0.3,4.5c0,0.4,0.4,0.7,0.8,0.7c0.4,0,0.7-0.4,0.7-0.8l-0.5-6.7l3.7-6.7l0.9,13.1
		c0,0.6,0.6,1.1,1.3,1.1c0.6,0,1.1-0.6,1.1-1.3l-1.1-16.8l3.4-6.1l0.9,13.1c0,0.6,0.6,1.1,1.3,1.1c0.6,0,1.1-0.6,1.1-1.3l-1.1-16.8
		l3-5.4l0.9,13.1c0,0.6,0.6,1.1,1.3,1.1c0.6,0,1.1-0.6,1.1-1.3l-1.1-16.8l2.1-3.7l0.4,6.4c0,0.4,0.4,0.7,0.8,0.7
		c0.4,0,0.7-0.4,0.7-0.8l-0.6-8.6l2-3.5c1,0.3,2,0.4,3.1,0.4c1.2,0,2.4-0.2,3.5-0.6l2.2,3.7l-1.3,6.9c-0.1,0.4,0.2,0.8,0.6,0.8
		c0.4,0.1,0.8-0.2,0.8-0.6l1-5.3l2.4,3.9l-2.7,15c-0.1,0.6,0.3,1.3,1,1.4c0.6,0.1,1.3-0.3,1.4-1l2.3-12.4l3.5,5.9l-2.7,15
		c-0.1,0.6,0.3,1.3,1,1.4c0.6,0.1,1.3-0.3,1.4-1l2.3-12.4l4,6.6l-2.7,15c-0.1,0.6,0.3,1.3,1,1.4c0.6,0.1,1.3-0.3,1.4-1l2.3-12.4
		l2.9,4.9l-1.5,8.5c-0.1,0.4,0.2,0.8,0.6,0.8c0.4,0.1,0.8-0.2,0.8-0.6l1.2-6.9l5.9,9.8c0.8,1.4,2.6,1.8,3.9,1c1.4-0.8,1.8-2.6,1-3.9
		l-4.6-7.6l4,2c0.4,0.2,0.8,0,1-0.3c0.2-0.4,0-0.8-0.3-1l-6-2.9l-3.9-6.5l11.8,5.8c0.6,0.3,1.3,0,1.6-0.5c0.3-0.6,0-1.3-0.5-1.6
		l-15.1-7.4l-3.6-6l11.8,5.8c0.6,0.3,1.3,0,1.6-0.5c0.3-0.6,0-1.3-0.5-1.6l-15.1-7.4l-3.2-5.3l11.8,5.8c0.6,0.3,1.3,0,1.6-0.5
		c0.3-0.6,0-1.3-0.5-1.6l-15.1-7.4l-2.2-3.6l5.8,2.8c0.4,0.2,0.8,0,1-0.3s0-0.8-0.3-1l-7.7-3.8l-1.9-3.2c1.5-1.6,2.5-3.7,2.8-6
		l3.5-0.1l5.3,4.5c0.3,0.3,0.8,0.2,1-0.1c0.3-0.3,0.2-0.8-0.1-1l-4.1-3.5l4.6-0.1l11.7,9.9c0.5,0.4,1.2,0.4,1.7-0.1
		c0.4-0.5,0.4-1.2-0.1-1.7l-9.6-8.1l6.9-0.1l11.7,9.9c0.5,0.4,1.2,0.4,1.7-0.1c0.4-0.5,0.4-1.2-0.1-1.7l-9.6-8.1l7.7-0.1l11.7,9.9
		c0.5,0.4,1.2,0.4,1.7-0.1c0.4-0.5,0.4-1.2-0.1-1.7l-9.6-8.1l5.7-0.1l6.6,5.6c0.3,0.3,0.8,0.2,1-0.1c0.3-0.3,0.2-0.8-0.1-1l-5.3-4.5
		l11.4-0.2c1.6,0,2.8-1.3,2.8-2.9C378,131.8,376.7,130.5,375.1,130.5z M309.2,141.4c-3.2,0-5.8-2.6-5.8-5.8c0-3.2,2.6-5.8,5.8-5.8
		s5.8,2.6,5.8,5.8C315,138.9,312.4,141.4,309.2,141.4z"/>
	<path class="st80" d="M373.4,331.8l-3.8-2.2c-0.3-4.9-2.6-7.9-6.3-8.3c-1.4-0.2-3,0-4.6,0.5c-0.5-7.9-3.4-12.9-8.4-15
		c-3.8-1.6-8.5-1.4-14,0.5c-1.2,0.4-2.2,0.8-3.1,1.2l-0.8-0.5l9.9-5.4c0.9-0.5,1-1.5,0.6-2.2c-0.4-0.7-1.3-1.2-2.3-0.7l-11.6,6.4
		l-3.8-2.2l6.7-3.6c0.5-0.3,0.8-0.8,0.8-1.5c0-0.6-0.3-1.2-0.8-1.5l-6.7-3.6l3.8-2.2l11.6,6.4c0.5,0.3,1.1,0.3,1.6,0
		c0.5-0.3,0.9-0.9,0.9-1.6c0-0.6-0.3-1-0.8-1.3l-9.9-5.4l0.8-0.5c7.7,3.8,17.6,4.4,22.4-2.7c1.8-2.7,2.8-6.1,3.1-10.6
		c1.6,0.5,3.1,0.7,4.6,0.5c3.7-0.4,6-3.4,6.3-8.3l3.8-2.2c0.9-0.5,1-1.5,0.6-2.3c-0.4-0.7-1.3-1.2-2.3-0.6l-3.9,2.2
		c-4.4-2-8-1.5-10.2,1.6c-0.8,1.1-1.4,2.5-1.7,4.1c-7.3-3.4-13.1-3.4-17.5,0.1c-3.2,2.5-5.4,6.9-6.3,12.5c-0.2,1-0.3,1.9-0.4,2.7
		l-1.1,0.6v-11.3c0-2.1-3.4-2.1-3.4,0v13.3l-3.8,2.2v-7.2c0-0.6-0.3-1.1-0.8-1.4c-0.5-0.3-1.2-0.3-1.7,0l-6.3,3.6l0-4.4l11.5-6.6
		c0.9-0.5,1-1.5,0.6-2.3c-0.4-0.7-1.3-1.2-2.3-0.6l-9.8,5.7l0-1.3c3.8-2.6,6.9-5.9,8.5-9.4c4.3-8.9-2.6-15.7-7.4-19.1
		c1.2-1.1,2.2-2.4,2.7-3.7c1.4-3.3,0.1-6.7-3.8-9.5l0-4.5c0-1.1-0.8-1.6-1.7-1.6c0,0,0,0,0,0c-0.8,0-1.7,0.6-1.7,1.6l0,4.4
		c-4,2.7-5.5,6.1-4.1,9.5c0.6,1.4,1.5,2.7,2.8,3.8c-4.8,3.3-11.7,9.9-7.6,18.9c1.7,3.6,4.9,7.2,8.8,9.9l0,0.9l-9.6-5.9
		c-0.9-0.5-1.8-0.1-2.2,0.6c-0.4,0.7-0.4,1.8,0.5,2.3l11.3,6.9l0,4.4l-6.5-4c-0.5-0.3-1.2-0.3-1.7,0c-0.5,0.3-0.9,0.9-0.8,1.5
		l0.2,7.6l-3.8-2.2l-0.3-13.3c0-1.1-0.9-1.6-1.8-1.6c-0.8,0-1.6,0.6-1.6,1.6l0.3,11.3l-0.8-0.5c-0.6-8.6-5-17.4-13.6-18.1
		c-3.2-0.2-6.6,0.6-10.7,2.6c-0.4-1.6-1-3.1-1.9-4.2c-2.2-3-5.9-3.5-10.3-1.3l-3.8-2.2c-0.5-0.3-1.1-0.3-1.6,0
		c-0.5,0.3-0.9,0.9-0.9,1.6c0,0.6,0.3,1.1,0.8,1.4l3.9,2.2c0.5,4.8,2.8,7.7,6.5,8c1.4,0.1,2.9-0.1,4.4-0.5c0.7,8,3.6,13.1,8.8,15.1
		c3.8,1.5,8.6,1.2,14-0.8c1-0.4,1.8-0.7,2.5-1l1.1,0.6l-9.8,5.7c-0.9,0.5-1,1.5-0.6,2.3c0.4,0.7,1.3,1.2,2.3,0.6l11.5-6.6l3.8,2.2
		l-6.3,3.6c-0.5,0.3-0.8,0.8-0.8,1.4s0.3,1.2,0.8,1.4l6.3,3.6l-3.8,2.2l-11.5-6.6c-0.9-0.5-1.8-0.1-2.3,0.6
		c-0.4,0.7-0.4,1.7,0.6,2.3l9.8,5.7l-1.1,0.6c-7.5-3.7-17.2-4.3-22,2.6c-1.9,2.7-2.9,6.1-3.3,10.7c-1.5-0.5-3-0.7-4.4-0.5
		c-3.7,0.4-6,3.2-6.5,8l-3.9,2.2c-0.5,0.3-0.8,0.8-0.8,1.4c0,0.6,0.3,1.2,0.9,1.6c0.5,0.3,1.1,0.3,1.6,0l3.8-2.2
		c4.4,2.2,8.1,1.7,10.3-1.3c0.9-1.1,1.5-2.6,1.9-4.2c7.1,3.5,13,3.5,17.3,0.1c3.2-2.5,5.4-6.6,6.5-12.3c0.2-1.3,0.4-2.3,0.5-3.3
		l0.8-0.5l-0.3,11.3c0,1.1,0.8,1.6,1.6,1.6c0.8,0,1.7-0.5,1.8-1.6l0.3-13.3l3.8-2.2l-0.2,7.6c0,0.6,0.3,1.1,0.8,1.5
		c0.5,0.3,1.2,0.3,1.7,0l6.5-4l0,4.4l-11.3,6.9c-0.5,0.3-0.8,0.8-0.8,1.4c0,0.6,0.4,1.2,0.9,1.5c0.5,0.3,1.1,0.2,1.6-0.1l9.6-5.9
		l0,0.9c-3.9,2.7-7.1,6.2-8.8,9.9c-4.1,8.9,2.8,15.5,7.6,18.9c-1.3,1.2-2.2,2.5-2.8,3.8c-1.4,3.4,0,6.8,4.1,9.5l0,4.4
		c0,1.1,0.8,1.6,1.7,1.6c0,0,0,0,0,0c0.8,0,1.7-0.6,1.7-1.6l0-4.5c3.9-2.8,5.2-6.2,3.8-9.5c-0.6-1.3-1.5-2.6-2.7-3.7
		c4.8-3.4,11.7-10.2,7.4-19.1c-1.7-3.5-4.7-6.8-8.5-9.4l0-1.3l9.8,5.7c0.5,0.3,1.1,0.3,1.6,0c0.5-0.3,0.9-0.9,0.9-1.6
		c0-0.6-0.3-1.1-0.8-1.4l-11.5-6.6l0-4.4l6.3,3.6c0.5,0.3,1.1,0.3,1.7,0c0.5-0.3,0.8-0.8,0.8-1.4v-7.2l3.8,2.2v13.3
		c0,2.1,3.4,2.1,3.4,0v-11.3l1.1,0.6c0.6,8.4,4.9,17.1,13.3,17.8c3.2,0.3,6.7-0.5,10.9-2.5c0.3,1.6,0.9,2.9,1.7,4.1
		c2.2,3,5.8,3.6,10.2,1.6l3.9,2.2c0.9,0.5,1.8,0.1,2.3-0.6C374.3,333.4,374.3,332.4,373.4,331.8z M364,330.2c-1.9,0.3-3.2-0.3-4-2
		c-0.1-0.2-0.2-0.3-0.2-0.5L364,330.2z M365.8,327.4l-4.7-2.7c0.3-0.1,0.7-0.1,1-0.1C364,324.6,365.2,325.5,365.8,327.4z
		 M353.6,324.2c-3.9,1.8-7.1,2.3-9.9,1.5c-3-0.8-4.9-3.1-5.9-4.9c-1.2-2.1-2-4.5-2.4-7.2L353.6,324.2z M355.3,321.3l-18.5-10.7
		c2.7-1,5.5-1.5,8-1.5c2.1,0,5,0.6,7.2,2.9C353.9,314.1,355,317.1,355.3,321.3z M319.7,331.1c1.1,1.8,2.2,4.6,1.4,7.6
		c-0.7,2.8-2.8,5.3-6.3,7.9l0-21.1C316.8,327.2,318.5,329.1,319.7,331.1z M315.1,353.9c1.1,1.6,1,3.1-0.2,4.6l0-4.9
		C314.9,353.7,315,353.8,315.1,353.9z M314.9,243.9l0-4.9c1.2,1.5,1.3,3,0.2,4.6C315,243.7,314.9,243.8,314.9,243.9z M314.8,272
		l0-21.1c3.5,2.5,5.5,5.1,6.3,7.9c0.8,3-0.3,5.8-1.4,7.6C318.5,268.5,316.8,270.4,314.8,272z M327.6,298.8l-5.7,3.1l-5.4-3.1
		l5.4-3.1L327.6,298.8z M320.2,304.8v6.3l-5.4-3.1l0-6.3L320.2,304.8z M314.7,295.9l0-6.3l5.4-3.1v6.3L314.7,295.9z M336.8,287
		l18.5-10.7c-0.3,4.3-1.4,7.2-3.3,9.3c-2.1,2.3-5.1,2.9-7.2,2.9C342.3,288.5,339.5,288,336.8,287z M335.4,283.9
		c0.4-2.6,1.3-5.1,2.4-7.2c1-1.8,2.9-4.1,5.9-4.9c0.8-0.2,1.7-0.3,2.6-0.3c2.1,0,4.5,0.6,7.3,1.9L335.4,283.9z M362.1,273
		c-0.3,0-0.7,0-1-0.1l4.7-2.7C365.2,272.1,364,273,362.1,273z M359.7,269.8c0.1-0.2,0.2-0.3,0.2-0.5c0.7-1.4,1.8-2.1,3.2-2.1
		c0.3,0,0.6,0,0.9,0.1L359.7,269.8z M311,243.5c-1.1-1.7-0.9-3.2,0.5-4.7l0,5.4C311.3,244,311.2,243.8,311,243.5z M311.5,250.9
		l0,21.4c-2.1-1.8-4-3.9-5.2-6.1c-1-1.8-2.1-4.7-1.2-7.7C305.9,255.8,307.9,253.4,311.5,250.9z M311.4,325.2l0,21.4
		c-3.5-2.4-5.5-4.8-6.4-7.5c-1-3.1,0.1-6,1.1-7.9C307.5,329.1,309.3,327,311.4,325.2z M311.5,358.8c-1.4-1.5-1.6-3.1-0.5-4.7
		c0.1-0.2,0.3-0.5,0.5-0.7L311.5,358.8z M311.4,307.9l-5.6,3.4l0.2-6.5l5.4-3.1L311.4,307.9z M305.8,286.2l5.6,3.4l0,6.2l-5.4-3.1
		L305.8,286.2z M309.7,298.8l-5.5,3.1l-5.4-3.1l5.4-3.1L309.7,298.8z M289.1,286.9c-2.5,0.9-5.1,1.5-7.5,1.5c-2.1,0-5-0.4-7.2-2.6
		c-2-2.1-3.2-5-3.6-9.3L289.1,286.9z M291,284.1l-18.6-10.7c3.8-1.8,6.8-2.4,9.6-1.8c3.2,0.7,5.2,3,6.2,4.8
		C289.6,278.6,290.5,281.3,291,284.1z M266.6,270.2l-4.7-2.7c2-0.5,3.4,0.1,4.3,1.8C266.3,269.5,266.5,269.8,266.6,270.2z
		 M264.7,272.9c-0.2,0-0.4,0-0.6,0c-1.8,0.1-3.1-0.7-3.7-2.5L264.7,272.9z M289.1,310.7l-18.3,10.5c0.4-4.3,1.6-7.3,3.6-9.3
		c2.2-2.2,5.1-2.7,7.2-2.6C284,309.2,286.6,309.7,289.1,310.7z M291,313.4c-0.5,2.8-1.4,5.5-2.7,7.7c-1.1,1.8-3,4.1-6.1,4.8
		c-2.8,0.6-5.9,0.1-9.7-1.8L291,313.4z M266.6,327.4c-0.1,0.3-0.3,0.6-0.4,0.9c-0.9,1.7-2.3,2.3-4.3,1.8L266.6,327.4z M260.4,327.1
		c0.6-1.7,1.8-2.5,3.5-2.5c0.1,0,0.2,0,0.3,0c0.2,0,0.4,0,0.6,0L260.4,327.1z"/>
</g>
</svg>
