<?xml version="1.0" encoding="UTF-8" standalone="no"?>
<!-- Created with Inkscape (http://www.inkscape.org/) -->
<svg
   xmlns:svg="http://www.w3.org/2000/svg"
   xmlns="http://www.w3.org/2000/svg"
   version="1.0"
   width="100"
   height="100"
   id="svg2">
  <defs
     id="defs4" />
  <g
     transform="translate(-240.03683,-496.41132)"
     id="layer1">
    <path
       d="M 284.23605,572.49725 L 284.23605,519.9035 C 267.26728,521.26295 258.78291,529.677 258.78293,545.14569 C 258.78291,549.50511 259.43916,553.39573 260.75168,556.81757 C 262.11103,560.1926 263.98603,562.93478 266.37668,565.04413 C 268.76728,567.15353 271.43915,568.81759 274.3923,570.03632 C 277.34539,571.25509 280.62664,572.0754 284.23605,572.49725 M 295.83762,572.49725 C 300.24381,572.0754 304.06412,571.18478 307.29855,569.82538 C 310.57973,568.46603 313.08754,566.94259 314.82199,565.25507 C 316.55629,563.52072 317.9391,561.45822 318.97043,559.06757 C 320.0016,556.67698 320.63441,554.52073 320.86887,552.59882 C 321.15004,550.67698 321.29066,548.54417 321.29074,546.20038 C 321.29066,541.7473 320.63441,537.88012 319.32199,534.59882 C 318.05629,531.31763 316.20473,528.71607 313.7673,526.79413 C 311.37661,524.82545 308.72817,523.32545 305.82199,522.29413 C 302.91568,521.21608 299.58756,520.48951 295.83762,520.11444 L 295.83762,572.49725 M 284.23605,576.64569 C 279.54852,576.31758 275.2829,575.6379 271.43918,574.60663 C 267.64228,573.5754 264.47822,572.38009 261.94699,571.02069 C 259.4626,569.61446 257.25948,567.97384 255.33762,566.09882 C 253.4626,564.22384 252.00948,562.41916 250.97824,560.68475 C 249.99386,558.95041 249.19698,557.09885 248.58762,555.13007 C 247.97823,553.16136 247.5798,551.52073 247.3923,550.20819 C 247.25167,548.84886 247.18136,547.51292 247.18137,546.20038 C 247.18136,543.8098 247.55636,541.3723 248.30637,538.88788 C 249.10323,536.40356 250.43917,533.87231 252.31418,531.29413 C 254.18917,528.66919 256.48604,526.32544 259.2048,524.26288 C 261.97041,522.15357 265.50947,520.32545 269.82199,518.7785 C 274.13446,517.2317 278.93914,516.22389 284.23605,515.75507 L 284.23605,510.20038 C 284.23601,507.95046 283.62664,506.33328 282.40793,505.34882 C 281.18914,504.36453 279.17352,503.87234 276.36105,503.87225 L 272.56418,503.87225 C 271.76727,503.87234 271.36884,503.47391 271.36887,502.67694 L 271.36887,500.00507 L 271.65012,499.72382 C 279.99383,499.91141 286.0407,500.00516 289.79074,500.00507 L 308.35324,499.72382 L 308.63449,500.00507 L 308.63449,502.67694 C 308.63442,503.47391 308.25942,503.87234 307.50949,503.87225 L 303.71262,503.87225 C 300.85318,503.87234 298.81412,504.4114 297.59543,505.48944 C 296.4235,506.52078 295.83756,508.09109 295.83762,510.20038 L 295.83762,515.61444 C 306.9938,516.36452 315.94692,519.52858 322.69699,525.10663 C 329.49378,530.68482 332.89221,537.3645 332.8923,545.14569 C 332.89221,548.80198 332.02503,552.41136 330.29074,555.97382 C 328.55628,559.48947 326.14222,562.70041 323.04855,565.60663 C 319.95473,568.5129 316.04067,570.9504 311.30637,572.91913 C 306.57193,574.8879 301.41568,576.13008 295.83762,576.64569 L 295.83762,582.55194 C 295.83756,584.80195 296.44694,586.44257 297.66574,587.47382 C 298.88443,588.4582 300.90006,588.95038 303.71262,588.95038 L 307.50949,588.95038 C 308.3063,588.95038 308.70474,589.34882 308.7048,590.14569 L 308.7048,592.81757 L 308.42355,593.09882 C 300.07975,592.91132 294.03288,592.81757 290.28293,592.81757 L 271.72043,593.09882 L 271.43918,592.81757 L 271.43918,590.14569 C 271.43915,589.34882 271.81415,588.95038 272.56418,588.95038 L 276.36105,588.95038 C 279.17352,588.95038 281.18914,588.41132 282.40793,587.33319 C 283.62664,586.25507 284.23601,584.66132 284.23605,582.55194 L 284.23605,576.64569"
       id="text2383"
       style="font-size:56px;font-style:normal;font-weight:normal;text-align:center;line-height:125%;text-anchor:middle;fill:#000000;fill-opacity:1;stroke:none;stroke-width:1px;stroke-linecap:butt;stroke-linejoin:miter;stroke-opacity:1;font-family:Bitstream Vera Sans" />
  </g>
</svg>
