<?xml version="1.0" encoding="UTF-8" standalone="no"?>
<svg
   xmlns:dc="http://purl.org/dc/elements/1.1/"
   xmlns:cc="http://creativecommons.org/ns#"
   xmlns:rdf="http://www.w3.org/1999/02/22-rdf-syntax-ns#"
   xmlns:svg="http://www.w3.org/2000/svg"
   xmlns="http://www.w3.org/2000/svg"
   xmlns:sodipodi="http://sodipodi.sourceforge.net/DTD/sodipodi-0.dtd"
   xmlns:inkscape="http://www.inkscape.org/namespaces/inkscape"
   version="1.0"
   width="48"
   height="48"
   viewBox="0 0 36 36"
   preserveAspectRatio="xMidYMid meet"
   id="svg8"
   sodipodi:docname="actor.svg"
   inkscape:version="0.92.2 5c3e80d, 2017-08-06">
  <defs
     id="defs12" />
  <sodipodi:namedview
     pagecolor="#ffffff"
     bordercolor="#666666"
     borderopacity="1"
     objecttolerance="10"
     gridtolerance="10"
     guidetolerance="10"
     inkscape:pageopacity="0"
     inkscape:pageshadow="2"
     inkscape:window-width="1422"
     inkscape:window-height="841"
     id="namedview10"
     showgrid="false"
     inkscape:zoom="1"
     inkscape:cx="-255.58405"
     inkscape:cy="185.35096"
     inkscape:window-x="0"
     inkscape:window-y="0"
     inkscape:window-maximized="0"
     inkscape:current-layer="svg8"
     units="px" />
  <metadata
     id="metadata2">
Created by potrace 1.10, written by Peter Selinger 2001-2011
<rdf:RDF>
  <cc:Work
     rdf:about="">
    <dc:format>image/svg+xml</dc:format>
    <dc:type
       rdf:resource="http://purl.org/dc/dcmitype/StillImage" />
    <dc:title></dc:title>
  </cc:Work>
</rdf:RDF>
</metadata>
  <g
     transform="matrix(0.2462967,0,0,-0.19985285,-0.1987766,34.5)"
     id="g6"
     style="fill:#000000;stroke:none">
    <path
       d="M 52,148 C 36,132 37,115 56,99 70,87 70,85 53,79 37,72 37,71 53,71 76,70 75,47 50,25 39,15 32,5 35,2 c 3,-3 13,2 24,12 16,15 19,15 31,1 7,-8 17,-15 23,-15 6,0 1,10 -11,23 -27,28 -28,44 -4,50 15,4 15,5 -2,6 -19,1 -19,1 0,22 14,15 16,24 8,37 -14,22 -36,26 -52,10 z m 46,-21 c 4,-20 -25,-34 -40,-19 -15,15 -1,44 19,40 10,-2 19,-11 21,-21 z"
       id="path4"
       inkscape:connector-curvature="0" />
  </g>
</svg>
