<?xml version="1.0" encoding="UTF-8" standalone="no"?>
<svg
   xmlns:dc="http://purl.org/dc/elements/1.1/"
   xmlns:cc="http://creativecommons.org/ns#"
   xmlns:rdf="http://www.w3.org/1999/02/22-rdf-syntax-ns#"
   xmlns:svg="http://www.w3.org/2000/svg"
   xmlns="http://www.w3.org/2000/svg"
   xmlns:sodipodi="http://sodipodi.sourceforge.net/DTD/sodipodi-0.dtd"
   xmlns:inkscape="http://www.inkscape.org/namespaces/inkscape"
   version="1.0"
   width="48"
   height="48"
   viewBox="0 0 36 36"
   preserveAspectRatio="xMidYMid meet"
   id="svg8"
   sodipodi:docname="application-event.svg"
   inkscape:version="0.92.2 5c3e80d, 2017-08-06">
  <defs
     id="defs12" />
  <sodipodi:namedview
     pagecolor="#ffffff"
     bordercolor="#666666"
     borderopacity="1"
     objecttolerance="10"
     gridtolerance="10"
     guidetolerance="10"
     inkscape:pageopacity="0"
     inkscape:pageshadow="2"
     inkscape:window-width="1382"
     inkscape:window-height="937"
     id="namedview10"
     showgrid="false"
     units="px"
     inkscape:zoom="13.615385"
     inkscape:cx="6.3426082"
     inkscape:cy="26.293785"
     inkscape:window-x="0"
     inkscape:window-y="0"
     inkscape:window-maximized="0"
     inkscape:current-layer="svg8" />
  <metadata
     id="metadata2">
Created by potrace 1.12, written by Peter Selinger 2001-2015
<rdf:RDF>
  <cc:Work
     rdf:about="">
    <dc:format>image/svg+xml</dc:format>
    <dc:type
       rdf:resource="http://purl.org/dc/dcmitype/StillImage" />
    <dc:title />
  </cc:Work>
</rdf:RDF>
</metadata>
  <g
     transform="matrix(0.24482659,0,0,-0.19270795,-0.1255661,35.447377)"
     id="g6"
     style="fill:#000000;stroke:none">
    <path
       d="M 25,125 C 56,94 56,76 25,45 L 1,20 h 52 c 58,0 69,5 86,38 27,51 -10,92 -84,92 H 1 Z M 127,114 C 142,90 142,85 129,61 118,41 105,34 76,32 42,29 38,31 45,47 c 10,23 10,53 1,76 -7,14 -3,17 28,17 27,0 39,-6 53,-26 z"
       id="path4"
       inkscape:connector-curvature="0" />
  </g>
  <path
     style="fill:#00ffff;stroke-width:0.07344633"
     d="m 16.874811,39.287043 c -0.673892,-0.03596 -1.592858,-0.166136 -1.991997,-0.282184 -0.46656,-0.135649 -0.724504,-0.279738 -0.977887,-0.54625 -0.176267,-0.185401 -0.221337,-0.305489 -0.246808,-0.657614 -0.04491,-0.620867 0.100131,-1.032912 0.962462,-2.73426 1.174672,-2.317585 1.815603,-4.271579 2.19267,-6.68475 0.143333,-0.91731 0.165349,-1.343691 0.166459,-3.223793 0.0011,-1.860247 -0.02095,-2.307022 -0.155933,-3.159113 -0.428303,-2.703776 -1.189319,-5.040594 -2.227175,-6.838886 -1.544093,-2.675451 -0.542972,-3.456647 4.794402,-3.741171 2.215398,-0.118098 7.953189,-0.05234 9.382112,0.107517 5.028094,0.562519 7.918071,1.884788 11.17263,5.11188 1.899609,1.883577 3.888478,4.589148 4.581608,6.232622 1.008709,2.391743 0.465252,4.251224 -2.482297,8.493366 -3.436579,4.945958 -7.216248,6.801188 -15.254992,7.487828 -3.159515,0.269875 -8.564339,0.506889 -9.915254,0.434808 z"
     id="path8"
     inkscape:connector-curvature="0"
     transform="scale(0.75)" />
  <path
     style="fill:#deffff;stroke-width:0.07344633"
     d="m 15.914941,39.167352 c -1.072805,-0.154758 -1.485286,-0.29602 -1.852353,-0.63437 -0.261511,-0.241052 -0.326938,-0.355313 -0.365973,-0.639126 -0.07486,-0.544277 0.06481,-0.974385 0.839519,-2.585381 1.311547,-2.727332 1.75507,-4.005391 2.20471,-6.353108 0.359233,-1.875671 0.376674,-5.380052 0.03653,-7.340528 -0.415792,-2.396511 -0.952316,-4.068064 -1.922625,-5.98998 -0.377294,-0.747316 -0.738397,-1.536443 -0.802452,-1.753616 -0.230917,-0.782907 0.02476,-1.321949 0.800443,-1.687534 0.930688,-0.438644 2.402679,-0.640223 5.531232,-0.757465 2.629835,-0.09855 7.523716,0.0099 8.954678,0.198515 4.709367,0.620614 7.426784,1.92157 10.579843,5.065072 2.325838,2.318789 4.264633,5.081288 4.819605,6.867231 0.142172,0.45752 0.170499,0.706395 0.167192,1.468927 -0.0036,0.83836 -0.02473,0.978666 -0.242947,1.615819 -0.342443,0.999878 -1.060581,2.330373 -2.101068,3.892655 -1.143468,1.716907 -1.927147,2.68911 -2.990327,3.70969 -1.087055,1.043498 -1.97189,1.67118 -3.296849,2.338709 -2.131025,1.073635 -4.575108,1.706089 -8.11059,2.098772 -3.827532,0.42512 -10.762311,0.700119 -12.248571,0.485718 z"
     id="path9"
     inkscape:connector-curvature="0"
     transform="scale(0.75)" />
</svg>
