<?xml version="1.0" encoding="UTF-8" standalone="no"?>
<svg
   xmlns:dc="http://purl.org/dc/elements/1.1/"
   xmlns:cc="http://creativecommons.org/ns#"
   xmlns:rdf="http://www.w3.org/1999/02/22-rdf-syntax-ns#"
   xmlns:svg="http://www.w3.org/2000/svg"
   xmlns="http://www.w3.org/2000/svg"
   xmlns:sodipodi="http://sodipodi.sourceforge.net/DTD/sodipodi-0.dtd"
   xmlns:inkscape="http://www.inkscape.org/namespaces/inkscape"
   version="1.0"
   width="48"
   height="48"
   viewBox="0 0 36.000001 36"
   preserveAspectRatio="xMidYMid meet"
   id="svg8"
   sodipodi:docname="application-component.svg"
   inkscape:version="0.92.2 5c3e80d, 2017-08-06">
  <defs
     id="defs12" />
  <sodipodi:namedview
     pagecolor="#ffffff"
     bordercolor="#666666"
     borderopacity="1"
     objecttolerance="10"
     gridtolerance="10"
     guidetolerance="10"
     inkscape:pageopacity="0"
     inkscape:pageshadow="2"
     inkscape:window-width="2560"
     inkscape:window-height="1319"
     id="namedview10"
     showgrid="false"
     units="px"
     inkscape:zoom="13.615385"
     inkscape:cx="5.1958937"
     inkscape:cy="8.6666667"
     inkscape:window-x="0"
     inkscape:window-y="0"
     inkscape:window-maximized="1"
     inkscape:current-layer="svg8" />
  <metadata
     id="metadata2">
Created by potrace 1.12, written by Peter Selinger 2001-2015
<rdf:RDF>
  <cc:Work
     rdf:about="">
    <dc:format>image/svg+xml</dc:format>
    <dc:type
       rdf:resource="http://purl.org/dc/dcmitype/StillImage" />
    <dc:title />
  </cc:Work>
</rdf:RDF>
</metadata>
  <g
     transform="matrix(0.26697324,0,0,-0.26697324,-5.0875515,40.571396)"
     id="g6"
     style="fill:#000000;stroke:none">
    <path
       d="M 50,140 C 50,135 43,130 35,130 14,130 16,102 38,97 54,93 54,92 38,91 16,90 14,60 35,60 43,60 50,51 50,40 50,23 57,20 100,20 h 50 v 65 65 H 100 C 73,150 50,146 50,140 Z M 140,85 V 30 h -40 c -29,0 -40,4 -40,15 0,8 7,15 15,15 21,0 19,30 -2,31 -17,1 -17,2 0,6 9,2 17,11 17,18 0,7 -8,16 -17,18 -10,3 1,5 25,6 l 42,1 z"
       id="path4"
       inkscape:connector-curvature="0" />
  </g>
  <path
     style="fill:#00ffff;stroke-width:0.07344633"
     d="m 25.507018,43.321345 c -5.022468,-0.190001 -8.142204,-0.927184 -9.608026,-2.270343 -0.930373,-0.852519 -1.246074,-1.590566 -1.256254,-2.936878 -0.0095,-1.261472 0.294367,-2.141176 1.111697,-3.217998 0.688506,-0.907096 1.849324,-1.68671 2.918859,-1.960328 0.242373,-0.06201 0.891828,-0.14337 1.443232,-0.180809 1.158418,-0.07865 1.730342,-0.208164 2.449424,-0.554665 1.670282,-0.804851 2.60813,-2.413811 2.606829,-4.472242 -0.0013,-2.053751 -0.934025,-3.853199 -2.574838,-4.967453 -1.088749,-0.739356 -1.964174,-0.97933 -4.144986,-1.136238 -2.612686,-0.187982 -3.884142,-0.399357 -3.746065,-0.622771 0.148446,-0.24019 1.166673,-0.578128 3.45228,-1.14577 0.888701,-0.220714 1.790037,-0.466252 2.002969,-0.54564 1.024589,-0.381998 1.956332,-0.988472 2.866562,-1.865852 1.911479,-1.842495 2.608904,-3.726438 2.041196,-5.513849 C 24.502737,10.144828 22.850383,8.3207443 20.913407,7.3420349 20.610441,7.188953 19.929844,6.9278068 19.400968,6.7617099 18.424072,6.4549092 17.938831,6.2076246 17.938831,6.0165873 c 0,-0.5654146 3.566105,-1.0716188 9.29096,-1.3188403 1.872434,-0.080859 13.616593,-0.3689975 15.038136,-0.368955 l 0.752824,2.25e-5 V 23.865537 43.40226 l -7.987288,-0.01134 c -4.393008,-0.0062 -8.679908,-0.03755 -9.526445,-0.06957 z"
     id="path8"
     inkscape:connector-curvature="0"
     transform="scale(0.75000001)" />
  <path
     style="fill:#deffff;stroke-width:0.07344633"
     d="m 25.628661,43.293225 c -2.81711,-0.07991 -5.590015,-0.456979 -7.254042,-0.986435 -2.04973,-0.652178 -3.353749,-1.811647 -3.615626,-3.214837 -0.105542,-0.565515 -0.08923,-1.65986 0.03243,-2.175641 0.344935,-1.462347 1.455223,-2.824705 2.901498,-3.560229 0.588416,-0.299248 1.107045,-0.437899 1.938932,-0.518359 1.922476,-0.18594 2.616595,-0.370577 3.487478,-0.927674 0.968242,-0.619377 1.721919,-1.781882 1.966889,-3.033819 0.144985,-0.740955 0.104066,-2.058346 -0.0856,-2.755892 -0.620664,-2.282652 -2.462078,-3.938583 -4.80699,-4.32279 -0.383757,-0.06288 -1.342231,-0.167144 -2.129943,-0.231704 -2.218921,-0.181861 -3.305085,-0.3614 -3.305085,-0.546321 0,-0.182208 1.157961,-0.562671 3.70904,-1.218654 1.7891,-0.460048 2.566784,-0.779055 3.477214,-1.426356 1.569682,-1.116017 2.88345,-2.838603 3.204924,-4.202233 0.140941,-0.59784 0.141386,-1.454223 0.001,-2.009674 -0.149217,-0.59059 -0.6852,-1.65346 -1.129336,-2.2395084 C 23.213731,8.8572396 21.809762,7.7154526 20.689505,7.2133401 20.436973,7.1001524 19.866797,6.8868072 19.422447,6.7392396 18.502981,6.4338875 18.039237,6.1962071 18.003789,6.0121419 c -0.09186,-0.4770014 3.266987,-0.9851204 8.102274,-1.2256934 1.63547,-0.08137 5.101216,-0.1852921 9.805084,-0.2940088 1.716808,-0.039679 4.005579,-0.093331 5.086158,-0.1192272 l 1.964689,-0.047083 V 23.834816 43.343503 l -8.317796,-0.01524 c -4.574788,-0.0084 -8.631779,-0.02415 -9.015537,-0.03504 z"
     id="path9"
     inkscape:connector-curvature="0"
     transform="scale(0.75000001)" />
</svg>
