<?xml version="1.0" encoding="UTF-8" standalone="no"?>
<svg
   xmlns:dc="http://purl.org/dc/elements/1.1/"
   xmlns:cc="http://creativecommons.org/ns#"
   xmlns:rdf="http://www.w3.org/1999/02/22-rdf-syntax-ns#"
   xmlns:svg="http://www.w3.org/2000/svg"
   xmlns="http://www.w3.org/2000/svg"
   xmlns:sodipodi="http://sodipodi.sourceforge.net/DTD/sodipodi-0.dtd"
   xmlns:inkscape="http://www.inkscape.org/namespaces/inkscape"
   version="1.0"
   width="48"
   height="48"
   viewBox="0 0 35.999997 36"
   preserveAspectRatio="xMidYMid meet"
   id="svg12"
   sodipodi:docname="application-collaboration.svg"
   inkscape:version="0.92.2 5c3e80d, 2017-08-06">
  <defs
     id="defs16" />
  <sodipodi:namedview
     pagecolor="#ffffff"
     bordercolor="#666666"
     borderopacity="1"
     objecttolerance="10"
     gridtolerance="10"
     guidetolerance="10"
     inkscape:pageopacity="0"
     inkscape:pageshadow="2"
     inkscape:window-width="1512"
     inkscape:window-height="1135"
     id="namedview14"
     showgrid="false"
     inkscape:zoom="17.052073"
     inkscape:cx="7.8184699"
     inkscape:cy="22.192019"
     inkscape:window-x="786"
     inkscape:window-y="100"
     inkscape:window-maximized="0"
     inkscape:current-layer="svg12"
     units="px" />
  <metadata
     id="metadata2">
Created by potrace 1.12, written by Peter Selinger 2001-2015
<rdf:RDF>
  <cc:Work
     rdf:about="">
    <dc:format>image/svg+xml</dc:format>
    <dc:type
       rdf:resource="http://purl.org/dc/dcmitype/StillImage" />
    <dc:title />
  </cc:Work>
</rdf:RDF>
</metadata>
  <g
     transform="matrix(0.22689611,0,0,-0.22689611,-0.03085354,36.698947)"
     id="g10"
     style="fill:#000000;stroke:none">
    <path
       d="M 19,119 C -21,79 6,38 74,34 c 69,-4 105,36 72,81 -20,27 -101,30 -127,4 z m 122,-10 c 23,-36 1,-62 -55,-65 -65,-4 -98,33 -61,70 19,19 103,16 116,-5 z"
       id="path4"
       inkscape:connector-curvature="0" />
    <path
       d="m 55,100 c -3,-11 -2,-27 2,-35 6,-11 9,-5 9,20 0,40 -2,43 -11,15 z"
       id="path6"
       inkscape:connector-curvature="0" />
    <path
       d="m 94,84 c 0,-30 2,-33 9,-16 5,12 5,26 0,36 -7,12 -9,7 -9,-20 z"
       id="path8"
       inkscape:connector-curvature="0" />
  </g>
  <path
     style="fill:#00ffff;stroke-width:0.0586439"
     d="M 21.042534,35.631943 C 16.534455,35.418499 12.462945,34.431345 9.3144575,32.788423 7.8602932,32.029622 6.7815779,31.244373 5.7009896,30.158008 4.3331322,28.782837 3.5476858,27.448099 3.126237,25.782636 2.2494638,22.317843 3.7281805,18.392181 7.2808001,14.7532 c 0.4319037,-0.442403 0.8559757,-0.808737 1.21145,-1.04651 2.3334099,-1.560792 6.0035849,-2.516684 11.3130319,-2.946462 1.225991,-0.09924 6.112636,-0.09999 7.389131,-0.0011 6.226399,0.482172 10.872437,1.665355 13.57342,3.456675 1.217248,0.807291 1.883235,1.650579 2.907198,3.681159 0.800818,1.588072 1.199495,2.719145 1.477951,4.193039 0.10176,0.53863 0.127483,0.892826 0.127769,1.759317 4.1e-4,1.200503 -0.07363,1.715445 -0.387457,2.695137 -0.64581,2.016087 -2.143111,3.83958 -4.298751,5.235249 -2.788028,1.80511 -6.726199,3.014878 -11.582169,3.557933 -2.797609,0.312863 -5.483603,0.412064 -7.96984,0.294349 z m 8.6217,-4.389188 c 0.205875,-0.213592 0.400534,-0.538344 0.746973,-1.246183 1.146078,-2.341645 1.66015,-4.122209 1.831967,-6.345277 0.180777,-2.339 -0.333634,-4.924243 -1.297264,-6.519582 -0.677879,-1.122263 -1.242842,-1.651293 -1.621983,-1.51882 -0.717692,0.250763 -1.008774,3.109442 -0.937189,9.204006 0.03603,3.067798 0.09315,4.280743 0.249816,5.305468 0.145259,0.950095 0.361455,1.409258 0.663547,1.409258 0.04713,0 0.210994,-0.129992 0.364133,-0.28887 z M 18.948981,30.763469 c 0.474497,-0.373239 0.762574,-1.654336 0.915204,-4.069965 0.03465,-0.548321 0.06213,-2.55901 0.06108,-4.468198 -0.0033,-6.045446 -0.184584,-8.506657 -0.665344,-9.034559 -0.167284,-0.183688 -0.261151,-0.166284 -0.509133,0.0944 -0.394349,0.414547 -0.984955,1.796449 -1.753105,4.101921 -0.495609,1.487484 -0.557254,1.716377 -0.707376,2.626533 -0.360126,2.183362 -0.300789,4.932186 0.151159,7.002444 0.370959,1.699273 1.0951,3.191372 1.794821,3.698247 0.280776,0.203394 0.497619,0.218356 0.712695,0.04918 z"
     id="path10"
     inkscape:connector-curvature="0"
     transform="scale(0.74999997)" />
  <path
     style="fill:#deffff;stroke-width:0.0586439"
     d="M 20.579382,35.584728 C 14.806668,35.245688 9.7727185,33.587742 6.6602298,31.000414 4.9888526,29.611044 3.8389177,27.999444 3.3103768,26.305694 3.0239086,25.387685 2.9275689,24.749835 2.9275689,23.771183 c 0,-2.475826 1.0337503,-5.008328 3.0872499,-7.563208 0.7143072,-0.888711 1.9505614,-2.119731 2.4839203,-2.473403 2.1735549,-1.44129 5.2352129,-2.308107 10.0336979,-2.840744 0.981302,-0.108925 1.577966,-0.130089 4.334057,-0.153734 3.415658,-0.0293 4.30986,0.005 6.48015,0.248892 4.494867,0.505034 7.812996,1.346887 10.288574,2.610346 2.018681,1.030272 2.793487,1.875726 4.079256,4.45121 0.724166,1.450554 1.089996,2.472718 1.386932,3.875213 0.177637,0.839022 0.194779,2.864683 0.03077,3.635922 -1.172473,5.513434 -7.298412,8.991462 -17.398238,9.877927 -2.334229,0.204875 -5.160927,0.262213 -7.154555,0.145124 z m 8.963824,-4.189669 c 0.241214,-0.202968 0.612418,-0.8055 0.992508,-1.611022 1.256374,-2.662624 1.733565,-4.605238 1.735864,-7.066589 0.0025,-2.634544 -0.603532,-4.739225 -1.830485,-6.357483 -0.869097,-1.146274 -1.402246,-1.020144 -1.713363,0.405342 -0.2805,1.285208 -0.31894,2.126799 -0.317394,6.949087 0.0015,4.580155 0.03114,5.403587 0.237368,6.586161 0.129934,0.745099 0.376447,1.242799 0.615564,1.242799 0.05703,0 0.183006,-0.06673 0.279938,-0.148295 z M 18.983693,30.753015 c 0.324022,-0.272647 0.58271,-1.085007 0.739138,-2.321121 0.19291,-1.524407 0.226422,-2.7801 0.193841,-7.263218 -0.03547,-4.880525 -0.09902,-6.135441 -0.372333,-7.351929 -0.09426,-0.419533 -0.306645,-0.74622 -0.485138,-0.74622 -0.440644,0 -1.196561,1.60804 -2.194583,4.66847 -0.54677,1.676664 -0.722151,2.645119 -0.792711,4.377351 -0.07229,1.774662 0.05255,3.511273 0.353074,4.911426 0.433717,2.020729 1.498485,3.869256 2.229313,3.870278 0.08622,1.17e-4 0.234454,-0.06515 0.329399,-0.145037 z"
     id="path11"
     inkscape:connector-curvature="0"
     transform="scale(0.74999997)" />
</svg>
