<?xml version="1.0" encoding="UTF-8" standalone="no"?>
<svg
   xmlns:dc="http://purl.org/dc/elements/1.1/"
   xmlns:cc="http://creativecommons.org/ns#"
   xmlns:rdf="http://www.w3.org/1999/02/22-rdf-syntax-ns#"
   xmlns:svg="http://www.w3.org/2000/svg"
   xmlns="http://www.w3.org/2000/svg"
   xmlns:sodipodi="http://sodipodi.sourceforge.net/DTD/sodipodi-0.dtd"
   xmlns:inkscape="http://www.inkscape.org/namespaces/inkscape"
   version="1.0"
   width="48"
   height="48"
   viewBox="0 0 36 36"
   preserveAspectRatio="xMidYMid meet"
   id="svg8"
   sodipodi:docname="application-service.svg"
   inkscape:version="0.92.2 5c3e80d, 2017-08-06">
  <defs
     id="defs12" />
  <sodipodi:namedview
     pagecolor="#ffffff"
     bordercolor="#666666"
     borderopacity="1"
     objecttolerance="10"
     gridtolerance="10"
     guidetolerance="10"
     inkscape:pageopacity="0"
     inkscape:pageshadow="2"
     inkscape:window-width="1409"
     inkscape:window-height="995"
     id="namedview10"
     showgrid="false"
     units="px"
     inkscape:zoom="17.928719"
     inkscape:cx="29.719381"
     inkscape:cy="23.084828"
     inkscape:window-x="0"
     inkscape:window-y="0"
     inkscape:window-maximized="0"
     inkscape:current-layer="svg8" />
  <metadata
     id="metadata2">
Created by potrace 1.12, written by Peter Selinger 2001-2015
<rdf:RDF>
  <cc:Work
     rdf:about="">
    <dc:format>image/svg+xml</dc:format>
    <dc:type
       rdf:resource="http://purl.org/dc/dcmitype/StillImage" />
    <dc:title />
  </cc:Work>
</rdf:RDF>
</metadata>
  <g
     transform="matrix(0.22570649,0,0,-0.22570649,-0.08510861,35.266195)"
     id="g6"
     style="fill:#000000;stroke:none">
    <path
       d="M 12,108 C -4,92 -3,65 14,51 36,32 140,41 154,63 c 8,12 8,22 0,35 -14,21 -122,30 -142,10 z M 145,80 C 145,56 142,55 82,52 33,50 18,52 14,65 c -14,35 3,46 68,43 60,-3 63,-4 63,-28 z"
       id="path4"
       inkscape:connector-curvature="0" />
  </g>
  <path
     style="fill:#00ffff;stroke-width:0.05577643"
     d="M 12.975295,31.473421 C 7.874433,31.190592 5.4692838,30.28562 4.4544619,28.267336 4.303266,27.966636 3.7204258,26.404351 3.4764639,25.645843 2.6771161,23.160569 2.5512665,21.052351 3.1100685,19.508026 3.7940792,17.61767 5.5555761,16.272811 8.4004571,15.468947 12.089786,14.42647 17.400766,14.177655 26.250086,14.632704 c 6.453935,0.331874 9.288689,0.564688 11.517834,0.945943 3.934024,0.672844 5.204301,1.700863 5.616459,4.545329 0.05069,0.349813 0.07271,1.212138 0.07266,2.844598 -5.6e-5,1.989395 -0.01533,2.439325 -0.101255,2.98404 -0.415415,2.633501 -1.662802,3.639419 -5.357809,4.320643 -2.359172,0.434945 -7.164667,0.803478 -14.62221,1.121375 -2.308661,0.09841 -9.116444,0.149986 -10.400473,0.07879 z"
     id="path8"
     inkscape:connector-curvature="0"
     transform="scale(0.75)" />
  <path
     style="fill:#deffff;stroke-width:0.05577643"
     d="M 12.930674,31.448231 C 10.086402,31.292748 7.8185129,30.858008 6.5674381,30.228441 5.7148552,29.799404 5.0578055,29.229554 4.6618096,28.575718 4.4376374,28.205583 4.0405018,27.226739 3.6371539,26.050188 2.7808965,23.552517 2.5751349,21.432523 3.0349652,19.845745 3.6260701,17.805966 5.3438543,16.39221 8.2713112,15.536172 12.173314,14.395161 17.887636,14.171064 28.185529,14.755201 c 5.703271,0.323513 8.269893,0.568026 10.281206,0.979458 3.075649,0.62915 4.251408,1.534206 4.749554,3.656032 0.172741,0.735785 0.221532,1.540844 0.220895,3.644815 -6.14e-4,2.022834 -0.04526,2.732859 -0.218212,3.470392 -0.688561,2.936244 -2.731905,3.757812 -10.850211,4.36255 -3.802933,0.283283 -8.0926,0.492444 -11.517833,0.5616 -2.367475,0.0478 -7.176496,0.05884 -7.920254,0.01818 z"
     id="path9"
     inkscape:connector-curvature="0"
     transform="scale(0.75)" />
</svg>
