<?xml version="1.0" encoding="UTF-8" standalone="no"?>
<svg
   xmlns:dc="http://purl.org/dc/elements/1.1/"
   xmlns:cc="http://creativecommons.org/ns#"
   xmlns:rdf="http://www.w3.org/1999/02/22-rdf-syntax-ns#"
   xmlns:svg="http://www.w3.org/2000/svg"
   xmlns="http://www.w3.org/2000/svg"
   xmlns:sodipodi="http://sodipodi.sourceforge.net/DTD/sodipodi-0.dtd"
   xmlns:inkscape="http://www.inkscape.org/namespaces/inkscape"
   version="1.0"
   width="48"
   height="48"
   viewBox="0 0 36 36"
   preserveAspectRatio="xMidYMid meet"
   id="svg8"
   sodipodi:docname="artifact.svg"
   inkscape:version="0.92.2 5c3e80d, 2017-08-06">
  <defs
     id="defs12" />
  <sodipodi:namedview
     pagecolor="#ffffff"
     bordercolor="#666666"
     borderopacity="1"
     objecttolerance="10"
     gridtolerance="10"
     guidetolerance="10"
     inkscape:pageopacity="0"
     inkscape:pageshadow="2"
     inkscape:window-width="1721"
     inkscape:window-height="1254"
     id="namedview10"
     showgrid="false"
     units="px"
     inkscape:zoom="14.75"
     inkscape:cx="24.075577"
     inkscape:cy="26.983051"
     inkscape:window-x="0"
     inkscape:window-y="0"
     inkscape:window-maximized="0"
     inkscape:current-layer="svg8" />
  <metadata
     id="metadata2">
Created by potrace 1.12, written by Peter Selinger 2001-2015
<rdf:RDF>
  <cc:Work
     rdf:about="">
    <dc:format>image/svg+xml</dc:format>
    <dc:type
       rdf:resource="http://purl.org/dc/dcmitype/StillImage" />
    <dc:title />
  </cc:Work>
</rdf:RDF>
</metadata>
  <g
     transform="matrix(0.29830508,0,0,-0.29830508,-6.3559322,41.966112)"
     id="g6"
     style="fill:#000000;stroke:none">
    <path
       d="M 30,80 V 20 h 50 50 v 38 c 0,46 -32,82 -73,82 -26,0 -27,-2 -27,-60 z m 50,30 c 0,-13 7,-20 20,-20 16,0 20,-7 20,-30 0,-28 -2,-30 -40,-30 H 40 v 50 c 0,43 3,50 20,50 13,0 20,-7 20,-20 z"
       id="path4"
       inkscape:connector-curvature="0" />
  </g>
  <path
     style="fill:#aad400;stroke-width:0.06779661"
     d="M 7.479634,31.942373 C 7.4800008,25.333051 7.5105384,19.010169 7.5474953,17.891525 7.7484747,11.808111 8.284617,8.6610784 9.455883,6.6897253 c 0.3594096,-0.6049208 1.097337,-1.3012108 1.72148,-1.624346 1.15829,-0.5996767 2.37378,-0.8007764 4.504994,-0.7453396 1.44537,0.037597 2.075976,0.1317827 3.048009,0.4552436 1.385391,0.461013 2.609767,1.3917386 3.348027,2.5450472 0.808896,1.2636569 1.152605,2.6043598 1.232724,4.8084825 0.05165,1.421006 0.126877,2.055871 0.339679,2.866763 0.765969,2.918773 2.762331,4.627056 5.911917,5.058817 0.401397,0.05503 1.29422,0.11865 1.984051,0.141387 1.467628,0.04837 2.03622,0.11586 2.915254,0.34601 3.071539,0.804193 4.33155,3.067627 4.6758,8.399425 0.08915,1.380774 0.09006,5.693285 0.0015,7.1537 -0.334561,5.517532 -1.821942,7.074034 -7.287472,7.62613 -2.035889,0.205653 -3.856859,0.236412 -14.050847,0.237339 l -10.3220368,9.38e-4 z"
     id="path8"
     inkscape:connector-curvature="0"
     transform="scale(0.75)" />
  <path
     style="fill:#abc837;stroke-width:0.06779661"
     d="M 7.5033866,31.17398 C 7.5290821,24.129647 7.5808191,17.679661 7.6183578,16.840678 7.8420149,11.841977 8.2914685,9.1291848 9.2098847,7.2346083 9.8902086,5.8311862 10.914301,5.0223434 12.562935,4.5863213 c 0.574209,-0.151864 0.816913,-0.1741196 2.215657,-0.2031732 1.765639,-0.036674 2.639045,0.036406 3.53374,0.2956785 2.699881,0.7823949 4.382623,2.7678567 4.820145,5.6872754 0.03912,0.261016 0.103598,1.054237 0.143289,1.762711 0.08927,1.59348 0.158072,2.12848 0.379253,2.949153 0.575053,2.13367 1.885253,3.660257 3.823948,4.455491 1.058432,0.43416 2.001388,0.59126 4.178692,0.696188 0.788112,0.03798 1.703366,0.115909 2.033899,0.173175 0.759147,0.131525 1.80015,0.484716 2.309769,0.783658 0.523684,0.307192 1.416391,1.212209 1.733166,1.757066 0.687509,1.182522 1.120162,2.95868 1.337393,5.490354 0.09639,1.123357 0.09512,7.053043 -0.0018,8.210426 -0.455517,5.441977 -2.194268,6.816235 -9.082681,7.178692 -0.689831,0.0363 -6.041459,0.08689 -11.892506,0.11242 L 7.4566674,43.98186 Z"
     id="path10"
     inkscape:connector-curvature="0"
     transform="scale(0.75)" />
  <path
     style="fill:#abc837;stroke-width:0.06779661"
     d="m 7.5027359,32.213559 c 0.025259,-6.460169 0.060434,-12.279661 0.078167,-12.932203 0.017733,-0.652543 0.048343,-1.788173 0.068022,-2.523623 0.051721,-1.932947 0.2146552,-3.933571 0.4423862,-5.431939 0.5412716,-3.5613217 1.4754866,-5.3800037 3.2181649,-6.2649567 0.810699,-0.4116829 1.430414,-0.5653612 2.576271,-0.6388688 1.525718,-0.097876 3.210133,-0.025961 4.135593,0.1765654 0.327894,0.071756 1.143385,0.3846228 1.602242,0.6147072 1.369038,0.6864756 2.429234,1.8532483 2.999768,3.3013216 0.383241,0.9727041 0.501995,1.6243113 0.652513,3.5803523 0.07891,1.025424 0.189715,2.09322 0.24624,2.372881 0.57948,2.866986 2.280629,4.69975 5.003321,5.390417 0.5801,0.147154 1.521905,0.250137 4.072187,0.445277 1.197387,0.09162 1.143562,0.08308 1.892415,0.300094 1.309971,0.379614 1.722744,0.627704 2.61804,1.573523 0.417848,0.441427 0.621781,0.724687 0.816731,1.134425 0.601577,1.264374 1.000732,3.157937 1.146126,5.43714 0.129337,2.027474 0.06228,7.98934 -0.100101,8.899308 -0.01602,0.08978 -0.04945,0.303337 -0.07429,0.474576 -0.06351,0.437904 -0.06675,0.453257 -0.222386,1.057105 -0.622127,2.413687 -1.88683,3.561514 -4.5857,4.161923 -1.041019,0.231592 -1.711602,0.3171 -3.524738,0.449447 -0.666208,0.04863 -13.310852,0.164428 -18.163621,0.166342 l -4.9432806,0.0019 z"
     id="path12"
     inkscape:connector-curvature="0"
     transform="scale(0.75)" />
  <path
     style="fill:#ccf4cc;stroke-width:0.06779661"
     d="M 7.525062,31.051885 C 7.5546085,23.933009 7.5868652,17.864407 7.5967436,17.566102 7.7831404,11.937356 8.2381554,9.1458996 9.3096539,7.057627 9.7618093,6.1764089 10.481479,5.4654564 11.358407,5.0336908 12.518705,4.462404 12.763534,4.4234805 15.22134,4.4195493 c 1.971884,-0.00315 2.179769,0.00781 2.711864,0.1430343 2.157154,0.5482063 3.83287,1.9055906 4.60616,3.7311398 0.472729,1.1159972 0.595981,1.7446676 0.747889,3.8147506 0.115301,1.571246 0.201568,2.229278 0.379338,2.893513 0.616001,2.301679 1.951485,3.805612 4.09622,4.612888 0.884785,0.333033 1.555109,0.428711 4.661906,0.665418 1.129651,0.08607 1.495868,0.141139 2.067159,0.310857 1.256539,0.373288 1.615381,0.580682 2.424178,1.401054 0.954698,0.968361 1.293878,1.637432 1.691466,3.336609 0.419516,1.79289 0.544047,3.420063 0.542213,7.084746 -0.0025,5.00112 -0.186392,6.519339 -0.989497,8.169492 -0.263689,0.541805 -0.406169,0.735933 -0.897364,1.22265 -0.46479,0.460553 -0.701463,0.635738 -1.160176,0.858761 -1.069561,0.52001 -2.111205,0.784799 -3.966102,1.008191 -1.300038,0.15657 -4.74857,0.218283 -15.281779,0.273476 l -9.3834739,0.04917 z"
     id="path11"
     inkscape:connector-curvature="0"
     transform="scale(0.75)" />
</svg>
