<?xml version="1.0" encoding="UTF-8" standalone="no"?>
<svg
   xmlns:dc="http://purl.org/dc/elements/1.1/"
   xmlns:cc="http://creativecommons.org/ns#"
   xmlns:rdf="http://www.w3.org/1999/02/22-rdf-syntax-ns#"
   xmlns:svg="http://www.w3.org/2000/svg"
   xmlns="http://www.w3.org/2000/svg"
   xmlns:sodipodi="http://sodipodi.sourceforge.net/DTD/sodipodi-0.dtd"
   xmlns:inkscape="http://www.inkscape.org/namespaces/inkscape"
   version="1.0"
   width="48"
   height="48"
   viewBox="0 0 36 36"
   preserveAspectRatio="xMidYMid meet"
   id="svg8"
   sodipodi:docname="assessment.svg"
   inkscape:version="0.92.2 5c3e80d, 2017-08-06">
  <defs
     id="defs12" />
  <sodipodi:namedview
     pagecolor="#ffffff"
     bordercolor="#666666"
     borderopacity="1"
     objecttolerance="10"
     gridtolerance="10"
     guidetolerance="10"
     inkscape:pageopacity="0"
     inkscape:pageshadow="2"
     inkscape:window-width="2560"
     inkscape:window-height="1319"
     id="namedview10"
     showgrid="false"
     units="px"
     inkscape:zoom="13.23097"
     inkscape:cx="5.3661974"
     inkscape:cy="8.3138271"
     inkscape:window-x="0"
     inkscape:window-y="0"
     inkscape:window-maximized="1"
     inkscape:current-layer="svg8" />
  <metadata
     id="metadata2">
Created by potrace 1.12, written by Peter Selinger 2001-2015
<rdf:RDF>
  <cc:Work
     rdf:about="">
    <dc:format>image/svg+xml</dc:format>
    <dc:type
       rdf:resource="http://purl.org/dc/dcmitype/StillImage" />
    <dc:title />
  </cc:Work>
</rdf:RDF>
</metadata>
  <g
     transform="matrix(0.26586419,0,0,-0.26586419,-6.6466048,42.646572)"
     id="g6"
     style="fill:#000000;stroke:none">
    <path
       d="M 79,139 C 66,126 61,112 65,99 70,85 64,70 48,52 L 25,25 52,48 c 18,16 33,22 47,17 13,-4 27,1 40,14 26,26 26,36 1,61 -25,25 -35,25 -61,-1 z m 55,-5 c 9,-8 16,-19 16,-24 0,-11 -29,-40 -40,-40 -11,0 -40,29 -40,40 0,5 7,16 16,24 19,20 29,20 48,0 z"
       id="path4"
       inkscape:connector-curvature="0" />
  </g>
  <path
     style="fill:#ccccff;stroke-width:0.07558025"
     d="m 29.380663,31.900725 c -1.854341,-0.448378 -5.024262,-2.731058 -7.979888,-5.746369 -3.386207,-3.454588 -5.39058,-6.527758 -5.390915,-8.265527 -2.3e-4,-1.193797 1.09418,-3.327057 2.830529,-5.517358 0.713712,-0.900306 3.769399,-4.0258128 5.020295,-5.1350056 1.944531,-1.7242509 3.365551,-2.5898889 4.912716,-2.9926635 0.829157,-0.2158548 2.080788,-0.1846631 2.94763,0.073457 1.268684,0.3777776 2.576862,1.1368153 4.017387,2.3309901 0.917563,0.7606459 4.290708,4.080129 5.086125,5.00521 1.702864,1.980458 2.970311,4.085476 3.335687,5.540019 0.1493,0.594354 0.151529,0.656957 0.04245,1.191851 -0.378843,1.857717 -2.257918,4.617577 -5.187912,7.619657 -3.077967,3.153695 -6.256296,5.450732 -8.162909,5.899486 -0.594022,0.139814 -0.880491,0.139084 -1.471194,-0.0037 z"
     id="path13"
     inkscape:connector-curvature="0"
     transform="scale(0.75)" />
</svg>
