<?xml version="1.0" encoding="UTF-8" standalone="no"?>
<svg
   xmlns:dc="http://purl.org/dc/elements/1.1/"
   xmlns:cc="http://creativecommons.org/ns#"
   xmlns:rdf="http://www.w3.org/1999/02/22-rdf-syntax-ns#"
   xmlns:svg="http://www.w3.org/2000/svg"
   xmlns="http://www.w3.org/2000/svg"
   xmlns:sodipodi="http://sodipodi.sourceforge.net/DTD/sodipodi-0.dtd"
   xmlns:inkscape="http://www.inkscape.org/namespaces/inkscape"
   version="1.0"
   width="48"
   height="48"
   viewBox="0 0 36 36"
   preserveAspectRatio="xMidYMid meet"
   id="svg8"
   sodipodi:docname="business-role.svg"
   inkscape:version="0.92.2 5c3e80d, 2017-08-06">
  <defs
     id="defs12" />
  <sodipodi:namedview
     pagecolor="#ffffff"
     bordercolor="#666666"
     borderopacity="1"
     objecttolerance="10"
     gridtolerance="10"
     guidetolerance="10"
     inkscape:pageopacity="0"
     inkscape:pageshadow="2"
     inkscape:window-width="1949"
     inkscape:window-height="1166"
     id="namedview10"
     showgrid="false"
     units="px"
     inkscape:zoom="18.068824"
     inkscape:cx="7.9418566"
     inkscape:cy="23.104047"
     inkscape:window-x="0"
     inkscape:window-y="0"
     inkscape:window-maximized="0"
     inkscape:current-layer="svg8" />
  <metadata
     id="metadata2">
Created by potrace 1.12, written by Peter Selinger 2001-2015
<rdf:RDF>
  <cc:Work
     rdf:about="">
    <dc:format>image/svg+xml</dc:format>
    <dc:type
       rdf:resource="http://purl.org/dc/dcmitype/StillImage" />
    <dc:title />
  </cc:Work>
</rdf:RDF>
</metadata>
  <g
     transform="matrix(0.22708784,0,0,-0.22708784,-0.34665485,37.724556)"
     id="g6"
     style="fill:#000000;stroke:none">
    <path
       d="M 16,114 C -18,80 12,50 80,50 c 46,0 80,17 80,40 0,38 -112,57 -144,24 z m 74,-9 C 80,93 80,87 90,75 101,62 97,60 67,60 25,60 1,82 20,105 c 7,8 28,15 47,15 30,0 34,-2 23,-15 z m 50,-1 c 11,-12 10,-18 -3,-32 -16,-15 -18,-15 -34,0 -13,14 -14,20 -3,32 16,20 24,20 40,0 z"
       id="path4"
       inkscape:connector-curvature="0" />
  </g>
  <path
     style="fill:#ffff99;stroke-width:0.05534394"
     d="M 17.461015,32.028271 C 9.805254,31.465366 4.4397571,28.426674 3.7062613,24.238412 3.4291945,22.656361 3.8924247,20.954605 5.0584445,19.270934 c 0.4926219,-0.71132 0.8072641,-1.055525 1.3579304,-1.485516 2.27259,-1.774568 6.3843251,-3.17112 10.7679201,-3.657329 1.711004,-0.189777 6.537701,-0.153936 8.414534,0.06248 1.405043,0.162016 2.196253,0.404671 2.584094,0.792512 0.584972,0.584972 0.223671,1.516571 -1.31175,3.382284 -1.480161,1.798565 -2.092114,2.860792 -2.310493,4.010553 -0.268817,1.415323 0.33222,2.928877 1.945736,4.899822 2.039606,2.491422 2.373967,3.381821 1.496612,3.985458 -0.63287,0.435426 -1.851809,0.660732 -4.177459,0.772153 -1.384348,0.06632 -5.437408,0.06309 -6.364554,-0.0051 z"
     id="path10"
     inkscape:connector-curvature="0"
     transform="scale(0.75)" />
  <path
     style="fill:#ffff99;stroke-width:0.05534394"
     d="m 35.143406,31.764579 c -0.851272,-0.248221 -1.749284,-0.877971 -3.472326,-2.435044 -2.07384,-1.874081 -3.631697,-3.965479 -4.003347,-5.374429 -0.128941,-0.488823 -0.126679,-1.304238 0.0049,-1.771006 0.221601,-0.786041 0.739124,-1.676113 1.501316,-2.582065 1.440682,-1.712415 1.771636,-2.098316 2.210803,-2.577855 0.984981,-1.075528 1.955893,-1.864976 2.80863,-2.283693 1.650142,-0.810266 3.032654,-0.515904 4.887238,1.040582 0.636673,0.534337 1.28929,1.221772 2.421754,2.550957 1.569352,1.841967 1.876343,2.256522 2.251352,3.040181 0.580604,1.213296 0.571448,2.251211 -0.03084,3.496074 -0.718282,1.484602 -2.344912,3.37201 -4.484039,5.20291 -1.141466,0.976994 -2.023232,1.533395 -2.71605,1.713851 -0.419224,0.109194 -0.962375,0.101136 -1.379401,-0.02046 z"
     id="path12"
     inkscape:connector-curvature="0"
     transform="scale(0.75)" />
</svg>
