<?xml version="1.0" encoding="UTF-8" standalone="no"?>
<svg
   xmlns:dc="http://purl.org/dc/elements/1.1/"
   xmlns:cc="http://creativecommons.org/ns#"
   xmlns:rdf="http://www.w3.org/1999/02/22-rdf-syntax-ns#"
   xmlns:svg="http://www.w3.org/2000/svg"
   xmlns="http://www.w3.org/2000/svg"
   xmlns:sodipodi="http://sodipodi.sourceforge.net/DTD/sodipodi-0.dtd"
   xmlns:inkscape="http://www.inkscape.org/namespaces/inkscape"
   version="1.0"
   width="48"
   height="48"
   viewBox="0 0 36 36"
   preserveAspectRatio="xMidYMid meet"
   id="svg8"
   sodipodi:docname="business-event.svg"
   inkscape:version="0.92.2 5c3e80d, 2017-08-06">
  <defs
     id="defs12" />
  <sodipodi:namedview
     pagecolor="#ffffff"
     bordercolor="#666666"
     borderopacity="1"
     objecttolerance="10"
     gridtolerance="10"
     guidetolerance="10"
     inkscape:pageopacity="0"
     inkscape:pageshadow="2"
     inkscape:window-width="1694"
     inkscape:window-height="1156"
     id="namedview10"
     showgrid="false"
     units="px"
     inkscape:zoom="13.615385"
     inkscape:cx="6.3426082"
     inkscape:cy="20.418079"
     inkscape:window-x="0"
     inkscape:window-y="0"
     inkscape:window-maximized="0"
     inkscape:current-layer="svg8" />
  <metadata
     id="metadata2">
Created by potrace 1.12, written by Peter Selinger 2001-2015
<rdf:RDF>
  <cc:Work
     rdf:about="">
    <dc:format>image/svg+xml</dc:format>
    <dc:type
       rdf:resource="http://purl.org/dc/dcmitype/StillImage" />
    <dc:title />
  </cc:Work>
</rdf:RDF>
</metadata>
  <g
     transform="matrix(0.24533898,0,0,-0.24533898,-0.29133273,38.758473)"
     id="g6"
     style="fill:#000000;stroke:none">
    <path
       d="M 25,125 C 56,94 56,76 25,45 L 1,20 h 52 c 58,0 69,5 86,38 27,51 -10,92 -84,92 H 1 Z M 127,114 C 142,90 142,85 129,61 118,41 105,34 76,32 42,29 38,31 45,47 c 10,23 10,53 1,76 -7,14 -3,17 28,17 27,0 39,-6 53,-26 z"
       id="path4"
       inkscape:connector-curvature="0" />
  </g>
  <path
     style="fill:#ffff99;stroke-width:0.07344633"
     d="m 15.927354,41.458165 c -1.942794,-0.265268 -2.691253,-1.010585 -2.461171,-2.450841 0.09344,-0.584913 0.411001,-1.519702 1.012031,-2.979076 2.597183,-6.306264 3.092186,-13.88598 1.367005,-20.932202 -0.345844,-1.412541 -0.874749,-3.00237 -1.374584,-4.131838 -0.591833,-1.337355 -0.730944,-1.8443645 -0.699007,-2.5476271 0.02287,-0.5037005 0.05561,-0.6216232 0.249256,-0.8979329 0.552954,-0.7889907 1.971511,-1.2359122 4.623984,-1.4568029 2.684903,-0.2235914 7.779112,-0.1638147 9.951977,0.1167789 4.01351,0.518286 6.788187,1.8265713 9.406271,4.435142 1.487477,1.482073 2.72348,3.104474 4.047388,5.312682 3.071243,5.122667 3.479108,7.399034 1.996243,11.141349 -0.379544,0.957855 -1.588396,3.407679 -2.377977,4.819136 -1.657963,2.963781 -3.522407,5.040085 -5.765908,6.4211 -2.201781,1.355334 -5.330676,2.256646 -9.289068,2.675818 -3.997275,0.423288 -9.327462,0.659867 -10.68644,0.474314 z"
     id="path11"
     inkscape:connector-curvature="0"
     transform="scale(0.75)" />
</svg>
