<?xml version="1.0" encoding="UTF-8" standalone="no"?>
<svg
   xmlns:dc="http://purl.org/dc/elements/1.1/"
   xmlns:cc="http://creativecommons.org/ns#"
   xmlns:rdf="http://www.w3.org/1999/02/22-rdf-syntax-ns#"
   xmlns:svg="http://www.w3.org/2000/svg"
   xmlns="http://www.w3.org/2000/svg"
   xmlns:sodipodi="http://sodipodi.sourceforge.net/DTD/sodipodi-0.dtd"
   xmlns:inkscape="http://www.inkscape.org/namespaces/inkscape"
   version="1.0"
   width="48"
   height="48"
   viewBox="0 0 36 36"
   preserveAspectRatio="xMidYMid meet"
   id="svg8"
   sodipodi:docname="capability.svg"
   inkscape:version="0.92.2 5c3e80d, 2017-08-06">
  <defs
     id="defs12" />
  <sodipodi:namedview
     pagecolor="#ffffff"
     bordercolor="#666666"
     borderopacity="1"
     objecttolerance="10"
     gridtolerance="10"
     guidetolerance="10"
     inkscape:pageopacity="0"
     inkscape:pageshadow="2"
     inkscape:window-width="1813"
     inkscape:window-height="1174"
     id="namedview10"
     showgrid="false"
     units="px"
     inkscape:zoom="11.0625"
     inkscape:cx="10.666667"
     inkscape:cy="10.666667"
     inkscape:window-x="0"
     inkscape:window-y="0"
     inkscape:window-maximized="0"
     inkscape:current-layer="svg8" />
  <metadata
     id="metadata2">
Created by potrace 1.12, written by Peter Selinger 2001-2015
<rdf:RDF>
  <cc:Work
     rdf:about="">
    <dc:format>image/svg+xml</dc:format>
    <dc:type
       rdf:resource="http://purl.org/dc/dcmitype/StillImage" />
    <dc:title></dc:title>
  </cc:Work>
</rdf:RDF>
</metadata>
  <g
     id="g3735">
    <g
       style="fill:#000000;stroke:none"
       id="g6"
       transform="matrix(0.22457627,0,0,-0.22457627,0,36)">
      <path
         inkscape:connector-curvature="0"
         id="path4"
         d="M 100,135 C 100,115 95,110 75,110 55,110 50,105 50,85 50,65 45,60 25,60 4,60 0,55 0,30 V 0 h 80 80 v 80 80 h -30 c -25,0 -30,-4 -30,-25 z m 50,-5 c 0,-13 -7,-20 -20,-20 -13,0 -20,7 -20,20 0,13 7,20 20,20 13,0 20,-7 20,-20 z M 100,80 C 100,67 93,60 80,60 67,60 60,67 60,80 c 0,13 7,20 20,20 13,0 20,-7 20,-20 z m 50,0 c 0,-13 -7,-20 -20,-20 -13,0 -20,7 -20,20 0,13 7,20 20,20 13,0 20,-7 20,-20 z M 50,30 C 50,17 43,10 30,10 17,10 10,17 10,30 c 0,13 7,20 20,20 13,0 20,-7 20,-20 z m 50,0 C 100,17 93,10 80,10 67,10 60,17 60,30 c 0,13 7,20 20,20 13,0 20,-7 20,-20 z m 50,0 c 0,-13 -7,-20 -20,-20 -13,0 -20,7 -20,20 0,13 7,20 20,20 13,0 20,-7 20,-20 z" />
    </g>
    <path
       transform="scale(0.75)"
       inkscape:connector-curvature="0"
       id="path3715"
       d="M 7.6054895,44.868194 C 5.3240522,44.510157 3.8231039,43.173409 3.2456498,40.985311 c -0.2173161,-0.823458 -0.2170602,-3.05596 4.497e-4,-3.923124 0.5090199,-2.029349 1.9156892,-3.386381 3.952561,-3.813086 0.9990949,-0.209301 2.8299145,-0.185061 3.7482325,0.04963 2.047462,0.523255 3.228521,1.703996 3.75539,3.754379 0.235894,0.918011 0.259871,2.746236 0.04916,3.748232 -0.424933,2.020667 -1.79505,3.452694 -3.767323,3.937552 -0.700222,0.172141 -2.6340664,0.24615 -3.3786285,0.129303 z"
       style="fill:#ffdead;stroke-width:0.09039548" />
    <path
       transform="scale(0.75)"
       inkscape:connector-curvature="0"
       id="path3717"
       d="m 22.336723,44.823933 c -1.428122,-0.26719 -2.709007,-1.078707 -3.406889,-2.158466 -0.577177,-0.893005 -0.813264,-1.784253 -0.864108,-3.262077 -0.05577,-1.621035 0.09749,-2.504581 0.617089,-3.557593 0.659688,-1.336905 1.692499,-2.13313 3.306613,-2.549169 0.902502,-0.232621 2.738831,-0.255994 3.733945,-0.04753 2.026718,0.424578 3.415805,1.744645 3.95534,3.758809 0.22451,0.838128 0.220555,3.244184 -0.0067,4.05997 -0.534704,1.919673 -1.802152,3.171049 -3.719498,3.672334 -0.787384,0.20586 -2.723392,0.250686 -3.615819,0.08372 z"
       style="fill:#ffdead;stroke-width:0.09039548" />
    <path
       transform="scale(0.75)"
       inkscape:connector-curvature="0"
       id="path3719"
       d="m 22.155932,29.816946 c -0.95045,-0.203978 -1.983483,-0.746446 -2.604958,-1.36792 -1.017923,-1.017924 -1.508036,-2.45211 -1.508036,-4.412868 0,-2.001418 0.457124,-3.324856 1.511222,-4.375197 1.135482,-1.131435 2.215367,-1.497735 4.409682,-1.495774 1.60867,0.0014 2.171446,0.108315 3.209039,0.609433 1.172108,0.566084 2.091723,1.754092 2.498456,3.22764 0.228244,0.826898 0.232248,3.229263 0.0068,4.067796 -0.486592,1.809683 -1.617856,3.017689 -3.356906,3.584637 -0.634863,0.206971 -0.913273,0.241987 -2.131381,0.26806 -1.004752,0.02151 -1.58014,-0.0084 -2.033899,-0.105807 z"
       style="fill:#ffdead;stroke-width:0.09039548" />
    <path
       transform="scale(0.75)"
       inkscape:connector-curvature="0"
       id="path3721"
       d="m 37.583641,44.876348 c -1.642235,-0.260575 -2.942425,-1.056238 -3.733995,-2.285051 -0.843619,-1.309613 -1.106453,-3.727616 -0.61434,-5.651761 0.495561,-1.937624 1.857405,-3.229362 3.881078,-3.681284 0.907572,-0.202677 2.708247,-0.202677 3.615819,0 2.048743,0.45752 3.382474,1.731758 3.890107,3.716582 0.498299,1.948335 0.213888,4.352779 -0.672846,5.688295 -0.999364,1.505152 -2.419022,2.18474 -4.708786,2.25409 -0.646328,0.01958 -1.391994,0.0012 -1.657037,-0.04087 z"
       style="fill:#ffdead;stroke-width:0.09039548" />
    <path
       transform="scale(0.75)"
       inkscape:connector-curvature="0"
       id="path3723"
       d="m 37.326313,29.863468 c -2.105883,-0.377176 -3.557014,-1.706353 -4.110481,-3.765032 -0.252702,-0.939952 -0.275598,-3.013905 -0.04372,-3.960583 0.475197,-1.940092 1.633265,-3.157346 3.582693,-3.765796 0.59212,-0.184811 0.861106,-0.211605 2.124294,-0.211605 1.660604,0 2.101813,0.0832 3.191448,0.601827 1.343157,0.639294 2.206001,1.75702 2.607748,3.378072 0.233922,0.943873 0.210765,3.016062 -0.04423,3.958085 -0.492541,1.81957 -1.509702,2.918783 -3.265095,3.528484 -0.706922,0.245536 -0.891053,0.270469 -2.173484,0.294319 -0.770621,0.01433 -1.611746,-0.01166 -1.869167,-0.05777 z"
       style="fill:#ffdead;stroke-width:0.09039548" />
    <path
       transform="scale(0.75)"
       inkscape:connector-curvature="0"
       id="path3725"
       d="m 37.766587,14.95113 c -2.444302,-0.34421 -3.944046,-1.615605 -4.552758,-3.859561 -0.271463,-1.00072 -0.273291,-3.0246209 -0.0036,-4.0175375 0.509273,-1.8751818 1.629734,-3.0694185 3.409009,-3.6334713 1.157866,-0.3670583 3.006112,-0.4057757 4.293785,-0.089947 1.26385,0.3099857 2.407806,1.088886 3.031469,2.064076 0.897426,1.4032626 1.174211,3.7420255 0.674218,5.6969808 -0.493824,1.930834 -1.737143,3.165791 -3.692713,3.667877 -0.797475,0.204749 -2.332043,0.288091 -3.159381,0.171583 z"
       style="fill:#ffdead;stroke-width:0.09039548" />
  </g>
</svg>
