<?xml version="1.0" encoding="UTF-8" standalone="no"?>
<svg
   xmlns:dc="http://purl.org/dc/elements/1.1/"
   xmlns:cc="http://creativecommons.org/ns#"
   xmlns:rdf="http://www.w3.org/1999/02/22-rdf-syntax-ns#"
   xmlns:svg="http://www.w3.org/2000/svg"
   xmlns="http://www.w3.org/2000/svg"
   xmlns:sodipodi="http://sodipodi.sourceforge.net/DTD/sodipodi-0.dtd"
   xmlns:inkscape="http://www.inkscape.org/namespaces/inkscape"
   version="1.0"
   width="48"
   height="48"
   viewBox="0 0 36 36"
   preserveAspectRatio="xMidYMid meet"
   id="svg8"
   sodipodi:docname="constraint.svg"
   inkscape:version="0.92.2 5c3e80d, 2017-08-06">
  <defs
     id="defs12" />
  <sodipodi:namedview
     pagecolor="#ffffff"
     bordercolor="#666666"
     borderopacity="1"
     objecttolerance="10"
     gridtolerance="10"
     guidetolerance="10"
     inkscape:pageopacity="0"
     inkscape:pageshadow="2"
     inkscape:window-width="2560"
     inkscape:window-height="1319"
     id="namedview10"
     showgrid="false"
     units="px"
     inkscape:zoom="21.982074"
     inkscape:cx="-0.5977388"
     inkscape:cy="32.512708"
     inkscape:window-x="0"
     inkscape:window-y="0"
     inkscape:window-maximized="1"
     inkscape:current-layer="svg8" />
  <metadata
     id="metadata2">
Created by potrace 1.12, written by Peter Selinger 2001-2015
<rdf:RDF>
  <cc:Work
     rdf:about="">
    <dc:format>image/svg+xml</dc:format>
    <dc:type
       rdf:resource="http://purl.org/dc/dcmitype/StillImage" />
    <dc:title />
  </cc:Work>
</rdf:RDF>
</metadata>
  <g
     transform="matrix(0.22411782,0,0,-0.22411782,-0.0839895,37.531632)"
     id="g6"
     style="fill:#000000;stroke:none">
    <path
       d="M 20,90 C 9,69 0,48 0,45 c 0,-3 27,-5 60,-5 59,0 60,0 80,40 11,21 20,42 20,45 0,3 -27,5 -60,5 -59,0 -60,0 -80,-40 z m 50,25 C 70,97 37,50 25,50 c -12,0 -12,5 2,35 9,19 23,35 30,35 7,0 13,-2 13,-5 z M 133,85 C 119,55 111,50 83,50 H 50 l 17,35 c 14,30 22,35 50,35 h 33 z"
       id="path4"
       inkscape:connector-curvature="0" />
  </g>
  <path
     style="fill:#ccccff;stroke-width:0.04549161"
     d="m 14.892686,35.019116 c 0.06399,-0.15217 5.134295,-10.575771 5.781011,-11.884684 0.407954,-0.825673 0.941176,-1.849234 1.184937,-2.274581 2.564636,-4.47512 4.827094,-6.053592 9.32471,-6.505666 1.297748,-0.130442 3.145953,-0.163655 8.337351,-0.149826 l 5.149031,0.01372 -2.419534,4.984231 c -1.330744,2.741327 -2.695896,5.555134 -3.033671,6.252905 -1.591945,3.288616 -2.750055,5.145601 -4.056745,6.504835 -1.961344,2.040212 -4.170331,2.864864 -8.221287,3.069143 -1.424374,0.07183 -12.076498,0.06292 -12.045803,-0.01007 z"
     id="path10"
     inkscape:connector-curvature="0"
     transform="scale(0.75)" />
  <path
     style="fill:#ccccff;stroke-width:0.04549161"
     d="M 6.3892296,35.030357 C 5.7673299,34.944309 5.3982496,34.782512 5.1096455,34.469414 4.8324501,34.168692 4.7615483,33.883857 4.7913206,33.190602 c 0.056447,-1.314385 0.8176002,-3.400299 2.8478132,-7.804335 0.9347164,-2.027632 1.7195965,-3.453479 2.8046572,-5.095061 1.89926,-2.873378 3.920065,-5.014124 5.469956,-5.794612 0.497861,-0.25071 0.84046,-0.31628 1.4668,-0.28073 1.408747,0.07996 2.554015,0.396272 3.067668,0.84726 0.282263,0.247827 0.360209,0.476657 0.322468,0.946684 -0.182023,2.266958 -1.758514,5.840654 -4.354993,9.872194 -1.76486,2.740291 -3.699127,5.182144 -5.500518,6.943952 -1.1099234,1.085534 -2.0457239,1.781913 -2.7921686,2.077799 -0.3285139,0.130221 -0.4170615,0.145274 -0.9098323,0.154668 -0.3002446,0.0057 -0.6710183,-0.0069 -0.8239415,-0.02806 z"
     id="path12"
     inkscape:connector-curvature="0"
     transform="scale(0.75)" />
</svg>
