<?xml version="1.0" encoding="UTF-8" standalone="no"?>
<svg
   xmlns:dc="http://purl.org/dc/elements/1.1/"
   xmlns:cc="http://creativecommons.org/ns#"
   xmlns:rdf="http://www.w3.org/1999/02/22-rdf-syntax-ns#"
   xmlns:svg="http://www.w3.org/2000/svg"
   xmlns="http://www.w3.org/2000/svg"
   xmlns:sodipodi="http://sodipodi.sourceforge.net/DTD/sodipodi-0.dtd"
   xmlns:inkscape="http://www.inkscape.org/namespaces/inkscape"
   version="1.0"
   width="48"
   height="48"
   viewBox="0 0 36 36"
   preserveAspectRatio="xMidYMid meet"
   id="svg8"
   sodipodi:docname="device.svg"
   inkscape:version="0.92.2 5c3e80d, 2017-08-06">
  <defs
     id="defs12" />
  <sodipodi:namedview
     pagecolor="#ffffff"
     bordercolor="#666666"
     borderopacity="1"
     objecttolerance="10"
     gridtolerance="10"
     guidetolerance="10"
     inkscape:pageopacity="0"
     inkscape:pageshadow="2"
     inkscape:window-width="1692"
     inkscape:window-height="931"
     id="namedview10"
     showgrid="false"
     units="px"
     inkscape:zoom="13.744927"
     inkscape:cx="5.9397936"
     inkscape:cy="28.956138"
     inkscape:window-x="0"
     inkscape:window-y="0"
     inkscape:window-maximized="0"
     inkscape:current-layer="svg8" />
  <metadata
     id="metadata2">
Created by potrace 1.12, written by Peter Selinger 2001-2015
<rdf:RDF>
  <cc:Work
     rdf:about="">
    <dc:format>image/svg+xml</dc:format>
    <dc:type
       rdf:resource="http://purl.org/dc/dcmitype/StillImage" />
    <dc:title></dc:title>
  </cc:Work>
</rdf:RDF>
</metadata>
  <g
     transform="matrix(0.25540074,0,0,-0.25540074,-2.3381475,37.080756)"
     id="g6"
     style="fill:#000000;stroke:none">
    <path
       d="M 24,125 C 20,116 20,94 23,75 26,56 24,38 19,35 -6,19 17,10 80,10 c 65,0 81,6 63,24 -4,4 -8,29 -8,54 v 47 l -53,3 C 42,140 28,137 24,125 Z M 130,95 V 60 H 80 30 v 35 35 h 50 50 z m 0,-60 c 11,-13 4,-15 -50,-15 -54,0 -61,2 -50,15 16,20 84,20 100,0 z"
       id="path4"
       inkscape:connector-curvature="0" />
  </g>
  <path
     style="fill:#ccf4cc;stroke-width:0.07275411"
     d="M 7.1475119,17.115878 V 5.2205796 H 24.135598 41.123684 V 17.115878 29.011176 H 24.135598 7.1475119 Z"
     id="path14"
     inkscape:connector-curvature="0"
     transform="scale(0.75)" />
  <path
     style="fill:#ccf4cc;stroke-width:0.07275411"
     d="M 17.18758,42.544703 C 9.4303779,42.389432 6.4411866,41.911819 5.7717284,40.720679 5.6422327,40.490273 5.6107011,40.345302 5.6377969,40.104908 5.7398857,39.199179 7.0426592,37.404905 8.3603953,36.355148 12.189698,33.304585 20.801096,31.788651 28.990935,32.723387 c 4.975038,0.56782 8.833722,1.896696 11.173468,3.847985 0.933855,0.778811 2.147264,2.423854 2.376146,3.22139 0.493653,1.720123 -1.719305,2.398783 -8.728653,2.676866 -2.548892,0.101122 -12.971505,0.148191 -16.624316,0.07507 z"
     id="path16"
     inkscape:connector-curvature="0"
     transform="scale(0.75)" />
</svg>
