<?xml version="1.0" encoding="UTF-8" standalone="no"?>
<svg
   xmlns:dc="http://purl.org/dc/elements/1.1/"
   xmlns:cc="http://creativecommons.org/ns#"
   xmlns:rdf="http://www.w3.org/1999/02/22-rdf-syntax-ns#"
   xmlns:svg="http://www.w3.org/2000/svg"
   xmlns="http://www.w3.org/2000/svg"
   xmlns:sodipodi="http://sodipodi.sourceforge.net/DTD/sodipodi-0.dtd"
   xmlns:inkscape="http://www.inkscape.org/namespaces/inkscape"
   version="1.0"
   width="48"
   height="48"
   viewBox="0 0 36 36"
   preserveAspectRatio="xMidYMid meet"
   id="svg8"
   sodipodi:docname="distribution-network.svg"
   inkscape:version="0.92.2 5c3e80d, 2017-08-06">
  <defs
     id="defs12" />
  <sodipodi:namedview
     pagecolor="#ffffff"
     bordercolor="#666666"
     borderopacity="1"
     objecttolerance="10"
     gridtolerance="10"
     guidetolerance="10"
     inkscape:pageopacity="0"
     inkscape:pageshadow="2"
     inkscape:window-width="2560"
     inkscape:window-height="1319"
     id="namedview10"
     showgrid="false"
     units="px"
     inkscape:zoom="17.834377"
     inkscape:cx="8.046258"
     inkscape:cy="21.387254"
     inkscape:window-x="0"
     inkscape:window-y="0"
     inkscape:window-maximized="1"
     inkscape:current-layer="svg8" />
  <metadata
     id="metadata2">
Created by potrace 1.12, written by Peter Selinger 2001-2015
<rdf:RDF>
  <cc:Work
     rdf:about="">
    <dc:format>image/svg+xml</dc:format>
    <dc:type
       rdf:resource="http://purl.org/dc/dcmitype/StillImage" />
    <dc:title></dc:title>
  </cc:Work>
</rdf:RDF>
</metadata>
  <g
     transform="matrix(0.22432099,0,0,-0.22432099,0.13737384,36.392076)"
     id="g6"
     style="fill:#000000;stroke:none">
    <path
       d="M 22,107 0,84 27,59 C 41,46 50,41 46,48 c -5,9 4,12 34,12 30,0 39,-3 34,-12 -4,-7 5,-2 19,11 l 27,25 -22,23 c -22,24 -34,30 -23,13 4,-6 -10,-10 -35,-10 -25,0 -39,4 -35,10 11,17 -1,11 -23,-13 z M 145,85 C 145,74 46,65 23,74 c -8,3 -11,11 -8,16 8,14 130,9 130,-5 z"
       id="path4"
       inkscape:connector-curvature="0" />
  </g>
  <path
     style="fill:#ccf4cc;stroke-width:0.05607148"
     d="m 15.150515,27.427602 c -3.82738,-0.09787 -6.5705384,-0.468597 -8.1583173,-1.10257 -0.586275,-0.234089 -1.107839,-0.575114 -1.5355079,-1.003993 -0.7505766,-0.7527 -1.0745084,-1.498504 -1.0682453,-2.459475 0.00762,-1.169255 0.4606047,-1.72728 1.8380388,-2.264257 3.7462277,-1.460423 14.4971517,-1.889817 24.6240477,-0.98349 5.581696,0.499545 9.720021,1.323769 11.601279,2.310609 0.742943,0.389721 1.154,0.914013 1.036854,1.322477 -0.207296,0.722797 -1.996489,1.503793 -4.973646,2.171035 -6.034167,1.352379 -15.896084,2.200638 -23.364503,2.009664 z"
     id="path14"
     inkscape:connector-curvature="0"
     transform="scale(0.75)" />
</svg>
