<?xml version="1.0" encoding="UTF-8" standalone="no"?>
<svg
   xmlns:dc="http://purl.org/dc/elements/1.1/"
   xmlns:cc="http://creativecommons.org/ns#"
   xmlns:rdf="http://www.w3.org/1999/02/22-rdf-syntax-ns#"
   xmlns:svg="http://www.w3.org/2000/svg"
   xmlns="http://www.w3.org/2000/svg"
   xmlns:sodipodi="http://sodipodi.sourceforge.net/DTD/sodipodi-0.dtd"
   xmlns:inkscape="http://www.inkscape.org/namespaces/inkscape"
   version="1.0"
   width="48"
   height="48"
   viewBox="0 0 36 36"
   preserveAspectRatio="xMidYMid meet"
   id="svg10"
   sodipodi:docname="equipment.svg"
   inkscape:version="0.92.2 5c3e80d, 2017-08-06">
  <defs
     id="defs14" />
  <sodipodi:namedview
     pagecolor="#ffffff"
     bordercolor="#666666"
     borderopacity="1"
     objecttolerance="10"
     gridtolerance="10"
     guidetolerance="10"
     inkscape:pageopacity="0"
     inkscape:pageshadow="2"
     inkscape:window-width="1842"
     inkscape:window-height="1084"
     id="namedview12"
     showgrid="false"
     units="px"
     inkscape:zoom="11.0625"
     inkscape:cx="2.1694915"
     inkscape:cy="10.666667"
     inkscape:window-x="0"
     inkscape:window-y="0"
     inkscape:window-maximized="0"
     inkscape:current-layer="svg10" />
  <metadata
     id="metadata2">
Created by potrace 1.12, written by Peter Selinger 2001-2015
<rdf:RDF>
  <cc:Work
     rdf:about="">
    <dc:format>image/svg+xml</dc:format>
    <dc:type
       rdf:resource="http://purl.org/dc/dcmitype/StillImage" />
    <dc:title />
  </cc:Work>
</rdf:RDF>
</metadata>
  <g
     transform="matrix(0.22330508,0,0,-0.22330508,0,35.99998)"
     id="g8"
     style="fill:#000000;stroke:none">
    <path
       d="M 60,150 C 60,145 51,140 40,140 27,140 20,133 20,120 20,109 16,100 10,100 5,100 0,91 0,80 0,69 5,60 10,60 16,60 20,51 20,40 20,27 27,20 40,20 51,20 60,16 60,10 60,5 69,0 80,0 c 11,0 20,5 20,10 0,6 9,10 20,10 13,0 20,7 20,20 0,11 5,20 10,20 6,0 10,9 10,20 0,11 -4,20 -10,20 -5,0 -10,9 -10,20 0,13 -7,20 -20,20 -11,0 -20,5 -20,10 0,6 -9,10 -20,10 -11,0 -20,-4 -20,-10 z m 30,-10 c 0,-5 9,-10 20,-10 13,0 20,-7 20,-19 0,-11 6,-22 13,-25 10,-5 10,-7 0,-12 C 136,71 130,60 130,49 130,37 123,30 111,30 100,30 89,24 86,18 81,8 79,8 74,18 71,24 60,30 49,30 37,30 30,37 30,49 30,60 24,71 18,74 8,79 8,81 18,86 c 6,3 12,14 12,25 0,12 7,19 20,19 11,0 20,5 20,10 0,6 5,10 10,10 6,0 10,-4 10,-10 z"
       id="path4"
       inkscape:connector-curvature="0" />
    <path
       d="M 54,96 C 44,70 58,48 82,52 c 33,4 33,52 0,56 -13,2 -25,-3 -28,-12 z M 96,89 C 106,72 83,53 69,67 c -12,12 -4,33 11,33 5,0 12,-5 16,-11 z"
       id="path6"
       inkscape:connector-curvature="0" />
  </g>
  <path
     style="fill:#ccf4cc;stroke-width:0.09039548"
     d="M 23.204082,44.457998 C 23.02534,44.269897 22.643614,43.685539 22.355803,43.159424 22.067992,42.633309 21.688397,42.034486 21.512258,41.828708 20.801275,40.998083 19.283966,40.058363 17.915261,39.600965 16.908604,39.264557 16.025167,39.111218 14.553848,39.017519 12.473326,38.885025 11.500689,38.527692 10.483476,37.522125 9.5032185,36.553089 9.1303012,35.565902 8.9984472,33.59096 8.8207486,30.929345 8.3268262,29.322773 7.1701414,27.644067 6.5654716,26.766505 5.9502745,26.226728 4.9331911,25.681356 3.3528186,24.83394 2.9733496,24.401048 3.3164006,23.836946 c 0.1807084,-0.297152 0.990091,-0.856825 1.9807745,-1.369671 2.0896348,-1.08174 3.6925327,-4.499614 3.7070427,-7.904563 0.00595,-1.396741 0.5693478,-2.813035 1.4700402,-3.695465 1.027597,-1.0067612 2.052006,-1.3685911 4.269245,-1.5079334 2.745755,-0.172557 4.342712,-0.683523 5.453282,-1.7448456 0.513095,-0.4903427 0.553017,-0.5745839 0.698657,-1.4742665 0.154062,-0.9517086 0.41148,-1.4769269 0.969966,-1.9790541 0.622754,-0.5599085 1.288414,-0.7900907 2.143632,-0.7412565 1.592885,0.090956 2.528861,0.9958958 2.714619,2.6246021 0.11337,0.9940177 0.374261,1.4056006 1.282581,2.0234072 0.47237,0.3212887 0.962478,0.5579441 1.534827,0.7411113 1.116754,0.3573919 1.653108,0.4451325 3.371927,0.5516042 0.795481,0.049276 1.690396,0.1553304 1.988701,0.2356768 1.399108,0.3768404 2.594167,1.3251015 3.146371,2.4965975 0.417727,0.886206 0.512936,1.330754 0.608737,2.842314 0.153055,2.414929 0.676692,4.077526 1.761716,5.593609 0.656977,0.917982 1.267559,1.438653 2.39278,2.040432 2.556308,1.36714 2.570388,1.847566 0.0931,3.176706 -0.473803,0.25421 -1.039104,0.587738 -1.256227,0.741175 -0.853398,0.603081 -1.934459,2.260848 -2.443281,3.746681 -0.315786,0.922138 -0.45438,1.733784 -0.548272,3.210846 -0.06634,1.043665 -0.143984,1.56104 -0.315953,2.105418 -0.413493,1.308936 -1.216929,2.278706 -2.349999,2.836515 -0.825918,0.406598 -1.396263,0.529694 -2.916113,0.629376 -2.009736,0.131813 -3.258175,0.437001 -4.661696,1.13958 -1.431039,0.716356 -2.399392,1.606426 -2.999555,2.757066 -0.981265,1.881297 -1.527159,2.26316 -2.209219,1.54539 z m 2.025297,-12.041452 c 2.594146,-0.550208 4.538549,-2.0259 5.683753,-4.313647 0.581432,-1.161514 0.796298,-2.065001 0.846899,-3.561103 0.05052,-1.493654 -0.06597,-2.279658 -0.526419,-3.552182 -0.570094,-1.575531 -1.934264,-3.21437 -3.380201,-4.060788 -2.294462,-1.343126 -5.88901,-1.626601 -8.446185,-0.666087 -0.922915,0.346661 -1.939689,0.997018 -2.430514,1.554625 -0.683911,0.776964 -1.263738,2.190725 -1.658924,4.04487 -0.26668,1.251217 -0.289529,3.461782 -0.0474,4.586063 0.373147,1.73266 1.012889,2.938763 2.188585,4.126132 0.719837,0.726982 0.9315,0.88112 1.777134,1.294155 1.347641,0.65823 2.186561,0.829062 3.823782,0.778652 0.804829,-0.02478 1.594614,-0.108761 2.169492,-0.23069 z"
     id="path11"
     inkscape:connector-curvature="0"
     transform="scale(0.75)" />
  <path
     style="fill:#ccf4cc;stroke-width:0.09039548"
     d="m 22.653107,29.267964 c -1.46913,-0.491703 -2.600897,-1.51815 -3.256923,-2.95384 -1.396115,-3.055353 0.135816,-6.932318 3.094288,-7.830926 0.494899,-0.150321 0.79341,-0.18264 1.41324,-0.153005 0.682977,0.03265 0.875063,0.08167 1.467803,0.374547 1.375817,0.679804 2.802382,2.059036 3.382636,3.270401 1.124016,2.346544 0.241745,5.108157 -2.119506,6.634308 -0.823463,0.532229 -1.519558,0.74482 -2.580408,0.788065 -0.711108,0.02899 -1.01002,0.0013 -1.40113,-0.12955 z"
     id="path13"
     inkscape:connector-curvature="0"
     transform="scale(0.75)" />
</svg>
