<?xml version="1.0" encoding="UTF-8" standalone="no"?>
<svg
   xmlns:dc="http://purl.org/dc/elements/1.1/"
   xmlns:cc="http://creativecommons.org/ns#"
   xmlns:rdf="http://www.w3.org/1999/02/22-rdf-syntax-ns#"
   xmlns:svg="http://www.w3.org/2000/svg"
   xmlns="http://www.w3.org/2000/svg"
   xmlns:sodipodi="http://sodipodi.sourceforge.net/DTD/sodipodi-0.dtd"
   xmlns:inkscape="http://www.inkscape.org/namespaces/inkscape"
   version="1.0"
   width="48"
   height="48"
   viewBox="0 0 36 36"
   preserveAspectRatio="xMidYMid meet"
   id="svg8"
   sodipodi:docname="facility.svg"
   inkscape:version="0.92.2 5c3e80d, 2017-08-06">
  <defs
     id="defs12" />
  <sodipodi:namedview
     pagecolor="#ffffff"
     bordercolor="#666666"
     borderopacity="1"
     objecttolerance="10"
     gridtolerance="10"
     guidetolerance="10"
     inkscape:pageopacity="0"
     inkscape:pageshadow="2"
     inkscape:window-width="2560"
     inkscape:window-height="1319"
     id="namedview10"
     showgrid="false"
     units="px"
     inkscape:zoom="11.0625"
     inkscape:cx="1.5028248"
     inkscape:cy="10.666667"
     inkscape:window-x="0"
     inkscape:window-y="0"
     inkscape:window-maximized="1"
     inkscape:current-layer="svg8" />
  <metadata
     id="metadata2">
Created by potrace 1.12, written by Peter Selinger 2001-2015
<rdf:RDF>
  <cc:Work
     rdf:about="">
    <dc:format>image/svg+xml</dc:format>
    <dc:type
       rdf:resource="http://purl.org/dc/dcmitype/StillImage" />
    <dc:title />
  </cc:Work>
</rdf:RDF>
</metadata>
  <g
     transform="matrix(0.22415254,0,0,-0.22415254,-1.2245762,35.99999)"
     id="g6"
     style="fill:#000000;stroke:none">
    <path
       d="M 10,80 V 0 h 75 75 v 42 c 0,40 0,41 -20,23 -19,-17 -20,-17 -20,0 0,17 -1,17 -20,0 C 81,48 80,48 80,65 80,82 79,82 60,65 40,47 40,48 40,103 40,147 37,160 25,160 13,160 10,144 10,80 Z M 40,40 c 5,0 12,5 16,11 4,8 9,7 14,-2 7,-10 12,-10 23,0 12,9 16,9 19,-1 4,-10 8,-10 21,1 15,12 17,11 17,-13 0,-25 -2,-26 -65,-26 H 20 l 2,73 c 2,69 2,70 5,15 2,-32 8,-58 13,-58 z"
       id="path4"
       inkscape:connector-curvature="0" />
  </g>
  <path
     style="fill:#ccf4cc;stroke-width:0.09039548"
     d="m 4.4136755,44.288695 c 6.38e-5,-0.389969 0.040982,-2.071746 0.090929,-3.737283 C 4.5545522,38.885875 4.7169857,33.068926 4.8655683,27.624858 5.3119465,11.269564 5.4717095,7.0483571 5.638047,7.2146945 c 0.081352,0.081352 0.3226976,3.6174335 0.6279963,9.2011245 0.2551995,4.667414 0.6171915,8.290841 1.1423956,11.435028 0.8101764,4.850202 1.8061429,7.813202 2.7498541,8.180815 0.275756,0.107419 1.095048,-0.06909 1.737032,-0.37423 1.20997,-0.575107 2.695981,-1.928197 3.329434,-3.031623 0.420615,-0.732678 0.744573,-1.090629 1.17613,-1.299542 0.370419,-0.179317 0.451402,-0.18837 0.789,-0.08821 0.592463,0.175784 1.080791,0.648593 1.82665,1.768599 2.159483,3.24275 3.627681,3.412003 6.730354,0.775871 1.494281,-1.26959 3.128143,-2.232134 3.955184,-2.330085 0.93832,-0.111129 1.390351,0.33695 2.050073,2.032155 0.705662,1.813252 1.237624,2.393986 2.18513,2.385471 0.891418,-0.008 1.657774,-0.448716 3.967805,-2.281752 3.315379,-2.630793 4.159338,-2.954757 4.738744,-1.819028 0.26171,0.512995 0.3676,1.247063 0.46489,3.222797 0.103163,2.095029 0.03867,4.528677 -0.150925,5.694915 -0.461178,2.836839 -2.171417,3.71396 -8.03576,4.121257 -0.921314,0.06399 -6.721081,0.116608 -15.977401,0.14496 l -14.5310737,0.04451 1.166e-4,-0.709035 z"
     id="path9"
     inkscape:connector-curvature="0"
     transform="scale(0.75)" />
</svg>
