<?xml version="1.0" encoding="UTF-8" standalone="no"?>
<svg
   xmlns:dc="http://purl.org/dc/elements/1.1/"
   xmlns:cc="http://creativecommons.org/ns#"
   xmlns:rdf="http://www.w3.org/1999/02/22-rdf-syntax-ns#"
   xmlns:svg="http://www.w3.org/2000/svg"
   xmlns="http://www.w3.org/2000/svg"
   xmlns:sodipodi="http://sodipodi.sourceforge.net/DTD/sodipodi-0.dtd"
   xmlns:inkscape="http://www.inkscape.org/namespaces/inkscape"
   version="1.0"
   width="48"
   height="48"
   viewBox="0 0 36 36"
   preserveAspectRatio="xMidYMid meet"
   id="svg8"
   sodipodi:docname="meaning.svg"
   inkscape:version="0.92.2 5c3e80d, 2017-08-06">
  <defs
     id="defs12" />
  <sodipodi:namedview
     pagecolor="#ffffff"
     bordercolor="#666666"
     borderopacity="1"
     objecttolerance="10"
     gridtolerance="10"
     guidetolerance="10"
     inkscape:pageopacity="0"
     inkscape:pageshadow="2"
     inkscape:window-width="2560"
     inkscape:window-height="1319"
     id="namedview10"
     showgrid="false"
     units="px"
     inkscape:zoom="11.0625"
     inkscape:cx="6.4180791"
     inkscape:cy="10.666667"
     inkscape:window-x="0"
     inkscape:window-y="0"
     inkscape:window-maximized="1"
     inkscape:current-layer="svg8" />
  <metadata
     id="metadata2">
Created by potrace 1.10, written by Peter Selinger 2001-2011
<rdf:RDF>
  <cc:Work
     rdf:about="">
    <dc:format>image/svg+xml</dc:format>
    <dc:type
       rdf:resource="http://purl.org/dc/dcmitype/StillImage" />
    <dc:title></dc:title>
  </cc:Work>
</rdf:RDF>
</metadata>
  <g
     transform="matrix(0.24898868,0,0,-0.24898868,-1.7878641,37.805905)"
     id="g6"
     style="fill:#000000;stroke:none">
    <path
       d="M 75,140 C 72,135 63,133 55,137 29,146 12,121 12,74 12,43 17,27 28,21 52,9 101,9 127,22 c 41,20 19,128 -27,128 -10,0 -21,-4 -25,-10 z m 60,-34 c 8,-23 7,-30 -4,-34 -11,-4 -11,-6 0,-12 24,-15 -9,-39 -52,-38 -21,0 -36,4 -33,9 3,5 -2,6 -10,3 -11,-4 -16,0 -16,15 0,12 6,21 13,21 9,0 9,3 -1,9 -19,11 -11,45 11,49 11,2 17,-3 18,-15 0,-14 2,-13 10,5 13,33 50,26 64,-12 z"
       id="path4"
       inkscape:connector-curvature="0" />
  </g>
  <path
     style="fill:#ccccff;stroke-width:0.09039548"
     d="m 21.03885,42.99021 c -4.569089,-0.284835 -7.784649,-1.160824 -8.191763,-2.231617 -0.06153,-0.161838 -0.02576,-0.349195 0.143375,-0.751054 0.271941,-0.646102 0.283488,-0.934719 0.04687,-1.171341 C 12.592899,38.391769 11.413095,38.47015 9.6,39.064558 8.4083877,39.455218 8.2071123,39.495071 7.3853107,39.503068 6.61896,39.510526 6.4253756,39.4819 6.1136078,39.315021 5.711341,39.0997 5.1689381,38.544494 4.95311,38.127128 4.6867506,37.612045 4.4498863,36.532248 4.3530748,35.391734 4.0797082,32.171271 5.0361282,29.184018 6.7564269,27.88518 7.3888993,27.407659 7.844615,27.268559 9.0850544,27.174402 10.305177,27.081787 10.710782,26.921059 10.758731,26.511179 10.821828,25.97182 10.256945,25.427463 8.3344633,24.175 6.6390993,23.0705 5.7847593,22.018148 5.2059141,20.321339 3.9134764,16.532727 5.4323219,11.798341 8.7340546,9.3237902 10.482675,8.0132509 13.356624,7.4542215 15.046517,8.0959144 c 1.723108,0.6543059 2.765349,2.6586726 2.776318,5.3392246 0.0065,1.596403 0.246909,2.709494 0.585126,2.709494 0.392279,0 1.468843,-1.834536 2.625821,-4.474577 1.100811,-2.5118741 1.967512,-3.8832176 3.158156,-4.9970053 1.712265,-1.601741 3.608057,-2.3702258 5.847161,-2.3702258 3.709986,0 7.338022,2.300646 10.082874,6.3938501 1.446782,2.157484 2.89043,5.789682 3.656371,9.19937 0.604305,2.690148 0.408174,4.307467 -0.650781,5.366422 -0.512892,0.512891 -0.893591,0.72539 -2.390358,1.334248 -2.497431,1.015911 -2.878312,1.497678 -1.916866,2.424598 0.261017,0.251643 1.018929,0.782759 1.684248,1.180257 1.950534,1.165355 2.819207,2.110794 3.142278,3.419971 0.129851,0.526191 0.135791,0.700346 0.04136,1.212811 -0.36836,1.999162 -2.188722,3.794094 -5.478061,5.401533 -2.711294,1.324961 -5.767181,2.161763 -9.58192,2.623845 -1.403627,0.170022 -5.755041,0.244834 -7.589399,0.13048 z"
     id="path14"
     inkscape:connector-curvature="0"
     transform="scale(0.75)" />
</svg>
