<?xml version="1.0" encoding="UTF-8" standalone="no"?>
<svg
   xmlns:dc="http://purl.org/dc/elements/1.1/"
   xmlns:cc="http://creativecommons.org/ns#"
   xmlns:rdf="http://www.w3.org/1999/02/22-rdf-syntax-ns#"
   xmlns:svg="http://www.w3.org/2000/svg"
   xmlns="http://www.w3.org/2000/svg"
   xmlns:sodipodi="http://sodipodi.sourceforge.net/DTD/sodipodi-0.dtd"
   xmlns:inkscape="http://www.inkscape.org/namespaces/inkscape"
   version="1.0"
   width="48"
   height="48"
   viewBox="0 0 36 36"
   preserveAspectRatio="xMidYMid meet"
   id="svg8"
   sodipodi:docname="node.svg"
   inkscape:version="0.92.2 5c3e80d, 2017-08-06">
  <defs
     id="defs12" />
  <sodipodi:namedview
     pagecolor="#ffffff"
     bordercolor="#666666"
     borderopacity="1"
     objecttolerance="10"
     gridtolerance="10"
     guidetolerance="10"
     inkscape:pageopacity="0"
     inkscape:pageshadow="2"
     inkscape:window-width="2560"
     inkscape:window-height="1319"
     id="namedview10"
     showgrid="false"
     units="px"
     inkscape:zoom="11.0625"
     inkscape:cx="6.4180791"
     inkscape:cy="10.666667"
     inkscape:window-x="0"
     inkscape:window-y="0"
     inkscape:window-maximized="1"
     inkscape:current-layer="svg8" />
  <metadata
     id="metadata2">
Created by potrace 1.10, written by Peter Selinger 2001-2011
<rdf:RDF>
  <cc:Work
     rdf:about="">
    <dc:format>image/svg+xml</dc:format>
    <dc:type
       rdf:resource="http://purl.org/dc/dcmitype/StillImage" />
    <dc:title></dc:title>
  </cc:Work>
</rdf:RDF>
</metadata>
  <g
     transform="matrix(0.2346247,0,0,-0.2346247,-1.346247,37.346227)"
     id="g6"
     style="fill:#000000;stroke:none">
    <path
       d="M 27,132 C 16,120 10,96 10,62 V 10 h 58 c 75,0 92,16 92,88 v 52 H 102 C 58,150 39,145 27,132 Z M 148,91 c 2,-24 -2,-49 -8,-55 -9,-8 -11,1 -8,39 l 3,50 -54,-3 c -38,-3 -51,-1 -46,7 4,7 27,11 58,9 l 52,-3 z M 120,65 V 20 H 70 20 v 45 45 h 50 50 z"
       id="path4"
       inkscape:connector-curvature="0" />
  </g>
  <path
     style="fill:#ccf4cc;stroke-width:0.09039548"
     d="M 4.5378531,29.477966 V 15.421469 H 20.131073 35.724294 V 29.477966 43.534463 H 20.131073 4.5378531 Z"
     id="path14"
     inkscape:connector-curvature="0"
     transform="scale(0.75)" />
  <path
     style="fill:#ccf4cc;stroke-width:0.09039548"
     d="m 40.005771,39.154105 c -0.25033,-0.175337 -0.53563,-0.858532 -0.682102,-1.633392 -0.181782,-0.961654 -0.151349,-6.227811 0.05196,-8.991899 0.143255,-1.947594 1.12325,-17.830445 1.102438,-17.867299 -0.01862,-0.03298 -17.540606,0.968895 -19.397845,1.109129 -2.577075,0.194585 -8.338139,0.227225 -9.516545,0.05392 C 10.329712,11.643079 9.6145433,11.389485 9.2177753,10.992717 8.803665,10.578607 8.7825608,10.312819 9.1113937,9.6529373 9.5177585,8.8374693 10.355225,8.2876675 12.027363,7.7385867 14.026654,7.082078 16.596239,6.7130779 20.266667,6.5553976 c 2.740832,-0.1177453 3.981423,-0.071218 14.644067,0.5492096 1.665537,0.096913 4.278756,0.2463713 5.807153,0.3321303 L 43.496792,7.5926631 43.539,7.868648 c 0.02322,0.1517916 0.271874,3.692934 0.552573,7.869205 0.499044,7.424789 0.509301,7.658387 0.462408,10.531074 -0.03514,2.15291 -0.09731,3.342249 -0.232663,4.451415 -0.434029,3.556568 -1.21542,6.313961 -2.128485,7.511052 -0.138452,0.181519 -0.495825,0.493035 -0.794165,0.692258 -0.58975,0.393821 -1.050762,0.470094 -1.392897,0.230453 z"
     id="path16"
     inkscape:connector-curvature="0"
     transform="scale(0.75)" />
</svg>
