<?xml version="1.0" encoding="UTF-8" standalone="no"?>
<svg
   xmlns:dc="http://purl.org/dc/elements/1.1/"
   xmlns:cc="http://creativecommons.org/ns#"
   xmlns:rdf="http://www.w3.org/1999/02/22-rdf-syntax-ns#"
   xmlns:svg="http://www.w3.org/2000/svg"
   xmlns="http://www.w3.org/2000/svg"
   xmlns:sodipodi="http://sodipodi.sourceforge.net/DTD/sodipodi-0.dtd"
   xmlns:inkscape="http://www.inkscape.org/namespaces/inkscape"
   version="1.0"
   width="48"
   height="48"
   viewBox="0 0 36 36"
   preserveAspectRatio="xMidYMid meet"
   id="svg10"
   sodipodi:docname="outcome.svg"
   inkscape:version="0.92.2 5c3e80d, 2017-08-06">
  <defs
     id="defs14" />
  <sodipodi:namedview
     pagecolor="#ffffff"
     bordercolor="#666666"
     borderopacity="1"
     objecttolerance="10"
     gridtolerance="10"
     guidetolerance="10"
     inkscape:pageopacity="0"
     inkscape:pageshadow="2"
     inkscape:window-width="2560"
     inkscape:window-height="1319"
     id="namedview12"
     showgrid="false"
     units="px"
     inkscape:zoom="11.0625"
     inkscape:cx="6.4180791"
     inkscape:cy="10.666667"
     inkscape:window-x="0"
     inkscape:window-y="0"
     inkscape:window-maximized="1"
     inkscape:current-layer="svg10" />
  <metadata
     id="metadata2">
Created by potrace 1.10, written by Peter Selinger 2001-2011
<rdf:RDF>
  <cc:Work
     rdf:about="">
    <dc:format>image/svg+xml</dc:format>
    <dc:type
       rdf:resource="http://purl.org/dc/dcmitype/StillImage" />
    <dc:title></dc:title>
  </cc:Work>
</rdf:RDF>
</metadata>
  <g
     transform="matrix(0.23538444,0,0,-0.23538444,-0.5759763,36.575956)"
     id="g8"
     style="fill:#000000;stroke:none">
    <path
       d="M 134,143 C 126,131 120,130 98,141 75,151 67,150 45,136 5,110 -6,76 14,45 40,5 74,-6 104,14 c 38,24 50,53 36,84 -9,22 -9,28 5,38 9,7 12,14 8,17 -5,3 -13,-1 -19,-10 z M 115,115 C 129,101 140,82 140,74 140,54 95,10 75,10 54,10 10,54 10,75 c 0,20 44,65 64,65 8,0 27,-11 41,-25 z"
       id="path4"
       inkscape:connector-curvature="0" />
    <path
       d="M 44,99 C 25,77 31,56 63,36 c 12,-8 21,-5 36,8 25,23 26,39 5,60 -21,21 -37,20 -60,-5 z m 46,2 C 90,96 83,89 74,86 66,83 62,75 66,69 c 5,-9 11,-7 20,6 17,23 32,11 18,-13 -14,-22 -44,-22 -57,0 -8,12 -7,21 2,32 14,17 41,22 41,7 z"
       id="path6"
       inkscape:connector-curvature="0" />
  </g>
  <path
     style="fill:#ccccff;stroke-width:0.09039548"
     d="M 21.758192,45.485199 C 17.094181,44.58227 9.4172953,38.279368 5.1241322,31.828249 2.7342567,28.237104 2.0324929,25.870297 2.6851066,23.60226 3.573233,20.515742 6.3184155,16.541243 10.368362,12.478374 15.117881,7.7136997 19.594734,4.9039368 22.436158,4.9043812 c 0.64797,1.012e-4 0.923208,0.052601 1.756621,0.3350652 3.642428,1.2345069 8.8328,4.9076396 12.195326,8.6304126 2.382059,2.637264 4.660347,5.960957 5.799455,8.460564 0.455092,0.998634 0.845673,2.231414 0.910232,2.872942 0.266919,2.652418 -2.466939,7.23079 -7.18771,12.0372 -3.269453,3.328765 -6.390031,5.738225 -9.270534,7.157962 -2.107694,1.038837 -3.512752,1.351626 -4.881356,1.086672 z m 3.073446,-6.933435 c 1.989031,-0.658396 4.760098,-2.666531 7.190384,-5.210721 2.286143,-2.39329 3.592134,-4.377866 4.212586,-6.401421 0.224051,-0.730724 0.247221,-0.937601 0.247221,-2.207419 0,-1.264929 -0.02368,-1.478297 -0.243613,-2.194968 -0.626621,-2.041916 -2.036077,-4.129767 -4.34992,-6.44361 -1.808507,-1.808507 -3.427427,-3.025158 -5.044965,-3.791393 -1.372402,-0.650113 -2.049839,-0.80071 -3.593613,-0.798876 -1.16608,0.0014 -1.400466,0.02879 -2.123797,0.24833 -2.260607,0.686117 -4.345918,2.102675 -6.971104,4.73549 -2.1557,2.161967 -3.40972,4.055197 -4.084129,6.165931 -1.6340525,5.114185 1.240182,9.947628 8.783284,14.770367 2.327475,1.488089 3.959877,1.796207 5.977666,1.12829 z"
     id="path16"
     inkscape:connector-curvature="0"
     transform="scale(0.75)" />
  <path
     style="fill:#ccccff;stroke-width:0.09039548"
     d="m 21.306215,34.340756 c -0.521023,-0.07046 -1.722589,-0.420104 -2.350283,-0.683901 -2.461901,-1.034644 -4.498904,-3.1367 -5.88181,-6.069644 -0.553006,-1.172848 -0.704382,-1.811674 -0.70865,-2.990601 -0.0043,-1.186949 0.189677,-1.922988 0.826752,-3.137122 2.119845,-4.039985 7.214448,-7.288143 11.133684,-7.098485 1.145601,0.05544 1.658868,0.220985 2.22201,0.716682 0.566949,0.499049 0.788572,0.965059 0.841032,1.76845 0.03937,0.603002 0.01893,0.704908 -0.251759,1.254751 -0.703251,1.428506 -2.372989,2.727757 -4.686961,3.647001 -1.26325,0.501836 -2.196317,1.311566 -2.705851,2.348179 -0.218059,0.443625 -0.246039,0.603443 -0.246056,1.405426 -1.8e-5,0.904014 3.62e-4,0.905552 0.398258,1.600979 1.241356,2.169611 2.595295,2.338857 4.401457,0.550193 0.361109,-0.35761 1.092602,-1.232197 1.625539,-1.943523 1.152419,-1.538167 2.721833,-3.134216 3.563429,-3.623906 0.801562,-0.466396 1.707672,-0.735977 2.23213,-0.664092 2.121377,0.290767 2.439849,3.075615 0.756931,6.618913 -1.562282,3.289302 -4.379211,5.537593 -7.79881,6.224504 -0.64889,0.130345 -2.638184,0.175309 -3.371042,0.0762 z"
     id="path18"
     inkscape:connector-curvature="0"
     transform="scale(0.75)" />
</svg>
