<?xml version="1.0" encoding="UTF-8" standalone="no"?>
<svg
   xmlns:dc="http://purl.org/dc/elements/1.1/"
   xmlns:cc="http://creativecommons.org/ns#"
   xmlns:rdf="http://www.w3.org/1999/02/22-rdf-syntax-ns#"
   xmlns:svg="http://www.w3.org/2000/svg"
   xmlns="http://www.w3.org/2000/svg"
   xmlns:sodipodi="http://sodipodi.sourceforge.net/DTD/sodipodi-0.dtd"
   xmlns:inkscape="http://www.inkscape.org/namespaces/inkscape"
   version="1.0"
   width="48"
   height="48"
   viewBox="0 0 36 36"
   preserveAspectRatio="xMidYMid meet"
   id="svg12"
   sodipodi:docname="plateau .svg"
   inkscape:version="0.92.2 5c3e80d, 2017-08-06">
  <defs
     id="defs16" />
  <sodipodi:namedview
     pagecolor="#ffffff"
     bordercolor="#666666"
     borderopacity="1"
     objecttolerance="10"
     gridtolerance="10"
     guidetolerance="10"
     inkscape:pageopacity="0"
     inkscape:pageshadow="2"
     inkscape:window-width="1922"
     inkscape:window-height="1099"
     id="namedview14"
     showgrid="false"
     units="px"
     inkscape:zoom="11.0625"
     inkscape:cx="6.4180791"
     inkscape:cy="10.666667"
     inkscape:window-x="0"
     inkscape:window-y="0"
     inkscape:window-maximized="0"
     inkscape:current-layer="svg12" />
  <metadata
     id="metadata2">
Created by potrace 1.10, written by Peter Selinger 2001-2011
<rdf:RDF>
  <cc:Work
     rdf:about="">
    <dc:format>image/svg+xml</dc:format>
    <dc:type
       rdf:resource="http://purl.org/dc/dcmitype/StillImage" />
    <dc:title></dc:title>
  </cc:Work>
</rdf:RDF>
</metadata>
  <g
     transform="matrix(0.22118644,0,0,-0.2440678,0.27118644,36.20339)"
     id="g10"
     style="fill:#000000;stroke:none">
    <path
       d="m 40,110 c 0,-6 27,-10 60,-10 33,0 60,4 60,10 0,6 -27,10 -60,10 -33,0 -60,-4 -60,-10 z"
       id="path4"
       inkscape:connector-curvature="0" />
    <path
       d="m 20,80 c 0,-6 27,-10 60,-10 33,0 60,4 60,10 0,6 -27,10 -60,10 C 47,90 20,86 20,80 Z"
       id="path6"
       inkscape:connector-curvature="0" />
    <path
       d="m 0,50 c 0,-6 27,-10 60,-10 33,0 60,4 60,10 0,6 -27,10 -60,10 C 27,60 0,56 0,50 Z"
       id="path8"
       inkscape:connector-curvature="0" />
  </g>
</svg>
