<?xml version="1.0" encoding="UTF-8" standalone="no"?>
<svg
   xmlns:dc="http://purl.org/dc/elements/1.1/"
   xmlns:cc="http://creativecommons.org/ns#"
   xmlns:rdf="http://www.w3.org/1999/02/22-rdf-syntax-ns#"
   xmlns:svg="http://www.w3.org/2000/svg"
   xmlns="http://www.w3.org/2000/svg"
   xmlns:sodipodi="http://sodipodi.sourceforge.net/DTD/sodipodi-0.dtd"
   xmlns:inkscape="http://www.inkscape.org/namespaces/inkscape"
   version="1.0"
   width="48"
   height="48"
   viewBox="0 0 36 36"
   preserveAspectRatio="xMidYMid meet"
   id="svg8"
   sodipodi:docname="product.svg"
   inkscape:version="0.92.2 5c3e80d, 2017-08-06">
  <defs
     id="defs12" />
  <sodipodi:namedview
     pagecolor="#ffffff"
     bordercolor="#666666"
     borderopacity="1"
     objecttolerance="10"
     gridtolerance="10"
     guidetolerance="10"
     inkscape:pageopacity="0"
     inkscape:pageshadow="2"
     inkscape:window-width="2560"
     inkscape:window-height="1319"
     id="namedview10"
     showgrid="false"
     units="px"
     inkscape:zoom="11.0625"
     inkscape:cx="2.1694915"
     inkscape:cy="10.666667"
     inkscape:window-x="0"
     inkscape:window-y="0"
     inkscape:window-maximized="1"
     inkscape:current-layer="svg8" />
  <metadata
     id="metadata2">
Created by potrace 1.10, written by Peter Selinger 2001-2011
<rdf:RDF>
  <cc:Work
     rdf:about="">
    <dc:format>image/svg+xml</dc:format>
    <dc:type
       rdf:resource="http://purl.org/dc/dcmitype/StillImage" />
    <dc:title />
  </cc:Work>
</rdf:RDF>
</metadata>
  <g
     transform="matrix(0.25641646,0,0,-0.25310734,-2.5133171,38.858737)"
     id="g6"
     style="fill:#000000;stroke:none">
    <path
       d="M 10,80 V 20 h 70 70 v 60 60 H 80 10 Z m 70,40 c 0,-5 -13,-10 -30,-10 -16,0 -30,5 -30,10 0,6 14,10 30,10 17,0 30,-4 30,-10 z M 140,80 V 30 H 80 20 v 35 c 0,33 2,35 35,35 24,0 35,5 35,15 0,9 9,15 25,15 23,0 25,-3 25,-50 z"
       id="path4"
       inkscape:connector-curvature="0" />
  </g>
  <path
     style="fill:#ccccff;stroke-width:0.09039548"
     d="m 44.53611,32.777401 c 0,-4.897175 0.01094,-6.900565 0.02432,-4.451977 0.01338,2.448587 0.01338,6.455367 0,8.903955 -0.01338,2.448587 -0.02432,0.445197 -0.02432,-4.451978 z"
     id="path14"
     inkscape:connector-curvature="0"
     transform="scale(0.75)" />
  <path
     style="fill:#ffff99;stroke-width:0.09039548"
     d="M 11.317514,14.549917 C 10.279053,14.455221 8.0167631,14.020874 7.0730378,13.735 3.8308311,12.752871 2.7479867,11.433262 4.1478203,10.170181 5.1172409,9.2954653 6.8688457,8.6774812 9.5389788,8.268125 11.094832,8.0295983 14.666854,7.9398333 16.487607,8.0935058 c 3.997445,0.3373862 6.723184,1.3434367 7.32729,2.7044492 0.251441,0.56648 0.158258,0.925634 -0.379738,1.46363 -0.921893,0.921893 -2.971775,1.673435 -5.789961,2.122754 -0.918548,0.146449 -5.284594,0.260697 -6.327684,0.165578 z"
     id="path11"
     inkscape:connector-curvature="0"
     transform="scale(0.75)" />
  <path
     style="fill:#ffff99;stroke-width:0.09039548"
     d="m 3.5682027,33.161582 c 0.040406,-9.069713 0.057712,-9.440469 0.5191636,-11.122474 0.4973392,-1.812816 1.5490953,-2.864573 3.3619121,-3.361911 1.3280784,-0.364354 2.479918,-0.457299 6.7156936,-0.541915 4.236879,-0.08464 5.534336,-0.166912 7.276836,-0.461437 2.685135,-0.453854 4.465641,-1.288311 5.332798,-2.499281 0.442994,-0.618633 0.595002,-1.122494 0.714183,-2.367287 0.07297,-0.762153 0.145721,-1.055381 0.381259,-1.536723 0.733929,-1.499841 2.427492,-2.5196361 5.051986,-3.0420991 0.994131,-0.1979035 4.637938,-0.2822245 5.963636,-0.1380041 3.130448,0.3405562 4.32305,1.4378292 4.971339,4.5739552 0.501555,2.426294 0.557287,3.98881 0.608588,17.062147 l 0.04673,11.909605 H 24.021389 3.5304477 Z"
     id="path13"
     inkscape:connector-curvature="0"
     transform="scale(0.75)" />
</svg>
