<?xml version="1.0" encoding="UTF-8" standalone="no"?>
<svg
   xmlns:dc="http://purl.org/dc/elements/1.1/"
   xmlns:cc="http://creativecommons.org/ns#"
   xmlns:rdf="http://www.w3.org/1999/02/22-rdf-syntax-ns#"
   xmlns:svg="http://www.w3.org/2000/svg"
   xmlns="http://www.w3.org/2000/svg"
   xmlns:sodipodi="http://sodipodi.sourceforge.net/DTD/sodipodi-0.dtd"
   xmlns:inkscape="http://www.inkscape.org/namespaces/inkscape"
   version="1.0"
   width="48"
   height="48"
   viewBox="0 0 36 36"
   preserveAspectRatio="xMidYMid meet"
   id="svg8"
   sodipodi:docname="system-software.svg"
   inkscape:version="0.92.2 5c3e80d, 2017-08-06">
  <defs
     id="defs12" />
  <sodipodi:namedview
     pagecolor="#ffffff"
     bordercolor="#666666"
     borderopacity="1"
     objecttolerance="10"
     gridtolerance="10"
     guidetolerance="10"
     inkscape:pageopacity="0"
     inkscape:pageshadow="2"
     inkscape:window-width="2560"
     inkscape:window-height="1319"
     id="namedview10"
     showgrid="false"
     units="px"
     inkscape:zoom="11.0625"
     inkscape:cx="6.4180791"
     inkscape:cy="10.666667"
     inkscape:window-x="0"
     inkscape:window-y="0"
     inkscape:window-maximized="1"
     inkscape:current-layer="svg8" />
  <metadata
     id="metadata2">
Created by potrace 1.10, written by Peter Selinger 2001-2011
<rdf:RDF>
  <cc:Work
     rdf:about="">
    <dc:format>image/svg+xml</dc:format>
    <dc:type
       rdf:resource="http://purl.org/dc/dcmitype/StillImage" />
    <dc:title></dc:title>
  </cc:Work>
</rdf:RDF>
</metadata>
  <g
     transform="matrix(0.28519944,0,0,-0.28519944,-6.2310786,41.965724)"
     id="g6"
     style="fill:#000000;stroke:none">
    <path
       d="M 58,125 C 26,107 15,78 29,51 44,23 74,17 108,34 c 46,24 53,55 22,86 -24,24 -36,24 -72,5 z m 66,-11 c 9,-8 16,-23 16,-32 -1,-11 -6,-8 -16,11 -8,15 -20,27 -27,27 -9,0 -9,-2 0,-8 6,-4 17,-21 23,-37 6,-16 8,-27 4,-23 -3,4 -13,1 -21,-7 -19,-19 -38,-19 -57,1 -27,27 -17,56 24,73 34,13 36,13 54,-5 z"
       id="path4"
       inkscape:connector-curvature="0" />
  </g>
  <path
     style="fill:#ccf4cc;stroke-width:0.09039548"
     d="m 19.00113,44.114624 c -0.124294,-0.02194 -0.470057,-0.08249 -0.768362,-0.134543 -2.123221,-0.370514 -4.477949,-1.56187 -6.689265,-3.384378 C 10.514515,39.747638 8.2051173,37.417399 7.3495393,36.363892 2.8307202,30.799689 2.2869073,24.910928 5.8189709,19.789899 8.4300342,16.0042 13.099871,12.755227 19.40791,10.335587 25.407284,8.0343444 28.041005,7.2858757 30.139271,7.2858757 c 1.94543,0 3.275351,0.5391211 5.217618,2.11511 0.979782,0.7950113 4.322441,4.0480933 5.025207,4.8905393 2.051616,2.459389 3.879601,6.227942 4.344827,8.957245 0.279651,1.640598 0.01003,3.309924 -0.608566,3.767922 -0.213253,0.157889 -0.275762,0.164503 -0.58623,0.06204 C 43.140946,26.94963 42.381619,26.229725 41.794803,25.431603 41.146439,24.54977 40.380832,23.285177 39.196377,21.139647 36.649849,16.526848 34.124792,13.36044 31.520904,11.514646 30.10317,10.50967 29.203755,10.215331 27.814689,10.301763 c -1.056383,0.06573 -1.493703,0.171833 -1.714676,0.416006 -0.376604,0.416142 0.163507,1.059051 1.992272,2.371458 1.589409,1.140635 2.542987,2.212865 4.24475,4.77292 2.424898,3.647907 4.294529,7.527076 5.816279,12.067797 1.066652,3.182759 1.616773,5.697994 1.379022,6.305084 -0.05354,0.136723 -0.13768,0.248588 -0.186968,0.248588 -0.04929,0 -0.290872,-0.178744 -0.536851,-0.397209 -0.594385,-0.527898 -0.941233,-0.632168 -1.900766,-0.571411 -1.869909,0.1184 -3.895366,1.242091 -6.269028,3.477959 -2.084228,1.963235 -3.484165,2.991003 -5.264712,3.865104 -1.793131,0.880279 -3.084737,1.211274 -4.926553,1.262511 -0.671187,0.01867 -1.322034,0.016 -1.446328,-0.0059 z"
     id="path14"
     inkscape:connector-curvature="0"
     transform="scale(0.75)" />
</svg>
