<?xml version="1.0" encoding="UTF-8" standalone="no"?>
<svg
   xmlns:dc="http://purl.org/dc/elements/1.1/"
   xmlns:cc="http://creativecommons.org/ns#"
   xmlns:rdf="http://www.w3.org/1999/02/22-rdf-syntax-ns#"
   xmlns:svg="http://www.w3.org/2000/svg"
   xmlns="http://www.w3.org/2000/svg"
   xmlns:sodipodi="http://sodipodi.sourceforge.net/DTD/sodipodi-0.dtd"
   xmlns:inkscape="http://www.inkscape.org/namespaces/inkscape"
   version="1.0"
   width="48"
   height="48"
   viewBox="0 0 36 36"
   preserveAspectRatio="xMidYMid meet"
   id="svg8"
   sodipodi:docname="business-interface.svg"
   inkscape:version="0.92.2 5c3e80d, 2017-08-06">
  <defs
     id="defs12" />
  <sodipodi:namedview
     pagecolor="#ffffff"
     bordercolor="#666666"
     borderopacity="1"
     objecttolerance="10"
     gridtolerance="10"
     guidetolerance="10"
     inkscape:pageopacity="0"
     inkscape:pageshadow="2"
     inkscape:window-width="1619"
     inkscape:window-height="1093"
     id="namedview10"
     showgrid="false"
     units="px"
     inkscape:zoom="16.492323"
     inkscape:cx="5.2324224"
     inkscape:cy="24.132441"
     inkscape:window-x="0"
     inkscape:window-y="0"
     inkscape:window-maximized="0"
     inkscape:current-layer="svg8" />
  <metadata
     id="metadata2">
Created by potrace 1.12, written by Peter Selinger 2001-2015
<rdf:RDF>
  <cc:Work
     rdf:about="">
    <dc:format>image/svg+xml</dc:format>
    <dc:type
       rdf:resource="http://purl.org/dc/dcmitype/StillImage" />
    <dc:title />
  </cc:Work>
</rdf:RDF>
</metadata>
  <g
     transform="matrix(0.21997255,0,0,-0.21997255,1.054387,36.44981)"
     id="g6"
     style="fill:#000000;stroke:none">
    <path
       d="M 77,116 C 64,103 41,90 25,87 L -5,83 24,81 c 16,0 39,-12 52,-26 28,-30 38,-31 64,-5 25,25 25,45 0,70 -26,26 -36,25 -63,-4 z m 57,-2 c 20,-20 20,-38 0,-58 -19,-20 -29,-20 -48,0 -20,20 -20,38 0,58 19,20 29,20 48,0 z"
       id="path4"
       inkscape:connector-curvature="0" />
  </g>
  <path
     style="fill:#ccf4cc;stroke-width:0.06063427"
     d="M 33.033236,36.497123 C 31.818327,36.321921 30.463212,35.613791 28.97074,34.374224 28.152455,33.6946 26.051307,31.572737 25.262874,30.629802 c -1.51173,-1.807971 -2.480239,-3.638735 -2.842799,-5.373718 -0.157766,-0.754967 -0.184883,-1.993714 -0.06106,-2.789177 0.408164,-2.622075 1.93902,-5.023984 5.256693,-8.247735 4.696827,-4.5638616 7.411545,-4.5638616 12.108372,0 3.175902,3.085994 4.655129,5.335504 5.20423,7.914247 0.15354,0.721069 0.153555,2.371155 2.9e-5,3.092348 -0.374023,1.756977 -1.355368,3.61843 -2.844973,5.39645 -0.851011,1.015783 -2.942332,3.113812 -3.805267,3.817471 -1.562012,1.273704 -2.752293,1.8822 -4.02918,2.059799 -0.524707,0.07298 -0.695531,0.07265 -1.215685,-0.0024 z"
     id="path9"
     inkscape:connector-curvature="0"
     transform="scale(0.75)" />
</svg>
