<?xml version="1.0" encoding="UTF-8" standalone="no"?>
<svg
   xmlns:dc="http://purl.org/dc/elements/1.1/"
   xmlns:cc="http://creativecommons.org/ns#"
   xmlns:rdf="http://www.w3.org/1999/02/22-rdf-syntax-ns#"
   xmlns:svg="http://www.w3.org/2000/svg"
   xmlns="http://www.w3.org/2000/svg"
   xmlns:sodipodi="http://sodipodi.sourceforge.net/DTD/sodipodi-0.dtd"
   xmlns:inkscape="http://www.inkscape.org/namespaces/inkscape"
   version="1.0"
   width="48"
   height="48"
   viewBox="0 0 36 36"
   preserveAspectRatio="xMidYMid meet"
   id="svg8"
   sodipodi:docname="technology-process.svg"
   inkscape:version="0.92.2 5c3e80d, 2017-08-06">
  <defs
     id="defs12" />
  <sodipodi:namedview
     pagecolor="#ffffff"
     bordercolor="#666666"
     borderopacity="1"
     objecttolerance="10"
     gridtolerance="10"
     guidetolerance="10"
     inkscape:pageopacity="0"
     inkscape:pageshadow="2"
     inkscape:window-width="1705"
     inkscape:window-height="1046"
     id="namedview10"
     showgrid="false"
     units="px"
     inkscape:zoom="11.0625"
     inkscape:cx="2.1694918"
     inkscape:cy="10.666667"
     inkscape:window-x="0"
     inkscape:window-y="0"
     inkscape:window-maximized="0"
     inkscape:current-layer="svg8" />
  <metadata
     id="metadata2">
Created by potrace 1.10, written by Peter Selinger 2001-2011
<rdf:RDF>
  <cc:Work
     rdf:about="">
    <dc:format>image/svg+xml</dc:format>
    <dc:type
       rdf:resource="http://purl.org/dc/dcmitype/StillImage" />
    <dc:title />
  </cc:Work>
</rdf:RDF>
</metadata>
  <g
     transform="matrix(0.25570852,0,0,-0.25570852,-2.4384411,39.936517)"
     id="g6"
     style="fill:#000000;stroke:none">
    <path
       d="m 90,127 c 0,-13 -9,-17 -40,-17 -36,0 -40,-2 -40,-25 0,-22 4,-25 39,-25 28,0 40,-5 43,-16 2,-12 9,-9 31,13 l 27,29 -30,29 C 97,137 90,140 90,127 Z M 123,68 C 113,57 104,53 102,59 100,65 81,70 59,70 31,70 20,74 20,85 c 0,11 11,15 40,15 24,0 40,5 40,12 0,6 9,3 20,-7 19,-17 19,-19 3,-37 z"
       id="path4"
       inkscape:connector-curvature="0" />
  </g>
  <path
     style="fill:#ccf4cc;stroke-width:0.09039548"
     d="M 32.435643,33.985376 C 32.063063,33.874124 31.765085,33.562724 31.504242,33.012018 30.775975,31.474468 27.256923,30.226481 21.893786,29.60379 21.222545,29.52585 19.168511,29.423331 17.328814,29.375936 15.489266,29.328546 13.292656,29.246898 12.447458,29.194497 7.5064256,28.888165 4.8784331,27.887841 3.9685935,25.967087 3.6928972,25.385066 3.6790963,25.30422 3.6790963,24.271186 c 0,-1.033034 0.013801,-1.11388 0.2894972,-1.695901 0.6583454,-1.389827 2.1340015,-2.252118 4.7347071,-2.766699 2.0143604,-0.398566 3.7020464,-0.522338 8.7611064,-0.642525 2.155839,-0.05122 4.181325,-0.146222 4.926554,-0.23108 4.210713,-0.479469 7.221623,-1.525727 8.119568,-2.821461 0.14726,-0.212498 0.286752,-0.600147 0.365149,-1.014755 0.171867,-0.908925 0.365624,-1.060418 1.27601,-0.997674 0.771007,0.05314 2.221711,0.802848 3.688152,1.906002 1.140846,0.858218 3.511646,2.993235 4.721574,4.252 2.942537,3.061307 2.768599,4.420938 -1.137096,8.888419 -1.798299,2.05696 -3.182256,3.317873 -4.532073,4.129137 -1.015234,0.610174 -1.916181,0.870096 -2.456602,0.708727 z"
     id="path9"
     inkscape:connector-curvature="0"
     transform="scale(0.75)" />
</svg>
