<?xml version="1.0" standalone="no"?>
<!DOCTYPE svg PUBLIC "-//W3C//DTD SVG 20010904//EN"
 "http://www.w3.org/TR/2001/REC-SVG-20010904/DTD/svg10.dtd">
<svg version="1.0" xmlns="http://www.w3.org/2000/svg"
 width="14.540291pt" height="14.500000pt" viewBox="0 0 14.540291 14.500000"
 preserveAspectRatio="xMidYMid meet">
<metadata>
Created by potrace 1.12, written by Peter Selinger 2001-2015
</metadata>
<g transform="translate(-0.459709,15.000000) scale(0.100000,-0.100000)"
fill="#000000" stroke="none">
<path d="M109 137 c8 -10 2 -22 -27 -49 -20 -20 -46 -38 -57 -40 -27 -5 -27
-43 0 -43 12 0 21 8 23 20 2 11 20 37 40 57 27 29 39 35 49 27 10 -9 13 -6 13
15 0 21 -5 26 -26 26 -21 0 -24 -3 -15 -13z"/>
</g>
</svg>
