<?xml version="1.0" encoding="UTF-8" standalone="no"?>
<svg
   xmlns:dc="http://purl.org/dc/elements/1.1/"
   xmlns:cc="http://creativecommons.org/ns#"
   xmlns:rdf="http://www.w3.org/1999/02/22-rdf-syntax-ns#"
   xmlns:svg="http://www.w3.org/2000/svg"
   xmlns="http://www.w3.org/2000/svg"
   xmlns:sodipodi="http://sodipodi.sourceforge.net/DTD/sodipodi-0.dtd"
   xmlns:inkscape="http://www.inkscape.org/namespaces/inkscape"
   version="1.0"
   width="48"
   height="48"
   viewBox="0 0 36 36"
   preserveAspectRatio="xMidYMid meet"
   id="svg8"
   sodipodi:docname="business-function.svg"
   inkscape:version="0.92.2 5c3e80d, 2017-08-06">
  <defs
     id="defs12" />
  <sodipodi:namedview
     pagecolor="#ffffff"
     bordercolor="#666666"
     borderopacity="1"
     objecttolerance="10"
     gridtolerance="10"
     guidetolerance="10"
     inkscape:pageopacity="0"
     inkscape:pageshadow="2"
     inkscape:window-width="1573"
     inkscape:window-height="1135"
     id="namedview10"
     showgrid="false"
     units="px"
     inkscape:zoom="11.443156"
     inkscape:cx="4.5594082"
     inkscape:cy="10.311841"
     inkscape:window-x="0"
     inkscape:window-y="0"
     inkscape:window-maximized="0"
     inkscape:current-layer="svg8" />
  <metadata
     id="metadata2">
Created by potrace 1.12, written by Peter Selinger 2001-2015
<rdf:RDF>
  <cc:Work
     rdf:about="">
    <dc:format>image/svg+xml</dc:format>
    <dc:type
       rdf:resource="http://purl.org/dc/dcmitype/StillImage" />
    <dc:title />
  </cc:Work>
</rdf:RDF>
</metadata>
  <g
     transform="matrix(0.23023703,0,0,-0.23023703,1.6301113,37.255156)"
     id="g6"
     style="fill:#000000;stroke:none">
    <path
       d="M 42,127 C 16,100 10,86 10,50 V 6 L 43,38 76,70 108,38 140,5 v 46 c 0,38 -5,50 -33,77 L 74,160 Z M 130,61 V 25 L 103,53 76,80 48,53 20,26 v 34 c 0,23 9,43 27,62 l 27,28 28,-27 c 20,-19 28,-36 28,-62 z"
       id="path4"
       inkscape:connector-curvature="0" />
  </g>
  <path
     style="fill:#ffff99;stroke-width:0.08738848"
     d="m 37.68488,37.373044 c -2.366658,-2.455769 -6.072275,-6.233741 -8.234705,-8.395493 l -3.93169,-3.930458 -0.373061,0.36121 c -0.205183,0.198665 -4.049931,3.904084 -8.543883,8.234262 l -8.1708232,7.873052 -0.02401,-5.964185 c -0.025955,-6.447162 0.010526,-7.196989 0.4540152,-9.331884 1.0412741,-5.012549 3.675924,-9.699035 7.951733,-14.144454 4.870906,-5.0641204 8.030627,-8.3111426 8.087685,-8.3111426 0.130187,0 10.185938,9.7711316 10.970559,10.6600456 2.861365,3.241706 4.618306,6.461287 5.461048,10.00733 0.637439,2.682185 0.714985,3.973716 0.682594,11.368724 l -0.02645,6.038028 z"
     id="path9"
     inkscape:connector-curvature="0"
     transform="scale(0.75)" />
</svg>
