<?xml version="1.0" encoding="UTF-8" standalone="no"?>
<svg
   xmlns:dc="http://purl.org/dc/elements/1.1/"
   xmlns:cc="http://creativecommons.org/ns#"
   xmlns:rdf="http://www.w3.org/1999/02/22-rdf-syntax-ns#"
   xmlns:svg="http://www.w3.org/2000/svg"
   xmlns="http://www.w3.org/2000/svg"
   xmlns:sodipodi="http://sodipodi.sourceforge.net/DTD/sodipodi-0.dtd"
   xmlns:inkscape="http://www.inkscape.org/namespaces/inkscape"
   version="1.0"
   width="48"
   height="48"
   viewBox="0 0 36 36"
   preserveAspectRatio="xMidYMid meet"
   id="svg8"
   sodipodi:docname="driver.svg"
   inkscape:version="0.92.2 5c3e80d, 2017-08-06">
  <defs
     id="defs12" />
  <sodipodi:namedview
     pagecolor="#ffffff"
     bordercolor="#666666"
     borderopacity="1"
     objecttolerance="10"
     gridtolerance="10"
     guidetolerance="10"
     inkscape:pageopacity="0"
     inkscape:pageshadow="2"
     inkscape:window-width="2132"
     inkscape:window-height="1313"
     id="namedview10"
     showgrid="false"
     units="px"
     inkscape:zoom="12.864307"
     inkscape:cx="5.5191468"
     inkscape:cy="9.1726665"
     inkscape:window-x="0"
     inkscape:window-y="0"
     inkscape:window-maximized="0"
     inkscape:current-layer="svg8" />
  <metadata
     id="metadata2">
Created by potrace 1.12, written by Peter Selinger 2001-2015
<rdf:RDF>
  <cc:Work
     rdf:about="">
    <dc:format>image/svg+xml</dc:format>
    <dc:type
       rdf:resource="http://purl.org/dc/dcmitype/StillImage" />
    <dc:title></dc:title>
  </cc:Work>
</rdf:RDF>
</metadata>
  <g
     transform="matrix(0.26115925,0,0,-0.26115925,-1.6011326,40.212717)"
     id="g6"
     style="fill:#000000;stroke:none">
    <path
       d="m 53,145 c -11,-8 -23,-12 -27,-10 -3,3 -4,2 -1,-1 2,-4 -2,-16 -10,-27 C 4,91 3,82 13,66 19,54 23,41 21,35 c -1,-5 1,-7 4,-3 4,4 17,1 28,-7 16,-11 25,-12 41,-2 12,6 24,10 29,9 4,-1 6,1 5,5 -1,5 3,17 9,29 10,16 9,25 -2,41 -8,11 -11,24 -7,28 4,3 3,5 -3,4 -5,-2 -19,2 -31,8 -16,10 -25,9 -41,-2 z M 68,118 C 66,103 57,94 43,92 c -27,-4 -29,5 -6,30 22,24 35,23 31,-4 z m 44,5 c 24,-22 23,-35 -4,-31 -15,2 -24,11 -26,26 -4,26 5,28 30,5 z M 68,53 C 72,26 63,24 38,47 14,69 15,82 43,78 57,76 66,67 68,53 Z m 62,20 C 130,63 98,30 88,30 78,30 77,64 87,73 c 8,9 43,9 43,0 z"
       id="path4"
       inkscape:connector-curvature="0" />
  </g>
  <path
     style="fill:#ccccff;stroke-width:0.07773446"
     d="M 7.4140395,21.715956 C 6.2973037,21.49371 5.5515396,20.980046 5.345065,20.290895 5.2183641,19.868005 5.232121,19.538549 5.4046478,18.863975 5.7733937,17.422193 7.1135121,15.363055 9.4157492,12.700781 13.757919,7.6795572 17.244333,5.0674645 19.402522,5.2184874 c 1.103209,0.077199 1.741414,0.7395169 2.153841,2.2352171 0.114442,0.4150317 0.138859,0.8037678 0.136714,2.1765649 -0.0028,1.8026536 -0.118173,2.8751016 -0.46671,4.3389686 -0.986787,4.144535 -3.806963,6.779729 -8.042602,7.515071 -1.963463,0.340874 -4.6740581,0.449701 -5.7697255,0.231647 z"
     id="path16"
     inkscape:connector-curvature="0"
     transform="scale(0.75)" />
  <path
     style="fill:#ccccff;stroke-width:0.07773446"
     d="m 36.087231,21.631217 c -3.048987,-0.390702 -4.996053,-1.206309 -6.639555,-2.781243 -1.727283,-1.655219 -2.576508,-3.51699 -3.053089,-6.693335 -0.234586,-1.563486 -0.292851,-3.9139888 -0.118368,-4.7751023 0.360668,-1.7799658 1.224515,-2.3910111 2.807345,-1.9857847 1.96066,0.5019561 5.375996,3.0390306 9.096455,6.757281 2.263314,2.26197 3.301503,3.576942 4.04213,5.119773 1.169927,2.43712 0.542156,3.844549 -1.947924,4.367142 -0.695843,0.146036 -3.016989,0.141196 -4.186994,-0.0087 z"
     id="path18"
     inkscape:connector-curvature="0"
     transform="scale(0.75)" />
  <path
     style="fill:#ccccff;stroke-width:0.07773446"
     d="m 27.914445,42.988381 c -1.304525,-0.595871 -2.137697,-3.18507 -2.137697,-6.643193 0,-2.216054 0.317896,-4.15865 0.946288,-5.782561 1.041413,-2.691253 3.003762,-3.933207 7.111587,-4.500862 1.541152,-0.212969 4.405271,-0.194055 5.721164,0.03778 1.959036,0.345148 3.038913,0.857507 3.406129,1.616072 0.208154,0.429989 0.174844,0.775537 -0.157868,1.637677 -1.217424,3.154648 -7.100484,9.621795 -11.343379,12.469581 -0.924225,0.620331 -1.49491,0.922708 -2.171835,1.150748 -0.583202,0.196466 -0.967539,0.200592 -1.374389,0.01475 z"
     id="path20"
     inkscape:connector-curvature="0"
     transform="scale(0.75)" />
  <path
     style="fill:#ccccff;stroke-width:0.07773446"
     d="M 19.130451,42.696863 C 17.538477,42.293288 15.616622,41.100139 13.063132,38.930078 7.4331913,34.145523 4.6660634,30.317487 5.2888532,28.175165 c 0.2441123,-0.839717 1.0316,-1.436839 2.2818504,-1.73024 0.8378148,-0.196613 3.7018764,-0.193949 4.9911854,0.0046 2.653523,0.40872 4.499583,1.239852 6.052084,2.724766 2.055021,1.965557 3.030728,4.765546 3.171439,9.101086 0.09848,3.034298 -0.507604,4.358426 -2.030799,4.436755 -0.257781,0.01326 -0.538654,0.0064 -0.624162,-0.01531 z"
     id="path22"
     inkscape:connector-curvature="0"
     transform="scale(0.75)" />
</svg>
