<?xml version="1.0" encoding="utf-8"?>
<!-- Generator: Adobe Illustrator 21.1.0, SVG Export Plug-In . SVG Version: 6.00 Build 0)  -->
<svg version="1.1" id="Calque_1" xmlns="http://www.w3.org/2000/svg" xmlns:xlink="http://www.w3.org/1999/xlink" x="0px" y="0px"
	 viewBox="0 0 432 432" style="enable-background:new 0 0 432 432;" xml:space="preserve">
<style type="text/css">
	.st0{fill:#F39323;}
	.st1{fill:#DC7B18;}
	.st2{fill:#A3282E;}
	.st3{fill:#77151F;}
	.st4{fill:#014837;}
	.st5{fill:#48AE4D;}
	.st6{fill:#E52521;}
	.st7{fill:#E52629;}
	.st8{fill:#CDCCCC;}
	.st9{fill:#E7E6E6;}
	.st10{fill:#921D25;}
	.st11{fill:#C1292E;}
	.st12{fill:#066938;}
	.st13{fill:#DB4D58;}
	.st14{fill:#009245;}
	.st15{fill:#FFFFFF;}
	.st16{fill:#178D4D;}
	.st17{fill:#CE7278;}
	.st18{fill:#D85A62;}
	.st19{fill:#D48B4F;}
	.st20{fill:#EAA35C;}
	.st21{fill:#412413;}
	.st22{fill:#754D24;}
	.st23{fill:#020203;}
	.st24{fill:#D9646D;}
	.st25{fill:#F9B03D;}
	.st26{fill:#F4DBC6;}
	.st27{fill:#F2F2F2;}
	.st28{fill:#343434;}
	.st29{fill:#82171C;}
	.st30{fill:#28285B;}
	.st31{fill:#808181;}
</style>
<g>
	<g>
		<g>
			<path class="st0" d="M346,238.7l0.4,0.2c-1.1,0.6-2.1,1.3-3.2,2c-5,3.3-9.9,6.8-14.7,10.5c-6,4.6-12,9.3-18.1,13.9
				c-3.9,3-7.9,5.9-11.8,8.9c-3.6,2.8-7.1,5.7-10.7,8.6c-2.6-9.8-1.4-20.6,4.1-30c1.1-1.8,2.3-3.6,3.6-5.2c0.7-0.9,1.5-1.7,2.3-2.5
				c3.8-3.9,8.3-6.8,13.2-8.8c1-0.4,2-0.8,3-1.1C324.4,231.9,336,232.9,346,238.7z"/>
			<path class="st0" d="M346.4,239c2.5,1.5,4.8,3.2,6.8,5.2c13,12.3,16.3,32.4,6.9,48.5c-11,18.7-35.1,25-53.9,14
				c-6.8-4-12-9.7-15.3-16.3c-1.2-2.4-2.2-5-2.9-7.6c3.5-2.9,7.1-5.7,10.7-8.6c3.9-3,7.9-5.9,11.8-8.9c6-4.6,12.1-9.2,18.1-13.9
				c4.8-3.7,9.7-7.2,14.7-10.5C344.2,240.2,345.3,239.6,346.4,239z"/>
			<g>
				<path class="st1" d="M310.7,231.3c1.3,1.1,2.5,2.4,3.5,3.8c-1,0.3-2,0.7-3,1.1c-0.7-0.7-1.5-1.4-2.3-2c-1.4-0.9-2.9-1.7-4.7-1.8
					c-0.5,0-1,0-1.5,0.2c-2,0.6-3.8,1.7-4.8,3.7c-0.3,0.7-0.6,1.4-0.9,2.2c-0.7,2-0.4,4,0.6,5.8c0.1,0.2,0.3,0.5,0.4,0.7
					c-0.8,0.8-1.6,1.7-2.3,2.5c-0.8-1.2-1.4-2.7-1.7-4.2c-0.6-3.3-0.1-6.5,1.4-9.4c0-0.1,0.1-0.2,0.1-0.2c1-1.7,2.4-3,4.2-3.9
					c0.5-0.2,0.9-0.4,1.4-0.6C304.4,228.2,307.9,229,310.7,231.3z"/>
				<path class="st1" d="M353.6,237.7c0.1,0.1,0.2,0.2,0.3,0.4c1.4,1.5,1.6,2.7,0.6,4.5c-0.5,0.5-0.9,1-1.4,1.5
					c-0.4,0.5-0.9,0.9-1.3,1.3c-2.4,2.1-4.9,4.1-7.5,6.1c-3.6,2.8-7.3,5.5-10.8,8.3c-2.2,1.7-4.3,3.5-6.4,5.3
					c-6.4,5.4-13,10.6-19.8,15.3c-3.2,2.2-6.5,4.4-9.7,6.6c-2.1,1.4-4.3,2.5-6.7,3.4c-0.5,0.2-1,0.4-1.5,0.5
					c-0.7,0.2-1.4,0.4-2.1,0.4c-1.6,0-2.8-1-3-2.6c-0.2-1.3,0.2-2.5,1.1-3.5c0.6-0.6,1.2-1.2,1.9-1.8c0.3-0.2,0.5-0.4,0.8-0.6
					c3.5-2.9,7.1-5.7,10.7-8.6c3.9-3,7.9-5.9,11.8-8.9c6-4.6,12.1-9.2,18.1-13.9c4.8-3.7,9.7-7.2,14.7-10.5c1-0.7,2.1-1.3,3.2-2
					c0.8-0.5,1.6-0.9,2.4-1.4c0.5-0.3,1.1-0.6,1.7-0.8C351.7,236.5,352.7,236.8,353.6,237.7z"/>
				<path class="st1" d="M318.3,302.5c11.2,4,20.1,1.7,27.2-4.9c-0.1-0.1-0.1-0.3-0.3-0.4c-3.8-4.1-7.5-8.1-11.3-12.2
					c-0.4-0.4-0.7-0.7-1.4-0.7c-1-0.1-1.9-0.6-2.6-1.4c-0.7-0.7-1.4-1.4-1.9-2.2c-0.9-1.3-0.8-2.5,0.1-3.5c0.9-1,2.4-1.4,3.7-0.7
					c2.2,1.1,3.7,2.8,3.8,5.4c0,0.2,0.1,0.5,0.3,0.7c3.6,4.4,7.5,8.5,11.4,12.6c0.1,0.1,0.2,0.1,0.3,0.2c0.7-0.8,1.5-1.7,2.2-2.6
					c1.7-2.4,3.5-4.7,4.9-7.3c3.5-6,4.3-12.4,2.2-19.2c-1.9-0.5-3.2-1.8-4.2-3.5c-0.4-0.7-0.7-1.5-0.8-2.3c-0.3-2,1.2-3.2,3.2-2.7
					c2.5,0.6,4.5,3.7,4,6.3c-0.1,0.4,0,0.8,0.1,1.2c2.3,6,2,12-0.4,18c-1.1,2.9-2.7,5.5-4.6,7.9c-1.5,2-3.1,3.9-4.6,5.8
					c-0.1,0.1-0.2,0.3-0.3,0.4c0.1,0.2,0.3,0.4,0.4,0.6c0.6,0.9,2.2,2.7,2.8,3.6c0.2,0.3,0.4,0.7,0.5,1.1c0.1,0.5-0.2,1.1-0.7,1.3
					c-0.5,0.2-1,0.1-1.4-0.3c-0.6-0.8-2.1-2.5-2.7-3.3c-0.3-0.3-0.6-0.7-0.9-1.1c-0.3,0.3-0.6,0.5-0.9,0.8
					c-3.3,2.6-6.8,4.8-10.9,5.8c-4.5,1.1-9,1.1-13.4-0.1c-1.3-0.3-2.6-0.8-3.9-1.2c-0.3-0.1-0.6-0.2-0.9,0.1
					c-0.8,0.6-1.7,0.7-2.6,0.5c-1.4-0.3-2.8-0.9-4-1.7c-1.2-0.8-1.8-1.9-1.7-3.3c0.1-0.9,0.5-1.7,1.4-2.2c0.4-0.2,0.9-0.4,1.4-0.5
					c1.5-0.3,2.9-0.1,4.3,0.6c1.5,0.8,2.4,2,2.2,3.9C318.3,302.2,318.3,302.4,318.3,302.5z"/>
			</g>
		</g>
		<path class="st2" d="M309.6,225.9c2.3,0.4,4.6,0.5,7,0.4c3.2-0.2,6.3-0.7,9.5-1.3c1.6-0.3,3.2-0.9,4.6-1.8
			c5.5-3.4,9.3-8.2,11.6-14.1c1.1-2.8,1.7-5.7,2-8.7c0.5-3.7,0.4-7.5-0.1-11.2c-0.3-1.9-1-3.6-1.9-5.3c-0.1-0.1-0.2-0.3-0.3-0.4
			c0,0-0.1-0.1-0.2-0.1c-0.1,0-0.2,0.1-0.2,0.1c-4.3,4.1-9.5,6-15.5,5.8c-2.1-0.1-4.1-0.7-6-1.7c-1.8-1-3.1-2.5-3.6-4.6
			c-0.7-3.4,0.8-6.6,3.9-8.2c2.3-1.2,4.8-2,7.5-2c0.8,0,1.5-0.2,2.3-0.2c2.3-0.1,4.5,0.5,6.8,1c0.3,0.1,0.5,0.1,1,0.3
			c-0.2-0.5-0.4-1-0.6-1.4c-1.2-2.2-2.9-4-4.6-5.7c-2-1.9-4.1-3.7-6.1-5.6c-1.6-1.6-3.2-3.1-4.6-4.8c-4.5-5.3-6.9-11.5-7-18.5
			c-0.1-5.1,1.7-9.5,5.7-13c0.4-0.4,0.8-0.8,1.2-1.2c0.8-0.7,1.6-1.3,2.6-1.5c0.3-0.1,0.7-0.1,1-0.1c0.6,0,1,0.4,1.1,0.9
			c0.1,0.5-0.1,1.1-0.6,1.3c-2.1,0.9-3.1,2.8-4.2,4.6c-0.9,1.6-1.8,3.2-2.1,5c-0.6,3.6-0.2,7,1.4,10.2c2.3,4.6,5.1,8.7,8.8,12.3
			c2.5,2.4,5,4.9,7.5,7.4c1.7,1.8,3.2,3.8,4.5,5.9c1.4,2.2,2.2,4.6,2.2,7.3c0,0.4,0.2,0.7,0.5,1c2.3,2.3,4.6,4.5,6.6,7.1
			c1.2,1.6,2.3,3.3,3.2,5.1c1.5,3.1,1.9,6.5,1.7,9.9c-0.6,7.9-3.7,14.6-9.2,20.3c-3.2,3.3-6.8,6.1-11,8.2c-2,1-3.9,2.1-6.1,2.6
			c-2.9,0.7-5.9,1.2-8.9,1.2c-2.6,0-5.3-0.2-7.9-0.4c-2.2-0.2-4.4-0.4-6.6-0.6c-0.9-0.1-1.8-0.2-2.7-0.3c-0.3,0-0.7-0.1-1.1-0.1
			c0,0.3,0,0.5,0,0.7c0,1.1-0.4,1.9-1.4,2.4c-0.7,0.4-1.4,0.7-2.2,1c-0.7,0.3-1.4,0.1-2.2-0.3c-0.2,0.5-0.4,0.9-0.5,1.4
			c-0.8,2.4-1.7,4.9-2.5,7.3c-0.9,2.6-2,5.2-3.4,7.6c-1,1.7-2.1,3.2-3.4,4.7c-4.7,5.1-10.1,9.3-16.4,12.2c-3.2,1.5-6.4,2.8-9.9,3.4
			c-3.1,0.6-6.2,1-9.4,1.1c-5.4,0.2-10.3-1.1-15-3.5c-0.1,0-0.2-0.1-0.3-0.1c-3.5,2-7.3,3.2-11.1,4.4c-2.4,0.8-4.7,1.7-7.1,2.6
			c-4.4,1.7-8.2,4.2-11.9,7.1c-0.5,0.4-1,0.9-1.3,1.5c-0.9,1.6-1.7,3.2-2.5,4.8c-0.2,0.3-0.3,0.6-0.5,0.9c-0.6,0.8-1.8,0.6-2.1-0.4
			c-0.2-0.5-0.2-1-0.1-1.5c0.2-1,0.4-2,0.7-2.9c1-2.4,2.3-4.7,3.9-6.7c1.1-1.4,2.3-2.5,3.7-3.6c2.5-1.8,5.2-3.2,8.1-4.4
			c4.6-1.9,9.3-3.7,13.8-5.9c0.3-0.2,0.6-0.3,1-0.5c-0.2-0.2-0.3-0.4-0.5-0.6c-3.9-4.2-4.7-10.5-1.9-15.6c1.7-3.1,4.4-4.7,7.7-5.4
			c1.9-0.4,3.9-0.5,5.8,0c4.6,1.2,7.5,5.3,6.2,10.6c-1.1,4.5-3.4,8.3-6.7,11.5c-0.2,0.2-0.4,0.4-0.6,0.6c0,0,0,0.1-0.1,0.3
			c1,0.2,2,0.5,3,0.7c4,0.9,8,1.3,12.1,1c9.2-0.6,17.3-4,23.9-10.5c5.6-5.4,9.7-11.8,12.6-18.9c0.1-0.2,0.2-0.4,0.2-0.6
			c0,0,0-0.1-0.1-0.3c-0.5,0.5-1,0.9-1.5,1.3c-2.6,2.2-5.1,4.5-7.7,6.5c-1.7,1.4-3.7,2.5-5.6,3.6c-2.3,1.3-4.7,1.9-7.3,1.7
			c-3.6-0.3-6.1-3.3-5.7-6.9c0.4-3,1.7-5.6,3.6-7.9c3.6-4.3,8.2-7.1,13.7-8.6c2.2-0.6,4.4-1,6.6-0.9c2.3,0,4.5,0.2,6.7,0.9
			c0.4,0.1,0.7,0.2,1-0.1c0.1-0.1,0.2-0.1,0.3-0.2c1.1-0.1,1.5-0.9,1.9-1.8c2.3-5,5.2-9.7,9-13.8c2.7-2.9,5.7-5.2,9.3-6.9
			c2.3-1.1,4.6-1.8,7.2-1.8c0.8,0,1.6,0.1,2.4,0.3c3.5,0.9,5.3,4.1,4.4,7.6c-0.6,2.2-1.8,4.1-3.4,5.7c-2.1,2.1-4.6,3.9-7.2,5.2
			c-2.7,1.4-5.5,2.6-8.3,3.9C311,225.3,310.3,225.6,309.6,225.9z M288.8,228.4c0,0,0,0.1,0,0.1c-0.4,0-0.8,0-1.1,0
			c-3.5,0.1-6.6,1.1-9.4,3.1c-1.3,0.9-2.2,2.1-3,3.4c-0.7,1.3-1.1,2.8-1.2,4.3c0,1.5,0.6,2.2,2,2.4c0.4,0.1,0.8,0.1,1.1,0.1
			c2.5,0.2,4.5-0.8,6.3-2.4c1.5-1.4,3-2.8,4.5-4.3c2-1.9,4-3.8,6.4-5.2c0.1,0,0.2-0.1,0.2-0.2c0.2-0.2,0.2-0.5-0.1-0.6
			c-0.3-0.1-0.7-0.3-1.1-0.3C291.9,228.8,290.4,228.6,288.8,228.4z M301.9,225.8c2-0.9,3.8-1.9,5.6-2.6c2.1-0.9,4.1-1.9,6.2-3
			c1.4-0.8,2.6-1.8,3.7-3.1c0.8-0.9,1.1-1.9,1.1-3c0-2.1-1.5-3.2-3.5-2.7c-2.7,0.7-4.8,2.3-6.6,4.4c-2.4,2.8-4.4,6-6.2,9.3
			C302.2,225.2,302.1,225.4,301.9,225.8z M338,179.8c-0.2-0.1-0.3-0.2-0.4-0.3c-2.7-1.1-5.6-1.9-8.5-2.3c-1.8-0.2-3.5,0-5.2,0.8
			c-0.8,0.4-1.4,0.9-1.9,1.7c-0.9,1.4-0.7,3.1,1.2,3.9c1.8,0.8,3.7,1.1,5.7,0.8c2.6-0.3,5.1-1.1,7.2-2.7
			C336.7,181.3,337.5,180.6,338,179.8z M235.3,260.8c0.8-0.7,1.7-1.4,2.2-2.3c1-1.6,1.8-3.2,2.4-5c0.4-1.3,0.6-2.7,0.3-4.1
			c-0.3-1.8-1.4-2.6-3.2-2.3c-1.1,0.2-2.2,0.5-3.1,1.4c-1.5,1.5-2.1,3.4-1.8,5.5C232.4,256.6,233.5,258.8,235.3,260.8z"/>
	</g>
	<g>
		<path class="st0" d="M298,178.9c0.1-0.9,0.2-1.7,0.3-2.6c0.1-0.6,0.2-1.1,0.4-1.6c0.1-0.3,0.5-0.6,0.8-0.6c0.3,0,0.7,0.3,0.8,0.6
			c0.2,0.3,0.2,0.7,0.2,1.1c0,1.2,0,2.3,0,3.6c0.8-0.4,1.5-0.9,2.2-1.3c0.5-0.3,1.1-0.6,1.6-0.7c0.8-0.3,1.4,0,1.7,0.5
			c0.3,0.5,0.1,1.1-0.5,1.6c-0.7,0.6-1.4,1.2-2.4,2c1,0.1,1.7,0.1,2.4,0.2c0.4,0.1,0.9,0.1,1.3,0.3c0.8,0.4,0.7,1.3,0,1.7
			c-0.4,0.2-0.9,0.3-1.3,0.3c-1.2,0-2.5-0.1-3.9-0.1c0.9,1.3,1.8,2.5,2.8,3.6c0.2,0.2,0.5,0.5,0.6,0.8c0.1,0.3,0.1,0.7-0.1,0.9
			c-0.2,0.2-0.7,0.3-0.9,0.2c-0.6-0.3-1.2-0.6-1.7-1.1c-0.8-0.8-1.6-1.6-2.5-2.6c-0.1,1.1-0.2,1.9-0.3,2.7c0,0.4-0.1,0.8-0.2,1.1
			c-0.2,0.6-0.6,1-1.1,1c-0.5,0-0.9-0.4-1-1.1c-0.1-0.8-0.1-1.6-0.1-2.4c0-0.2,0-0.4-0.1-0.8c-0.8,0.5-1.4,0.9-2.1,1.3
			c-0.3,0.2-0.6,0.4-1,0.6c-0.7,0.3-1.2,0.3-1.6-0.1c-0.4-0.4-0.5-0.9-0.1-1.6c0.4-0.7,1-1.3,1.5-1.8c0.5-0.6,1.2-1.1,1.9-1.7
			c-0.4-0.1-0.7-0.2-1-0.3c-0.9-0.2-1.8-0.4-2.6-0.6c-0.5-0.1-0.9-0.4-0.9-1c0-0.5,0.5-0.9,1.2-0.9c0.9,0,1.7,0.1,2.7,0.2
			c-0.2-0.3-0.3-0.5-0.4-0.7c-0.6-0.8-1.2-1.6-1.8-2.4c-0.2-0.3-0.5-0.7-0.6-1.1c-0.2-0.5-0.2-1,0.3-1.3c0.5-0.4,1-0.2,1.3,0.2
			c0.7,0.7,1.3,1.3,2,2c0.6,0.6,1.1,1.3,1.7,1.9C297.8,179,297.9,179,298,178.9z"/>
		<path class="st0" d="M155.9,135.2c0.1-0.9,0.2-1.7,0.3-2.6c0.1-0.6,0.2-1.1,0.4-1.6c0.1-0.3,0.5-0.6,0.8-0.6
			c0.3,0,0.7,0.3,0.8,0.6c0.2,0.3,0.2,0.7,0.2,1.1c0,1.2,0,2.3,0,3.6c0.8-0.4,1.5-0.9,2.2-1.3c0.5-0.3,1.1-0.6,1.6-0.7
			c0.8-0.3,1.4,0,1.7,0.5c0.3,0.5,0.1,1.1-0.5,1.6c-0.7,0.6-1.4,1.2-2.4,2c1,0.1,1.7,0.1,2.4,0.2c0.4,0.1,0.9,0.1,1.3,0.3
			c0.8,0.4,0.7,1.3,0,1.7c-0.4,0.2-0.9,0.3-1.3,0.3c-1.2,0-2.5-0.1-3.9-0.1c0.9,1.3,1.8,2.5,2.8,3.6c0.2,0.2,0.5,0.5,0.6,0.8
			c0.1,0.3,0.1,0.7-0.1,0.9c-0.2,0.2-0.7,0.3-0.9,0.2c-0.6-0.3-1.2-0.6-1.7-1.1c-0.8-0.8-1.6-1.6-2.5-2.6c-0.1,1.1-0.2,1.9-0.3,2.7
			c0,0.4-0.1,0.8-0.2,1.1c-0.2,0.6-0.6,1-1.1,1c-0.5,0-0.9-0.4-1-1.1c-0.1-0.8-0.1-1.6-0.1-2.4c0-0.2,0-0.4-0.1-0.8
			c-0.8,0.5-1.4,0.9-2.1,1.3c-0.3,0.2-0.6,0.4-1,0.6c-0.7,0.3-1.2,0.3-1.6-0.1c-0.4-0.4-0.5-0.9-0.1-1.6c0.4-0.7,1-1.3,1.5-1.8
			c0.5-0.6,1.2-1.1,1.9-1.7c-0.4-0.1-0.7-0.2-1-0.3c-0.9-0.2-1.8-0.4-2.6-0.6c-0.5-0.1-0.9-0.4-0.9-1c0-0.5,0.5-0.9,1.2-0.9
			c0.9,0,1.7,0.1,2.7,0.2c-0.2-0.3-0.3-0.5-0.4-0.7c-0.6-0.8-1.2-1.6-1.8-2.4c-0.2-0.3-0.5-0.7-0.6-1.1c-0.2-0.5-0.2-1,0.3-1.3
			c0.5-0.4,1-0.2,1.3,0.2c0.7,0.7,1.3,1.3,2,2c0.6,0.6,1.1,1.3,1.7,1.9C155.7,135.3,155.8,135.3,155.9,135.2z"/>
		<path class="st0" d="M134.7,198c0.1-0.6,0.1-1.2,0.2-1.8c0.1-0.4,0.1-0.8,0.3-1.2c0.1-0.2,0.4-0.4,0.6-0.4c0.2,0,0.5,0.2,0.6,0.4
			c0.1,0.2,0.2,0.5,0.2,0.8c0,0.8,0,1.6,0,2.5c0.5-0.3,1.1-0.6,1.6-0.9c0.4-0.2,0.8-0.4,1.2-0.5c0.5-0.2,1,0,1.2,0.4
			c0.2,0.4,0.1,0.8-0.3,1.1c-0.5,0.4-1,0.8-1.7,1.4c0.7,0.1,1.2,0.1,1.7,0.2c0.3,0,0.6,0.1,0.9,0.2c0.5,0.3,0.5,0.9,0,1.2
			c-0.3,0.1-0.6,0.2-0.9,0.2c-0.9,0-1.7-0.1-2.8-0.1c0.7,0.9,1.3,1.8,2,2.6c0.2,0.2,0.4,0.3,0.4,0.6c0.1,0.2,0.1,0.5,0,0.7
			c-0.1,0.1-0.5,0.2-0.6,0.2c-0.4-0.2-0.8-0.5-1.2-0.8c-0.6-0.5-1.1-1.1-1.8-1.9c-0.1,0.8-0.2,1.3-0.2,1.9c0,0.3,0,0.5-0.1,0.8
			c-0.1,0.4-0.4,0.7-0.8,0.7c-0.3,0-0.6-0.3-0.7-0.8c-0.1-0.6,0-1.1-0.1-1.7c0-0.2,0-0.3-0.1-0.6c-0.5,0.3-1,0.6-1.5,0.9
			c-0.2,0.1-0.4,0.3-0.7,0.4c-0.5,0.2-0.8,0.2-1.1,0c-0.3-0.3-0.3-0.7,0-1.1c0.3-0.5,0.7-0.9,1.1-1.3c0.4-0.4,0.8-0.8,1.3-1.2
			c-0.3-0.1-0.5-0.1-0.7-0.2c-0.6-0.1-1.2-0.3-1.9-0.4c-0.3-0.1-0.6-0.3-0.6-0.7c0-0.3,0.3-0.6,0.8-0.6c0.6,0,1.2,0.1,1.9,0.1
			c-0.1-0.2-0.2-0.3-0.3-0.5c-0.4-0.6-0.9-1.1-1.3-1.7c-0.2-0.2-0.3-0.5-0.4-0.7c-0.2-0.3-0.1-0.7,0.2-0.9c0.3-0.3,0.7-0.1,0.9,0.1
			c0.5,0.5,0.9,0.9,1.4,1.4c0.4,0.4,0.8,0.9,1.2,1.4C134.6,198,134.6,198,134.7,198z"/>
		<path class="st0" d="M262.5,307c0.1-0.6,0.1-1.2,0.2-1.8c0.1-0.4,0.1-0.8,0.3-1.2c0.1-0.2,0.4-0.4,0.6-0.4c0.2,0,0.5,0.2,0.6,0.4
			c0.1,0.2,0.2,0.5,0.2,0.8c0,0.8,0,1.6,0,2.5c0.5-0.3,1.1-0.6,1.6-0.9c0.4-0.2,0.8-0.4,1.2-0.5c0.5-0.2,1,0,1.2,0.4
			c0.2,0.4,0.1,0.8-0.3,1.1c-0.5,0.4-1,0.8-1.7,1.4c0.7,0.1,1.2,0.1,1.7,0.2c0.3,0,0.6,0.1,0.9,0.2c0.5,0.3,0.5,0.9,0,1.2
			c-0.3,0.1-0.6,0.2-0.9,0.2c-0.9,0-1.7-0.1-2.8-0.1c0.7,0.9,1.3,1.8,2,2.6c0.2,0.2,0.4,0.3,0.4,0.6c0.1,0.2,0.1,0.5,0,0.7
			c-0.1,0.1-0.5,0.2-0.6,0.2c-0.4-0.2-0.8-0.5-1.2-0.8c-0.6-0.5-1.1-1.1-1.8-1.9c-0.1,0.8-0.2,1.3-0.2,1.9c0,0.3,0,0.5-0.1,0.8
			c-0.1,0.4-0.4,0.7-0.8,0.7c-0.3,0-0.6-0.3-0.7-0.8c-0.1-0.6,0-1.1-0.1-1.7c0-0.2,0-0.3-0.1-0.6c-0.5,0.3-1,0.6-1.5,0.9
			c-0.2,0.1-0.4,0.3-0.7,0.4c-0.5,0.2-0.8,0.2-1.1,0c-0.3-0.3-0.3-0.7,0-1.1c0.3-0.5,0.7-0.9,1.1-1.3c0.4-0.4,0.8-0.8,1.3-1.2
			c-0.3-0.1-0.5-0.1-0.7-0.2c-0.6-0.1-1.2-0.3-1.9-0.4c-0.3-0.1-0.6-0.3-0.6-0.7c0-0.3,0.3-0.6,0.8-0.6c0.6,0,1.2,0.1,1.9,0.1
			c-0.1-0.2-0.2-0.3-0.3-0.5c-0.4-0.6-0.9-1.1-1.3-1.7c-0.2-0.2-0.3-0.5-0.4-0.7c-0.2-0.3-0.1-0.7,0.2-0.9c0.3-0.3,0.7-0.1,0.9,0.1
			c0.5,0.5,0.9,0.9,1.4,1.4c0.4,0.4,0.8,0.9,1.2,1.4C262.4,307,262.5,307,262.5,307z"/>
		<path class="st0" d="M239.9,217.2l1.4,4.5c0.1,0.2,0,0.3-0.2,0.4l-3.8,2.6c-0.3,0.2-0.2,0.6,0.1,0.7l4.6,1.2
			c0.2,0,0.3,0.2,0.3,0.4l0.4,4.5c0,0.3,0.5,0.5,0.7,0.2l3.1-3.4c0.1-0.1,0.3-0.2,0.5-0.1l4.3,2c0.3,0.1,0.6-0.1,0.5-0.5l-1.3-4.1
			c-0.1-0.4,0-0.8,0.4-1l3.4-2.3c0.3-0.2,0.2-0.6-0.1-0.7l-4.3-1c-0.2,0-0.3-0.2-0.3-0.4l-0.4-4.8c0-0.3-0.4-0.5-0.7-0.2l-3.3,3.5
			c-0.1,0.1-0.3,0.2-0.5,0.1l-4.3-2.1C240.1,216.6,239.8,216.9,239.9,217.2z"/>
		<path class="st0" d="M363.5,218.7l1.4,4.5c0.1,0.2,0,0.3-0.2,0.4l-3.8,2.6c-0.3,0.2-0.2,0.6,0.1,0.7l4.6,1.2
			c0.2,0,0.3,0.2,0.3,0.4l0.4,4.5c0,0.3,0.5,0.5,0.7,0.2l3.1-3.4c0.1-0.1,0.3-0.2,0.5-0.1l4.3,2c0.3,0.1,0.6-0.1,0.5-0.5l-1.3-4.1
			c-0.1-0.4,0-0.8,0.4-1l3.4-2.3c0.3-0.2,0.2-0.6-0.1-0.7l-4.3-1c-0.2,0-0.3-0.2-0.3-0.4l-0.4-4.8c0-0.3-0.4-0.5-0.7-0.2l-3.3,3.5
			c-0.1,0.1-0.3,0.2-0.5,0.1l-4.3-2.1C363.7,218.1,363.4,218.4,363.5,218.7z"/>
		<path class="st0" d="M110,211.3l2.9,2.1c0.1,0.1,0.1,0.2,0.1,0.3l-1.1,3.3c-0.1,0.2,0.2,0.5,0.4,0.4l3.4-1.3c0.1,0,0.3,0,0.3,0.1
			l2.2,2.6c0.2,0.2,0.5,0.1,0.5-0.2l0.4-3.5c0-0.1,0.1-0.2,0.2-0.3l3.6-0.7c0.3-0.1,0.3-0.4,0.1-0.5l-2.6-1.9
			c-0.2-0.2-0.3-0.5-0.2-0.8l1-2.9c0.1-0.2-0.2-0.5-0.4-0.4l-3.1,1.3c-0.1,0-0.3,0-0.3-0.1l-2.4-2.7c-0.2-0.2-0.5-0.1-0.5,0.2
			l-0.5,3.6c0,0.1-0.1,0.2-0.2,0.3l-3.5,0.6C109.9,210.8,109.8,211.2,110,211.3z"/>
		<path class="st0" d="M216.6,123.2l2.4,1.8c0.1,0.1,0.1,0.2,0.1,0.3l-1,2.8c-0.1,0.2,0.1,0.4,0.3,0.3l2.8-1.1c0.1,0,0.2,0,0.3,0.1
			l1.9,2.2c0.1,0.2,0.4,0.1,0.4-0.1l0.3-2.9c0-0.1,0.1-0.2,0.2-0.2l3-0.6c0.2,0,0.3-0.3,0.1-0.5l-2.2-1.6c-0.2-0.2-0.3-0.4-0.2-0.7
			l0.8-2.5c0.1-0.2-0.1-0.4-0.3-0.3l-2.6,1.1c-0.1,0-0.2,0-0.3-0.1l-2-2.3c-0.1-0.2-0.4-0.1-0.4,0.1l-0.4,3.1c0,0.1-0.1,0.2-0.2,0.2
			l-3,0.5C216.4,122.8,216.4,123.1,216.6,123.2z"/>
	</g>
	<g>
		<g>
			<path class="st0" d="M228.1,201.8v0.4c-1.1-0.6-2.2-1.2-3.3-1.7c-5.4-2.6-10.9-5.1-16.5-7.3c-7-2.8-14.1-5.7-21.1-8.6
				c-4.6-1.9-9.1-3.8-13.7-5.6c-4.2-1.7-8.5-3.3-12.8-4.9c7.1-7.2,17-11.7,28-11.7c2.1,0,4.2,0.2,6.3,0.5c1.1,0.2,2.3,0.4,3.3,0.7
				c5.3,1.3,10.1,3.7,14.3,6.9c0.8,0.6,1.7,1.3,2.4,2C223.1,179.8,228.1,190.2,228.1,201.8z"/>
			<path class="st0" d="M228.1,202.3c0,2.9-0.4,5.7-1,8.5c-4,17.5-19.7,30.5-38.4,30.5c-21.7,0-39.4-17.6-39.4-39.4
				c0-7.9,2.3-15.2,6.3-21.4c1.5-2.3,3.2-4.4,5.1-6.3c4.3,1.6,8.5,3.2,12.8,4.9c4.6,1.8,9.1,3.8,13.7,5.6c7,2.9,14.1,5.7,21.1,8.6
				c5.6,2.2,11.1,4.7,16.5,7.3C225.9,201.1,227,201.7,228.1,202.3z"/>
			<g>
				<path class="st1" d="M216.6,167.6c-0.3,1.7-0.9,3.3-1.5,4.9c-0.8-0.7-1.6-1.4-2.4-2c0.3-1,0.5-2,0.5-3c0.1-1.7-0.1-3.4-0.8-4.9
					c-0.2-0.4-0.5-0.9-0.9-1.2c-1.6-1.4-3.4-2.4-5.6-2.3c-0.8,0.1-1.6,0.2-2.4,0.3c-2.1,0.4-3.6,1.7-4.7,3.5
					c-0.1,0.2-0.3,0.5-0.4,0.7c-1.1-0.3-2.2-0.5-3.3-0.7c0.6-1.4,1.6-2.5,2.8-3.6c2.5-2.2,5.5-3.3,8.9-3.5c0.1,0,0.2,0,0.3,0
					c2-0.1,3.8,0.6,5.5,1.7c0.4,0.3,0.8,0.6,1.2,0.9C216.2,160.7,217.3,164,216.6,167.6z"/>
				<path class="st1" d="M232.9,207.9c-0.1,0.2-0.1,0.3-0.2,0.5c-0.6,2-1.5,2.7-3.6,2.8c-0.7-0.2-1.3-0.3-2-0.4
					c-0.6-0.1-1.2-0.3-1.8-0.5c-3-1.1-6-2.2-9-3.4c-4.2-1.7-8.4-3.5-12.6-5.2c-2.6-1-5.2-1.9-7.8-2.8c-7.9-2.8-15.7-5.8-23.3-9.4
					c-3.5-1.6-7.1-3.4-10.6-5.1c-2.3-1.1-4.4-2.5-6.3-4c-0.4-0.3-0.8-0.7-1.2-1c-0.6-0.5-1.1-1-1.4-1.6c-0.9-1.4-0.6-2.9,0.7-3.9
					c1.1-0.9,2.3-1.1,3.6-0.9c0.8,0.2,1.7,0.4,2.5,0.7c0.3,0.1,0.6,0.2,0.9,0.4c4.3,1.6,8.5,3.2,12.8,4.9c4.6,1.8,9.1,3.8,13.7,5.6
					c7,2.9,14.1,5.7,21.1,8.6c5.6,2.2,11.1,4.7,16.5,7.3c1.1,0.5,2.2,1.1,3.3,1.7c0.8,0.5,1.6,0.9,2.4,1.4c0.6,0.3,1.1,0.7,1.5,1.1
					C233,205.6,233.3,206.7,232.9,207.9z"/>
				<path class="st1" d="M159.1,210.2c2.2,11.7,8.7,18.2,18,21c0.1-0.1,0.2-0.3,0.2-0.4c1.6-5.3,3.2-10.6,4.8-15.9
					c0.2-0.5,0.2-1,0-1.5c-0.4-0.9-0.4-1.9-0.1-2.9c0.3-0.9,0.5-1.9,1-2.8c0.7-1.4,1.8-2,3.1-1.7c1.3,0.3,2.4,1.4,2.4,2.8
					c0.1,2.4-0.6,4.6-2.8,6c-0.2,0.1-0.4,0.3-0.4,0.6c-1.9,5.3-3.5,10.8-5.1,16.2c0,0.1,0,0.2,0,0.4c1.1,0.2,2.2,0.5,3.3,0.6
					c2.9,0.2,5.8,0.6,8.7,0.6c6.9-0.1,12.9-2.5,17.6-7.9c-0.5-1.9-0.1-3.7,0.9-5.3c0.4-0.7,0.9-1.4,1.6-1.9c1.6-1.2,3.4-0.6,4,1.3
					c0.7,2.5-0.9,5.7-3.4,6.7c-0.4,0.2-0.7,0.4-1,0.7c-4.1,5-9.4,7.8-15.7,8.8c-3,0.5-6.1,0.4-9.1,0c-2.5-0.3-4.9-0.7-7.4-1
					c-0.2,0-0.3,0-0.5,0c-0.1,0.2-0.2,0.5-0.3,0.7c-0.5,1-1.2,3.2-1.7,4.2c-0.2,0.4-0.4,0.7-0.7,1c-0.4,0.4-1.1,0.4-1.5,0.1
					c-0.4-0.3-0.6-0.8-0.4-1.3c0.3-1,1.1-3.1,1.5-4c0.2-0.4,0.3-0.8,0.5-1.3c-0.4-0.2-0.8-0.3-1.1-0.4c-3.9-1.5-7.5-3.4-10.5-6.4
					c-3.2-3.3-5.4-7.2-6.7-11.6c-0.4-1.3-0.6-2.7-0.9-4c-0.1-0.3-0.1-0.6-0.5-0.7c-0.9-0.4-1.5-1.1-1.7-2c-0.5-1.4-0.7-2.9-0.6-4.3
					c0.1-1.4,0.7-2.5,2-3.1c0.9-0.4,1.7-0.4,2.6,0.1c0.4,0.3,0.8,0.6,1.2,1c1,1.1,1.6,2.5,1.7,4c0.1,1.7-0.5,3.1-2.2,3.9
					C159.3,210.1,159.2,210.1,159.1,210.2z"/>
			</g>
		</g>
		<path class="st2" d="M192.8,150.2c-0.4-0.3-0.8-0.5-1.3-0.8c-2.3-1.5-4.6-2.9-6.8-4.6c-5.3-3.9-7.5-9.2-6.7-15.7
			c0.2-2,0.6-3.9,1.4-5.7c0.7-1.7,1.8-3.2,3.1-4.4c1.6-1.6,3.6-2.2,5.9-2.1c3.2,0.1,5.8,1.5,8.1,3.6c6.2,5.9,10.4,12.9,12.4,21.3
			c0.5,2.2,0.8,4.4,0.9,6.7c0,0.3,0,0.6,0.1,0.9c1.2-0.2,2.2-0.2,3.1,0.7c0.2-0.2,0.5-0.4,0.7-0.5c6.1-5,12.7-9.4,20-12.5
			c6.8-2.9,13.8-4.7,21.2-5.2c3.6-0.2,7.2-0.1,10.7,0.8c1.6,0.4,3.1,1,4.5,1.9c3.3,2,5.2,5,6.2,8.7c1.4,4.8,0.2,9.1-2.4,13.1
			c-1.8,2.8-4.2,5-7.1,6.6c-5.6,3.1-11.7,4.6-18.1,4.6c-3.4,0-6.8-0.5-10.2-1.2c-1.1-0.2-2.2-0.4-3.5-0.7c0.3,0.3,0.5,0.5,0.6,0.8
			c1.2,1.5,2.4,3,3.5,4.6c3.2,5,5.6,10.3,7.9,15.8c1.1,2.5,2.1,5.1,3.3,7.6c1.3,2.6,3.1,4.9,5.5,6.6c2.2,1.6,4.6,2.6,7.3,2.7
			c2.4,0.1,4.8-0.2,7-1.2c1.9-0.8,3.4-2.2,4.5-3.9c-1.3-0.9-2.5-1.7-3.7-2.5c-1.4-1-2.6-2.2-3.6-3.7c-2.4-3.6-1.4-8.8,2.1-11
			c2.1-1.3,4.3-1.3,6.6-0.7c1.8,0.5,3.2,1.6,4.3,3c2,2.5,3.1,5.4,3,8.6c0,1.5-0.2,3-0.3,4.7c1.6,0.3,3.3,0.4,4.9-0.3
			c0.9-0.4,1.8-0.9,2.7-1.4c0.3-0.1,0.6-0.3,0.9-0.4c0.5-0.1,0.9,0.1,1.1,0.5c0.2,0.4,0.2,0.8-0.2,1.1c-1.9,1.8-3.9,3.3-6.8,3.3
			c-1.2,0-2.3,0.1-3.6,0.2c-0.1,0.1-0.2,0.2-0.2,0.4c-2.3,5.2-6.2,8.4-11.6,10c-2.4,0.7-4.8,1.1-7.3,1.1c-3.4,0-6.7-0.9-9.7-2.5
			c-4.2-2.3-7.3-5.7-9.7-9.8c-1.6-2.7-2.8-5.7-4-8.6c-1.1-2.8-2.2-5.5-3.4-8.3c-1.5-3.5-3.2-6.9-5.4-10c-1.9-2.8-4.2-5.2-7-7.2
			c-2.1-1.5-4.1-3.1-6.5-4.2c-1.4-0.6-2.9-0.8-4.3-1.2c-0.2-0.1-0.5,0.1-0.8,0.2c-0.6,0.4-1.3,0.6-2,0.4c-1-0.2-1.9-0.4-2.9-0.6
			c-0.8-0.2-1.4-0.7-1.9-1.4c-0.5-0.7-1.1-1.1-1.7-1.7c-1.6-1.3-3.5-1.9-5.5-2.1c-3.3-0.3-6.7-0.5-10-0.4
			c-5.3,0.2-10.5,1.3-15.5,3.1c-6.7,2.5-12.9,5.8-18.6,10c-5.6,4.1-11,8.3-16.6,12.4c-7.8,5.8-15.7,11.5-23.6,17.2
			c-3.5,2.6-7.2,4.9-11.2,6.8c-4.1,2-8.3,3.3-12.9,3.7c-3.7,0.3-7-0.8-10-3c-1.7-1.3-3.2-2.8-4.3-4.6c-1.7-2.7-3.3-5.4-4.3-8.5
			c-2.7-7.9-2.2-15.5,2.9-22.4c1.6-2.1,3.4-4.1,5.6-5.8c-0.3-0.2-0.5-0.3-0.7-0.4c-2-0.9-4.1-1.3-6.3-1.5c-3.6-0.4-7,0.4-10.1,2.2
			c-1.1,0.7-2.2,1.4-3.3,2.2c-1.5,1.1-2.6,2.5-3.3,4.2c-0.1,0.3-0.2,0.5-0.4,0.8c-0.3,0.4-0.7,0.6-1.2,0.4c-0.5-0.1-0.8-0.5-0.8-1
			c0-0.4,0-0.9,0.2-1.3c1.1-2.3,2.3-4.6,4.3-6.4c0.3-0.2,0.5-0.5,0.8-0.7c1.6-1.8,3.7-2.8,6-3.2c2.5-0.4,5-1,7.6-0.9
			c2,0.1,4,0.3,5.9,1c1.7,0.6,3.4,1.1,4.9,2c0.3,0.2,0.6,0.2,1,0c2.4-1.1,4.8-1.7,7.4-2.1c4.6-0.7,9.1-0.2,13.4,1.6
			c1.5,0.7,2.8,1.6,3.9,2.9c2.5,3,2.2,7.3,0.1,10c-2.2,2.7-5.1,3.8-8.4,4.1c-2.1,0.2-4-0.4-5.7-1.5c-1.8-1.1-3.3-2.3-4.7-3.8
			c-1.2-1.3-2.4-2.6-3.6-3.8c-0.4-0.4-0.8-0.8-1.3-1.2c-0.2,0.1-0.5,0.3-0.6,0.4c-3.5,2.7-6.1,6-7.8,10.1c-1.6,3.9-1.5,7.9,0.2,11.7
			c2.3,5.1,6.2,8.3,11.5,9.9c2,0.6,3.8,0.5,5.7-0.1c3.2-1.1,6.3-2.6,9.2-4.5c4.3-2.8,8.5-5.7,12.7-8.7c8.9-6.4,17.8-12.8,26.7-19.3
			c4.5-3.3,9-6.5,14-9.1c6-3.1,12.3-5.2,18.9-6.4c4.5-0.8,9-1,13.6-0.9c1,0,2.1,0.1,3.1,0.2C192.8,150.3,192.8,150.2,192.8,150.2z
			 M215.4,154.3c0.2,0,0.4,0.1,0.6,0.1c2.4,0.2,4.6,1.1,6.7,2.1c0.3,0.2,0.7,0.3,1,0.3c2.6,0.6,5.1,1.3,7.7,1.9
			c1.8,0.4,3.5,1,5.3,1.3c4.8,0.7,9.7,0.6,14.5-0.3c3.5-0.7,6.8-1.8,9.9-3.6c2.3-1.4,4.3-3.1,5.6-5.5c0.8-1.4,1.3-2.8,1.1-4.5
			c-0.2-1.1-0.5-2.1-0.8-3.1c-0.4-1.2-1.2-2.1-2.3-2.6c-1.2-0.6-2.5-1-3.8-1.1c-2.2-0.3-4.5-0.4-6.8-0.2c-3.1,0.2-6.3,0.5-9.4,1.1
			c-6.1,1.2-11.9,3.3-17.5,6.2c-3.9,2-7.7,4.3-11.3,6.7C215.4,153.4,215,153.6,215.4,154.3z M205.8,153.1c0.2-0.7,0.4-1.3,0.4-1.9
			c0.1-2.6-0.1-5.2-0.7-7.8c-2-7.5-6-13.7-12.1-18.6c-0.7-0.5-1.4-0.9-2.2-1.3c-0.7-0.4-1.5-0.5-2.4-0.5c-0.7,0-1.2,0.3-1.6,0.9
			c-0.6,0.8-1.1,1.7-1.3,2.7c-0.2,1.2-0.4,2.3-0.5,3.5c-0.3,2.9,0.5,5.5,2.2,7.8c1.9,2.7,4.4,4.8,7,6.7c2.5,1.8,4.9,3.7,7.4,5.5
			C203.3,151.1,204.5,152.1,205.8,153.1z M89.2,164.8c1.1,1,2,1.9,3,2.7c1.1,0.9,2.2,1.6,3.3,2.5c1.6,1.3,3.5,2,5.5,2.6
			c1.6,0.5,2.9,0,4.3-0.7c1.5-0.8,2.1-3.3,1.3-4.7c-0.6-1.1-1.5-1.9-2.5-2.4c-4.5-2.1-9.1-2.4-13.8-0.5
			C89.9,164.4,89.7,164.5,89.2,164.8z M276.1,195.5c0.5-1,0.7-2.1,0.9-3.1c0.3-1.2,0.3-2.5,0-3.7c-0.4-2-1.5-3-3.4-3.4
			c-1.8-0.3-4.1,0.6-3.8,3.7c0.1,1.2,0.7,2.1,1.5,2.9c1.3,1.3,2.7,2.4,4.3,3.3C275.8,195.4,275.9,195.5,276.1,195.5z"/>
	</g>
</g>
</svg>
