<?xml version="1.0" encoding="UTF-8" standalone="no"?>
<!-- Generator: Adobe Illustrator 22.0.0, SVG Export Plug-In . SVG Version: 6.00 Build 0)  -->

<svg
   xmlns:dc="http://purl.org/dc/elements/1.1/"
   xmlns:cc="http://creativecommons.org/ns#"
   xmlns:rdf="http://www.w3.org/1999/02/22-rdf-syntax-ns#"
   xmlns:svg="http://www.w3.org/2000/svg"
   xmlns="http://www.w3.org/2000/svg"
   xmlns:sodipodi="http://sodipodi.sourceforge.net/DTD/sodipodi-0.dtd"
   xmlns:inkscape="http://www.inkscape.org/namespaces/inkscape"
   version="1.1"
   id="Calque_1"
   x="0px"
   y="0px"
   viewBox="0 0 6007.6568 3504.4514"
   xml:space="preserve"
   inkscape:version="0.91 r13725"
   sodipodi:docname="Merry_Christmas_and_Happy_New_Year-4792.svg"
   width="6007.6567"
   height="3504.4514"><metadata
     id="metadata27"><rdf:RDF><cc:Work
         rdf:about=""><dc:format>image/svg+xml</dc:format><dc:type
           rdf:resource="http://purl.org/dc/dcmitype/StillImage" /><dc:title></dc:title></cc:Work></rdf:RDF></metadata><defs
     id="defs25" /><sodipodi:namedview
     pagecolor="#f4ffff"
     bordercolor="#666666"
     borderopacity="1"
     objecttolerance="10"
     gridtolerance="10"
     guidetolerance="10"
     inkscape:pageopacity="0"
     inkscape:pageshadow="2"
     inkscape:window-width="1440"
     inkscape:window-height="817"
     id="namedview23"
     showgrid="false"
     fit-margin-top="0"
     fit-margin-left="0"
     fit-margin-right="0"
     fit-margin-bottom="0"
     inkscape:zoom="0.12471348"
     inkscape:cx="3003.8283"
     inkscape:cy="974.65267"
     inkscape:window-x="0"
     inkscape:window-y="1"
     inkscape:window-maximized="1"
     inkscape:current-layer="g5" /><style
     type="text/css"
     id="style3">
	.st0{fill:#C51618;}
	.st1{fill:#BE1622;}
	.st2{fill:#97191D;}
	.st3{fill:#BA1818;}
	.st4{fill:#DADADA;}
	.st5{fill:#F39200;}
	.st6{fill:#EDEDED;}
	.st7{fill:#C6C6C6;}
	.st8{fill:#B51922;}
	.st9{fill:#FFFFFF;}
	.st10{fill:#95C11F;}
	.st11{fill:#FBF18E;}
	.st12{fill:#A3195B;}
	.st13{fill:#CE9445;}
	.st14{fill:#C07912;}
	.st15{fill:#006633;}
	.st16{fill:#A91917;}
	.st17{fill:#A31A17;}
	.st18{fill:#CCCCCC;}
	.st19{fill:#AB1918;}
	.st20{fill:#BA7321;}
	.st21{fill:#4D3134;}
	.st22{fill:#BD1824;}
	.st23{fill:#71484C;}
	.st24{fill:#020203;}
	.st25{fill:#008D36;}
	.st26{fill:#027835;}
	.st27{fill:#005229;}
	.st28{fill:#A91921;}
	.st29{fill:#9E1920;}
	.st30{fill:#DB9646;}
	.st31{fill:#F8EAD9;}
	.st32{fill:#FFF1E0;}
	.st33{fill:#DED2C2;}
	.st34{fill:#3C3C3B;}
	.st35{fill:#A61E19;}
	.st36{fill:#3AAA35;}
	.st37{fill:#1A1A1A;}
	.st38{fill:#B01E19;}
	.st39{fill:#F9C733;}
	.st40{fill:#E0BC97;}
	.st41{fill:#CC9F71;}
	.st42{fill:#1D71B8;}
	.st43{fill:#DA907B;}
	.st44{fill:#BA874D;}
	.st45{fill:#A01E2A;}
	.st46{fill:#F2F2F2;}
	.st47{fill:#F4D5AB;}
	.st48{fill:#87181A;}
	.st49{fill:#FAB62E;}
	.st50{fill:#F7A509;}
	.st51{fill:#E94E1B;}
	.st52{fill:#634E42;}
	.st53{fill:#1C1D3B;}
	.st54{fill:#936037;}
	.st55{fill:#7D4E24;}
	.st56{fill:#EDF6F7;}
	.st57{fill:#432918;}
	.st58{fill:#683C11;}
	.st59{fill:#FDD110;}
	.st60{fill:#E30613;}
	.st61{fill:#2D2E83;}
	.st62{fill:#F8AC14;}
	.st63{fill:#C5E5EE;}
	.st64{fill:#EE7476;}
	.st65{fill:#706F6F;}
</style><g
     id="g5"
     transform="matrix(26.998461,0,0,22.471606,-2778.035,-1459.2967)"><path
       d="m 213.6,188.2 c 0.4,-0.1 0.5,-0.4 0.7,-0.6 3.4,-4.2 6.8,-8.4 10.2,-12.5 0.4,-0.4 0.6,-0.9 0.6,-1.5 0.5,-4.8 1,-9.5 2,-14.2 0.4,-1.7 0.7,-3.5 1.1,-5.2 0.2,-0.9 0.2,-0.9 -0.6,-1.1 -4.6,-1.2 -9.3,-2.4 -14,-3.1 -2.4,-0.3 -4.9,-0.7 -7.4,-0.6 -2.7,0.1 -5.3,0.8 -7.5,2.5 -3.1,2.5 -4.5,5.6 -3.6,9.6 0.2,1.1 0.5,2.1 0.9,3.1 0.2,0.5 0.4,1.1 0.5,1.7 0.1,0.9 -0.3,1.5 -1.2,1.7 -1.7,0.4 -3.6,-0.8 -4,-2.5 0,-0.2 -0.1,-0.3 -0.1,-0.5 0,-2.9 0,-5.8 1.3,-8.4 2.5,-5.1 6.6,-7.8 12.1,-8.5 2.7,-0.3 5.4,0 8.1,0.3 5,0.6 9.9,1.8 14.8,3.1 0.2,0.1 0.4,0.1 0.6,0.1 0.5,0.2 0.7,0 0.8,-0.5 0.3,-0.9 0.6,-1.9 1,-2.8 0.3,-0.7 0.7,-1.4 1.2,-1.9 0.5,-0.4 1,-0.6 1.6,-0.4 0.6,0.2 0.9,0.7 0.9,1.3 0.1,1.5 -0.1,3 -0.2,4.5 -0.1,0.9 -0.1,0.9 0.8,1 7.1,1.5 14.3,2.2 21.6,1.8 3.5,-0.2 6.9,-0.7 10.3,-1.4 3.3,-0.6 6.5,-1.4 9.5,-2.7 8.5,-3.5 15,-9.3 19.6,-17.2 1.7,-2.9 2.7,-6 2.9,-9.4 0.1,-1.8 -0.1,-3.6 -0.7,-5.3 -0.9,-2.4 -2.6,-4 -5.1,-4.7 -1.1,-0.3 -2.2,-0.2 -3.2,0.3 -0.6,0.3 -1.1,0.6 -1.5,1 -2.7,2.6 -4,5.8 -3.6,9.6 0.1,0.6 0.3,1.2 0.6,1.7 1,1.6 2.7,1.9 4,0.5 0.4,-0.4 0.7,-0.8 1.1,-1.1 0.5,-0.4 1.2,-0.3 1.6,0.2 0.2,0.3 0.3,0.6 0.1,0.9 -1.2,2.3 -3.8,3.2 -5.9,2.5 -2.4,-0.8 -4,-3 -4.2,-5.7 -0.2,-4 1.2,-7.3 4.2,-10 2.5,-2.3 5.5,-2.7 8.6,-1.2 3.3,1.7 5.2,4.4 5.8,8.1 0.6,4.3 -0.4,8.4 -2.2,12.2 -2.1,4.4 -5.1,8 -8.7,11.2 -6.4,5.8 -13.8,9.2 -22.3,10.7 -3.5,0.6 -7,1.1 -10.5,1.3 -2.6,0.2 -5.3,0.1 -7.9,0 -5,-0.3 -10,-1 -14.9,-2.1 -0.1,0 -0.1,0 -0.3,0 -0.3,1.2 -0.5,2.5 -0.7,3.8 -0.7,4.3 -1.4,8.6 -1.8,12.9 -0.3,3.1 -0.6,6.2 -0.7,9.3 -0.2,4.3 -0.3,8.7 -0.3,13 0.1,3.2 0.3,6.3 1.1,9.4 0.2,0.7 0.4,1.4 0.9,2 0.5,-0.3 0.7,-0.7 0.9,-1.2 0.7,-1.4 1.2,-2.8 1.7,-4.3 1.5,-5.4 3.1,-10.8 4.6,-16.2 0.2,-0.7 0.1,-1.4 0.1,-2.1 -0.1,-3.8 0.3,-7.5 1.1,-11.2 0.2,-0.7 0.3,-1.5 0.7,-2.1 0.3,-0.7 0.9,-1.1 1.7,-1 0.8,0.1 1.4,0.5 1.5,1.3 0.1,0.9 0.2,1.9 0.2,2.9 0,3.5 -0.1,7 0,10.5 0.1,1.7 0.2,3.3 0.3,5.1 0.3,-0.3 0.3,-0.6 0.4,-0.9 0.7,-3.1 1.5,-6.2 2.8,-9.1 0.6,-1.3 1.2,-2.4 2.1,-3.5 1.5,-1.9 3.5,-1.4 4.7,0 0.6,0.7 0.9,1.5 1.2,2.3 0.8,2.3 1.2,4.6 1.6,7 0.4,2.3 0.7,4.6 1.1,6.9 0.4,-0.2 0.3,-0.5 0.3,-0.8 1.3,-7.1 3.4,-13.9 6.3,-20.4 0.4,-0.9 0.9,-1.8 1.5,-2.7 0.1,-0.2 0.2,-0.3 0.3,-0.5 1.9,-2.8 4.9,-1.5 5.8,0.7 0.6,1.4 0.8,3 0.9,4.5 0.1,2 -0.1,4 -0.3,6 -0.5,6 -1.4,11.9 -1.9,17.9 -0.5,5.9 -0.8,11.9 -0.6,17.9 0.1,1.8 0.1,3.6 0.5,5.4 0.1,0.4 0.2,0.7 0.3,1.1 0.5,-0.1 0.5,-0.5 0.6,-0.8 0.7,-1.7 1.2,-3.5 1.6,-5.3 1.4,-6.7 2.7,-13.3 4.1,-20 1.3,-6.4 2.5,-12.8 3.8,-19.2 0.1,-0.6 0.1,-1.1 0,-1.6 -0.9,-5.4 0.1,-10.4 3.4,-14.8 2,-2.7 4.8,-4.1 8.2,-4 2.6,0.1 4.8,1.2 6.6,3.1 0.3,0.3 0.6,0.6 0.9,1 0.4,-0.7 0.7,-1.3 1,-1.9 0.3,-0.7 0.6,-1.4 1,-2.2 0.5,-1 1.1,-1.4 2.1,-1.2 1.1,0.2 1.8,1 1.8,2.1 0,0.8 -0.1,1.6 -0.3,2.4 -0.6,3.2 -1.4,6.3 -2.2,9.5 -1.2,4.8 -2.4,9.7 -3.1,14.7 -0.5,4 -0.8,8 -0.5,12.1 0.1,1 0.3,2 0.7,2.9 0.3,0.7 0.6,0.7 1.2,0.3 0.6,-0.4 1.1,-0.8 1.5,-1.4 0.9,-1 1.6,-2.1 2.3,-3.1 3.4,-5.3 6,-10.9 8.4,-16.7 0.2,-0.5 0.1,-1 0,-1.5 -0.9,-3.2 -1.9,-6.4 -2.7,-9.6 -0.9,-3.7 -1.5,-7.4 -1.7,-11.1 -0.1,-3 0.2,-6 1.4,-8.9 0.6,-1.5 1.4,-2.8 2.7,-3.8 2.5,-2.1 5.6,-1.6 7.2,1.3 0.9,1.7 1.2,3.6 1.4,5.5 0.5,4.4 -0.2,8.7 -1.3,12.9 -0.7,2.8 -1.6,5.5 -2.5,8.2 -0.2,0.6 -0.2,1.2 0,1.9 1.9,5.8 3.5,11.7 4.8,17.7 0.7,3.5 1.4,7 1.6,10.7 0.1,3.1 -0.3,6.1 -1.7,9 -0.5,1.1 -1.2,2.1 -2.1,3 -0.6,0.7 -1.4,1.2 -2.3,1.6 -1.9,0.8 -3.7,0.3 -4.9,-1.4 -1,-1.3 -1.6,-2.8 -1.8,-4.4 -0.3,-1.6 -0.3,-3.3 -0.4,-4.9 0,-0.8 0.4,-1.5 1.2,-1.6 0.7,-0.1 0.9,0.2 0.9,0.9 -0.2,1.5 0.1,3.1 0.4,4.6 0.2,1.3 0.8,2.5 1.6,3.5 1.3,1.6 1.6,1.6 2.5,-0.2 0.9,-1.8 1.1,-3.7 1.2,-5.7 0.1,-3.8 -0.4,-7.4 -1,-11.1 -0.8,-4.5 -1.9,-9 -3.1,-13.4 -0.1,-0.2 -0.2,-0.5 -0.2,-0.7 -0.4,0.2 -0.4,0.6 -0.6,1 -2,4.6 -4.2,9.2 -6.8,13.6 -0.8,1.4 -1.7,2.7 -2.6,3.9 -0.5,0.7 -1.1,1.3 -1.8,1.8 -2.2,1.6 -4.9,1.1 -6.5,-1.1 -1.1,-1.5 -1.6,-3.3 -2,-5.1 -0.6,-3.1 -0.5,-6.3 -0.1,-9.4 0.6,-5.5 1.8,-10.9 3.3,-16.2 0.1,-0.2 0.2,-0.4 0,-0.6 -0.3,0.1 -0.4,0.4 -0.5,0.7 -1.5,2.4 -2.9,4.7 -4.5,7 -0.8,1.2 -1.7,2.3 -2.8,3.2 -0.6,0.5 -1.2,1 -2,1.3 -1.8,0.7 -3.5,0.4 -4.9,-0.9 -0.2,-0.2 -0.4,-0.5 -0.6,-0.7 -0.4,0.5 -0.4,1 -0.5,1.4 -1.4,7.4 -2.8,14.7 -4.2,22.1 -0.9,4.7 -1.6,9.4 -2.6,14 -0.4,1.8 -0.8,3.6 -1.4,5.4 -0.2,0.6 -0.4,1.1 -0.8,1.7 -1.2,1.9 -3.5,2 -4.9,0.2 -0.5,-0.7 -0.9,-1.5 -1.2,-2.3 -0.8,-2.3 -1.3,-4.6 -1.6,-7 -0.7,-5.7 -0.6,-11.5 -0.1,-17.2 0.6,-6.9 1.6,-13.7 2.5,-20.5 0.2,-1.6 0.4,-3.3 0.6,-4.9 0.1,-0.5 0.1,-1.1 0,-1.8 -0.5,0.4 -0.8,0.8 -1.1,1.2 -1.1,1.5 -1.8,3.2 -2.5,4.9 -2.5,6.1 -4.2,12.4 -4.9,18.9 -0.2,1.5 -0.2,3 -0.4,4.5 -0.1,1.1 -0.5,1.4 -1.2,1.6 -0.9,0.2 -1.6,-0.2 -2.1,-0.9 -0.4,-0.7 -0.6,-1.4 -0.9,-2.2 -1.1,-4.1 -2,-8.3 -2.5,-12.5 -0.3,-2.1 -0.5,-4.2 -1,-6.3 -0.1,-0.5 -0.2,-0.9 -0.5,-1.4 -0.6,0.3 -0.9,0.9 -1.2,1.4 -1.1,1.9 -1.9,4 -2.5,6.2 -1.3,4.4 -2,8.9 -2.1,13.6 0,0.8 -0.1,1.6 -0.1,2.4 -0.1,0.8 -0.5,1.2 -1.3,1.4 -1.1,0.2 -2,-0.2 -2.5,-1.2 -0.5,-0.8 -0.7,-1.7 -0.9,-2.6 -0.5,-1.9 -1,-3.8 -1.3,-5.8 0,-0.2 -0.1,-0.5 -0.3,-0.9 -0.4,1.3 -0.7,2.3 -0.9,3.3 -0.8,3 -1.6,6.1 -2.5,9.1 -0.3,1.3 -0.8,2.5 -1.4,3.6 -0.3,0.6 -0.6,1.1 -1,1.5 -1.3,1.4 -3.2,1.5 -4.5,0.2 -0.6,-0.6 -1,-1.3 -1.4,-2 -1,-2.2 -1.6,-4.5 -2.2,-6.8 -1.2,-5.1 -1.5,-10.3 -1.3,-15.5 0.1,-1.4 0.1,-2.9 0.2,-4.3 -0.4,-0.1 -0.4,0.2 -0.6,0.3 -3.1,3.9 -6.1,7.7 -9.2,11.6 -0.4,0.5 -0.5,1 -0.2,1.7 1.5,3.4 2.7,7 3.3,10.7 0.4,2.4 0.6,4.9 -0.1,7.3 -0.9,3.4 -4,6.1 -7.5,6.5 -2,0.2 -3.6,-0.5 -4.8,-2 -0.8,-1.1 -1.2,-2.3 -1.3,-3.6 -0.3,-3.1 0.4,-6.1 1.5,-9 1,-2.5 2.2,-4.8 3.7,-7 0.3,-0.4 0.4,-0.7 0.2,-1.2 -1.4,-3.3 -2.7,-6.7 -4.1,-10 -0.4,0.2 -0.4,0.6 -0.5,0.9 -1.9,5.5 -3.6,11.1 -5.2,16.8 -0.4,1.4 -0.9,2.7 -1.5,3.9 -0.3,0.6 -0.7,1.3 -1.1,1.8 -1.1,1.3 -2.8,1.5 -4.2,0.6 -0.8,-0.5 -1.4,-1.3 -1.8,-2.2 -0.9,-1.8 -1.3,-3.7 -1.6,-5.7 0,-0.2 -0.1,-0.3 -0.1,-0.5 -0.3,0.2 -0.3,0.5 -0.4,0.8 -0.7,2.7 -1.3,5.3 -2,8 -0.2,1 -0.6,1.9 -1,2.8 -0.1,0.2 -0.2,0.3 -0.2,0.4 -1.4,2.3 -3.8,2.3 -5.2,0 -0.9,-1.5 -1.4,-3.2 -1.8,-4.9 -1.1,-5 -1.2,-10 -0.9,-15.1 0.3,-6.2 1.6,-12.2 2.9,-18.2 0.1,-0.5 0.2,-1 0.3,-1.5 0.1,-0.5 -0.1,-0.6 -0.6,-0.6 -2,0.3 -4,0.6 -6,1 0,0.2 0,0.3 0.1,0.4 1.6,4.2 2.2,8.5 2.2,13 -0.2,8.7 -1.8,17.1 -5.3,25 -0.6,1.4 -1.3,2.8 -2.3,4 -0.6,0.7 -1.2,1.3 -2,1.7 -1.5,0.8 -3.2,0.6 -4.4,-0.6 -0.9,-0.9 -1.4,-1.9 -1.8,-3.1 -0.9,-2.6 -1.1,-5.3 -1.1,-8.1 0.1,-5.5 1,-10.8 2.4,-16.1 0.6,-2.2 1.2,-4.3 1.6,-6.6 0,-0.2 0.1,-0.5 0,-0.8 -0.4,-0.1 -0.7,0.2 -1,0.4 -1,0.6 -1.8,1.4 -2.5,2.2 -3.5,3.9 -6.2,8.4 -8.3,13.1 -1.9,4.1 -3.2,8.5 -3.6,13 -0.2,1.6 -0.2,3.1 -0.3,4.7 0,0.5 0,1 -0.1,1.4 -0.3,1 -1,1.4 -1.9,1.2 -0.8,-0.2 -1.4,-0.7 -1.8,-1.4 -0.9,-1.3 -1.5,-2.8 -2.1,-4.2 -1.1,-2.8 -1.5,-5.7 -1.8,-8.7 -0.5,-4.5 -0.5,-9 -0.2,-13.4 0.6,-7.9 2.1,-15.5 5.3,-22.8 0.7,-1.6 1.6,-3.1 2.6,-4.5 0.5,-0.6 1,-1.2 1.6,-1.6 2.5,-2 5.4,-1.3 6.7,1.6 0.8,1.7 0.9,3.6 0.7,5.4 -0.3,2.3 -1,4.5 -1.9,6.6 -2,4.6 -4.8,8.7 -8,12.5 -0.6,0.7 -1.2,1.5 -1.9,2.2 -0.3,0.4 -0.4,0.7 -0.5,1.2 -0.2,5.1 -0.3,10.1 0.2,15.2 0.3,2.3 0.6,4.7 1.1,7 0.3,-0.1 0.3,-0.3 0.3,-0.5 0.8,-9.9 4.8,-18.7 10.5,-26.7 1.2,-1.7 2.5,-3.3 4.1,-4.6 0.5,-0.5 1.1,-0.9 1.8,-1.2 2.4,-1.1 4.8,0.3 5.1,3 0.1,1.4 0,2.9 -0.3,4.3 -0.8,5 -1.7,10 -2.5,15 -0.5,3.2 -0.8,6.5 -0.7,9.7 0,1.1 0.1,2.1 0.5,3.1 0.4,0.9 0.6,1 1.5,0.4 0.8,-0.5 1.4,-1.2 1.9,-2 1,-1.5 1.8,-3.1 2.4,-4.7 3.1,-8.2 4.6,-16.7 4.1,-25.5 -0.2,-3.2 -0.8,-6.2 -2,-9.2 -0.2,-0.6 -0.5,-0.8 -1.1,-0.7 -1.3,0.1 -2.6,0 -3.9,-0.4 -1,-0.3 -2,-0.8 -2.6,-1.7 -0.7,-0.9 -1.1,-1.9 -0.8,-3.1 0.4,-1.7 2.2,-2.5 4,-1.9 1.1,0.3 2,0.9 2.8,1.7 0.9,0.9 1.6,2 2.2,3.1 0.2,0.5 0.5,0.6 1,0.5 1.8,-0.4 3.6,-0.8 5.4,-1.2 0.8,-0.2 1.5,-0.4 2.3,-0.2 1.5,0.3 2.4,1.5 2.7,3.2 0.3,1.8 0.1,3.6 -0.1,5.4 -0.6,4.6 -1.3,9.2 -1.9,13.8 -0.7,5.3 -0.9,10.6 -0.3,16 0.1,0.8 0.3,1.7 0.4,2.5 0,0.3 0.2,0.5 0.3,0.8 0.5,0 0.6,-0.4 0.8,-0.7 0.5,-0.9 0.9,-1.8 1.2,-2.8 1.1,-3.6 1.9,-7.3 2.9,-10.9 0.8,-2.7 0.9,-5.5 1.2,-8.2 0.4,-3.4 1.1,-6.8 2.1,-10.1 0.4,-1.2 0.8,-2.3 1.2,-3.5 0.2,-0.5 0.3,-0.9 0.6,-1.3 0.4,-0.6 1.1,-0.8 1.7,-0.6 0.6,0.2 0.9,0.7 0.9,1.3 0.1,1.3 -0.2,2.5 -0.3,3.8 -0.5,5.2 -1.3,10.5 -1.7,15.7 -0.2,3.1 -0.4,6.3 -0.1,9.4 0.1,1 0.2,1.9 0.6,2.8 0.1,0.2 0.1,0.3 0.4,0.4 0.5,-0.4 0.8,-0.9 1.1,-1.4 0.8,-1.3 1.3,-2.8 1.8,-4.3 2.1,-6.4 4.2,-12.8 6.4,-19.2 0.2,-0.5 0.1,-0.9 0,-1.4 -0.8,-2.6 -1.3,-5.3 -1.2,-8 0.1,-2 0.5,-3.9 1.4,-5.6 1.1,-2 2.6,-3.5 4.9,-4.2 0.9,-0.3 1.8,-0.3 2.7,-0.1 2,0.4 3.2,2.2 3,4.3 -0.1,0.9 -0.3,1.7 -0.7,2.6 -1.2,3 -3,5.6 -5.2,8 -0.6,0.6 -0.6,1.1 -0.3,1.8 1.5,3.8 3,7.2 4.6,10.7 z m 72.6,-18 c -0.1,1.4 0,2.7 0.5,3.9 0.3,0.7 0.5,0.8 1.2,0.6 0.4,-0.2 0.8,-0.4 1.2,-0.7 0.8,-0.6 1.6,-1.3 2.2,-2.1 3,-3.8 5.5,-8 8,-12.2 0.2,-0.4 0.2,-0.6 -0.1,-0.9 -0.8,-1 -1.7,-1.9 -2.8,-2.5 -1.1,-0.6 -2.1,-0.6 -3.3,-0.2 -1,0.3 -1.8,1 -2.5,1.7 -1.3,1.4 -2.3,3.1 -2.9,4.9 -0.9,2.4 -1.5,4.9 -1.5,7.5 z M 145.6,184 c 0.1,0 0.1,0 0.2,0.1 0.7,-0.9 1.4,-1.8 2.1,-2.6 2.5,-3.3 4.7,-6.7 6.2,-10.6 0.8,-2.1 1.4,-4.2 1.3,-6.5 0,-1.2 -0.2,-2.3 -0.8,-3.3 -0.6,-1 -1.2,-1.1 -2.1,-0.3 -0.8,0.7 -1.3,1.5 -1.8,2.4 -0.8,1.4 -1.3,2.9 -1.9,4.4 -1.4,4.2 -2.3,8.5 -2.9,12.9 0,1.1 -0.2,2.3 -0.3,3.5 z m 172.3,-19 c 0.3,-0.1 0.3,-0.3 0.4,-0.5 0.4,-1.2 0.8,-2.4 1.1,-3.6 1.1,-3.9 1.9,-7.9 1.7,-12 -0.1,-2.2 -0.4,-4.3 -1.2,-6.4 -0.2,-0.6 -0.5,-1.1 -0.9,-1.6 -0.3,-0.4 -0.6,-0.4 -1,-0.1 -0.5,0.4 -0.9,0.9 -1.2,1.5 -1,1.8 -1.4,3.7 -1.5,5.8 -0.1,4.2 0.5,8.3 1.4,12.4 0.4,1.4 0.7,3 1.2,4.5 z m -107.2,30.6 c -0.1,0.1 -0.2,0.1 -0.2,0.2 -1.6,2.5 -2.9,5.1 -3.6,8 -0.5,2 -0.8,4.1 -0.5,6.2 0.2,1.2 0.6,2.3 1.5,3.1 0.8,0.7 1.5,0.8 2.4,0.2 1.3,-0.8 2.2,-2 2.6,-3.4 0.5,-1.7 0.4,-3.5 0.1,-5.2 -0.4,-2.9 -1.2,-5.7 -2.1,-8.4 0.1,-0.3 0.1,-0.6 -0.2,-0.7 z m -2.5,-21.3 c 0.2,-0.2 0.3,-0.2 0.4,-0.3 1.5,-1.9 2.9,-3.9 3.9,-6.1 0.4,-0.8 0.6,-1.7 0.7,-2.6 0.1,-0.8 0,-1.7 -0.7,-2.1 -0.8,-0.5 -1.6,0.1 -2.2,0.6 -0.9,0.8 -1.5,1.8 -1.9,2.9 -0.9,2.4 -0.7,4.9 -0.2,7.6 z m -35.9,-4.4 c -0.7,-1.3 -1.3,-2.4 -2.3,-3.3 -0.4,-0.4 -0.9,-0.7 -1.4,-0.9 -0.9,-0.3 -1.5,0 -1.8,0.9 -0.3,1 0.1,2 1.1,2.6 1.3,0.8 2.7,0.9 4.4,0.7 z"
       id="path7"
       inkscape:connector-curvature="0" /><path
       d="m 171.5,153.9 c 0.4,-0.8 0.7,-1.6 0.9,-2.3 1.1,-3.2 1.7,-6.4 2.4,-9.7 2.1,-9 4.1,-18 5.9,-27.1 0.1,-0.7 0.1,-1.4 0,-2 -0.3,-2.9 -0.3,-5.8 0.5,-8.7 0.5,-1.8 1.3,-3.5 2.6,-4.8 2.3,-2.5 5.6,-2.3 7.7,0.4 2.9,3.7 1.6,9.8 -4.4,10.8 -1.4,0.2 -1.4,0.2 -1.3,1.6 0.4,3.8 1.3,7.4 3.1,10.8 0.4,0.8 0.9,1.6 1.6,2.3 1,1 2.1,1.3 3.5,1 1.3,-0.3 2.3,-1 3.2,-1.9 1.2,-1.2 2.1,-2.6 2.9,-4.1 2,-3.9 3.2,-8 3.8,-12.3 0.5,-3.5 0.7,-6.9 0.4,-10.4 -0.1,-1.2 -0.3,-2.3 -0.5,-3.5 -0.1,-0.6 -0.4,-0.8 -1,-0.8 -1.9,-0.1 -3.7,-0.5 -5.4,-1.2 -1.7,-0.8 -3.1,-2.1 -3.6,-4 -0.4,-1.5 -0.2,-3 0.7,-4.3 1,-1.6 2.7,-2 4.4,-1.2 1.1,0.6 2,1.5 2.7,2.4 1.3,1.7 2.3,3.6 3,5.7 0.4,1.2 0.4,1.2 1.7,1.2 1.3,-0.1 2.5,-0.2 3.8,-0.2 3.8,-0.1 6.4,2.2 7,6.1 0.4,2.5 0.2,5 -0.1,7.5 -0.6,3.9 -1.2,7.8 -1.8,11.7 -0.7,4.3 -1,8.6 -0.6,12.9 0.2,2 0.4,3.9 1.1,5.8 0.7,1.8 1.1,1.9 2.4,0.4 0.8,-0.9 1.4,-2 1.9,-3.1 1.5,-3.1 2.5,-6.4 3.4,-9.7 1.7,-6 3,-12.2 3.7,-18.4 0.5,-4.3 0.7,-8.7 0.3,-13 -0.1,-1.1 -0.3,-2.1 -0.5,-3.1 -0.1,-0.5 -0.3,-0.7 -0.8,-0.8 -1.3,-0.3 -2.6,-0.8 -3.9,-1.4 -1.2,-0.6 -2.4,-1.3 -3.3,-2.4 -1,-1.1 -1.5,-2.4 -1.4,-3.9 0.1,-2.2 2.1,-3.6 4.2,-3 1.1,0.3 2,1 2.8,1.9 1.6,1.9 2.7,4 3.3,6.3 0.3,1.2 1,1.5 2.1,1.6 2.3,0.2 4.6,0.4 7,0.6 1,0.1 2,0.4 3,0.8 2.3,1.1 3.5,2.9 3.7,5.5 0.1,1.7 -0.3,3.4 -0.7,5.1 -1,3.6 -2.3,7 -3.4,10.5 -1.6,5 -2.8,10 -3.4,15.2 -0.3,2.3 -0.5,4.6 -0.3,6.9 0.1,0.8 0.2,1.6 0.5,2.3 0.2,0.4 0.4,0.5 0.8,0.2 0.6,-0.5 1.1,-1.2 1.6,-1.9 0.9,-1.4 1.5,-2.9 2.1,-4.4 2.1,-5.4 3.9,-10.8 5.8,-16.2 1.8,-5.3 3.6,-10.6 5.4,-15.9 0.2,-0.6 0.3,-1.1 0.3,-1.7 0.1,-4.9 1,-9.6 2.5,-14.2 0.3,-1 0.8,-2.1 1.5,-2.9 0.8,-0.9 1.7,-1.1 2.6,-0.5 0.7,0.4 0.9,1 0.9,1.7 0,0.9 -0.1,1.7 -0.3,2.5 -0.6,3.1 -1.2,6.2 -1.6,9.4 -0.4,2.9 -0.4,5.9 -0.3,8.8 0,1 0.3,2 0.7,3 0.4,0.9 0.8,1.1 1.8,0.9 1,-0.3 1.9,-0.8 2.7,-1.4 1.2,-0.9 2.3,-1.9 3.3,-3.1 2.1,-2.4 4.2,-4.8 6.4,-7.1 0.9,-1 1.8,-1.9 2.7,-2.8 0.5,-0.5 1,-0.9 1.6,-1.2 1.5,-0.8 3.1,-0.5 4.2,0.8 0.6,0.7 0.9,1.6 1.1,2.5 0.4,2.1 0.2,4.2 -0.1,6.2 -1.1,7.8 -2.4,15.5 -4.5,23.1 -0.7,2.7 -1.6,5.3 -2.7,7.9 -1.5,3.4 -3.5,6.4 -6.2,9 -1.5,1.5 -3.2,2.7 -5.3,3.2 -3,0.8 -5.8,-0.2 -7.6,-2.7 -1.5,-2.1 -2.2,-4.5 -2.4,-7 -0.2,-2.3 0.2,-4.5 1,-6.6 1.2,-3 3,-5.5 4.9,-8 0.3,-0.4 0.7,-0.6 1.3,-0.5 0.8,0.1 1.1,0.7 0.7,1.4 -0.8,1.2 -1.5,2.4 -2.3,3.6 -1.4,2.1 -2.6,4.3 -3.2,6.8 -0.6,3 -0.1,5.8 1.5,8.4 0.5,0.8 1,1.5 1.8,2 1.3,0.9 2.6,1 3.9,0.2 1,-0.6 1.8,-1.3 2.6,-2.2 2.3,-2.5 3.8,-5.5 4.9,-8.7 1.5,-4.1 2.4,-8.3 3.3,-12.5 1.3,-6.5 2.6,-13 3.8,-19.4 0.3,-1.4 0.5,-2.9 0.7,-4.4 0,-0.4 0,-0.7 0,-1.2 -0.5,0 -0.8,0.3 -1.1,0.5 -1.4,1.1 -2.6,2.3 -3.8,3.6 -1.9,2.1 -3.8,4.3 -5.7,6.5 -1.3,1.4 -2.6,2.7 -4.1,3.8 -0.7,0.5 -1.4,0.9 -2.1,1.2 -2.1,0.8 -4,0.5 -5.7,-1 -1.2,-1 -1.9,-2.3 -2.4,-3.8 -0.1,-0.3 -0.2,-0.6 -0.3,-1 -0.4,0.2 -0.4,0.6 -0.5,0.9 -2.8,8.4 -5.6,16.7 -8.4,25.1 -0.8,2.2 -1.5,4.5 -2.5,6.6 -0.5,1.2 -1.2,2.4 -2,3.4 -2,2.4 -4.9,2.3 -6.6,-0.4 -1.2,-1.9 -1.7,-4 -1.9,-6.1 -0.5,-4.3 0.2,-8.4 1.1,-12.5 1.2,-5.3 3.1,-10.4 4.9,-15.5 0.8,-2.1 1.5,-4.3 2.1,-6.4 0.2,-0.7 0.3,-1.4 0.3,-2.1 0,-0.9 -0.4,-1.5 -1.2,-1.9 -0.8,-0.4 -1.7,-0.5 -2.6,-0.6 -2.1,-0.2 -4.3,-0.4 -6.5,-0.6 0,0.8 0.2,1.6 0.3,2.4 0.3,2.5 0.4,5 0.3,7.5 -0.3,7.6 -1.7,15 -3.5,22.4 -0.9,3.9 -2,7.8 -3.4,11.5 -0.5,1.4 -1.1,2.8 -1.9,4.1 -0.4,0.6 -0.8,1.2 -1.3,1.7 -1.5,1.6 -3.6,1.9 -5.4,0.8 -1.5,-0.9 -2.6,-2.3 -3.2,-3.9 -1.1,-2.7 -1.7,-5.5 -1.7,-8.5 0,-4.1 0.4,-8.1 1.1,-12.2 0.8,-4.4 1.7,-8.9 2.5,-13.3 0.3,-1.8 0.5,-3.6 0.1,-5.4 -0.3,-1.5 -0.7,-1.9 -2.2,-2.1 -1.4,-0.2 -2.8,-0.1 -4.2,-0.1 -0.8,0 -0.7,0 -0.6,0.9 1.3,8.5 0.4,16.8 -2.9,24.8 -0.8,2 -1.9,4 -3.2,5.7 -1.3,1.7 -2.9,3.1 -5.1,3.7 -3.2,0.8 -6,0 -8.4,-2.2 -1.9,-1.7 -3.1,-3.8 -4,-6.1 -0.2,-0.5 -0.3,-1 -0.6,-1.4 -0.3,0.1 -0.3,0.3 -0.3,0.5 -1.9,9.4 -4,18.7 -5.9,28.1 -0.5,2.2 -1.1,4.5 -1.8,6.6 -0.2,0.5 -0.4,1 -0.6,1.4 -0.7,1.3 -2.1,1.5 -3.2,0.7 -0.6,-0.5 -1,-1.1 -1.4,-1.8 -0.8,-1.6 -1.2,-3.3 -1.6,-5.1 -0.8,-3.7 -1,-7.5 -1.2,-11.2 -0.2,-5.7 0.2,-11.4 0.9,-17 1.2,-9.6 3.3,-19.1 5.5,-28.5 1.5,-6.4 3,-12.8 4.3,-19.2 0.3,-1.5 0.5,-3 0.6,-4.5 0,-0.2 0.1,-0.5 0,-0.7 -0.4,0 -0.7,0.4 -0.9,0.6 -1.3,1.3 -2.4,2.7 -3.3,4.3 -2.3,3.9 -4.2,8 -5.9,12.2 -3.4,8.6 -5.9,17.5 -7.4,26.7 -0.6,4 -1,8 -1.1,12.1 0,1.6 -0.1,3.3 -0.2,4.9 0,0.3 0,0.6 -0.1,0.8 -0.2,0.9 -0.9,1.3 -1.8,1.1 -0.7,-0.2 -1.2,-0.6 -1.6,-1.2 -0.4,-0.7 -0.6,-1.4 -0.9,-2.2 -1.5,-5.2 -2.4,-10.6 -2.7,-16.1 -0.2,-3.1 -0.3,-6.2 -0.4,-9.2 0,-0.9 -0.2,-1.7 -0.3,-2.6 -0.5,0.1 -0.7,0.4 -0.9,0.7 -0.8,1 -1.4,2.1 -2,3.2 -1.8,3.6 -3,7.4 -3.9,11.3 -1.2,5 -1.8,10.1 -2.1,15.2 -0.1,1.7 -0.3,3.4 -0.4,5.1 0,0.3 -0.1,0.5 -0.2,0.8 -0.4,2.1 -1.9,2.7 -3.7,1.6 -1,-0.6 -1.8,-1.6 -2.4,-2.6 -1.6,-2.4 -2.6,-5.1 -3.5,-7.8 -2.1,-6.5 -2.7,-13.1 -2.4,-19.9 0.4,-6.7 1.5,-13.3 3.5,-19.8 0.1,-0.2 0.1,-0.3 0,-0.5 -0.1,-0.1 -0.3,0 -0.4,0.1 -3.8,2.8 -8.1,4.9 -12.4,6.8 -1.9,0.9 -3.9,1.7 -5.8,2.6 -1.7,0.8 -3.3,1.7 -4.7,2.9 -3.3,2.8 -4.8,6.3 -4.4,10.6 0.2,2.2 0.8,4.3 1.7,6.3 2.3,4.7 6.3,7.3 11.4,8.1 1.4,0.2 2.8,0.3 4.2,0 0.3,-0.1 0.7,-0.2 1,-0.3 0.2,-0.1 0.5,-0.1 0.7,0 0.3,0.1 0.6,0.3 0.7,0.7 0.1,0.4 -0.2,0.6 -0.5,0.7 -1,0.5 -2,0.7 -3.1,0.7 -7.8,0.2 -14.8,-4.7 -17.2,-12.1 -0.6,-1.8 -0.9,-3.7 -0.9,-5.7 -0.1,-4.5 1.7,-8.1 5.2,-10.9 1.6,-1.3 3.4,-2.3 5.3,-3.2 2.9,-1.3 5.7,-2.6 8.6,-3.9 3.6,-1.6 7,-3.4 10.1,-5.8 0,0 0.1,0 0.1,-0.1 1.3,-0.9 2.2,-2 2.8,-3.6 1.2,-3.1 2.9,-6.1 4.9,-8.8 0.2,-0.3 0.5,-0.7 0.8,-0.9 0.6,-0.6 1.3,-0.6 2.1,-0.2 0.7,0.4 0.9,1.1 0.7,1.9 -0.3,1 -0.8,2 -1.4,2.9 -0.5,0.9 -0.9,1.8 -1.3,2.8 -1.8,5.2 -3.5,10.5 -4.7,15.9 -1.6,7.5 -2.1,15.1 -1.6,22.8 0.2,4 0.7,7.9 1.7,11.8 0.5,1.7 1.1,3.4 1.9,5 0.2,0.4 0.4,0.9 0.8,1.3 0.5,-0.9 0.5,-1.7 0.6,-2.6 0.3,-2.8 0.5,-5.5 0.8,-8.3 0.8,-7.4 2.5,-14.6 5.3,-21.6 0.5,-1.3 1.2,-2.6 2,-3.8 0.3,-0.5 0.6,-0.9 1,-1.3 1.5,-1.8 3.6,-1.1 4.6,0.1 0.6,0.8 1,1.7 1.2,2.7 0.5,1.8 0.7,3.6 0.8,5.5 0.4,4.3 0.6,8.5 1.1,12.8 0.1,0.7 0.2,1.4 0.3,2 0.3,-0.2 0.3,-0.5 0.3,-0.7 0.9,-9.7 3,-19.1 6,-28.4 2,-6.1 4.3,-12.1 7.2,-17.9 1,-2 2,-4 3.3,-5.8 0.6,-0.8 1.1,-1.5 1.9,-2.2 1.7,-1.5 3.8,-1.2 5.1,0.6 0.7,1 0.9,2 1,3.2 0.2,2.7 -0.1,5.3 -0.5,7.9 -1.3,7.5 -3,14.9 -4.7,22.3 -1.6,7.3 -3,14.5 -4,21.9 -1.1,8.8 -1.8,17.7 -1.5,26.6 0.1,1.6 0.2,3.3 0.6,4.9 -0.1,0.1 -0.1,0.3 0.2,0.6 z m 31.8,-62.2 c -0.1,-0.3 -0.1,-0.5 -0.1,-0.6 -0.7,-2 -1.7,-3.8 -3,-5.5 -0.4,-0.5 -0.9,-1.1 -1.4,-1.5 -0.7,-0.5 -1.2,-0.5 -1.8,0.2 -0.2,0.2 -0.4,0.5 -0.5,0.8 -1,2.1 -0.3,4.4 1.8,5.5 1.5,0.8 3.2,1 5,1.1 z m -17.6,16.7 c 2.1,-0.1 4.3,-1.6 4.8,-3.5 0.5,-1.7 0,-3.6 -1.3,-4.6 -0.7,-0.6 -1.1,-0.6 -1.6,0.1 -0.3,0.4 -0.6,0.8 -0.8,1.3 -0.9,2.1 -1.1,4.4 -1.1,6.7 z m 40.6,-22.3 c -0.5,-2.1 -2.2,-5.3 -3.5,-6.6 -0.5,-0.5 -1,-1 -1.7,-0.7 -0.7,0.3 -0.9,1 -1,1.7 0,0.2 0,0.5 0,0.7 0.1,1 0.6,1.7 1.3,2.4 1.4,1.3 3.1,1.9 4.9,2.5 z"
       id="path11"
       inkscape:connector-curvature="0" /><path
       d="m 140.6,142 c -1.5,0.6 -2.3,1.8 -2.7,3.3 -0.2,0.6 0.1,1.1 0.7,1.3 0.5,0.2 0.9,0 1.2,-0.7 0.1,-0.3 0.3,-0.7 0.4,-1 0.3,-0.5 0.6,-1 1.2,-1.3 1.2,-0.6 2.3,0 2.4,1.3 0.1,0.6 0,1.1 -0.1,1.7 -0.3,1.4 -1,2.6 -1.9,3.6 -2.4,2.9 -5.5,5.1 -8.8,7.3 -0.1,-0.3 -0.1,-0.5 -0.1,-0.6 -0.4,-2.6 -1.1,-5.2 -2.2,-7.6 -0.7,-1.5 -1.5,-2.8 -2.6,-4 -1.5,-1.6 -3.3,-2.5 -5.6,-2.4 -2.2,0.1 -4,1 -5.7,2.4 -1.2,1.1 -2.2,2.3 -3.1,3.7 -1.7,2.6 -3,5.4 -4.1,8.3 -2.7,7.3 -4.1,14.8 -4.6,22.5 -0.5,8 0.2,16 2.3,23.7 0.9,3.4 2.1,6.7 4.2,9.6 1,1.5 2.3,2.8 3.9,3.8 2.8,1.7 6.3,1.2 8.6,-1 1.1,-1 1.9,-2.3 2.7,-3.5 1.2,-1.9 2.2,-4 3.1,-6 3.1,-6.9 5.2,-14.1 7.3,-21.3 0.1,-0.3 0.1,-0.5 0.1,-0.8 0,-0.2 0,-0.3 -0.1,-0.4 -0.4,-0.8 -1.5,-0.6 -1.7,0.2 -0.4,1.3 -1.2,4.3 -2.9,9.4 -1.4,4.4 -3,8.7 -5,12.8 -1.2,2.7 -2.6,5.3 -4.6,7.5 -0.4,0.5 -0.9,0.9 -1.4,1.3 -1.6,1.1 -2.6,1 -4,-0.4 -0.5,-0.5 -0.9,-1 -1.2,-1.6 -1.1,-1.8 -2,-3.7 -2.6,-5.7 -1.9,-6 -2.9,-12.1 -3.3,-18.4 -0.4,-8 0.1,-16 1.6,-23.9 0.9,-4.5 2.1,-8.9 4.1,-13.1 0.7,-1.6 1.6,-3 2.7,-4.4 0.8,-1 1.8,-1.8 3.1,-2.3 1.6,-0.6 3,-0.4 4.2,0.8 0.9,0.9 1.6,2 2.3,3.2 1.5,2.8 2.2,5.9 2.6,9 0.1,0.5 0,0.8 -0.4,1.1 -0.7,0.5 -1.4,1 -2,1.7 -1.4,1.4 -2.6,2.9 -3.1,4.9 -0.4,1.4 -0.4,2.8 0.3,4.2 0.8,1.6 2.4,2.3 4.2,1.6 1.1,-0.4 1.9,-1.1 2.5,-2.2 1.4,-2.7 1,-7.9 0.9,-8.8 -0.1,-0.7 0.1,-1.1 0.7,-1.5 1.6,-1.1 3.2,-2.1 4.7,-3.2 2.1,-1.6 4.1,-3.3 5.6,-5.4 0.9,-1.3 1.5,-2.6 1.6,-4.2 0.2,-3.4 -2.6,-5.6 -5.4,-4.5 z m -11.5,27.8 c -0.9,0.5 -1.4,0.3 -1.8,-0.6 -0.4,-0.9 -0.4,-1.8 -0.1,-2.7 0.6,-2.3 2.2,-3.9 3.9,-5.4 0,5.7 0.2,7.5 -2,8.7 z"
       id="path19"
       inkscape:connector-curvature="0" /></g></svg>