<?xml version="1.0" encoding="utf-8"?>
<!-- Generator: Adobe Illustrator 22.0.1, SVG Export Plug-In . SVG Version: 6.00 Build 0)  -->
<svg version="1.1" id="Calque_1" xmlns="http://www.w3.org/2000/svg" xmlns:xlink="http://www.w3.org/1999/xlink" x="0px" y="0px"
	 viewBox="0 0 432 432" style="enable-background:new 0 0 432 432;" xml:space="preserve">
<style type="text/css">
	.st0{fill:#0E5A60;}
	.st1{fill:#828068;}
	.st2{fill:#7E2038;}
	.st3{fill:#1E4847;}
	.st4{fill:#AC847B;}
	.st5{fill:#FDECF0;}
	.st6{fill:#C5A36B;}
	.st7{fill:#D0AFA8;}
	.st8{fill:#9AA3AD;}
	.st9{fill:#9A8266;}
	.st10{fill:#91ACBA;}
	.st11{fill:#5C748E;}
	.st12{fill:#313F52;}
	.st13{fill:#96683E;}
	.st14{fill:#E4DDC2;}
	.st15{fill:#DED3C6;}
	.st16{fill:#E7E6E6;}
	.st17{fill:#BFD4DD;}
	.st18{fill:#FCE2DF;}
	.st19{fill:#CD8C56;}
	.st20{fill:#343434;}
	.st21{fill:#5D6F59;}
	.st22{fill:#C49253;}
	.st23{fill:#B88E5C;}
	.st24{fill:#E9A197;}
	.st25{fill:#72968E;}
	.st26{fill:#1B1B1B;}
	.st27{fill:#BD6581;}
	.st28{fill:#F2F2F2;}
	.st29{fill:#3D313B;}
	.st30{fill:#4E5254;}
	.st31{fill:#4B262E;}
	.st32{fill:#B093A5;}
	.st33{fill:#04707D;}
	.st34{fill:#A39BB2;}
	.st35{fill:#E3E1E0;}
	.st36{fill:#020203;}
	.st37{fill:#523F50;}
	.st38{fill:#81434D;}
	.st39{fill:#B58186;}
	.st40{fill:#563138;}
	.st41{fill:#E8B73C;}
	.st42{fill:#EC667A;}
	.st43{fill:#93A5A9;}
	.st44{fill:#A6394D;}
	.st45{fill:#6BC4CD;}
	.st46{fill:#3F6753;}
	.st47{fill:#66976A;}
	.st48{fill:#E3C8BD;}
	.st49{fill:#C8878D;}
	.st50{fill:#AE4043;}
	.st51{fill:#8B9976;}
	.st52{fill:#E7929D;}
	.st53{fill:#1E382B;}
	.st54{fill:#EF787A;}
	.st55{fill:#A81916;}
	.st56{fill:#E04747;}
	.st57{fill:#A5606F;}
	.st58{fill:#6C323C;}
	.st59{fill:#9C6434;}
	.st60{fill:#668CB9;}
	.st61{fill:#485B97;}
	.st62{fill:#F0C872;}
	.st63{fill:#D25215;}
	.st64{fill:#F1E0C6;}
	.st65{fill:#E1CBAC;}
	.st66{fill:#A9937F;}
	.st67{fill:#788A28;}
	.st68{fill:#A3AF32;}
	.st69{fill:#C1292E;}
	.st70{fill:#066938;}
	.st71{fill:#109F3D;}
	.st72{fill:#1861A9;}
	.st73{fill:#E00825;}
	.st74{fill:#F9B03D;}
	.st75{fill:#B4B4B4;}
	.st76{fill:#E52629;}
	.st77{fill:#DDC6A7;}
	.st78{fill:#746458;}
	.st79{fill:#754D24;}
	.st80{fill:#F39323;}
	.st81{fill:#A1AA40;}
	.st82{fill:#DBAD5D;}
	.st83{fill:#8EC045;}
	.st84{fill:#BA9BC9;}
	.st85{fill:#9B7574;}
	.st86{fill:#C68A89;}
	.st87{fill:#DF5564;}
	.st88{fill:#AA353D;}
	.st89{fill:#B75266;}
	.st90{fill:#DB6455;}
	.st91{fill:#975F74;}
	.st92{fill:#804F63;}
	.st93{fill:#FFFFFF;}
	.st94{fill:#CDCCCC;}
	.st95{fill:#A67D52;}
	.st96{fill:#DB8E98;}
	.st97{fill:#F3EED1;}
	.st98{fill:#CCD8B0;}
	.st99{fill:#47663C;}
	.st100{fill:#355129;}
	.st101{fill:#EEBCC5;}
	.st102{fill:#9A9999;}
	.st103{fill:#676767;}
	.st104{fill:#C69C6C;}
	.st105{fill:#4E3B3B;}
	.st106{fill:#D7ACAB;}
	.st107{fill:#CA5A69;}
	.st108{fill:#EC8A9F;}
	.st109{fill:#D4175B;}
	.st110{fill:#828BC5;}
	.st111{fill:#884C64;}
	.st112{fill:#F6B7BB;}
	.st113{fill:#F8D9C4;}
	.st114{fill:#F5CACD;}
	.st115{fill:#F6B1B3;}
	.st116{fill:#F9BFA1;}
	.st117{fill:#9BD2CC;}
	.st118{fill:#83B143;}
	.st119{fill:#959C57;}
	.st120{fill:#60643C;}
	.st121{fill:#C469A5;}
	.st122{fill:#9D8098;}
	.st123{fill:#9E1832;}
	.st124{fill:#BC1821;}
	.st125{fill:#AF5617;}
	.st126{fill:#DB6428;}
	.st127{fill:#FFFFFE;}
	.st128{fill:#141112;}
	.st129{fill:#EEC8A0;}
	.st130{fill:#CA1517;}
	.st131{fill:none;}
	.st132{fill:#B51918;}
	.st133{fill:#918A82;}
	.st134{fill:#878179;}
	.st135{fill:#F39BA4;}
	.st136{fill:#F0818B;}
	.st137{fill:#9F1915;}
	.st138{fill:#AB182A;}
	.st139{fill:#24612B;}
	.st140{fill:#114C25;}
	.st141{fill:#C7495D;}
	.st142{fill:#EBC164;}
	.st143{fill:#F6B6B8;}
	.st144{fill:#A9654E;}
	.st145{fill:#2D1B14;}
	.st146{fill:#CA3B63;}
	.st147{fill:#4A2C22;}
	.st148{fill:#E54967;}
	.st149{fill:#889F63;}
	.st150{fill:#808181;}
	.st151{fill:#8C633A;}
	.st152{fill:#CDAC81;}
	.st153{fill:#977D61;}
	.st154{fill:#423A30;}
	.st155{fill:#3D574A;}
	.st156{fill:#CCCDC9;}
	.st157{fill:#F1866C;}
	.st158{fill:#D8B67C;}
	.st159{fill:#432918;}
	.st160{fill:#D4A479;}
	.st161{fill:#E6C283;}
	.st162{fill:#3C3C3B;}
	.st163{fill:#C6C6C6;}
	.st164{fill:#F4A3A6;}
	.st165{fill:#B2B2B2;}
	.st166{fill:#1D71B8;}
	.st167{fill:#B4DCD3;}
	.st168{fill:#CEE7E1;}
	.st169{fill:#99D0C3;}
	.st170{fill:#3B3835;}
	.st171{fill:#E7CFB3;}
	.st172{fill:#DCC19F;}
	.st173{fill:#D4B188;}
	.st174{fill:#F3B68B;}
	.st175{fill:#F9C19B;}
	.st176{fill:#FCDCC8;}
	.st177{fill:#A68B74;}
	.st178{fill:#CCB295;}
	.st179{fill:#D2B89A;}
	.st180{fill:#3D3329;}
	.st181{fill:#966837;}
	.st182{fill:#A06E3B;}
	.st183{fill:#B57D44;}
	.st184{fill:#13110C;}
	.st185{fill:#D5D4D4;}
	.st186{fill:#9B6228;}
	.st187{fill:#844C16;}
	.st188{fill:#D01419;}
	.st189{fill:#4C2814;}
	.st190{fill:#B71918;}
	.st191{fill:#C11718;}
</style>
<g>
	<path class="st12" d="M185.9,109.4c0-2.7,0-5.3,0.3-7.9c0.4-3,1.4-5.8,2.7-8.5c2.4-5,5.6-9.5,9.5-13.6c2.9-3.1,5.9-6.1,8.8-9.1
		c1.1-1.1,2.1-2.3,3.2-3.3c0.5-0.6,1.1-1.1,1.8-1.5c0.9-0.6,1.9-0.8,2.9-0.4c0.7,0.3,1.4,0.6,2.1,1.1c1.2,0.8,2.5,1.6,3.6,2.6
		c3.3,2.8,6.7,5.6,9.9,8.6c6.8,6.3,10.7,14.1,12.2,23.2c0.2,1.5,0.2,3.1,0.3,4.6c0,0.5,0,1.1,0,1.7c0.2-0.2,0.4-0.3,0.5-0.4
		c5.1-7.3,12.1-12,20.4-14.7c4.1-1.3,8.2-2.5,12.3-3.7c3-0.9,6-2,9-2.9c0.6-0.2,1.2-0.4,1.8-0.5c1.4-0.2,2.2,0.3,2.8,1.5
		c0.2,0.4,0.3,0.8,0.4,1.1c1.5,5.6,3.3,11.2,5.1,16.7c0.9,2.8,1.6,5.6,2,8.5c0.4,3.2,0.5,6.4,0.2,9.6c-0.4,3.6-1,7.1-2.2,10.5
		c-0.4,1-0.8,2-1.2,3c-0.1,0.2-0.2,0.4-0.3,0.8c0.3-0.2,0.5-0.2,0.7-0.3c2.9-1.7,6.1-2.6,9.4-3.2c2.7-0.5,5.5-0.7,8.2-0.7
		c2.6,0,5.1,0.2,7.7,0.6c5.9,0.8,11.9,1.6,17.8,2.4c0.8,0.1,1.6,0.2,2.3,0.4c1.8,0.4,2.6,1.4,2.5,3.2c0,1.5-0.2,3.1-0.3,4.6
		c-0.1,1.4-0.2,2.9-0.3,4.3c-0.3,3.7-0.5,7.5-1.5,11.1c-2.5,8.9-7.1,16.5-14.3,22.4c-1.8,1.5-3.7,2.8-5.6,4.1
		c-0.3,0.2-0.6,0.4-1,0.7c0.3,0.1,0.5,0.2,0.7,0.2c9.3,1.8,17.4,5.9,24.7,11.9c1.8,1.5,3.5,3,5.2,4.5c3.5,3.1,7.4,5.8,11.6,8
		c1.2,0.6,2.3,1.2,3.5,1.9c0.6,0.3,1.1,0.7,1.7,1.1c1.3,1,1.5,2.2,0.7,3.6c-0.3,0.5-0.6,0.9-0.9,1.3c-3.8,4.2-7.6,8.4-11.4,12.6
		c-4.4,4.8-9.9,8-15.9,10.3c-3.8,1.5-7.7,2.3-11.8,2.7c-1.2,0.1-2.4,0.2-3.7,0.2c-0.2,0-0.4,0.1-0.7,0.1c0.3,0.2,0.5,0.4,0.7,0.5
		c4.7,3.4,8.5,7.6,11.2,12.7c2.4,4.5,4.4,9.1,5.6,14.1c1.5,6.2,2.9,12.5,4.3,18.7c0.1,0.4,0.1,0.7,0.1,1.1c0.1,1.3-0.5,2.4-1.7,3
		c-0.7,0.4-1.5,0.7-2.3,0.9c-4.4,1.2-8.9,2.4-13.3,3.5c-2.9,0.7-5.8,1.2-8.7,1.6c-5,0.7-9.9,0.1-14.6-1.4c-3-0.9-5.8-2.2-8.4-3.8
		c-0.2-0.1-0.5-0.3-0.9-0.5c0.1,0.3,0.1,0.5,0.2,0.7c1.6,3.9,2.4,8,2.7,12.2c0.3,4.2,0.1,8.4-0.6,12.6c-0.7,5-1.5,9.9-2.2,14.8
		c-0.4,2.5-0.6,5-0.8,7.6c-0.1,0.9-0.2,1.7-0.4,2.6c-0.4,1.8-1.8,2.5-3.5,1.8c-1-0.4-2-1-3-1.5c-5.1-2.5-10.4-4.4-15.7-6.1
		c-2.3-0.7-4.6-1.5-6.8-2.3c-4-1.5-7.7-3.8-11-6.5c-3-2.5-5.9-5.1-8.3-8.3c-0.1-0.1-0.1-0.1-0.3-0.2c-0.1,0.1-0.1,0.2-0.1,0.3
		c-0.4,3.5-1.3,6.9-2.7,10.2c-1.8,4.5-4.3,8.7-7.4,12.5c-3,3.7-6.2,7.4-9.3,11c-2.6,3-5.1,6.1-7.6,9.2c-0.3,0.4-0.7,0.8-1,1.2
		c-1.1,1-2.4,1-3.5,0c-0.3-0.3-0.6-0.6-0.8-0.9c-3.5-4.7-7.6-9-11.9-13c-2.6-2.5-5-5.1-7.3-7.9c-4.5-5.6-7-12-7.9-19.1
		c-0.1-0.5-0.1-0.9-0.1-1.6c-0.2,0.2-0.3,0.3-0.4,0.4c-2.1,3.9-5.1,6.9-8.6,9.6c-6.3,4.8-13.3,8-20.9,10.1
		c-4.4,1.2-8.9,2.4-13.2,3.9c-0.4,0.2-0.9,0.2-1.4,0.3c-1.1,0.1-1.9-0.4-2.3-1.4c-0.2-0.6-0.4-1.2-0.4-1.8
		c-0.4-6.1-2.2-11.8-4.1-17.6c-1-3.1-1.9-6.2-2.4-9.4c-0.9-5.9-0.3-11.5,2.1-17c0.7-1.7,1.6-3.2,2.5-4.8c0.1-0.1,0.1-0.3,0.2-0.6
		c-0.4,0.2-0.6,0.3-0.9,0.4c-4.4,2.5-9,4-14,4.5c-1.3,0.1-2.7,0.3-4,0.3c-3.8,0.1-7.5-0.4-11.2-1.2c-3.7-0.8-7.3-1.8-11-2.6
		c-2.2-0.5-4.4-0.8-6.5-1.2c-0.2,0-0.5-0.1-0.7-0.1c-1.5-0.2-2.2-1.2-2-2.7c0.1-1,0.3-1.9,0.6-2.9c0.7-3.3,1.1-6.6,1.3-9.9
		c0.3-4.2,0.8-8.4,2-12.5c1.1-3.8,2.8-7.3,5.3-10.4c3.3-4.2,7-8,11.4-11.1c1.2-0.8,2.4-1.5,3.6-2.3c-0.3-0.3-0.6-0.1-0.9-0.1
		c-3,0-5.9-0.2-8.9-0.8c-5.5-1.1-10.5-3.5-15.1-6.6c-2.9-2-5.5-4.2-8.1-6.5c-4.1-3.8-8.1-7.5-12.2-11.3c-1.3-1.2-1.4-2.3-0.6-3.8
		c0.2-0.4,0.5-0.9,0.8-1.2c2.4-3.1,4.8-6.2,7.3-9.2c2.8-3.4,5.9-6.4,9.6-8.8c3.3-2.1,7-3.4,10.8-4.4c3.2-0.8,6.4-1.3,9.7-1.6
		c2.4-0.2,4.9-0.4,7.3-0.3c0.2,0,0.3,0,0.7-0.1c-0.4-0.2-0.7-0.3-0.9-0.5c-3.3-1.7-6.4-3.7-9.2-6.1c-2.7-2.2-4.9-4.9-6.7-7.9
		c-2.6-4.1-4.3-8.6-5.6-13.3c-1.5-5.9-3-11.7-4.5-17.6c-0.6-2.4-0.1-3.6,2.2-4.7c1.3-0.6,2.6-1.2,4-1.7c3.9-1.3,7.8-2.6,11.9-3.5
		c5.3-1.2,10.6-1.9,16-1.6c6.6,0.4,12.8,1.9,18.6,5.3c0.1,0.1,0.2,0.1,0.5,0.2c-0.1-0.3-0.1-0.4-0.2-0.6c-2.3-4.4-3.5-9-4-13.9
		c-0.4-3.8-0.3-7.5,0.1-11.2c0.6-6,2-11.8,3.3-17.7c0.6-2.4,1.1-4.8,1.6-7.2c0.1-0.3,0.1-0.6,0.2-0.9c0.4-1.2,1.4-1.8,2.7-1.7
		c0.5,0.1,1.1,0.2,1.6,0.3c6.4,1.6,12.7,3.3,18.8,5.8c2.9,1.2,5.8,2.4,8.6,3.7c5.3,2.5,9.6,6.2,13.1,10.9c0.8,1.1,1.6,2.2,2.4,3.4
		C185.6,109,185.7,109.2,185.9,109.4z M180.5,217.7c0.1,1,0.2,3.1,0.6,5.1c1,5.2,2.7,10.1,6.2,14.3c1.1,1.4,2.3,2.7,3.5,4
		c2.8,2.9,6.2,5,9.7,6.8c2.6,1.3,5.4,2.2,8.3,2.4c2.5,0.2,5,0.2,7.5,0.3c0.1,0,0.2,0,0.3,0c3.2-0.4,6.4-1,9.4-2
		c5.3-1.7,10.1-4.3,14-8.3c3.3-3.3,5.7-7.2,7.4-11.5c1.8-4.6,2.9-9.4,2.8-14.4c0-3.2-0.5-6.3-1.3-9.4c-1.9-7.4-6-13.2-12.7-17
		c-2.6-1.5-5.3-2.9-8.1-4c-4.6-1.9-9.4-2.9-14.3-2.8c-2.5,0.1-5,0.4-7.5,0.8c-10.4,1.8-17.5,7.9-22,17.2
		C181.6,204.6,180.6,210.6,180.5,217.7z M234.6,165.5c0.1-0.1,0.2-0.1,0.2-0.2c0.1-0.2,0.2-0.4,0.3-0.6c2.2-6,3.4-12.3,3.7-18.7
		c0.3-4.8-0.3-9.6-1.5-14.3c-0.5-1.9-1-3.9-1.8-5.7c-0.5-1.1-1.1-2.1-2-3c-3.3,2.3-6.5,4.7-9.2,7.7c-1.6,1.8-2.9,3.8-3.9,6
		c-1.3,2.7-1.9,5.5-2.5,8.3c-0.1,0.7,0,1.1,0.6,1.6c2.9,2.2,5.4,4.7,7.6,7.6c2.6,3.5,5.2,7,7.8,10.5
		C234.2,164.9,234.4,165.2,234.6,165.5z M91.7,144.7c0.3,0.3,0.5,0.5,0.6,0.7c1.4,1.6,2.7,3.3,3.5,5.3c0.6,1.5,1.2,3.1,1.8,4.6
		c0.7,1.8,1.3,3.7,1.9,5.5c0.8,2.2,1.8,4.4,3.1,6.4c1.9,2.9,4.4,5.3,7.7,6.6c0.2,0.1,0.5,0.2,0.8,0.2c2.3-10.4,6.6-19.5,14.8-26.5
		c-3.9-2.3-8-3.8-12.6-3.4c-2.8,0.2-5.7,0.5-8.5,0.6c-2.4,0.1-4.7,0.2-7.1,0.2C95.8,144.9,93.8,144.7,91.7,144.7z M175.1,257.5
		c-6.2-1.3-12.2-2.8-17.7-6c-0.1,0.1-0.3,0.2-0.4,0.3c-2,1.8-4,3.6-6,5.5c-1.9,1.8-3.4,3.9-4.8,6.1c-2.4,4-3.5,8.5-3.6,13.1
		c0,1.1,0.1,2.2,0.1,3.3c0.3,0,0.6,0.1,0.8,0.1c1.7-0.2,3.4-0.3,5-0.8c11.8-3.2,20.6-10.4,26.3-21.2
		C175,257.9,175,257.7,175.1,257.5z M159.4,206.1c-1.6-3.9-2.7-7.7-3.4-11.6c-0.7-3.9-1.3-7.8-1.2-11.7c-0.1-0.1-0.2-0.1-0.3-0.1
		c-0.2-0.1-0.4-0.1-0.5-0.2c-4-1-8-1.8-12.1-2c-2.7-0.1-5.3,0-7.9,0.8c-3.1,0.9-6.1,1.9-8.9,3.5c-0.3,0.2-0.6,0.3-0.8,0.5
		c0.1,0.1,0.1,0.2,0.1,0.3c2.9,3.2,5.9,6.2,9.2,8.9c3,2.5,6.5,4.4,9.9,6.2c4.3,2.3,8.9,4.1,13.7,5
		C157.9,205.9,158.5,206,159.4,206.1z M271.3,227.9c0.2,0.3,0.3,0.6,0.4,0.9c1.5,2.9,2.7,5.8,3.6,8.9c1,3.4,1.7,6.9,2.1,10.5
		c0.1,0.7,0.3,1.1,1,1.3c2.2,0.6,4.3,1.4,6.5,2c2.6,0.6,5.2,0.9,7.9,0.6c3.8-0.5,7.3-2,10.5-4c1-0.7,2.1-1.4,3.1-2.1
		C296.1,233.3,282.6,228.1,271.3,227.9z M286.4,151.2c-0.9,0.2-1.6,0.4-2.4,0.6c-5.3,1.4-10.3,3.7-15.3,6.2
		c-5.8,2.9-10.1,7.3-13.8,12.6c-0.2,0.3-0.4,0.6-0.6,1c8.1,0.8,15.9,2.7,23.1,6.3c2-1.8,3.9-3.7,5.5-5.9c2.9-3.9,4.3-8.3,4.2-13
		c0-1.7-0.3-3.4-0.4-5C286.8,153.1,286.6,152.2,286.4,151.2z M113.6,261.6c-0.9,0.7-1.7,1.2-2.5,1.8c-3,2.2-5.5,4.9-7.7,7.9
		c-1.9,2.6-3.4,5.4-4.7,8.3c-1.5,3.3-3.1,6.4-5.2,9.3c-0.1,0.1-0.1,0.2-0.2,0.4c0.2,0,0.4-0.1,0.5-0.1c3.5-1,7.1-1.1,10.7-1.1
		c2.9,0,5.8,0.1,8.7,0.2c5,0.1,9.7-1.2,14.3-3.1c0.2-0.1,0.3-0.2,0.6-0.4c-3.6-3.1-6.7-6.4-9.1-10.4
		C116.7,270.4,114.8,266.2,113.6,261.6z M229.7,103.6c0-0.4,0-0.6,0-0.8c-0.2-2.8-0.8-5.5-2.2-8c-1-1.8-2.1-3.6-3.3-5.4
		c-4-5.9-7.6-12-10.4-18.5c-0.1-0.1-0.1-0.2-0.3-0.5c-0.3,0.9-0.4,1.8-0.7,2.5c-1.2,3.7-3,7-5.1,10.2c-1.6,2.3-3.1,4.7-4.6,7.1
		c-1.7,2.8-2.9,5.7-3.4,9c-0.1,1-0.2,2-0.3,3.1c5.1-2,10.1-3,15.4-2.9C220,99.6,225,100.9,229.7,103.6z M194.7,161.4
		c4.8-7,10.4-12.9,17.4-17.4c-2.2-9.2-7.5-16-15.8-20.5c-1,1.4-1.8,2.9-2.4,4.5c-1.6,3.9-2.3,7.9-2.6,12.1
		c-0.3,4.2-0.1,8.4,0.7,12.6C192.5,155.7,193.4,158.5,194.7,161.4z M176.6,172c-0.2-0.3-0.3-0.5-0.4-0.7c-1.5-1.8-2.8-3.7-4.4-5.4
		c-4.8-5.3-10.7-8.8-17.6-10.6c-3.1-0.8-6.1-1.4-9.2-2.2c-0.5-0.1-1-0.2-1.5-0.3c0.9,11.2,6.2,19.7,15.1,26.2
		C164.2,175.6,170.2,173.5,176.6,172z M195.8,307.6c0.2-0.1,0.3-0.1,0.4-0.2c1.7-1.2,3.4-2.4,5.1-3.7c3.3-2.5,5.7-5.7,7.4-9.4
		c1.5-3.3,2.5-6.7,3.3-10.3c0-0.1,0-0.3,0-0.3c-2.1-1.2-4.2-2.4-6.2-3.6c-1.9-1.3-3.8-2.6-5.6-4.1c-1.8-1.5-3.3-3.2-5-4.9
		c-0.2,0.7-0.4,1.3-0.6,1.9c-1.5,4.9-3,9.7-3.4,14.9c-0.2,2.9-0.2,5.7,0.4,8.5c0.7,3.6,2.1,6.9,3.6,10.2
		C195.4,307,195.6,307.3,195.8,307.6z M101.9,224.4c-1.1-6.4-0.8-12.6,1.3-18.8c-1.8-0.6-3.4-1.2-5.1-1.6c-2.5-0.6-5-0.5-7.4,0.3
		c-2.2,0.7-4.4,1.7-6.3,3c-1.9,1.3-3.8,2.6-5.7,4c-2.4,1.8-4.9,3.6-7.7,4.8c-0.1,0-0.1,0.1-0.3,0.2c0.2,0.1,0.3,0.2,0.4,0.2
		c3.1,1,6,2.5,8.8,4.2c1.9,1.1,3.9,2.2,5.9,3.1c2.6,1.2,5.3,1.9,8.1,2C96.7,225.9,99.3,225.4,101.9,224.4z M234.8,310.4
		c0.1-0.1,0.1-0.1,0.2-0.1c0.1-0.2,0.2-0.4,0.3-0.7c1-2.2,1.4-4.5,1.6-6.8c0.3-3.5,0.6-7,0.1-10.5c-0.8-6.3-2.8-12.2-6.1-17.6
		c-0.1-0.2-0.3-0.4-0.4-0.6c-1.9,2-3.6,4-5.5,5.9c-1.9,1.9-4,3.5-6.4,5c0.3,2,0.6,4,1,5.9c0.7,3.5,1.7,7,3.3,10.2
		C225.4,306.2,229.6,308.9,234.8,310.4z M154.1,247.3c-0.3-3.8,0-7.5,0.6-11.2c0.6-3.7,1.6-7.4,2.9-11.1c-6.8,1-12.6,4-18.1,7.9
		c-5.1,3.6-9.1,8.2-12,13.9c1.1,0.2,2.1,0.4,3.2,0.6c3,0.6,5.9,1.3,8.9,1.6c4.7,0.5,9.3-0.1,13.8-1.5
		C153.7,247.5,153.9,247.4,154.1,247.3z M251.8,260.8c0.3,0.4,0.5,0.6,0.7,0.8c2,1.8,3.9,3.7,5.9,5.5c4.3,3.7,9.1,6.4,14.4,8.3
		c3.2,1.1,6.6,1.8,10,1.2c0.8-0.1,1.7-0.2,2.4-0.6c-1.7-8.5-4.6-16.3-11.3-22.1C267.1,258,259.5,259.3,251.8,260.8z M179.7,171.3
		c2.5-0.3,5-0.5,7.5-0.8c-0.1-0.3-0.2-0.4-0.3-0.6c-0.8-1.4-1.6-2.8-2.4-4.1c-2.6-4.6-5.9-8.6-9.6-12.3c-3.6-3.6-7.8-6.4-12.5-8.4
		c-3.4-1.4-6.9-2.1-10.6-2.1c-2.5,0-5,0.1-7.5,0.2c-0.8,0-1.5,0.1-2.3,0.4c0.3,2.4,0.6,4.7,0.9,6.9c1.9,0.2,3.6,0.4,5.4,0.6
		c3.3,0.5,6.6,1.2,9.8,2.3c6.1,2.1,11.3,5.6,15.8,10.3C176.1,166,178.2,168.5,179.7,171.3z M215.6,356c0.1-0.2,0.2-0.3,0.2-0.5
		c1.4-4,3.4-7.8,5.6-11.4c2.3-3.8,4.6-7.5,6.9-11.3c1.4-2.4,2.7-4.8,3.5-7.5c0.1-0.3,0.2-0.6,0.3-1.1c-0.3,0.1-0.5,0.1-0.6,0.2
		c-3.3,1.4-6.7,2.4-10.2,3.2c-6.6,1.4-13.2,1.4-19.7-0.6c-0.2-0.1-0.4,0-0.7-0.1c0.4,1.6,1.1,3.1,1.8,4.5c1.7,3.4,3.8,6.6,6,9.8
		C211.8,345.7,214.3,350.5,215.6,356z M178,258.1c-0.2,0.6-0.4,1.2-0.7,1.8c-1.7,3.2-3.7,6.3-6.1,9c-4.6,5.2-10.3,8.8-16.7,11.3
		c-2.3,0.9-4.7,1.7-7.2,1.9c-1.4,0.1-2.7,0.1-4.2,0.2c0.1,2.6,0.5,5.3,0.6,8c0.4-0.1,0.8-0.2,1.1-0.3c4.5-1.2,8.9-2.5,13.4-3.7
		c3.3-0.9,6.5-1.8,9.5-3.3c1.7-0.8,3.3-1.7,4.7-2.8c5.1-3.7,8.3-8.8,10.8-14.5c1-2.2,1.9-4.5,2.8-6.8c0.1-0.2,0.2-0.5,0.2-0.7
		C183.5,258.3,180.7,258.2,178,258.1z M237.6,311.3c0.1,0.1,0.1,0.1,0.1,0.2c1.7,0.6,3.3,1.3,5,1.8c0.6,0.2,1,0,1.2-0.7
		c1.3-4.2,2.7-8.3,4-12.5c0.8-2.4,1.4-4.7,1.5-7.2c0.2-3.4-0.3-6.7-1.2-10c-1.1-3.7-2.8-7.1-4.7-10.5c-0.4-0.8-0.9-1.5-1.4-2.2
		c-1.6-2.3-3.1-4.7-4.7-7c-0.1-0.2-0.3-0.4-0.5-0.7c-1.1,3.3-2.9,6-4.7,8.7c0.8,1.3,1.7,2.5,2.4,3.8c2,3.4,3.3,7.1,4.3,10.9
		c0.7,2.7,1.2,5.4,1.3,8.1c0.1,3.2-0.1,6.4-0.5,9.5c-0.3,2.7-0.9,5.3-2.3,7.7C237.6,311.2,237.6,311.3,237.6,311.3z M251.1,154.7
		c0.2-0.2,0.3-0.3,0.4-0.3c1.6-1.8,3.4-3.4,5.3-4.9c3.9-3.2,8.3-5.3,13.2-6.5c3.3-0.8,6.7-1.1,10-1.5c1.3-0.2,2.6-0.4,3.9-0.6
		c-0.1-0.2-0.2-0.3-0.3-0.3c-12.5-6.4-25-12.9-37.3-19.7c-0.1,0-0.2,0-0.4,0c0.2,0.3,0.3,0.6,0.5,0.8c1,1.7,2.1,3.4,3.1,5.1
		c2.5,4.3,3.8,8.9,3.7,13.9c0,4.4-0.8,8.8-2,13C251.3,153.9,251.2,154.2,251.1,154.7z M215.1,143c0.1,0,0.1,0,0.2,0
		c0.2-0.7,0.3-1.3,0.5-2c1.4-5.7,3.9-10.6,8.2-14.7c1.7-1.7,3.7-3.1,5.6-4.5c2.1-1.5,4.1-3,6.1-4.5c0.2-0.2,0.4-0.4,0.6-0.6
		c-0.4-0.1-0.6-0.2-0.8-0.2c-2.2-0.2-4.3-0.6-6.5-0.7c-4.2-0.2-8.4-0.3-12.6-0.3c-4.4,0-8.8,0-13.2,0.1c-3.8,0.1-7.6,0.4-11.3,0.6
		c-0.1,0-0.3,0.1-0.5,0.1c0.2,0.2,0.4,0.4,0.5,0.5c1.3,0.9,2.5,1.9,3.9,2.8c1.7,1.1,3.4,2.2,5.1,3.3c2.7,1.8,5.2,3.8,7.2,6.2
		c3.2,3.8,5.3,8.1,6.7,12.8C214.9,142.3,215,142.6,215.1,143z M239.8,260.6c0.2,0.4,0.3,0.6,0.4,0.8c1.3,2,2.6,4.1,4,6
		c5.1,7,11.4,12.6,18.9,16.9c4.7,2.7,9.8,3.4,15.1,3.1c2.5-0.2,5-0.3,7.5-0.5c0.7-0.1,1.5-0.1,2.3-0.2c-0.7-2.7-1.4-5.3-2.1-7.9
		c-0.2,0-0.3,0-0.3,0.1c-2.8,1.4-5.7,1.6-8.7,1.1c-3.8-0.6-7.4-1.9-10.9-3.7c-7-3.7-13-8.6-17.8-15.1
		C245.6,261.5,242.8,261.4,239.8,260.6z M281.4,125.5c0.2-0.2,0.2-0.2,0.2-0.3c0.9-2.8,1.7-5.7,1.7-8.7c0.1-3.6,0-7.2-0.1-10.8
		c-0.1-3.8,0.1-7.6,0.8-11.3c0.1-0.5,0.2-1,0.3-1.5c0.1-0.5,0.2-1,0.3-1.5c-2,2.6-4.5,4.4-7.2,6.1c-1.4,0.9-2.9,1.6-4.3,2.4
		c-1.4,0.8-2.9,1.6-4.3,2.4c-3.7,2.3-6.7,5.3-8.8,9.2c-0.1,0.3-0.3,0.5-0.5,0.9C268.3,114.5,275.5,118.8,281.4,125.5z M318.7,239.2
		c2-1.5,3.6-3.3,5.1-5.4c3.6-5.2,5.6-11,5.6-17.4c0-10.6-4.9-18.7-13.4-24.8c0,0.2-0.1,0.3,0,0.4c0.3,3.3,0.6,6.7,0.8,10
		c0.2,3.3,0.4,6.7,0.6,10c0.1,2.5,0.3,4.9,0.4,7.4c0.2,3.6,0.5,7.2,0.7,10.9C318.5,233.2,318.6,236.1,318.7,239.2z M290.8,284.8
		c0.2-0.4,0.4-0.6,0.5-0.8c1-1.9,2.1-3.8,3.1-5.7c3-5.1,6.1-10.1,9.1-15.2c3.2-5.5,6.4-11.1,9.6-16.6c0.2-0.3,0.3-0.6,0.4-0.9
		c-0.4,0-0.7,0.1-1,0.3c-2.2,1.4-4.5,2.8-6.7,4.3c-1.7,1.1-3.4,2.2-5.3,3c-2.3,1.1-4.8,1.8-7.3,2.2c-3.2,0.4-6.4,0.1-9.6-0.7
		c-1.9-0.5-3.7-1.1-5.6-1.7c-0.3-0.1-0.5-0.4-0.8,0c0.1,0.1,0.2,0.2,0.3,0.3c4.7,4.7,7.8,10.3,9.5,16.7c1.2,4.7,2.4,9.4,3.5,14.1
		C290.7,284.3,290.7,284.4,290.8,284.8z M337.6,289.5c0,0,0.1-0.1,0.1-0.1c-0.2-0.3-0.3-0.5-0.5-0.8c-0.9-1.6-1.9-3.1-2.7-4.7
		c-1.4-2.7-2.8-5.5-4.2-8.2c-2.6-4.9-6-9.3-10.5-12.8c-0.2-0.1-0.4-0.3-0.7-0.5c-2.1,8.3-6.9,14.8-13.1,20.4
		c1.1,0.6,2.2,1.1,3.2,1.7c3.3,1.7,6.9,2,10.6,2.2c2.3,0.1,4.7,0.1,7,0.3c2.8,0.2,5.5,0.6,8.2,1.6
		C335.9,288.9,336.7,289.2,337.6,289.5z M304.8,186c-0.9-0.3-1.7-0.5-2.5-0.8c-4.1-1.3-8.3-2.4-12.6-2.6c-3.2-0.1-6.3,0.2-9.4,1.1
		c-0.6,0.2-0.7,0.4-0.8,1c-0.2,1.6-0.4,3.1-0.6,4.6c-0.9,5.5-2.7,10.8-5.3,15.8c-0.1,0.2-0.2,0.4-0.3,0.7c0.2,0,0.3,0.1,0.4,0
		c0.2,0,0.3,0,0.5-0.1c4.4-0.9,8.6-2.2,12.5-4.4c5.8-3.2,10.8-7.4,15.3-12.3C302.9,188.1,303.8,187.1,304.8,186z M149.2,122.3
		c2.8-3,6-5.3,9.7-7.1c3.6-1.7,7.4-2.9,11.4-3.6c-0.1-0.3-0.2-0.4-0.3-0.6c-1.3-1.6-2.5-3.3-3.8-4.9c-1.3-1.5-2.8-2.8-4.6-3.9
		c-2.2-1.4-4.4-2.6-6.8-3.5c-3.4-1.4-6.8-2.9-10-5c-0.1-0.1-0.2-0.1-0.3-0.1c0,2.9,0,5.9,0,8.8c0,3.4,0.1,6.8,0.7,10.2
		c0.6,3.1,1.5,6.1,3.3,8.8C148.8,121.8,148.9,122,149.2,122.3z M178,152c0-0.3,0-0.4,0-0.4c-0.7-1.9-1.1-4-1.4-6
		c-0.4-3-0.4-6,0.2-9.1c0.8-3.8,2.1-7.4,3.9-10.9c1.1-2.2,2.2-4.4,3.3-6.6c0.1-0.3,0.4-0.5,0.2-0.9c-0.3,0.1-0.5,0.2-0.7,0.4
		c-9.3,4.6-18.5,9.5-27.6,14.4c-3.8,2-7.5,4.2-11,6.6c-0.2,0.1-0.3,0.3-0.5,0.5c0.7,0,1.2,0,1.7,0c2.3,0,4.6-0.1,6.8,0
		c2.6,0,5.1,0.5,7.6,1.3c6.4,2,11.8,5.4,16.6,10.1C177.4,151.4,177.6,151.7,178,152z M303.4,149.3c5.9,5.9,10.3,12.5,12.4,20.6
		c0.2-0.2,0.4-0.3,0.5-0.4c3.6-3.5,6.7-7.5,8.9-12c1.4-2.8,2.6-5.6,3.8-8.5c0.9-2.1,1.8-4.3,3.1-6.2c0.1-0.1,0.1-0.2,0.1-0.4
		c-0.3,0.1-0.5,0.1-0.7,0.2c-1.8,0.6-3.6,0.9-5.4,1.1c-3.2,0.3-6.5,0.6-9.7,0.9c-2.5,0.3-5,0.6-7.3,1.5
		C307,146.8,305.1,147.8,303.4,149.3z M154.8,179.7c0,0,0-0.1,0.1-0.1c-0.9-0.8-1.8-1.5-2.6-2.3c-5.1-4.9-9-10.6-10.6-17.7
		c-0.9-4.2-1.6-8.3-2.1-12.6c0-0.2-0.1-0.4-0.2-0.6c-6.8,13-14.3,25.5-21.1,38.3c0,0,0.1,0,0.1,0c0.9-0.6,1.9-1.1,2.8-1.7
		c4.8-3.2,10.1-5,15.9-5.3c4.2-0.3,8.3,0,12.4,0.8C151.3,178.9,153,179.3,154.8,179.7z M307.6,186.7c-0.6,0.9-1.1,1.7-1.7,2.5
		c-5.2,6.8-11.7,12.1-19.4,15.8c-4.7,2.2-9.6,3.9-14.9,4c-0.2,0-0.5,0.1-0.6,0.3c-1.7,2.3-3.7,4.2-5.7,6.1c-0.1,0.1-0.2,0.3-0.4,0.5
		c0.3,0.1,0.5,0.1,0.7,0.2c3.6,0.4,7.2,0.3,10.8-0.2c4.5-0.6,8.9-1.9,13.1-3.5c4.2-1.6,8.2-3.8,11.6-6.8c3.1-2.8,5.6-6,7.1-10
		c0.9-2.2,1.9-4.4,2.8-6.6c0.2-0.4,0.3-0.8,0.5-1.3C310.2,187.2,308.9,187.1,307.6,186.7z M124.7,246.3c0.4-1,0.7-1.8,1.2-2.7
		c1.6-3.1,3.6-6,6.1-8.5c4.6-4.6,9.9-8.1,15.9-10.5c2.9-1.2,6-2.1,9.2-2.1c0.6,0,1.1-0.1,1.6-0.2c0.5-1,1-2,1.6-2.9
		c0.6-1,1.2-1.9,1.9-2.9c-0.3,0-0.6,0-0.8,0c-2.1,0.1-4.1,0.2-6.2,0.5c-4.7,0.5-9.2,1.6-13.7,2.9c-4,1.2-7.9,2.9-11.4,5.3
		c-4.2,2.8-7.5,6.3-9.4,11.1c-0.2,0.6-0.5,1.3-0.7,1.9c-0.8,2.3-1.4,4.7-2.5,6.9c0,0,0,0.1,0,0.3C119.9,245.6,122.3,246,124.7,246.3
		z M147.3,292.3c12.2,6.2,24,12.9,35.8,19.9c-0.2-0.5-0.3-0.7-0.4-1c-0.6-1.3-1.2-2.6-1.8-3.8c-2.7-5.5-3.8-11.2-3.4-17.3
		c0.3-4,1-8,2-11.9c0.1-0.4,0.2-0.8,0.3-1.2c-0.3,0.1-0.5,0.3-0.6,0.5c-3.4,4.2-7.6,7.3-12.6,9.4c-1.5,0.6-3,1.2-4.5,1.6
		c-3.4,0.9-6.8,1.8-10.3,2.6C150.3,291.4,148.9,291.9,147.3,292.3z M153.4,250.6c-0.1-0.1-0.2-0.1-0.2-0.1c-0.3,0.1-0.6,0.1-0.9,0.2
		c-5.7,1.7-11.4,1.9-17.2,0.7c-4.8-0.9-9.6-1.9-14.4-2.8c-0.9-0.2-1.9-0.3-3-0.5c0.3,0.5,0.5,0.7,0.7,1c0.6,0.9,1.2,1.8,1.8,2.7
		c3,4.7,6,9.4,9.1,14.1c3.7,5.8,7.3,11.6,10.5,17.7c0.1,0.1,0.2,0.2,0.3,0.4c0.1-0.2,0.1-0.3,0.1-0.4c0-0.2,0-0.4,0-0.7
		c-0.3-2.4-0.4-4.7-0.4-7.1c0-6,1.9-11.5,5.3-16.4c2.1-3.1,4.8-5.8,7.6-8.3C152.8,251.1,153,250.9,153.4,250.6z M241.7,174.8
		c2.8,3.8,3.7,7.8,2.4,12.3c0.4,0,0.7-0.1,1.1-0.1c1.6-0.3,3.2-0.5,4.8-0.2c2.8,0.5,4.8,2.1,6,4.6c0.2,0.4,0.3,0.7,0.5,1.1
		c4.5-1.8,17.2-10.4,19.1-12.8c-0.1-0.1-0.3-0.2-0.4-0.2c-4.2-1.8-8.5-3.2-12.9-4.1c-3-0.6-6.1-1.2-9.2-1.4c-3-0.2-5.9,0.1-8.9,0.5
		C243.4,174.5,242.6,174.6,241.7,174.8z M314.8,241.2c-0.2-0.3-0.4-0.5-0.6-0.7c-2.6-3-5.3-6-7.9-8.9c-2.4-2.7-4.9-5.2-7.7-7.4
		c-2.9-2.2-6-3.8-9.5-4.8c-2.4-0.7-4.9-0.8-7.4-0.9c-0.4,0-0.8,0-1.2,0.1c-4.8,1-9.5,1.3-14.4,0.8c-0.1,0-0.3,0-0.5,0
		c1.3,1.8,2.5,3.5,3.8,5.2c1,0,2-0.1,3.1-0.1c3.4,0.1,6.6,0.7,9.9,1.6c10.8,3.1,19.6,9,26.1,18.2c0.1,0.1,0.2,0.2,0.3,0.3
		c1-0.6,2-1.2,3-1.7C312.7,242.4,313.8,242,314.8,241.2z M288.8,216.3c0,0.1,0,0.1,0,0.2c0.3,0.1,0.5,0.2,0.8,0.2
		c3.8,0.9,7.4,2.6,10.6,4.9c2.8,2.1,5.4,4.5,7.7,7.1c2.4,2.7,4.8,5.5,7.2,8.3c0.2,0.2,0.5,0.5,0.8,0.8c0-1,0-1.8,0-2.7
		c-0.2-4.2-0.4-8.4-0.7-12.5c-0.1-1.8-0.2-3.6-0.3-5.4c-0.1-2.3-0.3-4.6-0.5-6.9c-0.1-2.1-0.2-4.2-0.3-6.4c-0.1-2.6-0.3-5.2-0.5-7.9
		c-0.1-1.1-0.1-2.2-0.2-3.3c-0.3,0.2-0.4,0.3-0.5,0.5c-0.4,0.9-0.7,1.7-1.1,2.6c-0.9,2-1.8,4-2.9,5.9c-2.9,4.7-7,8.2-11.7,11
		c-2.4,1.4-4.9,2.4-7.5,3.4C289.4,216.1,289.1,216.2,288.8,216.3z M192.8,164.5c-0.6-1.1-1.1-2.1-1.6-3.2c-2.3-5-3.1-10.3-3.3-15.8
		c-0.1-2.7,0-5.4,0.3-8.1c0.3-2.6,0.7-5.2,1.7-7.7c0.7-1.9,1.6-3.7,2.5-5.5c0.4-0.8,1-1.5,1.6-2.3c-0.7-0.5-1.4-1-2-1.5
		c-0.7-0.5-1.3-1.1-2-1.7c-0.6-0.5-1.1-1.3-1.9-1.6c-0.1,0.2-0.3,0.4-0.3,0.6c-1.4,3.1-2.9,6.2-4.3,9.4c-0.9,2.1-1.9,4.2-2.6,6.4
		c-1,2.8-1.6,5.7-1.5,8.6c0.1,3.2,0.4,6.4,1.6,9.4c1.2,3.4,2.6,6.7,4.7,9.7c0.8,1.1,1.5,2.3,2.1,3.5c0.8,1.4,1.6,2.8,2.4,4.2
		c0.1,0.2,0.3,0.4,0.4,0.6C191.3,167.8,192,166.2,192.8,164.5z M147.6,214.7c0-0.1,0-0.1,0-0.2c-1.2-0.3-2.4-0.5-3.6-0.9
		c-4.7-1.3-9.2-2.9-13.4-5.3c-4.8-2.8-8.8-6.5-12.3-10.8c-0.2-0.2-0.3-0.6-0.7-0.7c0,0.2,0,0.3,0,0.4c-0.1,4.3-0.1,8.7-0.2,13
		c-0.1,4.5-0.3,8.9-0.4,13.4c-0.1,4.3-0.2,8.6-0.4,12.8c0,0.2,0,0.5,0.1,0.7c0.3-0.5,0.5-1,0.7-1.5c1.4-3.6,3.3-7,6.2-9.7
		c2.9-2.7,6.2-5,9.8-6.7c3.7-1.8,7.6-2.9,11.5-3.9C145.7,215.2,146.7,215,147.6,214.7z M339.5,139.2c-0.2,0.2-0.4,0.2-0.5,0.3
		c-2.5,2.1-4.5,4.6-5.8,7.6c-0.4,1-0.9,2.1-1.3,3.1c-1.3,3.3-2.6,6.6-4.3,9.7c-2.8,5.1-6,9.9-10.8,13.4c-0.3,0.2-0.4,0.4-0.4,0.8
		c0.4,3.3,0.1,6.6-0.7,9.8c-0.1,0.2-0.1,0.4-0.1,0.8c0.2-0.1,0.4-0.1,0.4-0.2c2.3-1.6,4.7-3.2,6.9-4.9c6.9-5.4,11.6-12.4,14.2-20.7
		c1-3.3,1.3-6.8,1.6-10.2c0.2-2.3,0.4-4.6,0.6-6.9C339.4,140.9,339.5,140.1,339.5,139.2z M286.9,337.8c0-0.4,0-0.5-0.1-0.7
		c-0.6-2.7-0.9-5.5-1-8.3c-0.1-2.1-0.2-4.1-0.4-6.2c-0.4-5.2-2-10-4.5-14.5c-0.1-0.2-0.3-0.5-0.5-0.7c-0.3,0.2-0.5,0.4-0.7,0.6
		c-2.1,2-4.4,3.7-6.9,5.2c-3.1,1.8-6.3,3.1-9.7,4.1c-0.4,0.1-0.7,0.2-1.1,0.4c2.5,4.2,5.8,7.4,10,9.6c1.5,0.8,3.1,1.5,4.6,2.3
		c1.4,0.8,2.9,1.5,4.2,2.4c2.1,1.3,3.7,3.1,5.2,5C286.4,337.2,286.6,337.4,286.9,337.8z M239.2,172.4c0.3-0.4,0.5-0.7,0.6-0.9
		c5.1-8.4,8.6-17.4,9.8-27.2c0.4-3.4,0.3-6.9-0.7-10.2c-0.7-2.5-1.8-4.8-3.2-7c-1.9-3-3.7-6-5.6-9c-0.1-0.1-0.1-0.2-0.2-0.4
		c-1.5,1.3-2.8,2.5-4.2,3.7c1.7,1.3,2.6,3,3.3,4.9c1.7,4.6,2.7,9.4,3,14.3c0.4,6.6-0.5,13.1-2.3,19.5c-0.8,2.9-1.8,5.8-3.2,8.5
		C237.5,169.7,238.3,171,239.2,172.4z M187.4,314.1c2.1-1.6,4-3.2,6-4.8c-0.2-0.3-0.3-0.7-0.5-0.9c-1.3-2-2.2-4.2-3-6.4
		c-1.9-5.2-2.6-10.5-1.9-16c0.6-5.2,2.2-10.1,4.1-14.9c0.4-0.9,0.8-1.7,1.2-2.5c-1.6-2.4-3.2-4.8-4.8-7.2c-0.2,0.3-0.3,0.6-0.4,1
		c-3.3,8.5-6,17.2-7,26.3c-0.3,2.5-0.3,4.9,0,7.4c0.4,3.5,1.5,6.7,3,9.9c1.1,2.4,2,4.8,3,7.2C187.2,313.5,187.3,313.7,187.4,314.1z
		 M212.5,146.8c-0.1,0.1-0.2,0.1-0.3,0.2c-4.1,2.9-7.9,6.3-11.2,10.1c-3.5,4-6.5,8.4-8.8,13.3c-0.1,0.3-0.3,0.6-0.4,1
		c0.5,0,0.8,0,1.1,0c1.2,0,2.4,0.2,3.6,0.6c2.5,0.9,4.7,2.4,6.6,4.4c0.2,0.2,0.4,0.4,0.7,0.8c1.3-5.5,4.3-9.2,9.9-10.3
		C213.8,162.5,213.4,148.2,212.5,146.8z M281.7,290.6c-0.6,0.1-1.3,0.1-1.9,0.2c-2.5,0.2-5,0.3-7.5,0c-4.1-0.4-8-1.8-11.6-3.8
		c-3.7-2.1-6.9-4.8-10.1-7.6c-0.2-0.2-0.5-0.4-0.7-0.6c0,0.4,0,0.6,0.1,0.9c0.9,2.2,1.5,4.4,1.9,6.7c0.5,2.9,0.7,5.9,0.3,8.9
		c-0.3,2.3-0.9,4.5-1.6,6.7c-1,2.9-2,5.7-2.9,8.6c-0.1,0.2-0.1,0.5-0.2,0.8C259.4,305.1,270.7,298.1,281.7,290.6z M145.3,337.1
		c0.2-0.2,0.3-0.3,0.4-0.4c1.1-0.9,2.1-1.9,3.2-2.7c2.6-1.8,5.3-3.6,8-5.3c2.4-1.5,4.7-3.2,6.9-5c1.4-1.2,2.6-2.6,3.7-4.1
		c0.2-0.3,0.3-0.5,0.5-0.8c-7.2-2.4-13.4-6.3-18.9-11.6c-0.3,0.5-0.5,0.8-0.7,1.2c-1.4,2.9-2,6-2.1,9.3c-0.1,3.5-0.1,7-0.2,10.5
		c-0.1,2.7-0.2,5.4-0.7,8.1C145.3,336.4,145.3,336.7,145.3,337.1z M237.4,114.2c0-0.1,0.1-0.1,0.1-0.2c-0.2-0.3-0.4-0.6-0.7-0.9
		c-2.9-3.2-6.3-5.8-10.1-7.8c-3-1.5-6.1-2.4-9.4-2.7c-5.3-0.5-10.4,0.3-15.3,2.1c-4.4,1.6-8.2,4-10.9,7.9c-0.1,0.2-0.2,0.3-0.3,0.6
		c1.8-0.1,3.6-0.3,5.3-0.4c4.8-0.2,9.6-0.5,14.3-0.5c5.6-0.1,11.2,0.1,16.8,0.5c2.5,0.2,5,0.5,7.5,0.8
		C235.6,113.8,236.5,114,237.4,114.2z M251.3,171.3c0.3-1.3,0.9-2.5,1.7-3.7c3.2-4.6,7-8.5,11.9-11.4c3.9-2.3,8.1-4.2,12.4-5.8
		c2.1-0.8,4.3-1.5,6.6-1.8c0.8-0.1,1.5-0.1,2.3-0.2c0.1-1.7,0.3-3.3,0.4-5.1c-0.5,0.1-0.8,0.1-1.2,0.2c-1.5,0.3-3.1,0.6-4.6,0.8
		c-3,0.5-5.9,0.9-8.9,1.3c-4,0.6-7.7,2-11,4.3c-3.7,2.5-7,5.4-9.7,9c-1.9,2.6-3.6,5.4-5.1,8.2c-0.8,1.5-1.7,3-2.5,4.5
		c-0.1,0.2-0.2,0.4-0.3,0.7C245.9,172,248.5,171.7,251.3,171.3z M171.2,319.5c-0.5,0.8-0.9,1.5-1.4,2.2c-1.8,2.5-4,4.6-6.4,6.5
		c-3,2.3-6.3,4.3-9.5,6.3c-4.1,2.6-7.6,5.7-10.5,9.5c-0.1,0.2-0.2,0.3-0.4,0.6c0.3-0.1,0.4-0.1,0.6-0.2c2.6-0.8,5.1-1.7,7.7-2.4
		c4.2-1.3,8.4-2.5,12.4-4.2c5.2-2.3,9.9-5.3,14.1-9.1c2.4-2.2,4.3-4.9,5.6-7.9c0.1-0.3,0.2-0.5,0.4-0.9
		C179.4,320.5,175.3,320.3,171.2,319.5z M113.6,239.3c0.1,0,0.1-0.1,0.2-0.1c0-0.6-0.1-1.2-0.1-1.8c0-4.6,0.1-9.2,0.2-13.8
		c0.1-3,0.3-5.9,0.3-8.9c0.1-5.1,0.1-10.1,0.2-15.2c0-1.7,0.1-3.4,0.2-5.1c0-0.2,0-0.3,0-0.5c-0.1,0-0.1,0-0.2,0
		c-0.1,0-0.2,0.1-0.2,0.1c-3,2.2-5.3,5.1-6.8,8.5c-3.5,7.8-4,15.8-1.8,24c1.3,4.7,3.6,8.8,7.3,12.2
		C113.1,238.9,113.4,239.1,113.6,239.3z M241,258.4c0.9,0,1.6,0,2.4,0c2.7,0.1,5.3,0,7.9-0.5c2.7-0.5,5.5-1,8.2-1.6
		c3.9-0.8,7.7-2,11.4-3.6c0.4-0.1,0.8-0.2,1-0.6c-5.1-4.5-11.1-7.4-17.1-10.3c-0.8,0.5-1.5,1-2.3,1.5c-2.2,1.2-4.5,1.5-7,1.4
		c-1-0.1-1.9-0.2-2.9-0.2c0,0.1,0,0.2,0,0.3c0.7,2.1,1,4.3,0.8,6.5c-0.1,1.7-0.2,3.3-1.1,4.8C242,256.8,241.5,257.5,241,258.4z
		 M254.3,204.6c0.5,0.1,0.8,0.2,1.1,0.3c4.1,1.2,7.1,3.7,7.5,8.9c0,0.2,0.1,0.4,0.2,0.9c0.4-0.4,0.6-0.6,0.8-0.9
		c0.6-0.7,1.2-1.4,1.8-2c2.3-2.2,4-4.9,5.5-7.7c2.8-5.3,4.5-11,5.5-17c0.1-0.7,0.2-1.4,0.3-2.2c-0.3,0.1-0.5,0.1-0.7,0.2
		c-2.5,1.2-5.1,2.3-7.5,3.7c-3.9,2.2-7.6,4.7-11.7,6.6c0.3,1.6,0.1,3.3-0.3,4.9C256.4,202,255.5,203.4,254.3,204.6z M275,248
		c-0.2-1.1-0.4-2.1-0.6-3.1c-1-6.2-3-12-6-17.5c-1.6-2.9-3.3-5.7-5.5-8.2c-0.2-0.2-0.3-0.3-0.6-0.5c-2,3.5-4.9,5.5-8.7,6.6
		c1.7,2,2.6,4.2,3,6.6c0.5,2.4,0.7,4.8-0.3,7.2C262.7,242,268.6,245.4,275,248z M238.9,316.3c-1.5,0.1-2.7,0.3-4,0.3
		c-3.2,0-6.4-0.2-9.7-0.2c-3.1-0.1-6.1-0.2-9.2-0.2c-6.9,0.1-13.9,0.2-20.8,0.3c-1.3,0-2.6-0.1-3.8-0.1c-0.6,0-1.2-0.1-1.8,0.1
		c0.1,0.2,0.2,0.3,0.3,0.4c1.9,1.7,3.8,3.3,6,4.5c4.4,2.5,9.2,3.7,14.3,4.1c4.4,0.3,8.7-0.4,13-1.4c5.6-1.4,10.7-3.8,15.3-7.3
		C238.6,316.6,238.7,316.5,238.9,316.3z M90,288.6c0,0,0.1,0,0.1,0.1c0.2-0.3,0.3-0.5,0.5-0.8c1.9-3.2,3.6-6.5,5-9.8
		c1.4-3.1,3-6.1,5-8.9c3.1-4.4,7-8,11.8-10.5c0.1-0.1,0.2-0.2,0.4-0.3c0-0.2,0-0.3,0-0.5c-0.4-2.1-0.6-4.2-0.5-6.3
		c0.1-1.6,0.4-3.2,1.1-4.7c0.2-0.3,0.2-0.7,0.4-1.3c-0.6,0.1-0.9,0.1-1.2,0.3c-0.9,0.4-1.7,0.9-2.5,1.4c-4.9,3.2-8.9,7.2-12.5,11.8
		c-2,2.6-3.4,5.5-4.4,8.5c-1.2,3.6-1.7,7.4-2,11.1c-0.2,1.9-0.3,3.9-0.5,5.8C90.4,285.9,90.2,287.2,90,288.6z M215.1,284.6
		c-0.1,0-0.2,0-0.3,0c-0.1,0.3-0.2,0.6-0.3,0.9c-0.7,2.8-1.4,5.5-2.4,8.2c-1.9,4.9-4.6,9.1-8.8,12.4c-1.2,1-2.5,1.9-3.8,2.8
		c-1.8,1.3-3.7,2.7-5.6,4c-0.2,0.2-0.4,0.3-0.6,0.5c0.6,0.1,1.2,0.1,1.7,0.1c4.8-0.1,9.6-0.2,14.4-0.2c3.8,0,7.7,0,11.5,0.1
		c3.7,0.1,7.5,0.4,11.2,0.5c0.7,0,1.5,0,2.2,0c-0.2-0.2-0.3-0.3-0.5-0.3c-0.9-0.3-1.8-0.6-2.6-1c-5.6-2-9.6-5.8-12.1-11.3
		c-1.9-4.3-3-8.7-3.7-13.3C215.4,286.9,215.3,285.8,215.1,284.6z M188.7,319.4c0,0.4-0.1,0.6-0.1,0.8c0,2.1,0.2,4.3,0.5,6.4
		c1.1,6.4,3.7,12,7.9,17c2.1,2.5,4.4,4.9,6.8,7.2c3.3,3.2,6.5,6.4,9.2,10c0.1,0.1,0.2,0.2,0.5,0.4c-0.2-1.2-0.3-2.2-0.5-3.2
		c-0.8-4-2.4-7.6-4.4-11.1c-1.1-1.9-2.4-3.7-3.6-5.6c-1.8-2.8-3.6-5.6-5-8.6c-1-2.1-1.9-4.3-2.2-6.6c-0.1-0.5-0.3-0.7-0.7-0.9
		c-2.7-1.3-5.2-3-7.4-5.1C189.4,319.9,189.1,319.7,188.7,319.4z M160.6,208.9c-1.2-0.1-2.4-0.1-3.6-0.2c-1.2-0.2-2.3-0.4-3.5-0.7
		c-5.7-1.5-11-4-16.1-7.1c-6-3.6-10.9-8.4-14.9-14.1c-0.1-0.1-0.1-0.2-0.2-0.4c-2,1.3-4,2.3-5.9,3.6c0.3,0.4,0.5,0.6,0.7,0.9
		c2.2,2.4,4.4,4.8,6.6,7.2c2.9,3.1,5.9,6,9.6,8c1.7,0.9,3.5,1.7,5.3,2.5c5.7,2.3,11.5,3.7,17.6,4.2c1.6,0.1,3.3,0.2,5,0.3
		c0.6,0,1.2,0,1.9,0C162.3,211.6,161.4,210.2,160.6,208.9z M315.9,246.6c-0.2,0.3-0.3,0.4-0.4,0.6c-4.3,7.4-8.6,14.8-12.9,22.2
		c-2.7,4.6-5.6,9.2-8.5,13.7c-0.6,0.9-1.1,1.9-1.7,3c0.2,0,0.4,0,0.5,0c1.9-0.4,3.7-1,5.4-1.9c2.6-1.5,5-3.2,7.1-5.3
		c7.9-7.5,11.8-16.6,11.4-27.5C316.7,249.8,316.4,248.3,315.9,246.6z M157.1,183.5c0,0.9-0.1,1.8,0,2.7c0.4,5.5,1.4,10.8,3.1,16.1
		c1,3,2.2,6,3.9,8.7c0.3,0.5,0.6,0.9,1,1.4c0.1-0.2,0.2-0.2,0.3-0.3c1.7-3.2,4.3-4.9,7.8-5.7c0.6-0.1,1.2-0.3,1.9-0.4
		c-3.4-4.3-5.1-8.8-2.8-14.2C167.7,188.1,162.8,185.1,157.1,183.5z M212.5,281c0.8-3.3,1.9-12,1.1-15.9c-0.2-0.1-0.3-0.1-0.5-0.2
		c-1.8-0.3-3.3-1.2-4.7-2.4c-1.8-1.6-2.9-3.5-3.7-5.7c-0.1-0.3-0.2-0.6-0.3-0.9c-4.2,3.3-8.6,4.8-13.8,2.9
		C195.6,268.6,202.9,275.9,212.5,281z M286.5,139c-0.6-1.2-1-2.2-1.5-3.2c-1.1-2.1-2.6-4-4.1-5.9c-4.6-5.7-10.2-9.9-17.1-12.4
		c-3.5-1.3-7.1-1.9-10.8-2.4c-2.7-0.3-5.4-0.1-7.9,0.9c-0.2,0.1-0.4,0.2-0.7,0.3c0.4,0.2,0.6,0.4,0.9,0.5
		c7.4,3.9,14.7,7.9,22.1,11.8c6.3,3.3,12.7,6.3,18.7,10.2C286.1,138.9,286.2,138.9,286.5,139z M147.1,304.9
		c-2.6-3.1-4.6-6.5-5.8-10.5c-0.3,0.4-0.5,0.6-0.7,0.8c-1.6,2.2-2.9,4.5-4,7c-2.1,5-2.7,10.2-1.8,15.5c0.6,3.1,1.5,6.1,2.4,9.1
		c1.2,3.8,2.5,7.7,3.2,11.7c0.1,0.7,0.2,1.5,0.4,2.4c0.1-0.3,0.2-0.4,0.2-0.5c0.8-2.9,1.3-5.8,1.4-8.8c0.1-3.8,0.2-7.5,0.3-11.3
		c0.1-2.4,0.2-4.8,0.7-7.2C144.1,310.2,144.9,307.3,147.1,304.9z M289.1,138c0.1,0,0.2,0,0.2-0.1c0.1-0.2,0.2-0.4,0.4-0.6
		c1.4-2.5,2.4-5.1,3.3-7.8c0.8-2.6,1.2-5.4,1.5-8.1c0.3-2.7,0.3-5.5-0.1-8.2c-0.4-3.3-1.2-6.5-2.2-9.7c-1.3-4.1-2.8-8.2-3.7-12.5
		c0-0.1-0.1-0.3-0.2-0.5c-0.1,0.2-0.1,0.2-0.1,0.3c-1.1,4.3-1.6,8.7-1.5,13.2c0.1,3.5,0.1,7.1,0.2,10.6c0,2.7-0.4,5.4-1.3,7.9
		c-0.6,1.8-1.3,3.5-2,5.3C285.7,131,288,134.2,289.1,138z M283.1,88.5c-0.2,0-0.4,0.1-0.6,0.1c-4,1.2-8,2.5-12.1,3.7
		c-3.7,1.1-7.3,2.2-10.8,3.8c-7.1,3.2-12.5,8.5-16.8,15c-0.4,0.7-0.4,1.4-0.6,2.3c2.4-1,4.7-1.7,7.1-1.8c2.4-0.1,4.9,0.2,7.3,0.5
		c0.1-0.3,0.2-0.6,0.3-0.8c0.7-1.9,1.7-3.6,2.9-5.2c1.5-1.9,3.3-3.5,5.2-5c2.2-1.6,4.6-2.9,7-4.2c2.1-1,4.1-2.2,6-3.5
		C280,92,281.5,90.2,283.1,88.5z M69.8,219.3c0,0,0,0.1-0.1,0.1c0.1,0.1,0.2,0.2,0.3,0.3c3.3,3,6.5,6.1,9.8,9.1
		c2.4,2.2,4.8,4.2,7.5,6c4.3,2.9,8.9,5.1,14,6.2c3.3,0.7,6.6,0.9,9.9,1c0.2,0,0.3,0,0.7-0.1c-4.9-4-7.7-9.2-9.4-14.9
		c-0.1,0-0.1,0-0.2,0c-0.2,0.1-0.4,0.2-0.6,0.3c-1.8,0.9-3.7,1.4-5.7,1.5c-3.6,0.3-7-0.4-10.3-1.8c-2.5-1-4.9-2.4-7.2-3.8
		c-2.5-1.5-5-2.8-7.7-3.8C70.4,219.5,70.1,219.4,69.8,219.3z M144.1,293.7c0.2,0.5,0.3,0.8,0.4,1.2c1.1,2.8,2.7,5.4,4.6,7.8
		c4.5,5.5,10.3,9.2,16.8,11.9c3.5,1.5,7.2,2.3,11,2.4c2.2,0.1,4.4,0,6.7-0.1c0.4,0,0.9-0.1,1.4-0.1c-0.1-0.6-0.4-0.9-0.9-1.1
		c-1.2-0.6-2.3-1.2-3.5-1.8c-3.8-2.1-7.5-4.3-11.3-6.4c-8.2-4.5-16.3-9-24.5-13.5C144.6,293.9,144.5,293.9,144.1,293.7z
		 M309.4,183.7c-7.2-11.6-13.3-23.6-19.8-35.4c-0.2,1.1,0,2.1,0.2,3.2c0.5,3.3,1,6.6,0.7,10c-0.4,4.3-1.8,8.3-4.3,11.9
		c-1.5,2.1-3.2,4-5,5.8c-0.4,0.4-0.6,0.7-0.2,1.2c0.2-0.1,0.5-0.1,0.8-0.2c3.1-0.7,6.3-1,9.5-0.8c3.6,0.2,7,1.1,10.5,2.1
		c2.2,0.7,4.4,1.3,6.6,2C308.7,183.6,309,183.6,309.4,183.7z M330.3,228.4c0.4,0,0.8,0,1.2-0.1c1.7-0.4,3.4-0.7,5-1.2
		c3.5-1.1,6.7-3,9.7-5c2.8-1.8,5.4-3.9,8.5-5.2c0.1,0,0.1-0.1,0.2-0.2c-0.1-0.1-0.2-0.2-0.3-0.2c-2.9-0.7-5.5-1.9-8-3.3
		c-4.4-2.5-9.1-4.6-13.9-6.3c-0.4-0.2-0.8-0.3-1.3-0.5C333,215.8,333.8,215.5,330.3,228.4z M290.5,141.3c3.8,1.6,7.2,3.6,10.3,5.9
		c0.9-0.7,1.8-1.4,2.6-2c3.2-2.2,6.7-3.3,10.5-3.7c3.6-0.4,7.3-0.7,10.9-0.9c2.9-0.2,5.7-0.6,8.5-1.6c1.1-0.4,2.3-0.8,3.4-1.2
		c-0.3-0.2-0.6-0.3-0.9-0.3c-0.8-0.1-1.7-0.1-2.5-0.3c-4.5-0.6-9-1.2-13.6-1.9c-4.7-0.7-9.3-0.9-14-0.4c-5.1,0.6-9.8,2.2-14,5.2
		C291.3,140.5,291,140.8,290.5,141.3z M216.7,69.1c-0.1,0-0.1,0.1-0.2,0.1c0.1,0.3,0.2,0.6,0.3,0.8c2,4.5,4.4,8.8,7.2,13
		c1.9,2.8,3.7,5.7,5.4,8.6c2.4,4,3.5,8.3,2.9,12.9c-0.1,0.7,0.1,1.1,0.7,1.5c2.4,1.8,4.6,3.9,6.3,6.3c0,0.1,0.1,0.1,0.3,0.2
		c0.1-0.9,0.1-1.7,0.2-2.5c0.3-3.2,0.3-6.5-0.2-9.6c-1.4-8.2-5.1-15.3-11.1-21c-3.3-3.1-6.8-6-10.2-9
		C217.9,69.9,217.3,69.5,216.7,69.1z M363,214.6c-0.2-0.3-0.2-0.3-0.3-0.4c-0.6-0.3-1.2-0.7-1.8-1c-5-2.4-9.5-5.5-13.6-9.3
		c-1-0.9-2-1.8-3-2.7c-6.9-6.1-14.7-10.3-23.6-12.5c-1-0.3-2.1-0.4-3.2-0.7c0,0.2,0,0.2,0.1,0.2c0.7,0.6,1.4,1.1,2.2,1.7
		c4.3,3.5,7.9,7.6,10.2,12.7c0.3,0.7,0.8,1,1.5,1.1c0.9,0.1,1.7,0.2,2.6,0.5c3.8,1.1,7.6,2.6,11.1,4.5c1.7,0.9,3.3,1.8,5,2.7
		c2.8,1.5,5.9,2.5,9.1,2.9C360.3,214.5,361.6,214.6,363,214.6z M247.3,314.5c0.3,0.1,0.4,0.2,0.5,0.2c1.8,0.5,3.6,0.8,5.4,0.9
		c2.6,0.1,5.1-0.4,7.6-1.1c4.3-1.2,8.5-2.8,12.2-5.4c6.2-4.5,10.9-10.1,13.7-17.3c0.2-0.4,0.3-0.8,0.5-1.3
		c-4.4,2.9-8.8,5.7-13.1,8.5c-4.3,2.8-8.6,5.6-13.1,8C256.5,309.6,251.9,312,247.3,314.5z M290.2,292.6c-1.7,4.7-4.3,8.8-7.5,12.5
		c0.6,0.9,1.1,1.6,1.6,2.4c2.8,4.8,4.2,10.1,4.5,15.6c0.2,3,0.3,6,0.6,9c0.2,2.7,0.7,5.3,1.5,7.9c0.1,0.3,0.2,0.5,0.3,0.8
		c0.2-0.4,0.3-0.9,0.3-1.3c0.4-4.6,1.1-9.2,1.8-13.8c0.5-3.7,1-7.4,1.3-11.1c0.3-3.2,0.1-6.5-0.3-9.7c-0.6-4-1.7-7.9-3.6-11.5
		C290.5,293.1,290.4,292.9,290.2,292.6z M147.5,124.2c-2.9-2.7-4.3-6.1-5.1-9.7c-0.8-3.2-1.1-6.4-1.1-9.7c0-2.4,0-4.8,0-7.1
		c0-2.2-0.2-4.4-0.8-6.5c0-0.2-0.2-0.3-0.3-0.7c-0.4,1.6-0.7,2.9-1,4.3c-1.4,5.8-2.7,11.6-3.3,17.6c-0.4,4.2-0.7,8.4-0.1,12.6
		c0.6,4.5,1.8,8.9,3.9,12.9c0.1,0.3,0.3,0.5,0.6,1C141.6,133.4,143.9,128.5,147.5,124.2z M341.2,289.2c0.1,0,0.1,0,0.2-0.1
		c0-0.1,0-0.2-0.1-0.4c-1-4.5-2.1-9.1-3.1-13.6c-1.3-6-3.4-11.7-6.3-17.1c-2.9-5.4-7-9.7-12.1-13.1c-0.2-0.1-0.4-0.2-0.8-0.4
		c1.6,4.9,1.6,9.7,0.9,14.5c0.2,0.1,0.3,0.3,0.5,0.4c4.2,2.7,7.6,6.2,10.3,10.4c1.9,2.8,3.4,5.8,4.9,8.9c1.5,3.2,3,6.4,4.9,9.4
		C340.7,288.4,340.9,288.8,341.2,289.2z M164.9,218.1c-0.3,0.4-0.5,0.6-0.7,0.8c-1.7,2.2-2.8,4.7-3.8,7.3c-2.4,6.1-3.5,12.5-3.9,19
		c0,0.4,0,0.8,0,1.2c1.2-0.2,4-1.6,5.2-2.4c2.6-1.8,5.2-3.7,8-5.2c0.1-0.1,0.2-0.2,0.3-0.2c-1-5.1,1.4-8.9,4.5-12.5
		C169.8,225.1,166.3,222.9,164.9,218.1z M362.5,217.6c-0.3,0.1-0.6,0.1-0.8,0.2c-1.1,0.4-2.3,0.7-3.4,1.1c-2.1,0.7-4.1,1.6-6,2.9
		c-1.5,1-3,2.1-4.6,3.1c-2.1,1.5-4.4,2.8-6.7,3.9c-3.9,1.8-7.9,2.9-12.3,2.7c-0.5,0.8-1,1.6-1.5,2.4c-0.5,0.8-1.1,1.6-1.7,2.4
		c-0.6,0.8-1.3,1.6-1.9,2.3c-0.6,0.7-1.3,1.3-2.1,2.1c0.4,0,0.6,0,0.8,0c2.4-0.2,4.8-0.3,7.2-0.7c9.2-1.5,17.2-5.4,23.7-12.3
		c3-3.2,5.9-6.4,8.9-9.6C362.2,218,362.3,217.9,362.5,217.6z M294,289.2c0.1,0.2,0.1,0.2,0.1,0.3c0.2,0.2,0.4,0.3,0.6,0.5
		c5.7,4.6,12.3,6.8,19.5,7.1c3.2,0.1,6.3-0.3,9.4-1.1c4.5-1.1,9-2.2,13.7-3.4c-0.3-0.2-0.4-0.3-0.5-0.3c-1.7-0.5-3.4-1-5.2-1.4
		c-3.5-0.7-7-0.8-10.5-0.9c-2.2,0-4.4-0.1-6.6-0.5c-3.7-0.6-7.2-1.8-10.2-4.2c-0.2-0.2-0.4-0.3-0.7-0.5
		C300.7,286.9,297.6,288.5,294,289.2z M138.5,290.9c-2.7-1.1-5.1-2.4-7.3-3.9c-0.3-0.2-0.6-0.1-0.9,0.1c-1,0.5-2,1.1-3.1,1.5
		c-2.7,1.2-5.5,1.8-8.3,2.4c-1.9,0.4-3.8,0.6-5.8,0.5c-3.7,0-7.4-0.1-11.1-0.2c-2.4,0-4.9,0.2-7.3,0.7c-1.1,0.3-2.3,0.6-3.5,1.3
		c0.5,0.1,0.8,0.2,1.1,0.2c1.2,0.2,2.4,0.4,3.6,0.7c3.8,0.8,7.6,1.8,11.4,2.6c4.5,0.9,9.1,1.4,13.7,0.7c5.4-0.7,10.3-2.4,14.9-5.2
		C136.9,292,137.6,291.5,138.5,290.9z M136.7,145.1c-0.1-0.1-0.1-0.1-0.2-0.2c-0.7,0.3-1.4,0.6-2.1,1c-3.7,1.8-7,4-9.7,7.1
		c-4.7,5.5-7.9,11.8-9.7,18.7c-0.8,3.1-1.3,6.2-1.1,9.4c0.1,1.2,0.2,2.4,0.8,3.7C122.1,171.5,129.4,158.3,136.7,145.1z M216.8,265
		c0.5,5.7,0.9,11.4,1.5,17.1c6.3-4,16.2-16.5,17.3-21.8c-0.9-0.1-1.9-0.2-2.8-0.4c-0.9-0.2-1.8-0.5-2.7-0.9
		c-0.8-0.4-1.6-0.9-2.4-1.5c-0.7-0.6-1.3-1.3-2-1.9C224.2,260.2,221.5,263.6,216.8,265z M216.8,361.3c0.1,0.1,0.2,0.1,0.3,0.2
		c0.1-0.2,0.2-0.4,0.3-0.5c2.6-3.2,5.3-6.3,7.9-9.5c3.1-3.7,6.3-7.3,9-11.3c4-5.8,6.9-12,7.6-19.1c0.1-0.5,0.1-1.1,0.1-1.6
		c0-0.5,0-1.1,0-1.8c-0.4,0.3-0.7,0.6-1,0.8c-1.7,1.3-3.4,2.5-5.2,3.7c-0.5,0.4-0.9,0.7-0.9,1.4c0,0.5-0.2,0.9-0.3,1.4
		c-0.7,2.9-1.9,5.6-3.5,8.2c-2.7,4.4-5.4,8.8-8.1,13.2c-2.4,3.8-4.3,7.7-5.6,12C217.3,359.2,217.1,360.2,216.8,361.3z M216.8,166.8
		c1.1,0.6,2.2,1,3.2,1.7c2.4,1.7,3.9,4.1,4.7,6.9c0.1,0.3,0.2,0.6,0.3,1.1c2.9-3.2,6.5-4.4,10.6-4.5c-0.2-0.3-0.3-0.6-0.5-0.8
		c-1.2-1.7-2.3-3.3-3.5-5c-3-4.2-6-8.5-9.4-12.6c-1.3-1.6-2.7-3-4.3-4.4c-0.2-0.2-0.4-0.3-0.6-0.4c-0.1,0.1-0.2,0.2-0.2,0.3
		c-0.3,2.1-0.7,4.2-0.7,6.3c0.1,2.9,0.1,5.8,0.2,8.6C216.8,165,216.8,165.9,216.8,166.8z M110.6,176.9c-1.3-0.3-2.7-0.7-3.9-1.5
		c-2-1.2-3.8-2.7-5.3-4.6c-1.9-2.4-3.3-5-4.4-7.8c-1-2.5-1.8-5-2.7-7.5c-0.9-2.7-2.1-5.3-4-7.5c-1-1.1-2.1-2.1-3.3-3
		c0,0.3,0,0.6,0.1,0.8c1.2,4.5,2.3,9.1,3.5,13.6c1,3.6,2,7.2,3.7,10.5c2.1,4.3,4.8,8.3,8.5,11.4c2.6,2.2,5.4,4,8.4,5.7
		c0.2,0.1,0.4,0.2,0.7,0.3c-0.4-1.8-0.8-3.4-1-5.1C110.6,180.6,110.7,178.8,110.6,176.9z M174.1,189.5c1.5-1.4,3.2-2.3,5.1-2.8
		c1.9-0.6,3.9-0.3,5.9,0c-0.1-0.3-0.1-0.5-0.1-0.7c-0.5-1.9-0.8-3.9-0.6-5.8c0.2-2.5,0.9-4.8,2.8-6.7c0,0,0-0.1,0-0.2
		c-5.9-0.5-22.4,4-26.5,7.2C164.9,183.8,169.8,186.1,174.1,189.5z M144.7,135.8c12.5-7.3,25.2-14,38.2-20.1
		c-2.6-0.9-6.7-1.4-9.6-1.2c-2.9,0.2-5.7,0.9-8.5,1.8c-9.4,3.2-15.9,9.5-19.8,18.5C145,135.1,144.9,135.4,144.7,135.8z M69.2,213.1
		c0,0,0.1,0.1,0.1,0.1c0.2-0.1,0.5-0.2,0.7-0.3c1.8-0.8,3.4-1.9,4.9-3.1c1.6-1.2,3.2-2.5,4.9-3.7c2-1.5,4.1-2.8,6.3-3.8
		c2.1-1,4.3-1.8,6.6-2c3.8-0.4,7.4,0.5,10.7,2.5c0.2,0.1,0.4,0.2,0.6,0.3c0.5-1.1,1-2.1,1.5-3.1c0.5-1,1.1-2,1.8-2.9
		c0.7-0.9,1.4-1.8,2.2-2.7c0.8-0.8,1.6-1.5,2.6-2.3c-0.5,0-0.7,0-1,0c-2.3,0.1-4.7,0.2-7,0.4c-3.6,0.3-7.2,0.8-10.7,1.7
		c-5.9,1.5-11,4.3-15.2,8.6c-2.6,2.6-4.9,5.5-7.3,8.3C70.2,211.9,69.7,212.5,69.2,213.1z M185.7,245.2c-5.8,1.6-10.7,0.4-14.6-4.1
		c-3.9,2.6-7.7,5.2-11.3,8.3c0.2,0.1,0.4,0.2,0.6,0.3c2,0.9,4,1.8,6,2.5c6.3,2.3,12.8,3.7,19.5,3.9c0.3,0,0.6,0,1.1,0
		C184.4,252.7,184.3,249.1,185.7,245.2z M285.5,341c-1.8-2.8-5.4-6-8.4-7.5c-2.1-1.1-4.2-2.1-6.3-3.1c-4.7-2.4-8.4-5.9-11.2-10.4
		c-0.3-0.5-0.8-1-1.2-1.5c-4.2,0.7-8.1,0.4-12.1-1c0.4,0.9,0.8,1.7,1.4,2.4c1.1,1.3,2.1,2.6,3.3,3.8c3.7,3.7,7.7,6.9,12.3,9.3
		c2.4,1.2,5,2.1,7.5,2.9c4.2,1.4,8.4,2.6,12.5,4.3C284,340.4,284.7,340.7,285.5,341z M89.2,141c0.4,0.1,0.7,0.2,0.9,0.2
		c0.7,0.1,1.5,0.2,2.2,0.2c1.3,0.1,2.6,0.1,3.8,0.1c1.9,0,3.9,0.1,5.8,0c3.6-0.2,7.1-0.5,10.7-0.8c2.1-0.1,4.2,0,6.3,0.4
		c3.3,0.7,6.2,2.2,8.9,4c0.5,0.4,0.9,0.3,1.4,0c2.4-1.4,4.9-2.6,7.6-3.4c0.2-0.1,0.4-0.1,0.7-0.2c-0.8-0.5-1.5-0.8-2.2-1.2
		c-5.5-3.1-11.5-4.6-17.7-5c-4.9-0.3-9.7,0.3-14.4,1.3c-4.2,0.9-8.3,2.3-12.4,3.5C90.4,140.5,89.9,140.7,89.2,141z M312.8,183.5
		c0.5-2.6,0.8-5,0.6-7.5c-0.5-5.3-2.2-10.2-4.9-14.8c-3.9-6.6-9.2-11.7-15.8-15.3c-0.3-0.2-0.5-0.4-0.9-0.4
		C298.5,158.4,305.5,170.9,312.8,183.5z M197,103.5c0-0.2,0-0.4,0-0.5c-0.5-2.6-0.3-5.2,0.4-7.8c0.8-2.8,2.1-5.4,3.7-7.8
		c1.5-2.3,3.1-4.6,4.6-6.9c1.6-2.5,3-5.2,4-8.1c0.2-0.5,0.3-0.9,0.4-1.4c-0.3,0-0.4,0.2-0.5,0.3c-2.6,2.7-5.1,5.3-7.7,8
		c-3.2,3.3-6.1,6.7-8.5,10.6c-2.7,4.4-4.8,9.1-5.2,14.3c-0.1,2.1-0.1,4.3-0.2,6.5c0,0.2,0.1,0.4,0.2,0.8
		C190.5,107.9,193.4,105.3,197,103.5z M115.6,250.2c-0.1,0.2-0.1,0.3-0.1,0.5c0,1.2-0.1,2.4,0,3.7c0.5,4.7,1.8,9.2,3.7,13.5
		c3.9,8.6,10.1,14.9,18.5,19.1c0.3,0.1,0.6,0.2,1,0.4c-0.1-0.2-0.1-0.4-0.1-0.5c-1.8-3-3.4-6.1-5.3-9.1c-4.6-7.3-9.3-14.6-14-21.9
		c-1.1-1.7-2.1-3.4-3.2-5.1C116,250.6,115.8,250.4,115.6,250.2z M184.7,113.2c-0.2-0.3-0.4-0.6-0.5-0.8c-1.3-1.8-2.5-3.6-3.9-5.4
		c-1.1-1.4-2.3-2.7-3.6-3.9c-3.4-3.4-7.6-5.6-12-7.5c-4.9-2.1-9.9-3.9-15-5.4c-1.8-0.5-3.7-1-5.7-1.6c0.3,0.3,0.3,0.5,0.5,0.6
		c1.2,0.9,2.3,1.9,3.7,2.6c2.6,1.4,5.2,2.6,7.9,3.8c2.3,1,4.5,2.1,6.7,3.4c3.3,2,6,4.6,8.1,7.8c0.9,1.4,1.8,2.9,2.1,4.5
		c2,0.2,4,0.2,6,0.5C180.7,112.1,182.6,112.7,184.7,113.2z M187,241.5c-2-2.2-3.7-4.4-5.1-6.8c-1.4-2.4-2.3-5.1-3.2-7.8
		c-0.3,0.2-0.5,0.3-0.7,0.5c-2,1.5-3.5,3.4-4.4,5.7c-0.4,0.9-0.7,1.9-0.8,2.9c-0.2,2.3,1,4,2.8,5.2C179.2,243.6,183,243.8,187,241.5
		z M178,208.4c-2.3,0.2-4.5,0.5-6.5,1.5c-1.1,0.6-2,1.3-2.8,2.3c-0.9,1.1-1.4,2.4-1.3,3.7c0.2,2.2,1,4.2,2.8,5.6
		c1.8,1.4,3.8,2.2,6.1,2.5c0.5,0.1,1.1,0.1,1.7-0.3C176.9,218.7,177.1,213.6,178,208.4z M206.7,253c0,0.2,0,0.5,0,0.7
		c0.5,2.5,1.4,4.8,3.2,6.6c3,3,6.7,2.5,9.3,0.4c1.4-1.1,2.6-2.6,3.3-4.3c0.3-0.7,0.5-1.5,0.6-2.3c0.1-0.7,0.2-1.4-0.1-2.2
		C217.7,253.6,212.3,253.3,206.7,253z M239.3,244.1c-0.3,0.2-0.6,0.4-0.8,0.6c-1.3,0.8-2.5,1.8-3.9,2.5c-2.7,1.4-5.3,2.9-8.2,3.9
		c-0.1,0-0.1,0.1-0.3,0.3c0.6,0.8,1.1,1.6,1.7,2.3c1.7,2.2,4,3.4,6.7,3.7c3.2,0.3,5.3-1,5.9-4c0.3-1.6,0.4-3.3,0.2-5
		C240.5,246.9,240.2,245.5,239.3,244.1z M189.4,244.1c-0.8,1.6-1.4,3.2-1.6,4.8c-0.2,1-0.2,1.9,0.1,2.9c0.9,2.9,3,4.6,5.8,5.1
		c3.3,0.6,6.2-0.5,8.6-2.7c0.5-0.5,1-1.1,1.2-1.8C198.4,250.4,193.6,247.9,189.4,244.1z M240.9,187.4c0.1-0.2,0.2-0.4,0.3-0.5
		c0.7-1.7,0.8-3.5,0.5-5.2c-0.4-1.9-1.1-3.7-2.5-5.2c-0.9-0.9-2-1.5-3.2-1.5c-1,0-1.9,0.1-2.9,0.3c-2,0.4-3.9,1.3-5.3,2.8
		c-0.5,0.5-1,1.2-1.4,1.9C231.6,181.8,236.4,184.3,240.9,187.4z M201.9,179.7c-0.2-0.2-0.2-0.4-0.3-0.5c-1.6-1.9-3.5-3.3-5.8-4.2
		c-1-0.4-2-0.6-3-0.5c-2.5,0.1-4.4,1.4-5.2,3.8c-0.5,1.6-0.6,3.3-0.3,5c0.2,1.4,0.5,2.7,1.4,4C192.4,183.6,196.8,181.1,201.9,179.7z
		 M206.3,178.5c2.8-0.2,5.4-0.4,8-0.5c2.7-0.1,5.3,0.3,8,0.8c-0.1-1.4-0.6-2.6-1-3.8c-0.7-1.7-1.8-3-3.3-4.1c-0.9-0.6-1.9-1-3.1-1
		c-2.8,0-4.9,1.3-6.5,3.5C207.3,174.9,206.9,176.7,206.3,178.5z M178.7,205.1c1.4-5.5,3.6-10.5,7.3-14.9c-0.6-0.2-1-0.3-1.5-0.4
		c-2.8-0.6-5.4-0.3-7.7,1.5c-1.7,1.3-2.6,3-2.5,5.1c0.1,3.4,1.4,6.2,3.9,8.4C178.3,204.8,178.4,204.9,178.7,205.1z M242.3,241.5
		c1,0.1,1.8,0.3,2.6,0.3c2.2,0.2,4.4,0.1,6.5-1c1.5-0.8,2.4-2,2.7-3.7c0.4-2.4-0.2-4.7-0.8-6.9c-0.3-1.1-0.9-2-1.6-2.9
		c-0.2-0.2-0.4-0.4-0.7-0.8C249.2,232.2,246.3,237,242.3,241.5z M252,222.9c2.5-0.5,4.5-1.6,6.2-3.3c1.4-1.4,2.1-3.1,1.9-5.1
		c0-0.5-0.1-0.9-0.2-1.4c-0.4-1.8-1.2-3.4-2.9-4.4c-1-0.6-2.1-1.1-3.3-1.3c-0.4-0.1-0.9,0-1.5,0C253.2,212.5,253.2,217.6,252,222.9z
		 M243.9,190.1c3.7,3.9,6.2,8.3,7.5,13.5c1.4-1.3,2.4-2.6,2.8-4.4c0.6-2.7,0-5.2-1.4-7.5c-0.7-1-1.6-1.7-2.8-2
		C248,189.3,246,189.7,243.9,190.1z"/>
	<path class="st12" d="M214.1,127.5c-1.6,0-2.9-0.9-3.5-2.6c-0.7-1.8-0.4-3.6,1-4.8c1.4-1.3,3.2-1.7,5.1-1.4
		c0.6,0.1,1.2,0.5,1.7,0.9c1.3,1.1,1.7,2.6,1.5,4.2c-0.2,1.4-1.3,2.2-2.4,2.9C216.5,127.3,215.4,127.5,214.1,127.5z M214.4,124.8
		c0.7-0.2,1.4-0.4,2-0.8c0.7-0.4,0.8-0.7,0.6-1.4c-0.2-0.8-0.6-1.2-1.3-1.3c-0.8,0-1.5,0.2-2.2,0.7c-0.6,0.4-0.7,1-0.5,1.7
		C213.2,124.4,213.6,124.7,214.4,124.8z"/>
	<path class="st12" d="M293.7,259.5c2.4-0.2,4.2,2.7,4.2,4.4c0,2.1-2.2,3.9-4.5,3.8c-2.2-0.1-4.1-2-4.1-4.2
		C289.4,261.3,291.4,259.5,293.7,259.5z M295.4,264c-0.4-0.5-0.6-0.8-0.8-1.1c-0.4-0.4-1-0.4-1.5-0.1c-0.4,0.2-0.6,0.8-0.5,1.1
		c0.2,0.5,0.7,0.8,1.3,0.7C294.4,264.5,294.8,264.2,295.4,264z"/>
	<path class="st12" d="M173.1,133.9c0.3,2.6-1.4,4.5-4,4.8c-2.3,0.3-4.3-1.3-4.7-3.6c-0.3-1.6,0.8-3.8,2.4-4.6
		c0.7-0.4,1.5-0.6,2.3-0.7c2.2-0.2,3.9,1.3,4,3.6C173.1,133.7,173.1,133.9,173.1,133.9z M170.6,134.4c0-1-0.5-1.7-1.1-1.7
		c-1,0-2,0.9-2,1.9c0,0.8,0.6,1.3,1.5,1.3C169.8,135.9,170.6,135.2,170.6,134.4z"/>
	<path class="st12" d="M136.5,164.1c2.8,0,4.5,2.2,3.8,5c0,0.2-0.1,0.4-0.1,0.5c-0.4,1.7-1.4,2.9-3.1,3.4c-1.8,0.4-3.4-0.1-4.7-1.5
		c-1.9-2.1-1.5-4.9,0.8-6.4C134.2,164.4,135.3,164,136.5,164.1z M136.4,167c-0.5,0.2-1,0.2-1.4,0.5c-1.4,0.7-0.9,1.8-0.1,2.4
		c0.7,0.5,1.1,0.5,1.6-0.2c0.3-0.4,0.6-0.8,0.8-1.3C137.7,167.6,137.3,167.1,136.4,167z"/>
	<path class="st12" d="M168.2,298.3c-2.5,0.2-5.2-2.4-4.3-5.4c0.5-1.6,1.9-2.7,3.7-2.9c1.9-0.2,3.5,0.9,4.2,2.8
		c0.1,0.4,0.2,0.7,0.4,1.1c0.5,1.1,0.2,2.1-0.6,3C170.7,297.8,169.5,298.3,168.2,298.3z M168.3,292.9c-1.2,0-1.9,1-1.4,1.7
		c0.2,0.3,0.6,0.6,0.9,0.8c0.5,0.2,1,0.3,1.4-0.1c0.4-0.4,0.2-0.9,0-1.4C169,293.4,168.7,292.9,168.3,292.9z"/>
	<path class="st12" d="M134.4,264.4c-1.2,0-2.4-0.4-3.3-1.4c-1.4-1.6-1.5-3.7-0.1-5.3c1.3-1.5,2.9-2.3,4.9-1.9
		c1.1,0.2,1.9,0.8,2.4,1.9c0.1,0.2,0.2,0.4,0.3,0.6c1,1.7,0.7,3.7-0.9,5C136.8,264,135.7,264.4,134.4,264.4z M134.5,261.4
		c0.2,0,0.3,0,0.4,0c1.3-0.1,1.6-0.5,1.1-1.8c-0.3-1-0.9-1.2-1.8-0.8c-0.3,0.2-0.7,0.5-0.9,0.8c-0.5,0.6-0.2,1.3,0.5,1.6
		C134.1,261.3,134.3,261.4,134.5,261.4z"/>
	<path class="st12" d="M311.5,215.6c0,2.8-2.8,4.9-5.5,4.3c-2.1-0.5-3.6-2.2-4-4.3c-0.4-2.5,1.5-4.8,4.1-5
		C309.5,210.5,311.3,213.3,311.5,215.6z M308.9,215.6c-0.3-0.4-0.6-0.9-1-1.3c-0.3-0.3-0.8-0.4-1.3-0.5c-0.9-0.1-1.4,0.7-1.1,1.6
		c0.3,0.8,0.8,1.3,1.6,1.4C307.9,216.8,308.5,216.4,308.9,215.6z"/>
	<path class="st12" d="M120.3,214.3c0-1.1,0.4-2,1.1-2.7c1.4-1.4,3.1-2,5-1.6c0.5,0.1,1,0.4,1.4,0.7c1.3,1.1,1.7,3.4,1.1,5
		c-0.8,1.9-2.3,2.9-4.2,2.8c-2-0.1-3.5-1.3-4.1-3.1C120.4,215.1,120.4,214.7,120.3,214.3z M124.8,215.6c1,0,1.4-0.3,1.4-1.2
		c0-0.8-0.3-1.5-0.8-1.5c-0.9-0.1-1.9,0.6-1.9,1.3C123.4,215,124,215.6,124.8,215.6z"/>
	<path class="st12" d="M260.9,291.5c1.6,0,3.1,1,3.6,2.4c0.4,1.1,0.1,3.6-1.1,4.7c-1.3,1.1-2.7,1.5-4.3,0.8
		c-1.6-0.6-2.6-2.2-2.7-3.9c0-1,0.4-1.8,1-2.5C258.3,292,259.6,291.5,260.9,291.5z M260.9,294.5c-0.5,0-1.3,0.4-1.4,0.8
		c-0.1,0.5,0,0.9,0.4,1.2c0.3,0.3,0.7,0.5,1.2,0.3c0.5-0.2,1-0.5,1.2-1c0-0.1,0-0.2,0-0.4C262,294.9,261.5,294.5,260.9,294.5z"/>
	<path class="st12" d="M213,310.6c-2.1,0-3.9-1.4-4.3-3.5c-0.1-0.7,0-1.4,0.3-2c0.9-1.9,3.2-3.1,5.2-2.8c2.4,0.4,3.9,2.9,3.1,5.2
		C216.5,309.6,215.1,310.6,213,310.6z M213.3,305.2c-0.5,0.1-1,0.4-1.4,0.8c-0.4,0.4-0.4,0.8-0.1,1.3c0.4,0.6,1.2,0.8,2.1,0.6
		c0.8-0.3,1-0.7,0.9-1.4C214.7,305.7,214.1,305.1,213.3,305.2z"/>
	<path class="st12" d="M295.3,168.6c1.1,0,2.1,0.7,2.8,1.8c0.3,0.4,0.5,0.9,0.7,1.4c0.3,0.6,0.2,1.3,0,1.9c-0.8,2-2.3,3.3-4.4,3.6
		c-1.2,0.2-2.2-0.2-3.1-1.1c-2-2.1-1.5-5.5,1-6.9C293.2,168.9,294.1,168.7,295.3,168.6z M296.1,173c-0.5-1.3-1-1.5-2.1-0.8
		c-0.1,0.1-0.3,0.2-0.4,0.3c-0.1,0.3-0.3,0.7-0.2,1c0.1,0.6,0.5,0.8,1.1,0.6C295.1,173.9,295.7,173.6,296.1,173z"/>
	<path class="st12" d="M262.8,133.3c1.1,0,2.1,0.7,2.8,1.8c0.3,0.4,0.5,0.9,0.7,1.4c0.3,0.6,0.2,1.3,0,1.9c-0.8,2-2.3,3.3-4.4,3.6
		c-1.2,0.2-2.2-0.2-3.1-1.1c-2-2.1-1.5-5.5,1-6.9C260.7,133.6,261.6,133.3,262.8,133.3z M263.6,137.7c-0.5-1.3-1-1.5-2.1-0.8
		c-0.1,0.1-0.3,0.2-0.4,0.3c-0.1,0.3-0.3,0.7-0.2,1c0.1,0.6,0.5,0.8,1.1,0.6C262.6,138.6,263.2,138.3,263.6,137.7z"/>
</g>
</svg>
