<?xml version="1.0" encoding="utf-8"?>
<!-- Generator: Adobe Illustrator 21.1.0, SVG Export Plug-In . SVG Version: 6.00 Build 0)  -->
<svg version="1.1" id="Calque_1" xmlns="http://www.w3.org/2000/svg" xmlns:xlink="http://www.w3.org/1999/xlink" x="0px" y="0px"
	 viewBox="0 0 432 432" style="enable-background:new 0 0 432 432;" xml:space="preserve">
<style type="text/css">
	.st0{fill:#BD2329;}
	.st1{fill:#9BBD75;}
	.st2{fill:#B17F4A;}
	.st3{fill:#432918;}
	.st4{fill:#5FA131;}
	.st5{fill:#020203;}
	.st6{fill:#CDCCCC;}
	.st7{fill:#FFFFFF;}
	.st8{fill:#F9EA31;}
	.st9{fill:#1D71B8;}
	.st10{fill:#75A5BD;}
	.st11{fill:#C6C6C6;}
	.st12{fill:#706F6F;}
	.st13{fill:#00A19A;}
	.st14{fill:#36A9E1;}
	.st15{fill:#30358C;}
	.st16{fill:#6BC4CD;}
	.st17{fill:#0D71B9;}
	.st18{fill:#066938;}
	.st19{fill:#571419;}
	.st20{fill:#C49253;}
</style>
<path class="st15" d="M250.3,326l-8.3,1.8l-7-4.5l14.2-6.6l-2.6-5.7l-17.8,8.2l-24.4-15.7c0.1-0.5,0.2-1,0.2-1.6l27.6,6.6l10.6-9
	l-10.4-8.8l-27.9,8.4c-0.1-0.4-0.1-0.8-0.3-1.2l24.3-15.7l17.8,8.2l2.6-5.7l-14.2-6.6l7-4.5l8.3,1.8l2.7-12.6l-12.6-2.7l-1.8,8.3
	l-7.1,4.5l-0.1-15.9l-6.2,0l0.1,19.9l-23.9,15.4c-0.4-0.4-0.9-0.9-1.4-1.2l19.9-20.3l-2.3-13.7l-12.9,4.4l-7.2,28.2
	c-0.6-0.3-1.3-0.5-1.9-0.7v-28.1l16.6-10.5l-3.3-5.3l-13.2,8.4v-8.3l6-6l-9.1-9.1l-9.1,9.1l6,6v8.4l-13.4-8.5l-3.3,5.3l16.8,10.6v28
	c-0.6,0.2-1.2,0.3-1.8,0.6l-7.2-28.1l-12.9-4.4l-2.3,13.7l19.8,20.2c-0.5,0.4-1,0.8-1.4,1.2l-23.7-15.3l0.1-19.9l-6.2,0l-0.1,15.9
	l-7.1-4.5l-1.8-8.3l-12.6,2.7l2.7,12.6l8.3-1.8l7,4.5l-14.2,6.6l2.6,5.7l17.8-8.2l24.1,15.5c-0.1,0.4-0.2,0.8-0.3,1.2l-27.4-8.2
	l-10.4,8.8l10.6,9l27.1-6.5c0,0.5,0.1,1.1,0.2,1.6l-24.1,15.5l-17.8-8.2l-2.6,5.7l14.2,6.6l-7,4.5l-8.3-1.8l-2.7,12.6l12.6,2.7
	l1.8-8.3l7.1-4.5l0.1,15.9l6.2,0l-0.1-19.9l23.5-15.1c0.5,0.6,1,1.1,1.6,1.5l-19.5,19.9l2.3,13.7l12.9-4.4l7-27.5
	c0.6,0.3,1.2,0.5,1.9,0.7V341l-16.8,10.6l3.3,5.3l13.4-8.5v8.4l-6,6l9.1,9.1l9.1-9.1l-6-6v-8.3l13.2,8.4l3.3-5.3l-16.6-10.5v-27.9
	c0.7-0.2,1.4-0.5,2.1-0.8l7,27.3l12.9,4.4l2.3-13.7l-19.4-19.8c0.5-0.4,1-0.9,1.4-1.4l23.6,15.2l-0.1,19.9l6.2,0l0.1-15.9l7.1,4.5
	l1.8,8.3l12.6-2.7L250.3,326z"/>
<path class="st16" d="M225.7,168.7l-13.8,4.7l-5.8-3.3l11-3.7l-1-3l-13.8,4.7l-16.1-9.1l11.3-4.8l-6.8-8.2l7.5-0.1l9.9,10.8l2.4-2.2
	l-7.9-8.7l9.5-0.1l0-3.2l-9.4,0.1l7.7-8.8l-2.4-2.1l-9.5,11l-7.1,0.1l5.9-7.8l-9.9-3.7l16-8.8l13.7,4.8l1.1-3l-11-3.9l5.9-3.2
	l13.7,4.8l1.1-3l-11-3.9l8.8-4.9l-1.6-2.8L215,112l2.6-11.5l-3.1-0.7l-3.2,14.3l-5.9,3.2l2.6-11.5l-3.1-0.7l-3.2,14.3l-16.9,9.3
	l1.7-11.9l-9.8,1.4l4.7-7.8l14.4-2.8l-0.6-3.2l-11.5,2.2l4.8-8.1l-2.8-1.6l-4.8,8.1L177.3,94l-3.1,1l4.3,13.9l-4.5,7.6l-4.3-9.8
	l-8.3,7V94.3l10.9-9.7l-2.1-2.4l-8.8,7.8v-6.7l10.9-9.7l-2.1-2.4l-8.8,7.8v-9.5h-3.2v9.4l-8.7-7.8l-2.1,2.4l10.8,9.7v6.7l-8.7-7.8
	l-2.1,2.4l10.8,9.7v18.4l-6.8-5.7l-4.4,10.1l-4.9-8.7l0.1,0l4.7-13.9l-3-1l-3.8,11.3l-4.7-8.4l-2.8,1.6l4.6,8.2l-11.2-2.5l-0.7,3.1
	l14,3.1l5.3,9.3l-11.2-1.6l1.7,11.7l-17.6-9.7l-3.2-14.3l-3.1,0.7l2.6,11.5l-5.9-3.2l-3.2-14.3l-3.1,0.7l2.6,11.5l-8.9-4.9l-1.6,2.8
	l8.8,4.9l-11,3.9l1.1,3l13.7-4.8l5.9,3.2l-11,3.9l1.1,3l13.7-4.8l16,8.8l-9.9,3.7l5.9,7.8l-7.1-0.1l-9.5-11l-2.4,2.1l7.7,8.8
	l-9.4-0.1l0,3.2l9.5,0.1l-7.9,8.7l2.4,2.2l9.9-10.8l7.5,0.1l-6.8,8.2l11.3,4.8l-16.1,9.1l-13.8-4.7l-1,3l11,3.7l-5.8,3.3l-13.8-4.7
	l-1,3l11,3.7l-8.2,4.6l1.6,2.8l8.2-4.7l-2.5,11.5l3.1,0.7l3.1-14.3l5.8-3.3l-2.5,11.5l3.1,0.7l3.1-14.3l16.1-9.1l-2.1,10.8l10.8-1.1
	l-3.2,6l-14.2,3.4l0.8,3.1l11.4-2.8l-4.5,8.3l2.8,1.5l4.4-8.3l4,11l3-1.1l-5-13.7l3.4-6.3l3.9,9l8.1-6.8v18.3l-10.8,9.7l2.1,2.4
	l8.7-7.8v6.7l-10.8,9.7l2.1,2.4l8.7-7.8v9.4h3.2v-9.5l8.8,7.8l2.1-2.4l-10.9-9.7v-6.7l8.8,7.8l2.1-2.4l-10.9-9.7v-18.5l8.4,7.1
	l3.9-9l3.4,6.3l-5,13.7l3,1.1l4-11l4.4,8.3l2.8-1.5l-4.5-8.3l11.4,2.8l0.8-3.1l-14.2-3.4l-3.2-5.9l9.7,1l-2.1-10.8l16.1,9.1
	l3.1,14.3l3.1-0.7l-2.5-11.5l5.8,3.3l3.1,14.3l3.1-0.7l-2.5-11.5l8.2,4.7l1.6-2.8l-8.2-4.6l11-3.7L225.7,168.7z M146.2,122l7.1,13.3
	c-1,0.7-1.8,1.6-2.5,2.7l-13-7.2l-1.3-10.2L146.2,122z M126.3,136.1l8.5-3.4l14.8,8.2c-0.2,0.7-0.3,1.4-0.4,2.1l-17.8-0.2
	L126.3,136.1z M125.8,153l5.9-7.1l17.7,0.2c0.2,1,0.6,1.9,1.1,2.8l-14.9,8.4L125.8,153z M144.9,168.5l-9.1,1l1.6-9.5l15.1-8.5
	l-0.1-0.2c0.4,0.4,0.8,0.7,1.2,1L144.9,168.5z M158.3,171.5l-7.1,5.8l-3.3-7.6l8.6-16c0.6,0.2,1.2,0.3,1.9,0.4V171.5z M158.3,133.2
	c-0.7,0.1-1.5,0.3-2.1,0.5l-7.5-13.9l3.8-8.7l5.8,4.8V133.2z M192.9,136.1l-5.1,6.6l-17.5,0.2c-0.1-0.8-0.2-1.5-0.4-2.2l14.5-8
	L192.9,136.1z M175,121.2l8.4-1.2l-1.3,10.3l-13.5,7.5c-0.6-0.8-1.3-1.6-2-2.2L175,121.2z M161.5,116.8l7.3-6l3.6,8.3l-8.7,14.7
	c-0.7-0.3-1.5-0.5-2.2-0.6V116.8z M169,177.3l-7.5-6.1v-17.1c0.7-0.1,1.4-0.3,2-0.6l8.8,16.1L169,177.3z M175.4,168.6l-9.1-16.7
	c0.2-0.1,0.3-0.3,0.5-0.4l14.9,8.4l1.6,9.5L175.4,168.6z M183.6,157.3l-14.7-8.3c0.5-0.9,0.9-1.9,1.2-2.9l17.4-0.2l5.9,7.1
	L183.6,157.3z"/>
<path class="st17" d="M348.9,193.2c-2.1,0-3.9,1.4-4.5,3.4h-7l6-7.2c0.2,0,0.4,0.1,0.6,0.1c1.4,0,2.6-1.2,2.6-2.6s-1.2-2.6-2.6-2.6
	s-2.6,1.2-2.6,2.6c0,0.4,0.1,0.7,0.2,1.1l-7.3,8.7h-14.9c-0.2-3.7-1.2-7.3-2.9-10.4l5.4-2.8l7.9,3.2c0,0.3,0.1,0.5,0.2,0.8
	c0.5,1,1.7,1.4,2.7,0.8c1-0.5,1.4-1.7,0.8-2.7c-0.5-1-1.7-1.4-2.7-0.8c-0.1,0.1-0.3,0.2-0.4,0.3l-6.6-2.7l4.7-2.5
	c1.1,1.2,2.8,1.6,4.3,0.8c1.7-0.9,2.4-3.1,1.5-4.8c-0.9-1.7-3.1-2.4-4.8-1.5c-1.4,0.8-2.1,2.4-1.8,3.9l-4.8,2.5l1.5-7
	c0.2,0,0.3-0.1,0.5-0.2c1-0.5,1.4-1.7,0.8-2.7s-1.7-1.4-2.7-0.8c-1,0.5-1.4,1.7-0.8,2.7c0.1,0.3,0.3,0.5,0.5,0.6l-1.8,8.5l-5.4,2.9
	c-1.9-2.9-4.3-5.4-7.1-7.2l7.5-12.8l11.1-1.8c0.2,0.3,0.5,0.5,0.8,0.7c1.3,0.7,2.9,0.3,3.6-0.9c0.7-1.2,0.3-2.9-0.9-3.6
	c-1.3-0.7-2.9-0.3-3.6,0.9c-0.1,0.2-0.2,0.4-0.2,0.6l-9.2,1.5l3.5-6c2,0.6,4.3-0.2,5.4-2.1c1.3-2.2,0.6-5.1-1.7-6.4
	c-2.2-1.3-5.1-0.6-6.4,1.7c-1.1,1.8-0.7,4.1,0.7,5.6l-3.6,6.1l-3.2-8.9c0.1-0.1,0.3-0.3,0.4-0.5c0.7-1.2,0.3-2.9-0.9-3.6
	c-1.3-0.7-2.9-0.3-3.6,0.9s-0.3,2.9,0.9,3.6c0.3,0.2,0.7,0.3,1,0.3l3.8,10.7l-7.5,12.7c-3.2-1.7-6.7-2.7-10.5-2.9l0.3-5.8l6.8-5.2
	c0.2,0.1,0.5,0.2,0.8,0.2c1.1,0.1,2-0.8,2.1-1.9c0.1-1.1-0.8-2-1.9-2.1c-1.1,0-2,0.8-2.1,1.9c0,0.2,0,0.3,0,0.5l-5.6,4.3l0.2-5.3
	c1.6-0.3,2.8-1.6,2.9-3.3c0.1-2-1.4-3.6-3.4-3.7c-2-0.1-3.6,1.4-3.7,3.4c-0.1,1.6,1,3,2.4,3.5l-0.2,5.4l-5.3-4.9
	c0-0.2,0.1-0.3,0.1-0.5c0-1.1-0.8-2-1.9-2.1c-1.1,0-2,0.8-2.1,1.9c0,1.1,0.8,2,1.9,2.1c0.3,0,0.6,0,0.8-0.1l6.4,5.8l-0.3,5.8
	c-3.6,0.1-6.9,0.9-9.9,2.4l-7.6-12.9l3.8-10.7c0.4,0,0.7-0.1,1-0.3c1.2-0.7,1.7-2.3,0.9-3.6c-0.7-1.2-2.3-1.7-3.6-0.9
	c-1.3,0.7-1.7,2.3-0.9,3.6c0.1,0.2,0.2,0.3,0.4,0.5l-3.2,8.9l-3.6-6.1c1.4-1.5,1.7-3.7,0.7-5.6c-1.3-2.2-4.1-3-6.4-1.7
	c-2.2,1.3-3,4.1-1.7,6.4c1.1,1.9,3.4,2.7,5.4,2.1l3.5,6l-9.2-1.5c-0.1-0.2-0.1-0.4-0.2-0.6c-0.7-1.3-2.3-1.7-3.6-0.9
	c-1.2,0.7-1.7,2.3-0.9,3.6s2.3,1.7,3.6,0.9c0.3-0.2,0.6-0.4,0.8-0.7l11.1,1.8l7.6,12.9c-3,1.8-5.5,4.1-7.5,6.9l-5.1-2.7l-1.8-8.5
	c0.2-0.2,0.4-0.4,0.5-0.6c0.5-1,0.1-2.2-0.8-2.7c-1-0.5-2.2-0.1-2.7,0.8s-0.1,2.2,0.8,2.7c0.1,0.1,0.3,0.1,0.5,0.2l1.5,7l-4.8-2.5
	c0.3-1.5-0.4-3.1-1.8-3.9c-1.7-0.9-3.9-0.3-4.8,1.5c-0.9,1.7-0.3,3.9,1.5,4.8c1.5,0.8,3.3,0.4,4.3-0.8l4.7,2.5l-6.6,2.7
	c-0.1-0.1-0.2-0.2-0.4-0.3c-1-0.5-2.2-0.1-2.7,0.8c-0.5,1-0.1,2.2,0.8,2.7c1,0.5,2.2,0.1,2.7-0.8c0.1-0.3,0.2-0.5,0.2-0.8l7.9-3.2
	l5,2.7c-2,3.3-3.3,7.2-3.5,11.3h-15l-7.3-8.7c0.1-0.3,0.2-0.7,0.2-1.1c0-1.4-1.2-2.6-2.6-2.6c-1.5,0-2.6,1.2-2.6,2.6
	s1.2,2.6,2.6,2.6c0.2,0,0.4,0,0.6-0.1l6,7.2h-7c-0.6-1.9-2.3-3.4-4.5-3.4c-2.6,0-4.6,2.1-4.6,4.6c0,2.6,2.1,4.6,4.6,4.6
	c2.2,0,4-1.5,4.5-3.6h6.9l-6,7.1c-0.2,0-0.4-0.1-0.6-0.1c-1.5,0-2.6,1.2-2.6,2.6c0,1.4,1.2,2.6,2.6,2.6c1.4,0,2.6-1.2,2.6-2.6
	c0-0.4-0.1-0.7-0.2-1.1l7.2-8.6h15c0.1,3.9,1.2,7.6,2.9,10.8l-5.1,2.7l-7.9-3.2c0-0.3-0.1-0.5-0.2-0.8c-0.5-1-1.7-1.4-2.7-0.8
	c-1,0.5-1.4,1.7-0.8,2.7c0.5,1,1.7,1.4,2.7,0.8c0.1-0.1,0.3-0.2,0.4-0.3l6.6,2.7l-4.7,2.5c-1.1-1.2-2.8-1.6-4.3-0.8
	c-1.7,0.9-2.4,3.1-1.5,4.8c0.9,1.7,3.1,2.4,4.8,1.5c1.4-0.8,2.1-2.4,1.8-3.9l4.7-2.5l-1.5,7c-0.2,0-0.3,0.1-0.5,0.2
	c-1,0.5-1.4,1.7-0.8,2.7c0.5,1,1.7,1.4,2.7,0.8c1-0.5,1.4-1.7,0.8-2.7c-0.1-0.3-0.3-0.5-0.5-0.6l1.8-8.5l5.1-2.7
	c2,3.2,4.8,5.9,8,7.8l-7.7,13l-11.1,1.8c-0.2-0.3-0.5-0.5-0.8-0.7c-1.3-0.7-2.9-0.3-3.6,0.9c-0.7,1.3-0.3,2.9,0.9,3.6
	c1.3,0.7,2.9,0.3,3.6-0.9c0.1-0.2,0.2-0.4,0.2-0.6l9.2-1.5l-3.5,6c-2-0.6-4.3,0.2-5.4,2.1c-1.3,2.2-0.6,5.1,1.7,6.4
	c2.2,1.3,5.1,0.6,6.4-1.7c1.1-1.8,0.7-4.1-0.7-5.6l3.6-6.1l3.2,8.9c-0.1,0.1-0.3,0.3-0.4,0.5c-0.7,1.2-0.3,2.9,0.9,3.6
	c1.3,0.7,2.9,0.3,3.6-0.9c0.7-1.2,0.3-2.9-0.9-3.6c-0.3-0.2-0.7-0.3-1-0.3l-3.8-10.7l7.7-13c3,1.5,6.3,2.3,9.9,2.5l0.3,5.9l-6.4,5.8
	c-0.3-0.1-0.5-0.2-0.8-0.1c-1.1,0-2,1-1.9,2.1c0.1,1.1,1,2,2.1,1.9c1.1,0,2-1,1.9-2.1c0-0.2,0-0.3-0.1-0.5l5.3-4.9l0.2,5.4
	c-1.5,0.5-2.5,1.9-2.4,3.5c0.1,2,1.7,3.5,3.7,3.4c2-0.1,3.5-1.7,3.4-3.7c-0.1-1.7-1.3-3-2.9-3.3l-0.2-5.3l5.6,4.3c0,0.2,0,0.3,0,0.5
	c0,1.1,1,2,2.1,1.9c1.1,0,2-1,1.9-2.1c0-1.1-1-2-2.1-1.9c-0.3,0-0.6,0.1-0.8,0.2l-6.8-5.2l-0.3-5.8c3.8-0.1,7.4-1.1,10.5-2.8
	l7.4,12.6l-3.8,10.7c-0.4,0-0.7,0.1-1,0.3c-1.2,0.7-1.7,2.3-0.9,3.6c0.7,1.3,2.3,1.7,3.6,0.9c1.2-0.7,1.7-2.3,0.9-3.6
	c-0.1-0.2-0.2-0.3-0.4-0.5l3.2-8.9l3.6,6.1c-1.4,1.5-1.7,3.7-0.7,5.6c1.3,2.2,4.1,3,6.4,1.7c2.2-1.3,3-4.1,1.7-6.4
	c-1.1-1.9-3.4-2.7-5.4-2.1l-3.5-6l9.2,1.5c0.1,0.2,0.1,0.4,0.2,0.6c0.7,1.2,2.3,1.7,3.6,0.9c1.2-0.7,1.7-2.3,0.9-3.6
	c-0.7-1.2-2.3-1.7-3.6-0.9c-0.3,0.2-0.6,0.4-0.8,0.7l-11.1-1.8l-7.5-12.7c2.9-1.9,5.4-4.4,7.3-7.4l5.1,2.7l1.8,8.5
	c-0.2,0.2-0.4,0.4-0.5,0.6c-0.5,1-0.1,2.2,0.8,2.7c1,0.5,2.2,0.1,2.7-0.8c0.5-1,0.1-2.2-0.8-2.7c-0.1-0.1-0.3-0.1-0.5-0.2l-1.5-7
	l4.8,2.5c-0.3,1.5,0.4,3.1,1.8,3.9c1.7,0.9,3.9,0.3,4.8-1.5c0.9-1.7,0.3-3.9-1.5-4.8c-1.5-0.8-3.3-0.4-4.3,0.8l-4.7-2.5l6.6-2.7
	c0.1,0.1,0.2,0.2,0.4,0.3c1,0.5,2.2,0.1,2.7-0.8c0.5-1,0.1-2.2-0.8-2.7c-1-0.5-2.2-0.1-2.7,0.8c-0.1,0.3-0.2,0.5-0.2,0.8l-7.9,3.2
	l-5-2.7c1.8-3.3,2.8-7,2.9-10.9h14.9l7.2,8.6c-0.1,0.3-0.2,0.7-0.2,1.1c0,1.4,1.2,2.6,2.6,2.6s2.6-1.2,2.6-2.6
	c0-1.4-1.2-2.6-2.6-2.6c-0.2,0-0.4,0-0.6,0.1l-6-7.1h6.9c0.5,2.1,2.3,3.6,4.5,3.6c2.6,0,4.6-2.1,4.6-4.6
	C353.6,195.3,351.5,193.2,348.9,193.2z M318,194.2c-1.4-2.6-4.1-4.4-7.3-4.4c-0.6,0-1.2,0.1-1.8,0.2c1.5-1.5,2.5-3.6,2.5-5.9
	c0-1.2-0.3-2.4-0.8-3.5C314.5,184.2,317.1,188.9,318,194.2z M286.2,196.2c0.5,1.8,0.2,3.6-0.7,5.2c-0.9,1.6-2.4,2.7-4.2,3.2
	c-1.8,0.5-3.6,0.2-5.2-0.7c-3.3-1.9-4.4-6.1-2.5-9.4c0.9-1.6,2.4-2.7,4.2-3.2c0.6-0.2,1.2-0.2,1.8-0.2c1.2,0,2.4,0.3,3.4,0.9
	C284.6,193,285.7,194.4,286.2,196.2z M303.9,198c0-3.8,3.1-6.9,6.9-6.9c3.8,0,6.9,3.1,6.9,6.9c0,3.8-3.1,6.9-6.9,6.9
	C306.9,204.9,303.9,201.8,303.9,198z M310.1,184.2c0,3.8-3.1,6.9-6.9,6.9c-3.8,0-6.9-3.1-6.9-6.9c0-3.8,3.1-6.9,6.9-6.9
	C307,177.3,310.1,180.4,310.1,184.2z M295,174.6c2.7,0,5.4,0.5,7.8,1.4c-4,0.2-7.3,3.3-7.7,7.3c0-0.3-0.1-0.6-0.2-1
	c-0.6-2.1-1.9-3.9-3.8-5c-1.4-0.8-3-1.2-4.7-1.1C289.1,175.2,292,174.6,295,174.6z M285.2,177.8c0.6-0.2,1.2-0.2,1.8-0.2
	c1.2,0,2.4,0.3,3.4,0.9c1.6,0.9,2.7,2.4,3.2,4.2c0.5,1.8,0.2,3.6-0.7,5.2c-0.9,1.6-2.4,2.7-4.2,3.2c-1.8,0.5-3.6,0.2-5.2-0.7
	c-1.6-0.9-2.7-2.4-3.2-4.2c-0.5-1.8-0.2-3.6,0.7-5.2C282,179.4,283.4,178.3,285.2,177.8z M280.2,179.9c-0.1,0.2-0.2,0.3-0.3,0.4
	c-1.8,3.1-1.3,7,1,9.6c-1.1-0.2-2.3-0.2-3.5,0.2c-2.1,0.6-3.9,1.9-5,3.8c-0.3,0.5-0.5,1-0.7,1.6
	C272.5,189.2,275.6,183.7,280.2,179.9z M271.8,200.4c0.6,1.9,1.9,3.6,3.7,4.6c1.3,0.7,2.7,1.1,4.1,1.1c0.6,0,1.1-0.1,1.7-0.2
	c-1.3,1.5-2.1,3.4-2.1,5.5c0,1.9,0.7,3.7,1.8,5.1C275.9,212.8,272.5,207,271.8,200.4z M280.4,211.4c0-3.8,3.1-6.9,6.9-6.9
	c3.8,0,6.9,3.1,6.9,6.9c0,3.8-3.1,6.9-6.9,6.9C283.5,218.3,280.4,215.2,280.4,211.4z M295,221.3c-3.2,0-6.3-0.7-9-1.8
	c0.4,0.1,0.9,0.1,1.3,0.1c3.9,0,7.2-2.8,8-6.4c0.9,3.6,4.1,6.3,7.9,6.3c0.4,0,0.7,0,1.1-0.1C301.4,220.6,298.3,221.3,295,221.3z
	 M303.2,218.2c-3.8,0-6.9-3.1-6.9-6.9c0-3.8,3.1-6.9,6.9-6.9c3.8,0,6.9,3.1,6.9,6.9C310.1,215.1,307,218.2,303.2,218.2z M310,215.8
	c0.9-1.3,1.4-2.9,1.4-4.5c0-2-0.7-3.8-1.9-5.2c0.4,0.1,0.8,0.1,1.2,0.1c3.2,0,5.9-1.8,7.3-4.4C317.1,207.3,314.2,212.3,310,215.8z"
	/>
</svg>
