<?xml version="1.0" encoding="UTF-8" standalone="no"?>
<svg
   xmlns:dc="http://purl.org/dc/elements/1.1/"
   xmlns:cc="http://creativecommons.org/ns#"
   xmlns:rdf="http://www.w3.org/1999/02/22-rdf-syntax-ns#"
   xmlns:svg="http://www.w3.org/2000/svg"
   xmlns="http://www.w3.org/2000/svg"
   xmlns:sodipodi="http://sodipodi.sourceforge.net/DTD/sodipodi-0.dtd"
   xmlns:inkscape="http://www.inkscape.org/namespaces/inkscape"
   version="1.0"
   width="48"
   height="48"
   viewBox="0 0 36 36"
   preserveAspectRatio="xMidYMid meet"
   id="svg8"
   sodipodi:docname="contract.svg"
   inkscape:version="0.92.2 5c3e80d, 2017-08-06">
  <defs
     id="defs12" />
  <sodipodi:namedview
     pagecolor="#ffffff"
     bordercolor="#666666"
     borderopacity="1"
     objecttolerance="10"
     gridtolerance="10"
     guidetolerance="10"
     inkscape:pageopacity="0"
     inkscape:pageshadow="2"
     inkscape:window-width="2560"
     inkscape:window-height="1319"
     id="namedview10"
     showgrid="false"
     units="px"
     inkscape:zoom="14.75"
     inkscape:cx="2.960452"
     inkscape:cy="26.983051"
     inkscape:window-x="0"
     inkscape:window-y="0"
     inkscape:window-maximized="1"
     inkscape:current-layer="svg8" />
  <metadata
     id="metadata2">
Created by potrace 1.12, written by Peter Selinger 2001-2015
<rdf:RDF>
  <cc:Work
     rdf:about="">
    <dc:format>image/svg+xml</dc:format>
    <dc:type
       rdf:resource="http://purl.org/dc/dcmitype/StillImage" />
    <dc:title />
  </cc:Work>
</rdf:RDF>
</metadata>
  <g
     transform="matrix(0.25726392,0,0,-0.25726392,-2.4200968,38.399525)"
     id="g6"
     style="fill:#000000;stroke:none">
    <path
       d="M 10,80 V 20 h 70 70 v 60 60 H 80 10 Z m 130,40 c 0,-6 -27,-10 -60,-10 -33,0 -60,4 -60,10 0,6 27,10 60,10 33,0 60,-4 60,-10 z m 0,-40 c 0,-18 -7,-20 -60,-20 -53,0 -60,2 -60,20 0,18 7,20 60,20 53,0 60,-2 60,-20 z m 0,-40 c 0,-6 -27,-10 -60,-10 -33,0 -60,4 -60,10 0,6 27,10 60,10 33,0 60,-4 60,-10 z"
       id="path4"
       inkscape:connector-curvature="0" />
  </g>
  <path
     style="fill:#ffff99;stroke-width:0.06779661"
     d="M 19.787571,40.811729 C 11.34159,40.472994 5.6672495,39.519325 4.0622697,38.168823 2.9596489,37.241029 4.2327019,36.210033 7.4004848,35.465333 13.784778,33.964478 27.793169,33.627567 36.838418,34.757331 c 4.992659,0.62359 7.898305,1.611164 7.898305,2.684483 0,0.285443 -0.182528,0.609511 -0.458023,0.813194 -1.57304,1.162998 -6.123134,2.011809 -13.067401,2.437696 -1.580453,0.09693 -9.831227,0.182893 -11.423728,0.119025 z"
     id="path11"
     inkscape:connector-curvature="0"
     transform="scale(0.75)" />
  <path
     style="fill:#ffff99;stroke-width:0.06779661"
     d="M 19.143503,30.544115 C 13.508838,30.473845 10.851782,30.296214 8.5672317,29.837064 6.8102722,29.483949 5.7825456,29.024629 4.9898181,28.238217 4.1402594,27.395426 3.8446612,26.605257 3.7048661,24.80339 c -0.095021,-1.224764 -0.00295,-2.784685 0.2142773,-3.630541 0.6872382,-2.675979 2.9714945,-3.645631 9.5294446,-4.045191 4.74229,-0.288936 18.145808,-0.248805 22.576271,0.0676 3.013031,0.215175 5.059702,0.6348 6.372881,1.30662 0.731576,0.374273 1.483852,1.116639 1.787446,1.7639 0.392472,0.836749 0.491476,1.402586 0.532396,3.042822 0.04108,1.646778 -0.03316,2.49284 -0.290299,3.308354 -0.747462,2.370529 -2.968281,3.324357 -8.673611,3.725262 -2.773754,0.194908 -10.064689,0.283533 -16.610169,0.201904 z"
     id="path15"
     inkscape:connector-curvature="0"
     transform="scale(0.75)" />
  <path
     style="fill:#ffff99;stroke-width:0.06779661"
     d="M 22.228249,13.417496 C 18.247779,13.368969 13.899968,13.076763 10.744777,12.64572 6.6858741,12.091218 4.1115201,11.223725 3.720016,10.27855 3.4270743,9.5713263 4.5363596,8.787267 6.6373389,8.216543 12.246515,6.6928291 24.973352,6.1844281 34.752843,7.0934085 c 5.194956,0.4828588 8.666562,1.3212987 9.684107,2.3388426 0.24885,0.2488512 0.29973,0.3432641 0.29952,0.5557951 -3.39e-4,0.3650978 -0.208798,0.6594968 -0.68471,0.9670928 -1.657808,1.071493 -6.043462,1.86597 -12.551708,2.273787 -1.40672,0.08815 -7.548764,0.259148 -7.848075,0.218499 -0.05593,-0.0076 -0.69661,-0.02106 -1.423728,-0.02993 z"
     id="path17"
     inkscape:connector-curvature="0"
     transform="scale(0.75)" />
</svg>
