<?xml version="1.0" encoding="utf-8"?>
<!-- Generator: Adobe Illustrator 18.0.0, SVG Export Plug-In . SVG Version: 6.00 Build 0)  -->
<!DOCTYPE svg PUBLIC "-//W3C//DTD SVG 1.1//EN" "http://www.w3.org/Graphics/SVG/1.1/DTD/svg11.dtd">
<svg xmlns="http://www.w3.org/2000/svg" xmlns:xlink="http://www.w3.org/1999/xlink" version="1.1" id="Layer_1" x="0px" y="0px" viewBox="0 0 111 68" xml:space="preserve">
<g>
	<g>
		<linearGradient id="SVGID_1_" gradientUnits="userSpaceOnUse" x1="103.7199" y1="54.1205" x2="85.5806" y2="38.7365">
			<stop offset="0" style="stop-color:#E6E7E8"/>
			<stop offset="1" style="stop-color:#FFFFFF"/>
		</linearGradient>
		<path fill="url(#SVGID_1_)" d="M107.1,44.5c0-2.3-0.8-3.7-4.7-4.5c-4-0.8-9.5-2.4-9.6-2.4l-0.7-0.2v-4.9c-1.4,0.6-2.9,1-4.5,1    s-3.1-0.3-4.5-1v4.9l-0.7,0.2c-0.1,0-5.6,1.6-9.6,2.4c-0.9,0.2-1.6,0.4-2.2,0.7c2.1,0.5,4.5,1.1,6.6,1.5c2,0.4,7.3,1.5,9.4,6.4    h20.5V44.5z"/>
		<g>
			<linearGradient id="SVGID_2_" gradientUnits="userSpaceOnUse" x1="113.3075" y1="46.0114" x2="91.0845" y2="23.7884">
				<stop offset="0" style="stop-color:#E6E7E8"/>
				<stop offset="1" style="stop-color:#FFFFFF"/>
			</linearGradient>
			<ellipse fill="url(#SVGID_2_)" cx="87.7" cy="20.4" rx="10.9" ry="12"/>
			<path fill="#9CB359" d="M102.8,38c-3.1-0.6-7.1-1.7-8.7-2.2v-4.5c3.3-2.3,5.4-6.3,5.4-10.9c0-7.2-5.3-13-11.9-13     s-11.9,5.8-11.9,13c0,4.6,2.2,8.6,5.4,10.9v4.5c-1.6,0.5-5.6,1.5-8.7,2.2c-2,0.4-3.4,1-4.5,1.9c0.8,0.2,1.7,0.4,2.6,0.7     c0.6-0.3,1.3-0.5,2.2-0.7c4-0.8,9.5-2.4,9.6-2.4l0.7-0.2v-4.9c1.4,0.6,2.9,1,4.5,1s3.1-0.3,4.5-1v4.9l0.7,0.2     c0.1,0,5.6,1.6,9.6,2.4c3.9,0.8,4.7,2.2,4.7,4.5v4.1H86.6c0.3,0.6,0.4,1.3,0.6,2h22v-6.1C109.1,40.9,107.2,38.9,102.8,38z      M87.6,31.5c-5.5,0-9.9-4.9-9.9-11s4.4-11,9.9-11s9.9,4.9,9.9,11S93.1,31.5,87.6,31.5z"/>
		</g>
	</g>
	<g>
		<linearGradient id="SVGID_3_" gradientUnits="userSpaceOnUse" x1="87.6395" y1="74.6624" x2="47.3895" y2="35.6624">
			<stop offset="0" style="stop-color:#E6E7E8"/>
			<stop offset="1" style="stop-color:#FFFFFF"/>
		</linearGradient>
		<path fill="url(#SVGID_3_)" d="M76.7,46.3c-5.5-1.1-12.9-3.2-12.9-3.2v-7.8c4.4-2.8,7.3-8.1,7.3-14.1c0-9-6.6-16.3-14.8-16.3    c-0.1,0-0.2,0-0.2,0c-0.1,0-0.2,0-0.2,0c-8.1,0-14.8,7.3-14.8,16.3c0,6,3,11.2,7.3,14.1v7.8c0,0-7.4,2.1-12.9,3.2    c-5.5,1.1-7.4,3.3-7.4,7.4V62h0.5H56h0.5h27.2h0.5v-8.3C84.1,49.6,82.2,47.4,76.7,46.3z"/>
		<path fill="#39617A" d="M85.1,63H27.2v-9.3c0-4.7,2.5-7.2,8.2-8.4c4.4-0.9,10.1-2.4,12.1-3v-6.6c-4.5-3.2-7.3-8.7-7.3-14.6    c0-9.5,7.1-17.3,15.8-17.3c0.1,0,0.1,0,0.2,0c0.1,0,0.2,0,0.3,0c8.7,0,15.8,7.8,15.8,17.3c0,5.9-2.8,11.4-7.3,14.6v6.6    c2,0.6,7.7,2.1,12.1,3c5.8,1.2,8.2,3.7,8.2,8.4V63z M29.2,61h53.9v-7.3c0-3.2-1.1-5.3-6.6-6.4c-5.4-1.1-12.9-3.2-13-3.2l-0.7-0.2    v-9.1l0.5-0.3c4.2-2.7,6.9-7.8,6.9-13.2c0-8.4-6.2-15.3-13.8-15.3c-0.1,0-0.2,0-0.2,0c-0.1,0-0.2,0-0.2,0c0,0,0,0,0,0    c-7.6,0-13.8,6.9-13.8,15.3c0,5.4,2.6,10.5,6.9,13.2l0.5,0.3v9.1l-0.7,0.2c-0.1,0-7.5,2.2-13,3.2c-5.5,1.1-6.6,3.3-6.6,6.4V61z"/>
	</g>
	<g>
		
			<linearGradient id="SVGID_4_" gradientUnits="userSpaceOnUse" x1="49.0533" y1="54.1205" x2="30.9139" y2="38.7365" gradientTransform="matrix(-1 0 0 1 57.6953 0)">
			<stop offset="0" style="stop-color:#E6E7E8"/>
			<stop offset="1" style="stop-color:#FFFFFF"/>
		</linearGradient>
		<path fill="url(#SVGID_4_)" d="M5.2,44.5c0-2.3,0.8-3.7,4.7-4.5c4-0.8,9.5-2.4,9.6-2.4l0.7-0.2v-4.9c1.4,0.6,2.9,1,4.5,1    s3.1-0.3,4.5-1v4.9l0.7,0.2c0.1,0,5.6,1.6,9.6,2.4c0.9,0.2,1.6,0.4,2.2,0.7c-2.1,0.5-4.5,1.1-6.6,1.5c-2,0.4-7.3,1.5-9.4,6.4H5.2    V44.5z"/>
		<g>
			
				<linearGradient id="SVGID_5_" gradientUnits="userSpaceOnUse" x1="58.6408" y1="46.0114" x2="36.4179" y2="23.7884" gradientTransform="matrix(-1 0 0 1 57.6953 0)">
				<stop offset="0" style="stop-color:#E6E7E8"/>
				<stop offset="1" style="stop-color:#FFFFFF"/>
			</linearGradient>
			<ellipse fill="url(#SVGID_5_)" cx="24.6" cy="20.4" rx="10.9" ry="12"/>
			<path fill="#9CB359" d="M3.2,44.5v6.1h22c0.1-0.7,0.3-1.4,0.6-2H5.2v-4.1c0-2.3,0.8-3.7,4.7-4.5c4-0.8,9.5-2.4,9.6-2.4l0.7-0.2     v-4.9c1.4,0.6,2.9,1,4.5,1s3.1-0.3,4.5-1v4.9l0.7,0.2c0.1,0,5.6,1.6,9.6,2.4c0.9,0.2,1.6,0.4,2.2,0.7c0.9-0.2,1.8-0.5,2.6-0.7     c-1-0.9-2.5-1.5-4.5-1.9c-3.1-0.6-7.1-1.7-8.7-2.2v-4.5c3.3-2.3,5.4-6.3,5.4-10.9c0-7.2-5.3-13-11.9-13s-11.9,5.8-11.9,13     c0,4.6,2.2,8.6,5.4,10.9v4.5c-1.6,0.5-5.6,1.5-8.7,2.2C5.2,38.9,3.2,40.9,3.2,44.5z M14.8,20.4c0-6.1,4.4-11,9.9-11     s9.9,4.9,9.9,11s-4.4,11-9.9,11S14.8,26.5,14.8,20.4z"/>
		</g>
	</g>
</g>
</svg>
