<?xml version="1.0" encoding="UTF-8" standalone="no"?>
<svg
   xmlns:dc="http://purl.org/dc/elements/1.1/"
   xmlns:cc="http://creativecommons.org/ns#"
   xmlns:rdf="http://www.w3.org/1999/02/22-rdf-syntax-ns#"
   xmlns:svg="http://www.w3.org/2000/svg"
   xmlns="http://www.w3.org/2000/svg"
   xmlns:sodipodi="http://sodipodi.sourceforge.net/DTD/sodipodi-0.dtd"
   xmlns:inkscape="http://www.inkscape.org/namespaces/inkscape"
   version="1.0"
   width="48"
   height="48"
   viewBox="0 0 36 36"
   preserveAspectRatio="xMidYMid meet"
   id="svg8"
   sodipodi:docname="stakeholder.svg"
   inkscape:version="0.92.2 5c3e80d, 2017-08-06">
  <defs
     id="defs12" />
  <sodipodi:namedview
     pagecolor="#ffffff"
     bordercolor="#666666"
     borderopacity="1"
     objecttolerance="10"
     gridtolerance="10"
     guidetolerance="10"
     inkscape:pageopacity="0"
     inkscape:pageshadow="2"
     inkscape:window-width="2560"
     inkscape:window-height="1319"
     id="namedview10"
     showgrid="false"
     units="px"
     inkscape:zoom="11.0625"
     inkscape:cx="6.4180791"
     inkscape:cy="10.666667"
     inkscape:window-x="0"
     inkscape:window-y="0"
     inkscape:window-maximized="1"
     inkscape:current-layer="svg8" />
  <metadata
     id="metadata2">
Created by potrace 1.10, written by Peter Selinger 2001-2011
<rdf:RDF>
  <cc:Work
     rdf:about="">
    <dc:format>image/svg+xml</dc:format>
    <dc:type
       rdf:resource="http://purl.org/dc/dcmitype/StillImage" />
    <dc:title></dc:title>
  </cc:Work>
</rdf:RDF>
</metadata>
  <g
     transform="matrix(0.22780608,0,0,-0.22780608,-0.31337949,38.797084)"
     id="g6"
     style="fill:#000000;stroke:none">
    <path
       d="M 16,114 C -18,80 12,50 80,50 c 46,0 80,17 80,40 0,38 -112,57 -144,24 z m 74,-9 C 80,93 80,87 90,75 101,62 97,60 67,60 25,60 1,82 20,105 c 7,8 28,15 47,15 30,0 34,-2 23,-15 z m 50,-1 c 11,-12 10,-18 -3,-32 -16,-15 -18,-15 -34,0 -13,14 -14,20 -3,32 16,20 24,20 40,0 z"
       id="path4"
       inkscape:connector-curvature="0" />
  </g>
  <path
     style="fill:#ccccff;stroke-width:0.09039548"
     d="M 18.775141,33.439706 C 12.69016,33.233763 7.5923718,31.392047 5.2044088,28.536907 4.640097,27.862194 3.968388,26.549105 3.8223024,25.835099 3.6808985,25.143975 3.7018179,23.977842 3.8679297,23.291651 c 0.33089,-1.366874 1.5006289,-3.263912 2.5131817,-4.075781 2.3897303,-1.916095 6.9289876,-3.412772 11.5286466,-3.801208 1.49297,-0.126079 6.383547,-0.0641 7.780637,0.0986 2.009174,0.233987 2.892656,0.684025 2.892656,1.47349 0,0.416401 -0.631377,1.469544 -1.662877,2.773696 -1.677481,2.120881 -2.205557,3.131439 -2.291938,4.385988 -0.05229,0.759394 0.117943,1.506628 0.529348,2.323587 0.38019,0.754978 0.674181,1.183372 1.661004,2.420368 0.977105,1.224814 1.348838,1.759784 1.58625,2.282806 0.505786,1.11426 -0.126763,1.703824 -2.164999,2.017875 -0.803843,0.123856 -5.115646,0.322967 -6.244359,0.288353 -0.273446,-0.0084 -0.822599,-0.02626 -1.220339,-0.03972 z"
     id="path14"
     inkscape:connector-curvature="0"
     transform="scale(0.75)" />
  <path
     style="fill:#ccccff;stroke-width:0.09039548"
     d="m 35.127892,33.061707 c -2.014926,-0.746577 -6.129355,-4.874569 -7.088278,-7.111648 -0.297613,-0.6943 -0.405337,-1.533726 -0.275708,-2.148403 0.232265,-1.101358 0.775925,-1.950102 2.682747,-4.188216 3.966393,-4.655515 6.041153,-5.10832 9.284231,-2.026231 0.893204,0.848865 3.098509,3.400435 3.683473,4.261832 1.569831,2.31168 1.213225,3.972188 -1.542429,7.182201 -0.730281,0.850689 -2.444059,2.427407 -3.414737,3.141641 -1.315188,0.967728 -2.362054,1.24721 -3.329299,0.888824 z"
     id="path16"
     inkscape:connector-curvature="0"
     transform="scale(0.75)" />
</svg>
