<?xml version="1.0" encoding="UTF-8"?>
<svg width="335.89" height="364.45" enable-background="new 0 0 595.28 841.89" viewBox="0 0 335.89449 364.45068" xmlns="http://www.w3.org/2000/svg" xmlns:xlink="http://www.w3.org/1999/xlink">
 <defs>
  <filter id="m">
   <feGaussianBlur stdDeviation="1.8147"/>
  </filter>
  <linearGradient id="o">
   <stop stop-color="#fcfc80" offset="0"/>
   <stop stop-color="#dcb834" offset=".25"/>
   <stop stop-color="#642800" offset=".5"/>
   <stop offset="1"/>
  </linearGradient>
  <linearGradient id="n">
   <stop stop-color="#fff" offset="0"/>
   <stop stop-color="#fcf8d9" offset=".0625"/>
   <stop stop-color="#f9f1b3" offset=".125"/>
   <stop stop-color="#f4e468" offset=".25"/>
   <stop stop-color="#d4a418" offset=".5"/>
   <stop offset="1"/>
  </linearGradient>
  <linearGradient id="l" x1="134.75" x2="233.53" y1="42.364" y2="46.414" gradientUnits="userSpaceOnUse">
   <stop stop-color="#400400" offset="0"/>
   <stop stop-color="#6c3000" offset=".208"/>
   <stop stop-color="#d4a81c" offset=".4697"/>
   <stop stop-color="#703400" offset=".6836"/>
   <stop stop-color="#6c3000" offset="1"/>
  </linearGradient>
  <linearGradient id="k" x1="125.64" x2="247.89" y1="150.57" y2="-6.8403" gradientUnits="userSpaceOnUse">
   <stop offset="0"/>
   <stop stop-color="#6c3000" offset=".2927"/>
   <stop stop-color="#d4a81c" offset=".4733"/>
   <stop stop-color="#703400" offset=".6836"/>
   <stop offset="1"/>
  </linearGradient>
  <linearGradient id="j" x1="174.68" x2="183.52" y1="156.99" y2="35.74" gradientUnits="userSpaceOnUse">
   <stop offset="0"/>
   <stop stop-color="#6c3000" offset=".1145"/>
   <stop stop-color="#d4a81c" offset=".2541"/>
   <stop stop-color="#703400" offset=".6836"/>
   <stop offset="1"/>
  </linearGradient>
  <radialGradient id="a" cx="173.93" cy="182.93" r="171.56" gradientTransform="matrix(1.035 -.51488 .482 .96894 -93.797 93.489)" gradientUnits="userSpaceOnUse">
   <stop stop-color="#fff" offset="0"/>
   <stop stop-color="#fcfada" offset=".0216"/>
   <stop stop-color="#f9f5b5" offset=".0432"/>
   <stop stop-color="#f4ec6c" offset=".0865"/>
   <stop stop-color="#d8ac24" offset=".2229"/>
   <stop stop-color="#b87c00" offset=".361"/>
   <stop stop-color="#905400" offset=".5288"/>
   <stop stop-color="#602400" offset=".6644"/>
   <stop offset="1"/>
  </radialGradient>
  <radialGradient id="g" cx="167.32" cy="112.73" r="6.9987" gradientTransform="matrix(.9343 -1.0682 4.4122 3.8591 -479.49 -139.39)" gradientUnits="userSpaceOnUse">
   <stop stop-color="#fff" offset="0"/>
   <stop stop-color="#fcf8d9" offset=".0578"/>
   <stop stop-color="#f9f1b3" offset=".125"/>
   <stop stop-color="#f4e468" offset=".25"/>
   <stop stop-color="#d4a418" offset=".5"/>
   <stop offset="1"/>
  </radialGradient>
  <radialGradient id="i" cx="173.97" cy="80.972" r="12.372" gradientTransform="matrix(.71389 -.80575 5.818 5.1546 -419.21 -195.27)" gradientUnits="userSpaceOnUse" xlink:href="#n"/>
  <radialGradient id="h" cx="181.48" cy="44.234" r="5.4812" gradientTransform="matrix(1.6314 -.06493 .03751 .9425 -116.25 14.327)" gradientUnits="userSpaceOnUse" xlink:href="#o"/>
  <radialGradient id="f" cx="187.91" cy="79.595" r="15.408" gradientTransform="matrix(5.3806 -3.8836 .4319 .59838 -857.53 761.61)" gradientUnits="userSpaceOnUse" xlink:href="#n"/>
  <radialGradient id="e" cx="168.45" cy="138.45" r="5.3986" gradientTransform="matrix(1.0652 -1.0276 2.6974 2.7963 -382.19 -72.425)" gradientUnits="userSpaceOnUse" xlink:href="#n"/>
  <radialGradient id="d" cx="178.91" cy="142.26" r="6.0182" gradientTransform="matrix(3.5592 -2.5838 .59942 .82573 -543.16 487.13)" gradientUnits="userSpaceOnUse" xlink:href="#n"/>
  <radialGradient id="c" cx="250.75" cy="30.159" r="171.56" gradientTransform="matrix(.02637 .00385 -.00995 .06809 177.83 10.865)" gradientUnits="userSpaceOnUse" xlink:href="#o"/>
  <radialGradient id="b" cx="181.29" cy="116.45" r="6.7267" gradientTransform="matrix(3.4635 -2.786 .52103 .64775 -507.28 545.07)" gradientUnits="userSpaceOnUse" xlink:href="#n"/>
 </defs>
 <g transform="translate(-1.5704e-6 3.1642e-6)">
  <g transform="matrix(.43595 .89997 .89997 -.43595 -73.184 96.742)">
   <path d="m282.11 78.04-2.9375 52.531 13.938-6.0938c-3.7347-6.0716 3.0312-18.094 12.406-6.375 0.58597-0.27434 13.5-5.5312 13.5-5.5312s-0.52564-13.171 24.188-7.25c0 0-10.524 19.672-21.344 13.406l-13.25 6.4688c1.885 3.9087-3.531 13.833-11.938 5.7812l-14.344 6.9688 44.844 30.125-66.5-19.812-13.812 6.375 28.844 19.156-40.469-13.469-11.031 4.75 13.563 14.906-31.5-7.375-17.25 4.4062 13.781-11.625 13.688-28.531 2.5625 18.938 10.875-4.3125s13.982-39.942 14.438-40.5c0.45575-0.56695-1.0938 36.125-1.0938 36.125l14.562-6.375 24.281-62.688z" fill="url(#a)" filter="url(#m)" opacity=".7037"/>
   <g transform="matrix(.50933 .86057 -.86057 .50933 242.91 -59.341)">
    <path d="m132.73 38.103 44.608 27.897 1.3799-15.149c-7.1199 0.34517-14.391-11.378 0.39529-13.943 0.0421-0.64564 1.6618-14.494 1.6618-14.494s-11.793-5.8888 5.308-24.686c0 0 12.162 18.703 1.4566 25.163l-0.71989 14.727c4.3332 0.23278 10.418 9.7622-0.68953 13.246l-0.80909 15.926 48.011-24.767-49.416 48.712-1.0732 15.175 30.688-16.036-31.309 28.963-1.1562 11.955 19.598-4.6968-21.647 24.043-4.4552 17.237-3.5416-17.678-18.399-25.746 17.827 6.884 1.4642-11.607s-28.255-31.505-28.524-32.173c-0.27702-0.67261 31.123 18.373 31.123 18.373l1.4347-15.832-43.217-51.493z" fill="url(#l)"/>
    <path d="m145.9 49.881c-0.18639 0.199-0.18527 0.29862-0.0918 0.55583 10.546 12.735 21.187 25.407 31.786 38.106-0.57915 6.8199-1.1588 13.646-1.771 20.462-2.0583-1.2372-4.0924-2.4947-6.1466-3.7386-4.6816-2.797-9.2814-5.7362-14.018-8.4264-0.70077-0.08744-0.58035 0.86143-0.12888 1.1418 6.2741 6.9481 12.757 13.749 19.103 20.641-0.41238 5.419-0.78879 10.832-1.2692 16.244-4.3512-1.7349-8.6308-3.7391-12.956-5.5593-0.48034-0.18918-1.5076-0.88016-1.5416 0.0791 4.5855 6.4447 9.4407 12.705 14.159 19.061 0.36637 3.6694 0.6786 7.3392 1.1194 10.995-0.0455 0.47805 0.27576 1.4886 0.8747 0.87363 1.1738-4.1493 2.0872-8.386 3.1387-12.576 5.3929-5.6758 10.812-11.331 16.181-17.027 0.40951-0.27012 1.1151-1.2231 0.21928-1.3061-5.1994 1.324-10.339 2.9194-15.502 4.3826 0.39164-5.2996 0.75451-10.623 1.1308-15.928 6.5957-5.698 13.232-11.372 19.793-17.109 0.46792-0.23012 1.257-1.2131 0.27403-1.276-6.6926 3.4516-13.284 7.153-19.971 10.626 0.31347-6.7024 0.69667-13.452 1.1712-20.15 12.891-12.666 25.907-25.2 38.806-37.857 0.50576-0.22374 0.93608-1.2644 0.0317-1.1596-12.486 6.5196-24.861 13.223-37.338 19.761 0.28559-7.1109 0.62544-14.22 0.99345-21.318 1.2324-0.29173 2.4767-0.54774 3.5982-1.159 2.085-1.0126 3.6593-3.691 2.4708-5.9168-0.94718-1.9963-3.1958-2.6531-5.1458-3.2237 0.27383-5.7336 0.62064-11.476 0.94347-17.208 1.2097-1.337 2.2805-2.8291 2.9197-4.5284 1.8753-4.6496 0.78075-9.9082-1.4392-14.239-0.37852-0.50368-0.51955-1.6899-1.336-1.5911-1.257 0.99813-2.2731 2.241-3.3247 3.4495-1.9767 2.6939-3.9305 5.784-4.0417 9.2256-0.20953 2.8652 1.1899 5.6831 3.5296 7.328-0.41567 5.4897-0.75847 10.999-1.2226 16.484-0.50743 0.08205-1.0538 0.04028-1.5717 0.13391-2.1783 0.40046-4.7786 1.0957-5.7535 3.3259-1.0532 1.495-0.80842 3.4666 0.12648 4.9561 1.4208 2.3021 4.2403 3.1313 6.7942 3.2746-0.50842 6.6659-1.17 13.38-1.8667 20.053-10.172-6.1455-20.213-12.475-30.341-18.692-0.79449-0.33396-1.5052-1.2217-2.3875-1.171z" fill="url(#k)"/>
    <path d="m153.96 56.953c8.2388 4.9705 16.514 9.8771 24.744 14.863-0.31464 4.5359-0.60816 9.0661-0.95518 13.599-7.6313-9.1182-15.293-18.223-22.895-27.364l-0.89383-1.0982z" fill="url(#i)"/>
    <path d="m183.85558,22.0042c.08.0033.25348.18673.30117.16571-.23516,4.81914-.43745,9.63877-.70889,14.44786-.0862.50372.17367,1.46413-.64499,1.10751 .3539-5.21203.5126-10.44071 1.00756-15.63892-.004-.04796.0185-.08328.0452-.08209z" fill="url(#a)"/>
    <path d="m176.27 42.979c1.1308-1.6069 3.4495-1.7757 5.2343-1.8638 1.746 0.03117 3.9257 0.08501 5.0845 1.5849 0.86989 1.3108 0.0683 3.0083-1.2082 3.6868-2.2309 1.0304-5.0236 1.3853-7.3137 0.32734-1.4972-0.45818-2.6223-2.2579-1.797-3.7352z" fill="url(#h)"/>
    <path d="m181.85 49.967c0.12459-0.0835 0.35647-0.07972 0.52164-0.10533-1.8981 29.19-3.7739 58.367-5.728 87.552-0.45388 5.1549-0.49822 10.369-1.5456 15.45-0.18353-1.5524-0.36265-3.0983-0.54411-4.6509 2.4296-32.755 4.7852-65.513 7.2961-98.246z" fill="url(#j)"/>
    <path d="m161.56 102.4c4.6794 3.0758 9.3602 6.1674 13.997 9.3067-0.21818 1.5904-0.45337 3.1924-0.70589 4.7835-4.396-4.4852-8.6655-9.1577-12.983-13.742-0.1029-0.11129-0.20508-0.2365-0.30798-0.3478z" fill="url(#g)"/>
    <path d="m182.98 73.061c9.857-5.4717 19.772-10.835 29.674-16.202-10.261 10.093-20.532 20.235-30.815 30.269 0.31823-4.525 0.67837-9.0364 1.0798-13.566l0.0617-0.50108z" fill="url(#f)"/>
    <path d="m162.18 131.67c3.6153 1.7461 7.235 3.4817 10.797 5.3344-0.0879 2.4662-0.24849 4.9472-0.40376 7.4108-3.4505-4.1592-6.8933-8.4231-10.299-12.658l-0.0945-0.0876z" fill="url(#e)"/>
    <path d="m178.82 136.12c3.7114-1.2749 7.4727-2.3534 11.253-3.403-4.0124 4.0912-7.9977 8.2165-12.036 12.281 0.0598-1.3377 0.21272-2.6946 0.32652-4.0292l0.45673-4.8492z" fill="url(#d)"/>
    <path d="m183 9.3688c0.76555-1.3596 1.5803-2.7331 2.5609-3.9412 0.43288 0.6224 0.72157 1.712 1.0332 2.5302 0.74623 2.5402 1.7426 5.392 0.63665 7.9833-0.58226 1.4475-1.6052 3.279-3.3494 3.3646-1.5694-0.18123-1.9899-2.0131-2.3324-3.2807-0.72796-2.3053 0.32114-4.6663 1.451-6.6563z" fill="url(#c)"/>
    <path d="m179.93 111.93 13.453-7.0713-13.431 11.184z" fill="url(#b)"/>
   </g>
  </g>
  <g transform="matrix(.51681 .8561 -.8561 .51681 225.81 -66.645)">
   <path d="m282.11 78.04-2.9375 52.531 13.938-6.0938c-3.7347-6.0716 3.0312-18.094 12.406-6.375 0.58597-0.27434 13.5-5.5312 13.5-5.5312s-0.52564-13.171 24.188-7.25c0 0-10.524 19.672-21.344 13.406l-13.25 6.4688c1.885 3.9087-3.531 13.833-11.938 5.7812l-14.344 6.9688 44.844 30.125-66.5-19.812-13.812 6.375 28.844 19.156-40.469-13.469-11.031 4.75 13.563 14.906-31.5-7.375-17.25 4.4062 13.781-11.625 13.688-28.531 2.5625 18.938 10.875-4.3125s13.982-39.942 14.438-40.5c0.45575-0.56695-1.0938 36.125-1.0938 36.125l14.562-6.375 24.281-62.688z" fill="url(#a)" filter="url(#m)" opacity=".7037"/>
   <g transform="matrix(.50933 .86057 -.86057 .50933 242.91 -59.341)">
    <path d="m132.73 38.103 44.608 27.897 1.3799-15.149c-7.1199 0.34517-14.391-11.378 0.39529-13.943 0.0421-0.64564 1.6618-14.494 1.6618-14.494s-11.793-5.8888 5.308-24.686c0 0 12.162 18.703 1.4566 25.163l-0.71989 14.727c4.3332 0.23278 10.418 9.7622-0.68953 13.246l-0.80909 15.926 48.011-24.767-49.416 48.712-1.0732 15.175 30.688-16.036-31.309 28.963-1.1562 11.955 19.598-4.6968-21.647 24.043-4.4552 17.237-3.5416-17.678-18.399-25.746 17.827 6.884 1.4642-11.607s-28.255-31.505-28.524-32.173c-0.27702-0.67261 31.123 18.373 31.123 18.373l1.4347-15.832-43.217-51.493z" fill="url(#l)"/>
    <path d="m145.9 49.881c-0.18639 0.199-0.18527 0.29862-0.0918 0.55583 10.546 12.735 21.187 25.407 31.786 38.106-0.57915 6.8199-1.1588 13.646-1.771 20.462-2.0583-1.2372-4.0924-2.4947-6.1466-3.7386-4.6816-2.797-9.2814-5.7362-14.018-8.4264-0.70077-0.08744-0.58035 0.86143-0.12888 1.1418 6.2741 6.9481 12.757 13.749 19.103 20.641-0.41238 5.419-0.78879 10.832-1.2692 16.244-4.3512-1.7349-8.6308-3.7391-12.956-5.5593-0.48034-0.18918-1.5076-0.88016-1.5416 0.0791 4.5855 6.4447 9.4407 12.705 14.159 19.061 0.36637 3.6694 0.6786 7.3392 1.1194 10.995-0.0455 0.47805 0.27576 1.4886 0.8747 0.87363 1.1738-4.1493 2.0872-8.386 3.1387-12.576 5.3929-5.6758 10.812-11.331 16.181-17.027 0.40951-0.27012 1.1151-1.2231 0.21928-1.3061-5.1994 1.324-10.339 2.9194-15.502 4.3826 0.39164-5.2996 0.75451-10.623 1.1308-15.928 6.5957-5.698 13.232-11.372 19.793-17.109 0.46792-0.23012 1.257-1.2131 0.27403-1.276-6.6926 3.4516-13.284 7.153-19.971 10.626 0.31347-6.7024 0.69667-13.452 1.1712-20.15 12.891-12.666 25.907-25.2 38.806-37.857 0.50576-0.22374 0.93608-1.2644 0.0317-1.1596-12.486 6.5196-24.861 13.223-37.338 19.761 0.28559-7.1109 0.62544-14.22 0.99345-21.318 1.2324-0.29173 2.4767-0.54774 3.5982-1.159 2.085-1.0126 3.6593-3.691 2.4708-5.9168-0.94718-1.9963-3.1958-2.6531-5.1458-3.2237 0.27383-5.7336 0.62064-11.476 0.94347-17.208 1.2097-1.337 2.2805-2.8291 2.9197-4.5284 1.8753-4.6496 0.78075-9.9082-1.4392-14.239-0.37852-0.50368-0.51955-1.6899-1.336-1.5911-1.257 0.99813-2.2731 2.241-3.3247 3.4495-1.9767 2.6939-3.9305 5.784-4.0417 9.2256-0.20953 2.8652 1.1899 5.6831 3.5296 7.328-0.41567 5.4897-0.75847 10.999-1.2226 16.484-0.50743 0.08205-1.0538 0.04028-1.5717 0.13391-2.1783 0.40046-4.7786 1.0957-5.7535 3.3259-1.0532 1.495-0.80842 3.4666 0.12648 4.9561 1.4208 2.3021 4.2403 3.1313 6.7942 3.2746-0.50842 6.6659-1.17 13.38-1.8667 20.053-10.172-6.1455-20.213-12.475-30.341-18.692-0.79449-0.33396-1.5052-1.2217-2.3875-1.171z" fill="url(#k)"/>
    <path d="m153.96 56.953c8.2388 4.9705 16.514 9.8771 24.744 14.863-0.31464 4.5359-0.60816 9.0661-0.95518 13.599-7.6313-9.1182-15.293-18.223-22.895-27.364l-0.89383-1.0982z" fill="url(#i)"/>
    <path d="m183.85558,22.0042c.08.0033.25348.18673.30117.16571-.23516,4.81914-.43745,9.63877-.70889,14.44786-.0862.50372.17367,1.46413-.64499,1.10751 .3539-5.21203.5126-10.44071 1.00756-15.63892-.004-.04796.0185-.08328.0452-.08209z" fill="url(#a)"/>
    <path d="m176.27 42.979c1.1308-1.6069 3.4495-1.7757 5.2343-1.8638 1.746 0.03117 3.9257 0.08501 5.0845 1.5849 0.86989 1.3108 0.0683 3.0083-1.2082 3.6868-2.2309 1.0304-5.0236 1.3853-7.3137 0.32734-1.4972-0.45818-2.6223-2.2579-1.797-3.7352z" fill="url(#h)"/>
    <path d="m181.85 49.967c0.12459-0.0835 0.35647-0.07972 0.52164-0.10533-1.8981 29.19-3.7739 58.367-5.728 87.552-0.45388 5.1549-0.49822 10.369-1.5456 15.45-0.18353-1.5524-0.36265-3.0983-0.54411-4.6509 2.4296-32.755 4.7852-65.513 7.2961-98.246z" fill="url(#j)"/>
    <path d="m161.56 102.4c4.6794 3.0758 9.3602 6.1674 13.997 9.3067-0.21818 1.5904-0.45337 3.1924-0.70589 4.7835-4.396-4.4852-8.6655-9.1577-12.983-13.742-0.1029-0.11129-0.20508-0.2365-0.30798-0.3478z" fill="url(#g)"/>
    <path d="m182.98 73.061c9.857-5.4717 19.772-10.835 29.674-16.202-10.261 10.093-20.532 20.235-30.815 30.269 0.31823-4.525 0.67837-9.0364 1.0798-13.566l0.0617-0.50108z" fill="url(#f)"/>
    <path d="m162.18 131.67c3.6153 1.7461 7.235 3.4817 10.797 5.3344-0.0879 2.4662-0.24849 4.9472-0.40376 7.4108-3.4505-4.1592-6.8933-8.4231-10.299-12.658l-0.0945-0.0876z" fill="url(#e)"/>
    <path d="m178.82 136.12c3.7114-1.2749 7.4727-2.3534 11.253-3.403-4.0124 4.0912-7.9977 8.2165-12.036 12.281 0.0598-1.3377 0.21272-2.6946 0.32652-4.0292l0.45673-4.8492z" fill="url(#d)"/>
    <path d="m183 9.3688c0.76555-1.3596 1.5803-2.7331 2.5609-3.9412 0.43288 0.6224 0.72157 1.712 1.0332 2.5302 0.74623 2.5402 1.7426 5.392 0.63665 7.9833-0.58226 1.4475-1.6052 3.279-3.3494 3.3646-1.5694-0.18123-1.9899-2.0131-2.3324-3.2807-0.72796-2.3053 0.32114-4.6663 1.451-6.6563z" fill="url(#c)"/>
    <path d="m179.93 111.93 13.453-7.0713-13.431 11.184z" fill="url(#b)"/>
   </g>
  </g>
  <g transform="matrix(-.60647 .7951 .7951 .60647 135.42 -70.779)">
   <path d="m282.11 78.04-2.9375 52.531 13.938-6.0938c-3.7347-6.0716 3.0312-18.094 12.406-6.375 0.58597-0.27434 13.5-5.5312 13.5-5.5312s-0.52564-13.171 24.188-7.25c0 0-10.524 19.672-21.344 13.406l-13.25 6.4688c1.885 3.9087-3.531 13.833-11.938 5.7812l-14.344 6.9688 44.844 30.125-66.5-19.812-13.812 6.375 28.844 19.156-40.469-13.469-11.031 4.75 13.563 14.906-31.5-7.375-17.25 4.4062 13.781-11.625 13.688-28.531 2.5625 18.938 10.875-4.3125s13.982-39.942 14.438-40.5c0.45575-0.56695-1.0938 36.125-1.0938 36.125l14.562-6.375 24.281-62.688z" fill="url(#a)" filter="url(#m)" opacity=".7037"/>
   <g transform="matrix(.50933 .86057 -.86057 .50933 242.91 -59.341)">
    <path d="m132.73 38.103 44.608 27.897 1.3799-15.149c-7.1199 0.34517-14.391-11.378 0.39529-13.943 0.0421-0.64564 1.6618-14.494 1.6618-14.494s-11.793-5.8888 5.308-24.686c0 0 12.162 18.703 1.4566 25.163l-0.71989 14.727c4.3332 0.23278 10.418 9.7622-0.68953 13.246l-0.80909 15.926 48.011-24.767-49.416 48.712-1.0732 15.175 30.688-16.036-31.309 28.963-1.1562 11.955 19.598-4.6968-21.647 24.043-4.4552 17.237-3.5416-17.678-18.399-25.746 17.827 6.884 1.4642-11.607s-28.255-31.505-28.524-32.173c-0.27702-0.67261 31.123 18.373 31.123 18.373l1.4347-15.832-43.217-51.493z" fill="url(#l)"/>
    <path d="m145.9 49.881c-0.18639 0.199-0.18527 0.29862-0.0918 0.55583 10.546 12.735 21.187 25.407 31.786 38.106-0.57915 6.8199-1.1588 13.646-1.771 20.462-2.0583-1.2372-4.0924-2.4947-6.1466-3.7386-4.6816-2.797-9.2814-5.7362-14.018-8.4264-0.70077-0.08744-0.58035 0.86143-0.12888 1.1418 6.2741 6.9481 12.757 13.749 19.103 20.641-0.41238 5.419-0.78879 10.832-1.2692 16.244-4.3512-1.7349-8.6308-3.7391-12.956-5.5593-0.48034-0.18918-1.5076-0.88016-1.5416 0.0791 4.5855 6.4447 9.4407 12.705 14.159 19.061 0.36637 3.6694 0.6786 7.3392 1.1194 10.995-0.0455 0.47805 0.27576 1.4886 0.8747 0.87363 1.1738-4.1493 2.0872-8.386 3.1387-12.576 5.3929-5.6758 10.812-11.331 16.181-17.027 0.40951-0.27012 1.1151-1.2231 0.21928-1.3061-5.1994 1.324-10.339 2.9194-15.502 4.3826 0.39164-5.2996 0.75451-10.623 1.1308-15.928 6.5957-5.698 13.232-11.372 19.793-17.109 0.46792-0.23012 1.257-1.2131 0.27403-1.276-6.6926 3.4516-13.284 7.153-19.971 10.626 0.31347-6.7024 0.69667-13.452 1.1712-20.15 12.891-12.666 25.907-25.2 38.806-37.857 0.50576-0.22374 0.93608-1.2644 0.0317-1.1596-12.486 6.5196-24.861 13.223-37.338 19.761 0.28559-7.1109 0.62544-14.22 0.99345-21.318 1.2324-0.29173 2.4767-0.54774 3.5982-1.159 2.085-1.0126 3.6593-3.691 2.4708-5.9168-0.94718-1.9963-3.1958-2.6531-5.1458-3.2237 0.27383-5.7336 0.62064-11.476 0.94347-17.208 1.2097-1.337 2.2805-2.8291 2.9197-4.5284 1.8753-4.6496 0.78075-9.9082-1.4392-14.239-0.37852-0.50368-0.51955-1.6899-1.336-1.5911-1.257 0.99813-2.2731 2.241-3.3247 3.4495-1.9767 2.6939-3.9305 5.784-4.0417 9.2256-0.20953 2.8652 1.1899 5.6831 3.5296 7.328-0.41567 5.4897-0.75847 10.999-1.2226 16.484-0.50743 0.08205-1.0538 0.04028-1.5717 0.13391-2.1783 0.40046-4.7786 1.0957-5.7535 3.3259-1.0532 1.495-0.80842 3.4666 0.12648 4.9561 1.4208 2.3021 4.2403 3.1313 6.7942 3.2746-0.50842 6.6659-1.17 13.38-1.8667 20.053-10.172-6.1455-20.213-12.475-30.341-18.692-0.79449-0.33396-1.5052-1.2217-2.3875-1.171z" fill="url(#k)"/>
    <path d="m153.96 56.953c8.2388 4.9705 16.514 9.8771 24.744 14.863-0.31464 4.5359-0.60816 9.0661-0.95518 13.599-7.6313-9.1182-15.293-18.223-22.895-27.364l-0.89383-1.0982z" fill="url(#i)"/>
    <path d="m183.85558,22.0042c.08.0033.25348.18673.30117.16571-.23516,4.81914-.43745,9.63877-.70889,14.44786-.0862.50372.17367,1.46413-.64499,1.10751 .3539-5.21203.5126-10.44071 1.00756-15.63892-.004-.04796.0185-.08328.0452-.08209z" fill="url(#a)"/>
    <path d="m176.27 42.979c1.1308-1.6069 3.4495-1.7757 5.2343-1.8638 1.746 0.03117 3.9257 0.08501 5.0845 1.5849 0.86989 1.3108 0.0683 3.0083-1.2082 3.6868-2.2309 1.0304-5.0236 1.3853-7.3137 0.32734-1.4972-0.45818-2.6223-2.2579-1.797-3.7352z" fill="url(#h)"/>
    <path d="m181.85 49.967c0.12459-0.0835 0.35647-0.07972 0.52164-0.10533-1.8981 29.19-3.7739 58.367-5.728 87.552-0.45388 5.1549-0.49822 10.369-1.5456 15.45-0.18353-1.5524-0.36265-3.0983-0.54411-4.6509 2.4296-32.755 4.7852-65.513 7.2961-98.246z" fill="url(#j)"/>
    <path d="m161.56 102.4c4.6794 3.0758 9.3602 6.1674 13.997 9.3067-0.21818 1.5904-0.45337 3.1924-0.70589 4.7835-4.396-4.4852-8.6655-9.1577-12.983-13.742-0.1029-0.11129-0.20508-0.2365-0.30798-0.3478z" fill="url(#g)"/>
    <path d="m182.98 73.061c9.857-5.4717 19.772-10.835 29.674-16.202-10.261 10.093-20.532 20.235-30.815 30.269 0.31823-4.525 0.67837-9.0364 1.0798-13.566l0.0617-0.50108z" fill="url(#f)"/>
    <path d="m162.18 131.67c3.6153 1.7461 7.235 3.4817 10.797 5.3344-0.0879 2.4662-0.24849 4.9472-0.40376 7.4108-3.4505-4.1592-6.8933-8.4231-10.299-12.658l-0.0945-0.0876z" fill="url(#e)"/>
    <path d="m178.82 136.12c3.7114-1.2749 7.4727-2.3534 11.253-3.403-4.0124 4.0912-7.9977 8.2165-12.036 12.281 0.0598-1.3377 0.21272-2.6946 0.32652-4.0292l0.45673-4.8492z" fill="url(#d)"/>
    <path d="m183 9.3688c0.76555-1.3596 1.5803-2.7331 2.5609-3.9412 0.43288 0.6224 0.72157 1.712 1.0332 2.5302 0.74623 2.5402 1.7426 5.392 0.63665 7.9833-0.58226 1.4475-1.6052 3.279-3.3494 3.3646-1.5694-0.18123-1.9899-2.0131-2.3324-3.2807-0.72796-2.3053 0.32114-4.6663 1.451-6.6563z" fill="url(#c)"/>
    <path d="m179.93 111.93 13.453-7.0713-13.431 11.184z" fill="url(#b)"/>
   </g>
  </g>
  <g transform="matrix(-1 0 0 1 347.95 2.1457)">
   <path d="m282.11 78.04-2.9375 52.531 13.938-6.0938c-3.7347-6.0716 3.0312-18.094 12.406-6.375 0.58597-0.27434 13.5-5.5312 13.5-5.5312s-0.52564-13.171 24.188-7.25c0 0-10.524 19.672-21.344 13.406l-13.25 6.4688c1.885 3.9087-3.531 13.833-11.938 5.7812l-14.344 6.9688 44.844 30.125-66.5-19.812-13.812 6.375 28.844 19.156-40.469-13.469-11.031 4.75 13.563 14.906-31.5-7.375-17.25 4.4062 13.781-11.625 13.688-28.531 2.5625 18.938 10.875-4.3125s13.982-39.942 14.438-40.5c0.45575-0.56695-1.0938 36.125-1.0938 36.125l14.562-6.375 24.281-62.688z" fill="url(#a)" filter="url(#m)" opacity=".7037"/>
   <g transform="matrix(.50933 .86057 -.86057 .50933 242.91 -59.341)">
    <path d="m132.73 38.103 44.608 27.897 1.3799-15.149c-7.1199 0.34517-14.391-11.378 0.39529-13.943 0.0421-0.64564 1.6618-14.494 1.6618-14.494s-11.793-5.8888 5.308-24.686c0 0 12.162 18.703 1.4566 25.163l-0.71989 14.727c4.3332 0.23278 10.418 9.7622-0.68953 13.246l-0.80909 15.926 48.011-24.767-49.416 48.712-1.0732 15.175 30.688-16.036-31.309 28.963-1.1562 11.955 19.598-4.6968-21.647 24.043-4.4552 17.237-3.5416-17.678-18.399-25.746 17.827 6.884 1.4642-11.607s-28.255-31.505-28.524-32.173c-0.27702-0.67261 31.123 18.373 31.123 18.373l1.4347-15.832-43.217-51.493z" fill="url(#l)"/>
    <path d="m145.9 49.881c-0.18639 0.199-0.18527 0.29862-0.0918 0.55583 10.546 12.735 21.187 25.407 31.786 38.106-0.57915 6.8199-1.1588 13.646-1.771 20.462-2.0583-1.2372-4.0924-2.4947-6.1466-3.7386-4.6816-2.797-9.2814-5.7362-14.018-8.4264-0.70077-0.08744-0.58035 0.86143-0.12888 1.1418 6.2741 6.9481 12.757 13.749 19.103 20.641-0.41238 5.419-0.78879 10.832-1.2692 16.244-4.3512-1.7349-8.6308-3.7391-12.956-5.5593-0.48034-0.18918-1.5076-0.88016-1.5416 0.0791 4.5855 6.4447 9.4407 12.705 14.159 19.061 0.36637 3.6694 0.6786 7.3392 1.1194 10.995-0.0455 0.47805 0.27576 1.4886 0.8747 0.87363 1.1738-4.1493 2.0872-8.386 3.1387-12.576 5.3929-5.6758 10.812-11.331 16.181-17.027 0.40951-0.27012 1.1151-1.2231 0.21928-1.3061-5.1994 1.324-10.339 2.9194-15.502 4.3826 0.39164-5.2996 0.75451-10.623 1.1308-15.928 6.5957-5.698 13.232-11.372 19.793-17.109 0.46792-0.23012 1.257-1.2131 0.27403-1.276-6.6926 3.4516-13.284 7.153-19.971 10.626 0.31347-6.7024 0.69667-13.452 1.1712-20.15 12.891-12.666 25.907-25.2 38.806-37.857 0.50576-0.22374 0.93608-1.2644 0.0317-1.1596-12.486 6.5196-24.861 13.223-37.338 19.761 0.28559-7.1109 0.62544-14.22 0.99345-21.318 1.2324-0.29173 2.4767-0.54774 3.5982-1.159 2.085-1.0126 3.6593-3.691 2.4708-5.9168-0.94718-1.9963-3.1958-2.6531-5.1458-3.2237 0.27383-5.7336 0.62064-11.476 0.94347-17.208 1.2097-1.337 2.2805-2.8291 2.9197-4.5284 1.8753-4.6496 0.78075-9.9082-1.4392-14.239-0.37852-0.50368-0.51955-1.6899-1.336-1.5911-1.257 0.99813-2.2731 2.241-3.3247 3.4495-1.9767 2.6939-3.9305 5.784-4.0417 9.2256-0.20953 2.8652 1.1899 5.6831 3.5296 7.328-0.41567 5.4897-0.75847 10.999-1.2226 16.484-0.50743 0.08205-1.0538 0.04028-1.5717 0.13391-2.1783 0.40046-4.7786 1.0957-5.7535 3.3259-1.0532 1.495-0.80842 3.4666 0.12648 4.9561 1.4208 2.3021 4.2403 3.1313 6.7942 3.2746-0.50842 6.6659-1.17 13.38-1.8667 20.053-10.172-6.1455-20.213-12.475-30.341-18.692-0.79449-0.33396-1.5052-1.2217-2.3875-1.171z" fill="url(#k)"/>
    <path d="m153.96 56.953c8.2388 4.9705 16.514 9.8771 24.744 14.863-0.31464 4.5359-0.60816 9.0661-0.95518 13.599-7.6313-9.1182-15.293-18.223-22.895-27.364l-0.89383-1.0982z" fill="url(#i)"/>
    <path d="m183.85558,22.0042c.08.0033.25348.18673.30117.16571-.23516,4.81914-.43745,9.63877-.70889,14.44786-.0862.50372.17367,1.46413-.64499,1.10751 .3539-5.21203.5126-10.44071 1.00756-15.63892-.004-.04796.0185-.08328.0452-.08209z" fill="url(#a)"/>
    <path d="m176.27 42.979c1.1308-1.6069 3.4495-1.7757 5.2343-1.8638 1.746 0.03117 3.9257 0.08501 5.0845 1.5849 0.86989 1.3108 0.0683 3.0083-1.2082 3.6868-2.2309 1.0304-5.0236 1.3853-7.3137 0.32734-1.4972-0.45818-2.6223-2.2579-1.797-3.7352z" fill="url(#h)"/>
    <path d="m181.85 49.967c0.12459-0.0835 0.35647-0.07972 0.52164-0.10533-1.8981 29.19-3.7739 58.367-5.728 87.552-0.45388 5.1549-0.49822 10.369-1.5456 15.45-0.18353-1.5524-0.36265-3.0983-0.54411-4.6509 2.4296-32.755 4.7852-65.513 7.2961-98.246z" fill="url(#j)"/>
    <path d="m161.56 102.4c4.6794 3.0758 9.3602 6.1674 13.997 9.3067-0.21818 1.5904-0.45337 3.1924-0.70589 4.7835-4.396-4.4852-8.6655-9.1577-12.983-13.742-0.1029-0.11129-0.20508-0.2365-0.30798-0.3478z" fill="url(#g)"/>
    <path d="m182.98 73.061c9.857-5.4717 19.772-10.835 29.674-16.202-10.261 10.093-20.532 20.235-30.815 30.269 0.31823-4.525 0.67837-9.0364 1.0798-13.566l0.0617-0.50108z" fill="url(#f)"/>
    <path d="m162.18 131.67c3.6153 1.7461 7.235 3.4817 10.797 5.3344-0.0879 2.4662-0.24849 4.9472-0.40376 7.4108-3.4505-4.1592-6.8933-8.4231-10.299-12.658l-0.0945-0.0876z" fill="url(#e)"/>
    <path d="m178.82 136.12c3.7114-1.2749 7.4727-2.3534 11.253-3.403-4.0124 4.0912-7.9977 8.2165-12.036 12.281 0.0598-1.3377 0.21272-2.6946 0.32652-4.0292l0.45673-4.8492z" fill="url(#d)"/>
    <path d="m183 9.3688c0.76555-1.3596 1.5803-2.7331 2.5609-3.9412 0.43288 0.6224 0.72157 1.712 1.0332 2.5302 0.74623 2.5402 1.7426 5.392 0.63665 7.9833-0.58226 1.4475-1.6052 3.279-3.3494 3.3646-1.5694-0.18123-1.9899-2.0131-2.3324-3.2807-0.72796-2.3053 0.32114-4.6663 1.451-6.6563z" fill="url(#c)"/>
    <path d="m179.93 111.93 13.453-7.0713-13.431 11.184z" fill="url(#b)"/>
   </g>
  </g>
  <g transform="translate(-12.06 2.4133)">
   <path d="m282.11 78.04-2.9375 52.531 13.938-6.0938c-3.7347-6.0716 3.0312-18.094 12.406-6.375 0.58597-0.27434 13.5-5.5312 13.5-5.5312s-0.52564-13.171 24.188-7.25c0 0-10.524 19.672-21.344 13.406l-13.25 6.4688c1.885 3.9087-3.531 13.833-11.938 5.7812l-14.344 6.9688 44.844 30.125-66.5-19.812-13.812 6.375 28.844 19.156-40.469-13.469-11.031 4.75 13.563 14.906-31.5-7.375-17.25 4.4062 13.781-11.625 13.688-28.531 2.5625 18.938 10.875-4.3125s13.982-39.942 14.438-40.5c0.45575-0.56695-1.0938 36.125-1.0938 36.125l14.562-6.375 24.281-62.688z" fill="url(#a)" filter="url(#m)" opacity=".7037"/>
   <g transform="matrix(.50933 .86057 -.86057 .50933 242.91 -59.341)">
    <path d="m132.73 38.103 44.608 27.897 1.3799-15.149c-7.1199 0.34517-14.391-11.378 0.39529-13.943 0.0421-0.64564 1.6618-14.494 1.6618-14.494s-11.793-5.8888 5.308-24.686c0 0 12.162 18.703 1.4566 25.163l-0.71989 14.727c4.3332 0.23278 10.418 9.7622-0.68953 13.246l-0.80909 15.926 48.011-24.767-49.416 48.712-1.0732 15.175 30.688-16.036-31.309 28.963-1.1562 11.955 19.598-4.6968-21.647 24.043-4.4552 17.237-3.5416-17.678-18.399-25.746 17.827 6.884 1.4642-11.607s-28.255-31.505-28.524-32.173c-0.27702-0.67261 31.123 18.373 31.123 18.373l1.4347-15.832-43.217-51.493z" fill="url(#l)"/>
    <path d="m145.9 49.881c-0.18639 0.199-0.18527 0.29862-0.0918 0.55583 10.546 12.735 21.187 25.407 31.786 38.106-0.57915 6.8199-1.1588 13.646-1.771 20.462-2.0583-1.2372-4.0924-2.4947-6.1466-3.7386-4.6816-2.797-9.2814-5.7362-14.018-8.4264-0.70077-0.08744-0.58035 0.86143-0.12888 1.1418 6.2741 6.9481 12.757 13.749 19.103 20.641-0.41238 5.419-0.78879 10.832-1.2692 16.244-4.3512-1.7349-8.6308-3.7391-12.956-5.5593-0.48034-0.18918-1.5076-0.88016-1.5416 0.0791 4.5855 6.4447 9.4407 12.705 14.159 19.061 0.36637 3.6694 0.6786 7.3392 1.1194 10.995-0.0455 0.47805 0.27576 1.4886 0.8747 0.87363 1.1738-4.1493 2.0872-8.386 3.1387-12.576 5.3929-5.6758 10.812-11.331 16.181-17.027 0.40951-0.27012 1.1151-1.2231 0.21928-1.3061-5.1994 1.324-10.339 2.9194-15.502 4.3826 0.39164-5.2996 0.75451-10.623 1.1308-15.928 6.5957-5.698 13.232-11.372 19.793-17.109 0.46792-0.23012 1.257-1.2131 0.27403-1.276-6.6926 3.4516-13.284 7.153-19.971 10.626 0.31347-6.7024 0.69667-13.452 1.1712-20.15 12.891-12.666 25.907-25.2 38.806-37.857 0.50576-0.22374 0.93608-1.2644 0.0317-1.1596-12.486 6.5196-24.861 13.223-37.338 19.761 0.28559-7.1109 0.62544-14.22 0.99345-21.318 1.2324-0.29173 2.4767-0.54774 3.5982-1.159 2.085-1.0126 3.6593-3.691 2.4708-5.9168-0.94718-1.9963-3.1958-2.6531-5.1458-3.2237 0.27383-5.7336 0.62064-11.476 0.94347-17.208 1.2097-1.337 2.2805-2.8291 2.9197-4.5284 1.8753-4.6496 0.78075-9.9082-1.4392-14.239-0.37852-0.50368-0.51955-1.6899-1.336-1.5911-1.257 0.99813-2.2731 2.241-3.3247 3.4495-1.9767 2.6939-3.9305 5.784-4.0417 9.2256-0.20953 2.8652 1.1899 5.6831 3.5296 7.328-0.41567 5.4897-0.75847 10.999-1.2226 16.484-0.50743 0.08205-1.0538 0.04028-1.5717 0.13391-2.1783 0.40046-4.7786 1.0957-5.7535 3.3259-1.0532 1.495-0.80842 3.4666 0.12648 4.9561 1.4208 2.3021 4.2403 3.1313 6.7942 3.2746-0.50842 6.6659-1.17 13.38-1.8667 20.053-10.172-6.1455-20.213-12.475-30.341-18.692-0.79449-0.33396-1.5052-1.2217-2.3875-1.171z" fill="url(#k)"/>
    <path d="m153.96 56.953c8.2388 4.9705 16.514 9.8771 24.744 14.863-0.31464 4.5359-0.60816 9.0661-0.95518 13.599-7.6313-9.1182-15.293-18.223-22.895-27.364l-0.89383-1.0982z" fill="url(#i)"/>
    <path d="m183.85558,22.0042c.08.0033.25348.18673.30117.16571-.23516,4.81914-.43745,9.63877-.70889,14.44786-.0862.50372.17367,1.46413-.64499,1.10751 .3539-5.21203.5126-10.44071 1.00756-15.63892-.004-.04796.0185-.08328.0452-.08209z" fill="url(#a)"/>
    <path d="m176.27 42.979c1.1308-1.6069 3.4495-1.7757 5.2343-1.8638 1.746 0.03117 3.9257 0.08501 5.0845 1.5849 0.86989 1.3108 0.0683 3.0083-1.2082 3.6868-2.2309 1.0304-5.0236 1.3853-7.3137 0.32734-1.4972-0.45818-2.6223-2.2579-1.797-3.7352z" fill="url(#h)"/>
    <path d="m181.85 49.967c0.12459-0.0835 0.35647-0.07972 0.52164-0.10533-1.8981 29.19-3.7739 58.367-5.728 87.552-0.45388 5.1549-0.49822 10.369-1.5456 15.45-0.18353-1.5524-0.36265-3.0983-0.54411-4.6509 2.4296-32.755 4.7852-65.513 7.2961-98.246z" fill="url(#j)"/>
    <path d="m161.56 102.4c4.6794 3.0758 9.3602 6.1674 13.997 9.3067-0.21818 1.5904-0.45337 3.1924-0.70589 4.7835-4.396-4.4852-8.6655-9.1577-12.983-13.742-0.1029-0.11129-0.20508-0.2365-0.30798-0.3478z" fill="url(#g)"/>
    <path d="m182.98 73.061c9.857-5.4717 19.772-10.835 29.674-16.202-10.261 10.093-20.532 20.235-30.815 30.269 0.31823-4.525 0.67837-9.0364 1.0798-13.566l0.0617-0.50108z" fill="url(#f)"/>
    <path d="m162.18 131.67c3.6153 1.7461 7.235 3.4817 10.797 5.3344-0.0879 2.4662-0.24849 4.9472-0.40376 7.4108-3.4505-4.1592-6.8933-8.4231-10.299-12.658l-0.0945-0.0876z" fill="url(#e)"/>
    <path d="m178.82 136.12c3.7114-1.2749 7.4727-2.3534 11.253-3.403-4.0124 4.0912-7.9977 8.2165-12.036 12.281 0.0598-1.3377 0.21272-2.6946 0.32652-4.0292l0.45673-4.8492z" fill="url(#d)"/>
    <path d="m183 9.3688c0.76555-1.3596 1.5803-2.7331 2.5609-3.9412 0.43288 0.6224 0.72157 1.712 1.0332 2.5302 0.74623 2.5402 1.7426 5.392 0.63665 7.9833-0.58226 1.4475-1.6052 3.279-3.3494 3.3646-1.5694-0.18123-1.9899-2.0131-2.3324-3.2807-0.72796-2.3053 0.32114-4.6663 1.451-6.6563z" fill="url(#c)"/>
    <path d="m179.93 111.93 13.453-7.0713-13.431 11.184z" fill="url(#b)"/>
   </g>
  </g>
  <g transform="matrix(.50117 -.86535 .86535 .50117 -79.284 248.96)">
   <path d="m282.11 78.04-2.9375 52.531 13.938-6.0938c-3.7347-6.0716 3.0312-18.094 12.406-6.375 0.58597-0.27434 13.5-5.5312 13.5-5.5312s-0.52564-13.171 24.188-7.25c0 0-10.524 19.672-21.344 13.406l-13.25 6.4688c1.885 3.9087-3.531 13.833-11.938 5.7812l-14.344 6.9688 44.844 30.125-66.5-19.812-13.812 6.375 28.844 19.156-40.469-13.469-11.031 4.75 13.563 14.906-31.5-7.375-17.25 4.4062 13.781-11.625 13.688-28.531 2.5625 18.938 10.875-4.3125s13.982-39.942 14.438-40.5c0.45575-0.56695-1.0938 36.125-1.0938 36.125l14.562-6.375 24.281-62.688z" fill="url(#a)" filter="url(#m)" opacity=".7037"/>
   <g transform="matrix(.50933 .86057 -.86057 .50933 242.91 -59.341)">
    <path d="m132.73 38.103 44.608 27.897 1.3799-15.149c-7.1199 0.34517-14.391-11.378 0.39529-13.943 0.0421-0.64564 1.6618-14.494 1.6618-14.494s-11.793-5.8888 5.308-24.686c0 0 12.162 18.703 1.4566 25.163l-0.71989 14.727c4.3332 0.23278 10.418 9.7622-0.68953 13.246l-0.80909 15.926 48.011-24.767-49.416 48.712-1.0732 15.175 30.688-16.036-31.309 28.963-1.1562 11.955 19.598-4.6968-21.647 24.043-4.4552 17.237-3.5416-17.678-18.399-25.746 17.827 6.884 1.4642-11.607s-28.255-31.505-28.524-32.173c-0.27702-0.67261 31.123 18.373 31.123 18.373l1.4347-15.832-43.217-51.493z" fill="url(#l)"/>
    <path d="m145.9 49.881c-0.18639 0.199-0.18527 0.29862-0.0918 0.55583 10.546 12.735 21.187 25.407 31.786 38.106-0.57915 6.8199-1.1588 13.646-1.771 20.462-2.0583-1.2372-4.0924-2.4947-6.1466-3.7386-4.6816-2.797-9.2814-5.7362-14.018-8.4264-0.70077-0.08744-0.58035 0.86143-0.12888 1.1418 6.2741 6.9481 12.757 13.749 19.103 20.641-0.41238 5.419-0.78879 10.832-1.2692 16.244-4.3512-1.7349-8.6308-3.7391-12.956-5.5593-0.48034-0.18918-1.5076-0.88016-1.5416 0.0791 4.5855 6.4447 9.4407 12.705 14.159 19.061 0.36637 3.6694 0.6786 7.3392 1.1194 10.995-0.0455 0.47805 0.27576 1.4886 0.8747 0.87363 1.1738-4.1493 2.0872-8.386 3.1387-12.576 5.3929-5.6758 10.812-11.331 16.181-17.027 0.40951-0.27012 1.1151-1.2231 0.21928-1.3061-5.1994 1.324-10.339 2.9194-15.502 4.3826 0.39164-5.2996 0.75451-10.623 1.1308-15.928 6.5957-5.698 13.232-11.372 19.793-17.109 0.46792-0.23012 1.257-1.2131 0.27403-1.276-6.6926 3.4516-13.284 7.153-19.971 10.626 0.31347-6.7024 0.69667-13.452 1.1712-20.15 12.891-12.666 25.907-25.2 38.806-37.857 0.50576-0.22374 0.93608-1.2644 0.0317-1.1596-12.486 6.5196-24.861 13.223-37.338 19.761 0.28559-7.1109 0.62544-14.22 0.99345-21.318 1.2324-0.29173 2.4767-0.54774 3.5982-1.159 2.085-1.0126 3.6593-3.691 2.4708-5.9168-0.94718-1.9963-3.1958-2.6531-5.1458-3.2237 0.27383-5.7336 0.62064-11.476 0.94347-17.208 1.2097-1.337 2.2805-2.8291 2.9197-4.5284 1.8753-4.6496 0.78075-9.9082-1.4392-14.239-0.37852-0.50368-0.51955-1.6899-1.336-1.5911-1.257 0.99813-2.2731 2.241-3.3247 3.4495-1.9767 2.6939-3.9305 5.784-4.0417 9.2256-0.20953 2.8652 1.1899 5.6831 3.5296 7.328-0.41567 5.4897-0.75847 10.999-1.2226 16.484-0.50743 0.08205-1.0538 0.04028-1.5717 0.13391-2.1783 0.40046-4.7786 1.0957-5.7535 3.3259-1.0532 1.495-0.80842 3.4666 0.12648 4.9561 1.4208 2.3021 4.2403 3.1313 6.7942 3.2746-0.50842 6.6659-1.17 13.38-1.8667 20.053-10.172-6.1455-20.213-12.475-30.341-18.692-0.79449-0.33396-1.5052-1.2217-2.3875-1.171z" fill="url(#k)"/>
    <path d="m153.96 56.953c8.2388 4.9705 16.514 9.8771 24.744 14.863-0.31464 4.5359-0.60816 9.0661-0.95518 13.599-7.6313-9.1182-15.293-18.223-22.895-27.364l-0.89383-1.0982z" fill="url(#i)"/>
    <path d="m183.85558,22.0042c.08.0033.25348.18673.30117.16571-.23516,4.81914-.43745,9.63877-.70889,14.44786-.0862.50372.17367,1.46413-.64499,1.10751 .3539-5.21203.5126-10.44071 1.00756-15.63892-.004-.04796.0185-.08328.0452-.08209z" fill="url(#a)"/>
    <path d="m176.27 42.979c1.1308-1.6069 3.4495-1.7757 5.2343-1.8638 1.746 0.03117 3.9257 0.08501 5.0845 1.5849 0.86989 1.3108 0.0683 3.0083-1.2082 3.6868-2.2309 1.0304-5.0236 1.3853-7.3137 0.32734-1.4972-0.45818-2.6223-2.2579-1.797-3.7352z" fill="url(#h)"/>
    <path d="m181.85 49.967c0.12459-0.0835 0.35647-0.07972 0.52164-0.10533-1.8981 29.19-3.7739 58.367-5.728 87.552-0.45388 5.1549-0.49822 10.369-1.5456 15.45-0.18353-1.5524-0.36265-3.0983-0.54411-4.6509 2.4296-32.755 4.7852-65.513 7.2961-98.246z" fill="url(#j)"/>
    <path d="m161.56 102.4c4.6794 3.0758 9.3602 6.1674 13.997 9.3067-0.21818 1.5904-0.45337 3.1924-0.70589 4.7835-4.396-4.4852-8.6655-9.1577-12.983-13.742-0.1029-0.11129-0.20508-0.2365-0.30798-0.3478z" fill="url(#g)"/>
    <path d="m182.98 73.061c9.857-5.4717 19.772-10.835 29.674-16.202-10.261 10.093-20.532 20.235-30.815 30.269 0.31823-4.525 0.67837-9.0364 1.0798-13.566l0.0617-0.50108z" fill="url(#f)"/>
    <path d="m162.18 131.67c3.6153 1.7461 7.235 3.4817 10.797 5.3344-0.0879 2.4662-0.24849 4.9472-0.40376 7.4108-3.4505-4.1592-6.8933-8.4231-10.299-12.658l-0.0945-0.0876z" fill="url(#e)"/>
    <path d="m178.82 136.12c3.7114-1.2749 7.4727-2.3534 11.253-3.403-4.0124 4.0912-7.9977 8.2165-12.036 12.281 0.0598-1.3377 0.21272-2.6946 0.32652-4.0292l0.45673-4.8492z" fill="url(#d)"/>
    <path d="m183 9.3688c0.76555-1.3596 1.5803-2.7331 2.5609-3.9412 0.43288 0.6224 0.72157 1.712 1.0332 2.5302 0.74623 2.5402 1.7426 5.392 0.63665 7.9833-0.58226 1.4475-1.6052 3.279-3.3494 3.3646-1.5694-0.18123-1.9899-2.0131-2.3324-3.2807-0.72796-2.3053 0.32114-4.6663 1.451-6.6563z" fill="url(#c)"/>
    <path d="m179.93 111.93 13.453-7.0713-13.431 11.184z" fill="url(#b)"/>
   </g>
  </g>
 </g>
</svg>
