<?xml version="1.0" encoding="UTF-8" standalone="no"?>
<!-- Created with Inkscape (http://www.inkscape.org/) -->

<svg
   xmlns:dc="http://purl.org/dc/elements/1.1/"
   xmlns:cc="http://creativecommons.org/ns#"
   xmlns:rdf="http://www.w3.org/1999/02/22-rdf-syntax-ns#"
   xmlns:svg="http://www.w3.org/2000/svg"
   xmlns="http://www.w3.org/2000/svg"
   xmlns:sodipodi="http://sodipodi.sourceforge.net/DTD/sodipodi-0.dtd"
   xmlns:inkscape="http://www.inkscape.org/namespaces/inkscape"
   width="19.125538cm"
   height="28.977081cm"
   viewBox="0 0 677.67657 1026.7469"
   id="svg4090"
   version="1.1"
   inkscape:version="0.91 r13725"
   sodipodi:docname="vis.svg">
  <defs
     id="defs4092" />
  <sodipodi:namedview
     id="base"
     pagecolor="#ffffff"
     bordercolor="#666666"
     borderopacity="1.0"
     inkscape:pageopacity="0.0"
     inkscape:pageshadow="2"
     inkscape:zoom="0.91570494"
     inkscape:cx="334.30334"
     inkscape:cy="176.4471"
     inkscape:document-units="px"
     inkscape:current-layer="layer1"
     showgrid="false"
     units="cm"
     fit-margin-top="0"
     fit-margin-left="0"
     fit-margin-right="0"
     fit-margin-bottom="0"
     inkscape:window-width="1440"
     inkscape:window-height="803"
     inkscape:window-x="0"
     inkscape:window-y="1"
     inkscape:window-maximized="1" />
  <metadata
     id="metadata4095">
    <rdf:RDF>
      <cc:Work
         rdf:about="">
        <dc:format>image/svg+xml</dc:format>
        <dc:type
           rdf:resource="http://purl.org/dc/dcmitype/StillImage" />
        <dc:title></dc:title>
      </cc:Work>
    </rdf:RDF>
  </metadata>
  <g
     inkscape:label="Calque 1"
     inkscape:groupmode="layer"
     id="layer1"
     transform="translate(-159.48532,-474.78277)">
    <g
       id="g4179"
       transform="matrix(3.4527501,0,0,3.5003994,-78.381427,-2830.7371)">
      <path
         style="fill:#fdfdfd"
         d="m 71.96431,1038.0765 0,-93.75002 93.75,0 93.75,0 0,93.75002 0,93.75 -93.75,0 -93.75,0 0,-93.75 z"
         id="path4195"
         inkscape:connector-curvature="0" />
      <path
         style="fill:#a1a5a9"
         d="m 203.65191,1128.9589 c -14.74413,-1.1376 -29.22093,-5.3953 -45.90635,-13.5012 -9.608,-4.6677 -15.63652,-9.0885 -14.26461,-10.4604 0.32259,-0.3225 4.00446,0.3358 8.18193,1.463 4.17747,1.1272 8.02625,1.9058 8.55284,1.7303 0.52659,-0.1755 -2.13408,-2.2803 -5.91261,-4.6772 -3.77853,-2.397 -8.08144,-5.6266 -9.56202,-7.177 l -2.69196,-2.8189 5.03571,-5.3515 c 2.76965,-2.9433 8.41072,-8.065 12.53572,-11.3816 4.125,-3.3165 10.27299,-8.6769 13.66221,-11.9119 5.9385,-5.6682 12.24794,-8.9835 17.09665,-8.9835 1.00711,0 5.46711,-1.2281 9.91112,-2.729 4.44401,-1.501 9.45699,-3.0123 11.13995,-3.3586 3.01103,-0.6196 3.10397,-0.5348 5.81557,5.3071 1.5156,3.2652 3.90207,9.7336 5.30329,14.3742 2.28406,7.5646 2.58867,10.2562 2.94412,26.0157 l 0.39647,17.5781 2.22295,0 c 2.8191,0 4.17214,2.5112 4.13411,7.6727 -0.0652,8.8433 -4.36868,10.0788 -28.59509,8.2097 z m -0.88578,-25.6743 c 9.78508,-4.0885 6.44519,-19.2706 -4.23932,-19.2706 -10.51931,0 -13.95743,14.3982 -4.54546,19.0356 3.87728,1.9103 4.721,1.9329 8.78478,0.235 z m -4.06553,-1.1617 c -2.3041,-0.9218 -3.1755,-5.0243 -1.58334,-7.4542 3.26374,-4.9811 11.12121,-1.0031 9.00627,4.5596 -1.17736,3.0967 -4.08426,4.2303 -7.42293,2.8946 z m -60.8181,-36.9231 c -15.02968,-1.1564 -32.99351,-6.6581 -49.149885,-15.053 -7.019677,-3.6475 -12.029536,-7.7466 -10.87667,-8.8995 0.32259,-0.3225 4.00446,0.3358 8.181933,1.463 4.177474,1.1272 8.026254,1.9058 8.552845,1.7303 0.52659,-0.1755 -2.134085,-2.2803 -5.912612,-4.6772 -3.778529,-2.397 -8.084554,-5.6299 -9.568947,-7.1843 l -2.698896,-2.8261 5.511396,-5.7892 c 3.031268,-3.184 8.948132,-8.5165 13.148587,-11.85 4.200456,-3.3335 8.970619,-7.7202 10.600359,-9.7482 3.70094,-4.60534 11.36895,-9.0604 16.91435,-9.82713 2.32271,-0.32114 7.80904,-1.77046 12.19185,-3.2207 4.38281,-1.45024 9.34572,-2.92012 11.02868,-3.2664 3.01103,-0.61954 3.10397,-0.53473 5.81557,5.30713 1.5156,3.2652 3.90208,9.7336 5.30328,14.3742 2.28407,7.5646 2.58868,10.2562 2.94413,26.0157 l 0.39647,17.5781 2.22295,0 c 2.81911,0 4.17214,2.5112 4.13411,7.6727 -0.0653,8.857 -4.34299,10.0776 -28.7395,8.2006 z m -1.79185,-25.618 c 1.72073,-0.719 3.81656,-2.2894 4.65739,-3.4899 3.12842,-4.4664 1.15093,-12.5426 -3.60128,-14.7079 -6.16188,-2.8075 -12.53686,-0.2112 -14.56413,5.9315 -1.45388,4.4053 1.00834,9.6218 5.63168,11.9314 3.95354,1.975 3.95115,1.9749 7.87634,0.3349 z m -4.59839,-3.7225 c -2.77939,-4.2419 1.21014,-9.1776 6.15075,-7.6095 5.19731,1.6495 3.59237,9.8267 -1.9287,9.8267 -1.87723,0 -3.23724,-0.7142 -4.22205,-2.2172 z m 94.49746,-10.0356 c -14.5633,-1.1202 -32.40524,-6.5272 -48.17804,-14.6006 -7.76418,-3.9741 -13.04287,-8.1386 -11.84033,-9.3412 0.31731,-0.3173 4.69039,0.5128 9.71796,1.8446 5.02757,1.3318 9.25757,2.3049 9.40002,2.1625 0.14245,-0.1425 -3.81004,-2.9781 -8.7833,-6.3014 -4.97327,-3.3233 -9.46158,-6.72889 -9.97403,-7.56797 -1.3139,-2.15134 3.80668,-8.15105 13.93156,-16.32342 4.44682,-3.58929 11.1135,-9.51393 14.81482,-13.16586 6.89171,-6.79975 12.56504,-9.76637 18.67707,-9.76637 1.48892,0 3.47018,-0.40838 4.40281,-0.9075 0.93262,-0.49913 5.40075,-1.98119 9.92916,-3.29347 10.11452,-2.93108 10.32133,-2.80664 14.54347,8.75084 4.83255,13.22839 6.49465,23.13913 6.5086,38.8095 0.0117,13.11645 0.10713,13.82815 1.85434,13.82815 2.45159,0 3.78955,2.7352 3.75317,7.6727 -0.0653,8.8587 -4.33984,10.0775 -28.75728,8.1995 z m -0.72359,-25.6641 c 9.78508,-4.08851 6.44519,-19.27062 -4.23932,-19.27062 -10.51931,0 -13.95743,14.39822 -4.54546,19.03559 3.87728,1.91033 4.721,1.93293 8.78478,0.23503 z m -4.06553,-1.1617 c -0.67786,-0.27118 -1.63828,-1.56045 -2.13428,-2.86503 -2.12498,-5.58911 5.71803,-9.59054 8.99504,-4.58918 3.00511,4.58638 -1.57913,9.56721 -6.86076,7.45421 z"
         id="path4193"
         inkscape:connector-curvature="0" />
      <path
         style="fill:#448ef9"
         d="m 195.71431,1127.0753 c -15.31823,-2.2949 -45.92402,-14.4282 -50.59664,-20.0584 -1.62996,-1.964 -0.92909,-1.8817 11.69039,1.3721 5.99938,1.5469 11.4068,2.8039 12.01648,2.7935 0.60969,-0.01 -1.84461,-1.5353 -5.45398,-3.3885 -6.90171,-3.5435 -17.05311,-10.3893 -19.14661,-12.9118 -1.81717,-2.1896 1.96689,-6.6856 13.38639,-15.9049 5.19088,-4.1908 11.63699,-9.839 14.3247,-12.5516 4.66445,-4.7076 13.0311,-9.5705 16.49969,-9.5901 0.89467,0 5.41301,-1.2671 10.04073,-2.8046 4.62774,-1.5375 10.04808,-3.0567 12.04521,-3.376 3.6148,-0.5781 3.63987,-0.5602 5.56686,3.9673 6.45197,15.159 9.04414,29.3124 8.55952,46.7354 l -0.33899,12.1875 2.60812,0 c 1.43445,0 3.01003,0.6328 3.50127,1.4063 1.56774,2.4684 1.03349,8.0427 -1.02118,10.6548 l -1.94305,2.4702 -13.29133,-0.1143 c -7.31023,-0.063 -15.61164,-0.462 -18.44758,-0.8869 z m -8.4375,-22.7903 c 0,-0.1947 -0.73828,-0.9329 -1.64063,-1.6406 -1.48693,-1.1661 -1.52009,-1.133 -0.35396,0.354 1.22472,1.5616 1.99459,2.0582 1.99459,1.2866 z m 15.43659,-0.9784 c 3.61712,-1.5113 6.12591,-5.5923 6.12591,-9.9648 0,-2.1081 -0.91185,-3.8647 -3.1875,-6.1403 -2.61309,-2.6131 -3.89706,-3.1875 -7.125,-3.1875 -3.22794,0 -4.51191,0.5744 -7.125,3.1875 -2.27565,2.2756 -3.1875,4.0322 -3.1875,6.1403 0,4.2679 2.48255,8.4299 5.92004,9.925 3.81002,1.6571 4.69844,1.6612 8.57905,0.04 z m -5.09111,-3.2935 c -1.53205,-2.8627 -1.15279,-4.5864 1.37327,-6.2416 2.17113,-1.4226 2.51637,-1.4226 4.6875,0 3.98677,2.6122 2.4031,8.055 -2.34375,8.055 -1.75593,0 -3.09656,-0.6541 -3.71702,-1.8134 z m 12.15452,-18.2281 c 0,-0.1947 -0.73828,-0.9329 -1.64063,-1.6406 -1.48693,-1.1661 -1.52009,-1.133 -0.35396,0.354 1.22472,1.5616 1.99459,2.0582 1.99459,1.2866 z m -79.6875,-18.4597 c -15.31822,-2.2949 -45.924016,-14.4282 -50.596638,-20.0584 -1.629958,-1.964 -0.92909,-1.8817 11.690388,1.3721 5.99938,1.5469 11.4068,2.8039 12.01648,2.7935 0.60969,-0.01 -1.84461,-1.5353 -5.45398,-3.3885 -6.901708,-3.5435 -17.053111,-10.3893 -19.146606,-12.9118 -1.809751,-2.1807 1.939852,-6.6542 13.331038,-15.9049 5.160442,-4.1908 11.533158,-9.8949 14.161598,-12.6758 4.78486,-5.06242 12.3144,-9.44866 16.24939,-9.46586 1.15249,-0.005 5.88175,-1.26711 10.50948,-2.8046 4.62774,-1.53749 10.04808,-3.05673 12.04521,-3.37609 3.6148,-0.57803 3.63987,-0.56016 5.56685,3.96732 6.42573,15.09733 9.04083,29.53913 8.54769,47.20423 l -0.32715,11.7187 2.60811,0 c 1.43447,0 3.01004,0.6328 3.50127,1.4063 1.56775,2.4684 1.0335,8.0427 -1.02117,10.6548 l -1.94305,2.4702 -13.29133,-0.1143 c -7.31023,-0.063 -15.61164,-0.462 -18.44758,-0.8869 z m -8.4375,-22.7903 c 0,-0.1947 -0.73828,-0.9329 -1.64063,-1.6406 -1.48692,-1.1661 -1.52008,-1.133 -0.35395,0.354 1.22472,1.5616 1.99458,2.0582 1.99458,1.2866 z m 14.98965,-1.0469 c 3.86531,-1.9988 5.63535,-4.988 5.63535,-9.5169 0,-5.5805 -4.12668,-9.7072 -9.70727,-9.7072 -9.59712,0 -14.22829,10.6921 -7.39043,17.0626 4.13264,3.8501 7.1109,4.4117 11.46235,2.1615 z m -3.85128,-3.1885 c -1.88855,-1.5293 -2.06318,-2.1498 -1.25315,-4.4531 0.78941,-2.2447 1.46303,-2.6763 4.17728,-2.6763 2.71425,0 3.38787,0.4316 4.17728,2.6763 0.81003,2.3033 0.6354,2.9238 -1.25315,4.4531 -1.20689,0.9773 -2.52275,1.7769 -2.92413,1.7769 -0.40138,0 -1.71724,-0.7996 -2.92413,-1.7769 z m 11.36163,-18.2646 c 0,-0.1947 -0.73828,-0.9329 -1.64063,-1.6406 -1.48692,-1.1661 -1.52008,-1.133 -0.35395,0.354 1.22472,1.5616 1.99458,2.0582 1.99458,1.2866 z m 74.0625,5.9153 c -15.31822,-2.2949 -45.92402,-14.4282 -50.59664,-20.0584 -1.62996,-1.964 -0.92909,-1.8817 11.69039,1.3721 5.99938,1.5469 11.3891,2.8125 11.97714,2.8125 0.58805,0 -2.66374,-2.1404 -7.22621,-4.7565 -12.35195,-7.0825 -18.49831,-11.95524 -17.47899,-13.8571 1.19447,-2.22868 11.65424,-12.03014 19.31847,-18.10263 3.62473,-2.87193 7.68728,-6.65975 9.0279,-8.41739 3.11822,-4.0882 10.14379,-7.90412 17.76555,-9.64932 3.29512,-0.75451 9.5194,-2.44795 13.83173,-3.7632 9.27069,-2.82756 10.98737,-2.93794 11.67609,-0.75076 0.28413,0.90235 1.63105,4.59375 2.99316,8.20313 4.83955,12.82404 5.40418,16.13814 5.98977,35.15625 0.56169,18.24232 0.56744,18.28122 2.7013,18.28122 1.17613,0 2.54076,0.6328 3.03252,1.4063 1.56871,2.4672 1.0349,8.0421 -1.02022,10.6548 l -1.94305,2.4702 -13.29133,-0.1143 c -7.31023,-0.063 -15.61164,-0.462 -18.44758,-0.8869 z m -8.4375,-22.7903 c 0,-0.1947 -0.73828,-0.9329 -1.64063,-1.6406 -1.48693,-1.16613 -1.52009,-1.13297 -0.35396,0.35395 1.22472,1.56165 1.99459,2.05825 1.99459,1.28665 z m 15.43659,-0.9784 c 3.61712,-1.51134 6.12591,-5.59231 6.12591,-9.96481 0,-2.1081 -0.91185,-3.86466 -3.1875,-6.14031 -2.61309,-2.6131 -3.89706,-3.1875 -7.125,-3.1875 -3.22794,0 -4.51191,0.5744 -7.125,3.1875 -2.27565,2.27565 -3.1875,4.03221 -3.1875,6.14031 0,4.26792 2.48255,8.42994 5.92004,9.92501 3.81002,1.6571 4.69844,1.6612 8.57905,0.04 z m -5.09111,-3.29349 c -1.53205,-2.86267 -1.15279,-4.58646 1.37327,-6.24159 2.17113,-1.42258 2.51637,-1.42258 4.6875,0 3.98677,2.61223 2.4031,8.05496 -2.34375,8.05496 -1.75593,0 -3.09656,-0.65404 -3.71702,-1.81337 z m 12.15452,-18.22809 c 0,-0.19468 -0.73828,-0.93296 -1.64063,-1.64062 -1.48693,-1.16613 -1.52009,-1.13297 -0.35396,0.35395 1.22472,1.56164 1.99459,2.05827 1.99459,1.28667 z"
         id="path4191"
         inkscape:connector-curvature="0" />
      <path
         style="fill:#f8ad15"
         d="m 195.71431,1127.0753 c -15.31823,-2.2949 -45.92402,-14.4282 -50.59664,-20.0584 -1.65677,-1.9963 -0.57941,-1.8998 9.68879,0.8681 17.97593,4.8454 29.65544,6.3186 49.34535,6.2243 10.05469,-0.048 19.87055,-0.259 21.81302,-0.4684 2.72035,-0.2933 3.74345,0.015 4.45312,1.3407 1.54258,2.8824 1.0515,7.9891 -1.02168,10.6247 l -1.94305,2.4702 -13.29133,-0.1143 c -7.31023,-0.063 -15.61164,-0.462 -18.44758,-0.8869 z m -10.93833,-16.6146 c -6.3444,-2.2672 -11.11895,-5.996 -14.49586,-11.3208 -3.65269,-5.7597 -4.8675,-10.6785 -4.32499,-17.512 0.78848,-9.9316 6.093,-17.5618 15.3912,-22.1392 11.47242,-5.6479 23.93651,-3.5285 32.24251,5.4824 6.05393,6.5677 7.73475,11.3057 7.2548,20.45 -0.44698,8.5161 -2.5998,13.3638 -8.40891,18.9355 -6.96436,6.6797 -18.76214,9.2833 -27.65875,6.1041 z m 2.50083,-6.1757 c 0,-0.1947 -0.73828,-0.9329 -1.64063,-1.6406 -1.48693,-1.1661 -1.52009,-1.133 -0.35396,0.354 1.22472,1.5616 1.99459,2.0582 1.99459,1.2866 z m 15.43659,-0.9784 c 3.61712,-1.5113 6.12591,-5.5923 6.12591,-9.9648 0,-2.1081 -0.91185,-3.8647 -3.1875,-6.1403 -2.61309,-2.6131 -3.89706,-3.1875 -7.125,-3.1875 -3.22794,0 -4.51191,0.5744 -7.125,3.1875 -2.27565,2.2756 -3.1875,4.0322 -3.1875,6.1403 0,4.2679 2.48255,8.4299 5.92004,9.925 3.81002,1.6571 4.69844,1.6612 8.57905,0.04 z m -5.09111,-3.2935 c -1.53205,-2.8627 -1.15279,-4.5864 1.37327,-6.2416 2.17113,-1.4226 2.51637,-1.4226 4.6875,0 3.98677,2.6122 2.4031,8.055 -2.34375,8.055 -1.75593,0 -3.09656,-0.6541 -3.71702,-1.8134 z m 12.15452,-18.2281 c 0,-0.1947 -0.73828,-0.9329 -1.64063,-1.6406 -1.48693,-1.1661 -1.52009,-1.133 -0.35396,0.354 1.22472,1.5616 1.99459,2.0582 1.99459,1.2866 z m -79.6875,-18.4597 c -15.31822,-2.2949 -45.924016,-14.4282 -50.596638,-20.0584 -1.656776,-1.9963 -0.57941,-1.8998 9.688788,0.8681 17.66084,4.7605 29.72999,6.3123 48.40785,6.2242 9.53906,-0.045 19.35866,-0.2475 21.82133,-0.4499 3.60903,-0.2968 4.65469,-0.037 5.39063,1.3379 1.53501,2.8682 1.03881,7.979 -1.03,10.6091 l -1.94305,2.4702 -13.29133,-0.1143 c -7.31023,-0.063 -15.61164,-0.462 -18.44758,-0.8869 z m -8.90625,-15.7537 c -8.28326,-2.1651 -15.584,-8.1571 -19.29559,-15.8365 -3.173719,-6.5666 -3.049495,-16.8068 0.28132,-23.1899 9.12585,-17.4885 31.17715,-21.3665 44.68523,-7.8584 5.7078,5.7078 7.95795,11.2433 7.95795,19.5772 0,5.4089 -0.49511,8.0557 -2.14582,11.4711 -2.72259,5.6331 -8.27559,11.207 -13.71008,13.7615 -4.67106,2.1957 -13.40855,3.2157 -17.77301,2.075 z m 0.46875,-7.0366 c 0,-0.1947 -0.73828,-0.9329 -1.64063,-1.6406 -1.48692,-1.1661 -1.52008,-1.133 -0.35395,0.354 1.22472,1.5616 1.99458,2.0582 1.99458,1.2866 z m 14.98965,-1.0469 c 3.86531,-1.9988 5.63535,-4.988 5.63535,-9.5169 0,-5.5805 -4.12668,-9.7072 -9.70727,-9.7072 -9.59712,0 -14.22829,10.6921 -7.39043,17.0626 4.13264,3.8501 7.1109,4.4117 11.46235,2.1615 z m -3.85128,-3.1885 c -1.88855,-1.5293 -2.06318,-2.1498 -1.25315,-4.4531 0.78941,-2.2447 1.46303,-2.6763 4.17728,-2.6763 2.71425,0 3.38787,0.4316 4.17728,2.6763 0.81003,2.3033 0.6354,2.9238 -1.25315,4.4531 -1.20689,0.9773 -2.52275,1.7769 -2.92413,1.7769 -0.40138,0 -1.71724,-0.7996 -2.92413,-1.7769 z m 11.36163,-18.2646 c 0,-0.1947 -0.73828,-0.9329 -1.64063,-1.6406 -1.48692,-1.1661 -1.52008,-1.133 -0.35395,0.354 1.22472,1.5616 1.99458,2.0582 1.99458,1.2866 z m 74.0625,5.9153 c -15.31822,-2.2949 -45.92402,-14.4282 -50.59664,-20.0584 -1.60555,-1.9346 -1.04716,-1.8747 11.83679,1.2683 6.10698,1.4899 13.82456,3.2113 17.15018,3.8255 6.78704,1.2534 28.891,3.0864 29.877,2.4776 0.35141,-0.217 6.24415,-0.5405 13.09498,-0.7188 13.89472,-0.3617 14.22248,-0.2265 14.24834,5.8774 0.008,2.0273 -0.76647,4.3819 -1.92869,5.8594 l -1.94305,2.4702 -13.29133,-0.1143 c -7.31023,-0.063 -15.61164,-0.462 -18.44758,-0.8869 z m -10.93833,-16.6146 c -6.3444,-2.2672 -11.11895,-5.996 -14.49586,-11.32084 -3.65269,-5.7597 -4.86751,-10.6785 -4.32499,-17.51199 0.78848,-9.93153 6.093,-17.56173 15.3912,-22.13922 11.46475,-5.64408 23.93717,-3.52777 32.22986,5.46873 5.62411,6.10144 7.40944,10.69321 7.40944,19.0566 0,8.36339 -1.78533,12.95516 -7.40944,19.0566 -7.10498,7.70802 -19.21505,10.81542 -28.80021,7.39012 z m 2.50083,-6.1757 c 0,-0.1947 -0.73828,-0.9329 -1.64063,-1.6406 -1.48693,-1.16613 -1.52009,-1.13297 -0.35396,0.35395 1.22472,1.56165 1.99459,2.05825 1.99459,1.28665 z m 15.43659,-0.9784 c 3.61712,-1.51134 6.12591,-5.59231 6.12591,-9.96481 0,-2.1081 -0.91185,-3.86466 -3.1875,-6.14031 -2.61309,-2.6131 -3.89706,-3.1875 -7.125,-3.1875 -3.22794,0 -4.51191,0.5744 -7.125,3.1875 -2.27565,2.27565 -3.1875,4.03221 -3.1875,6.14031 0,4.26792 2.48255,8.42994 5.92004,9.92501 3.81002,1.6571 4.69844,1.6612 8.57905,0.04 z m -5.09111,-3.29349 c -1.53205,-2.86267 -1.15279,-4.58646 1.37327,-6.24159 2.17113,-1.42258 2.51637,-1.42258 4.6875,0 3.98677,2.61223 2.4031,8.05496 -2.34375,8.05496 -1.75593,0 -3.09656,-0.65404 -3.71702,-1.81337 z m 12.15452,-18.22809 c 0,-0.19468 -0.73828,-0.93296 -1.64063,-1.64062 -1.48693,-1.16613 -1.52009,-1.13297 -0.35396,0.35395 1.22472,1.56164 1.99459,2.05827 1.99459,1.28667 z"
         id="path4189"
         inkscape:connector-curvature="0" />
      <path
         style="fill:#15569c"
         d="m 195.71431,1127.0753 c -15.31823,-2.2949 -45.92402,-14.4282 -50.59664,-20.0584 -1.65677,-1.9963 -0.57941,-1.8998 9.68879,0.8681 17.97593,4.8454 29.65544,6.3186 49.34535,6.2243 10.05469,-0.048 19.87055,-0.259 21.81302,-0.4684 2.72035,-0.2933 3.74345,0.015 4.45312,1.3407 1.54258,2.8824 1.0515,7.9891 -1.02168,10.6247 l -1.94305,2.4702 -13.29133,-0.1143 c -7.31023,-0.063 -15.61164,-0.462 -18.44758,-0.8869 z m -10.93833,-16.6146 c -6.3444,-2.2672 -11.11895,-5.996 -14.49586,-11.3208 -3.65269,-5.7597 -4.8675,-10.6785 -4.32499,-17.512 0.78848,-9.9316 6.093,-17.5618 15.3912,-22.1392 11.47242,-5.6479 23.93651,-3.5285 32.24251,5.4824 6.05393,6.5677 7.73475,11.3057 7.2548,20.45 -0.44698,8.5161 -2.5998,13.3638 -8.40891,18.9355 -6.96436,6.6797 -18.76214,9.2833 -27.65875,6.1041 z m 18.90708,-3.8349 c 4.50969,-2.0709 6.45854,-4.1371 8.49188,-9.0036 2.88351,-6.9012 -0.69413,-16.3837 -7.37803,-19.5554 -10.74153,-5.0972 -23.1451,2.2035 -23.1451,13.6232 0,12.2872 11.22586,19.8976 22.03125,14.9358 z m -6.06077,-6.6127 c -1.53205,-2.8627 -1.15279,-4.5864 1.37327,-6.2416 2.17113,-1.4226 2.51637,-1.4226 4.6875,0 3.98677,2.6122 2.4031,8.055 -2.34375,8.055 -1.75593,0 -3.09656,-0.6541 -3.71702,-1.8134 z m -67.53298,-36.6878 c -15.31822,-2.2949 -45.924016,-14.4282 -50.596638,-20.0584 -1.656776,-1.9963 -0.57941,-1.8998 9.688788,0.8681 17.66084,4.7605 29.72999,6.3123 48.40785,6.2242 9.53906,-0.045 19.35866,-0.2475 21.82133,-0.4499 3.60903,-0.2968 4.65469,-0.037 5.39063,1.3379 1.53501,2.8682 1.03881,7.979 -1.03,10.6091 l -1.94305,2.4702 -13.29133,-0.1143 c -7.31023,-0.063 -15.61164,-0.462 -18.44758,-0.8869 z m -8.90625,-15.7537 c -8.28326,-2.1651 -15.584,-8.1571 -19.29559,-15.8365 -3.173719,-6.5666 -3.049495,-16.8068 0.28132,-23.1899 9.12585,-17.4885 31.17715,-21.3665 44.68523,-7.8584 5.7078,5.7078 7.95795,11.2433 7.95795,19.5772 0,5.4089 -0.49511,8.0557 -2.14582,11.4711 -2.72259,5.6331 -8.27559,11.207 -13.71008,13.7615 -4.67106,2.1957 -13.40855,3.2157 -17.77301,2.075 z m 16.875,-4.6958 c 4.5097,-2.0709 6.45854,-4.1371 8.49188,-9.0036 2.88351,-6.9012 -0.69413,-16.3837 -7.37803,-19.5555 -10.76993,-5.1106 -23.1451,2.203 -23.1451,13.6786 0,5.6376 2.11371,10.3934 5.77936,13.0036 5.4179,3.8579 10.62767,4.4595 16.25189,1.8769 z m -5.26788,-6.5762 c -1.88855,-1.5293 -2.06318,-2.1498 -1.25315,-4.4531 0.78941,-2.2447 1.46303,-2.6763 4.17728,-2.6763 2.71425,0 3.38787,0.4316 4.17728,2.6763 0.81003,2.3033 0.6354,2.9238 -1.25315,4.4531 -1.20689,0.9773 -2.52275,1.7769 -2.92413,1.7769 -0.40138,0 -1.71724,-0.7996 -2.92413,-1.7769 z m 85.42413,-12.3493 c -15.31822,-2.2949 -45.92402,-14.4282 -50.59664,-20.0584 -1.60555,-1.9346 -1.04716,-1.8747 11.83679,1.2683 6.10698,1.4899 13.82456,3.2113 17.15018,3.8255 6.78704,1.2534 28.891,3.0864 29.877,2.4776 0.35141,-0.217 6.24415,-0.5405 13.09498,-0.7188 13.89472,-0.3617 14.22248,-0.2265 14.24834,5.8774 0.008,2.0273 -0.76647,4.3819 -1.92869,5.8594 l -1.94305,2.4702 -13.29133,-0.1143 c -7.31023,-0.063 -15.61164,-0.462 -18.44758,-0.8869 z m -10.93833,-16.6146 c -6.3444,-2.2672 -11.11895,-5.996 -14.49586,-11.32084 -3.65269,-5.7597 -4.86751,-10.6785 -4.32499,-17.51199 0.78848,-9.93153 6.093,-17.56173 15.3912,-22.13922 11.46475,-5.64408 23.93717,-3.52777 32.22986,5.46873 5.62411,6.10144 7.40944,10.69321 7.40944,19.0566 0,8.36339 -1.78533,12.95516 -7.40944,19.0566 -7.10498,7.70802 -19.21505,10.81542 -28.80021,7.39012 z m 18.90708,-3.8349 c 4.50969,-2.0709 6.45854,-4.13715 8.49188,-9.00363 2.88351,-6.9012 -0.69413,-16.3837 -7.37803,-19.55542 -10.76993,-5.11067 -23.1451,2.20295 -23.1451,13.67856 0,5.63756 2.11371,10.39341 5.77936,13.00359 5.41791,3.8579 10.62767,4.4595 16.25189,1.8769 z m -6.06077,-6.61269 c -1.53205,-2.86267 -1.15279,-4.58646 1.37327,-6.24159 2.17113,-1.42258 2.51637,-1.42258 4.6875,0 3.98677,2.61223 2.4031,8.05496 -2.34375,8.05496 -1.75593,0 -3.09656,-0.65404 -3.71702,-1.81337 z"
         id="path4187"
         inkscape:connector-curvature="0" />
      <path
         style="fill:#05467d"
         d="m 200.40181,1127.4559 c -10.42194,-1.0178 -27.14087,-5.8675 -39.78479,-11.5405 -6.85464,-3.0754 -16.90888,-9.2703 -16.19858,-9.9806 0.25929,-0.2592 4.41865,0.5896 9.24302,1.8864 21.69984,5.833 28.547,6.6708 53.45768,6.5411 22.84498,-0.119 23.13003,-0.096 23.65907,1.875 1.01566,3.7847 0.55521,6.9063 -1.38194,9.369 -1.92932,2.4527 -2.02698,2.4691 -13.82813,2.3201 -6.53679,-0.082 -13.36164,-0.2942 -15.16633,-0.4705 z m -16.51373,-17.7705 c -11.60025,-4.1141 -19.55577,-18.1282 -17.23572,-30.3618 4.94844,-26.093 40.09261,-30.6582 51.67108,-6.712 2.96661,6.1354 2.96661,16.6693 0,22.8047 -6.11837,12.6538 -21.27775,18.9355 -34.43536,14.2691 z m 19.08765,-2.7384 c 4.64894,-1.9425 6.73965,-3.9413 8.7879,-8.4018 2.19349,-4.7767 2.1776,-8.3715 -0.0588,-13.2973 -2.46225,-5.4233 -7.95075,-8.9503 -13.92808,-8.9503 -17.26497,0 -22.8408,22.5009 -7.4622,30.1131 4.74633,2.3494 7.99265,2.4869 12.6612,0.5363 z m -4.8507,-6.5937 c -1.72756,-1.7276 -1.82123,-2.6873 -0.50274,-5.151 1.95812,-3.6587 8.40452,-1.5529 8.40452,2.7456 0,1.5401 -2.82621,3.8786 -4.6875,3.8786 -0.95759,0 -2.40402,-0.663 -3.21428,-1.4732 z m -66.24016,-36.9951 c -12.54142,-1.4664 -34.31075,-9.0141 -46.045893,-15.9647 -5.919814,-3.5062 -8.385759,-5.567 -6.661387,-5.567 0.41879,0 3.71322,0.8466 7.320953,1.8815 3.607735,1.0348 12.043892,3.0284 18.747017,4.4302 11.48616,2.402 13.54535,2.5439 35.78348,2.4651 23.26003,-0.082 23.60355,-0.055 24.12782,1.8979 1.01206,3.7706 0.54926,6.8953 -1.38559,9.3551 -1.92706,2.4499 -2.04084,2.4692 -13.82813,2.347 -6.53679,-0.068 -14.66301,-0.4481 -18.05827,-0.8451 z m -13.3243,-17.202 c -8.76965,-3.2684 -15.34353,-10.2835 -17.66141,-18.8466 -2.430149,-8.9778 1.27138,-21.7096 7.94404,-27.32423 5.98975,-5.04005 9.94667,-6.41764 18.43361,-6.41764 6.39974,0 8.7286,0.40428 11.82794,2.05331 5.91709,3.14824 9.09254,6.20666 12.12148,11.67476 2.45813,4.4376 2.76933,5.8949 2.76933,12.9682 0,7.0732 -0.3112,8.5305 -2.76933,12.9682 -4.91472,8.8724 -12.22692,13.3858 -22.54317,13.9145 -4.14806,0.2126 -7.87227,-0.1518 -10.12249,-0.9905 z m 18.79016,-2.9592 c 4.64893,-1.9425 6.73965,-3.9413 8.78789,-8.4018 2.18461,-4.7574 2.17828,-8.3703 -0.0232,-13.2177 -4.5993,-10.1274 -17.48127,-12.2665 -25.51145,-4.2363 -8.03019,8.0302 -5.89107,20.9121 4.2363,25.5114 4.70746,2.1379 8.00093,2.2286 12.51042,0.3444 z m -4.44892,-6.9955 c -1.03125,-1.0313 -1.875,-2.4777 -1.875,-3.2143 0,-1.8886 2.62183,-4.2857 4.6875,-4.2857 2.06567,0 4.6875,2.3971 4.6875,4.2857 0,1.529 -3.27921,5.0893 -4.6875,5.0893 -0.51563,0 -1.78125,-0.8438 -2.8125,-1.875 z m 86.71875,-12.2665 c -12.42728,-1.4642 -37.10488,-10.3266 -47.68052,-17.1234 -3.02116,-1.9417 -5.28088,-3.7425 -5.0216,-4.0018 0.25929,-0.2592 4.41865,0.5818 9.24302,1.8689 22.08538,5.8925 28.57096,6.6882 53.45768,6.5586 22.84498,-0.119 23.13003,-0.096 23.65907,1.875 1.01566,3.7847 0.55521,6.9063 -1.38194,9.369 -1.92692,2.4497 -2.04166,2.4692 -13.82813,2.3486 -6.53679,-0.067 -14.83821,-0.4696 -18.44758,-0.8949 z m -13.28978,-17.3937 c -5.569,-1.9733 -11.96668,-7.98655 -14.92045,-14.02384 -3.24654,-6.63569 -3.5006,-15.58139 -0.62702,-22.07761 9.60797,-21.72041 39.7214,-22.29405 50.04013,-0.95324 2.9863,6.17614 3.02192,16.72142 0.077,22.76525 -6.18943,12.70214 -21.35628,18.97144 -34.56959,14.28944 z m 19.14495,-2.7193 c 4.64894,-1.9425 6.73965,-3.94132 8.7879,-8.40177 2.1846,-4.75739 2.17827,-8.37033 -0.0232,-13.21775 -4.29313,-9.4532 -16.44608,-12.13474 -24.45471,-5.39592 -9.05173,7.61653 -7.39267,21.87163 3.09993,26.63544 4.78584,2.1728 8.06246,2.2717 12.59004,0.38 z m -5.44989,-7.11411 c -2.41711,-4.51641 3.11989,-9.01249 6.69554,-5.43684 2.19031,2.19031 2.29114,3.9983 0.33221,5.95722 -2.11855,2.11855 -5.75972,1.84894 -7.02775,-0.52038 z"
         id="path4185"
         inkscape:connector-curvature="0" />
      <path
         style="fill:#072a44"
         d="m 198.99556,1127.1134 c -15.55769,-1.6795 -43.62576,-12.068 -52.96875,-19.6046 -2.82404,-2.2781 -1.9598,-2.3729 4.21875,-0.4631 6.37761,1.9714 19.70662,4.867 30.46875,6.6191 6.78117,1.104 13.67897,1.3504 28.90885,1.0326 l 20.00262,-0.4173 0.97455,2.139 c 1.3669,3 0.11478,8.5191 -2.31955,10.2242 -2.24888,1.5752 -16.87426,1.81 -29.28522,0.4701 z m -0.87053,-26.7601 c -1.72756,-1.7276 -1.82123,-2.6873 -0.50274,-5.151 1.95812,-3.6587 8.40452,-1.5529 8.40452,2.7456 0,1.5401 -2.82621,3.8786 -4.6875,3.8786 -0.95759,0 -2.40402,-0.663 -3.21428,-1.4732 z m -64.75447,-36.9899 c -15.55769,-1.6795 -43.625756,-12.068 -52.96875,-19.6046 -2.824043,-2.2781 -1.959796,-2.3729 4.21875,-0.4631 6.366136,1.9679 19.69046,4.8638 30.46875,6.6221 6.83552,1.1151 13.55406,1.3489 28.89653,1.0056 l 19.99029,-0.4474 0.98688,2.166 c 1.37763,3.0236 0.13608,8.5399 -2.30723,10.2513 -2.24888,1.5752 -16.87425,1.81 -29.28522,0.4701 z m -1.4252,-28.1348 c -2.05862,-3.8466 1.26096,-7.4495 5.59599,-6.0736 4.41061,1.3999 2.90391,7.984 -1.82704,7.984 -1.80401,0 -3.09739,-0.6556 -3.76895,-1.9104 z m 89.67249,-11.2712 c -8.57792,-0.9959 -14.22278,-2.3842 -25.34938,-6.2346 -9.70677,-3.359 -23.72646,-10.1001 -27.74166,-13.339 -2.82308,-2.2773 -1.96153,-2.3725 4.21875,-0.4661 2.57812,0.7952 10.59375,2.7807 17.8125,4.4122 12.84638,2.9034 13.64068,2.9676 37.41762,3.025 23.94284,0.058 24.3056,0.088 25.19398,2.0787 1.29916,2.9115 -0.005,8.4145 -2.38888,10.0847 -2.27303,1.5921 -17.28445,1.8181 -29.16293,0.4391 z m -0.99282,-26.72913 c -1.72756,-1.72756 -1.82123,-2.68729 -0.50274,-5.15092 1.95812,-3.65878 8.40452,-1.55291 8.40452,2.74553 0,1.5401 -2.82621,3.8786 -4.6875,3.8786 -0.95759,0 -2.40402,-0.66295 -3.21428,-1.47321 z"
         id="path4183"
         inkscape:connector-curvature="0" />
      <path
         style="fill:#01253e"
         d="m 198.04448,1126.3442 c -0.25385,-0.2539 -1.83121,-0.5643 -3.50524,-0.6897 -2.65564,-0.1991 -5.76972,-0.7854 -7.26243,-1.3673 -0.25781,-0.1005 -0.7979,-0.1286 -1.20019,-0.062 -0.40228,0.066 -1.93083,-0.4997 -3.39676,-1.2578 -1.46593,-0.7581 -2.91956,-1.1241 -3.23028,-0.8133 -0.31073,0.3107 -1.14132,0.087 -1.84575,-0.498 -0.70443,-0.5847 -1.55837,-0.7854 -1.89765,-0.4461 -0.33928,0.3392 -0.61687,0.1 -0.61687,-0.5322 0,-0.632 -0.40996,-0.8958 -0.91102,-0.5861 -0.50106,0.3097 -1.97762,-0.1358 -3.28125,-0.99 -1.30363,-0.8541 -2.37023,-1.2838 -2.37023,-0.9548 0,0.329 -0.94922,-0.024 -2.10938,-0.7839 -1.16015,-0.7602 -2.43079,-1.3923 -2.82364,-1.4048 -1.29641,-0.041 -13.34169,-6.0538 -13.66073,-6.8192 -0.17188,-0.4123 -0.93505,-0.7496 -1.69595,-0.7496 -0.7609,0 -1.11847,-0.4288 -0.7946,-0.9528 0.32387,-0.524 1.08705,-0.6414 1.69595,-0.2607 0.60891,0.3806 1.63444,0.8093 2.27897,0.9527 2.2322,0.4967 4.45525,1.0556 4.92188,1.2376 0.25781,0.1005 0.80225,0.1271 1.20985,0.059 0.40761,-0.068 1.57873,0.3246 2.60249,0.8725 1.02375,0.5479 3.43245,1.1858 5.35264,1.4175 1.9202,0.2317 7.28814,1.0499 11.92877,1.8182 9.37231,1.5517 23.37883,2.079 40.17037,1.5124 12.40005,-0.4184 12.99788,-0.156 12.59932,5.5311 -0.41957,5.9868 -2.46275,6.7162 -18.08257,6.456 -7.48777,-0.1247 -13.82184,-0.4345 -14.0757,-0.6884 z m -65.625,-63.75 c -0.25386,-0.2539 -1.83122,-0.5643 -3.50524,-0.6897 -2.82914,-0.2121 -6.79368,-0.9908 -6.79368,-1.3344 0,-0.1455 -3.4857,-0.7976 -5.85938,-1.0962 -0.64453,-0.081 -1.17187,-0.4857 -1.17187,-0.8992 0,-0.4135 -0.59014,-0.5254 -1.31142,-0.2486 -0.72128,0.2767 -1.59418,0.046 -1.93978,-0.5135 -0.3456,-0.5592 -1.02108,-0.774 -1.50108,-0.4773 -0.48,0.2966 -0.87272,0.068 -0.87272,-0.5088 0,-0.5765 -0.40996,-0.7948 -0.91102,-0.4851 -0.50106,0.3096 -1.97762,-0.1359 -3.28125,-0.99 -1.30363,-0.8542 -2.37023,-1.2839 -2.37023,-0.9549 0,0.329 -0.94922,-0.024 -2.10938,-0.7839 -1.160151,-0.7602 -2.531245,-1.4438 -3.04687,-1.5192 -1.875073,-0.2741 -13.133474,-5.8297 -13.4375,-6.6309 -0.171875,-0.4529 -0.935054,-0.8235 -1.695953,-0.8235 -0.7609,0 -1.118468,-0.4288 -0.794596,-0.9528 0.323872,-0.524 1.087051,-0.6414 1.695953,-0.2607 0.608903,0.3806 1.63444,0.8093 2.278971,0.9527 2.884207,0.6418 4.453125,1.0662 4.453125,1.2047 0,0.082 0.84375,0.297 1.875,0.4769 2.657283,0.4635 5.625,1.2163 5.625,1.4268 0,0.098 1.214066,0.3204 2.69793,0.4936 1.48385,0.1732 6.54635,0.9639 11.25,1.7573 9.4427,1.5926 23.33472,2.1299 40.28494,1.5579 12.40006,-0.4184 12.99788,-0.156 12.59932,5.5311 -0.41957,5.9868 -2.46275,6.7162 -18.08257,6.456 -7.48777,-0.1247 -13.82184,-0.4345 -14.0757,-0.6883 z m 89.11591,-39.3216 c -0.21171,-0.2118 -1.99479,-0.5207 -3.96239,-0.6866 -3.13182,-0.2641 -6.31053,-0.8446 -7.79619,-1.4238 -0.25781,-0.1005 -0.7979,-0.1286 -1.20019,-0.062 -0.40228,0.066 -1.93083,-0.4998 -3.39676,-1.2578 -1.46593,-0.7581 -2.91956,-1.1241 -3.23028,-0.8134 -0.31073,0.3107 -1.14132,0.087 -1.84575,-0.498 -0.70443,-0.5846 -1.55837,-0.7854 -1.89765,-0.4461 -0.33928,0.3393 -0.61687,0.1 -0.61687,-0.5322 0,-0.632 -0.40996,-0.8957 -0.91102,-0.586 -0.50106,0.3096 -1.97762,-0.1359 -3.28125,-0.99 -1.30363,-0.8542 -2.37023,-1.2839 -2.37023,-0.9549 0,0.329 -1.1416,-0.1498 -2.53689,-1.064 -1.39529,-0.9143 -2.6647,-1.5485 -2.8209,-1.4094 -0.55909,0.4977 -13.39221,-5.7298 -13.39221,-6.4988 0,-0.4319 -0.65771,-0.7853 -1.46158,-0.7853 -0.80387,0 -1.19659,-0.4288 -0.87272,-0.9528 0.32387,-0.524 1.08705,-0.6414 1.69596,-0.2608 0.60889,0.3807 1.63443,0.8094 2.27896,0.9528 2.88421,0.6418 4.45313,1.0662 4.45313,1.2047 0,0.082 0.84375,0.297 1.875,0.4769 2.65729,0.4635 5.625,1.2163 5.625,1.4268 0,0.098 1.21406,0.3204 2.69793,0.4936 1.48385,0.1732 6.54635,0.9564 11.25,1.7404 9.57777,1.5966 22.59473,2.1096 39.81811,1.5694 12.91068,-0.405 13.46605,-0.1697 13.06615,5.5365 -0.41824,5.9677 -2.52723,6.7395 -17.63782,6.4542 -7.22953,-0.1365 -13.31781,-0.4214 -13.52954,-0.6331 z"
         id="path4181"
         inkscape:connector-curvature="0" />
    </g>
    <text
       xml:space="preserve"
       style="font-style:normal;font-weight:normal;font-size:236.59307861px;line-height:125%;font-family:sans-serif;letter-spacing:0px;word-spacing:0px;fill:#000000;fill-opacity:1;stroke:none;stroke-width:1px;stroke-linecap:butt;stroke-linejoin:miter;stroke-opacity:1"
       x="204.10762"
       y="1296.266"
       id="text4267"
       sodipodi:linespacing="125%"
       transform="scale(0.91752993,1.0898827)"><tspan
         sodipodi:role="line"
         id="tspan4269"
         x="204.10762"
         y="1296.266">VIS.JS</tspan></text>
  </g>
</svg>
