<?xml version="1.0" encoding="UTF-8" standalone="no"?>
<svg
   xmlns:dc="http://purl.org/dc/elements/1.1/"
   xmlns:cc="http://creativecommons.org/ns#"
   xmlns:rdf="http://www.w3.org/1999/02/22-rdf-syntax-ns#"
   xmlns:svg="http://www.w3.org/2000/svg"
   xmlns="http://www.w3.org/2000/svg"
   xmlns:sodipodi="http://sodipodi.sourceforge.net/DTD/sodipodi-0.dtd"
   xmlns:inkscape="http://www.inkscape.org/namespaces/inkscape"
   version="1.0"
   width="48"
   height="48"
   viewBox="0 0 36 36"
   preserveAspectRatio="xMidYMid meet"
   id="svg10"
   sodipodi:docname="application-interaction.svg"
   inkscape:version="0.92.2 5c3e80d, 2017-08-06">
  <defs
     id="defs14" />
  <sodipodi:namedview
     pagecolor="#ffffff"
     bordercolor="#666666"
     borderopacity="1"
     objecttolerance="10"
     gridtolerance="10"
     guidetolerance="10"
     inkscape:pageopacity="0"
     inkscape:pageshadow="2"
     inkscape:window-width="1287"
     inkscape:window-height="979"
     id="namedview12"
     showgrid="false"
     units="px"
     inkscape:zoom="13.290284"
     inkscape:cx="5.7484795"
     inkscape:cy="20.917536"
     inkscape:window-x="0"
     inkscape:window-y="0"
     inkscape:window-maximized="0"
     inkscape:current-layer="svg10" />
  <metadata
     id="metadata2">
Created by potrace 1.12, written by Peter Selinger 2001-2015
<rdf:RDF>
  <cc:Work
     rdf:about="">
    <dc:format>image/svg+xml</dc:format>
    <dc:type
       rdf:resource="http://purl.org/dc/dcmitype/StillImage" />
    <dc:title />
  </cc:Work>
</rdf:RDF>
</metadata>
  <g
     transform="matrix(0.25894,0,0,-0.25894,-2.5894,39.777727)"
     id="g8"
     style="fill:#000000;stroke:none">
    <path
       d="M 26,128 C 17,116 10,96 10,85 10,58 37,20 56,20 c 11,0 14,15 14,65 0,71 -15,85 -44,43 z M 60,84 C 60,44 57,29 48,32 26,40 15,86 28,115 47,156 60,144 60,84 Z"
       id="path4"
       inkscape:connector-curvature="0" />
    <path
       d="m 90,85 c 0,-71 15,-85 44,-43 20,28 20,58 0,86 -29,42 -44,28 -44,-43 z m 42,30 c 13,-29 2,-75 -19,-83 -10,-3 -13,12 -13,52 0,60 13,72 32,31 z"
       id="path6"
       inkscape:connector-curvature="0" />
  </g>
  <path
     style="fill:#00ffff;stroke-width:0.07524294"
     d="M 13.152384,41.943863 C 11.414714,41.381415 9.536367,39.730024 8.0933368,37.496086 6.1091672,34.424418 4.7648682,30.039513 4.4168305,25.503866 4.3070547,24.073262 4.3690311,21.009011 4.5334336,19.738753 4.7854534,17.79152 5.2630677,15.837692 5.8761353,14.246019 6.2813901,13.193879 7.5748954,10.620478 8.3425249,9.33919 9.587517,7.2611123 10.816065,5.8688836 11.870197,5.3415231 c 0.94966,-0.475096 1.571618,-0.3691374 2.339004,0.3984799 2.023879,2.0244916 3.0069,8.190849 3.005312,18.85192 -0.0014,9.177446 -0.518249,14.12023 -1.704518,16.299795 -0.262641,0.482559 -0.831722,1.009928 -1.200218,1.112244 -0.400287,0.111144 -0.671917,0.09704 -1.157393,-0.0601 z"
     id="path9"
     inkscape:connector-curvature="0"
     transform="scale(0.75)" />
  <path
     style="fill:#00ffff;stroke-width:0.07524294"
     d="m 34.179264,41.991008 c -0.438001,-0.178086 -0.78108,-0.44184 -1.048385,-0.805981 -0.995621,-1.356308 -1.557545,-4.129823 -1.86024,-9.181675 -0.133084,-2.221118 -0.133318,-12.364775 -3.32e-4,-14.371401 0.38849,-5.861924 1.153786,-9.5085034 2.383822,-11.3587411 0.595425,-0.8956475 1.207052,-1.2583229 2.000708,-1.1863567 0.672551,0.060985 1.262232,0.4136038 2.101988,1.256954 1.18214,1.1871994 2.317846,2.9363488 3.640769,5.6073018 1.426824,2.88073 1.953122,4.57135 2.391802,7.683156 0.229015,1.624528 0.248757,5.49902 0.03638,7.139703 -0.286786,2.215515 -0.685704,4.101682 -1.21739,5.756085 -1.49199,4.64249 -3.873082,7.955386 -6.63496,9.231452 -0.6349,0.293342 -1.397295,0.390865 -1.794162,0.229503 z"
     id="path11"
     inkscape:connector-curvature="0"
     transform="scale(0.75)" />
  <path
     style="fill:#deffff;stroke-width:0.07524294"
     d="M 13.053689,41.880404 C 11.416996,41.297457 9.6007528,39.696687 8.2147516,37.615544 6.370669,34.84657 5.0919778,30.995205 4.5452937,26.563288 4.3914432,25.316036 4.3683914,21.749342 4.5051031,20.344798 4.6829032,18.518119 5.1489364,16.393647 5.7406226,14.712525 6.1006383,13.689634 7.8366233,10.194893 8.5438478,9.0693049 10.4288,6.0692941 12.190191,4.6753902 13.41278,5.2161994 c 1.928263,0.8529626 3.043281,4.555061 3.569407,11.8511966 0.167361,2.320905 0.19468,12.779463 0.03974,15.214355 -0.494189,7.766306 -1.600376,10.442026 -3.96824,9.598653 z"
     id="path12"
     inkscape:connector-curvature="0"
     transform="scale(0.75)" />
  <path
     style="fill:#deffff;stroke-width:0.07524294"
     d="M 33.886032,41.807694 C 32.54455,41.019643 31.866174,38.776616 31.403264,33.598502 31.245783,31.836915 31.165096,20.287097 31.29393,17.947971 31.638141,11.698407 32.602263,7.4257939 34.017761,5.8770138 c 0.513003,-0.5613069 0.875521,-0.7455417 1.470338,-0.7472383 0.735366,-0.0021 1.317428,0.3249641 2.246153,1.2621177 1.163907,1.1744699 2.152342,2.6668011 3.417975,5.1604288 1.549725,3.053362 2.189135,5.04138 2.613655,8.126237 0.166658,1.21105 0.193161,5.955259 0.03951,7.072836 -0.534218,3.88567 -1.340108,6.679264 -2.696101,9.345961 -1.403425,2.759978 -3.140617,4.668645 -5.093173,5.595909 -0.45883,0.217898 -0.685569,0.277952 -1.156862,0.306407 -0.548466,0.03311 -0.611083,0.02076 -0.973226,-0.191978 z"
     id="path14"
     inkscape:connector-curvature="0"
     transform="scale(0.75)" />
</svg>
