<?xml version="1.0" encoding="UTF-8" standalone="no"?>
<svg
   xmlns:dc="http://purl.org/dc/elements/1.1/"
   xmlns:cc="http://creativecommons.org/ns#"
   xmlns:rdf="http://www.w3.org/1999/02/22-rdf-syntax-ns#"
   xmlns:svg="http://www.w3.org/2000/svg"
   xmlns="http://www.w3.org/2000/svg"
   xmlns:sodipodi="http://sodipodi.sourceforge.net/DTD/sodipodi-0.dtd"
   xmlns:inkscape="http://www.inkscape.org/namespaces/inkscape"
   version="1.0"
   width="48"
   height="48"
   viewBox="0 0 36 36"
   preserveAspectRatio="xMidYMid meet"
   id="svg8"
   sodipodi:docname="application-process.svg"
   inkscape:version="0.92.2 5c3e80d, 2017-08-06">
  <defs
     id="defs12" />
  <sodipodi:namedview
     pagecolor="#ffffff"
     bordercolor="#666666"
     borderopacity="1"
     objecttolerance="10"
     gridtolerance="10"
     guidetolerance="10"
     inkscape:pageopacity="0"
     inkscape:pageshadow="2"
     inkscape:window-width="1422"
     inkscape:window-height="1070"
     id="namedview10"
     showgrid="false"
     units="px"
     inkscape:zoom="18.108856"
     inkscape:cx="18.65207"
     inkscape:cy="24.187061"
     inkscape:window-x="0"
     inkscape:window-y="0"
     inkscape:window-maximized="0"
     inkscape:current-layer="svg8" />
  <metadata
     id="metadata2">
Created by potrace 1.12, written by Peter Selinger 2001-2015
<rdf:RDF>
  <cc:Work
     rdf:about="">
    <dc:format>image/svg+xml</dc:format>
    <dc:type
       rdf:resource="http://purl.org/dc/dcmitype/StillImage" />
    <dc:title />
  </cc:Work>
</rdf:RDF>
</metadata>
  <g
     transform="matrix(0.25007413,0,0,-0.25007413,-1.7138335,38.684221)"
     id="g6"
     style="fill:#000000;stroke:none">
    <path
       d="m 90,127 c 0,-13 -9,-17 -40,-17 -36,0 -40,-2 -40,-25 0,-22 4,-25 39,-25 28,0 40,-5 43,-16 2,-12 9,-9 31,13 l 27,29 -30,29 C 97,137 90,140 90,127 Z M 123,68 C 113,57 104,53 102,59 100,65 81,70 59,70 31,70 20,74 20,85 c 0,11 11,15 40,15 24,0 40,5 40,12 0,6 9,3 20,-7 19,-17 19,-19 3,-37 z"
       id="path4"
       inkscape:connector-curvature="0" />
  </g>
  <path
     style="fill:#00ffff;stroke-width:0.0552216"
     d="M 32.481208,32.730532 C 32.172937,32.607502 31.984196,32.397804 31.763353,31.932968 31.625761,31.643361 31.445247,31.368203 31.292907,31.215862 30.188635,30.11159 27.31224,29.149266 23.56127,28.629173 21.49832,28.343134 20.338034,28.269525 16.934678,28.208781 13.257011,28.143141 11.766283,28.042566 9.9713144,27.738982 7.7013136,27.355056 6.28237,26.762876 5.3892561,25.826714 4.9948015,25.413247 4.7996734,25.096095 4.6032565,24.549188 4.4707502,24.180235 4.4598163,24.080337 4.4598163,23.238634 c 0,-0.844694 0.010602,-0.940701 0.1453513,-1.316202 0.2082284,-0.580265 0.4562245,-0.960368 0.9059583,-1.388562 1.2803321,-1.219011 3.6237389,-1.866105 7.8065371,-2.155649 0.470764,-0.03259 2.22267,-0.08224 3.893123,-0.110345 3.444579,-0.05795 4.634753,-0.125273 6.405706,-0.362351 2.877428,-0.385202 5.047836,-1.042168 6.297874,-1.906318 0.762239,-0.526935 1.108373,-1.047315 1.167754,-1.755609 0.03866,-0.461163 0.186509,-0.751841 0.458671,-0.901779 0.160027,-0.08816 0.269271,-0.101967 0.635049,-0.08025 1.23896,0.07355 3.183726,1.240364 5.494549,3.296591 3.665839,3.261955 4.797545,4.669777 4.897147,6.091962 0.09338,1.333348 -0.65843,2.590152 -3.440641,5.751734 -2.047415,2.326593 -3.936725,3.822559 -5.396862,4.273265 -0.40298,0.124389 -1.008654,0.151265 -1.248825,0.05541 z"
     id="path8"
     inkscape:connector-curvature="0"
     transform="scale(0.75)" />
  <path
     style="fill:#deffff;stroke-width:0.0552216"
     d="m 32.405032,32.670119 c -0.220616,-0.09609 -0.431009,-0.351882 -0.658486,-0.800563 -0.253969,-0.500935 -0.509407,-0.778809 -1.041197,-1.13265 -1.603585,-1.066988 -4.864271,-1.930578 -8.762072,-2.320627 -1.09411,-0.109486 -2.671842,-0.182828 -4.83189,-0.224614 -3.433497,-0.06642 -4.963173,-0.157957 -6.57137,-0.393227 C 7.9069386,27.413234 6.4110866,26.831014 5.4276991,25.808606 5.0106773,25.375037 4.8129719,25.060119 4.6270065,24.533211 4.5090812,24.199086 4.4954614,24.06671 4.4944163,23.244518 c -9.756e-4,-0.767519 0.016365,-0.967267 0.1067849,-1.230077 0.5607844,-1.629949 2.0716449,-2.601305 4.8956489,-3.14749 1.7168479,-0.332053 3.1857109,-0.460762 6.0683319,-0.53174 5.428096,-0.133655 6.472295,-0.189767 8.298726,-0.445947 3.429488,-0.481029 5.947986,-1.429362 6.81943,-2.567834 0.211901,-0.276832 0.389705,-0.766385 0.453378,-1.248297 0.04244,-0.321215 0.220321,-0.594732 0.471442,-0.724908 0.376925,-0.195391 1.201182,-0.02261 2.180152,0.457015 1.278005,0.626126 2.439799,1.485936 4.441777,3.28723 3.262145,2.93514 4.313078,4.337436 4.310031,5.751017 -0.0026,1.195687 -0.666678,2.327169 -2.879918,4.906752 -2.021656,2.356288 -3.602597,3.765485 -5.078739,4.527013 -0.323064,0.166666 -0.732092,0.340719 -0.908953,0.386785 -0.392852,0.102325 -1.039396,0.105427 -1.267476,0.0061 z"
     id="path9"
     inkscape:connector-curvature="0"
     transform="scale(0.75)" />
</svg>
