<?xml version="1.0" encoding="UTF-8" standalone="no"?>
<svg
   xmlns:dc="http://purl.org/dc/elements/1.1/"
   xmlns:cc="http://creativecommons.org/ns#"
   xmlns:rdf="http://www.w3.org/1999/02/22-rdf-syntax-ns#"
   xmlns:svg="http://www.w3.org/2000/svg"
   xmlns="http://www.w3.org/2000/svg"
   xmlns:sodipodi="http://sodipodi.sourceforge.net/DTD/sodipodi-0.dtd"
   xmlns:inkscape="http://www.inkscape.org/namespaces/inkscape"
   version="1.0"
   width="48"
   height="48"
   viewBox="0 0 36 36"
   preserveAspectRatio="xMidYMid meet"
   id="svg14"
   sodipodi:docname="material.svg"
   inkscape:version="0.92.2 5c3e80d, 2017-08-06">
  <defs
     id="defs18" />
  <sodipodi:namedview
     pagecolor="#ffffff"
     bordercolor="#666666"
     borderopacity="1"
     objecttolerance="10"
     gridtolerance="10"
     guidetolerance="10"
     inkscape:pageopacity="0"
     inkscape:pageshadow="2"
     inkscape:window-width="2560"
     inkscape:window-height="1319"
     id="namedview16"
     showgrid="false"
     units="px"
     inkscape:zoom="11.0625"
     inkscape:cx="6.4180791"
     inkscape:cy="10.666667"
     inkscape:window-x="0"
     inkscape:window-y="0"
     inkscape:window-maximized="1"
     inkscape:current-layer="svg14" />
  <metadata
     id="metadata2">
Created by potrace 1.10, written by Peter Selinger 2001-2011
<rdf:RDF>
  <cc:Work
     rdf:about="">
    <dc:format>image/svg+xml</dc:format>
    <dc:type
       rdf:resource="http://purl.org/dc/dcmitype/StillImage" />
    <dc:title></dc:title>
  </cc:Work>
</rdf:RDF>
</metadata>
  <g
     transform="matrix(0.22348668,0,0,-0.22348668,0.20338983,35.743342)"
     id="g12"
     style="fill:#000000;stroke:none">
    <path
       d="M 22,115 0,80 22,45 C 41,16 51,10 80,10 c 29,0 39,6 58,35 l 22,35 -22,35 c -19,29 -29,35 -58,35 -29,0 -39,-6 -58,-35 z M 128,110 151,80 128,50 C 99,10 61,10 32,50 L 9,80 32,110 c 29,40 67,40 96,0 z"
       id="path4"
       inkscape:connector-curvature="0" />
    <path
       d="M 44,98 25,75 48,94 c 12,11 22,21 22,23 0,8 -8,2 -26,-19 z"
       id="path6"
       inkscape:connector-curvature="0" />
    <path
       d="m 105,100 c 10,-11 20,-20 23,-20 3,0 -3,9 -13,20 -10,11 -20,20 -23,20 -3,0 3,-9 13,-20 z"
       id="path8"
       inkscape:connector-curvature="0" />
    <path
       d="m 63,43 c 9,-2 25,-2 35,0 9,3 1,5 -18,5 -19,0 -27,-2 -17,-5 z"
       id="path10"
       inkscape:connector-curvature="0" />
  </g>
  <path
     style="fill:#ccf4cc;stroke-width:0.09039548"
     d="m 22.210169,41.510572 c -3.502353,-0.579498 -6.56943,-2.360166 -9.763575,-5.668485 -1.113791,-1.153604 -1.121246,-1.162966 -5.9572448,-7.480429 l -3.484034,-4.551337 0.5733224,-0.736799 c 0.3153273,-0.405239 2.1379166,-2.779424 4.0501986,-5.275964 1.9122818,-2.496542 3.8746218,-4.986531 4.3607558,-5.533308 2.343129,-2.6354282 5.243013,-4.666317 7.947649,-5.5660136 1.603605,-0.5334391 2.258006,-0.6326997 4.171234,-0.6326997 1.91298,0 2.567676,0.099278 4.170281,0.6323812 3.120382,1.0379877 6.380648,3.5056621 9.027459,6.8328241 1.887168,2.372256 7.863244,10.245913 7.837926,10.326699 -0.02834,0.09043 -6.644087,8.750677 -7.780916,10.185497 -0.864878,1.091586 -2.621127,2.899194 -3.67283,3.780238 -2.152715,1.803398 -4.587446,3.033212 -7.096045,3.584303 -0.921721,0.202484 -3.427381,0.261404 -4.384181,0.103093 z m 4.808636,-6.299749 c 1.58328,-0.133576 2.462239,-0.296959 3.053298,-0.567554 0.407468,-0.186546 0.499648,-0.269551 0.499648,-0.449922 0,-0.528249 -1.556627,-0.770317 -5.423728,-0.843432 -4.569373,-0.08639 -7.41243,0.213755 -7.41243,0.782548 0,0.47035 1.63131,0.937369 3.887006,1.112792 0.98014,0.07622 4.338606,0.05479 5.396206,-0.03443 z M 11.137438,22.552207 c 3.530416,-2.913584 5.558603,-4.742453 7.805031,-7.038007 2.155047,-2.202176 2.418007,-2.627201 2.098516,-3.391852 -0.190035,-0.454819 -0.472803,-0.491574 -1.16201,-0.151041 -1.454597,0.718708 -3.991673,3.375839 -8.861348,9.28067 C 9.6235695,22.942373 8.3022471,24.538983 8.0813551,24.8 7.8604633,25.061017 7.715505,25.274576 7.7592256,25.274576 c 0.043721,0 1.5639161,-1.225065 3.3782124,-2.722369 z m 27.52342,1.187732 c 0.28015,-0.453292 -1.257035,-2.716733 -3.75162,-5.524104 -1.35748,-1.52769 -4.15483,-4.300546 -5.177311,-5.131979 -1.276458,-1.037954 -2.144431,-1.435025 -2.292636,-1.048809 -0.138433,0.36075 0.701693,1.785015 2.031308,3.443674 2.426882,3.027471 6.536312,7.102046 8.089465,8.020851 0.541689,0.320449 0.990705,0.418495 1.100794,0.240367 z"
     id="path20"
     inkscape:connector-curvature="0"
     transform="scale(0.75)" />
</svg>
