<?xml version="1.0" encoding="UTF-8" standalone="no"?>
<svg
   xmlns:dc="http://purl.org/dc/elements/1.1/"
   xmlns:cc="http://creativecommons.org/ns#"
   xmlns:rdf="http://www.w3.org/1999/02/22-rdf-syntax-ns#"
   xmlns:svg="http://www.w3.org/2000/svg"
   xmlns="http://www.w3.org/2000/svg"
   xmlns:sodipodi="http://sodipodi.sourceforge.net/DTD/sodipodi-0.dtd"
   xmlns:inkscape="http://www.inkscape.org/namespaces/inkscape"
   version="1.0"
   width="48"
   height="48"
   viewBox="0 0 36 36"
   preserveAspectRatio="xMidYMid meet"
   id="svg10"
   sodipodi:docname="path.svg"
   inkscape:version="0.92.2 5c3e80d, 2017-08-06">
  <defs
     id="defs14" />
  <sodipodi:namedview
     pagecolor="#ffffff"
     bordercolor="#666666"
     borderopacity="1"
     objecttolerance="10"
     gridtolerance="10"
     guidetolerance="10"
     inkscape:pageopacity="0"
     inkscape:pageshadow="2"
     inkscape:window-width="2560"
     inkscape:window-height="1319"
     id="namedview12"
     showgrid="false"
     units="px"
     showguides="false"
     inkscape:zoom="36.954082"
     inkscape:cx="23.448757"
     inkscape:cy="25.411781"
     inkscape:window-x="0"
     inkscape:window-y="0"
     inkscape:window-maximized="1"
     inkscape:current-layer="svg10" />
  <metadata
     id="metadata2">
Created by potrace 1.10, written by Peter Selinger 2001-2011
<rdf:RDF>
  <cc:Work
     rdf:about="">
    <dc:format>image/svg+xml</dc:format>
    <dc:type
       rdf:resource="http://purl.org/dc/dcmitype/StillImage" />
    <dc:title></dc:title>
  </cc:Work>
</rdf:RDF>
</metadata>
  <g
     transform="matrix(0.22381914,0,0,-0.21726308,-0.30407305,35.738846)"
     id="g8"
     style="fill:#000000;stroke:none">
    <path
       d="M 22,117 C -6,87 -6,79 25,50 54,22 71,31 45,60 31,75 30,80 41,80 c 11,0 11,2 1,9 -10,6 -10,10 3,21 16,13 20,30 7,30 -5,0 -18,-10 -30,-23 z m 15,-5 C 16,89 16,82 37,56 55,35 55,35 33,54 20,65 10,78 10,83 c 0,11 29,47 38,47 3,0 -2,-8 -11,-18 z"
       id="path4"
       inkscape:connector-curvature="0" />
    <path
       d="m 100,131 c 0,-5 6,-14 14,-20 17,-14 15,-33 -3,-55 -22,-27 -3,-31 24,-6 31,29 31,41 2,68 -25,23 -37,28 -37,13 z m 50,-46 c 0,-7 -10,-20 -22,-31 -23,-19 -23,-19 -5,2 9,11 17,24 17,29 0,5 -8,18 -17,29 -18,21 -18,21 5,2 12,-11 22,-24 22,-31 z"
       id="path6"
       inkscape:connector-curvature="0" />
  </g>
  <path
     style="fill:#ccf4cc;stroke-width:0.09039548"
     d="M 13.80339,35.556962 C 11.420095,33.659831 7.8615901,30.592539 6.7525424,29.479407 4.2772673,26.995016 2.7732167,24.87942 2.6594018,23.721998 2.5486137,22.595356 3.701329,20.349349 5.8865398,17.434081 c 3.0380856,-4.053078 6.4601512,-7.251815 7.8806712,-7.366366 0.255693,-0.02062 0.311947,0.0081 0.335217,0.171143 0.08564,0.600077 -1.229547,2.432526 -3.68724,5.137413 -2.3653512,2.603257 -3.2232369,3.733384 -3.891205,5.126042 -1.5471427,3.225663 -0.4132926,5.820456 5.492718,12.569974 2.25746,2.579873 2.420993,2.784691 2.216067,2.775529 -0.03729,-0.0017 -0.230508,-0.132551 -0.429378,-0.290854 z"
     id="path16"
     inkscape:connector-curvature="0"
     transform="scale(0.75)" />
  <path
     style="fill:#ccf4cc;stroke-width:0.09039548"
     d="m 32.615484,35.828249 c 0.158975,-0.273407 0.728121,-0.954412 2.221065,-2.65759 0.878972,-1.002748 1.948347,-2.264159 2.37639,-2.803134 2.273784,-2.863064 3.992253,-5.792915 4.17354,-7.115551 0.07411,-0.540697 -0.148078,-1.246694 -0.785899,-2.497172 -1.112201,-2.180518 -2.797971,-4.487526 -5.664386,-7.751818 -1.652616,-1.88201 -2.417074,-2.813253 -2.357942,-2.872385 0.07204,-0.07204 1.018663,0.631072 3.326833,2.471022 3.85891,3.076117 6.696607,6.191738 7.878716,8.650356 0.471771,0.981217 0.597454,1.60957 0.456542,2.282486 -0.494654,2.362191 -3.866701,6.387334 -8.290061,9.895677 -2.757618,2.187177 -3.538785,2.748927 -3.334798,2.398109 z"
     id="path18"
     inkscape:connector-curvature="0"
     transform="scale(0.75)" />
  <path
     style="fill:#000000;stroke-width:0.75"
     id="path4538"
     d="m 7.5731235,15.369092 c 0.054187,0.07821 0.1215998,0.145366 0.187599,0.213313 0.07299,0.07951 0.158265,0.146171 0.244503,0.210531 0.078524,0.06248 0.1561283,0.126104 0.2358803,0.187015 0.056565,0.0455 0.1194255,0.08296 0.1842705,0.115325 0.064275,0.03239 0.1318215,0.05709 0.1997077,0.08063 0.1550475,0.04697 0.313758,0.0806 0.4715078,0.11714 0.1290855,0.03367 0.2600062,0.05916 0.3912922,0.08241 0.1686,0.03358 0.3397058,0.05104 0.5102963,0.0709 0.2592847,0.02913 0.5173047,0.06797 0.7755467,0.104921 0.384059,0.05185 0.768082,0.103539 1.153078,0.148097 0.50462,0.05895 1.011416,0.09517 1.517784,0.135027 0.603357,0.04444 1.207384,0.07848 1.810702,0.123698 0.63898,0.04882 1.278414,0.08959 1.918398,0.122503 0.694427,0.03339 1.389723,0.04043 2.084819,0.04499 0.593846,0.0025 1.187696,0.0011 1.781542,-1.04e-4 0.490002,0.0033 0.979778,-0.0024 1.46956,-0.01639 0.443101,-0.01373 0.885558,-0.0439 1.326533,-0.08894 0.404734,-0.05066 0.809174,-0.10356 1.212249,-0.166128 0.363848,-0.05467 0.727236,-0.116997 1.082226,-0.214754 0.200333,-0.0598 0.394553,-0.136932 0.589857,-0.210912 0.154863,-0.06592 0.306493,-0.139383 0.456974,-0.214689 0.119529,-0.05466 0.238326,-0.110984 0.356939,-0.167629 0.04165,-0.01689 0.08046,-0.03952 0.120182,-0.06035 0.01114,-0.0058 0.04403,-0.02438 0.03314,-0.01807 -0.07565,0.0438 -0.30287,0.174699 -0.227421,0.130561 0.09457,-0.05532 0.18985,-0.109408 0.284775,-0.164113 0.106167,-0.05368 0.300348,-0.168544 -0.159651,0.09576 0.0292,-0.01553 0.04961,-0.04195 0.07312,-0.06437 0.02341,-0.01826 0.04774,-0.03547 0.06938,-0.05584 0,0 0.28091,-0.113365 0.28091,-0.113365 v 0 c -0.02416,0.01764 -0.04403,0.04053 -0.06888,0.05749 -0.0296,0.01633 -0.04624,0.04569 -0.07195,0.06689 -0.118907,0.06867 -0.23571,0.13934 -0.357145,0.202766 0.07673,-0.04441 0.307249,-0.177051 0.230191,-0.133217 -0.145278,0.08264 -0.28725,0.173529 -0.440274,0.241987 -0.117966,0.05584 -0.236163,0.111212 -0.354489,0.166289 -0.151209,0.07418 -0.302311,0.149177 -0.458583,0.212247 -0.193797,0.07315 -0.387152,0.147944 -0.586611,0.204725 -0.354531,0.09275 -0.716212,0.153637 -1.078404,0.207972 -0.403505,0.06274 -0.808338,0.116291 -1.213733,0.165325 -0.440518,0.0434 -0.88238,0.07244 -1.324894,0.08523 -0.489416,0.01368 -0.978794,0.01853 -1.468413,0.0146 -0.591424,-7.5e-4 -1.182854,-0.0014 -1.774267,-0.0054 -0.696044,-0.0053 -1.392237,-0.0127 -2.087684,-0.04437 -0.64016,-0.03198 -1.279558,-0.07518 -1.918719,-0.123061 -0.604698,-0.04472 -1.210209,-0.07647 -1.814929,-0.120772 -0.507776,-0.03858 -1.01587,-0.07513 -1.521873,-0.133382 -0.387581,-0.04408 -0.774562,-0.09313 -1.161409,-0.143124 -0.258793,-0.03622 -0.51724,-0.07542 -0.777186,-0.102747 -0.1724722,-0.01878 -0.3453367,-0.03572 -0.5157495,-0.0693 C 9.112689,16.523415 8.9826623,16.494982 8.8539023,16.461014 8.6946495,16.423237 8.5338593,16.390897 8.3770035,16.343901 8.307531,16.320088 8.23866,16.294438 8.1733523,16.260525 8.1084248,16.22523 8.0448285,16.187295 7.9879695,16.139711 7.9086338,16.078519 7.830978,16.015222 7.7528063,15.952558 7.6659338,15.886476 7.5793823,15.818974 7.5049185,15.738745 7.4370465,15.669242 7.3708987,15.597979 7.312285,15.520321 c 0,0 0.26084,-0.151182 0.26084,-0.151182 z"
     inkscape:connector-curvature="0" />
  <path
     style="fill:#000000;stroke-width:0.75"
     id="path4540"
     d="m 8.6821196,18.132823 c 0.2956417,0.01596 0.591156,0.03392 0.8868532,0.04941 0.5002102,0.02107 0.9986202,0.06481 1.4961982,0.11892 0.579181,0.05965 1.157727,0.124841 1.735819,0.194233 0.483007,0.05633 0.961682,0.141485 1.441374,0.2198 1.132733,0.184931 -0.394978,-0.06969 0.858269,0.140285 1.045501,0.172406 2.090984,0.34482 3.138544,0.504303 0.741825,0.109598 1.48176,0.231918 2.223791,0.340122 0.36596,0.05336 0.680649,0.09413 1.046564,0.142844 0.753751,0.102092 1.506837,0.209038 2.259602,0.318134 0.483616,0.07079 0.969005,0.128489 1.453011,0.19642 0.275961,0.03993 0.551944,0.07973 0.828041,0.118669 0.157686,0.0168 0.314828,0.03764 0.472154,0.05749 0.103738,0.01261 0.207919,0.02081 0.312142,0.02807 0,0 -0.242456,0.173268 -0.242456,0.173268 v 0 c -0.103713,-0.0091 -0.207411,-0.01846 -0.310821,-0.03059 -0.157269,-0.01873 -0.31435,-0.03896 -0.471478,-0.05879 -0.272925,-0.04103 -0.545501,-0.08439 -0.818444,-0.125312 C 24.51,20.450849 24.027268,20.391836 23.54669,20.31758 c -0.747068,-0.111549 -1.494127,-0.223207 -2.241856,-0.330262 -0.384761,-0.05241 -0.657759,-0.08847 -1.043349,-0.145644 -0.742149,-0.11004 -1.482711,-0.23081 -2.225122,-0.339156 -1.049702,-0.158478 -2.096489,-0.334998 -3.145175,-0.499973 -0.288282,-0.04549 -0.57678,-0.0896 -0.864966,-0.135692 -0.481306,-0.07698 -0.961635,-0.160938 -1.446334,-0.214771 -0.579757,-0.06764 -1.159977,-0.131012 -1.74063,-0.190473 -0.49868,-0.05342 -0.9982224,-0.09625 -1.4995917,-0.114491 -0.30018,-0.01387 -0.6003015,-0.03263 -0.900771,-0.03758 0,0 0.2432243,-0.176713 0.2432243,-0.176713 z"
     inkscape:connector-curvature="0" />
  <path
     style="fill:#000000;stroke-width:0.02706061"
     d="m 34.819625,27.296651 c -1.33518,-0.182081 -2.110742,-0.289523 -4.00497,-0.554822 -1.108808,-0.155296 -2.338713,-0.325781 -2.733121,-0.378854 -0.777695,-0.10465 -4.191802,-0.624925 -5.671459,-0.864272 -0.50479,-0.08165 -1.733677,-0.281987 -2.730861,-0.445184 -0.997183,-0.163197 -1.989631,-0.321426 -2.205439,-0.35162 -0.419957,-0.05876 -2.591619,-0.303921 -3.18753,-0.359848 l -0.359696,-0.03376 0.13057,-0.05762 c 0.521786,-0.230279 0.308755,-0.710907 -0.652832,-1.472872 -0.150557,-0.119303 -0.419868,-0.32186 -0.598468,-0.450127 -0.237071,-0.170261 -0.302813,-0.228933 -0.243545,-0.217355 0.04465,0.0087 0.202955,0.02904 0.351788,0.04516 0.148833,0.01611 0.532417,0.06512 0.852409,0.108896 1.776796,0.243088 2.835149,0.34535 5.033273,0.486334 0.468826,0.03007 1.278614,0.08447 1.799531,0.120892 2.064934,0.144374 2.771896,0.168009 5.682728,0.189982 3.157613,0.02384 4.397412,-0.02236 5.872152,-0.218821 1.483292,-0.197597 2.173684,-0.332068 2.773713,-0.540249 0.400183,-0.138844 1.428852,-0.607691 1.848799,-0.842646 0.146165,-0.08178 0.271653,-0.142787 0.278862,-0.135577 0.03322,0.03322 0.0415,0.910599 0.01218,1.290995 -0.104585,1.357031 -0.512678,2.724979 -1.265419,4.241751 -0.255132,0.51409 -0.259629,0.52088 -0.343221,0.518094 -0.04659,-0.0016 -0.334336,-0.03686 -0.639445,-0.07847 z"
     id="path4542"
     inkscape:connector-curvature="0"
     transform="scale(0.75)" />
</svg>
