<?xml version="1.0" encoding="UTF-8" standalone="no"?>
<svg
   xmlns:dc="http://purl.org/dc/elements/1.1/"
   xmlns:cc="http://creativecommons.org/ns#"
   xmlns:rdf="http://www.w3.org/1999/02/22-rdf-syntax-ns#"
   xmlns:svg="http://www.w3.org/2000/svg"
   xmlns="http://www.w3.org/2000/svg"
   xmlns:sodipodi="http://sodipodi.sourceforge.net/DTD/sodipodi-0.dtd"
   xmlns:inkscape="http://www.inkscape.org/namespaces/inkscape"
   version="1.0"
   width="48"
   height="48"
   viewBox="0 0 36 36"
   preserveAspectRatio="xMidYMid meet"
   id="svg8"
   sodipodi:docname="technology-service.svg"
   inkscape:version="0.92.2 5c3e80d, 2017-08-06">
  <defs
     id="defs12" />
  <sodipodi:namedview
     pagecolor="#ffffff"
     bordercolor="#666666"
     borderopacity="1"
     objecttolerance="10"
     gridtolerance="10"
     guidetolerance="10"
     inkscape:pageopacity="0"
     inkscape:pageshadow="2"
     inkscape:window-width="2106"
     inkscape:window-height="1220"
     id="namedview10"
     showgrid="false"
     units="px"
     inkscape:zoom="17.928719"
     inkscape:cx="5.3824262"
     inkscape:cy="25.315885"
     inkscape:window-x="0"
     inkscape:window-y="0"
     inkscape:window-maximized="0"
     inkscape:current-layer="svg8" />
  <metadata
     id="metadata2">
Created by potrace 1.12, written by Peter Selinger 2001-2015
<rdf:RDF>
  <cc:Work
     rdf:about="">
    <dc:format>image/svg+xml</dc:format>
    <dc:type
       rdf:resource="http://purl.org/dc/dcmitype/StillImage" />
    <dc:title />
  </cc:Work>
</rdf:RDF>
</metadata>
  <g
     transform="matrix(0.22570649,0,0,-0.22570649,-0.04327629,34.429548)"
     id="g6"
     style="fill:#000000;stroke:none">
    <path
       d="M 12,108 C -4,92 -3,65 14,51 36,32 140,41 154,63 c 8,12 8,22 0,35 -14,21 -122,30 -142,10 z M 145,80 C 145,56 142,55 82,52 33,50 18,52 14,65 c -14,35 3,46 68,43 60,-3 63,-4 63,-28 z"
       id="path4"
       inkscape:connector-curvature="0" />
  </g>
  <path
     style="fill:#ccf4cc;stroke-width:0.05577643"
     d="M 13.318997,30.370744 C 8.7765806,30.14405 6.4479968,29.484811 5.1373403,28.054461 4.7114266,27.589651 4.4490747,27.083406 3.9860294,25.832846 3.1452393,23.562098 2.8252382,22.090981 2.8315763,20.525567 2.8355371,19.54733 2.945248,18.92921 3.2457323,18.19218 c 1.0569914,-2.592598 4.1791753,-4.08612 9.6888227,-4.634729 1.711661,-0.170435 2.467502,-0.205577 5.103544,-0.237289 2.918826,-0.03511 4.830833,0.01506 9.007894,0.236365 7.017163,0.371782 9.937021,0.654847 12.12768,1.175716 2.278554,0.541767 3.476669,1.424015 3.956923,2.913732 0.300864,0.933261 0.363899,1.475878 0.40579,3.493133 0.06513,3.136103 -0.163359,4.753913 -0.814763,5.769039 -0.430699,0.671186 -1.29839,1.289279 -2.325185,1.656326 -2.193137,0.783979 -5.693075,1.16823 -14.661191,1.609623 -4.132109,0.203374 -10.318276,0.30135 -12.41625,0.196648 z"
     id="path9"
     inkscape:connector-curvature="0"
     transform="scale(0.75)" />
</svg>
