<?xml version="1.0" encoding="UTF-8" standalone="no"?>
<svg
   xmlns:dc="http://purl.org/dc/elements/1.1/"
   xmlns:cc="http://creativecommons.org/ns#"
   xmlns:rdf="http://www.w3.org/1999/02/22-rdf-syntax-ns#"
   xmlns:svg="http://www.w3.org/2000/svg"
   xmlns="http://www.w3.org/2000/svg"
   xmlns:sodipodi="http://sodipodi.sourceforge.net/DTD/sodipodi-0.dtd"
   xmlns:inkscape="http://www.inkscape.org/namespaces/inkscape"
   version="1.0"
   width="48"
   height="48"
   viewBox="0 0 36 36"
   preserveAspectRatio="xMidYMid meet"
   id="svg8"
   sodipodi:docname="value.svg"
   inkscape:version="0.92.2 5c3e80d, 2017-08-06">
  <defs
     id="defs12" />
  <sodipodi:namedview
     pagecolor="#ffffff"
     bordercolor="#666666"
     borderopacity="1"
     objecttolerance="10"
     gridtolerance="10"
     guidetolerance="10"
     inkscape:pageopacity="0"
     inkscape:pageshadow="2"
     inkscape:window-width="2560"
     inkscape:window-height="1319"
     id="namedview10"
     showgrid="false"
     units="px"
     inkscape:zoom="11.0625"
     inkscape:cx="6.4180791"
     inkscape:cy="10.666667"
     inkscape:window-x="0"
     inkscape:window-y="0"
     inkscape:window-maximized="1"
     inkscape:current-layer="svg8" />
  <metadata
     id="metadata2">
Created by potrace 1.10, written by Peter Selinger 2001-2011
<rdf:RDF>
  <cc:Work
     rdf:about="">
    <dc:format>image/svg+xml</dc:format>
    <dc:type
       rdf:resource="http://purl.org/dc/dcmitype/StillImage" />
    <dc:title></dc:title>
  </cc:Work>
</rdf:RDF>
</metadata>
  <g
     transform="matrix(0.22372881,0,0,-0.24821396,0.06779661,37.671427)"
     id="g6"
     style="fill:#000000;stroke:none">
    <path
       d="M 50,133 C 24,123 0,98 0,80 0,52 38,25 80,25 c 42,0 80,27 80,55 0,35 -70,69 -110,53 z m 87,-24 C 154,94 154,66 137,51 95,17 15,36 15,80 c 0,44 80,63 122,29 z"
       id="path4"
       inkscape:connector-curvature="0" />
  </g>
  <path
     style="fill:#ccccff;stroke-width:0.09039548"
     d="M 23.118433,39.006034 C 18.45109,38.691163 14.141947,37.222596 10.639548,34.7532 9.5443538,33.981023 7.6179732,32.044424 6.9151271,31.009021 5.916326,29.537631 5.216649,27.92771 4.8550667,26.268927 4.6544365,25.348522 4.5781012,23.173035 4.7113193,22.172256 5.233751,18.247573 7.5048902,14.835716 11.25293,12.345008 c 2.777379,-1.845668 6.005615,-3.04676 9.736548,-3.622564 1.563295,-0.241267 4.931608,-0.3321936 6.477407,-0.1748557 4.963477,0.5052035 9.341299,2.2419637 12.795952,5.0763837 2.800961,2.298089 4.413102,5.980265 4.415935,10.086122 0.0029,4.183257 -1.54579,7.77011 -4.372172,10.126285 -3.614617,3.013275 -8.396799,4.823507 -13.665509,5.172896 -1.583241,0.104991 -1.922962,0.104678 -3.522658,-0.0032 z"
     id="path14"
     inkscape:connector-curvature="0"
     transform="scale(0.75)" />
</svg>
