<?xml version="1.0" encoding="UTF-8" standalone="no"?>
<svg
   xmlns:dc="http://purl.org/dc/elements/1.1/"
   xmlns:cc="http://creativecommons.org/ns#"
   xmlns:rdf="http://www.w3.org/1999/02/22-rdf-syntax-ns#"
   xmlns:svg="http://www.w3.org/2000/svg"
   xmlns="http://www.w3.org/2000/svg"
   xmlns:sodipodi="http://sodipodi.sourceforge.net/DTD/sodipodi-0.dtd"
   xmlns:inkscape="http://www.inkscape.org/namespaces/inkscape"
   version="1.0"
   width="48"
   height="48"
   viewBox="0 0 36 36"
   preserveAspectRatio="xMidYMid meet"
   id="svg8"
   sodipodi:docname="workpackage.svg"
   inkscape:version="0.92.2 5c3e80d, 2017-08-06">
  <defs
     id="defs12" />
  <sodipodi:namedview
     pagecolor="#ffffff"
     bordercolor="#666666"
     borderopacity="1"
     objecttolerance="10"
     gridtolerance="10"
     guidetolerance="10"
     inkscape:pageopacity="0"
     inkscape:pageshadow="2"
     inkscape:window-width="2560"
     inkscape:window-height="1319"
     id="namedview10"
     showgrid="false"
     units="px"
     inkscape:zoom="11.0625"
     inkscape:cx="6.4180791"
     inkscape:cy="10.666667"
     inkscape:window-x="0"
     inkscape:window-y="0"
     inkscape:window-maximized="1"
     inkscape:current-layer="svg8" />
  <metadata
     id="metadata2">
Created by potrace 1.10, written by Peter Selinger 2001-2011
<rdf:RDF>
  <cc:Work
     rdf:about="">
    <dc:format>image/svg+xml</dc:format>
    <dc:type
       rdf:resource="http://purl.org/dc/dcmitype/StillImage" />
    <dc:title></dc:title>
  </cc:Work>
</rdf:RDF>
</metadata>
  <g
     transform="matrix(0.23298603,0,0,-0.23298603,0.00799557,36.409397)"
     id="g6"
     style="fill:#000000;stroke:none">
    <path
       d="M 4,127 C 1,119 0,93 2,69 L 5,25 h 75 75 v 55 55 l -73,3 C 27,140 8,138 4,127 Z M 145,80 V 35 H 80 15 l -3,33 c -6,58 1,63 70,60 l 63,-3 z"
       id="path4"
       inkscape:connector-curvature="0" />
  </g>
  <path
     style="fill:#ffccff;stroke-width:0.09039548"
     d="m 4.6819705,37.229379 c -0.029501,-0.236159 -0.1974868,-2.036159 -0.3733013,-4 C 4.1328546,31.265537 3.8702936,28.39774 3.7252002,26.856497 3.327124,22.627963 3.2409768,20.957738 3.3032498,18.675706 3.4093351,14.788143 4.0451418,12.794649 5.6610802,11.283018 7.7515955,9.3274434 10.943287,8.6448616 18.00678,8.6427409 c 3.367931,-0.00101 4.629204,0.046143 16.972792,0.634546 5.183623,0.2470967 9.566674,0.4492668 9.740113,0.4492668 h 0.315343 V 23.692655 37.658757 H 24.885319 4.7356091 Z"
     id="path14"
     inkscape:connector-curvature="0"
     transform="scale(0.75)" />
</svg>
