<?xml version="1.0" encoding="iso-8859-1"?>
<!-- Generator: Adobe Illustrator 16.0.0, SVG Export Plug-In . SVG Version: 6.00 Build 0)  -->
<!DOCTYPE svg PUBLIC "-//W3C//DTD SVG 1.1//EN" "http://www.w3.org/Graphics/SVG/1.1/DTD/svg11.dtd">
<svg version="1.1" id="Capa_1" xmlns="http://www.w3.org/2000/svg" xmlns:xlink="http://www.w3.org/1999/xlink" x="0px" y="0px"
	 width="800px" height="800px" viewBox="0 0 800 800" style="enable-background:new 0 0 800 800;" xml:space="preserve">
<g>
	<path d="M218.67,452.344c4.341,21.083,12.152,40.777,22.612,58.691H90.33v18.88c0,12.902-8.464,17.394-18.836,10.016L7.778,494.26
		c-10.372-7.368-10.372-19.511,0-26.877l63.715-45.669c10.416-7.379,18.836-2.877,18.836,10.004v20.626H218.67z M271.316,275.673
		l-122.091-51.465l7.683-19.064c4.774-11.925-1.303-19.38-13.672-16.591l-75.953,17.385c-12.327,2.777-16.841,13.997-9.983,24.869
		l41.884,67.045c6.814,10.851,16.319,10.004,21.094-1.931l7.074-17.449l108.636,45.77
		C245.231,306.175,257.125,289.779,271.316,275.673z M437.245,224.665l-2.953-132.976l20.141-0.465
		c12.629-0.314,16.795-9.029,9.373-19.466L417.669,7.629c-7.422-10.406-19.313-10.135-26.301,0.619l-43.143,66.243
		c-6.987,10.731-2.43,19.259,10.242,18.967l18.446-0.433l2.908,129.621c7.335-0.89,14.714-1.464,22.266-1.464
		C414.109,221.182,425.872,222.441,437.245,224.665z M674.306,256.099l11.329,17.002c7.161,10.655,16.581,9.517,21.094-2.582
		l27.389-74.458c4.469-12.076-2.172-22.114-14.846-22.223l-77.817-0.901c-12.589-0.108-17.146,8.464-9.984,19.11l10.417,15.592
		l-104.34,72.948c13.238,14.161,24.307,30.382,32.855,48.178L674.306,256.099z M792.188,467.383l-63.715-45.669
		c-10.373-7.379-18.837-2.877-18.837,10.004v20.626H585.55c-4.34,21.083-12.153,40.777-22.656,58.691h146.742v18.88
		c0,12.902,8.464,17.394,18.837,10.016l63.715-45.671C802.604,486.892,802.604,474.749,792.188,467.383z M322.335,397.245
		c0-46.919,38.064-84.939,85.005-84.939c46.939,0,85.024,38.02,85.024,84.939c0,46.96-38.085,84.96-85.024,84.96
		C360.4,482.205,322.335,444.205,322.335,397.245z M265.608,757.943c0.521,0.042,1.043,0.042,1.541,0.042
		c15.863,0,29.146-12.436,29.927-28.472c3.298-65.32,16.274-114.02,37.562-143.033c-1.54,30.402-4.23,85.523-6.661,141.86
		c-0.151,1.021-0.435,1.997-0.521,3.038L322.596,800h171.897l-3.062-47.352c-0.106-1.78-0.521-3.452-0.846-5.146
		c-1.735-49.022-7.357-121.55-10.569-160.979c21.724,29.057,33.964,77.256,35.286,142.12c0.349,16.32,13.715,29.341,30.621,29.341
		c16.557-0.349,29.707-14.02,29.36-30.599c-2.04-99.479-27.082-168.512-74.436-205.144c-12.305-9.527-25.368-17.838-40.125-22.927
		c-13.801-4.774-28.318-7.444-42.858-8.433l21.918,230.207l-31.66,37.11l-36.2-37.11l27.495-230.534
		c-35.546,1.206-65.711,13.521-92.1,36.86c-42.36,37.512-65.298,102.638-70.139,199.101
		C236.334,743.055,249.074,757.117,265.608,757.943z"/>
</g>
<g>
</g>
<g>
</g>
<g>
</g>
<g>
</g>
<g>
</g>
<g>
</g>
<g>
</g>
<g>
</g>
<g>
</g>
<g>
</g>
<g>
</g>
<g>
</g>
<g>
</g>
<g>
</g>
<g>
</g>
</svg>
