<?xml version="1.0" encoding="utf-8"?>
<!-- Svg Vector Icons : http://www.onlinewebfonts.com/icon -->
<!DOCTYPE svg PUBLIC "-//W3C//DTD SVG 1.1//EN" "http://www.w3.org/Graphics/SVG/1.1/DTD/svg11.dtd">
<svg version="1.1" xmlns="http://www.w3.org/2000/svg" xmlns:xlink="http://www.w3.org/1999/xlink" x="0px" y="0px" viewBox="0 0 1000 1000" enable-background="new 0 0 1000 1000" xml:space="preserve">
<metadata> Svg Vector Icons : http://www.onlinewebfonts.com/icon </metadata>
<g><g transform="translate(0.000000,511.000000) scale(0.100000,-0.100000)"><path d="M4639.1,4995.6c-735.8-87-1274.8-284-1813.7-665.4c-252.9-178.3-675.7-601.1-854-854c-771.1-1092.4-889.2-2472.8-317.1-3685.4l111.9-232.1l-681.9-1200.2C709-2302.7,383.6-2881,360.8-2926.6c-105.7-203.1-10.4-420.8,207.3-478.8c72.5-20.7,170-2.1,901.7,176.2c449.8,107.8,829.1,196.9,843.6,196.9c18.7,0,74.6-250.8,174.1-781.5c105.7-549.3,161.7-798,188.6-833.3c105.7-143,263.2-182.4,418.7-101.6c91.2,47.7,107.8,72.5,787.7,1262.3l694.4,1214.7l248.7-8.3c136.8-6.2,321.3-2.1,412.5,8.3l161.7,18.6l47.7-72.5c26.9-41.5,333.7-578.3,684-1193.9c350.3-615.6,661.2-1144.2,690.2-1177.4c136.8-147.2,420.8-109.9,512,68.4c18.7,35.3,97.4,406.3,178.3,822.9c78.8,418.7,147.2,764.8,153.4,771.1c6.2,4.1,387.6-80.8,849.9-192.8c750.4-180.3,845.7-199,918.2-178.3c45.6,10.4,105.7,39.4,134.7,62.2c70.5,56,126.5,207.3,111.9,300.5c-6.2,39.4-342,650.9-760.7,1390.8L8171.1-331.4l80.8,178.2C8795,1020,8664.5,2406.7,7907.9,3476.3c-176.2,250.8-599,675.7-854,856.1c-234.2,165.8-702.7,404.2-968,491.3C5644.4,4968.7,5028.7,5043.3,4639.1,4995.6z M5544.9,4284.7c580.4-122.3,1071.6-389.7,1498.6-818.8c431.1-429.1,694.4-914.1,822.9-1509c60.1-281.9,66.3-864.4,10.4-1142.1c-122.3-609.4-395.9-1121.4-833.3-1556.7c-435.3-437.4-947.3-711-1556.7-833.3c-277.8-56-860.2-49.8-1142.1,10.4c-594.9,128.5-1079.9,391.8-1509,822.9c-431.1,429.1-694.4,914.1-822.9,1509c-64.2,304.7-64.2,885.1,0,1189.8c128.5,594.9,391.8,1079.9,822.9,1509c480.9,483,1048.8,764.9,1730.8,860.2C4782.1,4355.2,5314.8,4334.4,5544.9,4284.7z M8220.9-1759.6c250.8-439.4,449.8-804.3,443.6-810.5c-6.2-6.2-290.2,58-632.2,138.9c-468.5,114-638.4,147.1-694.4,136.8c-85-16.6-188.6-95.3-230.1-176.2c-14.5-29-68.4-271.5-118.1-534.8c-49.8-265.3-95.4-482.9-101.6-482.9c-16.6,0-791.8,1359.7-789.7,1382.5c2.1,8.3,51.8,33.2,111.9,53.9c174.1,58,549.3,250.8,750.4,383.5c234.2,155.4,456,344.1,642.6,549.3c80.8,87.1,149.2,157.5,155.5,157.5C7764.9-959.5,7972.1-1320.2,8220.9-1759.6z M2311.3-1158.5c151.3-159.6,408.3-375.2,617.7-516.1c201.1-134.7,605.3-335.8,814.6-404.2c76.7-26.9,138.9-56,138.9-64.3c0-10.4-174.1-323.3-387.6-696.4l-389.7-679.9l-78.8,414.6c-43.5,228-87.1,464.3-99.5,524.4c-16.6,80.8-41.4,130.6-97.4,190.7c-126.5,132.6-151.3,130.6-862.3-39.4c-344.1-80.8-630.1-149.2-638.4-147.2c-8.3,0,16.6,53.9,53.9,120.2c37.3,64.2,234.2,410.4,435.3,766.9c201.1,354.5,371,646.7,375.2,646.7C2197.3-1042.4,2251.2-1094.2,2311.3-1158.5z"/></g></g>
</svg>