<?xml version="1.0" encoding="utf-8"?>
<!-- Generator: Adobe Illustrator 18.0.0, SVG Export Plug-In . SVG Version: 6.00 Build 0)  -->
<!DOCTYPE svg PUBLIC "-//W3C//DTD SVG 1.1//EN" "http://www.w3.org/Graphics/SVG/1.1/DTD/svg11.dtd">
<svg version="1.1" id="Слой_1" xmlns="http://www.w3.org/2000/svg" xmlns:xlink="http://www.w3.org/1999/xlink" x="0px" y="0px"
	 viewBox="0 183.9 612 387.9" enable-background="new 0 183.9 612 387.9" xml:space="preserve">
<path fill="#000000"      d="
	M608.9,503.6c0,0-10-14-15-16l-15.7-12c0,0-6-3.9-11-4.2c-0.5-0.1-1-0.1-1.5,0c-5.3,0.5-17.5-4.2-17.5-4.2s-0.8-9.5-3-10
	c0,0-4.2-4-13-2.7c0,0,0-8.2-5.5-13.7c0,0,3-5-0.8-11c0,0,5.5,1.7,7.5-1.5c0,0-3.5-3-5-8.2c0,0,2,3.3,5.5,3c0,0-4.7-5.7-6.8-14.2
	c0,0-4.5-13.3-22-24l0.8,0.5c0,0,7.5,1.5,10.9-4.2c0,0,5.5-2,9.5-1.5c0,0,3.2-1.5,3.5-3.8c0,0,4.7-2.7,1-8.2c0,0-1.1-2.6-6-3.8
	c-0.4-0.1-0.8-0.2-1.3-0.2c-6-1-12.4-4.2-17.7-5c0,0-2.8-2-5.3-4c0,0-9.3-9-25.8-6.2c0,0-8.5,0.2-11,3.2c0,0-7.8-1.5-18.8,4.5
	c0,0-4.2,1.3-3.2-4.5c0,0-4.7-5-8.2,4c0,0-12.5,0.8-15.7-11c0,0-2.7-10.8-5.5-1.7c0,0-11.2,1.5-13.7-12.5c0,0-2.5-9-16.3-11.5
	c0,0-8-4-2.5,4c0,0,6.8,3.8,9.7,14c0,0,0,4,3.5,7.2c0,0-2.7,2,4,4.7c0,0,22.4,15.7,30.9,14c-1.9,3.7-3.7,9.3-0.1,13.1
	c0,0-6.3,2.7-12.3,2.3c0,0-3.2-2.3-2.5-6c0,0-2.7-4.5-7,4.5c0,0-11.5,4.5-11.2-11c0,0,2.9-10.3,6.3-11.3c0,0-0.8-7.2-9.3,5
	c0,0-6.5,1.7-7.8,6c0,0-10.8-16.3-20.3-11c0,0-9-4.2-5.5,2.7c0,0,4.7,8.7,12.7,7.2c0,0,2.5,4.7,1.7,7.8c0,0-1.5,11.5,11.2,11
	c0,0,12.3,8.2,21,4.5c0,0-8.2,9.2,13.5,1c0,0,31.5-12.2,37.5-16.4c0,0,5-1.5,6.2,0c0,0-6,8.2-9.5,10c0,0,6,7,13.7-4
	c0,0-1.8,11.2-1.7,20.2c-11.4,1.3-28.5,1.8-49.1-1.5c-32.5-5.2-79.8-21.2-127.6-67.4c-0.3-0.5-0.7-1.1-1-1.6c0.9-1.5,1.6-3.6,2-6.4
	c0,0-1.5-9.9-4.8-13.3c0,0-9.2-16.6-21.7-11.1c0,0-6.6-19.8-20.3-10.7c0,0-7-1.1-9.9,2.2c0,0-5.1-5.1-7.7-4.4c0,0-4.1-4.8-8.8-2.6
	c0,0-8.5-5.9-16.9-3.7c0,0-10.3-6.6-15.5-6.6c0,0-0.7-8.1-5.5-9.9c0,0-6.3-8.1-11.4-7c0,0-2.7-4.4-5.3-5.1c1.6,0.4,9.3,1.6,6.1-8.8
	c0,0-2.2,4.4-4.1,2.5c0,0,2.9-4.8,0.4-8.9c0,0-2.2,6.7-9.9,0.8l-3.3-8.5c0,0,10.6-17.8-8.5-24.3c0,0-9.3-3.3-13.3-0.6
	c0,0-7.4-9.3-12.1-9.3c0,0-11.4-11.4-19.1-7.4c0,0-13.2,5.5-9.6,33.1c0,0-15.7,18.8-0.7,30.2c0,0-4.5,9.2-1.2,12.5
	c0,0-4.1,8.5-2.2,10.6c0,0-6.3,0.4-8.5-3.7c0,0-8.8-11.4-12.8-12.1c0,0,0.7-19.1-13.3-16.1c0,0-4.4-1.6-3.3-9.6c0,0,0-12.1-4.4-15.1
	c0,0-5.1,0-2.6,6.6c0,0-3.7,2.9-4.8-4.4c0,0-3.7-16.6-10.7-9.6c0,0-16.9,29.4,8.8,46.4c0,0-14.3,23.5,9.6,25c0,0,2.6,7,7,8.8
	c0,0,10.7,19.1,16.6,18c0,0,9.9,11.4,20.6,8.8c0,0,12.8,23.4,22.1,21.9l1.9,6.3c0,0-9.2,6.8-15.1,18.5c0,0-9.6,2.9-2.6,13.3
	c0,0,3.7,10.3,16.2,7c0,0-3.7,12.8-2.9,19.1c0,0-28.3-43.8-57.4-39.4c0,0-61.1,11.6-43.4,58.6c0,0,17.1,58.3,80.7,87.7
	c-2.7,8.8-8.4,21.5-20,29L53,537c0,0-13.9,3.9-5.8,6.6l63.4-1.6c-3.9,7.3-7.9,13.9-10.9,17.7h-51c0,0-16.2,4.2-7,8.5l234.2,3.6
	c0,0,39.5-1.2,34.1-35c0,0-5-4.2-9.1,0c0,0,1.1,7.9-5.9,14.4c-7.2-1.3-19.9-5.2-30.7-17c8.9-3.1,18.5-9.6,15.2-22.9
	c0,0-4.5-2.7-7.9,0.4c0,0,2.2,9.9-13.4,14.6c-2.6-4-5-8.7-6.9-14.1c15.3-5.9,29.6-14.5,41.4-26.7c0,0,30.9-29,19.5-71.4
	c0,0-11.8-44.9-46.4-39c0,0-9.2,2.6-7.7,11.8c0,0,0,0.2,0,0.5c-1.6-1.1-3.5-1.8-5.9-1.6c0,0-1.5-14-9.9-15.5l-2.2-10.3
	c0,0,4.8,1.3,8.5-5.8c0,0,5.7-14.8-11.6-13.3c0,0-14.9-17.3-22.6-18v-1.9c0,0,16.4,5.2,21.9,0.4c0,0,13.1,13.6,22.7-1.9
	c0,0,1.6-2.2,4.5,1.9c0,0,3,4.4,7,6c-2,10.2-3.6,25.3,1.5,33.2c1.7,2.6,3.9,4.2,6.8,5c1.2,2.9,2.7,5,4.4,6.3c2.6,2,5.9,2.2,9.4,0.6
	c0.1-0.1,0.2-0.1,0.3-0.2c0.2-0.1,4.1-3,5.1-10.5c0.5-3.8,0.2-9-2-15.8c9.1,9.4,21.6,20.9,37,31.6c20.4,14.1,41.9,24.1,63.9,29.7
	c13.9,3.5,28,5.3,42.3,5.3c8.1,0,16.3-0.6,24.4-1.7c-1,1.4-2,3.1-2,4.9c0,0-3.5,7.2-14,7.5c0,0-47.7-6-66.7,2.5
	c0,0-10.3,0.5-20.9,7.5c-1.4-4.2-2.8-10.2,1.8-13.5c0,0-10.5,1.5-12.4,9.3v-5c0,0-8.8,13.9-3.5,23.3c-4.4,7.1-7.4,16.4-8.4,28.9
	c0,0-7.9,0-12.1-3.8c0,0-5-5.7-9.7,3.8l-9.9,21.5c0,0-10.6,2.7-7.1,7.5c0,0-5.3,2.1-7.7,1.7c0,0-7.5,4.6-5.3,11.4
	c0,0,8.7,0,12.7-2.3c0,0,7.5,1.7,13.7-16.3c0,0,4.8-10,9.3-12.1c0.3-0.2,0.7-0.2,1-0.4c4.7-1,5.5-0.8,13.3,3.8c0,0,6.8,2.5,8.2,2.3
	c0,0-2.3,22.2-6.3,29.7c0,0-9.5,3.2-6.8,7c0,0-4.7,3-8.7,2.5c0,0-8.5,5.5-5.3,15c0,0,12.7-1,17.8-6.5c0,0,6.9-0.7,11.1-14
	c0,0,4.8-19.7,9.6-22.9c0,0,41.5,17.8,55.2-13c0,0,13.7-1.5,43.4,2.7c0,0,22.5,5.5,42.7-12.7c0,0,3.5-1.7,9.3,1.7
	c0,0,6.3,5.7,20.5-1.3c0,0,8.1-1.5,17.3-2.5c0.1,3.9,0.1,10.6-0.6,13.3c0,0-5.1,9.3,0,9.3c0,0-0.7,3.9-3.2,5c0,0-1.3,10,4.2,12.5
	l4.6-6.3l2.8-12.5c0,0,1.8-7,0.1-11.5l-1.4-10.3c5.6-0.4,10.8-0.4,14,0.3c0,0,6,4.5,11.5,3.8c0,0,12.7,7.8,13,10.8
	c0,0,5.5,11.7,8.5,7.5c0,0,1.7,1.7,0,4.2c0,0,5.7,9.5,13.5,5.7L608.9,503.6z M437.2,372.2c0,0-5.7-1.4-3.9-9.7
	c2.9-0.1,7.3-0.6,13.1-2.2c-0.2,1.9,0.1,4.4,1.7,6.8C448.2,367.1,441.7,371.7,437.2,372.2z M458.8,362.2c0,0-6.6,2-7.8-3
	c1.4-0.4,2.8-0.9,4.3-1.4C455.2,357.7,462.5,355.2,458.8,362.2z M213.2,521.9v7.9l-83.4,3.8c2.1-4.1,3.8-8.1,5.1-11.8
	C151,524,181.8,526.7,213.2,521.9z M84.5,535.7c2.7-4.8,7.7-14.3,10.8-24.1c8.1,3.2,16.9,5.8,26.5,7.9c-2,4.2-4.5,9.5-7.4,14.9
	L84.5,535.7z M273.4,559.8H114.6c2.7-4.5,7.2-10.9,11.4-18.2l124.6-3.8C256.5,546.1,264.2,554.1,273.4,559.8z M244.9,528.4l-20.7,1
	c-1.3-2.4-2.6-5.4-3.3-8.5c5.9-1.1,11.8-2.5,17.7-4.2C240,519.8,242.2,523.9,244.9,528.4z M215.5,417.6c0,0,2.6,8.8,11.4,5.9
	c0,0,0.4,4.8,3.3,3.7c0,0-5.9,8.4-10.2,17.3c-9.6,2.5-42.2,9.6-68.6,1.9l6.8-8.5c0,0,21.1,3.1,24.4-17.9c0,0,5.5-2.7,6.3-6.7
	C189,413.2,208.2,422.4,215.5,417.6z M274.8,359c-4.5-6.9-2.9-21-1-30.7c0.2,0.2,0.7,0.6,1.4,1c-0.1,3.2-0.2,6.8-0.1,10.4
	c0.1,9.1,1,16.5,2.4,22C276.5,361.1,275.6,360.2,274.8,359z M281,362.2c-2.5-8.1-2.9-20.6-2.6-31.3c1,0.4,2.1,0.7,3.2,0.7
	c4.5,16.5,3,24.3,1.4,27.9C282.3,360.8,281.5,361.7,281,362.2z M295.1,361.3c-0.7,5.5-3.2,7.9-3.8,8.4c-2.5,1-4.4,0.9-6.1-0.3
	c-1.2-0.9-2.2-2.3-3-4.1c1-0.7,2.4-1.9,3.5-4.2c2.1-4.3,3.3-12.2-0.1-26.7c1.4,1.6,2.9,3.4,4.7,5.4
	C294.8,349.6,295.6,356.6,295.1,361.3z M335,375.1c-17.9-12.4-31.8-25.8-41-35.9c17.3,15.6,35.6,28.5,54.7,38.4
	c21.5,11.2,43.9,18.8,66.7,22.4c20.7,3.3,38.1,2.7,49.7,1.5c0.2,2.3,0.6,4.3,1.2,5.7C409.8,416.3,364.2,395.3,335,375.1z"/>
</svg>
