<?xml version="1.0" encoding="UTF-8"?>
<!DOCTYPE svg  PUBLIC '-//W3C//DTD SVG 1.1//EN'  'http://www.w3.org/Graphics/SVG/1.1/DTD/svg11.dtd'>
<svg width="169.58mm" height="67.406mm" clip-rule="evenodd" fill-rule="evenodd" image-rendering="optimizeQuality" shape-rendering="geometricPrecision" text-rendering="geometricPrecision" version="1.1" viewBox="0 0 27503 10932" xml:space="preserve" xmlns="http://www.w3.org/2000/svg">
 <defs>
  <style type="text/css">
   <![CDATA[
    .fil0 {fill:#660066}
   ]]>
  </style>
 </defs>
  <path class="fil0" d="m17075 3963c-48 41-87 119-98 215-10 97 8 213 37 334 109 444 525 966-116 1344-25 14-52 27-82 39 74 41 135 85 188 125 105 79 180 146 217 212s37 132 1 223c-36 92-108 209-179 303-71 95-142 168-209 226s-131 102-150 93c-18-8 9-69 53-155 45-86 107-198 137-303 31-106 28-205-10-274-39-69-114-108-196-149-81-41-170-84-287-121-331-103-687-26-1033-48-163-11-292-30-400-46-109-16-197-28-232 36-36 64-19 204-21 321-1 118-21 214-67 304-45 90-116 175-192 236-76 62-156 100-256 134s-218 65-295 90c-76 25-110 44-108 109 2 66 40 177 115 267 75 91 187 160 192 201 6 41-95 53-197-2-102-54-205-175-283-272-78-98-132-172-183-248-51-77-99-155-39-241 59-85 226-178 339-293 114-115 174-252 164-377-11-124-92-235-176-331-83-95-170-175-217-255-47-81-55-161-38-244 16-83 57-167 96-244s76-146 96-110 21 176 31 254c10 79 29 96 65 71 36-26 89-95 222-151 133-57 347-101 622-155 276-54 614-117 894-177 281-59 504-115 646-210 142-94 203-229 235-376s36-306-3-378c-39-71-121-54-214-70-94-15-198-64-279-110-82-46-139-89-76-114 64-25 248-33 370-56 121-24 180-64 125-98-56-34-227-63-464-118-237-54-540-135-742-217-201-82-301-165-360-252s-78-178-73-281c4-103 32-218 50-208 17 10 24 146 52 256 29 110 80 194 144 257 63 63 139 105 227 139 87 34 187 59 272 72s156 13 157-23c2-37-66-112-121-172-55-61-98-107-129-160s-49-113-54-181c-5-67 4-142 26-147 22-4 57 62 95 142 38 81 79 176 147 269s163 183 246 245 154 96 218 118 121 31 131 9c11-22-24-75-64-142-40-66-84-146-89-201s28-87 68-55c40 31 87 125 134 212 47 86 93 165 171 222 77 57 185 93 275 83 89-9 161-63 259-59s224 66 344 106c119 39 232 55 317 59s141-4 138 48-65 166-145 243c-80 78-178 120-256 142s-135 25-183 65zm-2228 2286c49-39 169-3 285 39 115 42 225 89 182 208-43 120-240 312-425 448-185 137-359 219-346 317 12 99 212 215 247 273 34 57-95 57-207 17-111-40-203-118-258-184-55-67-72-121-6-201 66-79 215-183 317-295 102-113 156-234 171-351 16-118-8-232 40-271zm-1809-1452c-48 41-87 119-98 216-10 96 7 212 37 334 109 443 525 965-116 1343-25 14-53 27-83 39 74 41 135 85 189 125 105 79 179 146 217 212 37 66 37 132 1 223-36 92-108 209-179 303-71 95-142 168-209 226s-132 102-150 93c-19-8 8-69 53-155s107-198 137-303c30-106 28-205-10-274-39-69-114-108-196-149s-170-84-287-121c-331-103-687-26-1034-48-162-11-291-30-400-46-108-16-196-28-232 36-35 64-18 204-20 321-2 118-22 214-67 304s-116 175-192 236c-76 62-157 100-256 134-100 34-219 65-295 90s-111 44-109 109c2 66 41 177 116 267 75 91 187 160 192 201 6 41-96 53-198-2-102-54-204-175-282-272-79-98-132-172-183-248-51-77-99-155-40-241 60-85 227-178 340-293 114-115 174-252 163-376-10-125-91-236-175-332-84-95-170-175-217-255-47-81-55-161-39-244 17-83 57-167 96-244 40-77 77-146 97-110 19 36 21 176 31 254 10 79 29 96 65 71 36-26 89-95 222-151 133-57 347-101 622-155 276-54 613-117 894-177 281-59 504-115 646-210 142-94 203-229 235-376s36-306-3-378c-39-71-121-54-215-70-93-15-197-64-279-110-81-46-138-89-75-114s248-33 370-56c121-24 180-64 124-98s-226-63-463-118c-237-54-541-135-742-217-202-82-301-165-360-252s-78-178-74-281c5-103 33-218 50-208 18 10 24 146 53 256s80 194 143 257c64 63 140 105 227 139 88 34 188 59 273 72s155 14 157-23c1-37-66-112-121-172-55-61-98-107-129-160s-49-113-54-181c-5-67 4-142 26-147 22-4 57 62 95 142 38 81 79 176 147 269s163 183 246 245 154 96 218 118 121 31 131 9c11-22-25-75-64-142-40-66-84-146-89-201s28-87 68-55c40 31 87 125 134 212 46 86 93 165 171 222 77 57 185 93 275 83 89-9 160-63 259-59 98 4 224 66 343 106 120 39 233 55 318 59 84 4 141-4 138 48s-65 166-145 243c-80 78-178 120-256 142s-135 25-183 65zm-2228 2286c49-39 169-3 284 39 116 42 226 89 183 208-43 120-240 312-425 448-186 137-359 219-347 317 13 99 213 215 247 273 35 57-95 57-206 17s-203-118-258-184c-55-67-73-121-7-200 66-80 216-184 318-296 101-113 156-234 171-351 15-118-8-232 40-271zm10249-3943c-48 40-86 119-97 215-11 97 7 212 37 334 98 402 669 881-116 1344-66 39-53 27-83 39 74 41 135 84 189 125 104 79 179 146 216 212 38 66 38 132 2 223s-108 208-180 303c-71 95-141 167-208 226-68 58-132 102-150 93-19-8 8-69 53-155s107-198 137-304c30-105 28-204-11-273-38-69-114-108-195-149-82-41-170-84-287-121-331-103-688-26-1034-49-162-10-291-29-400-45-108-16-196-28-232 36-35 64-19 203-20 321-2 118-22 214-67 304-46 90-117 175-192 236-76 62-157 100-256 134-100 34-219 65-295 90-77 25-111 44-109 109s40 176 115 267c76 90 188 160 193 201s-96 53-198-2c-102-54-205-175-283-272-78-98-131-172-182-249-51-76-99-154-40-240 59-85 226-178 340-293s174-252 163-377c-10-124-91-235-175-331s-171-175-218-256c-47-80-54-161-38-243 17-83 57-168 96-244 39-77 77-146 96-110 20 35 22 175 32 254s29 96 65 71c35-26 88-95 222-151 133-57 346-101 622-155s613-118 894-177c280-59 504-115 646-210s203-229 235-376 36-307-4-378c-39-71-121-54-214-70s-198-64-279-110-139-89-75-114c63-25 248-33 369-57 122-23 181-63 125-97s-226-63-463-118c-238-55-541-135-742-217-202-82-301-165-361-252-59-87-77-178-73-281 5-103 33-219 50-208 18 10 24 146 53 256 29 109 80 194 143 257 64 63 139 105 227 139s188 59 273 72 155 13 157-24c1-37-66-111-121-171-55-61-98-107-129-160s-50-113-54-181c-5-67 4-142 26-147s56 61 95 142c38 81 79 176 146 269 68 92 163 183 246 245s154 96 218 118 121 31 132 9-25-75-64-142c-40-66-84-146-89-201-6-56 28-87 68-55 40 31 87 125 133 211 47 87 94 166 171 223 78 57 186 93 275 83 90-9 161-63 260-59 98 4 224 66 343 106 120 39 233 55 318 59 84 4 140-5 138 48-3 52-65 166-145 243-80 78-179 120-256 142-78 22-136 25-184 65zm-2227 2286c48-39 169-3 284 39 115 41 226 89 183 208-43 120-240 311-426 448-185 137-359 218-346 317s212 215 247 272c35 58-95 57-206 18-111-40-204-118-259-185-54-66-72-120-6-200 66-79 216-183 317-295 102-113 156-234 172-352 15-117-8-231 40-270zm6361-3140c-48 40-87 119-97 215-11 97 7 212 37 334 108 444 525 966-116 1344-25 14-53 27-83 39 74 41 135 84 188 125 105 79 180 146 217 212 38 66 37 132 1 223s-108 208-179 303-141 167-209 226c-67 58-131 102-150 93-18-8 9-69 54-155s107-198 137-304c30-105 28-204-11-273-38-69-114-108-195-149-82-41-170-84-288-121-330-103-687-26-1033-49-162-10-291-29-400-45-108-16-196-28-232 36s-19 203-21 321c-1 118-21 214-66 304-46 90-117 175-193 236-75 62-156 100-256 134-99 34-218 65-294 90-77 25-111 44-109 109s40 176 115 267c75 90 187 160 193 201 5 41-96 53-198-2-102-54-205-175-283-272-78-98-131-172-182-248-51-77-99-155-40-241 59-85 226-178 340-293 113-115 173-252 163-377-11-124-91-235-175-331s-171-175-218-256c-47-80-54-161-38-243 17-83 57-168 96-244 39-77 77-146 96-110 20 35 21 175 32 254 10 79 29 96 64 71 36-26 89-95 222-151 134-57 347-101 623-155 275-54 613-117 894-177 280-59 504-115 646-210s202-229 235-376c32-147 35-306-4-378-39-71-121-54-214-70s-198-64-279-110-139-89-75-114c63-25 247-33 369-57 122-23 181-63 125-97s-227-63-464-118c-237-54-540-135-742-217-201-82-301-165-360-252s-78-178-73-281 33-219 50-208c17 10 24 146 53 256 29 109 80 194 143 257s139 105 227 139 188 59 273 72 155 13 156-24c2-37-65-111-120-171-56-61-99-107-129-160-31-53-50-113-55-181-4-67 4-142 26-147 22-4 57 61 95 142s79 176 147 269c68 92 163 183 246 245s154 96 218 118 121 31 132 9-25-75-65-142c-39-66-83-146-88-201-6-56 27-87 67-55 40 31 87 125 134 211 47 87 94 166 171 223 78 57 186 93 275 83 90-9 161-63 259-59 99 4 225 66 344 106 120 39 233 55 317 59 85 4 141-5 138 48-2 52-64 166-145 243-80 78-178 120-256 142-77 22-135 25-183 65zm-2227 2286c48-39 169-3 284 39 115 41 226 89 183 208-44 120-240 311-426 448-185 137-359 218-346 317s212 215 247 272c35 58-95 57-206 18-111-40-204-118-259-185-55-66-72-120-6-200 66-79 215-183 317-295 102-113 156-234 172-352 15-117-9-231 40-270zm2543-889c82 17 224 100 334 171 111 70 190 127 207 224s-28 234-103 381-180 303-287 448c-107 146-217 281-253 289-37 8 0-113 49-244 49-130 111-271 142-387 31-117 31-208-2-270s-97-94-175-110-170-15-190-49c-2-3-3-6-4-9 116-103 197-233 216-400 2-13 3-27 3-41 16-7 36-8 63-3zm-22999 3205c425-14 1205 103 1901 146s1307 13 1765-92 763-284 959-476c197-192 287-396 342-563s76-296 166-389 248-151 375-137 223 99 273 187c51 88 56 178 21 262s-111 161-198 200c-88 39-188 39-268 64-80 26-141 75-133 188 8 112 86 287 204 480 118 194 276 405 315 615s-42 419-435 680c-61 40-128 82-201 123 25 76 52 155 92 235 66 131 169 264 242 350 73 87 116 127 81 169-35 41-148 84-248 52s-187-139-257-274c-61-121-108-263-134-412-380 193-850 383-1260 502-517 152-937 191-1260 183 47 50 92 100 134 145 36 38 69 72 94 104 103-5 209-9 320-13 379-15 806-34 1220-29 413 5 813 33 1130-6 318-40 552-148 718-286s263-306 260-482c-3-175-106-358-153-481-46-124-35-188 16-166s142 132 229 244c87 113 170 229 201 373 32 143 12 314-118 493s-371 365-666 480c-296 116-646 160-1187 191-540 31-1271 49-1957 111-685 63-1326 172-1828 258-503 86-866 150-916 113-49-36 215-172 473-280 257-107 509-186 764-264 256-77 515-155 810-199 74-11 151-20 230-28-7-54-36-113-74-180-24-42-51-87-77-131-198-32-352-80-508-119-216-55-435-94-591-199-155-105-247-275-275-489-29-213 6-470-43-665-50-195-184-330-309-387-125-56-241-35-281 69-41 105-5 293-56 374s-190 56-282-19-139-198-127-332 82-279 507-293zm1526-1484c-2-16-7-32-16-48-71-144-390-317-663-473s-501-296-735-394c-233-97-473-153-737-164s-553 22-854 83c-135 28-273 61-380 97 49 49 87 110 109 181 13 41 19 81 20 122 132 49 287 109 433 187 336 181 622 459 799 688 177 228 244 407 291 543 31 93 54 167 85 209 19-448 356-874 861-1032 272-85 548-78 787 1zm-3797-911c179-56 370 44 426 223s-44 370-223 426-370-44-426-223 43-370 223-426zm2831 1329c189-130 425-223 603-265 178-43 300-35 394-28s161 13 173 69-32 161-42 210c-9 49 15 42 109 22 93-20 256-51 421-70 164-19 331-25 344 40 12 65-129 201-237 298s-182 155-273 225c-91 71-199 154-224 124-24-31 34-175-6-253-39-78-177-88-321-45-143 43-293 139-429 232-136 92-258 180-292 165-33-14 23-131 96-258 74-126 165-262 150-323-15-60-137-45-278 17-142 61-304 169-402 302-99 132-134 289-167 293-34 5-64-143-8-300 56-158 199-325 389-455zm1134 918c13-56 160-151 334-202s375-56 590-12 444 137 606 184c162 46 257 45 411 27 153-17 365-51 490-70 124-18 161-22 19 35s-464 174-760 219c-297 45-568 17-808-11s-447-55-611-76c-164-22-284-38-271-94zm4342-476c220-111 546-316 1026-488 480-171 1116-309 1525-397 406-87 589-125 1138-232 1-4 2-9 3-14 6-26 13-69 18-115l-651 135c-961 198-1616 334-2150 533s-946 461-1095 584-34 105 186-6zm4486-1271c508-99 1141-222 1865-366 426-84 885-176 1365-272 5-18 9-37 14-56 5-25 12-65 17-109-323 66-640 130-947 193-759 155-1455 298-2082 427-6 2-13 4-19 6-38 11-122 23-151 48-33 28-53 82-62 129zm4032-800c596-120 1215-245 1839-371 449-90 901-182 1337-270 8-24 14-50 20-76 5-23 11-57 16-94l-119 24c-949 192-1983 401-2991 606-14 5-27 11-35 18-41 34-61 107-66 158l-1 5zm3983-803c637-129 1210-244 1653-332 909-182 1270-249 1450-313 181-64 182-123-477-20-518 81-1444 263-2564 489-36 36-55 103-60 151-1 8-1 16-2 25zm5580 5956c66 155 0 252-102 275-109 28-229-43-247-168 56-61 111-132 162-212 32-49 60-75-26-56-64 15-117 64-139 107-27 52-37 107-30 159-32 32-63 60-92 81-105 74-228 140-142-16l328-592c78-140-179-15-242 87 8-74-9-125-55-147-198-91-467 255-547 400-24 42-43 86-56 128-50 58-102 107-148 140-102 74-227 140-138-16l194-354c120-214 46-306-28-306-97 0-232 94-334 196l-18 16c51-148-8-212-72-212-94 0-232 94-334 196 62-124-46-275-137-101-124 238-243 502-490 624-57 28-110 46-151 31-43-16-23-92 41-204l268-493h201c36 0 49-38 18-38h-196c245-441 558-1002 969-1160 329-128 709-138 814 262 97-30 79-120 38-168-212-263-523-245-870-125-492 173-872 701-1150 1191h-130c-38 0-44 38-13 38h122l-196 355c-214 383-5 492 253 342 63-38 120-81 172-130 32-30 19-22 4 12-51 120 55 248 135 104l217-389c53-82 122-153 183-202 125-99 227-130 148 13l-245 444c-83 148 41 282 124 131l213-389c56-81 122-150 184-199 127-99 224-130 145 13l-196 352c-118 214-46 306 28 306 100 0 234-86 362-228-25 123 8 223 130 228 94 0 194-64 288-176-31 122 23 176 82 176 89 0 208-71 325-190 22 86 88 157 180 180 79 20 176 13 262-33 110-62 156-158 120-278-33-118-120-243-127-340-13-165 265-170 252-25-10-3-23-5-35-5-54 0-105 36-115 87-8 48 33 84 86 84 82 0 151-67 141-151-10-71-74-138-192-145-250-15-321 181-260 329l64 161zm-6128-1089c-350 193-760 660-843 1063-74 362 128 592 462 607 174 8 406-74 599-204 109-73 207-160 296-261-79 147 14 195 87 195l255-454c51-84 120-153 181-202 125-99 227-130 148 13l-196 352c-118 214-49 306 28 306 127 0 315-145 471-367 82-111 148-223 207-334l44 30c84 64 71 118 33 191l-100 176c-125 212-53 304 21 304 82 0 170-59 272-160-23 111 29 160 85 160 89 0 208-71 325-189 22 85 88 156 180 179 79 20 176 13 262-33 110-62 156-158 120-278-33-118-120-243-127-340-13-165 265-170 252-25-10-3-23-5-35-5-54 0-105 36-115 87-8 48 33 84 87 84 81 0 150-67 140-151-10-71-74-138-191-145-250-15-322 181-261 329l64 161c66 155 0 252-102 275-109 28-228-43-247-167 58-63 115-137 166-220 13-19 24-37 33-52-92-12-174 54-202 110-28 53-37 108-30 160-31 32-62 59-90 80-104 74-229 140-143-16l248-446c81-148-13-199-87-199l-273 495c-18 33-32 63-43 91-31 32-60 59-87 80-99 79-201 135-112-21l102-173c107-194-8-278-59-316l-114-87c45-97 73-189 96-270-102 0-260 181-142 275-72 148-152 285-242 408-60 74-126 139-179 179-102 74-227 140-141-16l197-354c117-214 43-306-31-306-92 0-222 87-324 186l51-89c250-449 579-1074 1015-1242 330-128 710-138 814 262 97-30 79-120 38-168-211-263-522-245-869-125-493 173-875 704-1153 1194l-259 466c-113 139-246 270-392 360-512 314-994 196-823-400 109-386 443-794 739-977 171-105 347-174 487-138 87 20 153 79 100 173-13-5-28-7-46-7-66 0-135 43-143 97-10 56 38 97 107 97 105 0 184-102 186-187 6-122-99-188-216-211-158-31-345-5-521 79-329-117-719-181-1050-158-605 46-1153 364-1311 941-85 301 15 648 377 668 189 735 939 832 1260 454 28-30 18-51-15-13-306 345-1003 245-1105-449 54-7 113-22 176-43 327-110 572-413 684-694 237-586-220-780-696-301-248 250-350 615-340 832 3 53 8 104 18 153-196-66-222-314-181-531 94-500 587-908 1138-959 321-28 660 10 950 96 66 19 79 11 35 35zm-1437 395c411-439 666-179 469 278-107 250-329 584-721 681-36 10-72 15-102 18-36-301 99-707 354-977zm3829-10c-8 53 35 94 94 94 56 0 115-41 125-94 8-51-33-95-92-95-56 0-120 44-127 95zm3134 272c72 0 46 141-69 347-115 207-257 357-324 357-89 0-53-150 62-357 114-206 265-344 331-347zm-9144 661c-255 446-579 1074-1015 1242-329 128-709 138-813-263-97 31-79 120-39 169 212 263 523 245 870 125 492-174 878-702 1148-1194l431-783c-128 0-202 18-283 166-108 195-161 331-342 474-122 102-240 148-161 3l248-446c84-148-8-197-82-197-129 235-226 495-441 666-100 79-202 135-112-21l102-173c107-194-8-278-59-316l-115-87c34-72 58-141 78-205 17-57 36-90-45-47-89 49-173 181-79 257-71 148-152 286-242 409-61 76-126 142-178 183-100 79-202 135-113-21l102-173c107-194-7-278-58-316l-115-87c34-73 59-143 79-208 15-51 36-84-38-48-92 45-184 183-87 261-63 131-133 254-211 366-59 75-124 141-195 198-132 97-300 153-410 86-69-43-66-145-21-255 215-35 465-114 551-252 97-148-5-232-142-232-245 0-462 183-559 395-23 51-36 98-40 141-51 56-108 105-177 150-107 69-265 130-181-26l599-1081c72-133 189-273 278-296 72-20 131 15 153 61 8 16 26 11 23-5-25-53-91-94-165-94-215 0-393 163-521 321-155 194-387 546-701 918-89 108-240 284-332 301-61 13-74-168 138-632 197-434 365-673 454-753 60 90 190 115 185-24-5-134-253-42-286-51-505-137-1155-159-1615 30-362 148-630 433-732 798-79 303 17 648 377 668 31 123 77 227 135 314-265 43-543-38-627-332-97 31-79 120-38 169 165 206 446 242 688 196 296 405 839 413 1102 107 28-30 18-51-15-13-248 278-753 266-990-117l107-38c373-161 704-602 980-954 74-99 157-206 232-302 113-144 88-119 11 14-32 58-64 116-93 173-97 191-150 380-161 531-7 145 39 232 136 247 148 23 591-569 727-752l331-447-500 893c-76 138-69 227-38 270 36 49 102 41 150 28 129-27 257-117 365-233 2 120 75 200 163 223 181 51 335-13 472-120 91-69 162-150 224-239 79-108 143-216 200-324l43 30c84 64 71 118 33 191l-99 176c-99 167-75 259-25 291 104 67 295-122 354-183 55-57 107-122 157-199 73-101 133-204 187-306l43 30c85 64 72 118 34 191l-100 176c-104 176-72 270-16 296 107 50 284-125 345-188 7-7 13-14 19-21-55 151 8 217 70 217 92 0 248-112 355-222l-72 125zm-4402-923c411-439 666-179 470 278-108 250-329 584-722 681-36 10-72 15-102 18-36-301 99-707 354-977zm-347 1017c54-7 113-22 176-43 327-110 572-413 684-694 237-586-219-780-696-301-248 250-350 615-340 832 3 53 8 104 18 153-196-66-222-314-181-531 51-270 276-617 602-806 398-224 1092-191 1535-51-130 85-260 263-346 378l-281 372c-311 413-625 811-964 954-36 15-71 28-110 38-46-84-79-183-97-301zm2933-612c-84 138-211 220-367 253 21-38 44-79 69-120 93-151 204-269 276-297 120-47 47 122 22 164zm-9894-5466l92 311 301-122-186 266 283 159-324 21 52 320-218-240-218 240 51-320-323-21 282-159-185-266 300 122 93-311zm21428-1178l92 311 301-122-186 266 283 160-324 20 52 321-218-240-218 240 51-321-323-20 282-160-185-266 300 122 93-311zm-2471 4112l92 311 301-122-186 266 283 159-324 21 52 320-218-240-218 240 51-320-323-21 282-159-185-266 300 122 93-311zm-7606-5290l92 311 301-121-186 266 283 159-324 21 52 320-218-240-218 240 51-320-323-21 282-159-185-266 300 121 93-311zm-9876 1101l-92 311-301-122 186 266-283 159 324 21-52 320 218-240 219 240-52-320 323-21-282-159 185-266-300 122-93-311zm845 1525l50 166 161-65-100 143 152 85-174 11 28 171-117-128-116 128 27-171-173-11 151-85-99-143 161 65 49-166zm18262 2664l50 166 161-65-100 143 152 85-174 11 28 171-117-128-116 128 27-171-173-11 151-85-99-143 161 65 49-166zm-7606-5290l50 167 161-65-100 142 152 85-174 12 28 171-117-128-116 128 27-171-173-12 151-85-99-142 161 65 49-167zm-13049 174l-49 167-161-65 99 142-151 85 173 11-28 172 117-129 117 129-28-172 173-11-151-85 100-142-161 65-50-167zm21274-888l-50 167-161-65 99 142-151 85 173 11-27 172 117-129 116 129-27-172 173-11-151-85 99-142-161 65-49-167zm-5769 6389l85 286 277-112-171 245 260 146-298 20 48 294-201-221-201 221 48-294-298-20 260-146-171-245 277 112 85-286zm-7606-5290l85 286 277-112-171 245 260 147-298 19 48 295-201-221-201 221 48-295-298-19 260-147-171-245 277 112 85-286zm-3154 1680l-85 286-277-112 171 245-260 146 298 20-48 294 201-221 201 221-48-294 298-20-260-146 171-245-277 112-85-286zm12397 3148l49 166 161-65-99 142 151 86-173 11 28 171-117-128-117 128 28-171-173-11 151-86-100-142 161 65 50-166zm-7606-5290l49 167 161-65-99 142 151 85-173 11 28 172-117-129-117 129 28-172-173-11 151-85-99-142 161 65 49-167zm4942 5367l49 166 161-65-99 143 151 85-173 11 28 171-117-128-117 128 28-171-173-11 151-85-100-143 161 65 50-166zm-1988 753l49 166 161-65-99 143 151 85-173 11 27 171-116-128-117 128 27-171-173-11 151-85-99-143 161 65 50-166zm-6622-5425l50 167 161-65-100 142 151 85-173 11 28 172-117-129-117 129 28-172-173-11 151-85-99-142 161 65 49-167zm4942 5367l49 166 161-65-99 143 151 85-173 11 28 171-117-128-117 128 28-171-173-11 151-85-99-143 161 65 49-166zm-3706-4266l-49 166-161-65 99 142-151 86 173 11-28 171 117-128 117 128-28-171 174-11-152-86 100-142-161 65-50-166zm4942 5366l-49 167-161-66 99 143-151 85 173 11-28 172 117-129 117 129-28-172 173-11-151-85 99-143-160 66-50-167zm-8420-6042l100 336 325-132-201 288 306 172-350 23 56 346-236-260-236 260 56-346-350-23 306-172-201-288 325 132 100-336zm18120 3011l124 418 404-163-249 357 380 214-435 28 69 430-293-322-293 322 70-430-435-28 379-214-249-357 404 163 124-418zm-5772-5289l124 418 404-164-249 358 380 214-435 28 69 430-293-323-293 323 70-430-435-28 379-214-249-358 404 164 124-418zm-18030 1911l-124 418-404-164 249 358-379 214 434 28-69 430 293-323 293 323-69-430 434-28-379-214 249-358-404 164-124-418z"/>
</svg>
