<?xml version="1.0" encoding="utf-8"?>
<!-- Generator: Adobe Illustrator 21.1.0, SVG Export Plug-In . SVG Version: 6.00 Build 0)  -->
<svg version="1.1" id="Calque_1" xmlns="http://www.w3.org/2000/svg" xmlns:xlink="http://www.w3.org/1999/xlink" x="0px" y="0px"
	 viewBox="0 0 432 432" style="enable-background:new 0 0 432 432;" xml:space="preserve">
<style type="text/css">
	.st0{fill:#CDCCCC;}
	.st1{fill:#F2F2F2;}
	.st2{fill:#020203;}
	.st3{fill:#B88E5C;}
	.st4{fill:#EA9FA1;}
	.st5{fill:#28285B;}
	.st6{fill:#9E1460;}
	.st7{fill:#82171C;}
</style>
<g>
	<g>
		<g>
			<path class="st3" d="M145.5,312.9c0.2-0.4,0.4-0.8,0.6-1.2c3.2-6,7.4-11.1,12.6-15.4c1.5-1.2,3-2.3,4.9-2.7
				c4.6-1.1,8.8,1.7,9.5,6.4c0.4,2.5,0.2,4.9-0.1,7.3c-0.7,5.9-2.4,11.6-3.9,17.3c-1.5,6-2.7,12.2-3.4,18.4
				c-0.3,2.6-0.4,5.2,0.2,7.7c0.2,0.7,0.2,1.8,0.8,1.9c0.8,0.2,1.2-0.8,1.7-1.4c1.2-1.5,2.1-3.3,2.8-5.1c2.6-6,4.6-12.2,6.6-18.5
				c1.6-5,3-10,4.6-14.9c0.3-0.9,0.3-1.7,0.1-2.7c-2-7.8,1.9-16.5,7.8-20.7c6.7-4.8,16.6-3.5,21.3,2.9c0.1,0.1,0.2,0.3,0.5,0.3
				c0.3-0.6,0.6-1.3,1-2c1.1-1.9,2.7-2.6,4.8-2c2,0.5,3.2,2.1,3.2,4.2c0,1.9-0.5,3.6-0.9,5.4c-1.2,5.3-2.4,10.5-3.2,15.9
				c-0.9,6-1.2,12.1-1.3,18.2c0,2.6-0.1,5.2,0.2,7.8c0.1,1,0.3,2,0.7,3c0.7-0.6,0.9-1.3,1.2-2c1-2,1.7-4.2,2.5-6.3
				c4.3-12.3,8.3-24.7,12.5-37c0.5-1.5,0.4-3.2,0.6-4.8c0.4-3.8,0.9-7.6,1.9-11.3c0.4-1.6,1-3.2,2-4.6c0.6-1,1.4-1.7,2.5-2
				c1.9-0.6,3.7,0.4,4.2,2.3c0.2,1,0.2,1.9,0.1,2.9c-0.4,5-0.8,9.9-1.2,14.9c-0.1,1.7-0.2,3.4-0.2,5.1c0.5-0.1,0.6-0.5,0.7-0.8
				c1.8-3.7,4-7.2,6.6-10.3c1-1.3,2.1-2.5,3.3-3.5c3.6-3.1,7.9-2.1,10.5,1.1c1.4,1.8,2,3.9,2.3,6.1c0.3,2.5,0.2,5.1-0.1,7.6
				c-0.6,6.2-1.2,12.3-1.9,18.5c-0.4,3.7-0.8,7.4-1,11.2c-0.2,2.9-0.4,5.8,0.2,8.7c0.2,1,0.4,1.9,1,2.7c0.6,0.8,1,0.8,1.7,0.1
				c0.8-0.8,1.4-1.8,2-2.8c0.8-1.5,1.5-3,2-4.6c1.9-5.5,3.6-11,5.3-16.6c0.2-0.6,0.2-1.2,0.2-1.8c-0.4-5.4-0.1-10.8,1.2-16.1
				c0.7-2.8,1.7-5.5,3.4-7.9c2.4-3.6,5.8-5.8,10.1-6.3c3.9-0.4,8.9,1.4,11.3,5.8c1.1,1.9,1.6,4,1.8,6.2c0.1,0.7,0,1.4-0.2,2.1
				c-0.3,1-0.8,1.4-1.8,1.4c-1,0-1.5-0.4-1.7-1.4c-0.3-1.2-0.5-2.4-1-3.6c-0.4-1.1-0.9-2.1-1.6-3.1c-0.6-0.8-1.3-1.5-2.3-2
				c-1-0.4-1.9-0.4-2.8,0.2c-1.2,0.7-2.1,1.7-2.8,2.9c-1.5,2.5-2.5,5.3-3.1,8.1c-1,4.6-1,9.2-0.7,13.8c0.2,3,0.5,6,0.9,9
				c0.3,2.3,0.8,4.6,1.6,6.9c0.4,1,0.8,1.9,1.4,2.7c1.3,1.8,2.8,2.1,4.7,0.9c1.1-0.7,2-1.5,2.8-2.4c1.9-2,3.4-4.1,4.7-6.5
				c2.8-5,4.8-10.4,6.8-15.7c0.2-0.4,0.2-0.9,0.1-1.4c-0.4-3.5-0.5-7-0.3-10.5c0.3-4.8,0.9-9.5,2.8-13.9c1-2.2,2.3-4.2,4.2-5.8
				c3-2.4,6.4-2.9,10-1.6c1.4,0.5,2.5,1.4,3.4,2.6c1.7,2.3,2.5,4.9,2.4,7.8c0,2.5-1.2,4.3-3.2,5.6c-1.9,1.3-4.2,1.7-6.4,1.9
				c-0.4,0-0.7,0-1.1,0c-1.8,0-1.9,0-2,1.9c-0.4,5.2-0.1,10.4,0.9,15.6c0.4,2.4,0.8,4.7,1.5,7c0.3,1,0.7,1.9,1.2,2.8
				c0.4,0.6,0.8,1.2,1.4,1.7c1.2,1.1,2.3,1.2,3.6,0.2c0.9-0.7,1.7-1.6,2.3-2.5c1-1.5,1.8-3.1,2.6-4.7c2.8-5.7,5-11.7,7.4-17.6
				c0.3-0.8,0.4-1.5,0.1-2.4c-1.3-4.4-1.6-8.8-0.3-13.2c0.6-2.1,1.6-3.9,3-5.5c3.4-3.8,9.7-3.9,13.1,0.1c2.8,3.3,3.9,7.1,3.5,11.3
				c-0.1,0.8-0.2,1.6-0.2,2.3c-0.1,0.6-0.2,1.1-0.8,1.3c-0.7,0.2-1.3-0.1-1.7-0.6c-0.4-0.4-0.5-1-0.5-1.5c0-1.2,0-2.4,0-3.6
				c-0.1-2.2-0.7-4.3-1.9-6.1c-1.4-2.1-3.3-2.3-5-0.4c-1.1,1.2-1.6,2.7-1.9,4.2c-0.5,2.4-0.1,4.8,0.4,7.2c0.6,3.1,1.6,6.1,3,8.9
				c1.4,2.7,2.7,5.3,4.1,8c0.3,0.6,0.6,0.7,1.3,0.5c2.3-0.8,4.6-1.3,7.1-1.2c6,0.2,10.7,2.9,13.9,8c2,3.2,2.5,6.7,1.2,10.4
				c-0.5,1.4-1.1,2.8-1.7,4.1c-0.5,1-1.3,1.3-2.3,1c-1-0.3-1.7-1.2-1.5-2.2c0.2-1.3,0.5-2.6,0.8-3.9c1.9-7-3.9-15.7-13.6-14.2
				c-1.1,0.2-2.3,0.4-3.3,0.8c-0.1,0.6,0.2,1,0.4,1.5c1.6,3.9,2.9,8,3.6,12.2c0.5,3.5,0.4,7-0.9,10.4c-2.2,5.6-7.3,8.9-13.2,8.6
				c-3.1-0.2-5.5-1.6-7.4-4.1c-2.4-3.2-2.9-6.7-2-10.5c1-4.4,3.2-8.1,6-11.6c1.3-1.6,2.6-3.1,4.2-4.4c0.5-0.4,0.6-0.7,0.4-1.3
				c-1.6-3.8-3.6-7.4-5.5-11.3c-0.2,0.5-0.4,0.8-0.5,1.1c-1.9,5-3.8,10-5.7,15c-0.7,1.9-1.5,3.7-2.7,5.3c-0.8,1.1-1.7,2.1-2.7,3
				c-3.1,2.6-6.6,3-10.3,1.4c-1.3-0.6-2.4-1.4-3.4-2.3c-2.3-2.2-4-4.9-5.2-7.9c-0.3-0.7-0.5-1.4-0.9-2.2c-0.5,0.7-0.7,1.4-0.9,2
				c-1.6,4.2-3.5,8.3-6,12.1c-1.8,2.8-3.9,5.4-6.5,7.5c-1.3,1-2.8,1.8-4.5,2.1c-2.6,0.5-4.8-0.2-6.9-1.8c-1.2-0.9-2.1-1.9-3-3.1
				c-2.3-3-3.9-6.5-5.1-10.1c-0.1-0.3-0.1-0.7-0.5-0.9c-0.6,2-1.2,3.9-1.8,5.9c-0.8,2.7-1.6,5.4-2.8,8c-0.9,1.9-2,3.8-3.3,5.4
				c-0.1,0.2-0.3,0.4-0.4,0.5c-2.9,3.4-6.9,3.1-9.2-0.7c-1.4-2.2-2-4.6-2.6-7.1c-1.5-6.6-1.8-13.2-1.5-20c0.4-6.4,1-12.7,1.6-19
				c0.3-2.7,0.4-5.4,0.3-8.2c-0.9,0-1.4,0.6-1.9,1c-2.1,1.9-4,4-5.6,6.3c-3.8,5.5-6,11.7-7.4,18.2c-0.5,2.2-0.4,4.4-0.5,6.6
				c-0.1,1.8-0.7,2.5-2.4,2.8c-1.5,0.3-2.6-0.4-3.3-1.9c-0.8-2-1.1-4.2-1.5-6.3c-0.5-2.7-1-5.3-1.2-8.2c-0.5,0.4-0.6,1-0.7,1.4
				c-3,9.3-5.9,18.5-8.9,27.8c-0.7,2.1-1.4,4.1-2.2,6.1c-0.4,1-0.9,2-1.6,2.9c-2.2,2.8-5.8,3-8.3,0.3c-1-1.1-1.6-2.3-2.3-3.6
				c-2.7-5.6-3.3-11.6-3-17.7c0.3-5.2,0.9-10.3,1.8-15.4c0-0.2,0-0.3,0-0.7c-0.5,0.4-0.8,0.8-1,1.2c-2.2,3.3-4.7,6.2-8,8.6
				c-1.9,1.4-3.9,2.5-6.3,2.7c-2.5,0.2-4.5-0.8-6-2.7c-0.6-0.7-1.1-1.5-1.8-2.4c-0.3,0.9-0.5,1.7-0.7,2.4c-2.7,8.7-4.9,17.5-8,26
				c-0.9,2.6-2,5.1-3.4,7.4c-0.8,1.4-1.8,2.8-3.1,3.9c-2.6,2.1-5.7,2-8.1-0.4c-1.2-1.2-2-2.6-2.6-4.1c-1.2-3.1-1.8-6.3-2-9.6
				c-0.3-5.5,0.8-10.7,2.1-16c1.3-5.3,2.8-10.5,3.9-15.9c0.5-2.5,0.9-5.1,1.2-7.7c0.1-0.9,0.1-1.8,0-2.7c-0.7-0.2-1.1,0.1-1.6,0.3
				c-1.7,0.8-3.2,1.8-4.6,3.1c-4.2,3.8-7.4,8.4-9.5,13.7c-0.9,2.2-1.3,4.6-1.5,7c-0.1,1.2-0.2,2.3-1.5,2.9c-1.3,0.6-2.6,0.5-3.8-0.3
				c-0.8-0.5-1.3-1.2-1.7-2c-2.3-4-3.8-8.4-4.6-13c-0.2-1-0.3-2.1-0.4-3.3c-0.6,0.6-0.7,1.2-1,1.7c-2.2,4.6-4.7,8.9-7.8,12.9
				c-1.1,1.5-2.5,2.7-3.9,3.9c-4.9,4.1-10.6,4.2-16,1.1c-3.7-2.1-6.2-5.3-8.1-9.1c-2.5-5.1-3.4-10.5-3.6-16.1
				c-0.4-8.3,0.8-16.4,3.9-24.1c0.9-2.1,1.8-4.1,3.2-5.9c2-2.6,4.4-4.6,7.6-5.5c4.7-1.3,9-0.2,12.9,2.7c4.9,3.8,6.9,9,7.1,15
				c0,1.3-0.4,2.5-0.6,3.7c-0.1,0.7-0.7,1-1.5,0.8c-0.8-0.1-1.3-0.6-1.3-1.4c-0.1-2.8-0.7-5.5-1.4-8.2c-0.6-2.4-1.9-4.5-3.7-6.2
				c-3.4-3.1-6.9-2.5-9.5,1c-1.6,2.1-2.6,4.6-3.5,7c-2.8,7.5-3.8,15.2-3.2,23.1c0.4,5.1,1.8,9.9,3.7,14.6c0.8,2.1,2,3.9,3.6,5.5
				c1.7,1.7,3.7,2,5.8,1c1.8-0.8,3.4-2,4.8-3.4c2.8-2.7,4.8-6,6.7-9.3c2-3.4,3.6-7.1,5.3-10.6c0.4-0.8,0.4-1.6,0.4-2.4
				c0.5-8.3,2.5-16.2,6.2-23.7c1-2.1,2.2-4.1,3.6-6c-0.2-0.2-0.3-0.3-0.5-0.4c-4.9-2.9-9.2-6.6-13.4-10.5c-3.3-3.1-6.6-6.2-10.1-9
				c-4.6-3.6-9.6-6.2-15.3-7.4c-6.2-1.3-12.4-0.9-18.4,1.2c-10.8,3.7-19.5,10.3-26.5,19.3c-1.5,1.9-2.8,4-3.5,6.4
				c-0.3,0.9-1,1.2-1.8,1c-0.9-0.3-1.2-0.9-1-1.8c0.2-0.9,0.6-1.8,1-2.6c1.5-3.1,3.6-5.8,5.9-8.4c6.9-7.7,15.1-13.4,24.9-16.8
				c11.4-3.9,22.3-2.7,32.8,3.2c4.5,2.5,8.3,5.8,12,9.3c4,3.7,8,7.6,12.3,10.9c1,0.7,1.9,1.4,2.9,2.1c1,0.7,1.1,0.7,1.9-0.2
				c1.8-1.9,3.8-3.6,5.9-5c2.8-1.8,5.8-3.2,9.2-3.6c4.1-0.4,7.8,0.6,10.7,3.7c2.6,2.9,2.7,6.5,0.4,9.6c-2.3,3-5.3,4.3-8.9,4.6
				c-3.7,0.3-7.3-0.4-10.9-1.6c-1.1-0.4-1.1-0.4-1.7,0.6c-3.8,6.6-6.2,13.8-7.3,21.3C144.4,301.2,144.6,307,145.5,312.9z M191,311.2
				c0,0.4,0,0.7,0,1.1c0.1,1.3,0.3,2.6,0.8,3.8c0.5,1,0.7,1.1,1.7,0.8c1.3-0.3,2.5-0.9,3.6-1.7c2-1.3,3.6-3,5.1-4.8
				c2.6-3.1,4.9-6.5,7-9.9c0.1-0.2,0.2-0.3,0.3-0.5c0.3-0.6,0.4-1.3,0-2c-0.9-1.8-2.1-3.3-3.8-4.5c-1.4-0.9-2.9-1.2-4.5-0.7
				c-1.5,0.4-2.8,1-3.9,2c-2.7,2.3-4.4,5.3-5.4,8.7C191.3,306,191.1,308.6,191,311.2z M347.9,317c-1,0.3-1.4,1.2-2,1.8
				c-3.4,3.6-6,7.7-6.9,12.7c-0.6,3.3-0.1,6.3,2.6,8.7c1.8,1.6,3.4,1.7,5.4,0.3c0.5-0.4,1-0.8,1.4-1.3c1-1.2,1.4-2.7,1.7-4.2
				c0.5-3.4,0.3-6.8-0.2-10.2C349.5,322.1,348.8,319.6,347.9,317z M154.9,270.3c1.7,0.7,3.4,1.2,5.1,1.5c2.1,0.4,4.3,0.6,6.4,0
				c2.8-0.8,4.9-2.4,5.8-5.4c0.4-1.3,0.2-2.6-0.7-3.6c-1.4-1.6-3.1-2.3-5.3-1.9c-1.7,0.3-3.2,1.1-4.6,2.1
				C158.9,265,156.9,267.6,154.9,270.3z M318.9,292.2c2.2,0.1,4.2,0.1,6.1-0.7c0.9-0.4,1.6-1,2-2c1-2.2,0.2-5.6-1.6-7.1
				c-0.7-0.6-0.8-0.6-1.5,0C320.9,284.9,319.8,288.4,318.9,292.2z"/>
			<path d="M272,219.5c-0.7,0.7-0.9,1.2-1.1,1.7c-3.4,6.4-6.1,13.1-8.9,19.8c-0.6,1.4-1.2,2.7-1.8,4c-0.3,0.7-0.7,1.3-1.1,1.9
				c-1.7,2.5-4.5,2.9-7,1.1c-1.2-0.9-2-2.2-2.6-3.5c-1.6-3.3-2.3-6.9-2.9-10.5c-1-6.1-0.7-12.1-0.1-18.2c0.1-0.9,0.2-1.7,0.3-2.7
				c-0.5,0.4-0.6,0.9-0.8,1.3c-1.8,3.9-3.5,7.9-5.5,11.8c-1.2,2.3-2.5,4.6-4,6.8c-0.7,1-1.5,1.9-2.4,2.7c-4.4,4-10.9,4-15.3-0.1
				c-1.4-1.3-2.5-2.9-3.5-4.7c-0.2-0.4-0.3-0.9-0.7-1.2c-0.5,1-0.5,2-0.6,3c-1.7,10.2-3.2,20.5-5.5,30.6c-0.7,3.1-1.5,6.1-2.5,9.1
				c-0.4,1.3-0.9,2.6-1.7,3.8c-1.7,2.5-4.6,3-7.1,1.3c-1.3-0.9-2.1-2.1-2.8-3.4c-1.8-3.4-2.8-7.1-3.6-10.9c-1.3-6.5-1.3-13-0.9-19.6
				c0.5-6.5,1.6-12.9,2.7-19.3c1.4-8,3.3-15.9,4.7-23.9c0.6-3.4,1.1-6.8,1-10.3c0-0.4,0.1-0.7-0.1-1.1c-0.4-0.2-0.6,0.2-0.8,0.3
				c-2.1,1.7-3.8,3.8-5.3,6c-4.8,7-8.3,14.7-11,22.7c-2,5.9-3.3,11.9-4.2,18c-0.2,1-0.3,2.1-0.6,3.1c-0.6,2.7-3.3,3.8-5.7,2.2
				c-1.1-0.7-1.7-1.7-2.2-2.8c-1.4-2.6-2.4-5.4-3.4-8.2c-2.1-6.3-3.4-12.8-4.2-19.4c-0.7-5.6-0.8-11.1-1.4-16.7
				c-0.1-1.5-0.3-2.9-0.7-4.3c-0.5-0.1-0.6,0.2-0.9,0.4c-1,0.9-1.8,2-2.5,3.1c-3.3,5.5-5.3,11.5-5.7,17.9c-0.1,1.7,0.1,3.3,0.4,5
				c0.3,1.1,0.6,2.2,1.5,3.1c0.3,0.3,0.6,0.7,0.4,1.2c-0.2,0.5-0.7,0.7-1.2,0.8c-0.7,0.1-1.3-0.2-1.8-0.5c-1.2-0.8-1.9-1.9-2.4-3.1
				c-0.7-1.6-1-3.3-1.1-5c-0.2-4.9,0.9-9.5,2.6-14.1c1.3-3.4,3-6.7,5.1-9.6c0.6-0.9,1.3-1.7,2.1-2.4c2.2-1.9,4.6-2,7-0.4
				c1.3,0.9,2.1,2,2.8,3.4c1.2,2.2,1.9,4.7,2.5,7.2c1.1,4.7,1.8,9.4,2.5,14.2c1,6.7,2.1,13.4,3.1,20.1c0,0.3,0.1,0.6,0.4,1
				c0.3-1.3,0.6-2.5,0.9-3.8c2.5-9.9,5.7-19.5,10.5-28.5c2.2-4.1,4.5-8.2,7.2-11.9c0.9-1.3,2-2.4,3.2-3.4c1.9-1.6,4.1-1.8,6.3-0.8
				c2.2,1,3.5,2.8,4.3,5c0.9,2.6,1.1,5.2,1,7.9c-0.1,4.2-0.8,8.3-1.6,12.3c-1.6,8.1-3.3,16.2-4.5,24.4c-0.8,5.5-1.5,11-1.8,16.5
				c-0.3,5.2-0.5,10.3-0.4,15.5c0,2.2,0.2,4.4,0.7,6.6c0.3,1.1,0.6,2.1,1.3,3.1c0.8-0.5,1.1-1.4,1.5-2.1c1.3-2.8,2.1-5.7,2.8-8.7
				c1.9-8.2,3.4-16.4,4.8-24.7c1-5.9,1.8-11.8,2.6-17.7c0.1-0.7,0-1.3,0-1.9c-0.5-6.2-0.4-12.4,1.3-18.4c0.8-2.8,2-5.4,3.8-7.6
				c1.3-1.7,3-3,4.9-4c4.8-2.5,9.5-1.1,12.7,2.4c2.4,2.6,3.1,5.7,2.2,9.1c-1.3,4.7-4.4,7.4-9.3,8.1c-1.6,0.2-3.2,0.2-4.8,0.2
				c-1,0-1.1,0-1.1,1.1c-0.3,6.4,0.4,12.6,2,18.8c0.4,1.5,0.9,2.9,2,4.1c1.1,1.1,2,1.4,3.5,0.8c1-0.4,1.9-1,2.6-1.7
				c1.2-1.1,2.2-2.5,3.1-3.9c2.4-3.6,4.3-7.4,6.1-11.3c2.5-5.3,4.9-10.6,7.3-15.8c0.1-0.1,0.1-0.2,0.2-0.4c1.2-2.3,3.2-2.8,5.3-1.2
				c1,0.8,1.6,1.9,1.9,3.2c0.4,1.8,0.4,3.6,0.3,5.4c-0.2,3.8-0.4,7.6-0.5,11.3c-0.1,5.3-0.2,10.6-0.2,15.9c0,2.6,0.2,5.2,0.7,7.7
				c0,0.2,0,0.4,0.2,0.5c0.4-0.1,0.5-0.5,0.7-0.8c1.2-2,2.1-4.1,3.1-6.2c4.2-9.4,8.6-18.7,13.1-27.9c0.6-1.3,1.3-2.7,1.7-4.1
				c0.3-1.1,1.1-1.6,2.2-1.8c2.5-0.3,5,1.4,5.7,3.9c0.3,1.3,0.3,2.6,0.2,3.9c-0.4,3.5-0.9,7.1-1.3,10.6c-0.6,4.3-1,8.7-1.4,13.1
				c-0.6,6-0.7,12.1-0.4,18.1c0.2,4.1,0.3,8.2,1.3,12.2c0.3,1.3,0.6,2.5,1.4,3.6c0.6,0.9,1,1,1.9,0.3c1.2-0.8,2.1-2,2.9-3.2
				c1.7-2.6,3.1-5.3,4.4-8.2c3.7-8.2,6.3-16.8,8.6-25.6c1.6-6.2,3-12.5,3.8-18.8c0.2-1.7,0.3-3.4,0.5-5.1c0.1-1.2,0.1-1.2-1-1.7
				c-4-1.6-7.4-4.1-10.1-7.5c-4.4-5.5-6.1-11.7-4.7-18.7c0.3-1.6,1-3.1,1.9-4.4c2-2.8,5.3-3.2,8-1.8c1.7,1,3,2.4,4.1,4.1
				c1.7,2.6,2.7,5.6,3.5,8.6c1.4,5.1,2,10.3,2.2,15.6c0.1,1.6,0.1,1.5,1.7,1.8c3.2,0.5,6.4,0.1,9.5-0.7c3.2-0.8,6.4-1.6,9.6-2.6
				c0.8-0.3,1.7-0.5,2.4-1c0.6-0.5,1.4-0.4,2.1-0.1c1.1,0.5,1.3,1.7,0.4,2.6c-0.4,0.4-0.9,0.7-1.4,0.8c-5.4,1.8-10.7,3.7-16.3,4.6
				c-2.3,0.4-4.6,0.3-6.9,0.1c-1.2-0.1-1.2-0.1-1.2,1.1c-0.1,3-0.5,6.1-1,9.1c-1.1,7.1-2.7,14-4.6,20.9c-2.2,7.8-4.8,15.5-8.3,22.9
				c-1,2.2-2.2,4.3-3.6,6.2c-1,1.4-2.1,2.6-3.5,3.5c-3.4,2.5-7.4,2.1-10.5-0.8c-1.3-1.3-2.3-2.8-3-4.4c-2-4.3-3.2-8.8-3.6-13.6
				c-0.4-5.8-0.3-11.5,0.2-17.3C270.6,230.3,271.2,225,272,219.5z M304.6,202.1c0-0.8,0-1.6,0-2.4c-0.1-2.5-0.4-5.1-0.8-7.6
				c-0.7-3.8-1.6-7.5-3.3-11c-0.7-1.3-1.4-2.6-2.5-3.7c-1.2-1.2-2-1.2-3,0.3c-0.9,1.3-1.3,2.8-1.5,4.4c-0.6,8.4,3,14.8,9.9,19.4
				C303.8,201.9,304,202.1,304.6,202.1z M222.3,206.2c1.3,0,2.6,0,3.9,0c2.9-0.1,5-1.4,6.2-4c0.5-1,0.8-2,0.9-3
				c0.2-1.7,0-3.2-1.2-4.5c-2.3-2.4-3.3-1.8-5,0c-0.4,0.4-0.7,0.9-1,1.3c-1.5,2.2-2.7,4.6-3.3,7.2
				C222.6,204.2,222.3,205.1,222.3,206.2z"/>
		</g>
		<g>
			<path class="st3" d="M200.3,80.9c-2.1,0.2-18.5,5.8-31,2.8c-4.2-1-8.3-5.7,1.9-5.1c29.9,1.7,40.8-9.7,38.6,2.8
				c-1.9,10.8-23.5,36-23.5,36c0.6,0.4,23.4-2.8,26.9,24.5c4.7,35.9-51.6,48.9-48.6,5.9c0.2-2.4,3.4-2,3.7,0
				c0.6,4.7,0.8,19.7,13.8,20.7c29.2,2.2,30.1-61.6-2.9-44.3c-1.5,0.8-2.7,0.6-3.9-0.5C170,119.1,190.8,98.4,200.3,80.9z"/>
			<path class="st3" d="M226.3,144.1c0.9-0.2,4.6-4.5,11.1-4c23.5,1.7,19.6,37.9,2.5,38.5c-35.5,1.3-28.6-92.3,1.6-100.4
				c7.2-2,13.6,3,14.2,8.5c0.2,2.2-2,2.9-3.2,0.1c-1.7-3.6-4.1-5.1-7.8-3.5C227,90.8,224.5,139.6,226.3,144.1z M227.2,150
				c-2.9,2.9,9.6,38.8,19.9,18.7C254.1,154.7,243.4,133.6,227.2,150z"/>
			<path class="st3" d="M269.6,111.3c0.6-0.1,23.4-17.3,31.7,11.3c13.4,46-40.4,72.8-35.7,29.6c0.5-5,4.3-6.8,3.8,1.2
				c-1.6,22.9,18.1,23.6,23.7-13.1c4.7-30.8-13.3-37.7-23.8-21.7c-3,4.6-12.1,1.9-5-29.4c1.1-5,1.4-5.8,18-6.1
				c4.4-0.1,13-1.3,12.7,2.1c-0.4,4-24.2,0.4-24,3.6C271.1,94.1,269.6,111.3,269.6,111.3z"/>
		</g>
	</g>
	<g>
		<path class="st3" d="M361.4,248.8c-0.7-0.2-1.5-0.4-2.2-0.6c-1.8-0.6-3.1-1.7-4.1-3.4c-1-1.8-1.8-3.6-2.2-5.6
			c-0.1-0.2-0.1-0.5-0.2-0.7c-0.3-0.6-0.7-0.8-1.2-0.9c-0.8,0-1.4,0.5-1.6,1.3c-0.2,1-0.4,2-0.6,3c-0.3,1.2-0.6,2.4-1.1,3.6
			c-0.7,1.7-2,2.9-3.8,3.4c-0.2,0.1-0.4,0.1-0.6,0.3c-0.8,0.5-0.9,1.6,0,2.2c0.3,0.2,0.6,0.3,0.9,0.4c1,0.3,2.1,0.6,3.2,0.8
			c1.2,0.3,2,1,2.3,2.2c0.4,1.6,0.6,3.2,0.7,4.8c0.1,1.1,0.1,2.2,0.2,3.2c0,0.2,0.1,0.4,0.1,0.6c0.2,0.5,0.6,0.7,1.1,0.6
			c0.5,0,0.8-0.3,0.9-0.8c0.1-0.5,0.1-1,0.1-1.5c0.3-2.6,0.7-5.1,1.6-7.5c0.5-1.4,1.5-2.2,3-2.3c1.1-0.1,2.1-0.2,3.2-0.2
			c0.9-0.1,1.6-0.5,1.6-1.2C362.8,249.6,362.3,249.1,361.4,248.8z M353.5,250.8c-0.5,0.5-0.9,1.1-1.4,1.8c-0.8-1.5-2.2-2.1-3.8-2.5
			c0.5-0.6,1-1,1.4-1.6c0.4-0.6,0.8-1.2,1.1-1.8c0.3-0.6,0.5-1.3,0.8-2c1,1.7,1.9,3.6,3.6,4.8C354.7,249.8,354,250.2,353.5,250.8z"
			/>
		<path class="st3" d="M326.2,241.7c0-0.6-0.3-1-0.9-1.2c-0.2-0.1-0.4-0.1-0.6-0.2c-1.2-0.3-2.2-0.9-2.9-1.9c-0.5-0.7-1-1.5-1.3-2.3
			c-0.4-1.1-0.6-2.3-0.9-3.5c-0.2-0.8-0.6-1.3-1.3-1.4c-0.7-0.1-1.3,0.4-1.5,1.2c-0.2,0.6-0.3,1.2-0.4,1.8c-0.2,1.1-0.5,2.1-0.7,3.2
			c-0.4,1.6-1.5,2.7-3.1,3.1c-0.3,0.1-0.6,0.1-0.9,0.2c-0.6,0.2-0.9,0.6-0.9,1.2c0,0.6,0.4,1.1,1.1,1.3c0.8,0.3,1.6,0.5,2.5,0.7
			c1.2,0.3,1.8,1.1,1.9,2.3c0,0.1,0,0.3,0,0.4c0.1,1.3,0.1,2.6,0.2,3.9c0.1,0.8,0.1,1.7,0.2,2.5c0.1,0.8,0.5,1.3,1.2,1.3
			c0.7,0,1.1-0.4,1.2-1.4c0-0.2,0-0.5,0.1-0.7c0.1-0.8,0.2-1.6,0.4-2.4c0.3-1,0.7-2,1.2-3c0.6-1.2,1.4-2.3,2.7-2.9
			c0.7-0.3,1.3-0.6,1.9-1C325.9,242.7,326.2,242.3,326.2,241.7z M319.8,242.8c-0.4,0.4-0.7,0.9-1.2,1.4c-0.5-1.2-1.3-2-2.5-2.6
			c1.1-0.9,1.8-1.9,2.2-3.1c0.9,1.1,1.8,2.1,2.7,3.2C320.7,242,320.2,242.4,319.8,242.8z"/>
		<path class="st3" d="M336.5,192.6c0.9,0.4,1.9,0.7,2.8,1.1c0.6,0.2,1.1,0.6,1.3,1.2c0.2,0.5,0.4,1,0.5,1.5
			c0.1,0.7,0.2,1.4,0.3,2.2c0.1,0.7,0.2,1.3,0.3,2c0.1,0.5,0.6,0.9,1.1,0.8c0.5,0,0.8-0.3,1-0.8c0.1-0.3,0.1-0.5,0.2-0.8
			c0.3-1.2,0.5-2.4,0.8-3.6c0.5-1.6,1.7-2.5,3.2-3c0.6-0.2,1.3-0.3,1.9-0.6c0.7-0.3,1.1-0.8,1.1-1.4c0-0.6-0.5-1.1-1.2-1.3
			c-0.6-0.2-1.2-0.4-1.8-0.6c-0.5-0.2-0.9-0.5-1.1-0.9c-0.8-1.4-1.4-2.8-1.7-4.4c-0.1-0.6-0.2-1.2-0.3-1.7c-0.2-0.6-0.7-1-1.3-1.1
			c-0.6,0-1.2,0.3-1.4,1c-0.1,0.3-0.2,0.6-0.3,1c-0.3,1-0.5,2-0.9,3c-0.5,1.4-1.4,2.4-2.7,3c-0.7,0.3-1.4,0.7-2.1,1
			c-0.5,0.2-0.9,0.6-0.9,1.2c0,0.1,0.1,0.3,0.2,0.5C335.7,192.2,336,192.4,336.5,192.6z M343.2,187.7c0.7,1.2,1.3,2.2,2,3.4
			c-0.4,0.3-0.8,0.6-1.2,1c-0.4,0.4-0.8,0.9-1.2,1.4c-0.7-1.1-1.6-1.9-2.8-2.4C341.4,190.3,342.4,189.1,343.2,187.7z"/>
		<path class="st3" d="M338.3,101.8c0.9,0.4,1.9,0.7,2.8,1.1c0.6,0.2,1.1,0.6,1.3,1.2c0.2,0.5,0.4,1,0.5,1.5
			c0.1,0.7,0.2,1.4,0.3,2.2c0.1,0.7,0.2,1.3,0.3,2c0.1,0.5,0.6,0.9,1.1,0.8c0.5,0,0.8-0.3,1-0.8c0.1-0.3,0.1-0.5,0.2-0.8
			c0.3-1.2,0.5-2.4,0.8-3.6c0.5-1.6,1.7-2.5,3.2-3c0.6-0.2,1.3-0.3,1.9-0.6c0.7-0.3,1.1-0.8,1.1-1.4c0-0.6-0.5-1.1-1.2-1.3
			c-0.6-0.2-1.2-0.4-1.8-0.6c-0.5-0.2-0.9-0.5-1.1-0.9c-0.8-1.4-1.4-2.8-1.7-4.4c-0.1-0.6-0.2-1.2-0.3-1.7c-0.2-0.6-0.7-1-1.3-1.1
			c-0.6,0-1.2,0.3-1.4,1c-0.1,0.3-0.2,0.6-0.3,1c-0.3,1-0.5,2-0.9,3c-0.5,1.4-1.4,2.4-2.7,3c-0.7,0.3-1.4,0.7-2.1,1
			c-0.5,0.2-0.9,0.6-0.9,1.2c0,0.1,0.1,0.3,0.2,0.5C337.5,101.4,337.9,101.6,338.3,101.8z M345.1,96.9c0.7,1.2,1.3,2.2,2,3.4
			c-0.4,0.3-0.8,0.6-1.2,1c-0.4,0.4-0.8,0.9-1.2,1.4c-0.7-1.1-1.6-1.9-2.8-2.4C343.3,99.5,344.3,98.4,345.1,96.9z"/>
		<path class="st3" d="M143.9,116.9c-0.7-0.2-1.5-0.4-2.2-0.6c-1.8-0.6-3.1-1.7-4.1-3.4c-1-1.8-1.8-3.6-2.2-5.6
			c-0.1-0.2-0.1-0.5-0.2-0.7c-0.3-0.6-0.7-0.8-1.2-0.9c-0.8,0-1.4,0.5-1.6,1.3c-0.2,1-0.4,2-0.6,3c-0.3,1.2-0.6,2.4-1.1,3.6
			c-0.7,1.7-2,2.9-3.8,3.4c-0.2,0.1-0.4,0.1-0.6,0.3c-0.8,0.5-0.9,1.6,0,2.2c0.3,0.2,0.6,0.3,0.9,0.4c1,0.3,2.1,0.6,3.2,0.8
			c1.2,0.3,2,1,2.3,2.2c0.4,1.6,0.6,3.2,0.7,4.8c0.1,1.1,0.1,2.2,0.2,3.2c0,0.2,0.1,0.4,0.1,0.6c0.2,0.5,0.6,0.7,1.1,0.6
			c0.5,0,0.8-0.3,0.9-0.8c0.1-0.5,0.1-1,0.1-1.5c0.3-2.6,0.7-5.1,1.6-7.5c0.5-1.4,1.5-2.2,3-2.3c1.1-0.1,2.1-0.2,3.2-0.2
			c0.9-0.1,1.6-0.5,1.6-1.2C145.3,117.7,144.9,117.1,143.9,116.9z M136,118.8c-0.5,0.5-0.9,1.1-1.4,1.8c-0.8-1.5-2.2-2.1-3.8-2.5
			c0.5-0.6,1-1,1.4-1.6c0.4-0.6,0.8-1.2,1.1-1.8c0.3-0.6,0.5-1.3,0.8-2c1,1.7,1.9,3.6,3.6,4.8C137.2,117.9,136.6,118.3,136,118.8z"
			/>
		<path class="st3" d="M137.8,214c-0.7-0.2-1.5-0.4-2.2-0.6c-1.8-0.6-3.1-1.7-4.1-3.4c-1-1.8-1.8-3.6-2.2-5.6
			c-0.1-0.2-0.1-0.5-0.2-0.7c-0.3-0.6-0.7-0.8-1.2-0.9c-0.8,0-1.4,0.5-1.6,1.3c-0.2,1-0.4,2-0.6,3c-0.3,1.2-0.6,2.4-1.1,3.6
			c-0.7,1.7-2,2.9-3.8,3.4c-0.2,0.1-0.4,0.1-0.6,0.3c-0.8,0.5-0.9,1.6,0,2.2c0.3,0.2,0.6,0.3,0.9,0.4c1,0.3,2.1,0.6,3.2,0.8
			c1.2,0.3,2,1,2.3,2.2c0.4,1.6,0.6,3.2,0.7,4.8c0.1,1.1,0.1,2.2,0.2,3.2c0,0.2,0.1,0.4,0.1,0.6c0.2,0.5,0.6,0.7,1.1,0.6
			c0.5,0,0.8-0.3,0.9-0.8c0.1-0.5,0.1-1,0.1-1.5c0.3-2.6,0.7-5.1,1.6-7.5c0.5-1.4,1.5-2.2,3-2.3c1.1-0.1,2.1-0.2,3.2-0.2
			c0.9-0.1,1.6-0.5,1.6-1.2C139.2,214.8,138.8,214.3,137.8,214z M129.9,215.9c-0.5,0.5-0.9,1.1-1.4,1.8c-0.8-1.5-2.2-2.1-3.8-2.5
			c0.5-0.6,1-1,1.4-1.6c0.4-0.6,0.8-1.2,1.1-1.8c0.3-0.6,0.5-1.3,0.8-2c1,1.7,1.9,3.6,3.6,4.8C131.1,215,130.5,215.4,129.9,215.9z"
			/>
		<path class="st3" d="M312.8,112.8c0.1-0.5,0.1-1,0.1-1.5c0.3-2.6,0.7-5.1,1.6-7.5c0.5-1.4,1.5-2.2,3-2.3c1.1-0.1,2.1-0.2,3.2-0.2
			c0.9-0.1,1.6-0.5,1.6-1.2c0.1-0.7-0.4-1.2-1.3-1.5c-0.7-0.2-1.5-0.4-2.2-0.6c-1.8-0.6-3.1-1.7-4.1-3.4c-1-1.8-1.8-3.6-2.2-5.6
			c-0.1-0.2-0.1-0.5-0.2-0.7c-0.3-0.6-0.7-0.8-1.2-0.9c-0.8,0-1.4,0.5-1.6,1.3c-0.2,1-0.4,2-0.6,3c-0.3,1.2-0.6,2.4-1.1,3.6
			c-0.7,1.7-2,2.9-3.8,3.4c-0.2,0.1-0.4,0.1-0.6,0.3c-0.8,0.5-0.9,1.6,0,2.2c0.3,0.2,0.6,0.3,0.9,0.4c1,0.3,2.1,0.6,3.2,0.8
			c1.2,0.3,2,1,2.3,2.2c0.4,1.6,0.6,3.2,0.7,4.8c0.1,1.1,0.1,2.2,0.2,3.2c0,0.2,0.1,0.4,0.1,0.6c0.2,0.5,0.6,0.7,1.1,0.6
			C312.4,113.6,312.7,113.3,312.8,112.8z M307.9,99.6c0.5-0.6,1-1,1.4-1.6c0.4-0.6,0.8-1.2,1.1-1.8c0.3-0.6,0.5-1.3,0.8-2
			c1,1.7,1.9,3.6,3.6,4.8c-0.6,0.5-1.3,0.9-1.8,1.4c-0.5,0.5-0.9,1.1-1.4,1.8C310.9,100.7,309.6,100,307.9,99.6z"/>
		<path class="st3" d="M109.7,153.3c-0.2-0.1-0.3-0.1-0.5-0.2c-1.1-0.3-2-0.8-2.6-1.7c-0.5-0.7-0.9-1.4-1.2-2.1
			c-0.4-1-0.6-2.1-0.8-3.2c-0.2-0.7-0.6-1.2-1.2-1.3c-0.6-0.1-1.2,0.3-1.4,1.1c-0.1,0.5-0.2,1.1-0.4,1.6c-0.2,1-0.4,1.9-0.7,2.9
			c-0.4,1.5-1.3,2.4-2.8,2.8c-0.3,0.1-0.5,0.1-0.8,0.2c-0.5,0.2-0.8,0.6-0.8,1.1c0,0.5,0.3,1,1,1.2c0.7,0.2,1.5,0.5,2.3,0.6
			c1.1,0.3,1.7,1,1.7,2.1c0,0.1,0,0.3,0,0.4c0.1,1.2,0.1,2.4,0.2,3.6c0,0.8,0.1,1.5,0.2,2.3c0.1,0.8,0.5,1.2,1.1,1.2
			c0.6,0,1-0.4,1.1-1.2c0-0.2,0-0.5,0.1-0.7c0.1-0.7,0.1-1.5,0.3-2.2c0.3-0.9,0.7-1.9,1.1-2.8c0.5-1.1,1.3-2.1,2.4-2.6
			c0.6-0.3,1.2-0.6,1.8-0.9c0.5-0.2,0.8-0.6,0.8-1.1C110.4,153.9,110.1,153.5,109.7,153.3z M104.7,155.4c-0.4,0.4-0.7,0.8-1.1,1.3
			c-0.4-1.1-1.2-1.8-2.3-2.3c1-0.8,1.6-1.8,2-2.8c0.8,1,1.6,1.9,2.5,2.9C105.4,154.7,105,155,104.7,155.4z"/>
		<path class="st3" d="M151.4,157.6c-0.2-0.1-0.3-0.1-0.5-0.2c-1.1-0.3-2-0.8-2.6-1.7c-0.5-0.7-0.9-1.4-1.2-2.1
			c-0.4-1-0.6-2.1-0.8-3.2c-0.2-0.7-0.6-1.2-1.2-1.3c-0.6-0.1-1.2,0.3-1.4,1.1c-0.1,0.5-0.2,1.1-0.4,1.6c-0.2,1-0.4,1.9-0.7,2.9
			c-0.4,1.5-1.3,2.4-2.8,2.8c-0.3,0.1-0.5,0.1-0.8,0.2c-0.5,0.2-0.8,0.6-0.8,1.1c0,0.5,0.3,1,1,1.2c0.7,0.2,1.5,0.5,2.3,0.6
			c1.1,0.3,1.7,1,1.7,2.1c0,0.1,0,0.3,0,0.4c0.1,1.2,0.1,2.4,0.2,3.6c0,0.8,0.1,1.5,0.2,2.3c0.1,0.8,0.5,1.2,1.1,1.2
			c0.6,0,1-0.4,1.1-1.2c0-0.2,0-0.5,0.1-0.7c0.1-0.7,0.1-1.5,0.3-2.2c0.3-0.9,0.7-1.9,1.1-2.8c0.5-1.1,1.3-2.1,2.4-2.6
			c0.6-0.3,1.2-0.6,1.8-0.9c0.5-0.2,0.8-0.6,0.8-1.1C152.2,158.2,151.9,157.8,151.4,157.6z M146.4,159.8c-0.4,0.4-0.7,0.8-1.1,1.3
			c-0.4-1.1-1.2-1.8-2.3-2.3c1-0.8,1.6-1.8,2-2.8c0.8,1,1.6,1.9,2.5,2.9C147.2,159.1,146.8,159.4,146.4,159.8z"/>
		<path class="st3" d="M108.9,95.7c0.1,0.5,0.6,0.9,1.1,0.8c0.5,0,0.8-0.3,1-0.8c0.1-0.3,0.1-0.5,0.2-0.8c0.3-1.2,0.5-2.4,0.8-3.6
			c0.5-1.6,1.7-2.5,3.2-3c0.6-0.2,1.3-0.3,1.9-0.6c0.7-0.3,1.1-0.8,1.1-1.4c0-0.6-0.5-1.1-1.2-1.3c-0.6-0.2-1.2-0.4-1.8-0.6
			c-0.5-0.2-0.9-0.5-1.1-0.9c-0.8-1.4-1.4-2.8-1.7-4.4c-0.1-0.6-0.2-1.2-0.3-1.7c-0.2-0.6-0.7-1-1.3-1.1c-0.6,0-1.2,0.3-1.4,1
			c-0.1,0.3-0.2,0.6-0.3,1c-0.3,1-0.5,2-0.9,3c-0.5,1.4-1.4,2.4-2.7,3c-0.7,0.3-1.4,0.7-2.1,1c-0.5,0.2-0.9,0.6-0.9,1.2
			c0,0.1,0.1,0.3,0.2,0.5c0.2,0.4,0.6,0.6,1,0.8c0.9,0.4,1.9,0.7,2.8,1.1c0.6,0.2,1.1,0.6,1.3,1.2c0.2,0.5,0.4,1,0.5,1.5
			c0.1,0.7,0.2,1.4,0.3,2.2C108.7,94.4,108.8,95,108.9,95.7z M107.2,86.3c1.4-0.8,2.5-1.9,3.2-3.4c0.7,1.2,1.3,2.2,2,3.4
			c-0.4,0.3-0.8,0.6-1.2,1c-0.4,0.4-0.8,0.9-1.2,1.4C109.4,87.6,108.5,86.8,107.2,86.3z"/>
		<path class="st3" d="M323.6,155.8c0.2,0.5,0.4,1,0.5,1.5c0.1,0.7,0.2,1.4,0.3,2.2c0.1,0.7,0.2,1.3,0.3,2c0.1,0.5,0.6,0.9,1.1,0.8
			c0.5,0,0.8-0.3,1-0.8c0.1-0.3,0.1-0.5,0.2-0.8c0.3-1.2,0.5-2.4,0.8-3.6c0.5-1.6,1.7-2.5,3.2-3c0.6-0.2,1.3-0.3,1.9-0.6
			c0.7-0.3,1.1-0.8,1.1-1.4c0-0.6-0.5-1.1-1.2-1.3c-0.6-0.2-1.2-0.4-1.8-0.6c-0.5-0.2-0.9-0.5-1.1-0.9c-0.8-1.4-1.4-2.8-1.7-4.4
			c-0.1-0.6-0.2-1.2-0.3-1.7c-0.2-0.6-0.7-1-1.3-1.1c-0.6,0-1.2,0.3-1.4,1c-0.1,0.3-0.2,0.6-0.3,1c-0.3,1-0.5,2-0.9,3
			c-0.5,1.4-1.4,2.4-2.7,3c-0.7,0.3-1.4,0.7-2.1,1c-0.5,0.2-0.9,0.6-0.9,1.2c0,0.1,0.1,0.3,0.2,0.5c0.2,0.4,0.6,0.6,1,0.8
			c0.9,0.4,1.9,0.7,2.8,1.1C322.9,154.8,323.3,155.2,323.6,155.8z M326.2,148.7c0.7,1.2,1.3,2.2,2,3.4c-0.4,0.3-0.8,0.6-1.2,1
			c-0.4,0.4-0.8,0.9-1.2,1.4c-0.7-1.1-1.6-1.9-2.8-2.4C324.4,151.2,325.4,150.1,326.2,148.7z"/>
		<path class="st3" d="M92.4,225.2c0.1,0.5,0.6,0.9,1.1,0.8c0.5,0,0.8-0.3,1-0.8c0.1-0.3,0.1-0.5,0.2-0.8c0.3-1.2,0.5-2.4,0.8-3.6
			c0.5-1.6,1.7-2.5,3.2-3c0.6-0.2,1.3-0.3,1.9-0.6c0.7-0.3,1.1-0.8,1.1-1.4c0-0.6-0.5-1.1-1.2-1.3c-0.6-0.2-1.2-0.4-1.8-0.6
			c-0.5-0.2-0.9-0.5-1.1-0.9c-0.8-1.4-1.4-2.8-1.7-4.4c-0.1-0.6-0.2-1.2-0.3-1.7c-0.2-0.6-0.7-1-1.3-1.1c-0.6,0-1.2,0.3-1.4,1
			c-0.1,0.3-0.2,0.6-0.3,1c-0.3,1-0.5,2-0.9,3c-0.5,1.4-1.4,2.4-2.7,3c-0.7,0.3-1.4,0.7-2.1,1c-0.5,0.2-0.9,0.6-0.9,1.2
			c0,0.1,0.1,0.3,0.2,0.5c0.2,0.4,0.6,0.6,1,0.8c0.9,0.4,1.9,0.7,2.8,1.1c0.6,0.2,1.1,0.6,1.3,1.2c0.2,0.5,0.4,1,0.5,1.5
			c0.1,0.7,0.2,1.4,0.3,2.2C92.2,223.9,92.3,224.6,92.4,225.2z M90.7,215.9c1.4-0.8,2.5-1.9,3.2-3.4c0.7,1.2,1.3,2.2,2,3.4
			c-0.4,0.3-0.8,0.6-1.2,1c-0.4,0.4-0.8,0.9-1.2,1.4C92.9,217.2,91.9,216.4,90.7,215.9z"/>
	</g>
</g>
</svg>
