<?xml version="1.0" encoding="utf-8"?>
<!-- Generator: Adobe Illustrator 22.0.1, SVG Export Plug-In . SVG Version: 6.00 Build 0)  -->
<svg version="1.1" id="Calque_1" xmlns="http://www.w3.org/2000/svg" xmlns:xlink="http://www.w3.org/1999/xlink" x="0px" y="0px"
	 viewBox="0 0 432 432" style="enable-background:new 0 0 432 432;" xml:space="preserve">
<style type="text/css">
	.st0{fill:#B78D5C;}
	.st1{fill:#EBCEC6;}
	.st2{fill:#D4B67E;}
	.st3{fill:#EF798A;}
	.st4{fill:#FBD8E3;}
	.st5{fill:#660A1E;}
	.st6{fill:#990033;}
	.st7{fill:#07512C;}
	.st8{fill:#8CC63F;}
	.st9{fill:#006837;}
	.st10{fill:#CCCCCC;}
	.st11{fill:#FFFFFF;}
	.st12{fill:#8A1A31;}
	.st13{fill:#A7A6AA;}
	.st14{fill:#D3A9B2;}
	.st15{fill:#2A2A2B;}
	.st16{fill:#DDC090;}
	.st17{fill:#AF434B;}
	.st18{fill:#62A581;}
	.st19{fill:#94C16C;}
	.st20{fill:#B9011B;}
	.st21{fill:#BABABA;}
	.st22{fill:#754C24;}
	.st23{fill:#A67C52;}
	.st24{fill:#8C6239;}
	.st25{fill:#C69C6D;}
	.st26{fill:#9E1E28;}
	.st27{fill:#D6C188;}
	.st28{fill:#BF364A;}
	.st29{fill:#A1272D;}
	.st30{fill:#BFA76B;}
	.st31{fill:#DCDEDD;}
	.st32{fill:#D89A5D;}
	.st33{fill:#F5EDDB;}
	.st34{fill:#603813;}
	.st35{fill:#4A7575;}
	.st36{fill:#7F3244;}
	.st37{fill:#9E7E5E;}
	.st38{fill:#C1272D;}
	.st39{fill:#561217;}
	.st40{fill:#C49F7A;}
	.st41{fill:#534741;}
	.st42{fill:#999999;}
	.st43{fill:#A80031;}
	.st44{fill:#1A1A1A;}
	.st45{fill:#333333;}
	.st46{fill:#B3B3B3;}
	.st47{fill:#B3A6AD;}
	.st48{fill:#B6B155;}
	.st49{fill:#679CBA;}
	.st50{fill:#0071BC;}
	.st51{fill:#F7931E;}
	.st52{fill:#821119;}
	.st53{fill:#39B54A;}
	.st54{fill:#1B1464;}
	.st55{fill:#FAF3E3;}
	.st56{fill:#DCD2BD;}
	.st57{fill:#F5EDDA;}
	.st58{fill:#815D3C;}
	.st59{fill:#F69331;}
	.st60{fill:#BCA791;}
	.st61{fill:#F9D51D;}
	.st62{fill:#704638;}
	.st63{fill:#A7DBD7;}
	.st64{fill:#DED7CD;}
	.st65{fill:#E89024;}
	.st66{fill:#EACAAC;}
	.st67{fill:#D8B195;}
	.st68{fill:#A50423;}
	.st69{fill:#CC7312;}
	.st70{fill:#9EC5FF;}
	.st71{fill:#6D86B4;}
	.st72{fill:#2E363A;}
	.st73{fill:#FFCC00;}
	.st74{fill:#B58847;}
	.st75{fill:#563315;}
	.st76{fill:#ED0A3A;}
	.st77{fill:#A62714;}
	.st78{fill:#247E5B;}
	.st79{fill:#176041;}
	.st80{fill:#61B756;}
	.st81{fill:#EDDBAE;}
	.st82{fill:#3F3F3F;}
	.st83{fill:#595959;}
	.st84{fill:#484849;}
	.st85{fill:#EFD1B4;}
	.st86{fill:#E0E0E2;}
	.st87{fill:#CCCCCE;}
	.st88{fill:#CEC76B;}
	.st89{fill:#42210B;}
	.st90{fill:#FCACBC;}
	.st91{fill:#D6B994;}
	.st92{fill:#F8C2C2;}
	.st93{fill:#E4D48E;}
	.st94{fill:#A57C53;}
	.st95{fill:#96704B;}
	.st96{fill:#9D6D47;}
	.st97{fill:#591427;}
	.st98{fill:#7CCC71;}
	.st99{fill:#C7B299;}
	.st100{fill:#998675;}
	.st101{fill:#7DC34D;}
	.st102{fill:#80694F;}
	.st103{fill:#FF1C2E;}
	.st104{fill:#A51B29;}
	.st105{fill:#00673B;}
	.st106{fill:#B88464;}
	.st107{fill:#CA986F;}
	.st108{fill:#3F2316;}
	.st109{fill:#F1F1F2;}
	.st110{fill:#00924A;}
	.st111{fill:#C7202F;}
	.st112{fill:#BBBDBF;}
	.st113{fill:#58595B;}
	.st114{fill:#D0D2D3;}
	.st115{fill:#6C6E70;}
	.st116{fill:#663818;}
	.st117{fill:#FF9134;}
	.st118{fill:#AC8D6B;}
	.st119{fill:#CE1F32;}
	.st120{fill:#00B252;}
	.st121{fill:#804D34;}
	.st122{fill:#61A6AF;}
	.st123{fill:#4C838D;}
	.st124{fill:#E6E6E6;}
	.st125{fill:#E6E7E7;}
	.st126{fill:#55396B;}
	.st127{fill:#6F4696;}
	.st128{fill:#9C2D8C;}
	.st129{fill:#915D3F;}
	.st130{fill:none;}
	.st131{fill:#00BCB9;}
	.st132{fill:#00BBB8;}
	.st133{fill:#6C328D;}
	.st134{fill:#5D4A42;}
	.st135{fill:#746559;}
	.st136{fill:#009245;}
	.st137{fill:#808184;}
	.st138{fill:#00A69C;}
	.st139{fill:#0078B8;}
	.st140{fill:#9F847A;}
	.st141{fill:#EECCB3;}
	.st142{fill:#241F20;}
	.st143{fill:#0D5408;}
	.st144{fill:#C9800A;}
	.st145{fill:#083A04;}
	.st146{fill:#BF001A;}
	.st147{fill:#AA0012;}
	.st148{fill:#9E620B;}
	.st149{fill:#A80E28;}
	.st150{fill:#0C3A1F;}
	.st151{fill:#C10A0A;}
	.st152{fill:#0A3D06;}
	.st153{fill:#A30738;}
	.st154{fill:#7F0A2E;}
	.st155{fill:#D8712B;}
	.st156{fill:#C15105;}
	.st157{fill:#F4A00B;}
	.st158{fill:#10440A;}
	.st159{fill:#A00E0E;}
	.st160{fill:#0F230D;}
	.st161{fill:#B20B33;}
	.st162{fill:#E5E5E5;}
	.st163{fill:#11722D;}
	.st164{fill:#0B281A;}
	.st165{fill:#E59D1F;}
	.st166{fill:#C60924;}
	.st167{fill:#960820;}
	.st168{fill:#AD1431;}
	.st169{fill:#E24756;}
	.st170{fill:#CE364C;}
	.st171{fill:#A50707;}
	.st172{fill:#4A9B29;}
	.st173{fill:#468E24;}
	.st174{fill:#AF0E22;}
	.st175{fill:#EDECE6;}
	.st176{fill:#54220E;}
	.st177{fill:#592C1C;}
	.st178{fill:#EFEAC7;}
	.st179{fill:#042111;}
	.st180{fill:#A80C0C;}
</style>
<g>
	<path class="st101" d="M151,110.4C150.9,110.4,150.9,110.4,151,110.4c-0.1,0.1-0.1,0.1-0.1,0.1C151,110.5,151,110.4,151,110.4z"/>
	<path class="st101" d="M216.4,126c-5.4-12.5-13.9-22.7-24.3-30.1l5.1-11.2c0.3-0.7,0.3-1.4,0.1-2.1c-0.3-0.7-0.8-1.2-1.4-1.6
		l-3.1-1.4c1.5-0.9,2.7-2.2,3.4-3.9c1.6-4.1-0.4-8.7-4.4-10.3s-8.7,0.4-10.3,4.4c-0.6,1.4-0.7,3-0.4,4.4l-2.7-1.2
		c-1.4-0.6-3,0-3.7,1.4L169.8,85c-15.7-4.6-33-3.9-49.1,3.1c-17.9,7.7-31.6,21.9-38.8,40c-7.2,18.1-6.9,37.9,0.9,55.7
		c7.7,17.9,21.9,31.6,40,38.8c18.1,7.2,37.9,6.9,55.7-0.9C215.3,205.8,232.3,162.9,216.4,126z M214.5,137.4
		c-9,9.6-21.3,16.2-34.3,18.8c6.5-8,15.4-14.3,25.1-17.9c3.6-1.3,6.4-1.9,8.9-1.8C214.4,136.8,214.5,137.1,214.5,137.4z
		 M214.4,141.5c-1.1,5-3.2,9.8-6,14.1c0,0,0,0.1-0.1,0.1c-3.1-1.7-6.7-2.6-10.3-2.7C204,150,209.6,146.1,214.4,141.5z M118.7,182.4
		c-0.1-0.2-0.1-0.3-0.2-0.5c0-0.3-0.1-0.5-0.3-0.8c0,0,0,0-0.1-0.1c0,0,0,0,0,0c8.2-2.8,15.9-7.1,22.4-12.7c0.4-0.3,0.8-0.5,1.2-0.8
		c-4.9,13.8-11.2,27.2-18.7,39.8C123.5,198.2,122,191.7,118.7,182.4z M121.2,168.3c0.8,0.8,1.7,1.4,2.7,1.9
		c-7.9-0.4-15.8,0.4-23.5,2.4c6.6-3.2,12.6-7.6,17.6-12.8C117.7,162.8,118.9,166.1,121.2,168.3z M179.6,127.8
		c0.2,0.5,0.4,1.1,0.8,1.8c-8.4,2.9-16.2,7.4-22.8,13.3c4.7-13.3,10.6-26.2,17.7-38.5C175,112.7,176.5,119,179.6,127.8z
		 M178.1,142.2c-0.7-0.7-1.5-1.2-2.3-1.7c7.7,0.3,15.5-0.5,23-2.4c-6.5,3.1-12.5,7.5-17.5,12.7C181.6,147.8,180.5,144.5,178.1,142.2
		z M160.7,152.8l17.5-5.2c0.5,1.8,0.5,3.7-0.4,5.1c-1,1.8-2.8,2.9-4.2,3.5c-1.6,0.8-3.9,1.1-6.2,1.2c-1.3,0-2.6-0.1-3.9-0.1
		c-0.9-0.1-1.8-0.3-2.6-0.5C161.1,155.5,161.1,154.1,160.7,152.8z M146.4,147.7c2.1-0.9,4.4-0.9,6.5-0.1c2.1,0.8,3.8,2.5,4.7,4.5
		c1.9,4.3-0.1,9.3-4.4,11.2c-2.1,0.9-4.4,0.9-6.5,0.1c-2.1-0.8-3.8-2.5-4.7-4.5C140.1,154.6,142.1,149.6,146.4,147.7z M140.3,146.4
		c-2.3-2.9-3.6-5.8-4.1-8.6c-0.6-3.5,0.4-7,2.4-9.1c0.4-0.4,0.9-0.8,1.4-1.1l4.9,17.8c-1.3,0.6-2.4,1.4-3.3,2.4
		C141.2,147.3,140.7,146.9,140.3,146.4z M158,163.3c0.7,0.7,1.3,1.4,2,2.1c1.7,2.5,2.8,4.9,3.2,7.3c0.6,3.5-0.4,7-2.4,9.1
		c-0.5,0.5-1,0.9-1.6,1.3l-4.7-17.3C155.8,165.2,157,164.3,158,163.3z M160.5,161.9C160.6,161.9,160.6,161.9,160.5,161.9
		L160.5,161.9C160.6,161.9,160.6,161.9,160.5,161.9z M176.2,144.2c0.3,0.2,0.5,0.5,0.7,0.8l-17.2,5.1c-0.6-1.2-1.5-2.3-2.5-3.1
		c0.2-0.2,0.5-0.5,0.7-0.7l0,0c3.1-2.5,6.1-4.1,9.1-4.6C170.5,141.2,174,142.2,176.2,144.2z M154.1,144.3c-0.1,0.3-0.1,0.5,0,0.8
		c0,0-0.1,0-0.1-0.1c0.1-0.7,0.2-1.5,0.2-2.2c0.4-2.1,0.5-4.7,0.3-7.1c-0.2-8.3-0.4-17.4-3.6-25.2c-0.1,0-0.1,0,0-0.1
		c0,0,0.1,0,0.1,0c0,0,0,0,0,0c7.5-1.9,16.5-4.4,22.8-9C165.8,115,159.2,129.4,154.1,144.3z M150.9,110.4
		C150.9,110.4,151,110.4,150.9,110.4C151,110.4,151,110.4,150.9,110.4z M150.6,131.2c0.6,1.3,1,2.9,1.1,4.6c0,2.2,0,4.4-0.2,6.6
		c-0.1,0.7-0.3,1.3-0.4,1.8c-1.2-0.1-2.3-0.1-3.5,0.2l-4.9-17.9c1.6-0.3,3.2-0.2,4.5,0.5C148.8,128,150,129.9,150.6,131.2z
		 M136.6,126.8c-0.7,0.8-1.4,1.7-1.9,2.7c0.4-7.8-0.5-15.7-2.4-23.3c3.1,6.5,7.5,12.4,12.7,17.4C142,123.4,138.8,124.5,136.6,126.8z
		 M136.4,146.3c-12.8-4.6-25.3-10.4-37.1-17.2c7.8,0.1,14-1.5,22.5-4.4c0.3-0.1,0.7-0.2,1.1-0.4c0.3,0,0.5-0.1,0.8-0.3c0,0,0,0,0,0
		C126.5,132.1,130.8,139.8,136.4,146.3z M128.4,146.2c3.7,1.5,7.4,2.8,11.2,4.1c0.1,0,0.1,0,0.2,0c-0.1,0.1-0.1,0.3-0.2,0.4
		c-11.5-1.5-23.3,0.2-34.1,4.6c-0.2-0.3-0.4-0.6-0.8-0.7c-0.3-1.2-0.6-2.5-0.9-3.6c-2-7.9-3.8-14.9-9-21.5
		C105.5,136,116.8,141.6,128.4,146.2z M121.4,157.9c1-1.8,2.8-2.9,4.2-3.5c3.5-1.6,9.5-1.5,13-0.5c-0.2,1.1-0.2,2.3,0,3.5l-17.7,5.3
		C120.6,161,120.7,159.3,121.4,157.9z M123.1,166.3c-0.4-0.3-0.7-0.7-1-1.1l17.3-5.2c0.6,1.3,1.3,2.4,2.3,3.4
		c-0.9,0.9-1.8,1.8-2.8,2.6c-2.2,1.5-4.5,2.4-6.7,2.7C128.8,169.3,125.3,168.4,123.1,166.3z M144.8,167.1c-1.1,10.9,0.7,22,4.9,32.2
		c0,0,0,0,0,0c-1.5,0.4-3.1,0.8-4.5,1.2c-7,1.8-13.2,3.3-19.2,7.3C133.6,194.9,139.9,181.2,144.8,167.1z M148.1,166.7
		c1.2,0.2,2.4,0.2,3.6,0l4.8,17.4c-1.5,0.3-3,0.1-4.2-0.6c-1.8-1-2.9-2.8-3.5-4.2C147.2,176,147.2,170.2,148.1,166.7z M162.7,183.7
		c0.7-0.7,1.3-1.5,1.7-2.4c-0.4,7.8,0.5,15.7,2.4,23.2c-3.2-6.6-7.6-12.6-12.9-17.7C157.1,187.3,160.4,186.2,162.7,183.7z
		 M162.1,163.7c-0.4-0.5-0.8-1.1-1.2-1.6c14.4,5,28.2,11.4,41.3,19.2c-9.5-0.6-16.1,0.9-25.7,4.3c-0.4,0.1-0.8,0.3-1.4,0.5
		C172.3,177.8,167.9,170.1,162.1,163.7z M163.6,160.1c1.2,0.1,2.5,0.2,3.7,0.1c8.9,0.1,17.9-1.8,26.2-5.2c0.4,1.4,0.7,2.8,1.1,4.1
		c1.7,6.7,3.2,12.7,6.8,18.4C189.3,170.6,176.7,164.7,163.6,160.1z M212.2,130.3c-13,6.3-27.8,8.7-42.2,7c12.5-7.2,27.5-10.2,41.7-8
		C211.9,129.6,212,130,212.2,130.3z M184.5,128.3c3.2-2.6,6.8-5.9,9.3-10.1c0.1-0.1,0.1-0.2,0.2-0.3c5.6,2.5,11,5.3,16.3,8.4
		C201.7,125.2,192.9,126,184.5,128.3z M197.1,107.3c4.3,4.3,8,9.1,11.1,14.6c-4.2-2.3-8.6-4.5-13-6.5
		C196.4,112.8,197.1,110,197.1,107.3z M194.2,104.6c0.6,3.9-0.4,8.2-2.8,12.2c-2.5,4.2-6.2,7.4-9.3,9.9c-3.7-10.8-5.1-17.8-3.5-29.9
		l0.3-2.4C184.4,97.1,189.6,100.5,194.2,104.6z M185.6,91l3.3-7.1l2.2,1l-3.3,7.1L185.6,91z M184.1,70.8c1-2.6,4.1-3.9,6.7-2.9
		c2.6,1,3.9,4.1,2.9,6.7c-0.8,2-2.6,3.2-4.6,3.2l-4.3-2C183.7,74.5,183.4,72.6,184.1,70.8z M182.9,81.1l3.5,1.6l-3.3,7.1l-3.5-1.6
		L182.9,81.1z M178.6,79.1l1.8,0.8l-3.3,7.1l-1.8-0.8L178.6,79.1z M174.3,92.4c1.2,0.5,2.4,1,3.6,1.6l-1.7,1.7
		c-7.2,7.2-14.8,9.1-23.7,11.4c-0.8,0.2-1.7,0.4-2.5,0.6c-0.1-4,1.1-8,3.2-11.3c2.4-3.5,5.9-6.2,9.5-7.4
		C166.7,89.8,170.6,90.9,174.3,92.4z M158,88.2c-2.4,1.5-4.7,3.5-6.4,5.8c-3.8-2.5-8-4.4-12.3-5.6C145.5,87.4,151.8,87.4,158,88.2z
		 M150.1,96.3c-1.7,3.1-2.7,6.7-2.8,10.4c-3-6-6.8-11.5-11.4-16.3C140.9,91.5,145.8,93.5,150.1,96.3z M130.8,90.3
		c0.3-0.1,0.5-0.2,0.8-0.2c9.8,9.1,16.4,21.6,18.9,34.8c-8.1-6.5-14.5-15.4-18-25.2C131.2,95.9,130.7,93,130.8,90.3z M123.6,92.8
		c0.3-0.1,0.6-0.2,0.8-0.3c6.3,13,8.8,27.8,7.2,42.1C124.4,122.1,121.4,107.1,123.6,92.8z M122.6,120.3c-2.5-3.2-5.9-6.7-10.1-9.3
		c2.4-5.3,5-10.4,7.9-15.5C119.6,103.8,120.4,112.3,122.6,120.3z M117,96c-2.5,4.5-4.8,9.1-6.9,13.7c-2.8-1.3-5.7-2-8.5-2.1
		C106.1,103.1,111.3,99.1,117,96z M98.9,110.6c3.9-0.6,8.2,0.4,12.2,2.8c3.9,2.4,7.1,5.8,9.5,8.8c-10.7,3.7-17.7,5.1-29.7,3.4
		l-1.8-0.2C91.7,120,95,115,98.9,110.6z M87,130.1c0.5-1.2,0.9-2.3,1.5-3.4l1.3,1.2c7.2,7.2,9.1,14.8,11.4,23.7c0.3,1,0.5,2,0.8,3.1
		c-4,0.1-8-1.1-11.2-3.2c-3.3-2.3-6-5.6-7.3-9.1C84.2,138.3,85.4,134.1,87,130.1z M100.8,157.5c-5.7,2.8-10.9,6.4-15.5,10.7
		c1.1-4.7,3.1-9.3,5.7-13.3c0.7,0.4,1.4,0.7,2.2,1C95.6,156.9,98.2,157.4,100.8,157.5z M82.7,147.1c1.5,2.4,3.6,4.6,5.9,6.3
		c-2.4,3.8-4.3,7.9-5.5,12.2C82.1,159.5,81.9,153.3,82.7,147.1z M84.7,172.8c9.2-9.6,21.6-16.2,34.7-18.7
		c-6.5,8.3-15.6,14.7-25.5,18.3c-3.5,1.3-6.3,1.8-8.8,1.8C84.9,173.7,84.8,173.2,84.7,172.8z M87.2,180.3c12.7-6.1,27.2-8.5,41.2-7
		c-10.1,5.7-24.8,10.2-40.9,7.8C87.5,180.9,87.4,180.6,87.2,180.3z M114.8,182c-3.2,2.5-6.8,5.9-9.4,10.1c-5.2-2.4-10.4-5-15.3-7.8
		C98.3,185.1,106.8,184.3,114.8,182z M102,202.5c-4.3-4.3-8-9.2-11-14.6c4.3,2.4,8.7,4.6,13.1,6.6
		C102.8,197.2,102.1,199.9,102,202.5z M119.7,213.4l-0.2,1.7c-5.4-2.7-10.3-6-14.7-9.9c-0.4-3.7,0.6-7.7,2.9-11.5
		c2.4-3.9,5.8-7.1,8.8-9.5C120,194.6,121.3,201.5,119.7,213.4z M124.8,217.5c-1.3-0.5-2.6-1.1-3.9-1.7l1.2-1.2
		c7.2-7.2,14.8-9.1,23.7-11.4c1.1-0.3,2.1-0.5,3.3-0.8c0.2,4.2-1,8.4-3.2,11.8c-2.1,3.1-5.2,5.6-8.4,7
		C133.1,220.3,128.9,219.1,124.8,217.5z M141.9,221.8c2.3-1.5,4.3-3.5,5.9-5.8c2.6,1.7,5.3,3.1,8.2,4.3c1.1,0.5,2.3,0.8,3.5,1.2
		C153.7,222.4,147.8,222.5,141.9,221.8z M149.3,213.7c1.5-3,2.4-6.3,2.5-9.7c2.8,5.7,6.5,10.9,10.8,15.5
		C157.9,218.3,153.3,216.3,149.3,213.7z M166.9,219.9c-9.5-9.1-15.9-21.3-18.5-34.2c8.2,6.5,14.6,15.5,18.2,25.4
		c1.2,3.3,1.8,6,1.8,8.4C167.9,219.7,167.4,219.8,166.9,219.9z M175.5,217c-0.4,0.1-0.7,0.3-1.1,0.4c-6-12.7-8.4-27.3-6.8-41.3
		C169.9,180.2,178.5,196.2,175.5,217z M178.5,215.7c1-8.6,0.2-17.3-2.1-25.7c2.6,3.2,5.9,6.9,10.3,9.5c0.1,0,0.1,0.1,0.2,0.1
		C184.3,205.1,181.5,210.5,178.5,215.7C178.5,215.6,178.5,215.7,178.5,215.7z M183.1,213.3c2.2-4,4.3-8.2,6.2-12.4
		c0.3,0.1,0.7,0.3,1,0.4c2.2,0.9,4.4,1.4,6.6,1.5C192.8,206.8,188.2,210.3,183.1,213.3z M199.5,200c-3.7,0.4-7.7-0.6-11.5-2.9
		c-4.1-2.5-7.4-6.2-9.9-9.3c10.5-3.6,17.4-4.9,29.3-3.3l2.3,0.3C207.1,190.3,203.6,195.4,199.5,200z M210.3,183.8l-1.6-1.6
		c-7.2-7.2-9.1-14.8-11.4-23.7c-0.2-0.9-0.5-1.8-0.7-2.7c4.2-0.2,8.5,0.9,11.9,3.2c3.3,2.2,5.8,5.4,7.2,8.8
		C214.5,173.4,212.7,178.7,210.3,183.8z M210.6,157.2C210.6,157.1,210.7,157.1,210.6,157.2c2.4-3.7,4.3-7.6,5.6-11.8
		c0.9,6,0.9,12,0.1,17.8C214.8,160.9,212.9,158.8,210.6,157.2z"/>
</g>
<path class="st102" d="M320.3,262.6c-18.9-27.5-54.9-36.5-84.1-22.5l-4.9-7.2l-4.3,2.9c0.3-1.7,0-3.6-1.1-5.1
	c-2.2-3.1-6.5-3.9-9.6-1.8s-3.9,6.5-1.8,9.6c1.1,1.6,2.7,2.5,4.4,2.9l-4.2,2.9l4.9,7.1c-23.9,22.2-28.6,59.1-9.6,86.8
	c20.8,30.4,62.5,38.2,92.9,17.3C333.4,334.7,341.1,293,320.3,262.6z M311.6,260.3c1.5,1.7,2.8,3.5,4.1,5.4c3.6,5.2,6.2,10.8,8,16.6
	c-5.1-3-10.3-5.8-15.6-8.3c0.4-1.6,0.9-3.3,1.3-4.8C310.3,266.2,311.1,263.3,311.6,260.3z M257.1,314.2
	c-1.1,19.9-12.7,27.6-14.4,29.8c-6.2-2.9-12.3-5-18.3-6.2c6-1.2,11.9-3.6,17-6.9c0.3-0.2,0.6-0.4,0.9-0.6
	C248.4,326.2,253.5,320.6,257.1,314.2z M226.7,325c7.3-5.5,13.1-11.1,20.3-18.3l9.5,1.6C247.7,317.6,237.7,323.2,226.7,325z
	 M249.6,304.4l7.3-6.7c0.3-0.3,0.5-0.8,0.4-1.2l-1.4-9.8l8.6,4.8c0.4,0.2,0.9,0.2,1.3,0l8.9-4.4l-1.9,9.7c-0.1,0.4,0,0.9,0.4,1.2
	l6.9,7.1l-9.8,1.2c-0.2,0-0.4,0.1-0.6,0.2c-0.2,0.1-0.3,0.3-0.4,0.5l-4.5,8.6c-0.4-1.2-1.6-3.2-4.2-8.8c-0.2-0.4-0.6-0.7-1-0.8
	L249.6,304.4z M252.8,294.5c-8.2-6.8-14-16.6-15.9-27c4.4,5.6,9.7,11.1,16,17.1l1.5,10.7c-0.1-0.1-0.2-0.1-0.2-0.1
	C253.7,295,253.2,294.8,252.8,294.5z M262.8,286c-6.1-7.4-9.5-17.1-9.4-26.7c0.1-3.7,0.6-6.4,1.8-8.7c0,0,0,0,0,0
	c4.5-1.6,8.8-3.7,12.7-6.4c0.5-0.3,1-0.7,1.5-1.1c-3.7,5.4-6.4,11.5-7.8,17.9C259.8,269.3,260.2,278,262.8,286z M276.7,297.9
	c0.2,0,0.3,0,0.5,0c8.3-1.7,16.9,1.4,23.6,4.3c2.2,1,4.1,2.1,6.1,3.3c-7.7-1.1-15.6-1.3-23.4-0.7L276.7,297.9z M277.6,294.4
	c3.3-3.4,7.7-8,12.5-11.2c9.2-6,15.4-5.8,16.2-6.2c3.9,7.7,8.5,15,13.8,21.7c-4.8-3-10.1-5.1-15.6-6.3
	C295.6,290.6,286.1,291.3,277.6,294.4z M300.8,250.4c3,2.2,5.9,4.6,8.5,7.3c-0.5,3.6-1.5,7-2.5,10.6c-0.2,0.7-0.4,1.4-0.6,2.1
	c-0.8-1.9-1.6-3.7-2.4-5.6C302.1,260.4,300.5,255.3,300.8,250.4z M301.3,265.9c1.2,2.9,2.4,5.8,3.8,8.7c-5.5,0.7-11,2.9-16.5,6.4
	c-4.6,3-8.6,6.7-11.9,9.9l1.1-5.3c3.3-13.4,10.4-25.8,20.3-35.4C297.7,255.6,299.4,261.1,301.3,265.9z M296.7,247.7
	c-10.3,9.8-17.7,22.4-21.3,36.1l-6.8,3.3c2.3-16,9.3-31.3,19.8-43.6C291.3,244.7,294,246.1,296.7,247.7z M285.7,242.5
	c-10.5,12.5-17.4,28-19.8,44.2c-2.8-8-3.4-16.8-1.7-25.1c1.7-8.1,5.7-15.7,11.2-21.8C278.9,240.5,282.4,241.4,285.7,242.5z
	 M270,239.2c-5,4.2-10.9,7.4-17.2,9.4l5.2-9.1C262,238.9,266,238.9,270,239.2z M254.6,239.9l-4.3,7.5l-6.7-4.6
	C247.2,241.5,250.9,240.5,254.6,239.9z M230.4,249.7c3.2-2.2,6.6-4.1,10.1-5.6l8.2,5.5c-1.9,0.4-3.7,0.7-5.6,0.9
	c-4.8,0.5-9,0.2-12.7-0.8C230.3,249.8,230.4,249.8,230.4,249.7z M243.3,253.3c2.8-0.3,5.7-0.9,8.4-1.6c-0.7,2.2-1.1,4.6-1.1,7.6
	c-0.1,9.1,2.8,18.3,8,25.8l-3.5-2c-0.1-0.1-0.2-0.3-0.3-0.4c-11.4-10.7-19-19.9-24.9-30.2C233.9,253.6,238.4,253.8,243.3,253.3z
	 M226.8,252.4c13.9,25,5.5,21.5,16.6,36.2c-3.8-3.1-7.1-6.7-9.7-10.7c-4.8-7.3-7.4-16.2-7.5-24.9
	C226.3,252.8,226.6,252.6,226.8,252.4z M225.6,266.9c1.3,4.4,3.3,8.6,5.8,12.5c4.9,7.5,11.9,13.6,20,17.5c0.2,0.2,0.5,0.4,0.7,0.6
	c0,0,0,0,0.1,0c-10.7,1.5-20.5-1-26.7-6.7c-0.1-0.1-0.3-0.2-0.4-0.3C225.6,282.9,225.7,275.2,225.6,266.9z M249.9,300.4
	c-12.5,11.5-18.8,19.4-35.2,29.4c5-9.7,8-20.2,9.7-34.3c0.1-0.6,0.1-1.3,0.2-1.9C230.9,298.9,239.9,301.3,249.9,300.4z M216.8,237
	c-1.3-1.9-0.8-4.5,1.1-5.8c1.9-1.3,4.5-0.8,5.8,1.1c1.3,1.9,0.8,4.5-1.1,5.8S218.1,238.9,216.8,237z M222.5,256.2
	c0.6,12.2,0.7,22.8-0.2,33.2c-4.1-6.2-7.6-12.8-10.4-19.6C214.7,264.9,218.2,260.3,222.5,256.2z M204.6,310.3
	c-2.1-12.7-0.1-25.9,5.7-37.4c2.8,6.3,6.1,12.4,9.9,18.2c0.1,0.1,0.2,0.3,0.2,0.4c-0.1,0.1-0.2,0.3-0.3,0.4
	c-4.8,5.3-9.5,10.9-13.9,16.5c-0.5,0.7-0.9,1.1-1.2,1.5C204.8,310.1,204.7,310.2,204.6,310.3z M205.3,314.2c0.5-1.2,0.9-1.6,1.6-2.5
	c0.4-0.4,0.8-0.9,1.3-1.6c4.3-5.5,8.9-11,13.6-16.2c0,0.4-0.1,0.9-0.2,1.3c-1.8,14.4-4.9,25.1-10.3,34.9
	C208.6,325,206.6,319.7,205.3,314.2z M214.5,335.1c-0.3-0.5-0.6-0.9-0.9-1.4c18.6-10.9,17.8-3.1,34.6-14.6c1.8-1.2,3.5-2.6,5.3-4
	c-3.5,5.4-8.1,10.1-13.5,13.6c-7.3,4.7-16,7.4-24.7,7.5C215,335.8,214.7,335.4,214.5,335.1z M217.9,339.6c6.5,0.7,13.2,2.5,20,5.3
	c-1.5,0.6-2.8,1.2-4.2,1.8c-1.9,0.8-3.7,1.6-5.9,2.5C224.3,346.4,220.9,343.2,217.9,339.6z M230.5,351c1.5-0.6,2.9-1.2,4.3-1.8
	c1.9-0.8,3.7-1.6,5.8-2.4c1.6,2.4,3.2,5.1,4.9,7.7c1,1.7,2.1,3.3,3.1,4.9C242.2,357.7,236.1,354.8,230.5,351z M252.4,360.4
	c-1.5-2.3-3.1-4.8-4.6-7.3c-1-1.7-2.1-3.4-3.1-5c6.8,3.5,13.8,8,21.1,13.7C261.3,361.8,256.8,361.3,252.4,360.4z M244.9,345.1
	C244.9,345.1,244.9,345.1,244.9,345.1c9.4-8.2,14.9-20.3,15-32.7l2.6,5.6c5,13.9,7.5,28.8,7.4,43.5
	C261.2,354.6,253,349.2,244.9,345.1z M272.6,361.3c0.1-14.2-2.2-28.6-6.8-42.1l3.5-6.6c9.6,13.4,14.8,29.7,14.8,46.2
	C280.3,360,276.5,360.8,272.6,361.3z M299,351.6c-3.9,2.6-8,4.7-12.2,6.3c-0.2-16.6-5.5-33.1-15.2-46.7c8.1,3.6,15.1,9.6,20,17
	C296.1,335.1,298.7,343.3,299,351.6C299,351.5,299,351.6,299,351.6z M293.9,326.7c-4.2-6.5-10.1-12-16.9-15.9
	c11.6,2.4,21.9,9.8,31.2,17.5c0.2,0.2,0.5,0.3,0.7,0.4c-3.3,4.9-6,10.2-7.9,15.8C299.8,338.2,297.4,332,293.9,326.7z M302.4,349.2
	c3.5-13,11.4-24.9,22.1-33.2C321.1,328.8,313.6,340.6,302.4,349.2z M310.9,325.9c-0.1-0.1-18.8-14.7-33-17.7l4.4-0.5c0,0,0,0,0,0
	c14.2-1.4,28.8,0.3,42.3,4.8C319.4,316.2,314.8,320.8,310.9,325.9z M325.8,310c-14.1-4.7-7.6-0.7-16.6-6.2c-2.4-1.4-4.6-2.8-7.3-4
	c-4.6-2-10.1-4.1-15.8-4.8c5.9-1.1,12.1-1,18,0.2c8.2,1.7,16.1,5.8,22.2,11.6C326.1,307.8,325.9,308.9,325.8,310z M309.8,277.7
	c5.2,2.5,10.2,5.3,15.1,8.3c1.3,5.3,1.8,10.7,1.6,16.1C320,294.7,314.4,286.5,309.8,277.7z"/>
<path class="st103" d="M351.3,133.5c-9.5-22.1-33.2-33.8-55.8-29l-3.7-8.5c-0.5-1.2-1.9-1.7-3.1-1.2l-1.9,0.8
	c0.5-1.5,0.5-3.2-0.2-4.7c-1.4-3.3-5.3-4.9-8.6-3.4c-3.3,1.4-4.9,5.3-3.4,8.6c0.7,1.6,1.9,2.7,3.3,3.4l-2.2,0.9
	c-1.2,0.5-1.7,1.9-1.2,3.1l3.6,8.4c-19.5,13-27.6,38.5-18,60.8c10.8,25.1,40,36.8,65.1,26.1C350.4,187.9,362.1,158.7,351.3,133.5z
	 M350.5,150c-2.3-1.1-4.6-2.2-6.9-3.2c1.9-1.9,3.6-3.9,5.3-6.1C349.8,143.8,350.3,146.9,350.5,150z M349.4,152
	c-3.2,1.9-6,4.4-8.4,7.2c-3.3-1.7-6.8-2.7-10.6-3.1c4.3-2.1,8.1-4.6,11.4-7.6c0,0,0.1,0,0.1,0C344.4,149.6,346.9,150.8,349.4,152z
	 M348,137.9c-5.3,7.7-12.3,13.4-21.3,17.2c-0.2,0.1-0.4,0.2-0.6,0.2c-0.1,0-0.1,0.1-0.2,0.1c2.6-4.8,5.1-9,9.4-14.3
	c0-0.1,0.1-0.1,0.1-0.2C339.7,140.6,343.9,139.5,348,137.9C348,137.9,348,137.9,348,137.9z M317.8,179.4c-4.5-3.5-7.4-5-11.2-7.1
	c-0.4-0.2-0.8-0.4-1.2-0.6c2.7,0.1,5.5-0.4,8.1-1.5c2.1-0.9,4-2.2,5.6-3.7C318.1,170.9,317.6,175.2,317.8,179.4z M312.7,168
	c-4.1,1.7-8.5,1.7-12.3,0.3c1.5-3.6,2.7-6.5,3.3-7.8l6.1,2.4c0.3,0.1,0.6,0.1,0.9,0s0.5-0.4,0.6-0.6l2.1-5.3
	c1.3,0.6,4.1,1.8,7.5,3.4C319.2,163.7,316.3,166.5,312.7,168z M284.6,151.7c-0.1,0.3-0.3,0.5-0.4,0.8c-2.2,4.2-3.7,6.9-7.7,12
	c0,0.1-0.1,0.1-0.1,0.2c-3.7,0.4-7.4,1.3-11.1,2.7C270.4,160.6,277.1,155.2,284.6,151.7z M262.7,154c3.1-1.9,6-4.3,8.3-7.1
	c3.5,1.8,7.3,2.9,11.2,3.4C267,157.9,275.6,160.1,262.7,154z M286.3,153.5c0.2-0.4,0.5-0.9,0.7-1.4c-0.1,2.7,0.4,5.5,1.5,8.1
	c0.9,2,2,3.8,3.4,5.3c-4.2-1-8.3-1.4-12.5-1.2C282.9,160,284.3,157.2,286.3,153.5z M290.7,159.3c-1.6-3.8-1.7-7.9-0.6-11.6
	c3.5,1.4,6.3,2.6,7.6,3.1l-2.1,5.3c-0.2,0.6,0.1,1.3,0.7,1.5l5.2,2.1c-0.1,0.2-0.2,0.4-0.3,0.6c-0.4,1-1,2.4-1.8,4.1
	c-0.4,0.9-0.8,1.9-1.3,3C295,165.7,292.3,162.9,290.7,159.3z M299.5,137.4c3.9-1.7,8.1-1.7,11.9-0.5c-1.5,3.4-2.7,6.1-3.2,7.3
	l-5.6-2.3c-0.6-0.2-1.3,0.1-1.5,0.7l-2.4,6c-1.3-0.5-4.1-1.7-7.6-3.1C292.7,142,295.6,139,299.5,137.4z M293.5,138.4
	c0.9-3.9,1.3-7.9,1.2-11.8c4.1,3.1,6.8,4.6,10.4,6.5c0.3,0.2,0.6,0.3,0.9,0.5c-2.5,0-5.1,0.5-7.5,1.5
	C296.7,136,295,137.1,293.5,138.4z M311.3,154.8l-7.3,3.1l-3.1-7.3l7.3-3.1L311.3,154.8z M310.9,147.8l3.2,1.3l-1.3,3.2L310.9,147.8
	z M310.7,157.6l-1.1,2.8l-2.8-1.1L310.7,157.6z M301.1,157l-2.8-1.1l1.1-2.8L301.1,157z M301.5,147.8l1.3-3.2l3.2,1.3L301.5,147.8z
	 M314.3,154.9l2.4-6c0.2-0.6-0.1-1.3-0.7-1.5l-5.7-2.3c0.6-1.3,1.8-4,3.2-7.3c3.4,1.7,6.3,4.6,7.9,8.3c1.7,4,1.7,8.3,0.4,12.1
	C318.4,156.7,315.6,155.4,314.3,154.9z M320.1,139.8c4.1,1,8.2,1.5,12.2,1.3c-3.1,4-5.2,7.4-7.2,11c-0.1-2.3-0.6-4.7-1.5-7
	C322.7,143.2,321.5,141.4,320.1,139.8z M318.7,137c0.2-0.1,0.4-0.2,0.7-0.2c8.7-2.7,18.2-2.9,27.1-0.8
	C337.5,139.4,328.2,139.8,318.7,137z M341.1,125.4c1.9,2.5,3.6,5.2,5,8.1c-2.8-0.6-5.6-1-8.4-1.2c0,0,0,0,0,0
	C338.9,130,340,127.7,341.1,125.4z M329.1,114.7c3.2,1.9,6.1,4.2,8.7,6.9c-3.3,0.4-6.7,0.2-9.9-0.5
	C328.5,119.1,328.9,116.9,329.1,114.7z M327.3,123.4c3.9,0.8,8,0.9,12,0.4c-6.3,13.8-0.7,5.4-18.9,10.3c2.9-3.1,5.2-6.7,6.7-10.7
	C327.1,123.4,327.2,123.4,327.3,123.4z M326.8,113.4c-0.4,8.7-4.9,17.2-11.9,22.4c-0.1-0.1-0.2-0.1-0.4-0.2c3.6-8.2,8.2-19,10-23.3
	C325.3,112.7,326,113,326.8,113.4z M320.9,110.8c0.5,0.2,1,0.4,1.5,0.6c-1.7,4.1-6.4,15.1-10,23.4c-0.3-0.1-0.7-0.2-1-0.3
	C310.7,125.7,314.4,116.7,320.9,110.8z M318.3,110c-1.8,1.8-3.4,3.9-4.8,6.1c-2.6-2.2-4.9-4.9-6.6-7.9
	C310.8,108.3,314.6,108.9,318.3,110z M312.4,118.2c-1.7,3.3-2.8,6.9-3.3,10.6c-2.1-4.1-4.7-7.9-7.7-11.3c0.1-0.1,0.1-0.2,0.2-0.3
	c1.1-2.5,2.2-5,3.4-7.5C307,112.9,309.5,115.8,312.4,118.2z M303.2,108.2c-1.2,2.4-2.3,4.9-3.4,7.4c-2-2.1-4.2-4-6.5-5.7
	C296.5,109,299.9,108.4,303.2,108.2z M308,131.9c-0.3-0.3-0.6-0.4-1-0.4c-0.3-0.1-0.5-0.3-0.8-0.4c-4.1-2.2-6.8-3.6-11.7-7.6
	c-0.4-4-1.3-8-2.9-11.9C298.7,116.9,304.4,123.9,308,131.9z M290.4,141c-0.1-0.3-0.2-0.6-0.3-0.9c-2.7-8.9-3-18.7-0.7-27.8
	C293,121.6,293.4,131.2,290.4,141z M288.6,100.4l1.8,4.1l-6.9,3L288.6,100.4z M281.1,106.7l-1.3-3l5.1-2.2L281.1,106.7z M276.8,95.1
	c-0.9-2.1,0.1-4.6,2.2-5.5c2.1-0.9,4.6,0.1,5.5,2.2c0.9,2.1-0.1,4.6-2.2,5.5C280.2,98.2,277.7,97.2,276.8,95.1z M287,112.2
	c-0.7,3-1.2,6.1-1.4,9.2c-0.1-0.1-0.1-0.1-0.2-0.2c-2.4-1.2-4.9-2.4-7.4-3.6C280.7,115.6,283.7,113.7,287,112.2z M276.5,131.8
	c0.8-3.9,0.9-8,0.4-12c14.2,6.5,5.5,1,10.5,19.4C281.1,133.1,276.3,132.9,276.5,131.8z M274.6,120.7c0.5,3.5,0.3,7.1-0.4,10.6
	c0,0.1,0,0.1,0,0.2c-2.3-0.7-4.7-1.1-7.1-1.3C269.2,126.7,271.7,123.5,274.6,120.7z M265.8,132.5c9,0.2,17.8,4.8,23.1,12.1
	c0,0,0,0.1-0.1,0.1c-8.4-3.4-19.6-8-24.1-9.8C265.1,134,265.4,133.2,265.8,132.5z M263.8,137c4.5,1.8,15.7,6.4,24.2,9.9
	c-0.1,0.3-0.2,0.7-0.3,1c-0.1,0-14,2-24.3-9.8C263.6,137.7,263.7,137.3,263.8,137z M262.6,140.6c1.9,2,4,3.7,6.4,5.1
	c-2.3,2.7-5.1,4.9-8.2,6.7C260.9,148.3,261.5,144.4,262.6,140.6z M260.9,155.7c2.7,1.3,5.5,2.6,8.3,3.8c-2.3,2.2-4.4,4.6-6.3,7.1
	C261.7,163,261.1,159.3,260.9,155.7z M264,169.6C264,169.6,264,169.6,264,169.6C264,169.6,264,169.6,264,169.6
	C264,169.6,264,169.6,264,169.6z M265.2,169.8c9.5-3.9,19.4-4.3,29.5-1.1c0,0,0,0,0,0c-0.3,0.3-0.8,0.5-1.4,0.7
	c-9.1,2.8-19.2,3-28.4,0.5C265.1,169.9,265.1,169.9,265.2,169.8z M270.7,181.2c-2.1-2.7-4-5.6-5.5-8.8c3,0.7,6,1.2,9.1,1.5
	C273,176.3,271.8,178.7,270.7,181.2z M283.2,191.9c-3.5-2-6.7-4.5-9.6-7.4c3.6-0.5,7.3-0.4,10.8,0.4c0,0,0.1,0,0.1,0
	C283.8,187.1,283.3,189.5,283.2,191.9z M284.8,182.5c-3.9-0.8-8-0.9-12-0.4c6.2-13.5,0.6-5.2,19-9.9c-2.8,3-5.1,6.6-6.6,10.4
	C285.1,182.6,285,182.6,284.8,182.5z M287.3,194C287.3,194,287.3,194,287.3,194c-0.6-0.2-1.3-0.5-1.9-0.8
	c0.3-8.5,4.5-16.9,11.3-22.1c-0.8,1.9-1.6,3.8-2.5,5.9c-2,4.9-3.9,9.4-5.3,12.8C288.3,191.4,287.7,192.9,287.3,194z M291.3,195.6
	c-0.6-0.2-1.2-0.4-1.8-0.7c1.5-4,6.3-15.6,10-24.4c0.5,0.2,1,0.4,1.5,0.5C300.9,171.3,302.8,185.3,291.3,195.6z M293.8,196.4
	c1.9-1.9,3.6-4,4.9-6.3c2.6,2.2,4.7,4.7,6.5,7.9C301.4,197.9,297.6,197.4,293.8,196.4z M299.9,187.9c1.8-3.5,2.9-7.4,3.3-11.3
	c7.6,15.6,10,6.9,3.8,19.6C305.1,192.9,302.8,190.3,299.9,187.9z M308.9,197.9c1.3-2.6,2.5-5.2,3.6-7.8c2,2.2,4.2,4.1,6.6,5.9
	C315.7,197,312.3,197.6,308.9,197.9z M304.6,174c0.1,0,0.1,0,0.2,0c0.3,0.1,0.5,0.3,0.8,0.4c17.7,9.4,10,6.4,15.6,20.2
	C314,189.4,308.2,182.1,304.6,174z M323.4,193.7c-3.8-9.3-4.2-19.1-1.3-29c0.3,0.3,0.4,0.8,0.6,1.3
	C325.4,175,325.6,184.7,323.4,193.7z M325.9,193.2c0.6-2.7,1-5.5,1.2-8.3c2.2,1.1,4.4,2.2,6.7,3.2
	C331.4,190,328.8,191.7,325.9,193.2z M335.2,186.2c-13.1-6-5.2-0.6-9.6-18.2c3,2.9,6.3,5,9.9,6.4
	C334.8,178.3,334.7,182.3,335.2,186.2z M337.4,184.9c-0.4-3.2-0.2-6.5,0.4-9.6c2.1,0.6,4.2,1,6.3,1.1
	C342.3,179.4,340,182.3,337.4,184.9z M345.4,174c-8.7,0-16.8-4.6-22.4-12.6c3.6,1.6,7.5,3.4,11.2,5c5.3,2.4,10,4.5,12.2,5.5
	C346.1,172.6,345.8,173.3,345.4,174z M347.4,169.8c-2.2-1-6.9-3.1-12.2-5.5c-3.8-1.7-7.7-3.5-11.2-5.1c0.1-0.3,0.2-0.6,0.3-0.9
	c0,0,0.1,0,0.1,0c9.4-0.8,18,2.6,23.8,9.5C347.9,168.5,347.6,169.1,347.4,169.8z M348.9,165.3c-1.8-1.9-3.7-3.5-5.9-4.9
	c2.2-2.5,4.7-4.7,7.6-6.4C350.5,157.8,349.9,161.6,348.9,165.3z"/>
</svg>
