<?xml version="1.0" encoding="utf-8"?>
<!-- Generator: Adobe Illustrator 21.1.0, SVG Export Plug-In . SVG Version: 6.00 Build 0)  -->
<svg version="1.1" id="Calque_1" xmlns="http://www.w3.org/2000/svg" xmlns:xlink="http://www.w3.org/1999/xlink" x="0px" y="0px"
	 viewBox="0 0 432 432" style="enable-background:new 0 0 432 432;" xml:space="preserve">
<style type="text/css">
	.st0{fill:#BD2329;}
	.st1{fill:#9BBD75;}
	.st2{fill:#B17F4A;}
	.st3{fill:#432918;}
	.st4{fill:#5FA131;}
	.st5{fill:#020203;}
	.st6{fill:#CDCCCC;}
	.st7{fill:#FFFFFF;}
	.st8{fill:#F9EA31;}
	.st9{fill:#1D71B8;}
	.st10{fill:#75A5BD;}
	.st11{fill:#C6C6C6;}
	.st12{fill:#706F6F;}
	.st13{fill:#00A19A;}
	.st14{fill:#36A9E1;}
	.st15{fill:#30358C;}
	.st16{fill:#6BC4CD;}
	.st17{fill:#0D71B9;}
	.st18{fill:#066938;}
	.st19{fill:#571419;}
	.st20{fill:#C49253;}
</style>
<path class="st19" d="M166,138.8v-5.6h2.3v-9.6h-31.1v9.6h2.5v5.2c-21.6,5.6-37.6,25.2-37.6,48.6c0,27.7,22.5,50.1,50.1,50.1
	c27.7,0,50.1-22.5,50.1-50.1C202.4,164.1,187,144.8,166,138.8z M185.8,193.6c-0.9,1.9-2.3,3.4-4.1,4.5c-1.1,0.6-2.2,1-3.5,0.9
	c-0.8,0-1.4-0.3-1.9-0.8c-0.9-1-1.6-2.2-2-3.5c-0.6-2.2,0.1-4.4,1.9-5.7c1.9-1.4,4.6-1,5.8,0.7c0.3,0.4,0.6,0.8,0.4,1.4
	c-1.2-0.3-2.2-0.1-3.1,0.5c-0.7,0.5-1,1.5-0.8,2.3c0.2,0.8,0.8,1.2,1.6,1.4c2.3,0.3,4.6-1.6,4.7-3.9c0.1-2.1-0.9-3.8-2.9-4.4
	c2-0.6,3.1-2.3,3-4.4c-0.1-2.3-2.4-4.2-4.7-3.9c-0.8,0.1-1.4,0.5-1.6,1.4c-0.2,0.8,0.1,1.8,0.8,2.3c0.9,0.7,1.9,0.9,3.1,0.5
	c0.2,0.6-0.1,1-0.4,1.4c-1.3,1.8-4,2.1-5.8,0.7c-1.8-1.3-2.5-3.5-1.9-5.7c0.4-1.3,1.1-2.4,2-3.5c0.5-0.6,1.1-0.8,1.9-0.8
	c1.3,0,2.4,0.3,3.5,0.9c1.8,1.1,3.2,2.6,4.1,4.5c0.6,1.1,1.1,1.3,2.4,0.9c0-1.9-0.8-3.5-2-4.9c-1.2-1.4-2.6-2.5-4.4-3.1
	c1.1-0.2,2.1-0.1,3.1,0.3c2.9,1.3,4.9,3.4,6.4,6c0.4,2.3,0.7,4.8,0.7,7.2c0,2.4-0.2,4.8-0.6,7.1c-1.6,2.7-3.6,4.9-6.5,6.2
	c-1,0.4-2,0.6-3.1,0.3c1.8-0.6,3.2-1.7,4.4-3.1c1.2-1.4,2-3,2-4.9C186.9,192.3,186.3,192.5,185.8,193.6z M168.5,220.1
	c1.1,1.1,2.8,1.5,4.2,1c-4.7,2.9-10.1,4.8-15.9,5.4c-2.4-2.1-2.8-4.9-2.1-8.3c0.4,0.4,0.6,0.6,0.9,0.8c0.8,0.7,1.7,1.2,2.7,1.3
	c2,0.3,3.7-0.3,5-1.8c1.2-1.4,1.2-3,0.6-4.7c-0.6-1.7-2.2-2.7-3.9-2.5c-1.2,0.2-2.1,1-2.2,2.2c0.1,0,0.2,0.1,0.2,0.1
	c0.2,0,0.4-0.1,0.5-0.2c1.2-0.7,2.3-0.5,2.9,0.7c0.4,0.7,0.7,1.5,0.8,2.2c0.1,1.1-0.6,1.9-1.5,2.5c-0.8,0.5-1.5,0.1-2.2-0.4
	c-1-0.7-1.7-1.6-2.1-2.7c-1.1-2.8-1.2-5.8-0.9-8.8c0-0.1,0.1-0.2,0.3-0.5c0.1,0.2,0.2,0.3,0.2,0.4c0.9,1.1,1.6,1,2.2-0.1
	c0.3-0.6,0.6-1.3,0.7-2c0.1-1.1,0-2.2,0-3.3c0,0,0,0,0,0c0.1,0,0.2,0,0.3,0.1c1.6,0.6,3.2,0.3,4.7-0.3c1.5-0.6,2.4-2,2.3-3.4
	c-0.2-2.3-2.7-3.9-4.9-3.1c-0.6,0.2-1.1,0.6-1.3,1.3c-0.1,0.3-0.1,0.7,0.1,0.9c0.2,0.2,0.6,0.1,0.9,0.1c0.2,0,0.4-0.1,0.6-0.2
	c0.8,1,0.9,2,0.1,2.8c-0.5,0.6-1,0.7-1.7,0.3c-1.1-0.7-2-1.6-2.5-2.8c-0.9-2.2-0.9-4.4-0.3-6.6c0.4-1.4,1.3-2.1,2.7-2.4
	c2.1-0.4,4,0.1,5.9,0.9c3.1,1.4,5,4.6,4.6,8c-0.3,3.1-0.8,6.3-2.4,9.1c-0.3,0.6-0.6,1.3-0.9,1.9c-0.7,1.6-1.2,3.4-1.3,5.1
	C166.3,215.8,166.6,218.2,168.5,220.1z M166.7,187.1c1.9-0.6,3.5-1.8,4.9-3.6c0.2-0.2,0.3-0.4,0.5-0.6c0,0,0.1,0,0.2-0.1
	c0.2,0.3,0.4,0.7,0.6,1c1.3,1.7,2.9,2.8,4.7,3.3c-1.9,0.5-3.5,1.6-4.8,3.3c-0.2,0.3-0.4,0.6-0.6,1c-0.1,0-0.1,0-0.2-0.1
	c-0.2-0.2-0.4-0.4-0.5-0.6C170.2,188.9,168.6,187.7,166.7,187.1z M190.3,175.4c-2.5-2-5.5-3.1-8.8-3.3c-2.4-0.1-4.6,0.6-6.5,2.1
	c-0.5,0.4-1.1,0.8-1.8,1.3c-0.3-1.1-0.6-2.1-0.4-3.1c0.2-1.2,0.5-2.5,0.9-3.7c0.5-1.3,1.5-2.1,2.8-2.5c0.8-0.2,1.7-0.1,2.4,0.4
	c0.8,0.6,0.9,1,0.4,1.9c-0.1,0.1-0.1,0.3-0.3,0.6c0.4,0.2,0.7,0.4,1,0.4c1.3,0.1,2.5-1,2.5-2.3c0.2-2.3-1.6-4.3-3.9-4.5
	c-2.4-0.2-4.4,0.7-6.2,2.3c-0.8,0.7-1.3,1.5-2,2.4c0,0-0.1,0-0.1-0.1c-1.1-2.4-1.8-5-1.6-7.7c0.1-1.3,0.5-2.6,1.2-3.7
	c0.3-0.4,0.7-0.8,1.1-1.2c0.3,0.5,0.4,1.1,0.8,1.4c0.4,0.3,1,0.5,1.5,0.6c1.3,0.1,2.1-1,1.5-2.2c-0.1-0.1-0.2-0.3-0.3-0.4
	C182.1,159.2,187.7,166.6,190.3,175.4z M173,153c-1.5-0.5-3.2-0.1-4.4,1c-1.9,1.9-2.3,4.3-2.1,6.8c0.1,1.8,0.6,3.5,1.3,5.1
	c0.3,0.7,0.5,1.3,0.9,1.9c1.6,2.8,2.1,6,2.4,9.1c0.3,3.4-1.6,6.5-4.6,8c-1.9,0.9-3.8,1.3-5.9,0.9c-1.4-0.3-2.4-1-2.7-2.4
	c-0.6-2.2-0.6-4.5,0.3-6.6c0.5-1.2,1.3-2.1,2.5-2.8c0.7-0.4,1.1-0.3,1.7,0.3c0.7,0.8,0.7,1.8-0.1,2.8c-0.2-0.1-0.4-0.2-0.6-0.2
	c-0.3,0-0.7,0-0.9,0.1c-0.2,0.2-0.2,0.6-0.1,0.9c0.2,0.6,0.7,1.1,1.3,1.3c2.1,0.8,4.7-0.8,4.9-3.1c0.1-1.4-0.8-2.8-2.3-3.4
	c-1.5-0.6-3.1-0.9-4.7-0.3c-0.1,0-0.2,0.1-0.3,0.1c0,0,0,0,0,0c0-1.1,0.1-2.2,0-3.3c-0.1-0.7-0.4-1.4-0.7-2
	c-0.6-1.2-1.4-1.2-2.2-0.1c-0.1,0.1-0.1,0.2-0.2,0.4c-0.2-0.3-0.3-0.4-0.3-0.5c-0.4-3-0.2-5.9,0.9-8.8c0.4-1.1,1.1-2,2.1-2.7
	c0.7-0.5,1.4-0.9,2.2-0.4c0.9,0.6,1.6,1.4,1.5,2.5c-0.1,0.8-0.4,1.5-0.8,2.2c-0.6,1.2-1.7,1.4-2.9,0.7c-0.2-0.1-0.4-0.1-0.5-0.2
	c-0.1,0-0.1,0.1-0.2,0.1c0.1,1.1,0.9,2,2.2,2.2c1.7,0.2,3.2-0.8,3.9-2.5c0.6-1.7,0.6-3.3-0.6-4.7c-1.3-1.5-3-2.1-5-1.8
	c-1,0.2-2,0.6-2.7,1.3c-0.2,0.2-0.4,0.4-0.9,0.8c-0.7-3.4-0.3-6.2,2.2-8.3C162.8,148.2,168.2,150.1,173,153z M147.5,147.5
	c2.5,2.1,2.9,4.9,2.2,8.3c-0.4-0.4-0.6-0.6-0.9-0.8c-0.8-0.7-1.7-1.2-2.7-1.3c-2-0.3-3.7,0.3-5,1.8c-1.2,1.4-1.2,3-0.6,4.7
	c0.6,1.7,2.2,2.7,3.9,2.5c1.2-0.2,2.1-1,2.2-2.2c-0.1,0-0.2-0.1-0.2-0.1c-0.2,0-0.4,0.1-0.5,0.2c-1.2,0.7-2.3,0.5-2.9-0.7
	c-0.4-0.7-0.7-1.5-0.8-2.2c-0.1-1.1,0.6-1.9,1.5-2.5c0.8-0.5,1.5-0.1,2.2,0.4c1,0.7,1.7,1.6,2.1,2.7c1.1,2.8,1.2,5.8,0.9,8.8
	c0,0.1-0.1,0.2-0.3,0.5c-0.1-0.2-0.2-0.3-0.2-0.4c-0.9-1.1-1.6-1-2.2,0.1c-0.3,0.6-0.6,1.3-0.7,2c-0.1,1.1,0,2.2,0,3.3c0,0,0,0,0,0
	c-0.1,0-0.2,0-0.3-0.1c-1.6-0.6-3.2-0.3-4.7,0.3c-1.5,0.6-2.4,2-2.3,3.4c0.2,2.3,2.7,3.9,4.9,3.1c0.6-0.2,1.1-0.6,1.3-1.3
	c0.1-0.3,0.1-0.7-0.1-0.9c-0.2-0.2-0.6-0.1-0.9-0.1c-0.2,0-0.4,0.1-0.6,0.2c-0.8-1-0.9-2-0.1-2.8c0.5-0.6,1-0.7,1.7-0.3
	c1.1,0.7,2,1.6,2.5,2.8c0.9,2.2,0.9,4.4,0.3,6.6c-0.4,1.4-1.3,2.1-2.7,2.4c-2.1,0.4-4-0.1-5.9-0.9c-3.1-1.4-5-4.6-4.6-8
	c0.3-3.1,0.8-6.3,2.4-9.1c0.3-0.6,0.6-1.3,0.9-1.9c0.7-1.6,1.2-3.4,1.3-5.1c0.2-2.5-0.2-4.9-2.1-6.8c-1.2-1.1-2.9-1.5-4.4-1
	C136.3,150.1,141.7,148.2,147.5,147.5z M143.8,200.1c-0.7,0.4-1.1,0.3-1.7-0.3c-0.7-0.8-0.7-1.8,0.1-2.8c0.2,0.1,0.4,0.2,0.6,0.2
	c0.3,0,0.7,0,0.9-0.1c0.2-0.2,0.2-0.6,0.1-0.9c-0.2-0.6-0.7-1.1-1.3-1.3c-2.1-0.8-4.7,0.8-4.9,3.1c-0.1,1.4,0.8,2.8,2.3,3.4
	c1.5,0.6,3.1,0.9,4.7,0.3c0.1,0,0.2-0.1,0.3-0.1c0,0,0,0,0,0c0,1.1-0.1,2.2,0,3.3c0.1,0.7,0.4,1.4,0.7,2c0.6,1.2,1.4,1.2,2.2,0.1
	c0.1-0.1,0.1-0.2,0.2-0.4c0.2,0.3,0.3,0.4,0.3,0.5c0.4,3,0.2,5.9-0.9,8.8c-0.4,1.1-1.1,2-2.1,2.7c-0.7,0.5-1.4,0.9-2.2,0.4
	c-0.9-0.6-1.6-1.4-1.5-2.5c0.1-0.8,0.4-1.5,0.8-2.2c0.6-1.2,1.7-1.4,2.9-0.7c0.2,0.1,0.4,0.1,0.5,0.2c0.1,0,0.1-0.1,0.2-0.1
	c-0.1-1.1-0.9-2-2.2-2.2c-1.7-0.2-3.2,0.8-3.9,2.5c-0.6,1.7-0.6,3.3,0.6,4.7c1.3,1.5,3,2.1,5,1.8c1-0.2,2-0.6,2.7-1.3
	c0.2-0.2,0.4-0.4,0.9-0.8c0.7,3.4,0.3,6.2-2.1,8.2c-5.7-0.7-10.9-2.5-15.6-5.3c1.4,0.3,2.9-0.1,3.9-1.1c1.9-1.9,2.3-4.3,2.1-6.8
	c-0.1-1.8-0.6-3.5-1.3-5.1c-0.3-0.7-0.5-1.3-0.9-1.9c-1.6-2.8-2.1-6-2.4-9.1c-0.3-3.4,1.6-6.5,4.6-8c1.9-0.9,3.8-1.3,5.9-0.9
	c1.4,0.3,2.4,1,2.7,2.4c0.6,2.2,0.6,4.5-0.3,6.6C145.8,198.5,144.9,199.5,143.8,200.1z M118.2,197.6c1.2,1.4,2.6,2.5,4.4,3.1
	c-1.1,0.2-2.1,0.1-3.1-0.3c-2.8-1.2-4.7-3.3-6.2-5.8c-0.5-2.5-0.7-5-0.7-7.6c0-2.5,0.2-4.9,0.7-7.2c1.5-2.6,3.5-4.8,6.4-6
	c1-0.4,2-0.6,3.1-0.3c-1.8,0.6-3.2,1.7-4.4,3.1c-1.2,1.4-2,3-2,4.9c1.3,0.4,1.8,0.2,2.4-0.9c0.9-1.9,2.3-3.4,4.1-4.5
	c1.1-0.6,2.2-1,3.5-0.9c0.8,0,1.4,0.3,1.9,0.8c0.9,1,1.6,2.2,2,3.5c0.6,2.2-0.1,4.4-1.9,5.7c-1.9,1.4-4.6,1-5.8-0.7
	c-0.3-0.4-0.6-0.8-0.4-1.4c1.2,0.3,2.2,0.1,3.1-0.5c0.7-0.5,1-1.5,0.8-2.3c-0.2-0.8-0.8-1.2-1.6-1.4c-2.3-0.3-4.6,1.6-4.7,3.9
	c-0.1,2.1,0.9,3.8,2.9,4.4c-2,0.6-3.1,2.3-3,4.4c0.1,2.3,2.4,4.2,4.7,3.9c0.8-0.1,1.4-0.5,1.6-1.4c0.2-0.8-0.1-1.8-0.8-2.3
	c-0.9-0.7-1.9-0.9-3.1-0.5c-0.2-0.6,0.1-1,0.4-1.4c1.3-1.8,4-2.1,5.8-0.7c1.8,1.3,2.5,3.5,1.9,5.7c-0.4,1.3-1.1,2.4-2,3.5
	c-0.5,0.6-1.1,0.8-1.9,0.8c-1.3,0-2.4-0.3-3.5-0.9c-1.8-1.1-3.2-2.6-4.1-4.5c-0.6-1.1-1.1-1.3-2.4-0.9
	C116.2,194.6,117,196.2,118.2,197.6z M126.8,187.1c1.9-0.5,3.5-1.6,4.8-3.3c0.2-0.3,0.4-0.6,0.6-1c0.1,0,0.1,0,0.2,0.1
	c0.2,0.2,0.4,0.4,0.5,0.6c1.3,1.8,3,2.9,4.8,3.6c-1.9,0.6-3.5,1.8-4.9,3.6c-0.2,0.2-0.3,0.4-0.5,0.6c0,0-0.1,0-0.2,0.1
	c-0.2-0.3-0.4-0.7-0.6-1C130.2,188.7,128.6,187.6,126.8,187.1z M129.9,154.1c-0.1,0.1-0.2,0.3-0.3,0.4c-0.5,1.2,0.3,2.3,1.5,2.2
	c0.5-0.1,1.1-0.2,1.5-0.6c0.4-0.3,0.5-0.8,0.8-1.4c0.4,0.4,0.8,0.8,1.1,1.2c0.8,1.1,1.1,2.3,1.2,3.7c0.2,2.7-0.5,5.2-1.6,7.7
	c0,0.1-0.2,0.1-0.1,0.1c-0.7-0.8-1.3-1.7-2-2.4c-1.7-1.6-3.8-2.5-6.2-2.3c-2.3,0.2-4.1,2.3-3.9,4.5c0.1,1.3,1.3,2.4,2.5,2.3
	c0.3,0,0.6-0.3,1-0.4c-0.2-0.3-0.2-0.4-0.3-0.6c-0.5-0.9-0.4-1.3,0.4-1.9c0.7-0.5,1.5-0.7,2.4-0.4c1.3,0.4,2.4,1.2,2.8,2.5
	c0.4,1.2,0.7,2.4,0.9,3.7c0.2,1-0.2,2-0.4,3.1c-0.7-0.5-1.3-0.9-1.8-1.3c-1.9-1.5-4.1-2.3-6.5-2.1c-3.3,0.2-6.3,1.2-8.8,3.3
	C116.9,166.6,122.5,159.2,129.9,154.1z M114.3,198.9c2.5,1.9,5.4,2.9,8.6,3.1c2.4,0.1,4.6-0.6,6.5-2.1c0.5-0.4,1.1-0.8,1.8-1.3
	c0.3,1.1,0.6,2.1,0.4,3.1c-0.2,1.2-0.5,2.5-0.9,3.7c-0.5,1.3-1.5,2.1-2.8,2.5c-0.8,0.2-1.7,0.1-2.4-0.4c-0.8-0.6-0.9-1-0.4-1.9
	c0.1-0.1,0.1-0.3,0.3-0.6c-0.4-0.2-0.7-0.4-1-0.4c-1.3-0.1-2.5,1-2.5,2.3c-0.2,2.3,1.6,4.3,3.9,4.5c2.4,0.2,4.4-0.7,6.2-2.3
	c0.8-0.7,1.3-1.5,2-2.4c0,0,0.1,0,0.1,0.1c1.1,2.4,1.8,5,1.6,7.7c-0.1,1.3-0.5,2.6-1.2,3.7c-0.3,0.4-0.7,0.8-1.1,1.2
	c-0.3-0.5-0.4-1.1-0.8-1.4c-0.4-0.3-1-0.5-1.5-0.6c-1.3-0.1-2.1,1-1.5,2.2c0,0,0,0.1,0.1,0.1C122.4,214.7,116.9,207.4,114.3,198.9z
	 M149.9,226.8c0.7-0.6,1.2-1.3,1.6-2.2c1.1-2.6,0.7-5.2-0.4-7.7c-0.3-0.6-0.3-1.1-0.2-1.8c0.7-3.2,0.6-6.3-0.7-9.3
	c-0.5-1.2-0.9-2.4-0.9-3.8c0-0.8-0.3-1.7-0.7-2.5c-0.2-0.5-0.3-0.9-0.1-1.4c0.8-2.1,0.8-4.2,0.2-6.3c-0.7-2.5-2.3-4-4.5-4.7
	c2.2-0.7,3.9-2.2,4.6-4.8c0.6-2.1,0.6-4.2-0.2-6.3c-0.2-0.5-0.1-0.9,0.1-1.4c0.3-0.8,0.7-1.7,0.7-2.5c0-1.4,0.4-2.6,0.9-3.8
	c1.3-3,1.4-6.1,0.7-9.3c-0.2-0.7-0.1-1.2,0.2-1.8c1.1-2.5,1.5-5.1,0.4-7.7c-0.4-0.9-1-1.7-1.7-2.3c0.8,0,1.5-0.1,2.3-0.1
	s1.6,0,2.3,0.1c-0.7,0.6-1.3,1.4-1.7,2.3c-1.1,2.6-0.7,5.2,0.4,7.7c0.3,0.6,0.3,1.1,0.2,1.8c-0.7,3.2-0.6,6.3,0.7,9.3
	c0.5,1.2,0.9,2.4,0.9,3.8c0,0.8,0.3,1.7,0.7,2.5c0.2,0.5,0.3,0.9,0.1,1.4c-0.8,2.1-0.8,4.2-0.2,6.3c0.7,2.5,2.3,4,4.5,4.7
	c-2.2,0.7-3.9,2.2-4.6,4.8c-0.6,2.1-0.6,4.2,0.2,6.3c0.2,0.5,0.1,0.9-0.1,1.4c-0.3,0.8-0.7,1.7-0.7,2.5c0,1.4-0.4,2.6-0.9,3.8
	c-1.3,3-1.4,6.1-0.7,9.3c0.2,0.7,0.1,1.2-0.2,1.8c-1.1,2.5-1.5,5.1-0.4,7.7c0.4,0.9,0.9,1.6,1.6,2.2c-0.7,0-1.4,0.1-2.1,0.1
	C151.5,226.8,150.7,226.8,149.9,226.8z M174.6,220c0.1-0.1,0.2-0.2,0.2-0.4c0.5-1.2-0.3-2.3-1.5-2.2c-0.5,0.1-1.1,0.2-1.5,0.6
	c-0.4,0.3-0.5,0.8-0.8,1.4c-0.4-0.4-0.8-0.8-1.1-1.2c-0.8-1.1-1.1-2.3-1.2-3.7c-0.2-2.7,0.5-5.2,1.6-7.7c0-0.1,0.2-0.1,0.1-0.1
	c0.7,0.8,1.3,1.7,2,2.4c1.7,1.6,3.8,2.5,6.2,2.3c2.3-0.2,4.1-2.3,3.9-4.5c-0.1-1.3-1.3-2.4-2.5-2.3c-0.3,0-0.6,0.3-1,0.4
	c0.2,0.3,0.2,0.4,0.3,0.6c0.5,0.9,0.4,1.3-0.4,1.9c-0.7,0.5-1.5,0.7-2.4,0.4c-1.3-0.4-2.4-1.2-2.8-2.5c-0.4-1.2-0.7-2.4-0.9-3.7
	c-0.2-1,0.2-2,0.4-3.1c0.7,0.5,1.3,0.9,1.8,1.3c1.9,1.5,4.1,2.3,6.5,2.1c3.4-0.2,6.4-1.3,8.9-3.3C187.7,207.5,182,214.9,174.6,220z"
	/>
<g>
	<path class="st20" d="M276.7,138.9v-5.6h2.3v-9.7h-31.4v9.7h2.5v5.3c-21.8,5.6-37.9,25.4-37.9,48.9c0,27.9,22.6,50.5,50.5,50.5
		c27.9,0,50.5-22.6,50.5-50.5C313.4,164.4,297.9,144.9,276.7,138.9z M262.9,200.2c-1-2.6-2.4-4.9-4.1-6.9c-0.6-0.7-1.3-1.4-1.9-1.9
		c-1.9-1.5-3.8-2.8-5.7-3.8c1.9-1,3.7-2.2,5.6-3.8c0.6-0.5,1.3-1.1,1.9-1.9c1.7-2,3.1-4.3,4.2-7c1,2.6,2.4,4.9,4.1,7
		c0.6,0.7,1.3,1.4,1.9,1.9c1.9,1.5,3.8,2.8,5.7,3.8c-1.9,1-3.7,2.2-5.6,3.8c-0.6,0.5-1.3,1.2-1.9,1.9
		C265.3,195.2,263.9,197.5,262.9,200.2z M295.2,187.5c3.9-2.7,6-6.5,6.2-11.3c1.1,3.6,1.6,7.4,1.6,11.3c0,3.8-0.5,7.5-1.5,11
		C301.1,193.8,299,190.1,295.2,187.5z M298.5,169.1c-1.6-1.6-3.5-3.1-6.1-3.6c-3.4-0.7-6.2-0.3-8.6,1.1c-3.1,1.8-4.6,5.7-3.6,9.1
		c1,3.3,4.4,5.7,7.8,5.6c1.9-0.1,3.4-1,4.2-2.6c0.5-0.9,0.8-1.9,1-2.9c0.3-1.5,0.1-2.8-0.7-4c0,0,0,0,0,0c1.3,1.1,2.3,3.2,2.3,5.2
		c0,1.2-0.2,3-1.7,4.4c-1,0.9-1.9,1.5-2.8,1.9c-1.5,0.6-3.1,0.9-4.7,1h0c-0.4,0-0.8,0-1.1,0c0,0,0,0-0.1,0c-0.7,0-1.5,0-2.3-0.1
		c-0.7-0.1-1.1-0.4-1.3-0.9c-0.5-1.4-0.9-2.9-1.2-4.1c-0.1-0.4-0.2-0.9-0.3-1.3c-0.1-0.5-0.2-1-0.3-1.5c-0.5-1.9-1.4-3.3-2.6-4.3
		c0,0-0.1-0.1-0.1-0.1c0.1-0.1,0.1-0.1,0.2-0.2c0.4-0.4,0.8-0.6,1.1-1c1.9-2,2.9-4.6,3.3-8.2c0.1-0.9-0.3-1.4-1.3-1.6
		c-1.3-0.2-2.6,0-3.8,0.7c-2.6,1.6-5.7,3.9-6.7,8c-0.2-0.5-0.3-1.1-0.3-1.7c-0.2-1.8-0.2-3.6-0.2-5.2c0-0.5,0.2-0.9,0.3-1.4
		c0-0.1,0.1-0.3,0.1-0.4h2.8c0.2,0,0.4,0,0.5,0c0.5,0,0.9,0,1.4,0c0.9-0.1,1.4-0.5,1.5-0.9c0.2-0.3,0.3-0.9-0.1-1.8c0,0,0,0,0-0.1
		l0.5-0.1c0.9-0.2,1.8-0.4,2.7-0.6c0.7-0.2,1.3-0.5,1.8-0.8c0.5-0.3,0.7-0.6,0.8-0.9c0.1-0.4,0-0.8-0.4-1.2
		c-0.6-0.8-1.5-1.4-2.6-1.7l-0.3-0.1c-0.1,0-0.2-0.1-0.3-0.1c0.1,0,0.3-0.1,0.5-0.2c0.1,0,0.2,0,0.3-0.1c0.6-0.2,1.4-0.4,1.4-1.3
		c0-0.2,0-0.3-0.1-0.5C287.6,154.7,294.4,161.1,298.5,169.1z M262.9,147.4c3.7,0,7.3,0.5,10.7,1.4c-0.8,0-1.7,0.2-2.7,0.7
		c-1.7,0.9-3.2,2.1-4.3,3.5c-1.4,1.8-2.7,3.8-3.8,6c-1.1-2.2-2.4-4.2-3.8-6c-1.2-1.5-2.7-2.7-4.3-3.5c-0.9-0.5-1.7-0.7-2.5-0.7
		C255.6,147.9,259.2,147.4,262.9,147.4z M246.1,151.1c0,0.1,0,0.2,0,0.4c0,0.9,0.9,1.2,1.4,1.3c0.1,0,0.2,0.1,0.3,0.1
		c0.2,0,0.3,0.1,0.5,0.2c-0.1,0-0.2,0-0.3,0.1l-0.3,0.1c-1.1,0.3-1.9,0.9-2.6,1.7c-0.3,0.4-0.5,0.8-0.4,1.2c0.1,0.4,0.3,0.7,0.8,0.9
		c0.5,0.3,1.1,0.6,1.8,0.8c0.9,0.2,1.8,0.4,2.7,0.6l0.5,0.1c0,0,0,0,0,0.1c-0.4,0.9-0.3,1.5-0.1,1.8c0.2,0.3,0.6,0.8,1.5,0.9
		c0.5,0,0.9,0,1.4,0c0.2,0,0.3,0,0.5,0h2.8c0,0.1,0.1,0.3,0.1,0.4c0.2,0.5,0.3,1,0.3,1.4c0,1.7,0,3.4-0.2,5.2
		c-0.1,0.6-0.2,1.2-0.4,1.7c-1-4.1-4.1-6.4-6.7-8c-1.1-0.7-2.4-0.9-3.8-0.7c-1,0.2-1.4,0.7-1.3,1.6c0.4,3.6,1.4,6.2,3.3,8.2
		c0.3,0.3,0.7,0.6,1.1,1c0.1,0.1,0.1,0.1,0.2,0.2c0,0-0.1,0.1-0.1,0.1c-1.3,1-2.1,2.4-2.6,4.3c-0.1,0.5-0.2,1-0.3,1.5
		c-0.1,0.4-0.2,0.9-0.3,1.3c-0.3,1.2-0.7,2.7-1.2,4.1c-0.2,0.5-0.6,0.9-1.3,0.9c-0.7,0.1-1.5,0.1-2.2,0.1c-0.5,0-0.9,0-1.3,0
		c-1.7-0.1-3.3-0.5-4.8-1c-0.9-0.4-1.8-1-2.8-1.9c-1.5-1.4-1.7-3.2-1.7-4.4c0.1-2,1-4.2,2.3-5.2c0,0,0,0,0,0c-0.8,1.1-1,2.5-0.7,4
		c0.2,1,0.5,2,1,2.9c0.8,1.6,2.3,2.5,4.2,2.6c3.3,0.1,6.8-2.4,7.8-5.6c1-3.4-0.5-7.3-3.6-9.1c-2.4-1.4-5.2-1.8-8.6-1.1
		c-2.4,0.5-4.2,1.8-5.7,3.2C231.6,160.9,238.1,154.7,246.1,151.1z M224.2,176.8c0.4,4.6,2.5,8.2,6.3,10.8c-3.8,2.6-5.9,6.3-6.2,11
		c-1-3.5-1.5-7.2-1.5-11C222.8,183.8,223.3,180.2,224.2,176.8z M227.4,206.3c1.5,1.5,3.4,2.9,5.8,3.4c3.4,0.7,6.2,0.3,8.6-1.1
		c3.1-1.8,4.6-5.7,3.6-9.1c-1-3.3-4.4-5.7-7.8-5.6c-1.9,0.1-3.4,1-4.2,2.6c-0.5,0.9-0.8,1.9-1,2.9c-0.3,1.5-0.1,2.8,0.7,4
		c0,0,0,0,0,0c-1.3-1.1-2.3-3.2-2.3-5.2c0-1.2,0.2-3,1.7-4.4c1-0.9,1.9-1.5,2.8-1.9c1.5-0.6,3-0.9,4.7-1h0.1c0.4,0,0.8,0,1.3-0.1h0
		c0.7,0,1.4,0,2.2,0.1c0.7,0.1,1.1,0.4,1.3,0.9c0.5,1.4,0.9,2.9,1.2,4.1c0.1,0.4,0.2,0.9,0.3,1.3c0.1,0.5,0.2,1,0.3,1.5
		c0.5,1.9,1.4,3.3,2.6,4.3c0,0,0.1,0.1,0.1,0.1c-0.1,0.1-0.1,0.1-0.2,0.2c-0.4,0.3-0.8,0.6-1.1,1c-1.9,2-2.9,4.6-3.3,8.2
		c-0.1,0.9,0.3,1.4,1.3,1.6c1.3,0.2,2.6,0,3.8-0.7c2.6-1.6,5.7-3.9,6.7-8c0.2,0.5,0.3,1.1,0.4,1.7c0.2,1.8,0.2,3.6,0.2,5.3
		c0,0.5-0.1,0.9-0.3,1.4c0,0.1-0.1,0.3-0.1,0.4h-3.4c-0.5,0-0.9,0-1.4,0c-0.9,0.1-1.4,0.5-1.5,0.9c-0.2,0.3-0.3,0.9,0.1,1.8
		c0,0,0,0,0,0.1l-0.5,0.1c-0.9,0.2-1.8,0.4-2.7,0.6c-0.7,0.2-1.3,0.5-1.8,0.8c-0.5,0.3-0.7,0.6-0.8,0.9c-0.1,0.4,0.1,0.7,0.4,1.2
		c0.6,0.8,1.5,1.4,2.6,1.7l0.3,0.1c0.1,0,0.2,0,0.3,0.1c-0.2,0.1-0.3,0.1-0.5,0.2c-0.1,0-0.2,0.1-0.3,0.1c-0.6,0.2-1.4,0.4-1.4,1.3
		c0,0.1,0,0.2,0,0.3C238.2,220.3,231.6,214.1,227.4,206.3z M262.9,227.6c-3.6,0-7.2-0.5-10.5-1.4c0.8,0,1.5-0.3,2.4-0.7
		c1.7-0.9,3.2-2.1,4.3-3.5c1.4-1.8,2.7-3.8,3.8-6c1.1,2.2,2.4,4.2,3.8,6c1.2,1.5,2.7,2.7,4.3,3.5c0.8,0.4,1.6,0.7,2.4,0.7
		C270.1,227.2,266.5,227.6,262.9,227.6z M279.5,224c0-0.1,0-0.2,0-0.3c0-0.9-0.9-1.2-1.4-1.3c-0.1,0-0.2,0-0.3-0.1
		c-0.2,0-0.3-0.1-0.5-0.2c0.1,0,0.2,0,0.3-0.1l0.3-0.1c1.1-0.3,1.9-0.9,2.6-1.7c0.3-0.4,0.5-0.8,0.4-1.2c-0.1-0.4-0.3-0.7-0.8-0.9
		c-0.5-0.3-1.1-0.6-1.8-0.8c-0.9-0.2-1.8-0.4-2.7-0.6l-0.5-0.1c0,0,0,0,0-0.1c0.4-0.9,0.3-1.5,0.1-1.8c-0.2-0.3-0.6-0.8-1.5-0.9
		c-0.5-0.1-0.9,0-1.4,0c-0.2,0-0.3,0-0.5,0H269c0-0.1-0.1-0.3-0.1-0.4c-0.2-0.5-0.3-1-0.3-1.4c0-1.7,0-3.4,0.2-5.3
		c0.1-0.6,0.2-1.2,0.4-1.7c1,4.1,4.1,6.4,6.7,8c1.1,0.7,2.4,0.9,3.8,0.7c1-0.2,1.4-0.7,1.3-1.6c-0.4-3.6-1.4-6.2-3.3-8.2
		c-0.3-0.3-0.7-0.6-1.1-1c-0.1-0.1-0.1-0.1-0.2-0.2c0,0,0.1-0.1,0.1-0.1c1.3-1,2.1-2.4,2.6-4.3c0.1-0.5,0.2-1,0.3-1.5
		c0.1-0.5,0.2-0.9,0.3-1.3c0.3-1.2,0.7-2.7,1.2-4.1c0.2-0.5,0.6-0.9,1.3-0.9c0.7-0.1,1.4-0.1,2-0.1c0.4,0,0.8,0.1,1.3,0.1
		c0.1,0,0.2,0,0.3,0c1.7,0.1,3.2,0.5,4.7,1.1c0.9,0.4,1.8,1,2.8,1.9c1.5,1.4,1.7,3.2,1.7,4.4c-0.1,2-1,4.2-2.3,5.2c0,0,0,0,0,0
		c0.8-1.1,1-2.5,0.7-4c-0.2-1-0.5-2-1-2.9c-0.8-1.6-2.3-2.5-4.2-2.6c-3.4-0.1-6.8,2.4-7.8,5.6c-1,3.4,0.5,7.3,3.6,9.1
		c2.4,1.4,5.2,1.8,8.6,1.1c2.4-0.5,4.3-1.9,5.8-3.4C294.2,214.1,287.6,220.3,279.5,224z"/>
	<path class="st20" d="M241,164.6c1.1,0,2.1-0.9,2.1-2.1s-0.9-2.1-2.1-2.1c-1.1,0-2.1,0.9-2.1,2.1S239.9,164.6,241,164.6z"/>
	<ellipse class="st20" cx="284.5" cy="162.5" rx="2.1" ry="2.1"/>
	<path class="st20" d="M241.1,210.5c-1.1,0-2.1,0.9-2.1,2.1s0.9,2.1,2.1,2.1c1.1,0,2.1-0.9,2.1-2.1S242.3,210.5,241.1,210.5z"/>
	<path class="st20" d="M284.6,210.5c-1.1,0-2.1,0.9-2.1,2.1s0.9,2.1,2.1,2.1s2.1-0.9,2.1-2.1S285.8,210.5,284.6,210.5z"/>
</g>
<path class="st20" d="M166.3,265.3v-5.7h2.4v-9.8h-31.8v9.8h2.5v5.4c-22.1,5.7-38.5,25.8-38.5,49.7c0,28.3,23,51.3,51.3,51.3
	c28.3,0,51.3-23,51.3-51.3C203.6,291.1,187.8,271.4,166.3,265.3z M190.5,300.6c1.6,4.4,2.5,9.1,2.5,14c0,0.2,0,0.4,0,0.6l-0.3-0.2
	c-7.2-4.5-15.2-6.6-22.8-6.2L190.5,300.6C190.5,300.6,190.5,300.6,190.5,300.6z M113.9,328.4C113.9,328.4,113.9,328.4,113.9,328.4
	c-1.6-4.3-2.4-9-2.4-13.8c0-0.3,0-0.7,0-1l0.1,0.1c6.5,5.4,14.6,7.6,23,6.5h0c0,0,0,0,0,0L113.9,328.4z M134.4,308.1L134.4,308.1
	c-8.2-1.4-16.3,0-22.8,4.4l-0.1,0.1c0.2-4.6,1.2-9,2.8-13L134.4,308.1z M162.4,305.1c0.3-4.3,8.5-12.1,12-12.3
	C174.1,296.2,166.3,304.6,162.4,305.1z M152.7,300.4c-2.8-3.3-2.6-14.6-0.2-17.2C154.7,285.8,155.1,297.3,152.7,300.4z M136.2,313.5
	c-2.7,2.2-14.1,2.6-17.2,0.2C122.3,310.9,133.6,311.2,136.2,313.5z M151.3,329.7c2.2,2.7,2.6,14.1,0.2,17.2
	C148.7,343.7,148.9,332.4,151.3,329.7z M169.2,321.2c7.6,1.2,15.8-0.5,23.4-5l0.3-0.2c-0.2,4.9-1.2,9.5-2.9,13.8l0,0L169.2,321.2
	L169.2,321.2z M166.8,315.2c3.3-2.8,14.6-2.6,17.2-0.2C181.3,317.1,169.9,317.6,166.8,315.2z M182,286.7c3.3,3.5,5.9,7.5,7.8,12l0,0
	l-20.1,8l0,0c5.9-4.5,10.2-11.3,12.2-19.5L182,286.7z M181,286.3c-8.6,1.9-15.9,6.3-20.9,12.1l9.2-20.8c0,0,0,0,0,0
	c4.6,2.1,8.7,5,12.1,8.6L181,286.3z M167.5,276.8C167.5,276.8,167.5,276.8,167.5,276.8l-9.3,21.1l0,0c1.7-8.6,0.3-17-4.3-23.7
	l-0.2-0.3C158.5,274.1,163.2,275.1,167.5,276.8z M152.3,273.9c0.2,0,0.5,0,0.7,0l-0.3,0.3c-5.4,6.5-7.6,14.7-6.5,23.1v0l-8.3-20.8
	C142.4,274.8,147.2,273.9,152.3,273.9z M136,277.2C136,277.2,136,277.2,136,277.2l8.3,20.8l0,0c-4.8-7.1-11.7-11.9-19.5-13.4l-0.1,0
	C128,281.6,131.8,279.1,136,277.2z M142.1,304c-3.4-0.4-11.8-8.1-12.3-12C134,292.3,141.9,300.5,142.1,304z M124,285.3L124,285.3
	c0.8,8.6,5.1,16.1,12,21.3c0,0,0,0,0,0l-20.8-8.9c0,0,0,0,0,0C117.3,293,120.3,288.8,124,285.3z M122,341.9
	c-3.1-3.4-5.5-7.3-7.3-11.6l20.8-8.2c-7.1,4.8-11.9,11.7-13.5,19.6L122,341.9z M140.7,324.8c-0.4,3.4-8.1,11.8-12,12.3
	C129,332.9,137.2,325,140.7,324.8z M122.6,342.5l0.2,0c8.2-0.8,15.3-4.7,20.5-11.1l-8.8,19.9c0,0,0,0,0,0
	C130,349.1,126,346.1,122.6,342.5z M136.3,352.1l9-20.2v0c-1.2,7.6,0.5,15.9,5,23.3l0.1,0.1C145.4,355.1,140.6,353.9,136.3,352.1z
	 M151.4,355.3l0.1-0.1c4.6-7.3,6.7-15.4,6.2-23v0c0,0,0,0,0,0l8.6,20.7c-4.3,1.6-9,2.4-13.9,2.4C152,355.3,151.7,355.3,151.4,355.3z
	 M168.1,352.2C168.1,352.2,168.1,352.2,168.1,352.2l-8.5-20.5c4.6,6.2,11.6,10.8,19.9,12.8l0.4,0.1
	C176.4,347.7,172.4,350.3,168.1,352.2z M162.5,326.7c4.3,0.3,12.1,8.5,12.3,12C171.4,338.4,163,330.6,162.5,326.7z M180.5,344
	l-0.1-0.4c-1.9-8.3-6.1-15.5-11.7-20.5l0,0c0,0,0,0,0,0l20.6,8.5c0,0,0,0,0,0C187.1,336.3,184.1,340.5,180.5,344z"/>
<path class="st19" d="M281.4,265.2v-5.7h2.4v-9.8h-31.8v9.8h2.5v5.4c-22.1,5.7-38.5,25.8-38.5,49.7c0,28.3,23,51.3,51.3,51.3
	c28.3,0,51.3-23,51.3-51.3C318.6,291.1,302.9,271.4,281.4,265.2z M308.1,314.6c0,1.1-0.1,2.3-0.2,3.4l-45.3-4.5l26-11.3l18.1,1.8
	C307.6,307.4,308.1,310.9,308.1,314.6z M234.1,338.2c-0.4-0.5-0.7-1-1-1.5l70.5-3.3c-1.6,3.1-3.5,5.9-5.8,8.4L234.1,338.2z
	 M244.4,280.9l49.5,2.8c2.6,2.2,4.9,4.8,6.9,7.7l-0.4,0.2l-60,2.8l-8-0.8C235.4,288.5,239.5,284.2,244.4,280.9z M292.7,294.9
	l-8.7,3.8l-23.1-2.3L292.7,294.9z M230.2,297.8l10.1-0.5l38.1,3.8l-26,11.3l-25.6-2.5C227.3,305.7,228.5,301.6,230.2,297.8z
	 M246.8,314.9l-19.3,8.4c-0.6-2.8-0.9-5.7-0.9-8.7c0-0.6,0-1.1,0-1.7L246.8,314.9z M304.9,330.2l-73.6,3.5c-0.9-1.8-1.8-3.6-2.4-5.5
	l28.1-12.2l50.6,5C307.1,324.2,306.2,327.3,304.9,330.2z M294.2,299.7l9.2-4c0.9,1.7,1.6,3.4,2.3,5.2L294.2,299.7z M267.3,273.9
	c8.9,0,17.1,2.9,23.8,7.7l-43.8-2.5C253.2,275.8,260,273.9,267.3,273.9z M235.7,340.3l60.2,3.4c-7.4,7.2-17.4,11.7-28.5,11.7
	C254.5,355.3,243.2,349.5,235.7,340.3z"/>
<g>
	<rect x="151.3" y="0" class="st19" width="2" height="131.5"/>
</g>
<g>
	<rect x="261.9" y="0" class="st20" width="2" height="131.5"/>
</g>
</svg>
