<?xml version="1.0" encoding="UTF-8" standalone="no"?>
<!-- Generator: Adobe Illustrator 22.0.0, SVG Export Plug-In . SVG Version: 6.00 Build 0)  -->

<svg
   xmlns:dc="http://purl.org/dc/elements/1.1/"
   xmlns:cc="http://creativecommons.org/ns#"
   xmlns:rdf="http://www.w3.org/1999/02/22-rdf-syntax-ns#"
   xmlns:svg="http://www.w3.org/2000/svg"
   xmlns="http://www.w3.org/2000/svg"
   xmlns:sodipodi="http://sodipodi.sourceforge.net/DTD/sodipodi-0.dtd"
   xmlns:inkscape="http://www.inkscape.org/namespaces/inkscape"
   version="1.1"
   id="Calque_1"
   x="0px"
   y="0px"
   viewBox="0 0 445.08789 542.23639"
   xml:space="preserve"
   inkscape:version="0.91 r13725"
   sodipodi:docname="Christmas_bear-4707.svg"
   width="445.08789"
   height="542.23639"><metadata
     id="metadata73"><rdf:RDF><cc:Work
         rdf:about=""><dc:format>image/svg+xml</dc:format><dc:type
           rdf:resource="http://purl.org/dc/dcmitype/StillImage" /><dc:title></dc:title></cc:Work></rdf:RDF></metadata><defs
     id="defs71" /><sodipodi:namedview
     pagecolor="#ffffff"
     bordercolor="#666666"
     borderopacity="1"
     objecttolerance="10"
     gridtolerance="10"
     guidetolerance="10"
     inkscape:pageopacity="0"
     inkscape:pageshadow="2"
     inkscape:window-width="1440"
     inkscape:window-height="817"
     id="namedview69"
     showgrid="false"
     fit-margin-top="0"
     fit-margin-left="0"
     fit-margin-right="0"
     fit-margin-bottom="0"
     inkscape:zoom="0.5462963"
     inkscape:cx="98.970744"
     inkscape:cy="151.20519"
     inkscape:window-x="0"
     inkscape:window-y="1"
     inkscape:window-maximized="1"
     inkscape:current-layer="Calque_1" /><style
     type="text/css"
     id="style3">
	.st0{fill:#020203;}
	.st1{fill:#F3D4AA;}
	.st2{fill:#C1292E;}
	.st3{fill:#E7E6E6;}
	.st4{fill:#A81922;}
	.st5{fill:#D6A14D;}
	.st6{fill:#E580A9;}
	.st7{fill:#FFF0BA;}
	.st8{fill:#972021;}
	.st9{fill:#D06C5D;}
	.st10{fill:#36502D;}
	.st11{fill:#79986F;}
	.st12{fill:#EB5B28;}
	.st13{fill:#A67D52;}
	.st14{fill:#F2F2F2;}
	.st15{fill:#066938;}
	.st16{fill:#009245;}
	.st17{fill:#CDCCCC;}
	.st18{fill:#AE8864;}
	.st19{fill:#412413;}
	.st20{fill:#8C633A;}
	.st21{fill:#F39323;}
	.st22{fill:#F9B03D;}
	.st23{fill:#C69C6C;}
	.st24{fill:#2FBAD7;}
	.st25{fill:#DAA405;}
	.st26{fill:#808181;}
	.st27{fill:#8E3089;}
	.st28{fill:#1861A9;}
	.st29{fill:#D4175B;}
	.st30{fill:#E3D65E;}
	.st31{fill:#C7B29A;}
	.st32{fill:#603914;}
	.st33{fill:#998675;}
	.st34{fill:#746458;}
	.st35{fill:#EAA35C;}
	.st36{fill:#A3282E;}
	.st37{fill:#DC7B18;}
	.st38{fill:#B88E5C;}
	.st39{fill:#C67B3E;}
	.st40{fill:#C74A54;}
	.st41{fill:#48AE4D;}
	.st42{fill:#9A9999;}
	.st43{fill:#6F1131;}
	.st44{fill:#EFAE5D;}
	.st45{fill:#BB7E28;}
	.st46{fill:#C8904C;}
	.st47{fill:#BB7926;}
	.st48{fill:#C68448;}
	.st49{fill:#D79A5D;}
	.st50{fill:#82171C;}
	.st51{fill:#754D24;}
	.st52{fill:#EAD797;}
	.st53{fill:#B4B4B4;}
	.st54{fill:#4E4D4D;}
	.st55{fill:#014837;}
	.st56{fill:#28285B;}
	.st57{fill:#8EC045;}
	.st58{fill:#6BC4CD;}
	.st59{fill:#699CBB;}
	.st60{fill:#6D8E5F;}
</style><g
     id="g5"
     transform="matrix(2.2482679,0,0,1.7928739,-263.11312,-116.11618)"><path
       class="st17"
       d="m 261.1,200 c 9.8,-0.6 37.4,-3.5 50.5,46.2 13.1,49.7 -15.7,61.4 -18.5,63.2 -18.2,9.4 -22.6,-39.4 -22.2,-50.7 0.4,-11.2 -9.8,-58.7 -9.8,-58.7 z"
       id="path7"
       inkscape:connector-curvature="0"
       style="fill:#cdcccc" /><path
       class="st17"
       d="m 194,202.2 c -11.1,-3.5 -34.9,-21.8 -42.7,-44 -7.8,-22.2 -37.4,-12.9 -34,12.8 3.4,25.7 14.1,48.4 55.7,75.3 8.4,-14.2 21,-44.1 21,-44.1 z"
       id="path9"
       inkscape:connector-curvature="0"
       style="fill:#cdcccc" /><path
       class="st3"
       d="m 260,196.1 c 11.4,-12.1 18.7,-30.3 18.7,-50.6 0,-20 -7.1,-38 -18.2,-50.1 6.5,-8 12.8,-19.9 1.7,-26.2 C 251.5,63 245.5,75 244,83.1 c -5.5,-2.5 -11.5,-3.9 -17.8,-3.9 -5.9,0 -11.5,1.2 -16.8,3.5 -0.6,-7.9 -6.7,-22.9 -18.4,-16.3 -11.6,6.6 -4.2,19.3 2.5,27.3 -12,12.1 -19.7,30.8 -19.7,51.7 0,20.6 7.4,39 19.1,51.1 -16.5,16.3 -27.4,44.1 -27.4,75.7 0,50.1 27.4,90.8 61.2,90.8 33.8,0 61.2,-40.7 61.2,-90.8 0,-31.9 -11.1,-60 -27.9,-76.1 z"
       id="path11"
       inkscape:connector-curvature="0"
       style="fill:#e7e6e6" /><g
       id="g13"><path
         class="st17"
         d="m 199.2,96.5 c -4.8,-5.3 -11.2,-15 -2.7,-19.8 8.5,-4.8 12.7,7 12.7,12 -2.8,2.1 -10,7.8 -10,7.8 z"
         id="path15"
         inkscape:connector-curvature="0"
         style="fill:#cdcccc" /><path
         class="st17"
         d="m 254,99.1 c 4.8,-5.3 11.2,-15 2.7,-19.8 -8.5,-4.8 -12.7,7 -12.7,12 2.8,2.1 10,7.8 10,7.8 z"
         id="path17"
         inkscape:connector-curvature="0"
         style="fill:#cdcccc" /></g><g
       id="g19"><g
         id="g21"><ellipse
           class="st0"
           cx="217"
           cy="112.1"
           rx="2.5"
           ry="4.3000002"
           id="ellipse23"
           style="fill:#020203" /><ellipse
           class="st0"
           cx="236.7"
           cy="112.1"
           rx="2.5"
           ry="4.3000002"
           id="ellipse25"
           style="fill:#020203" /></g><ellipse
         class="st0"
         cx="226.39999"
         cy="159.7"
         rx="17.299999"
         ry="12.5"
         id="ellipse27"
         style="fill:#020203" /><g
         id="g29"><path
           class="st0"
           d="m 206,190.3 c -7,0 -13.5,-6 -15.3,-14.5 l 1.9,-0.4 c 1.8,8.4 8.7,14.2 15.5,12.7 l 0.4,1.9 c -0.8,0.2 -1.7,0.3 -2.5,0.3 z"
           id="path31"
           inkscape:connector-curvature="0"
           style="fill:#020203" /></g></g><g
       id="g33"><path
         class="st15"
         d="m 252.2,266.4 0,40.7 c 0,6.5 -5.3,11.8 -11.8,11.8 l -24.7,0 c -6.5,0 -11.8,-5.3 -11.8,-11.8 l 0,-40.7 c 0,-6.5 5.3,-11.8 11.8,-11.8 l 24.7,0 c 6.5,0 11.8,5.3 11.8,11.8 z"
         id="path35"
         inkscape:connector-curvature="0"
         style="fill:#066938" /><path
         class="st8"
         d="m 231.5,259.5 c 0.8,-0.2 1.4,-0.9 1.4,-1.7 l -0.9,-4.4 c 3.9,-3.1 8,-6.6 11.7,-10.2 1.7,-1.6 3.3,-3.3 4.8,-4.9 8.7,-9.4 13.5,-18.7 5.2,-23.3 -12.1,-6.6 -21.8,18.4 -25.1,34.7 l -2.2,0 c -2.4,-14.3 -7.2,-30.3 -15.9,-25.1 -8.8,5.2 3.7,20.8 12.9,29 l -0.8,4.2 c 0,0.9 0.7,1.7 1.6,1.8 l 0,20 -20.2,0 0,7.2 20.3,0 0,32.1 7.2,0 0,-32.1 20.7,0 0,-7.2 -20.7,0 0,-20.1 z m 15.7,-33.9 c 4.5,2.5 2.6,7.2 -1.6,12.3 l 0,0 c -0.7,0.8 -1.4,1.6 -2.2,2.5 -3.5,3.7 -7.9,7.3 -11.7,10.3 -0.1,-0.2 -0.2,-0.3 -0.4,-0.4 1.2,-9.3 7.6,-29.3 15.9,-24.7 z M 223.6,251 c -5.6,-4.7 -14.3,-15 -8.7,-18.3 5.6,-3.4 8.5,8 9.9,17.1 -0.5,0.2 -1,0.6 -1.2,1.2 z"
         id="path37"
         inkscape:connector-curvature="0"
         style="fill:#972021" /></g><g
       id="g39"><g
         id="g41"><ellipse
           transform="matrix(0.9019,-0.432,0.432,0.9019,-121.3943,114.7992)"
           class="st53"
           cx="192"
           cy="324.60001"
           rx="31.5"
           ry="44.700001"
           id="ellipse43"
           style="fill:#b4b4b4" /><g
           id="g45"><ellipse
             transform="matrix(0.8206,-0.5715,0.5715,0.8206,-159.7153,173.9104)"
             class="st0"
             cx="197.10001"
             cy="341.29999"
             rx="13"
             ry="18.200001"
             id="ellipse47"
             style="fill:#020203" /><ellipse
             transform="matrix(0.05987455,-0.9982,0.9982,0.05987455,-119.0097,490.635)"
             class="st0"
             cx="201"
             cy="308.5"
             rx="6.1999998"
             ry="4.5"
             id="ellipse49"
             style="fill:#020203" /><ellipse
             transform="matrix(0.8206,-0.5715,0.5715,0.8206,-142.9296,159.5022)"
             class="st0"
             cx="182.60001"
             cy="307.39999"
             rx="4.5"
             ry="6.1999998"
             id="ellipse51"
             style="fill:#020203" /><ellipse
             transform="matrix(0.5405,-0.8414,0.8414,0.5405,-190.9696,292.9864)"
             class="st0"
             cx="172.7"
             cy="321.29999"
             rx="4.5"
             ry="6.1999998"
             id="ellipse53"
             style="fill:#020203" /></g></g><g
         id="g55"><ellipse
           transform="matrix(0.432,-0.9019,0.9019,0.432,-142.0113,423.7926)"
           class="st53"
           cx="265.39999"
           cy="324.60001"
           rx="44.700001"
           ry="31.5"
           id="ellipse57"
           style="fill:#b4b4b4" /><g
           id="g59"><ellipse
             transform="matrix(0.5715,-0.8206,0.8206,0.5715,-168.5511,359.8653)"
             class="st0"
             cx="260.29999"
             cy="341.29999"
             rx="18.200001"
             ry="13"
             id="ellipse61"
             style="fill:#020203" /><ellipse
             transform="matrix(0.9982,-0.05987455,0.05987455,0.9982,-18.0111,15.9105)"
             class="st0"
             cx="256.5"
             cy="308.5"
             rx="4.5"
             ry="6.1999998"
             id="ellipse63"
             style="fill:#020203" /><ellipse
             transform="matrix(0.5715,-0.8206,0.8206,0.5715,-134.4654,357.2673)"
             class="st0"
             cx="274.89999"
             cy="307.39999"
             rx="6.1999998"
             ry="4.5"
             id="ellipse65"
             style="fill:#020203" /><ellipse
             transform="matrix(0.8414,-0.5405,0.5405,0.8414,-128.4916,204.8524)"
             class="st0"
             cx="284.70001"
             cy="321.29999"
             rx="6.1999998"
             ry="4.5"
             id="ellipse67"
             style="fill:#020203" /></g></g></g></g></svg>