<?xml version="1.0" encoding="utf-8"?>
<!-- Generator: Adobe Illustrator 21.1.0, SVG Export Plug-In . SVG Version: 6.00 Build 0)  -->
<svg version="1.1" id="Calque_1" xmlns="http://www.w3.org/2000/svg" xmlns:xlink="http://www.w3.org/1999/xlink" x="0px" y="0px"
	 viewBox="0 0 432 432" style="enable-background:new 0 0 432 432;" xml:space="preserve">
<style type="text/css">
	.st0{fill:#CDCCCC;}
	.st1{fill:#F2F2F2;}
	.st2{fill:#020203;}
	.st3{fill:#B88E5C;}
	.st4{fill:#EA9FA1;}
	.st5{fill:#28285B;}
	.st6{fill:#9E1460;}
	.st7{fill:#82171C;}
</style>
<g>
	<g>
		<g>
			<path d="M177.1,106.5c-2.6,3.7-6,6.4-9.6,8.8c-0.8,0.6-1.7,1.1-2.5,1.6c-0.3,0.2-0.5,0.5-0.5,0.8c-0.5,3-0.9,6-1.4,9
				c-0.8,4.8-2.1,9.5-4.1,13.9c-0.7,1.5-1.4,2.9-2.4,4.2c-1.7,2.3-4,3.4-6.8,3.6c-2,0.1-3.8-0.4-5.4-1.6c-2.7-1.9-4.2-4.5-4.7-7.7
				c-0.3-1.9-0.1-3.7,0.7-5.5c1.9-4.3,4.8-7.8,8.7-10.5c2.7-1.9,5.4-3.9,8.3-5.4c0.3-0.2,0.5-0.4,0.6-0.7c0.3-2.7,0.7-5.4,0.9-8.1
				c-0.1,0.1-0.2,0.2-0.3,0.3c-1,1.2-1.9,2.4-2.9,3.6c-0.5,0.6-1,1.1-1.6,1.6c-1.1,0.9-2.4,1.4-3.9,1.1c-1.9-0.4-3.1-1.6-3.5-3.5
				c-0.2-0.7-0.2-1.5-0.2-2.3c0.1-1.6,0.2-3.2,0.4-4.9c0-0.2,0-0.4,0-0.6c-0.1,0-0.2,0-0.3,0.1c-2.8,1.4-5.7,2.3-8.8,3
				c-1.5,0.3-3,0.7-4.5,1c-0.3,0.1-0.5,0.3-0.6,0.5c-0.7,1.5-1.5,2.9-2.3,4.4c-2.7,5.1-6.2,9.6-10.7,13.1c-1,0.8-2.1,1.6-3.3,2.3
				c-1.2,0.8-2.5,1.2-3.9,1.3c-1.7,0.2-3.2-0.4-4.5-1.5c-0.2-0.1-0.3-0.3-0.5-0.4c0,0,0,0-0.1,0c-0.1,0.2-0.3,0.4-0.4,0.6
				c-0.9,1.5-2.2,2.4-3.9,2.7c-1.6,0.3-3.1-0.1-4.4-1.2c-1-0.8-1.8-1.8-2.4-3c-1.2-2.3-2.1-4.7-2.5-7.3c-0.5-2.6-0.4-5.1-0.1-7.7
				c0.3-2.4,0.7-4.8,1.1-7.2c0.3-1.6,0.7-3.2,1.4-4.7c0.4-0.8,0.6-1.8,0.9-2.6c1.1-2.9,2.2-5.8,3.2-8.7c0.1-0.4,0.2-0.7,0.2-1.1
				c-0.4-2.5-0.8-5-1.2-7.5c-0.3-1.8-0.8-3.6-1.2-5.4c-0.3-1.4-0.5-2.8-0.7-4.2c-0.1-0.5,0.1-0.9,0.4-1.2c0.9-1.4,2.3-2,3.8-2.3
				c0.6-0.1,1.2,0.2,1.5,0.7c0.3,0.5,0.7,1,0.9,1.6c0.9,2.2,1.7,4.5,2.3,6.9c0,0.2,0.1,0.3,0.2,0.6c0.2-0.2,0.3-0.4,0.4-0.6
				c1.2-1.9,2.4-3.8,3.6-5.7c1.5-2.3,3.5-3.9,6-5.1c0.9-0.5,1.9-0.8,2.9-1c1.5-0.2,2.6,0.3,3.4,1.6c0.6,0.9,0.8,1.9,0.9,3
				c0.5,4.4-0.5,8.6-2.3,12.6c-0.1,0.2-0.2,0.4-0.4,0.8c0.3-0.2,0.5-0.3,0.7-0.4c1.9-1,3.8-2,5.9-2.6c1.1-0.3,2.2-0.6,3.4-0.6
				c3.3-0.1,5.6,1.6,6.5,4.7c0.6,2.1,0.8,4.2,0.6,6.3c-0.4,4.8-1.6,9.4-3.3,13.8c-0.1,0.2-0.1,0.4-0.2,0.7c0.9-0.2,1.6-0.4,2.4-0.6
				c3.2-0.7,6.3-1.8,9.3-3.2c0.6-0.3,0.8-0.6,0.9-1.2c0.5-4.2,1.3-8.3,2.1-12.4c0.6-2.7,1.2-5.4,1.7-8.2c0.3-1.5,0.5-2.9,0.8-4.4
				c0-0.3,0.1-0.5,0.2-0.8c0.3-0.7,0.8-1.2,1.5-1.3c1.3-0.2,2.7-0.3,4-0.3c0.8,0,1.3,0.5,1.4,1.4c0,0.6,0,1.1-0.1,1.7
				c-0.2,1.4-0.5,2.9-0.8,4.3c-0.2,1.6-0.4,3.1-0.7,4.7c-0.4,2.6-0.9,5.2-1.4,7.8c-0.6,3.5-1.2,6.9-1.8,10.4
				c-0.3,1.6-0.4,3.2-0.6,4.8c0,0.1,0,0.1,0,0.2c0.1-0.1,0.2-0.1,0.2-0.2c1.7-1.5,3.3-3.1,5-4.6c0.4-0.4,0.6-0.8,0.7-1.3
				c0.4-2.3,0.8-4.5,1.2-6.8c0.5-3,0.9-5.9,1.4-8.9c0.6-3.3,1.2-6.7,1.7-10c0.1-0.7,0.2-1.4,0.4-2.1c0.1-0.7,0.3-1.4,0.7-2
				c0.4-0.6,0.9-0.9,1.6-1c0.7-0.1,1.4,0,2.1,0.2c0.2,0.1,0.4,0.1,0.7,0.2c1.4,0.5,1.8,1,1.6,2.5c-0.3,2-0.6,4-1,6
				c-0.8,4-1.6,8-2.4,12c-0.5,2.6-0.7,5.1-1.2,7.7c-0.5,3-0.7,6-1,9.1c-0.1,1.2-0.2,2.4-0.4,3.5c0,0.2,0,0.4,0,0.7
				c0.2-0.1,0.4-0.2,0.5-0.3c2.9-1.9,5.5-4.1,7.9-6.6c1.4-1.4,2.3-3.1,3.1-4.8c0.1-0.2,0.1-0.5,0.1-0.8c0.3-4.3,0.8-8.6,1.9-12.8
				c1.1-4,2.5-7.9,4.6-11.5c1.6-2.7,3.5-5,6-6.7c1.6-1.1,3.3-1.7,5.3-1.5c2.8,0.2,4.9,2.3,5.2,5.1c0.2,1.6-0.1,3.1-0.8,4.6
				c-1.9,4-4.6,7.3-8.2,9.9c-1.1,0.8-2.3,1.4-3.5,1.8c-0.2,0.1-0.4,0.1-0.6,0.2c-0.2,1.4-0.4,2.7-0.6,4.1c-0.2,1.6-0.3,3.2-0.4,4.9
				c-0.1,1.8-0.1,3.6,0.2,5.4c0.1,0.4,0.2,0.8,0.4,1.1c0.8,1.2,1.8,2.1,3.1,2.6c0.8,0.3,1.6,0.4,2.5,0.1c0.9-0.3,1.8-0.6,2.7-0.9
				c0.3-0.1,0.6-0.3,0.9-0.6c2.1-1.7,4-3.7,5.6-6c2.8-3.8,4.6-8.1,5.8-12.6c0.1-0.3,0.2-0.7,0.2-1c0-0.2,0.1-0.3,0.1-0.5
				c0.2-0.5,0.6-0.7,1.1-0.7c0.5,0,0.9,0.4,1,0.9c0.1,0.5,0.1,1.1,0,1.7c-0.6,3-1.3,6-2.4,8.8c-2.7,6.8-7,12.4-12.8,16.8
				c-0.6,0.4-1.1,0.8-1.7,1.2c-1.5,1-3.2,1.4-5,1.3c-1.3,0-2.6-0.2-3.8-0.6c-1.6-0.5-2.9-1.4-4-2.7c-1.4-1.7-2.2-3.7-2.7-5.8
				C177.2,106.9,177.2,106.7,177.1,106.5z M110.5,115.1c0.5-0.4,0.9-0.7,1.2-1c3.5-2.7,7.3-4.8,11.5-6.3c0.8-0.3,1.6-0.6,2.4-0.9
				c0.2-0.1,0.4-0.2,0.5-0.4c0.6-1.1,1.2-2.2,1.7-3.3c1.5-3.5,2.6-7,3.1-10.8c0.3-1.8,0.5-3.6,0.2-5.4c-0.1-0.6-0.3-1.2-0.5-1.7
				c-0.1-0.4-0.5-0.6-0.9-0.6c-0.8,0-1.6,0-2.4,0.1c-1.9,0.3-3.7,1.2-5.4,2.2c-2.5,1.4-4.8,3.2-7,5c-0.1,0.1-0.3,0.3-0.4,0.4
				c-1.5,1.5-2.9,3-4.4,4.4c-0.3,0.3-0.4,0.6-0.4,1c0.2,2.3,0.5,4.7,0.6,7c0.1,3.1,0.1,6.2,0.2,9.3
				C110.5,114.4,110.5,114.7,110.5,115.1z M109.5,91.7c0.2-0.2,0.4-0.3,0.6-0.5c0.7-0.6,1.3-1.3,2.1-1.8c1.5-1.1,2.5-2.6,3.4-4.2
				c0.1-0.2,0.2-0.4,0.3-0.6c1.2-2.1,2.4-4.3,3-6.6c0.5-1.8,0.9-3.6,1.3-5.5c0.3-1.2,0.3-2.4,0.1-3.5c-0.1-0.4-0.1-0.8-0.3-1.1
				c-0.2-0.5-0.4-0.6-0.9-0.5c-0.8,0.2-1.6,0.5-2.4,0.9c-1.6,0.9-2.9,2.1-3.9,3.5c-2,2.8-3.8,5.7-5.4,8.7c-0.2,0.3-0.2,0.6-0.1,0.9
				c0.2,0.9,0.4,1.7,0.6,2.6C108.5,86.5,109,89,109.5,91.7z M156.9,122.7c0,0-0.1,0-0.1-0.1c-0.2,0.1-0.4,0.2-0.6,0.4
				c-1.5,1.1-3,2.2-4.5,3.3c-1.5,1.1-2.8,2.4-4.1,3.8c-1.1,1.3-2,2.8-2.5,4.5c-0.4,1.2-0.2,2.4,0.4,3.6c0.5,0.8,1,1.7,1.6,2.4
				c0.4,0.5,0.8,0.9,1.3,1.3c0.4,0.4,0.9,0.4,1.4,0.2c0.5-0.2,0.9-0.5,1.2-0.9c0.9-1.2,1.5-2.6,2.1-4c1.4-3.5,2.4-7.1,3.1-10.7
				C156.5,125.3,156.6,124,156.9,122.7z M101.1,94.9c-0.1,0.2-0.2,0.3-0.2,0.3c-1.3,4-2.6,8-3.5,12.2c-0.6,2.8-0.9,5.6-0.5,8.4
				c0.5,3.3,1.7,6.3,3.9,8.9c0.2,0.2,0.4,0.4,0.6,0.7c0.1-0.5,0.3-0.8,0.3-1.2c0.4-1.7,0.5-3.5,0.5-5.3c0-2.3-0.1-4.6-0.1-6.9
				C102.3,106.4,101.7,100.7,101.1,94.9z M123.8,111.1c-0.1,0-0.2,0-0.2,0c-0.2,0.1-0.4,0.1-0.6,0.2c-2.3,0.8-4.6,1.9-6.7,3.2
				c-1.7,1-3.2,2.3-4.5,3.8c-0.6,0.8-1.2,1.6-1.7,2.4c-0.6,1-0.7,2.1-0.2,3.1c0.3,0.7,0.6,0.8,1.2,0.5c0.4-0.2,0.8-0.4,1.2-0.6
				c1.5-1.1,3-2.2,4.4-3.5c2.8-2.5,5-5.6,6.9-8.8C123.6,111.4,123.7,111.3,123.8,111.1z M187.6,86.6c0.4-0.2,0.6-0.3,0.8-0.4
				c1.9-1.1,3.4-2.5,4.8-4.2c1.3-1.6,2.2-3.3,2.8-5.2c0.3-0.9,0.3-1.8,0-2.7c-0.3-0.8-0.8-1-1.5-0.5c-0.6,0.4-1.1,0.9-1.6,1.3
				c-0.6,0.5-1,1-1.3,1.7c-1.5,3-2.8,6.1-3.7,9.3C187.7,86,187.6,86.2,187.6,86.6z"/>
			<path d="M308,106.5c-2.6,3.7-6,6.4-9.6,8.8c-0.8,0.6-1.7,1.1-2.5,1.6c-0.3,0.2-0.5,0.5-0.5,0.8c-0.5,3-0.9,6-1.4,9
				c-0.8,4.8-2.1,9.5-4.1,13.9c-0.7,1.5-1.4,2.9-2.4,4.2c-1.7,2.3-4,3.4-6.8,3.6c-2,0.1-3.8-0.4-5.4-1.6c-2.7-1.9-4.2-4.5-4.7-7.7
				c-0.3-1.9-0.1-3.7,0.7-5.5c1.9-4.3,4.8-7.8,8.7-10.5c2.7-1.9,5.4-3.9,8.3-5.4c0.3-0.2,0.5-0.4,0.5-0.7c0.3-2.7,0.7-5.4,0.9-8.1
				c-0.1,0.1-0.2,0.2-0.3,0.3c-1,1.2-1.9,2.4-2.9,3.6c-0.5,0.6-1,1.1-1.6,1.6c-1.1,0.9-2.4,1.4-3.9,1.1c-1.9-0.4-3.1-1.6-3.5-3.5
				c-0.2-0.7-0.2-1.5-0.2-2.3c0.1-1.6,0.2-3.2,0.4-4.9c0-0.2,0-0.4,0-0.6c-0.1,0-0.2,0-0.3,0.1c-2.8,1.4-5.7,2.3-8.8,3
				c-1.5,0.3-3,0.7-4.5,1c-0.3,0.1-0.5,0.3-0.6,0.5c-0.7,1.5-1.5,2.9-2.3,4.4c-2.7,5.1-6.2,9.6-10.7,13.1c-1,0.8-2.1,1.6-3.3,2.3
				c-1.2,0.8-2.5,1.2-3.9,1.3c-1.7,0.2-3.2-0.4-4.5-1.5c-0.2-0.1-0.3-0.3-0.5-0.4c0,0,0,0-0.1,0c-0.1,0.2-0.3,0.4-0.4,0.6
				c-0.9,1.5-2.2,2.4-3.9,2.7c-1.6,0.3-3.1-0.1-4.4-1.2c-1-0.8-1.8-1.8-2.4-3c-1.2-2.3-2.1-4.7-2.5-7.3c-0.5-2.6-0.4-5.1-0.1-7.7
				c0.3-2.4,0.7-4.8,1.1-7.2c0.3-1.6,0.7-3.2,1.4-4.7c0.4-0.8,0.6-1.8,0.9-2.6c1.1-2.9,2.2-5.8,3.2-8.7c0.1-0.4,0.2-0.7,0.2-1.1
				c-0.4-2.5-0.8-5-1.2-7.5c-0.3-1.8-0.8-3.6-1.2-5.4c-0.3-1.4-0.5-2.8-0.7-4.2c-0.1-0.5,0.1-0.9,0.4-1.2c0.9-1.4,2.3-2,3.8-2.3
				c0.6-0.1,1.2,0.2,1.5,0.7c0.3,0.5,0.7,1,0.9,1.6c0.9,2.2,1.7,4.5,2.3,6.9c0,0.2,0.1,0.3,0.2,0.6c0.2-0.2,0.3-0.4,0.4-0.6
				c1.2-1.9,2.4-3.8,3.6-5.7c1.5-2.3,3.5-3.9,6-5.1c0.9-0.5,1.9-0.8,2.9-1c1.5-0.2,2.6,0.3,3.4,1.6c0.6,0.9,0.8,1.9,0.9,3
				c0.5,4.4-0.5,8.6-2.3,12.6c-0.1,0.2-0.2,0.4-0.4,0.8c0.3-0.2,0.5-0.3,0.7-0.4c1.9-1,3.8-2,5.9-2.6c1.1-0.3,2.2-0.6,3.4-0.6
				c3.3-0.1,5.6,1.6,6.5,4.7c0.6,2.1,0.8,4.2,0.6,6.3c-0.4,4.8-1.6,9.4-3.3,13.8c-0.1,0.2-0.1,0.4-0.2,0.7c0.9-0.2,1.6-0.4,2.4-0.6
				c3.2-0.7,6.3-1.8,9.3-3.2c0.6-0.3,0.8-0.6,0.9-1.2c0.5-4.2,1.3-8.3,2.1-12.4c0.6-2.7,1.2-5.4,1.7-8.2c0.3-1.5,0.5-2.9,0.8-4.4
				c0-0.3,0.1-0.5,0.2-0.8c0.3-0.7,0.8-1.2,1.5-1.3c1.3-0.2,2.7-0.3,4-0.3c0.8,0,1.3,0.5,1.4,1.4c0,0.6,0,1.1-0.1,1.7
				c-0.2,1.4-0.5,2.9-0.8,4.3c-0.2,1.6-0.4,3.1-0.7,4.7c-0.4,2.6-0.9,5.2-1.4,7.8c-0.6,3.5-1.2,6.9-1.8,10.4
				c-0.3,1.6-0.4,3.2-0.6,4.8c0,0.1,0,0.1,0,0.2c0.1-0.1,0.2-0.1,0.2-0.2c1.7-1.5,3.3-3.1,5-4.6c0.4-0.4,0.6-0.8,0.7-1.3
				c0.4-2.3,0.8-4.5,1.2-6.8c0.5-3,0.9-5.9,1.4-8.9c0.6-3.3,1.2-6.7,1.7-10c0.1-0.7,0.2-1.4,0.4-2.1c0.1-0.7,0.3-1.4,0.7-2
				c0.4-0.6,0.9-0.9,1.6-1c0.7-0.1,1.4,0,2.1,0.2c0.2,0.1,0.4,0.1,0.7,0.2c1.4,0.5,1.8,1,1.6,2.5c-0.3,2-0.6,4-1,6
				c-0.8,4-1.6,8-2.4,12c-0.5,2.6-0.7,5.1-1.2,7.7c-0.5,3-0.7,6-1,9.1c-0.1,1.2-0.2,2.4-0.4,3.5c0,0.2,0,0.4,0,0.7
				c0.2-0.1,0.4-0.2,0.5-0.3c2.9-1.9,5.5-4.1,7.9-6.6c1.4-1.4,2.3-3.1,3.1-4.8c0.1-0.2,0.1-0.5,0.1-0.8c0.3-4.3,0.8-8.6,1.9-12.8
				c1.1-4,2.5-7.9,4.6-11.5c1.6-2.7,3.5-5,6-6.7c1.6-1.1,3.3-1.7,5.3-1.5c2.8,0.2,4.9,2.3,5.2,5.1c0.2,1.6-0.1,3.1-0.8,4.6
				c-1.9,4-4.6,7.3-8.2,9.9c-1.1,0.8-2.3,1.4-3.5,1.8c-0.2,0.1-0.4,0.1-0.6,0.2c-0.2,1.4-0.4,2.7-0.6,4.1c-0.2,1.6-0.3,3.2-0.4,4.9
				c-0.1,1.8-0.1,3.6,0.2,5.4c0.1,0.4,0.2,0.8,0.4,1.1c0.8,1.2,1.8,2.1,3.1,2.6c0.8,0.3,1.6,0.4,2.5,0.1c0.9-0.3,1.8-0.6,2.7-0.9
				c0.3-0.1,0.6-0.3,0.9-0.6c2.1-1.7,4-3.7,5.6-6c2.8-3.8,4.6-8.1,5.8-12.6c0.1-0.3,0.2-0.7,0.2-1c0-0.2,0.1-0.3,0.1-0.5
				c0.2-0.5,0.6-0.7,1.1-0.7c0.5,0,0.9,0.4,1,0.9c0.1,0.5,0.1,1.1,0,1.7c-0.6,3-1.3,6-2.4,8.8c-2.7,6.8-7,12.4-12.8,16.8
				c-0.6,0.4-1.1,0.8-1.7,1.2c-1.5,1-3.2,1.4-5,1.3c-1.3,0-2.6-0.2-3.8-0.6c-1.6-0.5-2.9-1.4-4-2.7c-1.4-1.7-2.2-3.7-2.7-5.8
				C308.1,106.9,308,106.7,308,106.5z M241.4,115.1c0.5-0.4,0.9-0.7,1.2-1c3.5-2.7,7.3-4.8,11.5-6.3c0.8-0.3,1.6-0.6,2.4-0.9
				c0.2-0.1,0.4-0.2,0.5-0.4c0.6-1.1,1.2-2.2,1.7-3.3c1.5-3.5,2.6-7,3.1-10.8c0.3-1.8,0.5-3.6,0.2-5.4c-0.1-0.6-0.3-1.2-0.5-1.7
				c-0.1-0.4-0.5-0.6-0.9-0.6c-0.8,0-1.6,0-2.4,0.1c-1.9,0.3-3.7,1.2-5.4,2.2c-2.5,1.4-4.8,3.2-7,5c-0.1,0.1-0.3,0.3-0.4,0.4
				c-1.5,1.5-2.9,3-4.4,4.4c-0.3,0.3-0.4,0.6-0.4,1c0.2,2.3,0.5,4.7,0.6,7c0.1,3.1,0.1,6.2,0.2,9.3
				C241.4,114.4,241.4,114.7,241.4,115.1z M240.3,91.7c0.2-0.2,0.4-0.3,0.6-0.5c0.7-0.6,1.3-1.3,2.1-1.8c1.5-1.1,2.5-2.6,3.4-4.2
				c0.1-0.2,0.2-0.4,0.3-0.6c1.2-2.1,2.4-4.3,3-6.6c0.5-1.8,0.9-3.6,1.3-5.5c0.3-1.2,0.3-2.4,0.1-3.5c-0.1-0.4-0.1-0.8-0.3-1.1
				c-0.2-0.5-0.4-0.6-0.9-0.5c-0.8,0.2-1.6,0.5-2.4,0.9c-1.6,0.9-2.9,2.1-3.9,3.5c-2,2.8-3.8,5.7-5.4,8.7c-0.2,0.3-0.2,0.6-0.1,0.9
				c0.2,0.9,0.4,1.7,0.6,2.6C239.4,86.5,239.8,89,240.3,91.7z M287.7,122.7c0,0-0.1,0-0.1-0.1c-0.2,0.1-0.4,0.2-0.6,0.4
				c-1.5,1.1-3,2.2-4.5,3.3c-1.5,1.1-2.8,2.4-4.1,3.8c-1.1,1.3-2,2.8-2.5,4.5c-0.4,1.2-0.2,2.4,0.4,3.6c0.5,0.8,1,1.7,1.6,2.4
				c0.4,0.5,0.8,0.9,1.3,1.3c0.4,0.4,0.9,0.4,1.4,0.2c0.5-0.2,0.9-0.5,1.2-0.9c0.9-1.2,1.5-2.6,2.1-4c1.4-3.5,2.4-7.1,3.1-10.7
				C287.3,125.3,287.5,124,287.7,122.7z M231.9,94.9c-0.1,0.2-0.2,0.3-0.2,0.3c-1.3,4-2.6,8-3.5,12.2c-0.6,2.8-0.9,5.6-0.5,8.4
				c0.5,3.3,1.7,6.3,3.9,8.9c0.2,0.2,0.4,0.4,0.6,0.7c0.1-0.5,0.3-0.8,0.3-1.2c0.4-1.7,0.5-3.5,0.5-5.3c0-2.3-0.1-4.6-0.1-6.9
				C233.1,106.4,232.6,100.7,231.9,94.9z M254.6,111.1c-0.1,0-0.2,0-0.2,0c-0.2,0.1-0.4,0.1-0.6,0.2c-2.3,0.8-4.6,1.9-6.7,3.2
				c-1.7,1-3.2,2.3-4.5,3.8c-0.6,0.8-1.2,1.6-1.7,2.4c-0.6,1-0.7,2.1-0.2,3.1c0.3,0.7,0.6,0.8,1.2,0.5c0.4-0.2,0.8-0.4,1.2-0.6
				c1.5-1.1,3-2.2,4.4-3.5c2.8-2.5,5-5.6,6.9-8.8C254.5,111.4,254.5,111.3,254.6,111.1z M318.4,86.6c0.4-0.2,0.6-0.3,0.8-0.4
				c1.9-1.1,3.4-2.5,4.8-4.2c1.3-1.6,2.2-3.3,2.8-5.2c0.3-0.9,0.3-1.8,0-2.7c-0.3-0.8-0.8-1-1.5-0.5c-0.6,0.4-1.1,0.9-1.6,1.3
				c-0.6,0.5-1,1-1.3,1.7c-1.5,3-2.8,6.1-3.7,9.3C318.5,86,318.5,86.2,318.4,86.6z"/>
		</g>
		<g>
			<path class="st3" d="M278.2,192.9c0,2.8-2.2,6.7-5.6,7.6c-0.4,0.1-0.7,0.2-1.1,0.2c-0.8,0-1.3-0.8-0.9-1.5
				c0.8-1.2,1.2-2.5,1.7-3.7c0.3-0.7,0.3-1.3,0.1-2c-0.3-0.9-0.6-1.9-1-2.7c-0.5-1.1,0-1.7,0.7-2.2c1-0.6,2-0.8,3.1-0.7
				c1,0.1,1.7,0.7,2.2,1.7C278,190.6,278.2,191.7,278.2,192.9z"/>
			<g>
				<path class="st3" d="M170.1,194.7c1,0.2,2.1,0.3,3.1,0.5c1.8,0.3,3.4,1.2,5.1,1.6c2,0.5,3.8,0.4,5.6-0.6
					c0.3-0.2,0.6-0.3,0.9-0.4c0.6-0.3,1.2-0.2,1.6,0.3c0.4,0.5,0.3,1.2-0.3,1.8c-1,1.1-2.3,1.8-3.8,2.2c-2.7,0.7-5.4,0.7-8-0.1
					c-3.2-0.9-6.5-1.1-9.8-0.3c-0.5,0.1-1.1,0.2-1.6,0.1c-1.5-0.2-2.2-1.7-1.4-3c0.2-0.3,0.5-0.6,0.8-0.9c1.2-1.1,2.3-2.4,3.2-3.9
					c1.9-3,3.6-6.2,4.9-9.6c2-5.2,3.8-10.4,5-15.9c0.9-4.4,1.2-8.8,0.4-13.3c-0.2-1-0.5-1.9-0.9-2.8c-1.2-2.2-2.9-2.9-5.2-2
					c-1.7,0.6-3,1.8-4.1,3.2c-2.2,2.8-3.8,6-3.9,9.7c0,0.7-0.2,1.3-0.9,1.5c-0.7,0.2-1.4-0.2-1.7-1.1c-0.5-1.1-0.5-2.2-0.4-3.3
					c0.5-6.1,6.1-13,11.9-14.8c4.3-1.3,7.9-0.3,10.8,3.2c2.5,3,3.8,6.6,4.1,10.5c0.7,7.9-1.1,15.2-4.8,22.1
					c-2.7,5.1-5.9,9.9-9.9,14.1C170.5,194,170.1,194.2,170.1,194.7z"/>
				<path class="st3" d="M188.6,171.5c0.1-5.9,1.2-11.8,3.6-17.3c1.3-3,3.1-5.8,5.8-7.7c1.8-1.3,3.8-2.2,6.1-2.2
					c1.4,0,2.7,0.5,3.9,1.3c3,2.2,5.2,5.1,6.6,8.6c1.2,3.1,1.9,6.4,2.3,9.7c0.6,4.6,1.1,9.2,0.8,13.9c-0.2,4.3-0.9,8.4-2.1,12.5
					c-0.8,2.6-2.1,4.9-3.8,6.9c-1.6,1.9-3.7,2.9-6.1,3.3c-1.7,0.3-3.4-0.2-4.9-1c-2.4-1.3-4.3-3.2-5.8-5.5c-2.7-4.3-4.6-9-5.5-14.1
					C188.9,177.2,188.6,174.4,188.6,171.5z M214.7,175.8c-0.2-5.6-0.8-10.9-2-16.1c-0.8-3.4-1.8-6.6-4.1-9.3c-0.7-0.8-1.4-1-2.4-0.7
					c-1.9,0.5-3.2,1.7-4.2,3.4c-1.4,2.5-2.2,5.1-2.8,7.9c-1.5,7.2-1.8,14.5-0.8,21.8c0.5,3.4,1.3,6.7,2.9,9.8
					c0.3,0.5,0.6,1.1,0.9,1.6c1.7,2.1,3.9,2.5,6.1,1.1c1.3-0.8,2.3-1.9,3-3.3c0.9-1.8,1.7-3.6,2.1-5.6
					C214.4,182.8,214.8,179.2,214.7,175.8z"/>
				<path class="st3" d="M225.7,149.8c-1,0.6-1.8,1.2-2.6,1.7c-0.5,0.3-1,0.7-1.6,0.8c-0.6,0.1-1.2-0.1-1.5-0.7
					c-0.3-0.6-0.2-1.2,0.2-1.7c0.3-0.4,0.8-0.7,1.2-1c1-0.7,2.1-1.3,3.2-2c0.8-0.5,1.5-1.1,2.1-1.8c1.3-1.5,2.9-1.7,4.6-0.5
					c1.6,1.1,2.5,2.8,3.2,4.7c0.7,1.9,1,3.8,1.1,5.8c0.5,6.9,0.4,13.8,0.1,20.7c-0.3,5.1-0.7,10.1-1,15.1c-0.1,1.5-0.1,2.9-0.1,4.4
					c0,0.5,0.2,0.8,0.7,0.7c0.8,0,1.6-0.2,2.5,0c0.4,0.1,0.8,0.2,1.2,0.4c0.9,0.6,1,1.8,0.2,2.6c-0.5,0.5-1.2,0.7-1.9,0.8
					c-2.1,0.2-4.2,0.4-6.3,0.5c-1.4,0.1-2.7,0.3-4.1,0.2c-0.6,0-1.3-0.1-1.9-0.2c-0.9-0.2-1.5-0.7-1.5-1.4c-0.1-0.7,0.3-1.3,1.2-1.7
					c0.9-0.5,1.8-0.6,2.8-0.7c0.7-0.1,0.8-0.4,0.8-1.1c-0.5-5.3-0.9-10.7-1.3-16c-0.2-3.3-0.4-6.6-0.4-9.9c0.1-6.4,0-12.9-0.3-19.3
					C225.9,150.1,225.8,150,225.7,149.8z"/>
				<path class="st3" d="M257.5,149.3c-0.6-0.3-1.2-0.1-1.8,0c-2.4,0.4-4.9,0.4-7.3,0.4c-1.5,0-3-0.1-4.5-0.2
					c-0.6,0-1.2-0.2-1.7-0.5c-1.1-0.7-1.1-2,0-2.7c0.5-0.3,1.1-0.4,1.7-0.5c1.1-0.1,2.1-0.3,3.2-0.2c3.1,0.3,6.2-0.1,9.4-0.2
					c1.1,0,2.2-0.2,3.2-0.6c2.5-0.9,4.4,0,5.4,2.6c0.7,2,0.9,4,0.7,6.1c-0.2,3.3-0.7,6.5-1.2,9.7c-0.7,4.4-1.3,8.9-2,13.4
					c-0.8,5-2.1,9.8-3.4,14.7c-0.5,2-1,4-1.5,6c-0.2,0.8-0.4,1.5-0.9,2.1c-0.9,1-1.9,1.5-3.2,1.2c-1.3-0.4-2-1.5-2.2-2.8
					c-0.1-0.8,0-1.6,0.1-2.4c0.3-2.1,0.3-4.2,0.4-6.3c0.2-5.8,1-11.5,1.8-17.1c0.9-6,1.9-12,2.9-18
					C256.8,152.3,257.1,150.8,257.5,149.3z"/>
			</g>
		</g>
	</g>
	<g>
		<path d="M279.5,271c1.4,0.1,2.6,0.2,3.9,0.3c2.2,0.1,4.4,0,6.6-0.3c3.5-0.5,7.1-1,10.6-1.6c2.5-0.4,5-1,7.3-1.9
			c0.6-0.3,1.3-0.6,1.9-0.8c0.3-0.1,0.7-0.2,1.1-0.2c0.5,0,0.9,0.3,1.1,0.8c0.2,0.5,0.1,0.9-0.2,1.3c-0.2,0.3-0.4,0.5-0.7,0.7
			c-1.6,1.3-3.5,2.1-5.5,2.6c-3.1,0.9-6.2,1.4-9.4,1.8c-2.9,0.4-5.8,0.7-8.7,0.9c-2.8,0.3-5.6,0.2-8.4-0.2c-0.1,0-0.3,0-0.4,0
			c-0.1,0-0.1,0-0.2,0c-0.4,1.2-0.7,2.5-1.1,3.7c-1.2,3.5-2.6,6.8-4.8,9.8c-1.3,1.7-2.5,3.5-4.3,4.7c-0.6,0.5-1.3,0.9-1.9,1.3
			c-0.6,0.4-1.2,0.6-1.9,0.7c-1,0.2-2,0.4-3,0.5c-3.9,0.4-7.2-2-8.4-5.6c-0.5-1.5-0.8-3-1.1-4.5c-0.2,0.1-0.3,0.4-0.4,0.6
			c-1.2,1.8-2.5,3.7-3.7,5.5c-0.7,1-1.6,1.8-2.7,2.5c-2.1,1.3-4.5,1.1-6.4-0.6c-1.4-1.3-2.1-3-2.3-4.8c-0.1-1.6-0.1-3.2-0.1-4.8
			c0-0.4,0-0.8-0.1-1.2c-0.2,0.2-0.3,0.4-0.5,0.7c-2,3.1-4.4,5.8-7.3,8.2c-0.6,0.5-1.3,1-2,1.4c-1.7,1-3.4,1.4-5.3,1
			c-1.8-0.3-3.1-1.4-4-2.9c-1-1.5-1.4-3.1-1.4-4.9c-0.1-2.3,0.2-4.6,0.5-6.9c0-0.1,0-0.2,0-0.4c-0.1,0.2-0.3,0.4-0.4,0.5
			c-1.9,2.7-3.8,5.4-5.7,8.1c-0.8,1.1-1.8,2.1-2.9,3c-1.7,1.4-3.6,2.3-5.8,2.6c-1.1,0.2-2.2,0-3.3-0.4c-3.7-1.4-6.4-3.9-7.5-7.8
			c-0.3-0.9-0.4-1.9-0.6-2.9c-0.2,0.2-0.3,0.4-0.4,0.6c-0.8,1.5-1.6,3-2.4,4.6c-1.4,2.7-3,5.2-4.9,7.6c-1.1,1.4-2.4,2.4-3.9,3.2
			c-3.2,1.8-6.9,0.3-8.1-3.1c-0.3-0.9-0.5-1.8-0.5-2.7c0-3,0.2-5.9,0.5-8.8c0.3-2.5,0.5-5,0.7-7.5c0.3-3.4,0.6-6.8,1.1-10.3
			c0.1-1.1,0.3-2.2,0.4-3.4c-0.2,0.1-0.4,0.2-0.5,0.3c-3.1,2.5-6.6,4.2-10.2,5.7c-0.1,0.1-0.3,0.1-0.4,0.2c-0.4,0.1-0.5,0.3-0.5,0.7
			c0,0.8-0.1,1.5-0.2,2.3c-0.3,3.5-0.6,7-1,10.5c-0.3,2.8-0.7,5.5-1,8.3c-0.2,1.3-0.5,2.6-1.1,3.9c-0.4,0.8-0.9,1.4-1.5,2
			c-1.1,0.9-2.1,1.8-3.5,2c-1.2,0.2-2.4,0.5-3.7,0.3c-1.3-0.2-2.5-0.8-3.4-1.6c-2.4-2.2-4-4.9-4.5-8.1c-0.5-3-0.2-6,1-8.9
			c0.8-1.9,1.9-3.7,3.3-5.3c1.1-1.2,2.2-2.5,3.5-3.5c0.8-0.6,1.6-1.2,2.5-1.7c0.4-0.2,0.6-0.5,0.6-0.9c0.1-2.7,0.2-5.3,0.3-8
			c0.2-5,0.6-9.9,1.2-14.9c0.2-1.7,0.5-3.3,0.8-5c0.1-0.8,0.2-1.7,0.3-2.5c-0.1,0-0.1,0-0.1,0c-1.4,1.2-2.8,2.3-4.1,3.5
			c-0.7,0.7-1.3,1.5-1.8,2.3c-0.3,0.4-0.5,0.9-0.4,1.6c0.2,0,0.5,0,0.7,0c0.1,0,0.3-0.1,0.4-0.1c0.3-0.1,0.6,0,0.8,0.3
			c0.2,0.3,0.1,0.6-0.2,0.8c-0.8,0.7-1.6,1-2.7,0.3c-0.8-0.5-1.2-1.2-1.4-2.1c-0.3-1.8,0.1-3.4,1.2-4.8c1-1.2,2-2.5,3.2-3.6
			c2.5-2.4,4.4-5.2,5.9-8.3c0.5-1,1.3-1.5,2.3-1.7c0.9-0.2,1.9-0.4,2.8-0.5c0.7-0.1,1.5,0,2.2,0.1c1.1,0.2,1.7,0.9,1.6,2.1
			c0,0.1,0,0.1,0,0.2c0.3,2-0.2,3.9-0.5,5.8c-0.3,2.5-0.7,5.1-1.1,7.6c-0.4,2.9-0.7,5.7-0.9,8.6c-0.2,1.8-0.2,3.7-0.4,5.6
			c-0.2,2.6-0.4,5.1-0.6,7.7c0,0.6-0.1,1.2-0.1,1.9c0.3-0.1,0.4-0.1,0.6-0.2c2.1-0.9,4.3-1.9,6.4-2.8c1.6-0.7,3-1.8,4.4-2.8
			c0.2-0.2,0.3-0.4,0.3-0.6c0.6-4.2,1.2-8.3,1.7-12.5c0.5-4.3,1.3-8.5,2.1-12.7c0.2-0.9,0.3-1.9,0.5-2.8c0.2-1,0.5-1.9,0.7-2.9
			c0.1-0.4,0.4-0.7,0.8-0.7c2-0.1,4-0.3,6-0.1c1.1,0.1,1.3,0.7,1.2,1.6c0,0.5-0.1,0.9-0.2,1.4c-0.3,2.1-0.6,4.3-1,6.4
			c-0.3,2.1-0.7,4.2-1,6.3c-0.4,2.7-0.6,5.3-0.9,8c-0.4,3.7-0.7,7.4-1.1,11.2c-0.4,3.7-0.7,7.5-1,11.2c-0.3,3.8-0.6,7.6-0.9,11.4
			c-0.2,1.9-0.4,3.8-0.6,5.8c0,0.3-0.1,0.6-0.1,1c0.2-0.2,0.3-0.2,0.4-0.3c0.5-0.5,0.9-1,1.4-1.5c2-2.5,3.9-5.1,5.5-7.9
			c1.1-1.9,2.4-3.7,3.6-5.6c0.1-0.2,0.2-0.5,0.3-0.8c0.5-3.1,0.9-6.2,1.7-9.2c0.9-3.2,1.9-6.4,3.2-9.4c0.8-1.9,1.7-3.7,3-5.3
			c1.7-2.3,3.9-4,6.6-4.9c1.2-0.4,2.4-0.5,3.6-0.1c2.2,0.6,3.6,2.3,4,4.7c0.2,1.7,0,3.4-0.5,5.1c-0.2,0.7-0.4,1.3-0.7,2
			c-2.2,5.4-6.3,8.6-11.9,10.1c-0.3,0.1-0.5,0.1-0.9,0.2c-0.2,0.9-0.4,1.7-0.5,2.6c-0.4,2.5-0.8,4.9-1.1,7.4
			c-0.2,1.6-0.3,3.2,0.1,4.9c0.2,0.9,0.5,1.8,1.2,2.4c0.2,0.2,0.4,0.3,0.7,0.3c1.4,0.3,2.8,0.1,4.1-0.5c0.6-0.3,1.1-0.6,1.6-0.9
			c1.6-1.1,3.3-2.2,4.8-3.4c1.6-1.4,3.2-2.9,4.7-4.5c1-1,1.9-2.1,2.8-3.2c0.2-0.2,0.3-0.5,0.4-0.7c0.9-5.1,2.1-10.2,3.2-15.3
			c0.9-4.1,1.7-8.3,2.5-12.4c0.4-2,0.6-3.9,0.9-5.9c0.7-4.3,1.5-8.6,2.7-12.8c0.9-3.2,2.2-6.1,4.1-8.9c0.9-1.3,2-2.4,3.3-3.3
			c0.8-0.5,1.6-0.8,2.6-0.8c1.5,0,2.6,0.6,3.3,1.8c0.7,1.1,1,2.4,1.1,3.6c0.2,1.8,0.1,3.5-0.4,5.2c-0.9,3.3-2.1,6.5-3.6,9.6
			c-0.9,1.8-2,3.5-3.3,5c-0.9,1-1.8,1.9-2.9,2.6c-0.2,0.1-0.4,0.3-0.4,0.6c-0.6,4.9-1.7,9.7-2.7,14.6c-0.9,4.1-1.8,8.2-2.6,12.2
			c-0.7,3.7-1.4,7.3-2,11c-0.3,2-0.4,4-0.5,6c0,0.3,0,0.7,0,1c0,0.6,0.3,1.1,0.7,1.6c0.3,0.3,0.6,0.4,1,0.2c0.6-0.3,1.2-0.6,1.7-1
			c2.3-1.8,4.5-3.8,6.3-6.1c1.4-1.9,2.9-3.7,4.4-5.5c0.3-0.4,0.5-0.8,0.6-1.2c0.9-5.7,1.9-11.4,2.8-17.1c0.6-3.6,1.1-7.2,1.7-10.7
			c0.7-4.3,1.2-8.6,2-12.9c0.6-3.7,1.3-7.4,2.5-10.9c0.8-2.3,1.8-4.5,3.1-6.6c0.5-0.9,1.2-1.6,1.9-2.4c0.8-0.8,1.8-1.3,2.9-1.5
			c1.3-0.2,2.5,0.1,3.5,1c1.4,1.1,2.1,2.6,2.2,4.4c0.2,2.8,0,5.5-0.8,8.2c-0.6,2.1-1.2,4.2-2,6.3c-1.7,4-4.3,7.4-7.5,10.4
			c-0.3,0.3-0.4,0.5-0.5,0.9c-0.3,2.3-0.7,4.5-1,6.8c-0.8,5.9-2,11.7-3,17.6c-0.6,3.7-1.2,7.4-1.7,11.1c-0.4,2.8-0.4,5.6-0.3,8.3
			c0,0.5,0.1,0.9,0.2,1.4c0.5,0,0.8-0.2,1.1-0.4c1.9-1.2,3.5-2.7,5-4.4c0.7-0.8,1.4-1.7,2.1-2.5c0.2-0.3,0.3-0.5,0.3-0.9
			c0.1-1.6,0.2-3.2,0.4-4.9c0.4-2.9,1.3-5.7,2.5-8.4c0.6-1.5,1.4-2.9,2.1-4.3c0.7-1.4,1.6-2.7,2.7-3.9c0.2-0.2,0.4-0.4,0.3-0.7
			c-0.4-1.4-0.2-2.9,0-4.3c0.4-2.2,1-4.3,2.1-6.3c0.6-1.2,1.5-2.2,2.4-3.1c1.4-1.3,3-1.7,4.8-1.3c1.6,0.3,3,1,4.4,1.7
			c2,1,3.1,2.8,4.1,4.6c1,1.8,1.7,3.8,2.3,5.8c0.6,2.4,1,4.9,0.9,7.4c-0.1,2.8-0.6,5.6-1.4,8.4C279.6,270.7,279.6,270.8,279.5,271z
			 M272.4,272.3c-4.1-2-7.2-5-10-8.5c-0.2,0.3-0.3,0.6-0.5,0.9c-2,4.2-3.5,8.4-3.6,13.1c-0.1,2.1,0.3,4,1.3,5.8
			c0.4,0.7,0.9,1.5,1.6,1.9c1.3,0.9,3.4,1.3,4.9-0.3c0.7-0.7,1.5-1.5,2.2-2.3c0.4-0.4,0.7-0.9,0.9-1.5c0.6-1.6,1.3-3.2,1.8-4.9
			C271.6,275.2,272,273.8,272.4,272.3z M265,254.5c0.5,0.1,0.9,0.1,1.3,0.2c1.2,0.4,1.7,1.5,1.1,2.6c-0.2,0.4-0.5,0.7-0.8,1.1
			c-0.5,0.6-0.9,1.1-1.4,1.6c0.9,2.4,5.2,7.2,8,8c0,0,0.1-0.1,0.1-0.1c0-0.1,0.1-0.3,0.1-0.4c0.4-2.9,0.6-5.8,0.7-8.7
			c0-2-0.4-3.8-1-5.7c-0.4-1.4-1.1-2.6-2.1-3.7c-0.5-0.6-1.1-1.2-1.8-1.6c-1.2-0.5-2.9-0.3-3.6,1.2
			C264.8,250.8,264.7,252.7,265,254.5z M151.7,272.2c-0.3,0.2-0.4,0.3-0.5,0.4c-1.6,1.3-2.8,2.9-3.8,4.7c-0.9,1.5-1.5,3.2-1.7,4.9
			c-0.4,3.1,0.8,5.7,2.8,7.9c0.2,0.2,0.5,0.4,0.9,0.7c0.2-0.6,0.4-1,0.5-1.5c0.5-2.4,0.9-4.8,1.1-7.3c0.2-2.2,0.4-4.4,0.5-6.6
			C151.5,274.4,151.6,273.4,151.7,272.2z M249.9,237.8c0,0,0.1,0,0.1,0.1c0.1-0.1,0.2-0.2,0.3-0.3c0.8-1.1,1.7-2.2,2.4-3.4
			c1.6-2.6,2.6-5.4,3.3-8.3c0.6-2.4,1-4.9,0.8-7.4c0-0.5-0.1-1.1-0.2-1.6c-0.1-0.7-0.4-1.2-1.1-1.5c-0.1,0.2-0.3,0.3-0.4,0.4
			c-0.3,0.5-0.5,1-0.7,1.5c-0.8,2.3-1.2,4.7-1.8,7c-0.9,3.4-1.6,6.9-2.3,10.4C250.2,235.6,250,236.7,249.9,237.8z M199.5,264.4
			c0,0,0.1,0.1,0.1,0.1c0.6-0.2,1.1-0.5,1.7-0.7c3.2-1.5,5.2-3.9,6.2-7.2c0.4-1.5,0.7-2.9,0.4-4.5c-0.1-0.3-0.2-0.5-0.3-0.8
			c-0.8,0.2-1.5,0.6-2.1,1.1c-0.9,0.8-1.6,1.7-2.3,2.7c-1.2,1.9-2,3.9-2.7,6C200.2,262.3,199.9,263.3,199.5,264.4z M231.2,236.5
			c0.2-0.1,0.3-0.2,0.3-0.3c0.4-0.6,0.9-1.2,1.3-1.8c2.6-4.1,4.1-8.7,4.8-13.5c0.2-1.2,0.1-2.5-0.2-3.7c-0.1-0.3-0.3-0.6-0.4-1
			c-0.3,0.4-0.5,0.7-0.7,1c-0.4,0.9-0.9,1.8-1.2,2.8c-0.7,2-1.2,4.1-1.6,6.2c-0.5,2.4-1.1,4.9-1.7,7.3
			C231.5,234.5,231.4,235.5,231.2,236.5z"/>
		<g>
			<path class="st3" d="M166.7,359.8c1,0.2,2.1,0.3,3.1,0.5c1.8,0.3,3.4,1.2,5.1,1.6c2,0.5,3.8,0.4,5.6-0.6c0.3-0.2,0.6-0.3,0.9-0.4
				c0.6-0.3,1.2-0.2,1.6,0.3c0.4,0.5,0.3,1.2-0.3,1.8c-1,1.1-2.3,1.8-3.8,2.2c-2.7,0.7-5.4,0.7-8-0.1c-3.2-0.9-6.5-1.1-9.8-0.3
				c-0.5,0.1-1.1,0.2-1.6,0.1c-1.5-0.2-2.2-1.7-1.4-3c0.2-0.3,0.5-0.6,0.8-0.9c1.2-1.1,2.3-2.4,3.2-3.9c1.9-3,3.6-6.2,4.9-9.6
				c2-5.2,3.8-10.4,5-15.9c0.9-4.4,1.2-8.8,0.4-13.3c-0.2-1-0.5-1.9-0.9-2.8c-1.2-2.2-2.9-2.9-5.2-2c-1.7,0.6-3,1.8-4.1,3.2
				c-2.2,2.8-3.8,6-3.9,9.7c0,0.7-0.2,1.3-0.9,1.5c-0.7,0.2-1.4-0.2-1.7-1.1c-0.5-1.1-0.5-2.2-0.4-3.3c0.5-6.1,6.1-13,11.9-14.8
				c4.3-1.3,7.9-0.3,10.8,3.2c2.5,3,3.8,6.6,4.1,10.5c0.7,7.9-1.1,15.2-4.8,22.1c-2.7,5.1-5.9,9.9-9.9,14.1
				C167,359.1,166.7,359.3,166.7,359.8z"/>
			<path class="st3" d="M185.1,336.7c0.1-5.9,1.2-11.8,3.6-17.3c1.3-3,3.1-5.8,5.8-7.7c1.8-1.3,3.8-2.2,6.1-2.2
				c1.4,0,2.7,0.5,3.9,1.3c3,2.2,5.2,5.1,6.6,8.6c1.2,3.1,1.9,6.4,2.3,9.7c0.6,4.6,1.1,9.2,0.8,13.9c-0.2,4.3-0.9,8.4-2.1,12.5
				c-0.8,2.6-2.1,4.9-3.8,6.9c-1.6,1.9-3.7,2.9-6.1,3.3c-1.7,0.3-3.4-0.2-4.9-1c-2.4-1.3-4.3-3.2-5.8-5.5c-2.7-4.3-4.6-9-5.5-14.1
				C185.4,342.3,185.2,339.5,185.1,336.7z M211.3,340.9c-0.2-5.6-0.8-10.9-2-16.1c-0.8-3.4-1.8-6.6-4.1-9.3c-0.7-0.8-1.4-1-2.4-0.7
				c-1.9,0.5-3.2,1.7-4.2,3.4c-1.4,2.5-2.2,5.1-2.8,7.9c-1.5,7.2-1.8,14.5-0.8,21.8c0.5,3.4,1.3,6.7,2.9,9.8
				c0.3,0.5,0.6,1.1,0.9,1.6c1.7,2.1,3.9,2.5,6.1,1.1c1.3-0.8,2.3-1.9,3-3.3c0.9-1.8,1.7-3.6,2.1-5.6
				C211,347.9,211.3,344.3,211.3,340.9z"/>
			<path class="st3" d="M222.3,314.9c-1,0.6-1.8,1.2-2.6,1.7c-0.5,0.3-1,0.7-1.6,0.8c-0.6,0.1-1.2-0.1-1.5-0.7
				c-0.3-0.6-0.2-1.2,0.2-1.7c0.3-0.4,0.8-0.7,1.2-1c1-0.7,2.1-1.3,3.2-2c0.8-0.5,1.5-1.1,2.1-1.8c1.3-1.5,2.9-1.7,4.6-0.5
				c1.6,1.1,2.5,2.8,3.2,4.7c0.7,1.9,1,3.8,1.1,5.8c0.5,6.9,0.4,13.8,0.1,20.7c-0.3,5.1-0.7,10.1-1,15.1c-0.1,1.5-0.1,2.9-0.1,4.4
				c0,0.5,0.2,0.8,0.7,0.7c0.8,0,1.6-0.2,2.5,0c0.4,0.1,0.8,0.2,1.2,0.4c0.9,0.6,1,1.8,0.2,2.6c-0.5,0.5-1.2,0.7-1.9,0.8
				c-2.1,0.2-4.2,0.4-6.3,0.5c-1.4,0.1-2.7,0.3-4.1,0.2c-0.6,0-1.3-0.1-1.9-0.2c-0.9-0.2-1.5-0.7-1.5-1.4c-0.1-0.7,0.3-1.3,1.2-1.7
				c0.9-0.5,1.8-0.6,2.8-0.7c0.7-0.1,0.8-0.4,0.8-1.1c-0.5-5.3-0.9-10.7-1.3-16c-0.2-3.3-0.4-6.6-0.4-9.9c0.1-6.4,0-12.9-0.3-19.3
				C222.4,315.2,222.3,315.2,222.3,314.9z"/>
			<path class="st3" d="M246.6,365.7c-1.1,0-2.2-0.1-3.3-0.4c-3-0.9-4.7-3.1-5.2-6.2c-0.4-2.5,0-5,0.9-7.3c2.2-5.1,5.2-9.6,8.7-13.8
				c0.2-0.2,0.4-0.4,0.6-0.6c0.7-0.9,0.7-1.1-0.1-2c-1.9-2.3-3.7-4.7-5.3-7.2c-0.8-1.2-1.5-2.4-2-3.7c-1.5-3.4-1.2-6.8,1-9.7
				c3-4,7-6.2,11.9-6.2c4.2,0,7.4,2,9.3,5.9c1.8,3.7,2.1,7.5,1,11.5c-1.3,4.5-3.7,8.5-6.5,12.1c-1,1.3-1.1,1.3-0.2,2.8
				c1.9,3.2,3,6.7,3,10.5c0,1.9-0.3,3.7-1.2,5.3c-2.3,4.6-5.6,8-10.8,8.9C247.9,365.7,247.2,365.7,246.6,365.7z M250.5,332.8
				c0.5-0.2,0.6-0.6,0.7-0.9c0.8-1.7,1.6-3.4,2.2-5.1c1-3,1.5-6.2,1.1-9.4c-0.4-3.9-4.1-5.9-7.5-4c-0.3,0.2-0.6,0.3-0.8,0.5
				c-3.7,2.6-4.6,6.4-2.4,10.4C245.7,327.4,248.1,330.2,250.5,332.8z M254.6,343.9c-1.6,2.6-3.1,4.9-4.6,7.3
				c-1.5,2.5-2.6,5.1-3.5,7.9c-0.6,1.9-0.3,2.2,1.5,2.3c0.2,0,0.4,0,0.5,0c3.7-0.2,7.7-4.3,8.2-8.2
				C257.2,349.9,256.2,346.9,254.6,343.9z"/>
		</g>
	</g>
	<g>
		<path class="st3" d="M108.4,161.1c0.2,0,0.3-0.1,0.5-0.2c0.6-0.4,0.6-1.2,0-1.6c-0.2-0.1-0.4-0.2-0.7-0.3
			c-0.8-0.2-1.6-0.4-2.3-0.6c-0.9-0.2-1.5-0.7-1.7-1.6c-0.3-1.2-0.5-2.4-0.5-3.6c0-0.8-0.1-1.6-0.2-2.4c0-0.1,0-0.3-0.1-0.4
			c-0.2-0.3-0.4-0.5-0.8-0.5c-0.3,0-0.6,0.2-0.7,0.6c-0.1,0.4-0.1,0.7-0.1,1.1c-0.2,1.9-0.6,3.8-1.2,5.6c-0.4,1.1-1.1,1.6-2.2,1.7
			c-0.8,0.1-1.6,0.1-2.4,0.2c-0.7,0-1.2,0.4-1.2,0.9c-0.1,0.5,0.3,0.9,1,1.1c0.5,0.2,1.1,0.3,1.6,0.5c1.3,0.4,2.3,1.2,3,2.5
			c0.7,1.3,1.3,2.7,1.6,4.2c0,0.2,0.1,0.4,0.2,0.5c0.2,0.4,0.5,0.6,0.9,0.7c0.6,0,1-0.3,1.2-1c0.2-0.7,0.3-1.5,0.5-2.3
			c0.2-0.9,0.5-1.8,0.8-2.7C106.1,162.4,107.1,161.5,108.4,161.1z M104.5,161.5c-0.3,0.4-0.6,0.9-0.8,1.3c-0.2,0.5-0.4,1-0.6,1.5
			c-0.8-1.3-1.4-2.7-2.7-3.5c0.5-0.4,0.9-0.6,1.3-1c0.4-0.4,0.7-0.8,1-1.3c0.6,1.1,1.6,1.6,2.8,1.9
			C105.1,160.8,104.8,161.1,104.5,161.5z"/>
		<path class="st3" d="M145.8,171.6c-0.6-0.2-1.2-0.4-1.9-0.5c-0.9-0.2-1.4-0.8-1.4-1.7c0-0.1,0-0.2,0-0.3c-0.1-1-0.1-1.9-0.2-2.9
			c0-0.6-0.1-1.2-0.2-1.9c-0.1-0.6-0.4-0.9-0.9-0.9c-0.5,0-0.8,0.3-0.9,1c0,0.2,0,0.4-0.1,0.6c-0.1,0.6-0.1,1.2-0.3,1.8
			c-0.2,0.8-0.5,1.5-0.9,2.3c-0.4,0.9-1,1.7-2,2.1c-0.5,0.2-1,0.5-1.4,0.7c-0.4,0.2-0.6,0.5-0.6,0.9c0,0.4,0.3,0.7,0.7,0.9
			c0.1,0.1,0.3,0.1,0.4,0.1c0.9,0.2,1.6,0.7,2.1,1.4c0.4,0.5,0.8,1.1,1,1.7c0.3,0.8,0.5,1.7,0.6,2.6c0.1,0.6,0.5,1,1,1
			c0.5,0,1-0.3,1.1-0.9c0.1-0.4,0.2-0.9,0.3-1.3c0.2-0.8,0.4-1.6,0.6-2.4c0.3-1.2,1.1-2,2.3-2.3c0.2-0.1,0.4-0.1,0.7-0.2
			c0.4-0.1,0.7-0.5,0.7-0.9C146.6,172.1,146.3,171.8,145.8,171.6z M141,175.1c-0.7-0.8-1.3-1.6-2-2.4c0.3-0.2,0.6-0.5,0.9-0.8
			c0.3-0.3,0.6-0.7,0.9-1c0.3,0.9,1,1.5,1.9,1.9C141.8,173.4,141.3,174.2,141,175.1z"/>
		<path class="st3" d="M117.5,189.8c-0.7-0.3-1.4-0.5-2.1-0.8c-0.5-0.2-0.8-0.5-1-0.9c-0.2-0.4-0.3-0.7-0.4-1.1
			c-0.1-0.5-0.1-1.1-0.2-1.6c-0.1-0.5-0.1-1-0.2-1.5c-0.1-0.4-0.5-0.6-0.8-0.6c-0.4,0-0.6,0.2-0.8,0.6c-0.1,0.2-0.1,0.4-0.1,0.6
			c-0.2,0.9-0.4,1.8-0.6,2.7c-0.3,1.2-1.2,1.9-2.4,2.2c-0.5,0.1-1,0.2-1.4,0.4c-0.6,0.2-0.9,0.6-0.8,1c0,0.5,0.4,0.8,0.9,1
			c0.5,0.1,0.9,0.3,1.4,0.4c0.4,0.1,0.6,0.4,0.8,0.7c0.6,1,1.1,2.1,1.3,3.3c0.1,0.4,0.1,0.9,0.2,1.3c0.1,0.5,0.5,0.8,1,0.8
			c0.5,0,0.9-0.3,1.1-0.7c0.1-0.2,0.1-0.5,0.2-0.7c0.2-0.7,0.4-1.5,0.6-2.2c0.3-1,1-1.8,2-2.3c0.5-0.2,1-0.5,1.6-0.7
			c0.4-0.2,0.6-0.4,0.7-0.9c0-0.1-0.1-0.2-0.1-0.4C118.1,190.1,117.8,190,117.5,189.8z M112.5,193.5c-0.5-0.9-1-1.7-1.5-2.5
			c0.3-0.2,0.6-0.5,0.9-0.8c0.3-0.3,0.6-0.6,0.9-1c0.5,0.8,1.2,1.4,2.1,1.8C113.8,191.6,113.1,192.4,112.5,193.5z"/>
		<path class="st3" d="M318.9,152.1c0.2-0.7,0.3-1.5,0.5-2.3c0.2-0.9,0.5-1.8,0.8-2.7c0.5-1.3,1.5-2.1,2.8-2.5
			c0.2,0,0.3-0.1,0.5-0.2c0.6-0.4,0.6-1.2,0-1.6c-0.2-0.1-0.4-0.2-0.7-0.3c-0.8-0.2-1.6-0.4-2.3-0.6c-0.9-0.2-1.5-0.7-1.7-1.6
			c-0.3-1.2-0.5-2.4-0.5-3.6c0-0.8-0.1-1.6-0.2-2.4c0-0.1,0-0.3-0.1-0.4c-0.2-0.3-0.4-0.5-0.8-0.5c-0.3,0-0.6,0.2-0.7,0.6
			c-0.1,0.4-0.1,0.7-0.1,1.1c-0.2,1.9-0.6,3.8-1.2,5.6c-0.4,1.1-1.1,1.6-2.2,1.7c-0.8,0.1-1.6,0.1-2.4,0.2c-0.7,0-1.2,0.4-1.2,0.9
			c-0.1,0.5,0.3,0.9,1,1.1c0.5,0.2,1.1,0.3,1.6,0.5c1.3,0.4,2.3,1.2,3,2.5c0.7,1.3,1.3,2.7,1.6,4.2c0,0.2,0.1,0.4,0.2,0.5
			c0.2,0.4,0.5,0.6,0.9,0.7C318.3,153.1,318.7,152.7,318.9,152.1z M317.6,147.9c-0.8-1.3-1.4-2.7-2.7-3.5c0.5-0.4,0.9-0.6,1.3-1
			c0.4-0.4,0.7-0.8,1-1.3c0.6,1.1,1.6,1.6,2.8,1.9c-0.4,0.4-0.8,0.8-1.1,1.2c-0.3,0.4-0.6,0.9-0.8,1.3
			C318,146.8,317.8,147.3,317.6,147.9z"/>
		<path class="st3" d="M299.8,168c-0.6-0.2-1.2-0.4-1.9-0.5c-0.9-0.2-1.4-0.8-1.4-1.7c0-0.1,0-0.2,0-0.3c-0.1-1-0.1-1.9-0.2-2.9
			c0-0.6-0.1-1.2-0.2-1.9c-0.1-0.6-0.4-0.9-0.9-0.9c-0.5,0-0.8,0.3-0.9,1c0,0.2,0,0.4-0.1,0.6c-0.1,0.6-0.1,1.2-0.3,1.8
			c-0.2,0.8-0.5,1.5-0.9,2.3c-0.4,0.9-1,1.7-2,2.1c-0.5,0.2-1,0.5-1.4,0.7c-0.4,0.2-0.6,0.5-0.6,0.9c0,0.4,0.3,0.7,0.7,0.9
			c0.1,0.1,0.3,0.1,0.4,0.1c0.9,0.2,1.6,0.7,2.1,1.4c0.4,0.5,0.8,1.1,1,1.7c0.3,0.8,0.5,1.7,0.6,2.6c0.1,0.6,0.5,1,1,1
			c0.5,0,1-0.3,1.1-0.9c0.1-0.4,0.2-0.9,0.3-1.3c0.2-0.8,0.4-1.6,0.6-2.4c0.3-1.2,1.1-2,2.3-2.3c0.2-0.1,0.4-0.1,0.7-0.2
			c0.4-0.1,0.7-0.5,0.7-0.9C300.6,168.5,300.3,168.2,299.8,168z M295,171.5c-0.7-0.8-1.3-1.6-2-2.4c0.3-0.2,0.6-0.5,0.9-0.8
			c0.3-0.3,0.6-0.7,0.9-1c0.3,0.9,1,1.5,1.9,1.9C295.8,169.8,295.3,170.6,295,171.5z"/>
		<path class="st3" d="M323,199.5c-0.4,0.8-1,1.5-1.8,1.9c-0.4,0.2-0.9,0.4-1.3,0.6c-0.3,0.2-0.6,0.4-0.6,0.8c0,0.4,0.2,0.7,0.6,0.8
			c0.1,0.1,0.2,0.1,0.4,0.1c0.8,0.2,1.5,0.6,1.9,1.3c0.3,0.5,0.7,1,0.9,1.6c0.3,0.8,0.4,1.6,0.6,2.3c0.1,0.6,0.4,0.9,0.9,0.9
			c0.5,0,0.9-0.3,1-0.8c0.1-0.4,0.2-0.8,0.3-1.2c0.2-0.7,0.3-1.4,0.5-2.1c0.3-1.1,1-1.8,2.1-2.1c0.2-0.1,0.4-0.1,0.6-0.2
			c0.4-0.1,0.6-0.4,0.6-0.8c0-0.4-0.3-0.7-0.7-0.9c-0.6-0.2-1.1-0.4-1.7-0.5c-0.8-0.2-1.2-0.7-1.3-1.5c0-0.1,0-0.2,0-0.3
			c0-0.9-0.1-1.8-0.1-2.7c0-0.6-0.1-1.1-0.1-1.7c-0.1-0.6-0.4-0.9-0.8-0.9c-0.5,0-0.7,0.3-0.8,0.9c0,0.2,0,0.3,0,0.5
			c-0.1,0.5-0.1,1.1-0.3,1.6C323.6,198.1,323.3,198.8,323,199.5z M324.4,201.2c0.3,0.8,0.9,1.3,1.7,1.7c-0.7,0.6-1.2,1.3-1.5,2.1
			c-0.6-0.7-1.2-1.4-1.8-2.1c0.2-0.2,0.6-0.4,0.8-0.7C323.9,201.9,324.1,201.5,324.4,201.2z"/>
		<path class="st3" d="M329.9,257.6c-0.2-0.3-0.4-0.5-0.8-0.6c-0.7-0.3-1.4-0.5-2.1-0.8c-0.5-0.2-0.8-0.5-1-0.9
			c-0.2-0.4-0.3-0.7-0.4-1.1c-0.1-0.5-0.1-1.1-0.2-1.6c-0.1-0.5-0.1-1-0.2-1.5c-0.1-0.4-0.5-0.6-0.8-0.6c-0.4,0-0.6,0.2-0.8,0.6
			c-0.1,0.2-0.1,0.4-0.1,0.6c-0.2,0.9-0.4,1.8-0.6,2.7c-0.3,1.2-1.2,1.9-2.4,2.2c-0.5,0.1-1,0.2-1.4,0.4c-0.6,0.2-0.9,0.6-0.8,1
			c0,0.5,0.4,0.8,0.9,1c0.5,0.1,0.9,0.3,1.4,0.4c0.4,0.1,0.6,0.4,0.8,0.7c0.6,1,1.1,2.1,1.3,3.3c0.1,0.4,0.1,0.9,0.2,1.3
			c0.1,0.5,0.5,0.8,1,0.8c0.5,0,0.9-0.3,1.1-0.7c0.1-0.2,0.1-0.5,0.2-0.7c0.2-0.7,0.4-1.5,0.6-2.2c0.3-1,1-1.8,2-2.3
			c0.5-0.2,1-0.5,1.6-0.7c0.4-0.2,0.6-0.4,0.7-0.9C330,257.8,330,257.7,329.9,257.6z M324.1,260.6c-0.5-0.9-1-1.7-1.5-2.5
			c0.3-0.2,0.6-0.5,0.9-0.8c0.3-0.3,0.6-0.6,0.9-1c0.5,0.8,1.2,1.4,2.1,1.8C325.5,258.7,324.7,259.5,324.1,260.6z"/>
		<path class="st3" d="M297.7,228.7c-0.7-0.3-1.4-0.5-2.1-0.8c-0.5-0.2-0.8-0.5-1-0.9c-0.2-0.4-0.3-0.7-0.4-1.1
			c-0.1-0.5-0.1-1.1-0.2-1.6c-0.1-0.5-0.1-1-0.2-1.5c-0.1-0.4-0.5-0.6-0.8-0.6c-0.4,0-0.6,0.2-0.8,0.6c-0.1,0.2-0.1,0.4-0.1,0.6
			c-0.2,0.9-0.4,1.8-0.6,2.7c-0.3,1.2-1.2,1.9-2.4,2.2c-0.5,0.1-1,0.2-1.4,0.4c-0.6,0.2-0.9,0.6-0.8,1c0,0.5,0.4,0.8,0.9,1
			c0.5,0.1,0.9,0.3,1.4,0.4c0.4,0.1,0.6,0.4,0.8,0.7c0.6,1,1.1,2.1,1.3,3.3c0.1,0.4,0.1,0.9,0.2,1.3c0.1,0.5,0.5,0.8,1,0.8
			c0.5,0,0.9-0.3,1.1-0.7c0.1-0.2,0.1-0.5,0.2-0.7c0.2-0.7,0.4-1.5,0.6-2.2c0.3-1,1-1.8,2-2.3c0.5-0.2,1-0.5,1.6-0.7
			c0.4-0.2,0.6-0.4,0.7-0.9c0-0.1-0.1-0.2-0.1-0.4C298.3,229,298,228.8,297.7,228.7z M292.6,232.3c-0.5-0.9-1-1.7-1.5-2.5
			c0.3-0.2,0.6-0.5,0.9-0.8c0.3-0.3,0.6-0.6,0.9-1c0.5,0.8,1.2,1.4,2.1,1.8C294,230.4,293.2,231.2,292.6,232.3z"/>
	</g>
	<g>
		<g>
			<path d="M134.4,364.8c-0.2-0.1-0.5-0.2-0.7-0.3c-0.4-0.1-0.8-0.1-1.2-0.2c-1-0.2-1.9-0.4-2.8-0.7c-0.7-0.2-1.3-0.4-1.9-0.7
				c-2-0.9-3.8-1.9-5.4-3.4c-1.4-1.3-2.7-3.9-3.6-5.6c-0.4-0.7-0.6-1.3-0.5-2.1c0-0.3,0-0.7,0-1.1c0.2-5.8,0.4-11.6,0.5-17.4
				c0.1-5.4,0.3-10.7,0.3-16.1c0-3.1-0.1-6.3-0.2-9.4c-0.1-4.2-0.4-8.4-0.3-12.6c0-1.1,0-2.2,0-3.2c-0.1-1.7-0.1-3.4-0.4-5.1
				c0.8-0.2,1.5-0.4,2.2-0.5c0.5-0.1,0.9-0.3,1.3-0.7c0.8-0.8,0.8-1.7,0-2.5c-0.6-0.6-1.4-0.9-2.2-1c-1-0.1-2-0.1-3-0.1
				c-0.7,0-1.5,0-2.2,0c-1.2,0-2.4,0-3.5,0.1c-1.1,0-2.2,0.3-3.2,0.8c-0.8,0.4-0.9,1.3-0.3,2c0.1,0.1,0.3,0.3,0.4,0.4
				c0.8,0.6,1.7,1,2.7,1.2c0.6,0.1,1.2,0.2,1.9,0.4c0,0.3-0.1,0.6-0.1,0.8c-0.1,1.7-0.3,3.4-0.3,5.2c-0.2,4.3-0.3,8.5-0.4,12.8
				c0,0.4,0,0.7,0,1.1c0,3,0,5.9,0,8.9c0,1.2-0.1,2.4,0,3.7c0.1,5.5,0.2,11,0.2,16.5c0,5.2,0,10.4,0,15.6c0,0.9-0.1,1.7-0.5,2.5
				c-0.3,0.6-0.5,1.1-0.7,1.7c-1.1,2.5-2.8,4.7-5.1,6.3c-0.7,0.5-1.4,0.9-2.2,1.2c-2.2,0.8-4.4,1.5-6.7,1.8c-0.2,0-0.3,0.1-0.5,0.1
				c-0.1,0-0.3,0.1-0.4,0.2c-0.5,0.3-0.6,1-0.1,1.4c0.3,0.2,0.7,0.4,1,0.4c1.3,0,2.6,0,3.9-0.1c2.1-0.2,4.2,0.2,6.4,0.1
				c4.7-0.1,9.5,0.2,14.3,0c3.8-0.1,7.5-0.1,11.3-0.5c0.7-0.1,1.5-0.3,2.2-0.4c0.3-0.1,0.5-0.3,0.6-0.6
				C134.9,365.3,134.7,365,134.4,364.8z"/>
			<path d="M137.8,214.3c-0.1-1.4-0.6-1.6-1.7-1.7c-0.1,0-0.2,0-0.2,0c-2.6-0.2-5.1-0.2-7.7-0.1c-3.3,0.2-6.6,0.1-10,0
				c-3.9-0.1-7.7-0.1-11.6-0.2c-2.8,0-5.5-0.1-8.3-0.1c-0.8,0-1.7-0.1-2.5-0.1c-1-0.1-1.6,0.4-2,1.4c-0.6,1.4-1,2.9-1.3,4.4
				c-0.9,4.7-1.3,9.4-1.2,14.1c0.1,3.2,0.3,6.4,0.5,9.6c0.3,4.5,1.2,8.9,2.5,13.2c1.5,4.8,3.4,9.3,6.7,13.1c0.9,1,1.8,2,2.8,2.8
				c1.6,1.4,3.6,2.2,5.7,2.6c2.5,0.6,5.1,0.6,7.7,0.6c2.3,0,4.3-0.9,6.1-2.3c0.7-0.6,1.4-1.2,2.2-1.9c1.5-1.2,2.7-2.7,3.7-4.4
				c1.8-2.8,2.9-6,3.8-9.2c2.6-9.1,3.9-18.4,4.6-27.8C138.1,223.7,138.1,219,137.8,214.3z M135.6,215.4c-0.2,2.4-0.4,4.8-0.6,7.2
				c-0.1,0.6,0,1.3,0,1.9c0,4.6-0.1,9.2-0.6,13.7c-0.4,3.9-1,7.8-1.7,11.6c-1,5.3-2.8,10.4-5.9,14.9c-1.3,1.9-2.8,3.6-4.6,4.9
				c-2,1.4-4.2,2.3-6.7,2.4c-2,0-4-0.3-5.9-0.9c-1.7-0.5-3.3-1.5-4.6-2.8c-2.3-2.3-4-5-5.3-8c-0.4-0.9-0.8-1.9-1.2-2.8
				c-0.8-1.7-1.3-3.5-1.7-5.3c-0.5-2.4-1.1-4.9-1.5-7.3c-0.8-4.8-1-9.6-0.8-14.5c0.1-1.7,0.1-3.4,0.3-5c0.1-1,0.3-1.9,0.5-2.9
				c0.6-2.7,1.1-5.4,2.2-8.1c0.5,0.1,1,0.1,1.5,0.2c2.6,0.3,5.3,0.3,7.9,0.4c0.9,0,1.9,0,2.8,0.1c3.4,0.1,6.9,0.1,10.3,0
				c4.4-0.1,8.8-0.2,13.3-0.3c0.8,0,1.6,0,2.4,0C135.6,215,135.6,215.2,135.6,215.4z"/>
			<path d="M108.2,280.8c1.3,0.1,2.5,0.3,3.8,0.4c2.3,0.3,4.6,0,6.9-0.3c0.9-0.1,1.7-0.4,2.6-0.6c0.9-0.2,1.9-0.6,2.6-1.3
				c0.5-0.5,0.6-1.3,0.1-1.9c-0.2-0.3-0.5-0.5-0.7-0.6c-0.7-0.4-1.5-0.6-2.3-0.7c-0.7-0.1-1.5-0.1-2.2-0.1c-2.2,0-4.5-0.1-6.7-0.1
				c-1.8,0-3.6,0.2-5.4,0.4c-1.1,0.1-1.7,0.7-2,1.7c-0.2,0.7-0.1,1.3,0.5,1.8C106,280.3,107.1,280.6,108.2,280.8z"/>
		</g>
		<path class="st3" d="M131.7,245c-0.2-0.8-0.7-1.1-1.5-1c-1,0.2-1.8,0.6-2.6,1.2c-1.4,1.1-2.8,2.1-4.5,2.6c-2.5,0.8-5,1-7.5,0.3
			c-1-0.3-2-0.5-2.9-1c-1.6-0.7-3.3-1.5-4.8-2.4c-1.8-1-3.7-1.7-5.7-1.9c-0.5-0.1-0.9-0.2-1.4-0.3c-1.1-0.3-2.2-0.4-3.3-0.1
			c-0.8,0.2-1,0.5-0.9,1.3c0.1,0.6,0.2,1.2,0.3,1.8c0.3,2.1,0.7,4.1,1.4,6.1c1.3,3.6,2.8,7.1,4.5,10.6c0.7,1.4,1.4,2.7,2.6,3.8
			c0.7,0.7,1.5,1.3,2.2,1.9c1.7,1.4,3.6,2.3,5.8,2.4c1.2,0,2.5,0.1,3.7-0.1c2.2-0.4,4-1.5,5.6-3c1-0.9,1.8-1.8,2.5-2.9
			c2.1-3.3,3.8-6.7,5.2-10.3c0.9-2.3,1.4-4.8,1.5-7.3C131.8,246.2,131.8,245.6,131.7,245z"/>
	</g>
	<g>
		<path d="M339.6,363.6c-0.6,1.1-1.6,1.6-2.8,1.8c-3.6,0.4-7.2,0.5-10.8,0.2c-0.8-0.1-1.6,0-2.3,0c-6.7,0.2-13.3-0.3-20-0.6
			c-4.5-0.1-9-0.1-13.5-0.1c-3.9,0-7.7,0-11.6,0.1c-4,0.1-6.5-3.7-6.1-6.7c0.2-1.3,0.8-2.7,2.5-3.1c2.9-0.7,5.8-1.2,8.8-1.3l0,0
			c0.5,0,1.1,0,1.6,0c0.4,0,0.8,0,1.2,0l0.1,0l0,0c0.5-2.9,1.1-5.8,1.5-8.6c0-0.3,0.1-0.5,0.1-0.8c0.6-4,1.1-8,1.5-11.9
			c0.4-4.1,0.5-8.2,0.3-12.4c-0.1-2.2-0.2-4.5-0.3-6.7c-0.1-4.4-0.6-8.8-1.1-13.1c-0.3-2.1-0.5-4.1-0.8-6.2c-0.1-0.5-0.2-1-0.4-1.5
			c-0.3-1.2-0.1-1.7,1-2.3c2.5-1.3,5.2-2,7.9-2.6c4-0.9,8.1-1.1,12.2-1.3c4.4-0.2,8.9-0.2,13.3,0.1c3.5,0.2,7,0.8,10.4,1.7
			c0.2,0.1,0.4,0.1,0.6,0.2c1.3,0.5,1.9,1.4,1.6,2.8c-0.2,0.8-0.4,1.6-0.7,2.4c-0.8,2.3-1.3,4.7-1.9,7.1c-0.7,2.9-1.6,5.8-2.2,8.8
			c-1.2,5.2-2.4,10.4-2.9,15.8c-0.4,4.1-0.5,8.2-0.4,12.4c0.1,2.3,0.2,4.5,0.6,6.8c0.1,0.6,0.2,1.2,0.4,1.8c0.6,2.4,1.4,4.7,2.1,7
			c0,0.1,0.1,0.2,0.2,0.2c0.1,0,0.2,0,0.3,0l0,0c1.5,0.2,3,0.4,4.5,0.6c0.5,0.1,1.1,0.2,1.6,0.4
			C340.1,355.8,341.7,360.2,339.6,363.6z"/>
		<path class="st3" d="M330.2,353.5c-13.3,0.1-29.8,0.4-43.4,0.4c0.5-2.9,1.1-5.8,1.5-8.6c0-0.3,0.1-0.5,0.1-0.8
			c10.2,0,25.4-0.1,38.9,0c0.1,0.6,0.2,1.2,0.4,1.8c0.6,2.4,1.4,4.7,2.1,7c0,0.1,0.1,0.2,0.2,0.2C330,353.5,330.1,353.5,330.2,353.5
			z"/>
	</g>
</g>
</svg>
