<?xml version="1.0" encoding="utf-8"?>
<!-- Generator: Adobe Illustrator 22.0.0, SVG Export Plug-In . SVG Version: 6.00 Build 0)  -->
<svg version="1.1" id="Calque_1" xmlns="http://www.w3.org/2000/svg" xmlns:xlink="http://www.w3.org/1999/xlink" x="0px" y="0px"
	 viewBox="0 0 432 432" style="enable-background:new 0 0 432 432;" xml:space="preserve">
<style type="text/css">
	.st0{fill:#E0EDF3;}
	.st1{fill:#A5C0DF;}
	.st2{fill:#3F668A;}
	.st3{fill:#162740;}
	.st4{fill:#7B9EC7;}
	.st5{fill:#571419;}
	.st6{fill:#020203;}
	.st7{fill:#F39323;}
	.st8{fill:#8C633A;}
	.st9{fill:#6189B1;}
	.st10{fill:#A8C4D3;}
	.st11{fill:#989389;}
	.st12{fill:#DED3C6;}
	.st13{fill:#36502D;}
	.st14{fill:#DAA405;}
	.st15{fill:#DFE6ED;}
	.st16{fill:#D06C5D;}
	.st17{fill:#972021;}
	.st18{fill:#79986F;}
	.st19{fill:#FFF0BA;}
	.st20{fill:#C9D0D6;}
	.st21{fill:#E7E6E6;}
	.st22{fill:#CDCCCC;}
	.st23{fill:#B4B4B4;}
	.st24{fill:#FFFFFF;}
	.st25{fill:#9F1E29;}
	.st26{fill:#754D24;}
	.st27{fill:#A67D52;}
	.st28{fill:#CDE3EA;}
	.st29{fill:#F2F2F2;}
	.st30{fill:#C7B29A;}
	.st31{fill:#BCA48A;}
	.st32{fill:#D79A5D;}
	.st33{fill:#90443F;}
	.st34{fill:#D6A14D;}
	.st35{fill:#365461;}
	.st36{fill:#4C672C;}
	.st37{fill:#7D915E;}
	.st38{fill:#67302B;}
	.st39{fill:#96B8AA;}
	.st40{fill:#C5463F;}
	.st41{fill:#AFA453;}
	.st42{fill:#F1969D;}
	.st43{fill:#603914;}
	.st44{fill:#82171C;}
	.st45{fill:#066938;}
	.st46{fill:#9A9999;}
	.st47{fill:#C9913E;}
	.st48{fill:#E2A1BC;}
	.st49{fill:#808181;}
	.st50{fill:#C1292E;}
	.st51{fill:#EDCBA9;}
	.st52{fill:#699CBB;}
	.st53{fill:#4E4D4D;}
	.st54{fill:#C29245;}
	.st55{fill:#BB7E28;}
	.st56{fill:#C8904C;}
	.st57{fill:#BB7926;}
	.st58{fill:#A3282E;}
</style>
<g>
	<g>
		<ellipse class="st1" cx="216" cy="200.4" rx="118.6" ry="135.6"/>
		<g>
			<path class="st0" d="M144.6,177.9c-1.7,0-3,1.4-3,3c0,1.7,1.4,3,3,3s3-1.4,3-3C147.7,179.2,146.3,177.9,144.6,177.9z"/>
			<path class="st0" d="M172.4,257.5c-1.7,0-3,1.4-3,3c0,1.7,1.4,3,3,3s3-1.4,3-3C175.5,258.9,174.1,257.5,172.4,257.5z"/>
			<path class="st0" d="M122.6,219.3c-1.7,0-3,1.4-3,3c0,1.7,1.4,3,3,3c1.7,0,3-1.4,3-3C125.6,220.7,124.3,219.3,122.6,219.3z"/>
			<path class="st0" d="M281.9,170.5c1.7,0,3-1.4,3-3c0-1.7-1.4-3-3-3s-3,1.4-3,3C278.8,169.1,280.2,170.5,281.9,170.5z"/>
			<path class="st0" d="M270.1,110.4c-1.7,0-3,1.4-3,3c0,1.7,1.4,3,3,3c1.7,0,3-1.4,3-3C273.2,111.7,271.8,110.4,270.1,110.4z"/>
			<path class="st0" d="M175.6,117.7c-1.7,0-3,1.4-3,3c0,1.7,1.4,3,3,3s3-1.4,3-3C178.6,119.1,177.2,117.7,175.6,117.7z"/>
			<path class="st0" d="M218,75.1c-1.7,0-3,1.4-3,3c0,1.7,1.4,3,3,3c1.7,0,3-1.4,3-3C221,76.4,219.7,75.1,218,75.1z"/>
			<path class="st0" d="M120.7,142c0-1.7-1.4-3-3-3c-1.7,0-3,1.4-3,3c0,1.7,1.4,3,3,3C119.3,145,120.7,143.6,120.7,142z"/>
			<path class="st0" d="M284.2,251.6c1.1-1.3,0.9-3.2-0.3-4.3c-1.3-1.1-3.2-0.9-4.3,0.3c-1.1,1.3-0.9,3.2,0.3,4.3
				C281.2,253.1,283.1,252.9,284.2,251.6z"/>
			<path class="st0" d="M282.6,282.7c-1.1,1.3-0.9,3.2,0.3,4.3c1.3,1.1,3.2,0.9,4.3-0.3c1.1-1.3,0.9-3.2-0.3-4.3
				C285.6,281.3,283.7,281.5,282.6,282.7z"/>
			<path class="st0" d="M314.7,220.3c-1.7,0-3,1.4-3,3c0,1.7,1.4,3,3,3c1.7,0,3-1.4,3-3C317.7,221.6,316.4,220.3,314.7,220.3z"/>
		</g>
	</g>
	<g>
		<path class="st0" d="M233.8,261.9c12-6.5,20.2-19.2,20.2-33.9c0-18.8-13.5-34.4-31.3-37.8c8.9-4.2,15.2-13.3,15.2-23.8
			c0-14.5-11.8-26.3-26.3-26.3c-14.5,0-26.3,11.8-26.3,26.3c0,11.7,7.7,21.6,18.3,25c-15.4,5-26.6,19.5-26.6,36.6
			c0,14.8,8.3,27.6,20.6,34.1c-20.8,7.5-35.7,27.5-35.7,50.9c0,29.9,24.2,54.1,54.1,54.1s54.1-24.2,54.1-54.1
			C270.1,289.4,255,269.3,233.8,261.9z"/>
		<g>
			<path class="st5" d="M237.7,189.7c-2.5-7.5-17.7-5.9-24.8-4.8c-7,1.1-21.3,2.7-21.5,9.6c0,1.3,0,2.5,0,3.6
				c-7.6,5.5-21.1,17.5-24.3,20.7c-3.4,3.4-4.4,7.1-1.7,11.4c2.7,4.3,6.4,4.4,12.1-2.4c3.9-4.6,11.3-14.6,16.2-21.3
				c0.8,1.1,1.8,1.8,2.9,2.3c-2.9,7.9-6.5,22.5-7.4,24.9c-1,2.8,4,4.5,5.9,4.6c1.9,0.1,5,1.2,6.4-10.1c0.9-7,2.3-14,3.1-18.7
				c3.6-0.4,7.7-1.4,12-2.2C230.7,204.8,240.2,197.2,237.7,189.7z"/>
			<path class="st6" d="M248.1,149.6l-7.7-1.7c0.5-0.9,0.9-1.9,1.2-3l4.3-19.2c1.3-5.8-2.4-11.5-8.1-12.8l-23.8-5.3
				c-5.8-1.3-11.5,2.4-12.8,8.1l-4.3,19.2c-0.2,1.1-0.3,2.1-0.2,3.2l-7.7-1.7c-2.8-0.6-5.6,1.1-6.2,3.9c-0.6,2.8,1.1,5.6,3.9,6.2
				l59.3,13.3c2.8,0.6,5.6-1.1,6.2-3.9h0C252.6,153.1,250.9,150.3,248.1,149.6z"/>
			<g>
				<path class="st6" d="M204.3,155.8c-1.1,0-2,1.1-2,2.5c0,1.4,0.9,2.5,2,2.5c1.1,0,2-1.1,2-2.5C206.3,157,205.4,155.8,204.3,155.8
					z"/>
				<ellipse class="st6" cx="216" cy="158.3" rx="2" ry="2.5"/>
			</g>
			<path class="st7" d="M213,164.4c-1-1-1.2-1.8-2.5-1.6c-3.7,0.5-14.4,2.5-16.5,3.1c-2.1,0.6-2.5,3.7,3.2,3.8
				c5.7,0.1,13.2-0.1,15.7-0.4S214,165.3,213,164.4z"/>
			<g>
				<path class="st8" d="M296.7,198.5c-6.2,0.3-12.3,0.6-18.5,0.9l0,0c3.9-4.8,7.5-9.8,10.7-15c1-1.6-1.5-3.1-2.5-1.5
					c-2.7,4.3-5.6,8.4-8.7,12.4c-0.5-4.5-0.6-9-0.4-13.6c0.1-1.9-2.9-1.9-2.9,0c-0.2,5.6,0.1,11.2,0.8,16.8c-1.6,2-3.3,3.9-5.1,5.8
					c-2.7,2.9-5.5,5.8-8.5,8.5c-4.3,4-8.6,6.1-14.2,7.6c-1.8,0.5-1.1,3.3,0.8,2.8c9.7-2.6,16-8.3,22.8-15.5c1.6-1.7,3.2-3.5,4.8-5.4
					c0.2,0.1,0.4,0.2,0.7,0.1c6.7-0.3,13.5-0.7,20.2-1C298.5,201.4,298.6,198.4,296.7,198.5z"/>
				<path class="st8" d="M184.2,233.6c-9.7,5.2-14.7,15.6-23.7,21.7c-2.4,1.6-4.9,2.9-7.5,4.2c-8.1-0.2-16.2-0.5-24.3-1.1
					c-1.9-0.1-1.9,2.8,0,2.9c6,0.4,12,0.7,18,0.9c-5,2.2-10,4.5-14.2,8.2c-1.4,1.3,0.7,3.3,2.1,2.1c5.5-4.8,12.3-7.2,18.8-10.1
					c0,0,0.1,0,0.1,0c-0.7,3.9-1.2,7.7-1.4,11.6c-0.1,1.9,2.8,1.9,2.9,0c0.3-4.3,0.8-8.5,1.7-12.7c0-0.2,0-0.3,0-0.4
					c2.3-1.1,4.5-2.4,6.6-3.9c8.3-6.1,13.2-15.9,22.5-20.8C187.4,235.3,185.9,232.7,184.2,233.6z"/>
			</g>
			<g>
				<path class="st5" d="M197.2,174.5c-0.2-0.2-0.6-0.1-0.7,0.2c-0.2,0.2-0.1,0.6,0.2,0.7s0.6,0.1,0.7-0.2
					C197.5,175,197.4,174.7,197.2,174.5z"/>
				<path class="st5" d="M222,174.5c-0.2-0.2-0.6-0.1-0.7,0.2c-0.2,0.2-0.1,0.6,0.2,0.7s0.6,0.1,0.7-0.2
					C222.4,175,222.3,174.7,222,174.5z"/>
				<path class="st5" d="M201.5,176.1c-0.5-0.3-1.1-0.1-1.4,0.3c-0.3,0.5-0.1,1.1,0.3,1.4c0.5,0.3,1.1,0.1,1.4-0.3
					C202.1,177,202,176.4,201.5,176.1z"/>
				<path class="st5" d="M206.6,177.9c-0.5-0.3-1.1-0.1-1.4,0.3c-0.3,0.5-0.1,1.1,0.3,1.4c0.5,0.3,1.1,0.1,1.4-0.3
					C207.2,178.8,207,178.1,206.6,177.9z"/>
				<path class="st5" d="M212.1,177.7c-0.5-0.3-1.1-0.1-1.4,0.3c-0.3,0.5-0.1,1.1,0.3,1.4c0.5,0.3,1.1,0.1,1.4-0.3
					C212.7,178.6,212.5,178,212.1,177.7z"/>
				<path class="st5" d="M217.8,176c-0.5-0.3-1.1-0.1-1.4,0.3c-0.3,0.5-0.1,1.1,0.3,1.4c0.5,0.3,1.1,0.1,1.4-0.3
					C218.4,176.9,218.2,176.2,217.8,176z"/>
			</g>
			<g>
				<path class="st5" d="M214,228.8c1.8,0,3.2-1.5,3.2-3.2s-1.5-3.2-3.2-3.2c-1.8,0-3.2,1.5-3.2,3.2S212.2,228.8,214,228.8z"/>
				<path class="st5" d="M214,235.2c-1.8,0-3.2,1.5-3.2,3.2c0,1.8,1.5,3.2,3.2,3.2c1.8,0,3.2-1.5,3.2-3.2
					C217.3,236.6,215.8,235.2,214,235.2z"/>
				<path class="st5" d="M214,248c-1.8,0-3.2,1.5-3.2,3.2c0,1.8,1.5,3.2,3.2,3.2c1.8,0,3.2-1.5,3.2-3.2
					C217.3,249.4,215.8,248,214,248z"/>
			</g>
		</g>
	</g>
</g>
</svg>
